<?xml version="1.0" encoding="utf-8"?>
<!-- Generator: Adobe Illustrator 15.0.0, SVG Export Plug-In . SVG Version: 6.00 Build 0)  -->
<!DOCTYPE svg PUBLIC "-//W3C//DTD SVG 1.1//EN" "http://www.w3.org/Graphics/SVG/1.1/DTD/svg11.dtd">
<svg version="1.1" xmlns="http://www.w3.org/2000/svg" xmlns:xlink="http://www.w3.org/1999/xlink" x="0px" y="0px"
	 width="296.333px" height="183.6665px" viewBox="0 0 296.333 183.6665" style="enable-background:new 0 0 296.333 183.6665;"
	 xml:space="preserve">
<style type="text/css">
<![CDATA[
	.st0{opacity:0.54;fill:none;stroke:#9B8579;stroke-width:8.5039;stroke-linejoin:round;}
	.st1{fill:none;stroke:#00AEEF;stroke-linejoin:bevel;stroke-miterlimit:10;}
	.st2{display:inline;fill:none;stroke:#ED1C24;stroke-miterlimit:10;}
	.st3{opacity:0.72;fill:none;stroke:#9B8579;stroke-width:8.5039;}
	.st4{fill:none;stroke:#6D6E71;}
	.st5{fill:none;stroke:#00AEEF;}
	.st6{opacity:0.18;fill:none;stroke:#2E3192;stroke-width:8.5039;stroke-linejoin:bevel;stroke-miterlimit:10;}
	.st7{opacity:0.48;fill:none;stroke:#2E3192;stroke-width:8.5039;stroke-linejoin:round;stroke-miterlimit:10;}
	.st8{opacity:0.5;fill:none;stroke:#ED1C24;stroke-width:8.5039;stroke-linejoin:round;}
	.st9{opacity:0.59;fill:none;stroke:#9B8579;stroke-width:8.5039;stroke-linejoin:round;}
	.st10{opacity:0.29;fill:none;stroke:#2E3192;stroke-width:8.5039;stroke-linejoin:bevel;stroke-miterlimit:10;}
	.st11{display:none;opacity:0.43;}
	.st12{opacity:0.36;fill:none;stroke:#ED1C24;stroke-width:8.5039;stroke-linejoin:round;}
	.st13{opacity:0.54;fill:none;stroke:#9B8579;stroke-width:8.5039;stroke-linecap:round;stroke-linejoin:round;}
	.st14{opacity:0.5;fill:none;stroke:#00AEEF;stroke-width:8.5039;stroke-miterlimit:10;}
	.st15{display:inline;fill:none;stroke:#ED1C24;}
	.st16{display:none;}
	.st17{opacity:0.58;fill:none;stroke:#9B8579;stroke-width:8.5039;stroke-linejoin:round;}
	.st18{display:inline;fill:none;stroke:#2BB673;stroke-miterlimit:10;}
]]>
</style>
<g id="Background" class="st11">
	
		<image style="display:inline;overflow:visible;" width="1412" height="927" xlink:href="scan1012.jpg"  transform="matrix(0.242 0 0 0.2394 -18.2651 -7.6362)">
	</image>
</g>
<g id="_x33_-Outer">
	<g>
		<path class="st6" d="M25.647,185.4146c-17.3618,0-31.4868-13.9883-31.4868-31.1816V26.6743
			c0-17.1934,14.125-31.1807,31.4868-31.1807h244.7065c17.3623,0,31.4873,13.9873,31.4873,31.1807v127.5586
			c0,17.1934-14.125,31.1816-31.4873,31.1816H25.647z"/>
		<path class="st10" d="M25.647,178.3276c-13.4546,0-24.4004-10.8086-24.4004-24.0947V26.6743
			c0-13.2856,10.9458-24.0942,24.4004-24.0942h244.7065c13.4541,0,24.4004,10.8086,24.4004,24.0942v127.5586
			c0,13.2861-10.9463,24.0947-24.4004,24.0947H25.647z"/>
		<path class="st7" d="M122.377,178.4185l-5.7534-2.9258H25.71c-11.8916,0-21.5659-9.5371-21.5659-21.2598v-4.4443l3-4.834v-48.793
			l-1.5-2.167V59.2778l1.5-2.834V35.313l-3-6.166v-2.4727c0-11.7227,9.6743-21.2598,21.5659-21.2598h244.707
			c11.8906,0,21.5645,9.5371,21.5645,21.2598v2.4043l-3.166,5.834v109.25l3.166,6.334v3.7363
			c0,11.7227-9.6738,21.2598-21.5645,21.2598h-13.7344l-5.166,2.9258H122.377z"/>
	</g>
</g>
<g id="_x32_-Inner">
	<g>
		<path class="st8" d="M36.7632,150.2612c-0.7817,0-1.4175-0.6357-1.4175-1.417V29.5059c0-0.7817,0.6357-1.4175,1.4175-1.4175
			H257.582c0.7813,0,1.417,0.6357,1.417,1.4175v119.3384c0,0.7813-0.6357,1.417-1.417,1.417H36.7632z"/>
		<rect x="42.4321" y="35.1748" class="st12" width="209.48" height="107.9995"/>
		<rect x="49.5186" y="42.2612" class="st12" width="195.3066" height="93.8262"/>
		<rect x="56.605" y="49.3477" class="st12" width="181.1333" height="79.6528"/>
		<rect x="63.6914" y="56.4341" class="st12" width="166.96" height="65.4795"/>
		<rect x="70.7778" y="63.5205" class="st12" width="152.7866" height="51.3062"/>
		<rect x="77.8643" y="70.6069" class="st12" width="138.6133" height="37.1328"/>
		<rect x="84.9507" y="77.6934" class="st12" width="124.4399" height="22.9595"/>
		<rect x="92.0371" y="84.7798" class="st12" width="110.2666" height="8.7866"/>
		<rect x="93.4546" y="86.1973" class="st12" width="107.4321" height="5.9517"/>
	</g>
</g>
<g id="_x34_-Cutout">
	<path class="st14" d="M37.2104,173.9185l-4.729-3.1582h-7.8101c-8.5967,0-15.5903-6.9932-15.5903-15.5898V28.1777
		c0-8.5967,6.9937-15.5903,15.5903-15.5903h245.7642c8.5967,0,15.5908,6.9937,15.5908,15.5903v126.9927
		c0,8.5967-6.9941,15.5898-15.5908,15.5898h-10.4219l-4.9375,3.1582H37.2104z"/>
</g>
<g id="_x31_-TopPlane" opacity="0.3">
	<path class="st3" d="M23.666,44.1577c-8.9092,0-16.1572-7.2485-16.1572-16.1577s7.248-16.1577,16.1572-16.1577
		c8.9097,0,16.1582,7.2485,16.1582,16.1577S32.5757,44.1577,23.666,44.1577z"/>
	<path class="st3" d="M23.666,39.0552c-6.0957,0-11.0547-4.9595-11.0547-11.0552s4.959-11.0552,11.0547-11.0552
		c6.0962,0,11.0557,4.9595,11.0557,11.0552S29.7622,39.0552,23.666,39.0552z"/>
	<path class="st3" d="M270.2803,44.1582c-8.9082,0-16.1563-7.249-16.1563-16.1577c0-8.9092,7.248-16.1577,16.1563-16.1577
		c8.9102,0,16.1582,7.2485,16.1582,16.1577C286.4385,36.9092,279.1904,44.1582,270.2803,44.1582z"/>
	<path class="st3" d="M270.2803,39.0557c-6.0957,0-11.0547-4.959-11.0547-11.0552c0-6.0957,4.959-11.0552,11.0547-11.0552
		c6.0967,0,11.0566,4.9595,11.0566,11.0552C281.3369,34.0967,276.377,39.0557,270.2803,39.0557z"/>
	<path class="st3" d="M270.2803,171.7163c-8.9082,0-16.1563-7.249-16.1563-16.1572c0-8.9102,7.248-16.1582,16.1563-16.1582
		c8.9102,0,16.1582,7.248,16.1582,16.1582C286.4385,164.4673,279.1904,171.7163,270.2803,171.7163z"/>
	<path class="st3" d="M270.2803,166.6138c-6.0957,0-11.0547-4.959-11.0547-11.0547s4.959-11.0557,11.0547-11.0557
		c6.0967,0,11.0566,4.96,11.0566,11.0557S276.377,166.6138,270.2803,166.6138z"/>
	<path class="st3" d="M23.666,171.7163c-8.9092,0-16.1572-7.249-16.1572-16.1572c0-8.9102,7.248-16.1582,16.1572-16.1582
		c8.9097,0,16.1582,7.248,16.1582,16.1582C39.8242,164.4673,32.5757,171.7163,23.666,171.7163z"/>
	<path class="st3" d="M23.666,166.6138c-6.0957,0-11.0547-4.959-11.0547-11.0547s4.959-11.0557,11.0547-11.0557
		c6.0962,0,11.0557,4.96,11.0557,11.0557S29.7622,166.6138,23.666,166.6138z"/>
	<rect x="6.333" y="7.6665" class="st0" width="283.46" height="170.0801"/>
	<rect x="10.585" y="11.9185" class="st13" width="274.9561" height="161.5762"/>
	<rect x="39.8242" y="16.9453" class="st0" width="211.8418" height="151.7212"/>
	<rect x="46.9106" y="24.0317" class="st0" width="197.6685" height="137.5479"/>
	<rect x="53.9971" y="31.1182" class="st0" width="183.4951" height="123.3745"/>
	<rect x="61.0835" y="38.2046" class="st0" width="169.3218" height="109.2012"/>
	<rect x="68.1699" y="45.291" class="st0" width="155.1484" height="95.0278"/>
	<rect x="75.2563" y="52.3774" class="st0" width="140.9751" height="80.8545"/>
	<rect x="82.3428" y="59.4639" class="st0" width="126.8018" height="66.6812"/>
	<rect x="89.4292" y="66.5503" class="st0" width="112.6284" height="52.5078"/>
	<rect x="96.5156" y="73.6367" class="st0" width="98.4551" height="38.3345"/>
	<rect x="103.6021" y="80.7231" class="st0" width="84.2817" height="24.1611"/>
	<rect x="110.6885" y="87.8096" class="st0" width="70.1084" height="9.9878"/>
	<rect x="113.5229" y="90.644" class="st0" width="64.439" height="4.3184"/>
	<rect x="13.9995" y="49" class="st17" width="20.7222" height="87.3335"/>
	<rect x="21.0859" y="56.0864" class="st17" width="6.5493" height="74.8262"/>
	<rect x="257.333" y="44.1582" class="st9" width="22.333" height="93.8413"/>
	<rect x="264.4199" y="51.2446" class="st9" width="8.1592" height="79.668"/>
</g>
<g id="_x30_-OutlinesLegs" opacity="0.3">
	<rect x="23.6665" y="28" class="st4" width="246.6138" height="127.5591"/>
	<circle class="st5" cx="270.2808" cy="28" r="6.8032"/>
	<circle class="st5" cx="270.2808" cy="155.5591" r="6.8032"/>
	<circle class="st5" cx="23.6665" cy="155.5591" r="6.8032"/>
	<circle class="st5" cx="23.6665" cy="28" r="6.8032"/>
	<circle class="st1" cx="270.2798" cy="28.001" r="2.8345"/>
	<circle class="st1" cx="270.2798" cy="155.5591" r="2.8345"/>
	<circle class="st1" cx="23.6663" cy="155.5591" r="2.8347"/>
	<circle class="st1" cx="23.6663" cy="28.0005" r="2.8347"/>
</g>
<g id="_x30_-Outlines" class="st16">
	<path class="st18" d="M258.7705,166.5083l-4.9375,3.1582H38.4995l-4.729-3.1582h-9.0991c-6.2617,0-11.3384-5.0762-11.3384-11.3379
		V28.1777c0-6.2617,5.0767-11.3384,11.3384-11.3384h245.7642c6.2617,0,11.3389,5.0767,11.3389,11.3384v126.9927
		c0,6.2617-5.0771,11.3379-11.3389,11.3379H258.7705z"/>
	<path class="st15" d="M263.251,148.8442c0,3.1309-2.5381,5.6689-5.6689,5.6689H36.7632c-3.1313,0-5.6694-2.5381-5.6694-5.6689
		V29.5059c0-3.1313,2.5381-5.6694,5.6694-5.6694H257.582c3.1309,0,5.6689,2.5381,5.6689,5.6694V148.8442z"/>
	<path class="st2" d="M123.333,175.1665l-5.7534-2.9258H25.647c-9.5625,0-17.314-7.6133-17.314-17.0078v-3.2324l3-4.834v-51.333
		l-1.5-2.167v-32.333l1.5-2.8345V35.3335l-3-6.1665v-1.4927c0-9.3931,7.7515-17.0078,17.314-17.0078h244.7065
		c9.5625,0,17.3135,7.6147,17.3135,17.0078v1.3252L284.5,34.833v111.3335l3.167,6.334v2.7324
		c0,9.3945-7.751,17.0078-17.3135,17.0078h-11.9492H255.5l-5.167,2.9258H123.333z"/>
</g>
</svg>
