<?xml version="1.0" encoding="iso-8859-1"?>
<!DOCTYPE svg PUBLIC "-//W3C//DTD SVG 1.0//EN" "http://www.w3.org/TR/2001/REC-SVG-20010904/DTD/svg10.dtd">
<svg width="640" height="480" xmlns="http://www.w3.org/2000/svg" xmlns:xlink="http://www.w3.org/1999/xlink" onload="init(evt)" onmousemove="msMove(evt)">
<g transform="translate(0,0) scale(1,1)" stroke-width="1">
<!--  <path stroke="black" fill="white" stroke-width="2" d="M0,0 H640 V480 H0 V0"/>-->
  <g transform="translate(320,240) scale(64,60)">
    <path stroke="gray" stroke-width="0.01" d="M-5,-3 H5"/>
    <path stroke="gray" stroke-width="0.01" d="M-5,-2 H5"/>
    <path stroke="gray" stroke-width="0.01" d="M-5,-1 H5"/>
    <path stroke="gray" stroke-width="0.02" d="M-5,0 H5"/>
    <path stroke="gray" stroke-width="0.01" d="M-5,1 H5"/>
    <path stroke="gray" stroke-width="0.01" d="M-5,2 H5"/>
    <path stroke="gray" stroke-width="0.01" d="M-5,3 H5"/>
    <path stroke="gray" stroke-width="0.01" d="M-4,-4 V4"/>
    <path stroke="gray" stroke-width="0.01" d="M-3,-4 V4"/>
    <path stroke="gray" stroke-width="0.01" d="M-2,-4 V4"/>
    <path stroke="gray" stroke-width="0.01" d="M-1,-4 V4"/>
    <path stroke="gray" stroke-width="0.02" d="M0,-4 V4"/>
    <path stroke="gray" stroke-width="0.01" d="M1,-4 V4"/>
    <path stroke="gray" stroke-width="0.01" d="M2,-4 V4"/>
    <path stroke="gray" stroke-width="0.01" d="M3,-4 V4"/>
    <path stroke="gray" stroke-width="0.01" d="M4,-4 V4"/>
  </g>
  <text font-family="Arial" font-weight="bold" x="2" y="22" fill="gray" font-size="20" text-anchor="start">Owon PDS5022S  : auna SMPS noise</text>
<!--
<path stroke="red" transform="translate(0,240) scale(0.128,-2.4)" fill="none" stroke-width="3" d="M0,10 L1,9 L2,10 L3,11 L4,10 L5,11 L6,11 L7,11 L8,10 L9,12 L10,17 L11,9 L12,10 L13,12 L14,10 L15,10 L16,11 L17,33 L18,11 L19,14 L20,10 L21,11 L22,11 L23,10 L24,10 L25,10 L26,10 L27,11 L28,13 L29,11 L30,11 L31,10 L32,9 L33,11 L34,11 L35,13 L36,13 L37,13 L38,12 L39,11 L40,11 L41,9 L42,12 L43,6 L44,12 L45,10 L46,11 L47,10 L48,9 L49,8 
L50,8 L51,7 L52,10 L53,9 L54,10 L55,9 L56,8 L57,13 L58,9 L59,8 L60,8 L61,12 L62,8 L63,10 L64,6 L65,9 L66,9 L67,10 L68,10 L69,10 L70,10 L71,-7 L72,11 L73,11 L74,12 L75,11 L76,10 L77,11 L78,14 L79,12 L80,9 L81,11 L82,9 L83,10 L84,9 L85,4 L86,8 L87,8 L88,8 L89,7 L90,6 L91,8 L92,7 L93,6 L94,7 L95,6 L96,9 L97,5 L98,5 L99,6 L100,5 L101,5 L102,4 L103,4 L104,-8 L105,3 L106,4 L107,4 L108,4 L109,2 L110,4 L111,3 L112,1 L113,3 L114,3 L115,1 L116,3 L117,6 L118,-18 L119,4 L120,3 L121,4 L122,5 L123,8 L124,8 L125,-4 L126,7 L127,4 L128,6 L129,7 L130,8 L131,7 L132,5 L133,9 L134,10 L135,9 L136,9 L137,9 L138,9 L139,9 L140,10 L141,11 L142,9 L143,10 L144,13 L145,10 L146,9 L147,9 L148,13 L149,10 
L150,8 L151,8 L152,9 L153,11 L154,9 L155,8 L156,10 L157,11 L158,13 L159,7 L160,8 L161,11 L162,10 L163,10 L164,9 L165,1 L166,9 L167,7 L168,7 L169,9 L170,9 L171,9 L172,-3 L173,10 L174,10 L175,10 L176,13 L177,10 L178,11 L179,3 L180,14 L181,11 L182,11 L183,14 L184,14 L185,9 L186,19 L187,11 L188,11 L189,12 L190,10 L191,9 L192,12 L193,10 L194,11 L195,11 L196,12 L197,12 L198,8 L199,11 L200,11 L201,11 L202,12 L203,10 L204,9 L205,12 L206,10 L207,8 L208,9 L209,9 L210,7 L211,8 L212,13 L213,7 L214,6 L215,8 L216,4 L217,7 L218,4 L219,0 L220,3 L221,3 L222,4 L223,4 L224,3 L225,3 L226,-5 L227,0 L228,1 L229,2 L230,3 L231,0 L232,3 L233,2 L234,2 L235,3 L236,2 L237,4 L238,4 L239,3 L240,3 L241,4 L242,4 L243,5 L244,5 L245,4 L246,6 L247,7 L248,6 L249,9 
L250,7 L251,8 L252,7 L253,8 L254,8 L255,8 L256,10 L257,8 L258,9 L259,2 L260,8 L261,8 L262,8 L263,9 L264,7 L265,8 L266,21 L267,7 L268,6 L269,6 L270,7 L271,5 L272,5 L273,2 L274,6 L275,4 L276,6 L277,3 L278,3 L279,4 L280,7 L281,4 L282,6 L283,4 L284,5 L285,4 L286,3 L287,1 L288,4 L289,6 L290,5 L291,5 L292,4 L293,5 L294,9 L295,5 L296,6 L297,6 L298,6 L299,7 L300,8 L301,7 L302,10 L303,9 L304,10 L305,8 L306,9 L307,9 L308,7 L309,8 L310,11 L311,11 L312,11 L313,28 L314,9 L315,9 L316,8 L317,10 L318,9 L319,10 L320,9 L321,10 L322,9 L323,9 L324,8 L325,9 L326,8 L327,7 L328,12 L329,10 L330,9 L331,9 L332,9 L333,9 L334,10 L335,12 L336,9 L337,9 L338,10 L339,14 L340,10 L341,11 L342,11 L343,11 L344,11 L345,12 L346,10 L347,10 L348,9 L349,7 
L350,10 L351,9 L352,8 L353,-20 L354,8 L355,8 L356,8 L357,8 L358,9 L359,7 L360,5 L361,6 L362,4 L363,5 L364,6 L365,5 L366,8 L367,-12 L368,7 L369,4 L370,8 L371,6 L372,7 L373,8 L374,11 L375,7 L376,8 L377,9 L378,9 L379,8 L380,10 L381,13 L382,11 L383,9 L384,9 L385,9 L386,8 L387,9 L388,4 L389,8 L390,7 L391,6 L392,6 L393,7 L394,6 L395,5 L396,5 L397,6 L398,5 L399,7 L400,8 L401,4 L402,4 L403,4 L404,3 L405,1 L406,6 L407,-6 L408,5 L409,7 L410,3 L411,4 L412,4 L413,3 L414,-24 L415,4 L416,1 L417,3 L418,4 L419,3 L420,5 L421,-9 L422,8 L423,3 L424,6 L425,7 L426,-2 L427,5 L428,6 L429,8 L430,8 L431,8 L432,7 L433,8 L434,6 L435,8 L436,8 L437,7 L438,8 L439,8 L440,5 L441,5 L442,7 L443,6 L444,5 L445,5 L446,4 L447,4 L448,4 L449,4 
L450,4 L451,4 L452,4 L453,4 L454,14 L455,4 L456,2 L457,2 L458,2 L459,0 L460,0 L461,0 L462,2 L463,5 L464,3 L465,2 L466,2 L467,4 L468,-12 L469,3 L470,10 L471,7 L472,4 L473,5 L474,8 L475,3 L476,4 L477,6 L478,6 L479,6 L480,9 L481,8 L482,5 L483,8 L484,6 L485,8 L486,8 L487,11 L488,8 L489,9 L490,9 L491,9 L492,10 L493,8 L494,8 L495,11 L496,9 L497,8 L498,9 L499,8 L500,8 L501,13 L502,9 L503,7 L504,9 L505,8 L506,8 L507,10 L508,3 L509,5 L510,7 L511,12 L512,8 L513,9 L514,7 L515,-1 L516,10 L517,10 L518,10 L519,10 L520,9 L521,10 L522,18 L523,11 L524,8 L525,10 L526,12 L527,10 L528,15 L529,11 L530,9 L531,8 L532,9 L533,11 L534,8 L535,10 L536,10 L537,9 L538,7 L539,10 L540,10 L541,12 L542,8 L543,12 L544,9 L545,8 L546,13 L547,11 L548,3 L549,10 
L550,12 L551,10 L552,8 L553,10 L554,9 L555,11 L556,10 L557,11 L558,11 L559,9 L560,9 L561,10 L562,3 L563,6 L564,7 L565,8 L566,10 L567,10 L568,6 L569,9 L570,6 L571,6 L572,5 L573,6 L574,6 L575,7 L576,0 L577,8 L578,6 L579,5 L580,7 L581,6 L582,4 L583,7 L584,8 L585,8 L586,5 L587,7 L588,8 L589,5 L590,7 L591,12 L592,7 L593,7 L594,11 L595,18 L596,8 L597,9 L598,8 L599,10 L600,10 L601,9 L602,13 L603,8 L604,10 L605,6 L606,8 L607,7 L608,9 L609,-19 L610,10 L611,6 L612,7 L613,4 L614,6 L615,6 L616,-5 L617,4 L618,5 L619,5 L620,18 L621,4 L622,4 L623,1 L624,5 L625,4 L626,6 L627,5 L628,5 L629,3 L630,8 L631,5 L632,4 L633,5 L634,11 L635,10 L636,7 L637,6 L638,4 L639,5 L640,5 L641,8 L642,9 L643,-2 L644,8 L645,8 L646,7 L647,7 L648,9 L649,6 
L650,7 L651,12 L652,8 L653,10 L654,9 L655,11 L656,5 L657,8 L658,8 L659,9 L660,7 L661,7 L662,8 L663,8 L664,5 L665,8 L666,8 L667,10 L668,3 L669,7 L670,15 L671,8 L672,8 L673,9 L674,9 L675,6 L676,2 L677,5 L678,7 L679,5 L680,12 L681,8 L682,8 L683,11 L684,5 L685,9 L686,8 L687,8 L688,9 L689,7 L690,7 L691,8 L692,14 L693,8 L694,8 L695,8 L696,45 L697,8 L698,8 L699,8 L700,7 L701,9 L702,8 L703,10 L704,8 L705,8 L706,6 L707,7 L708,6 L709,8 L710,22 L711,8 L712,8 L713,7 L714,7 L715,8 L716,8 L717,3 L718,8 L719,8 L720,9 L721,10 L722,8 L723,8 L724,10 L725,8 L726,8 L727,7 L728,8 L729,7 L730,6 L731,7 L732,6 L733,7 L734,5 L735,1 L736,5 L737,5 L738,7 L739,3 L740,3 L741,3 L742,2 L743,-1 L744,2 L745,2 L746,1 L747,2 L748,3 L749,1 
L750,-4 L751,1 L752,3 L753,3 L754,2 L755,0 L756,3 L757,16 L758,4 L759,7 L760,2 L761,4 L762,4 L763,4 L764,-8 L765,5 L766,7 L767,5 L768,6 L769,8 L770,8 L771,8 L772,7 L773,7 L774,4 L775,6 L776,6 L777,6 L778,8 L779,5 L780,6 L781,5 L782,5 L783,-1 L784,4 L785,2 L786,1 L787,0 L788,-3 L789,1 L790,2 L791,1 L792,0 L793,0 L794,0 L795,0 L796,2 L797,6 L798,-2 L799,-1 L800,1 L801,0 L802,-4 L803,1 L804,11 L805,0 L806,1 L807,1 L808,2 L809,3 L810,2 L811,18 L812,4 L813,3 L814,3 L815,4 L816,3 L817,4 L818,-1 L819,5 L820,6 L821,6 L822,5 L823,6 L824,6 L825,7 L826,7 L827,8 L828,6 L829,6 L830,12 L831,7 L832,7 L833,7 L834,8 L835,8 L836,7 L837,6 L838,7 L839,8 L840,7 L841,9 L842,8 L843,9 L844,4 L845,8 L846,8 L847,8 L848,8 L849,8 
L850,7 L851,7 L852,7 L853,11 L854,9 L855,9 L856,11 L857,10 L858,4 L859,10 L860,10 L861,9 L862,10 L863,9 L864,5 L865,3 L866,10 L867,8 L868,8 L869,8 L870,8 L871,7 L872,8 L873,3 L874,5 L875,6 L876,6 L877,5 L878,5 L879,5 L880,5 L881,5 L882,4 L883,6 L884,5 L885,5 L886,5 L887,4 L888,5 L889,6 L890,3 L891,27 L892,6 L893,8 L894,8 L895,6 L896,6 L897,7 L898,8 L899,9 L900,7 L901,5 L902,4 L903,3 L904,5 L905,-24 L906,3 L907,0 L908,0 L909,0 L910,-2 L911,-3 L912,-1 L913,-5 L914,-3 L915,-1 L916,-4 L917,-5 L918,-4 L919,-5 L920,-5 L921,-7 L922,-6 L923,-4 L924,-5 L925,-5 L926,-4 L927,-3 L928,-1 L929,-4 L930,-2 L931,0 L932,1 L933,-2 L934,1 L935,-1 L936,1 L937,2 L938,1 L939,3 L940,5 L941,3 L942,5 L943,4 L944,5 L945,17 L946,5 L947,5 L948,5 L949,4 
L950,4 L951,4 L952,1 L953,3 L954,0 L955,3 L956,5 L957,4 L958,3 L959,-8 L960,2 L961,8 L962,4 L963,3 L964,1 L965,4 L966,-6 L967,3 L968,3 L969,3 L970,2 L971,3 L972,2 L973,0 L974,3 L975,1 L976,1 L977,4 L978,3 L979,3 L980,2 L981,0 L982,0 L983,3 L984,0 L985,2 L986,1 L987,2 L988,2 L989,1 L990,0 L991,0 L992,-1 L993,0 L994,3 L995,0 L996,0 L997,0 L998,1 L999,-4 L1000,1 L1001,1 L1002,1 L1003,1 L1004,1 L1005,2 L1006,-13 L1007,4 L1008,4 L1009,5 L1010,4 L1011,0 L1012,7 L1013,6 L1014,5 L1015,5 L1016,1 L1017,4 L1018,4 L1019,4 L1020,3 L1021,1 L1022,4 L1023,4 L1024,2 L1025,4 L1026,1 L1027,1 L1028,0 L1029,1 L1030,0 L1031,1 L1032,-1 L1033,1 L1034,-4 L1035,0 L1036,1 L1037,2 L1038,3 L1039,-13 L1040,2 L1041,3 L1042,5 L1043,4 L1044,3 L1045,6 L1046,4 L1047,4 L1048,4 L1049,6 
L1050,5 L1051,4 L1052,6 L1053,-14 L1054,6 L1055,7 L1056,5 L1057,6 L1058,4 L1059,4 L1060,7 L1061,5 L1062,4 L1063,5 L1064,6 L1065,5 L1066,6 L1067,3 L1068,6 L1069,5 L1070,4 L1071,7 L1072,5 L1073,6 L1074,8 L1075,4 L1076,6 L1077,6 L1078,8 L1079,5 L1080,4 L1081,7 L1082,6 L1083,4 L1084,4 L1085,4 L1086,18 L1087,3 L1088,2 L1089,2 L1090,3 L1091,0 L1092,0 L1093,4 L1094,-1 L1095,-4 L1096,-4 L1097,-4 L1098,-4 L1099,-5 L1100,21 L1101,-3 L1102,-5 L1103,-6 L1104,-7 L1105,-5 L1106,-4 L1107,-1 L1108,-4 L1109,-4 L1110,-4 L1111,-4 L1112,-4 L1113,-2 L1114,-2 L1115,-1 L1116,-1 L1117,-2 L1118,-1 L1119,0 L1120,1 L1121,1 L1122,3 L1123,4 L1124,5 L1125,2 L1126,1 L1127,3 L1128,3 L1129,3 L1130,5 L1131,4 L1132,3 L1133,1 L1134,0 L1135,0 L1136,0 L1137,-1 L1138,-1 L1139,-3 L1140,-5 L1141,-3 L1142,-3 L1143,-4 L1144,7 L1145,-4 L1146,-8 L1147,-17 L1148,-8 L1149,-9 
L1150,-8 L1151,-8 L1152,-9 L1153,-6 L1154,-29 L1155,-7 L1156,-9 L1157,-8 L1158,-7 L1159,-6 L1160,-7 L1161,-5 L1162,-5 L1163,-8 L1164,-6 L1165,-2 L1166,-4 L1167,-3 L1168,3 L1169,-2 L1170,0 L1171,-1 L1172,0 L1173,8 L1174,2 L1175,0 L1176,1 L1177,2 L1178,2 L1179,1 L1180,3 L1181,-2 L1182,2 L1183,0 L1184,0 L1185,-3 L1186,-2 L1187,-9 L1188,-1 L1189,-3 L1190,-3 L1191,-4 L1192,-4 L1193,-4 L1194,3 L1195,-4 L1196,-4 L1197,-7 L1198,-4 L1199,-8 L1200,-3 L1201,22 L1202,-2 L1203,0 L1204,0 L1205,0 L1206,1 L1207,2 L1208,8 L1209,2 L1210,1 L1211,3 L1212,1 L1213,2 L1214,1 L1215,-1 L1216,1 L1217,1 L1218,-4 L1219,0 L1220,-2 L1221,-3 L1222,-4 L1223,-5 L1224,-11 L1225,-6 L1226,-7 L1227,-9 L1228,-10 L1229,-6 L1230,-9 L1231,-8 L1232,-10 L1233,-9 L1234,-11 L1235,-9 L1236,-10 L1237,-9 L1238,-9 L1239,-7 L1240,-6 L1241,-21 L1242,-5 L1243,-5 L1244,1 L1245,-2 L1246,-3 L1247,-2 L1248,11 L1249,0 
L1250,1 L1251,-2 L1252,2 L1253,0 L1254,-5 L1255,-9 L1256,0 L1257,-2 L1258,-1 L1259,-3 L1260,-3 L1261,-4 L1262,-7 L1263,-6 L1264,-5 L1265,-9 L1266,-7 L1267,-9 L1268,-8 L1269,-11 L1270,-11 L1271,-9 L1272,-12 L1273,-13 L1274,-14 L1275,-14 L1276,-14 L1277,-13 L1278,-14 L1279,-20 L1280,-14 L1281,-17 L1282,-16 L1283,-13 L1284,-15 L1285,-10 L1286,-12 L1287,-12 L1288,4 L1289,-9 L1290,-5 L1291,-8 L1292,-8 L1293,-3 L1294,-8 L1295,16 L1296,-4 L1297,2 L1298,-5 L1299,-4 L1300,-1 L1301,-1 L1302,13 L1303,-4 L1304,0 L1305,-1 L1306,3 L1307,2 L1308,2 L1309,-2 L1310,-1 L1311,0 L1312,0 L1313,0 L1314,-2 L1315,-2 L1316,-3 L1317,-3 L1318,-5 L1319,-4 L1320,-6 L1321,-7 L1322,-8 L1323,-9 L1324,-8 L1325,-9 L1326,-10 L1327,-5 L1328,-9 L1329,-9 L1330,-10 L1331,-9 L1332,-10 L1333,-10 L1334,-7 L1335,-32 L1336,-9 L1337,-9 L1338,-9 L1339,-7 L1340,-7 L1341,-6 L1342,-10 L1343,-5 L1344,-6 L1345,-4 L1346,-2 L1347,-2 L1348,-2 L1349,16 
L1350,0 L1351,1 L1352,1 L1353,2 L1354,1 L1355,0 L1356,9 L1357,0 L1358,0 L1359,1 L1360,0 L1361,-1 L1362,-4 L1363,-2 L1364,-5 L1365,-7 L1366,-5 L1367,-9 L1368,-12 L1369,-9 L1370,-12 L1371,-11 L1372,-10 L1373,-12 L1374,-12 L1375,-15 L1376,-12 L1377,-13 L1378,-13 L1379,-15 L1380,-13 L1381,-12 L1382,3 L1383,-13 L1384,-11 L1385,-11 L1386,-9 L1387,-11 L1388,-7 L1389,-13 L1390,-8 L1391,-8 L1392,-5 L1393,-5 L1394,-3 L1395,-2 L1396,4 L1397,-1 L1398,0 L1399,0 L1400,1 L1401,0 L1402,2 L1403,-8 L1404,-1 L1405,-12 L1406,1 L1407,1 L1408,0 L1409,0 L1410,-2 L1411,-1 L1412,-2 L1413,-2 L1414,-3 L1415,-4 L1416,-4 L1417,-8 L1418,-4 L1419,-5 L1420,-5 L1421,-6 L1422,-5 L1423,-9 L1424,-6 L1425,-12 L1426,-10 L1427,-10 L1428,-12 L1429,-11 L1430,-9 L1431,-12 L1432,-9 L1433,-13 L1434,-10 L1435,-10 L1436,-6 L1437,-12 L1438,-12 L1439,-12 L1440,-12 L1441,-12 L1442,-13 L1443,-25 L1444,-9 L1445,-11 L1446,-11 L1447,-9 L1448,-9 L1449,-8 
L1450,-25 L1451,-7 L1452,-9 L1453,-5 L1454,-5 L1455,-6 L1456,-6 L1457,1 L1458,-3 L1459,-3 L1460,-2 L1461,-1 L1462,-1 L1463,0 L1464,0 L1465,1 L1466,0 L1467,0 L1468,2 L1469,-1 L1470,1 L1471,3 L1472,2 L1473,2 L1474,0 L1475,1 L1476,-2 L1477,-1 L1478,-1 L1479,-2 L1480,-2 L1481,-4 L1482,-5 L1483,3 L1484,-8 L1485,-3 L1486,-10 L1487,-9 L1488,-9 L1489,-10 L1490,-18 L1491,-12 L1492,-12 L1493,-12 L1494,-12 L1495,-12 L1496,-10 L1497,-14 L1498,-11 L1499,-10 L1500,-10 L1501,-11 L1502,-12 L1503,-12 L1504,-11 L1505,-11 L1506,-10 L1507,-11 L1508,-9 L1509,-8 L1510,-9 L1511,-8 L1512,-6 L1513,-6 L1514,-5 L1515,-5 L1516,-6 L1517,-2 L1518,-3 L1519,-1 L1520,-1 L1521,3 L1522,1 L1523,3 L1524,2 L1525,1 L1526,4 L1527,3 L1528,2 L1529,4 L1530,-20 L1531,3 L1532,2 L1533,1 L1534,0 L1535,0 L1536,0 L1537,-3 L1538,0 L1539,1 L1540,0 L1541,-2 L1542,-4 L1543,-5 L1544,-4 L1545,-5 L1546,-8 L1547,-7 L1548,-8 L1549,-10 
L1550,-9 L1551,-8 L1552,-16 L1553,-15 L1554,-11 L1555,-11 L1556,-13 L1557,-14 L1558,-13 L1559,-14 L1560,-14 L1561,-17 L1562,-10 L1563,-15 L1564,-15 L1565,-16 L1566,-11 L1567,-15 L1568,-14 L1569,-8 L1570,-13 L1571,-12 L1572,-14 L1573,-11 L1574,-11 L1575,-10 L1576,-8 L1577,-5 L1578,-5 L1579,-5 L1580,-4 L1581,-1 L1582,-2 L1583,-2 L1584,8 L1585,-1 L1586,0 L1587,-1 L1588,-1 L1589,-2 L1590,-4 L1591,25 L1592,-5 L1593,-5 L1594,-8 L1595,-7 L1596,-9 L1597,-11 L1598,-19 L1599,-14 L1600,-15 L1601,-19 L1602,-17 L1603,-21 L1604,-22 L1605,-25 L1606,-24 L1607,-24 L1608,-26 L1609,-25 L1610,-27 L1611,-28 L1612,-26 L1613,-28 L1614,-28 L1615,-28 L1616,-28 L1617,-31 L1618,-29 L1619,-28 L1620,-27 L1621,-27 L1622,-27 L1623,-25 L1624,-25 L1625,-24 L1626,-22 L1627,-20 L1628,-21 L1629,-22 L1630,-19 L1631,-36 L1632,-16 L1633,-16 L1634,-14 L1635,-15 L1636,-13 L1637,-11 L1638,-1 L1639,-9 L1640,-6 L1641,-7 L1642,-16 L1643,-5 L1644,-4 L1645,-8 L1646,-1 L1647,-1 L1648,2 L1649,-1 
L1650,0 L1651,0 L1652,9 L1653,1 L1654,0 L1655,0 L1656,-2 L1657,-1 L1658,-1 L1659,-5 L1660,-2 L1661,-4 L1662,-4 L1663,-4 L1664,-2 L1665,-5 L1666,-7 L1667,-7 L1668,-5 L1669,-9 L1670,-10 L1671,-12 L1672,-10 L1673,-12 L1674,-12 L1675,-13 L1676,-13 L1677,-13 L1678,-34 L1679,-14 L1680,-15 L1681,-16 L1682,-16 L1683,-15 L1684,-14 L1685,-15 L1686,-19 L1687,-16 L1688,-18 L1689,-15 L1690,-19 L1691,-16 L1692,-2 L1693,-17 L1694,-15 L1695,-16 L1696,-14 L1697,-14 L1698,-13 L1699,-13 L1700,-12 L1701,-12 L1702,-12 L1703,-12 L1704,-11 L1705,-11 L1706,-10 L1707,-9 L1708,-10 L1709,-8 L1710,-6 L1711,-8 L1712,-4 L1713,-5 L1714,-4 L1715,-4 L1716,-3 L1717,-3 L1718,-3 L1719,0 L1720,0 L1721,2 L1722,2 L1723,1 L1724,3 L1725,-1 L1726,3 L1727,4 L1728,3 L1729,3 L1730,4 L1731,5 L1732,4 L1733,7 L1734,4 L1735,4 L1736,4 L1737,4 L1738,4 L1739,-18 L1740,4 L1741,3 L1742,3 L1743,0 L1744,-2 L1745,0 L1746,-9 L1747,-1 L1748,-1 L1749,-4 
L1750,-1 L1751,-5 L1752,-4 L1753,-9 L1754,-5 L1755,-6 L1756,-3 L1757,-8 L1758,-8 L1759,-12 L1760,-10 L1761,-7 L1762,-9 L1763,-12 L1764,-12 L1765,-13 L1766,-12 L1767,-13 L1768,-14 L1769,-13 L1770,-14 L1771,-13 L1772,-15 L1773,-13 L1774,-12 L1775,-13 L1776,-12 L1777,-13 L1778,-13 L1779,-2 L1780,-12 L1781,-11 L1782,-12 L1783,-9 L1784,-11 L1785,-8 L1786,-9 L1787,-6 L1788,-6 L1789,-4 L1790,-5 L1791,-3 L1792,-3 L1793,-5 L1794,0 L1795,-1 L1796,0 L1797,3 L1798,3 L1799,4 L1800,2 L1801,4 L1802,3 L1803,4 L1804,4 L1805,3 L1806,2 L1807,2 L1808,2 L1809,-1 L1810,1 L1811,1 L1812,-2 L1813,0 L1814,0 L1815,0 L1816,-3 L1817,-4 L1818,-4 L1819,-4 L1820,-4 L1821,-5 L1822,-5 L1823,-6 L1824,-7 L1825,-7 L1826,-24 L1827,-7 L1828,-9 L1829,-9 L1830,-10 L1831,-10 L1832,-9 L1833,-28 L1834,-12 L1835,-10 L1836,-12 L1837,-11 L1838,-13 L1839,-12 L1840,-4 L1841,-12 L1842,-11 L1843,-11 L1844,-10 L1845,-13 L1846,-10 L1847,-21 L1848,-12 L1849,-9 
L1850,-11 L1851,-3 L1852,-9 L1853,-7 L1854,-4 L1855,-9 L1856,-7 L1857,-7 L1858,-5 L1859,-7 L1860,-5 L1861,0 L1862,-19 L1863,-4 L1864,-5 L1865,-10 L1866,-3 L1867,-2 L1868,-3 L1869,0 L1870,1 L1871,0 L1872,1 L1873,-2 L1874,3 L1875,2 L1876,4 L1877,3 L1878,2 L1879,5 L1880,0 L1881,5 L1882,5 L1883,4 L1884,4 L1885,5 L1886,4 L1887,1 L1888,3 L1889,3 L1890,3 L1891,4 L1892,4 L1893,3 L1894,-7 L1895,1 L1896,-1 L1897,-1 L1898,0 L1899,0 L1900,-1 L1901,-2 L1902,0 L1903,-1 L1904,-3 L1905,-2 L1906,-3 L1907,-3 L1908,-3 L1909,-3 L1910,-4 L1911,-7 L1912,-4 L1913,-7 L1914,-5 L1915,-5 L1916,-5 L1917,-6 L1918,-7 L1919,-6 L1920,-7 L1921,-6 L1922,-6 L1923,-5 L1924,-4 L1925,-8 L1926,-6 L1927,5 L1928,-4 L1929,-8 L1930,-6 L1931,-6 L1932,-7 L1933,-9 L1934,11 L1935,-6 L1936,-9 L1937,-6 L1938,-7 L1939,-4 L1940,-5 L1941,-4 L1942,-7 L1943,-6 L1944,-4 L1945,-7 L1946,-7 L1947,-6 L1948,-1 L1949,-5 
L1950,-5 L1951,-6 L1952,-5 L1953,-5 L1954,-4 L1955,-2 L1956,-5 L1957,-4 L1958,-3 L1959,-3 L1960,1 L1961,-4 L1962,-2 L1963,-2 L1964,-4 L1965,0 L1966,-1 L1967,0 L1968,1 L1969,2 L1970,3 L1971,3 L1972,1 L1973,3 L1974,4 L1975,7 L1976,5 L1977,5 L1978,5 L1979,5 L1980,3 L1981,8 L1982,4 L1983,4 L1984,5 L1985,4 L1986,2 L1987,4 L1988,-6 L1989,3 L1990,0 L1991,1 L1992,1 L1993,1 L1994,-2 L1995,5 L1996,0 L1997,0 L1998,-2 L1999,-2 L2000,2 L2001,-3 L2002,-5 L2003,-4 L2004,-8 L2005,-6 L2006,-7 L2007,-8 L2008,-7 L2009,-8 L2010,-7 L2011,-9 L2012,-9 L2013,-10 L2014,-7 L2015,-11 L2016,-9 L2017,-9 L2018,-11 L2019,-11 L2020,-9 L2021,-11 L2022,-10 L2023,-10 L2024,-10 L2025,-9 L2026,-9 L2027,-8 L2028,-2 L2029,-8 L2030,-9 L2031,-6 L2032,-6 L2033,-9 L2034,-7 L2035,15 L2036,-4 L2037,-5 L2038,-6 L2039,-3 L2040,-3 L2041,-3 L2042,-2 L2043,0 L2044,0 L2045,2 L2046,0 L2047,2 L2048,2 L2049,-2 
L2050,3 L2051,3 L2052,3 L2053,4 L2054,4 L2055,5 L2056,4 L2057,3 L2058,3 L2059,3 L2060,5 L2061,8 L2062,4 L2063,5 L2064,4 L2065,3 L2066,0 L2067,1 L2068,3 L2069,0 L2070,1 L2071,0 L2072,1 L2073,-1 L2074,0 L2075,2 L2076,-1 L2077,0 L2078,0 L2079,0 L2080,0 L2081,0 L2082,33 L2083,0 L2084,-4 L2085,-1 L2086,-1 L2087,-2 L2088,-2 L2089,0 L2090,-1 L2091,-3 L2092,-1 L2093,-2 L2094,0 L2095,-2 L2096,-1 L2097,-3 L2098,-2 L2099,-4 L2100,-2 L2101,-4 L2102,-4 L2103,-3 L2104,-5 L2105,-4 L2106,-5 L2107,-5 L2108,-11 L2109,-6 L2110,-5 L2111,-7 L2112,-7 L2113,-8 L2114,-9 L2115,-9 L2116,-5 L2117,-8 L2118,-10 L2119,-10 L2120,-11 L2121,-9 L2122,-7 L2123,-10 L2124,-9 L2125,-9 L2126,-10 L2127,-11 L2128,-10 L2129,-12 L2130,-12 L2131,-8 L2132,-11 L2133,-10 L2134,-12 L2135,-8 L2136,0 L2137,-9 L2138,-8 L2139,-8 L2140,-9 L2141,-7 L2142,-7 L2143,-13 L2144,-6 L2145,-7 L2146,-6 L2147,-4 L2148,-4 L2149,-4 
L2150,-1 L2151,0 L2152,-2 L2153,-1 L2154,0 L2155,0 L2156,1 L2157,1 L2158,3 L2159,4 L2160,3 L2161,3 L2162,4 L2163,4 L2164,1 L2165,1 L2166,2 L2167,2 L2168,1 L2169,-1 L2170,-1 L2171,-4 L2172,-3 L2173,-2 L2174,-5 L2175,-4 L2176,-7 L2177,-6 L2178,-8 L2179,-8 L2180,-11 L2181,-12 L2182,-13 L2183,-17 L2184,-17 L2185,-14 L2186,-17 L2187,-17 L2188,-19 L2189,-16 L2190,-14 L2191,-20 L2192,-17 L2193,-21 L2194,-22 L2195,-24 L2196,-28 L2197,-26 L2198,-24 L2199,-26 L2200,-25 L2201,-26 L2202,-27 L2203,-26 L2204,-25 L2205,-24 L2206,-25 L2207,-25 L2208,-28 L2209,-24 L2210,-23 L2211,-23 L2212,-21 L2213,-21 L2214,-21 L2215,-21 L2216,-21 L2217,-19 L2218,-18 L2219,-20 L2220,-17 L2221,-18 L2222,-16 L2223,-48 L2224,-14 L2225,-12 L2226,-13 L2227,-11 L2228,-11 L2229,-9 L2230,20 L2231,-7 L2232,-8 L2233,-6 L2234,-5 L2235,-5 L2236,-3 L2237,3 L2238,-1 L2239,0 L2240,1 L2241,1 L2242,0 L2243,0 L2244,-3 L2245,5 L2246,2 L2247,4 L2248,4 L2249,5 
L2250,3 L2251,0 L2252,4 L2253,4 L2254,5 L2255,2 L2256,7 L2257,4 L2258,3 L2259,4 L2260,4 L2261,4 L2262,3 L2263,3 L2264,2 L2265,1 L2266,2 L2267,1 L2268,-1 L2269,8 L2270,8 L2271,-2 L2272,-3 L2273,-4 L2274,-3 L2275,-4 L2276,-4 L2277,-17 L2278,-5 L2279,-7 L2280,-7 L2281,-7 L2282,-8 L2283,-9 L2284,8 L2285,-10 L2286,-8 L2287,-12 L2288,-12 L2289,-13 L2290,-14 L2291,-16 L2292,-16 L2293,-17 L2294,-17 L2295,-17 L2296,-21 L2297,-19 L2298,-19 L2299,-20 L2300,-20 L2301,-20 L2302,-21 L2303,-20 L2304,-22 L2305,-24 L2306,-24 L2307,-22 L2308,-23 L2309,-22 L2310,-25 L2311,-22 L2312,-24 L2313,-23 L2314,-21 L2315,-23 L2316,-23 L2317,-28 L2318,-20 L2319,-22 L2320,-20 L2321,-20 L2322,-20 L2323,-22 L2324,-13 L2325,-20 L2326,-17 L2327,-17 L2328,-15 L2329,-15 L2330,-15 L2331,-24 L2332,-12 L2333,-12 L2334,-11 L2335,-10 L2336,-8 L2337,-7 L2338,-18 L2339,-7 L2340,-4 L2341,-5 L2342,-1 L2343,-1 L2344,0 L2345,-5 L2346,1 L2347,1 L2348,2 L2349,2 
L2350,0 L2351,0 L2352,0 L2353,0 L2354,-1 L2355,-2 L2356,-2 L2357,-5 L2358,-6 L2359,-6 L2360,-8 L2361,-8 L2362,-8 L2363,-9 L2364,-13 L2365,-13 L2366,-13 L2367,-15 L2368,-16 L2369,-18 L2370,-18 L2371,-7 L2372,-19 L2373,-21 L2374,-24 L2375,-22 L2376,-20 L2377,-24 L2378,-11 L2379,-26 L2380,-28 L2381,-26 L2382,-27 L2383,-29 L2384,-27 L2385,-36 L2386,-28 L2387,-29 L2388,-29 L2389,-19 L2390,-28 L2391,-27 L2392,-28 L2393,-28 L2394,-25 L2395,-26 L2396,-24 L2397,-25 L2398,-24 L2399,-23 L2400,-23 L2401,-20 L2402,-19 L2403,-20 L2404,-14 L2405,-16 L2406,-15 L2407,-15 L2408,-13 L2409,-13 L2410,-12 L2411,-3 L2412,-10 L2413,-9 L2414,-10 L2415,-9 L2416,-7 L2417,-6 L2418,-30 L2419,-5 L2420,-4 L2421,-2 L2422,-1 L2423,0 L2424,0 L2425,1 L2426,1 L2427,3 L2428,1 L2429,8 L2430,3 L2431,4 L2432,8 L2433,5 L2434,4 L2435,3 L2436,4 L2437,4 L2438,4 L2439,3 L2440,2 L2441,2 L2442,4 L2443,4 L2444,1 L2445,3 L2446,1 L2447,3 L2448,-5 L2449,0 
L2450,-1 L2451,0 L2452,-2 L2453,-4 L2454,-4 L2455,-5 L2456,-6 L2457,-1 L2458,-8 L2459,-8 L2460,-10 L2461,-8 L2462,-11 L2463,-12 L2464,-12 L2465,3 L2466,-13 L2467,-13 L2468,-16 L2469,-14 L2470,-15 L2471,-16 L2472,-2 L2473,-20 L2474,-20 L2475,-22 L2476,-22 L2477,-22 L2478,-24 L2479,-18 L2480,-23 L2481,-25 L2482,-25 L2483,-26 L2484,-27 L2485,-25 L2486,-29 L2487,-28 L2488,-25 L2489,-28 L2490,-28 L2491,-27 L2492,-28 L2493,-27 L2494,-28 L2495,-27 L2496,-26 L2497,-27 L2498,-31 L2499,-26 L2500,-28 L2501,-25 L2502,-26 L2503,-25 L2504,-22 L2505,-21 L2506,-22 L2507,-22 L2508,-21 L2509,-18 L2510,-18 L2511,-17 L2512,-11 L2513,-16 L2514,-13 L2515,-14 L2516,-12 L2517,-12 L2518,-7 L2519,-5 L2520,-6 L2521,-6 L2522,-4 L2523,-5 L2524,-1 L2525,-1 L2526,1 L2527,1 L2528,-1 L2529,1 L2530,2 L2531,1 L2532,0 L2533,-8 L2534,-1 L2535,-2 L2536,-4 L2537,-4 L2538,-7 L2539,-8 L2540,-9 L2541,-4 L2542,-11 L2543,-14 L2544,-13 L2545,-16 L2546,-17 L2547,-19 L2548,-19 L2549,-21 
L2550,-22 L2551,-24 L2552,-28 L2553,-28 L2554,-29 L2555,-29 L2556,-32 L2557,-33 L2558,-34 L2559,-37 L2560,-34 L2561,-36 L2562,-36 L2563,-36 L2564,-37 L2565,-38 L2566,-35 L2567,-40 L2568,-40 L2569,-38 L2570,-35 L2571,-39 L2572,-37 L2573,-48 L2574,-37 L2575,-36 L2576,-37 L2577,-34 L2578,-34 L2579,-32 L2580,-33 L2581,-31 L2582,-32 L2583,-29 L2584,-29 L2585,-30 L2586,-26 L2587,-27 L2588,-24 L2589,-24 L2590,-23 L2591,-21 L2592,-20 L2593,-20 L2594,-20 L2595,-20 L2596,-14 L2597,-15 L2598,-16 L2599,-16 L2600,-12 L2601,-12 L2602,-10 L2603,-8 L2604,-10 L2605,-8 L2606,-8 L2607,-5 L2608,-4 L2609,-3 L2610,-4 L2611,-2 L2612,-1 L2613,-20 L2614,0 L2615,1 L2616,1 L2617,2 L2618,5 L2619,4 L2620,-19 L2621,5 L2622,-1 L2623,4 L2624,2 L2625,1 L2626,4 L2627,2 L2628,3 L2629,3 L2630,2 L2631,3 L2632,0 L2633,0 L2634,4 L2635,0 L2636,0 L2637,-3 L2638,-1 L2639,-3 L2640,-4 L2641,-5 L2642,-4 L2643,-6 L2644,-8 L2645,-7 L2646,-10 L2647,-8 L2648,-11 L2649,-10 
L2650,-12 L2651,-13 L2652,-12 L2653,-15 L2654,-17 L2655,-16 L2656,-18 L2657,-18 L2658,-15 L2659,-17 L2660,-31 L2661,-23 L2662,-22 L2663,-25 L2664,-24 L2665,-26 L2666,-25 L2667,-8 L2668,-27 L2669,-27 L2670,-29 L2671,-29 L2672,-35 L2673,-30 L2674,-39 L2675,-32 L2676,-32 L2677,-33 L2678,-31 L2679,-33 L2680,-32 L2681,-35 L2682,-33 L2683,-32 L2684,-33 L2685,-32 L2686,-32 L2687,-32 L2688,-31 L2689,-32 L2690,-30 L2691,-29 L2692,-31 L2693,-31 L2694,-27 L2695,-26 L2696,-26 L2697,-24 L2698,-26 L2699,-23 L2700,-20 L2701,-20 L2702,-20 L2703,-21 L2704,-18 L2705,-18 L2706,-15 L2707,-9 L2708,-12 L2709,-13 L2710,-10 L2711,-9 L2712,-10 L2713,-7 L2714,6 L2715,-4 L2716,3 L2717,0 L2718,-1 L2719,0 L2720,2 L2721,-19 L2722,0 L2723,2 L2724,1 L2725,0 L2726,1 L2727,0 L2728,4 L2729,-3 L2730,-5 L2731,-6 L2732,-6 L2733,-9 L2734,-8 L2735,-9 L2736,-12 L2737,-12 L2738,-14 L2739,-14 L2740,-17 L2741,-16 L2742,-20 L2743,-20 L2744,-20 L2745,-22 L2746,-23 L2747,-25 L2748,-25 L2749,-28 
L2750,-27 L2751,-28 L2752,-28 L2753,-28 L2754,-58 L2755,-29 L2756,-30 L2757,-28 L2758,-29 L2759,-31 L2760,-28 L2761,-36 L2762,-32 L2763,-31 L2764,-30 L2765,-30 L2766,-29 L2767,-28 L2768,-22 L2769,-28 L2770,-28 L2771,-28 L2772,-27 L2773,-27 L2774,-25 L2775,-28 L2776,-25 L2777,-23 L2778,-23 L2779,-23 L2780,-22 L2781,-22 L2782,-21 L2783,-19 L2784,-19 L2785,-19 L2786,-17 L2787,-16 L2788,-15 L2789,-14 L2790,-15 L2791,-14 L2792,-13 L2793,-12 L2794,-18 L2795,-12 L2796,-11 L2797,-10 L2798,-6 L2799,-8 L2800,-8 L2801,0 L2802,-5 L2803,-1 L2804,-3 L2805,-2 L2806,-2 L2807,1 L2808,4 L2809,0 L2810,-1 L2811,2 L2812,3 L2813,3 L2814,2 L2815,-17 L2816,6 L2817,4 L2818,11 L2819,8 L2820,5 L2821,7 L2822,1 L2823,9 L2824,8 L2825,6 L2826,7 L2827,4 L2828,3 L2829,-3 L2830,3 L2831,6 L2832,3 L2833,9 L2834,1 L2835,2 L2836,-2 L2837,3 L2838,-2 L2839,-3 L2840,-3 L2841,-6 L2842,-4 L2843,-7 L2844,-8 L2845,-8 L2846,-8 L2847,-8 L2848,-16 L2849,-9 
L2850,-11 L2851,-12 L2852,-12 L2853,-15 L2854,-14 L2855,-9 L2856,-15 L2857,-17 L2858,-17 L2859,-19 L2860,-18 L2861,-18 L2862,-46 L2863,-20 L2864,-18 L2865,-19 L2866,-19 L2867,-21 L2868,-20 L2869,-26 L2870,-20 L2871,-20 L2872,-21 L2873,-21 L2874,-21 L2875,-20 L2876,-20 L2877,-17 L2878,-19 L2879,-20 L2880,-17 L2881,-16 L2882,-19 L2883,-14 L2884,-13 L2885,-12 L2886,-13 L2887,-13 L2888,-11 L2889,-9 L2890,-8 L2891,-10 L2892,-8 L2893,-8 L2894,-5 L2895,-7 L2896,-3 L2897,-4 L2898,-2 L2899,0 L2900,-1 L2901,0 L2902,9 L2903,1 L2904,3 L2905,4 L2906,5 L2907,4 L2908,5 L2909,24 L2910,5 L2911,4 L2912,4 L2913,5 L2914,4 L2915,3 L2916,8 L2917,2 L2918,1 L2919,0 L2920,0 L2921,-1 L2922,-3 L2923,3 L2924,-5 L2925,-4 L2926,-5 L2927,-5 L2928,-7 L2929,-8 L2930,-8 L2931,-8 L2932,-9 L2933,-7 L2934,-10 L2935,-10 L2936,-11 L2937,-13 L2938,-12 L2939,-14 L2940,-12 L2941,-13 L2942,-14 L2943,-13 L2944,-12 L2945,-11 L2946,-14 L2947,-14 L2948,-12 L2949,-17 
L2950,-12 L2951,-11 L2952,-7 L2953,-12 L2954,-10 L2955,-11 L2956,5 L2957,-9 L2958,-9 L2959,-10 L2960,-8 L2961,-9 L2962,-8 L2963,3 L2964,-7 L2965,-4 L2966,-6 L2967,-5 L2968,-4 L2969,-4 L2970,-2 L2971,-3 L2972,-3 L2973,-2 L2974,-1 L2975,0 L2976,0 L2977,-1 L2978,0 L2979,0 L2980,3 L2981,4 L2982,-1 L2983,3 L2984,4 L2985,5 L2986,4 L2987,6 L2988,8 L2989,7 L2990,8 L2991,7 L2992,9 L2993,9 L2994,8 L2995,8 L2996,6 L2997,7 L2998,9 L2999,9 L3000,10 L3001,5 L3002,10 L3003,-7 L3004,7 L3005,3 L3006,6 L3007,4 L3008,4 L3009,5 L3010,-14 L3011,0 L3012,3 L3013,3 L3014,1 L3015,0 L3016,0 L3017,-9 L3018,-2 L3019,-1 L3020,-4 L3021,-5 L3022,-6 L3023,-4 L3024,-5 L3025,-7 L3026,-9 L3027,-12 L3028,-8 L3029,-15 L3030,-12 L3031,-13 L3032,-13 L3033,-14 L3034,-14 L3035,-15 L3036,-18 L3037,-16 L3038,-17 L3039,-16 L3040,-19 L3041,-15 L3042,-20 L3043,-46 L3044,-19 L3045,-22 L3046,-21 L3047,-21 L3048,-20 L3049,-20 
L3050,-26 L3051,-19 L3052,-20 L3053,-20 L3054,-23 L3055,-20 L3056,-20 L3057,-29 L3058,-19 L3059,-18 L3060,-17 L3061,-17 L3062,-18 L3063,-16 L3064,-21 L3065,-16 L3066,-13 L3067,-15 L3068,-15 L3069,-13 L3070,-11 L3071,-12 L3072,-11 L3073,-9 L3074,-10 L3075,-7 L3076,-10 L3077,-5 L3078,-5 L3079,-4 L3080,-1 L3081,-2 L3082,-10 L3083,-3 L3084,1 L3085,3 L3086,4 L3087,6 L3088,4 L3089,4 L3090,-27 L3091,7 L3092,8 L3093,8 L3094,5 L3095,7 L3096,10 L3097,9 L3098,2 L3099,7 L3100,4 L3101,3 L3102,2 L3103,0 L3104,-19 L3105,0 L3106,-1 L3107,-2 L3108,-5 L3109,-5 L3110,-5 L3111,-9 L3112,-9 L3113,-9 L3114,-11 L3115,-11 L3116,-13 L3117,-14 L3118,-16 L3119,-19 L3120,-16 L3121,-18 L3122,-16 L3123,-21 L3124,-21 L3125,-24 L3126,-24 L3127,-25 L3128,-26 L3129,-25 L3130,-28 L3131,-28 L3132,-27 L3133,-30 L3134,-29 L3135,-31 L3136,-30 L3137,-31 L3138,-28 L3139,-29 L3140,-32 L3141,-32 L3142,-33 L3143,-31 L3144,-44 L3145,-29 L3146,-33 L3147,-32 L3148,-32 L3149,-33 
L3150,-28 L3151,-38 L3152,-30 L3153,-29 L3154,-34 L3155,-28 L3156,-30 L3157,-27 L3158,-32 L3159,-24 L3160,-28 L3161,-24 L3162,-20 L3163,-20 L3164,-18 L3165,-22 L3166,-21 L3167,-19 L3168,-19 L3169,-17 L3170,-16 L3171,-15 L3172,-14 L3173,-13 L3174,-12 L3175,-12 L3176,-9 L3177,-8 L3178,7 L3179,-9 L3180,-5 L3181,-5 L3182,-4 L3183,-2 L3184,1 L3185,-3 L3186,1 L3187,1 L3188,3 L3189,4 L3190,4 L3191,9 L3192,4 L3193,5 L3194,4 L3195,4 L3196,4 L3197,5 L3198,-20 L3199,4 L3200,3 L3201,3 L3202,1 L3203,-1 L3204,-2 L3205,-12 L3206,-2 L3207,-2 L3208,-2 L3209,-4 L3210,-5 L3211,-5 L3212,-8 L3213,-5 L3214,-8 L3215,-8 L3216,-9 L3217,-2 L3218,-12 L3219,-12 L3220,-15 L3221,-13 L3222,-17 L3223,-15 L3224,-17 L3225,-16 L3226,-16 L3227,-17 L3228,-17 L3229,-18 L3230,-22 L3231,-20 L3232,-20 L3233,-20 L3234,-19 L3235,-19 L3236,-21 L3237,-20 L3238,-59 L3239,-23 L3240,-17 L3241,-22 L3242,-21 L3243,-22 L3244,-21 L3245,4 L3246,-19 L3247,-23 L3248,-22 L3249,-21 
L3250,-22 L3251,-21 L3252,-21 L3253,-22 L3254,-21 L3255,-23 L3256,-19 L3257,-19 L3258,-19 L3259,-22 L3260,-21 L3261,-20 L3262,-19 L3263,-20 L3264,-21 L3265,-18 L3266,-19 L3267,-17 L3268,-18 L3269,-13 L3270,-19 L3271,-17 L3272,-15 L3273,-15 L3274,-16 L3275,-12 L3276,-16 L3277,-18 L3278,-16 L3279,-12 L3280,-13 L3281,-13 L3282,-11 L3283,-3 L3284,-10 L3285,12 L3286,-9 L3287,-8 L3288,-6 L3289,-2 L3290,-3 L3291,0 L3292,-11 L3293,-1 L3294,0 L3295,3 L3296,3 L3297,4 L3298,5 L3299,1 L3300,4 L3301,4 L3302,4 L3303,4 L3304,4 L3305,3 L3306,-6 L3307,3 L3308,1 L3309,-1 L3310,-1 L3311,-4 L3312,-4 L3313,-5 L3314,-6 L3315,-5 L3316,-9 L3317,-11 L3318,-14 L3319,-14 L3320,-16 L3321,-16 L3322,-16 L3323,-19 L3324,-20 L3325,-20 L3326,-24 L3327,-21 L3328,-20 L3329,-23 L3330,-24 L3331,-23 L3332,10 L3333,-23 L3334,-25 L3335,-28 L3336,-25 L3337,-27 L3338,-26 L3339,-22 L3340,-26 L3341,-25 L3342,-26 L3343,-24 L3344,-25 L3345,-24 L3346,-12 L3347,-24 L3348,-20 L3349,-21 
L3350,-18 L3351,-20 L3352,-16 L3353,-18 L3354,-14 L3355,-14 L3356,-12 L3357,-13 L3358,-10 L3359,-9 L3360,-10 L3361,-7 L3362,-6 L3363,-8 L3364,-4 L3365,-8 L3366,0 L3367,0 L3368,2 L3369,3 L3370,3 L3371,7 L3372,4 L3373,4 L3374,6 L3375,7 L3376,6 L3377,6 L3378,5 L3379,-11 L3380,5 L3381,8 L3382,5 L3383,5 L3384,3 L3385,7 L3386,8 L3387,4 L3388,4 L3389,4 L3390,16 L3391,2 L3392,3 L3393,-9 L3394,1 L3395,2 L3396,0 L3397,3 L3398,1 L3399,-1 L3400,-3 L3401,0 L3402,2 L3403,4 L3404,2 L3405,1 L3406,1 L3407,3 L3408,0 L3409,1 L3410,3 L3411,0 L3412,0 L3413,2 L3414,1 L3415,0 L3416,0 L3417,0 L3418,0 L3419,-1 L3420,-1 L3421,-1 L3422,-2 L3423,-2 L3424,-3 L3425,-2 L3426,-20 L3427,-3 L3428,-3 L3429,-5 L3430,-4 L3431,-4 L3432,-4 L3433,5 L3434,-10 L3435,-8 L3436,-8 L3437,-7 L3438,-9 L3439,-9 L3440,-16 L3441,-5 L3442,-11 L3443,-8 L3444,-11 L3445,-11 L3446,-13 L3447,-16 L3448,-12 L3449,-12 
L3450,-13 L3451,-13 L3452,-16 L3453,-10 L3454,-16 L3455,-14 L3456,-13 L3457,-12 L3458,-13 L3459,-13 L3460,-12 L3461,-12 L3462,-10 L3463,-11 L3464,-12 L3465,-10 L3466,-17 L3467,-10 L3468,-8 L3469,-7 L3470,-5 L3471,-5 L3472,-3 L3473,-8 L3474,-1 L3475,1 L3476,1 L3477,2 L3478,3 L3479,4 L3480,-12 L3481,5 L3482,6 L3483,4 L3484,7 L3485,5 L3486,5 L3487,23 L3488,4 L3489,4 L3490,3 L3491,2 L3492,-1 L3493,-3 L3494,-6 L3495,-5 L3496,-6 L3497,-7 L3498,-7 L3499,-10 L3500,-11 L3501,-13 L3502,-13 L3503,-15 L3504,-16 L3505,-17 L3506,-19 L3507,-19 L3508,-20 L3509,-22 L3510,-23 L3511,-24 L3512,-23 L3513,-26 L3514,-24 L3515,-26 L3516,-25 L3517,-24 L3518,-25 L3519,-24 L3520,-27 L3521,-27 L3522,-26 L3523,-24 L3524,-23 L3525,-26 L3526,-22 L3527,-5 L3528,-21 L3529,-20 L3530,-19 L3531,-18 L3532,-19 L3533,-17 L3534,-4 L3535,-15 L3536,-12 L3537,-13 L3538,-12 L3539,-12 L3540,-11 L3541,4 L3542,-9 L3543,-7 L3544,-7 L3545,-5 L3546,-5 L3547,-4 L3548,-6 L3549,-2 
L3550,0 L3551,-1 L3552,0 L3553,0 L3554,3 L3555,2 L3556,3 L3557,4 L3558,4 L3559,5 L3560,2 L3561,8 L3562,8 L3563,7 L3564,10 L3565,9 L3566,11 L3567,9 L3568,12 L3569,12 L3570,11 L3571,11 L3572,15 L3573,13 L3574,16 L3575,12 L3576,12 L3577,13 L3578,12 L3579,14 L3580,13 L3581,8 L3582,15 L3583,14 L3584,15 L3585,15 L3586,14 L3587,15 L3588,8 L3589,12 L3590,14 L3591,12 L3592,12 L3593,11 L3594,13 L3595,16 L3596,12 L3597,12 L3598,10 L3599,11 L3600,10 L3601,9 L3602,5 L3603,8 L3604,8 L3605,5 L3606,6 L3607,3 L3608,4 L3609,-1 L3610,2 L3611,1 L3612,-1 L3613,-1 L3614,-2 L3615,-3 L3616,-5 L3617,-5 L3618,-6 L3619,-8 L3620,-8 L3621,-34 L3622,-9 L3623,-11 L3624,-13 L3625,-12 L3626,-14 L3627,-13 L3628,-27 L3629,-15 L3630,-16 L3631,-17 L3632,-16 L3633,-17 L3634,-17 L3635,-5 L3636,-19 L3637,-20 L3638,-17 L3639,-16 L3640,-20 L3641,-16 L3642,-12 L3643,-17 L3644,-17 L3645,-14 L3646,-14 L3647,-12 L3648,-12 L3649,-11 
L3650,-11 L3651,-7 L3652,-9 L3653,-8 L3654,-7 L3655,-4 L3656,-6 L3657,-5 L3658,-3 L3659,-2 L3660,4 L3661,3 L3662,3 L3663,3 L3664,4 L3665,5 L3666,6 L3667,5 L3668,24 L3669,7 L3670,8 L3671,8 L3672,8 L3673,6 L3674,8 L3675,-7 L3676,7 L3677,7 L3678,6 L3679,4 L3680,4 L3681,3 L3682,-17 L3683,1 L3684,0 L3685,3 L3686,0 L3687,-2 L3688,-2 L3689,-6 L3690,-2 L3691,-5 L3692,-6 L3693,-5 L3694,-8 L3695,-6 L3696,-6 L3697,-8 L3698,-2 L3699,-10 L3700,-7 L3701,-9 L3702,-12 L3703,-10 L3704,-11 L3705,-9 L3706,-10 L3707,-12 L3708,-9 L3709,-5 L3710,-8 L3711,-9 L3712,-9 L3713,-8 L3714,-9 L3715,-9 L3716,-9 L3717,-9 L3718,-6 L3719,-4 L3720,-6 L3721,-6 L3722,-4 L3723,-3 L3724,-4 L3725,-3 L3726,-1 L3727,-3 L3728,-3 L3729,-29 L3730,-2 L3731,-1 L3732,0 L3733,0 L3734,0 L3735,1 L3736,12 L3737,1 L3738,3 L3739,1 L3740,2 L3741,2 L3742,4 L3743,0 L3744,3 L3745,4 L3746,4 L3747,5 L3748,5 L3749,5 
L3750,5 L3751,5 L3752,6 L3753,6 L3754,6 L3755,9 L3756,7 L3757,7 L3758,7 L3759,9 L3760,8 L3761,8 L3762,8 L3763,12 L3764,9 L3765,10 L3766,10 L3767,12 L3768,11 L3769,27 L3770,11 L3771,15 L3772,13 L3773,13 L3774,13 L3775,13 L3776,0 L3777,11 L3778,9 L3779,12 L3780,7 L3781,12 L3782,11 L3783,13 L3784,11 L3785,8 L3786,7 L3787,5 L3788,4 L3789,4 L3790,-12 L3791,3 L3792,3 L3793,1 L3794,1 L3795,-1 L3796,-1 L3797,-2 L3798,-1 L3799,-2 L3800,-3 L3801,-4 L3802,-4 L3803,-12 L3804,-6 L3805,-7 L3806,-6 L3807,-9 L3808,-7 L3809,-8 L3810,-9 L3811,-9 L3812,-8 L3813,-9 L3814,-11 L3815,-9 L3816,23 L3817,-10 L3818,-10 L3819,-11 L3820,-9 L3821,-9 L3822,-9 L3823,-5 L3824,-8 L3825,-11 L3826,-7 L3827,-9 L3828,-7 L3829,-8 L3830,15 L3831,-6 L3832,-5 L3833,-5 L3834,-4 L3835,-4 L3836,-2 L3837,1 L3838,1 L3839,-1 L3840,1 L3841,3 L3842,1 L3843,-2 L3844,2 L3845,4 L3846,4 L3847,4 L3848,0 L3849,4 
L3850,8 L3851,8 L3852,7 L3853,9 L3854,9 L3855,10 L3856,10 L3857,10 L3858,11 L3859,14 L3860,9 L3861,9 L3862,9 L3863,-2 L3864,10 L3865,8 L3866,11 L3867,9 L3868,10 L3869,8 L3870,26 L3871,7 L3872,7 L3873,5 L3874,7 L3875,4 L3876,6 L3877,26 L3878,3 L3879,3 L3880,4 L3881,3 L3882,5 L3883,3 L3884,-2 L3885,3 L3886,0 L3887,3 L3888,2 L3889,0 L3890,1 L3891,-3 L3892,0 L3893,1 L3894,1 L3895,0 L3896,0 L3897,1 L3898,0 L3899,1 L3900,1 L3901,3 L3902,3 L3903,-1 L3904,0 L3905,0 L3906,7 L3907,2 L3908,3 L3909,3 L3910,3 L3911,5 L3912,3 L3913,3 L3914,2 L3915,4 L3916,3 L3917,-2 L3918,3 L3919,2 L3920,4 L3921,4 L3922,1 L3923,3 L3924,-4 L3925,3 L3926,0 L3927,3 L3928,2 L3929,6 L3930,4 L3931,7 L3932,3 L3933,5 L3934,3 L3935,4 L3936,5 L3937,4 L3938,1 L3939,4 L3940,9 L3941,5 L3942,4 L3943,4 L3944,6 L3945,7 L3946,6 L3947,6 L3948,7 L3949,9 
L3950,4 L3951,10 L3952,11 L3953,11 L3954,9 L3955,11 L3956,11 L3957,11 L3958,12 L3959,11 L3960,11 L3961,10 L3962,11 L3963,12 L3964,24 L3965,10 L3966,9 L3967,9 L3968,6 L3969,9 L3970,8 L3971,8 L3972,8 L3973,4 L3974,5 L3975,3 L3976,4 L3977,2 L3978,3 L3979,3 L3980,4 L3981,1 L3982,1 L3983,0 L3984,1 L3985,-8 L3986,-2 L3987,0 L3988,0 L3989,-1 L3990,-1 L3991,-1 L3992,3 L3993,-1 L3994,-1 L3995,-2 L3996,-1 L3997,-6 L3998,-1 L3999,0 L4000,-2 L4001,-3 L4002,-2 L4003,-1 L4004,0 L4005,-2 L4006,-1 L4007,-6 L4008,-2 L4009,-2 L4010,-1 L4011,40 L4012,0 L4013,7 L4014,0 L4015,0 L4016,0 L4017,2 L4018,-2 L4019,1 L4020,2 L4021,5 L4022,3 L4023,1 L4024,2 L4025,4 L4026,4 L4027,4 L4028,4 L4029,4 L4030,6 L4031,8 L4032,12 L4033,7 L4034,5 L4035,8 L4036,8 L4037,8 L4038,8 L4039,8 L4040,8 L4041,6 L4042,11 L4043,10 L4044,10 L4045,11 L4046,11 L4047,11 L4048,13 L4049,11 
L4050,12 L4051,15 L4052,14 L4053,11 L4054,14 L4055,12 L4056,14 L4057,13 L4058,-1 L4059,14 L4060,13 L4061,12 L4062,12 L4063,11 L4064,13 L4065,23 L4066,12 L4067,12 L4068,11 L4069,12 L4070,11 L4071,10 L4072,24 L4073,11 L4074,11 L4075,9 L4076,7 L4077,8 L4078,8 L4079,-8 L4080,6 L4081,7 L4082,6 L4083,6 L4084,6 L4085,5 L4086,3 L4087,3 L4088,2 L4089,3 L4090,3 L4091,-2 L4092,0 L4093,0 L4094,-1 L4095,-1 L4096,0 L4097,1 L4098,-2 L4099,-3 L4100,-3 L4101,-2 L4102,-3 L4103,-6 L4104,-4 L4105,-4 L4106,-5 L4107,-5 L4108,-2 L4109,-4 L4110,-5 L4111,-4 L4112,-9 L4113,-4 L4114,-4 L4115,-3 L4116,-3 L4117,-4 L4118,-1 L4119,18 L4120,-3 L4121,-1 L4122,-1 L4123,-1 L4124,0 L4125,1 L4126,17 L4127,2 L4128,1 L4129,4 L4130,3 L4131,4 L4132,4 L4133,1 L4134,8 L4135,6 L4136,8 L4137,9 L4138,10 L4139,9 L4140,9 L4141,10 L4142,11 L4143,9 L4144,11 L4145,10 L4146,9 L4147,10 L4148,11 L4149,9 
L4150,8 L4151,9 L4152,9 L4153,9 L4154,8 L4155,10 L4156,10 L4157,9 L4158,9 L4159,20 L4160,8 L4161,11 L4162,8 L4163,9 L4164,8 L4165,10 L4166,12 L4167,10 L4168,10 L4169,11 L4170,10 L4171,8 L4172,8 L4173,24 L4174,10 L4175,10 L4176,11 L4177,13 L4178,11 L4179,11 L4180,20 L4181,12 L4182,11 L4183,10 L4184,15 L4185,13 L4186,12 L4187,12 L4188,14 L4189,12 L4190,12 L4191,13 L4192,12 L4193,12 L4194,14 L4195,13 L4196,13 L4197,12 L4198,13 L4199,12 L4200,12 L4201,14 L4202,12 L4203,13 L4204,18 L4205,11 L4206,0 L4207,13 L4208,12 L4209,13 L4210,12 L4211,12 L4212,11 L4213,10 L4214,12 L4215,11 L4216,10 L4217,11 L4218,12 L4219,11 L4220,-18 L4221,9 L4222,10 L4223,9 L4224,10 L4225,9 L4226,9 L4227,4 L4228,9 L4229,9 L4230,9 L4231,8 L4232,9 L4233,7 L4234,5 L4235,8 L4236,4 L4237,9 L4238,8 L4239,8 L4240,9 L4241,7 L4242,9 L4243,9 L4244,8 L4245,8 L4246,11 L4247,10 L4248,10 L4249,9 
L4250,10 L4251,11 L4252,11 L4253,13 L4254,10 L4255,12 L4256,11 L4257,12 L4258,11 L4259,12 L4260,20 L4261,12 L4262,13 L4263,13 L4264,11 L4265,12 L4266,12 L4267,-7 L4268,11 L4269,10 L4270,12 L4271,10 L4272,11 L4273,10 L4274,21 L4275,8 L4276,9 L4277,10 L4278,9 L4279,8 L4280,7 L4281,3 L4282,10 L4283,8 L4284,7 L4285,8 L4286,7 L4287,7 L4288,4 L4289,5 L4290,9 L4291,8 L4292,10 L4293,6 L4294,7 L4295,7 L4296,11 L4297,8 L4298,9 L4299,8 L4300,10 L4301,10 L4302,11 L4303,9 L4304,9 L4305,9 L4306,12 L4307,5 L4308,11 L4309,11 L4310,11 L4311,11 L4312,13 L4313,13 L4314,8 L4315,12 L4316,10 L4317,11 L4318,12 L4319,10 L4320,11 L4321,-9 L4322,13 L4323,8 L4324,11 L4325,10 L4326,10 L4327,11 L4328,6 L4329,22 L4330,11 L4331,10 L4332,11 L4333,7 L4334,11 L4335,9 L4336,9 L4337,11 L4338,10 L4339,11 L4340,10 L4341,11 L4342,11 L4343,12 L4344,13 L4345,13 L4346,12 L4347,12 L4348,16 L4349,12 
L4350,12 L4351,14 L4352,13 L4353,13 L4354,11 L4355,13 L4356,13 L4357,14 L4358,11 L4359,12 L4360,15 L4361,11 L4362,14 L4363,12 L4364,12 L4365,16 L4366,13 L4367,13 L4368,16 L4369,13 L4370,14 L4371,14 L4372,12 L4373,13 L4374,14 L4375,23 L4376,12 L4377,15 L4378,14 L4379,-1 L4380,13 L4381,14 L4382,9 L4383,13 L4384,15 L4385,13 L4386,9 L4387,21 L4388,15 L4389,11 L4390,16 L4391,13 L4392,12 L4393,12 L4394,13 L4395,14 L4396,11 L4397,11 L4398,12 L4399,9 L4400,12 L4401,1 L4402,11 L4403,10 L4404,8 L4405,10 L4406,10 L4407,10 L4408,15 L4409,7 L4410,10 L4411,8 L4412,8 L4413,8 L4414,6 L4415,-14 L4416,6 L4417,9 L4418,5 L4419,7 L4420,6 L4421,9 L4422,-3 L4423,9 L4424,4 L4425,8 L4426,7 L4427,8 L4428,8 L4429,9 L4430,10 L4431,11 L4432,11 L4433,11 L4434,11 L4435,12 L4436,11 L4437,6 L4438,12 L4439,12 L4440,11 L4441,8 L4442,12 L4443,11 L4444,11 L4445,11 L4446,10 L4447,11 L4448,10 L4449,12 
L4450,10 L4451,11 L4452,10 L4453,9 L4454,8 L4455,-5 L4456,5 L4457,8 L4458,10 L4459,8 L4460,9 L4461,8 L4462,14 L4463,7 L4464,9 L4465,8 L4466,9 L4467,6 L4468,9 L4469,19 L4470,8 L4471,11 L4472,9 L4473,9 L4474,9 L4475,12 L4476,0 L4477,11 L4478,17 L4479,12 L4480,9 L4481,12 L4482,12 L4483,8 L4484,8 L4485,13 L4486,11 L4487,13 L4488,10 L4489,10 L4490,8 L4491,10 L4492,11 L4493,11 L4494,10 L4495,10 L4496,10 L4497,10 L4498,16 L4499,10 L4500,8 L4501,10 L4502,16 L4503,11 L4504,9 L4505,8 L4506,12 L4507,10 L4508,10 L4509,13 L4510,10 L4511,10 L4512,11 L4513,12 L4514,12 L4515,11 L4516,36 L4517,13 L4518,10 L4519,13 L4520,12 L4521,13 L4522,12 L4523,20 L4524,12 L4525,11 L4526,12 L4527,12 L4528,11 L4529,14 L4530,9 L4531,10 L4532,10 L4533,8 L4534,11 L4535,9 L4536,8 L4537,10 L4538,10 L4539,9 L4540,9 L4541,5 L4542,8 L4543,7 L4544,9 L4545,10 L4546,9 L4547,8 L4548,9 L4549,8 
L4550,10 L4551,8 L4552,7 L4553,8 L4554,8 L4555,8 L4556,17 L4557,9 L4558,10 L4559,10 L4560,10 L4561,13 L4562,11 L4563,-5 L4564,10 L4565,8 L4566,9 L4567,12 L4568,11 L4569,11 L4570,11 L4571,12 L4572,12 L4573,12 L4574,13 L4575,10 L4576,11 L4577,13 L4578,11 L4579,11 L4580,9 L4581,11 L4582,11 L4583,12 L4584,9 L4585,9 L4586,10 L4587,11 L4588,11 L4589,9 L4590,11 L4591,8 L4592,9 L4593,8 L4594,10 L4595,10 L4596,8 L4597,10 L4598,8 L4599,9 L4600,9 L4601,10 L4602,8 L4603,4 L4604,10 L4605,12 L4606,11 L4607,12 L4608,11 L4609,12 L4610,10 L4611,11 L4612,4 L4613,9 L4614,12 L4615,12 L4616,12 L4617,-8 L4618,16 L4619,11 L4620,11 L4621,12 L4622,11 L4623,11 L4624,13 L4625,10 L4626,11 L4627,9 L4628,10 L4629,9 L4630,11 L4631,9 L4632,11 L4633,11 L4634,11 L4635,11 L4636,10 L4637,10 L4638,11 L4639,12 L4640,9 L4641,12 L4642,13 L4643,12 L4644,13 L4645,12 L4646,12 L4647,11 L4648,12 L4649,12 
L4650,17 L4651,10 L4652,10 L4653,11 L4654,9 L4655,10 L4656,8 L4657,9 L4658,8 L4659,9 L4660,8 L4661,8 L4662,7 L4663,8 L4664,3 L4665,6 L4666,5 L4667,6 L4668,3 L4669,6 L4670,7 L4671,3 L4672,4 L4673,7 L4674,6 L4675,7 L4676,7 L4677,5 L4678,7 L4679,7 L4680,6 L4681,7 L4682,7 L4683,7 L4684,6 L4685,8 L4686,8 L4687,10 L4688,8 L4689,8 L4690,6 L4691,9 L4692,11 L4693,9 L4694,10 L4695,12 L4696,12 L4697,-6 L4698,11 L4699,11 L4700,9 L4701,10 L4702,9 L4703,8 L4704,7 L4705,11 L4706,9 L4707,9 L4708,8 L4709,8 L4710,8 L4711,31 L4712,8 L4713,8 L4714,10 L4715,7 L4716,8 L4717,7 L4718,-1 L4719,6 L4720,8 L4721,8 L4722,6 L4723,7 L4724,7 L4725,7 L4726,8 L4727,7 L4728,12 L4729,10 L4730,8 L4731,8 L4732,11 L4733,8 L4734,9 L4735,10 L4736,8 L4737,9 L4738,12 L4739,6 L4740,12 L4741,10 L4742,11 L4743,11 L4744,17 L4745,11 L4746,9 L4747,8 L4748,7 L4749,11 
L4750,11 L4751,12 L4752,10 L4753,7 L4754,11 L4755,9 L4756,11 L4757,11 L4758,28 L4759,9 L4760,12 L4761,8 L4762,7 L4763,11 L4764,9 L4765,13 L4766,10 L4767,8 L4768,10 L4769,10 L4770,9 L4771,8 L4772,16 L4773,10 L4774,10 L4775,9 L4776,10 L4777,8 L4778,11 L4779,13 L4780,11 L4781,11 L4782,12 L4783,12 L4784,8 L4785,10 L4786,9 L4787,10 L4788,12 L4789,11 L4790,10 L4791,11 L4792,9 L4793,9 L4794,12 L4795,8 L4796,8 L4797,8 L4798,7 L4799,8 L4800,9 L4801,8 L4802,10 L4803,6 L4804,8 L4805,13 L4806,7 L4807,9 L4808,4 L4809,7 L4810,7 L4811,8 L4812,9 L4813,8 L4814,6 L4815,8 L4816,9 L4817,9 L4818,7 L4819,15 L4820,10 L4821,11 L4822,8 L4823,11 L4824,11 L4825,8 L4826,8 L4827,10 L4828,8 L4829,12 L4830,8 L4831,8 L4832,8 L4833,8 L4834,6 L4835,8 L4836,7 L4837,6 L4838,7 L4839,4 L4840,5 L4841,6 L4842,4 L4843,-4 L4844,5 L4845,22 L4846,4 L4847,4 L4848,4 L4849,4 
L4850,4 L4851,4 L4852,6 L4853,4 L4854,4 L4855,4 L4856,4 L4857,8 L4858,7 L4859,15 L4860,8 L4861,6 L4862,7 L4863,6 L4864,6 L4865,8 L4866,16 L4867,9 L4868,8 L4869,10 L4870,11 L4871,10 L4872,7 L4873,5 L4874,9 L4875,8 L4876,8 L4877,11 L4878,8 L4879,8 L4880,5 L4881,10 L4882,8 L4883,8 L4884,8 L4885,6 L4886,8 L4887,5 L4888,6 L4889,7 L4890,7 L4891,6 L4892,22 L4893,6 L4894,5 L4895,4 L4896,5 L4897,4 L4898,5 L4899,6 L4900,5 L4901,4 L4902,6 L4903,4 L4904,7 L4905,6 L4906,-22 L4907,8 L4908,6 L4909,6 L4910,8 L4911,7 L4912,7 L4913,-1 L4914,6 L4915,8 L4916,9 L4917,8 L4918,8 L4919,10 L4920,9 L4921,10 L4922,11 L4923,10 L4924,11 L4925,11 L4926,10 L4927,10 L4928,11 L4929,12 L4930,9 L4931,11 L4932,12 L4933,8 L4934,9 L4935,8 L4936,9 L4937,9 L4938,11 L4939,7 L4940,9 L4941,10 L4942,9 L4943,10 L4944,12 L4945,9 L4946,9 L4947,9 L4948,10 L4949,11 
L4950,10 L4951,10 L4952,12 L4953,-7 L4954,11 L4955,8 L4956,11 L4957,9 L4958,10 L4959,10 L4960,10 L4961,11 L4962,8 L4963,8 L4964,9 L4965,8 L4966,9 L4967,14 L4968,10 L4969,8 L4970,8 L4971,10 L4972,9 L4973,7 L4974,10 L4975,9 L4976,7 L4977,6 L4978,8 L4979,11 L4980,6 L4981,4 L4982,4 L4983,8 L4984,5 L4985,12 L4986,8 L4987,10 L4988,9 L4989,9 L4990,8 L4991,8 L4992,10 L4993,6 L4994,6 L4995,9 L4996,10 L4997,9 L4998,10 L4999,10 "/>
-->
<path stroke="red" transform="translate(0,240) scale(0.128,-2.4)" fill="none" stroke-width="3" d="M0,1 L1,0 L2,1 L3,2 L4,2 L5,5 L6,5 L7,1 L8,2 L9,0 L10,0 L11,3 L12,2 L13,5 L14,4 L15,2 L16,3 L17,3 L18,1 L19,2 L20,4 L21,3 L22,3 L23,4 L24,1 L25,2 L26,1 L27,0 L28,1 L29,3 L30,1 L31,3 L32,4 L33,1 L34,1 L35,0 L36,0 L37,3 L38,4 L39,2 L40,3 L41,2 L42,0 L43,1 L44,3 L45,2 L46,4 L47,3 L48,2 L49,1 
L50,1 L51,0 L52,2 L53,1 L54,2 L55,4 L56,2 L57,1 L58,3 L59,3 L60,2 L61,3 L62,3 L63,2 L64,3 L65,3 L66,1 L67,1 L68,1 L69,1 L70,2 L71,3 L72,3 L73,2 L74,3 L75,1 L76,0 L77,1 L78,3 L79,3 L80,2 L81,1 L82,2 L83,2 L84,3 L85,4 L86,1 L87,0 L88,3 L89,2 L90,0 L91,1 L92,4 L93,3 L94,2 L95,0 L96,1 L97,3 L98,3 L99,0 L100,2 L101,3 L102,4 L103,0 L104,-5 L105,13 L106,8 L107,-1 L108,-5 L109,4 L110,1 L111,-3 L112,8 L113,3 L114,-1 L115,3 L116,0 L117,3 L118,1 L119,1 L120,6 L121,-2 L122,4 L123,6 L124,0 L125,0 L126,-1 L127,4 L128,4 L129,0 L130,5 L131,2 L132,2 L133,3 L134,0 L135,4 L136,3 L137,4 L138,4 L139,3 L140,3 L141,0 L142,1 L143,4 L144,1 L145,5 L146,4 L147,2 L148,3 L149,1 
L150,0 L151,3 L152,1 L153,1 L154,3 L155,3 L156,2 L157,0 L158,0 L159,1 L160,2 L161,1 L162,1 L163,3 L164,0 L165,-1 L166,0 L167,0 L168,0 L169,0 L170,1 L171,0 L172,1 L173,0 L174,0 L175,2 L176,1 L177,2 L178,2 L179,1 L180,2 L181,3 L182,1 L183,2 L184,3 L185,1 L186,6 L187,0 L188,1 L189,4 L190,7 L191,0 L192,-1 L193,4 L194,3 L195,2 L196,4 L197,2 L198,4 L199,2 L200,2 L201,1 L202,3 L203,1 L204,3 L205,1 L206,2 L207,2 L208,3 L209,0 L210,3 L211,4 L212,3 L213,1 L214,1 L215,2 L216,1 L217,3 L218,1 L219,4 L220,3 L221,2 L222,2 L223,3 L224,2 L225,0 L226,3 L227,1 L228,3 L229,3 L230,2 L231,2 L232,2 L233,0 L234,1 L235,4 L236,2 L237,4 L238,2 L239,0 L240,0 L241,1 L242,1 L243,3 L244,3 L245,3 L246,2 L247,2 L248,-1 L249,2 
L250,3 L251,3 L252,2 L253,3 L254,0 L255,2 L256,2 L257,0 L258,1 L259,2 L260,2 L261,3 L262,4 L263,1 L264,3 L265,0 L266,-1 L267,2 L268,2 L269,2 L270,4 L271,3 L272,0 L273,0 L274,1 L275,1 L276,3 L277,3 L278,3 L279,4 L280,2 L281,2 L282,2 L283,3 L284,1 L285,4 L286,3 L287,2 L288,3 L289,2 L290,0 L291,2 L292,2 L293,3 L294,4 L295,4 L296,3 L297,1 L298,0 L299,0 L300,3 L301,2 L302,3 L303,4 L304,3 L305,1 L306,0 L307,0 L308,1 L309,8 L310,0 L311,0 L312,3 L313,4 L314,2 L315,0 L316,0 L317,0 L318,1 L319,4 L320,0 L321,3 L322,2 L323,-1 L324,1 L325,2 L326,2 L327,4 L328,2 L329,2 L330,4 L331,0 L332,0 L333,1 L334,3 L335,2 L336,1 L337,1 L338,4 L339,5 L340,0 L341,-3 L342,4 L343,5 L344,1 L345,0 L346,1 L347,3 L348,-3 L349,-1 
L350,14 L351,12 L352,0 L353,1 L354,7 L355,-5 L356,-1 L357,11 L358,8 L359,0 L360,4 L361,3 L362,0 L363,0 L364,0 L365,7 L366,5 L367,1 L368,1 L369,2 L370,-3 L371,-2 L372,3 L373,0 L374,1 L375,3 L376,0 L377,0 L378,-1 L379,0 L380,-1 L381,-1 L382,0 L383,3 L384,2 L385,-1 L386,2 L387,5 L388,4 L389,-6 L390,-2 L391,9 L392,4 L393,3 L394,1 L395,8 L396,5 L397,0 L398,3 L399,5 L400,2 L401,2 L402,4 L403,4 L404,1 L405,3 L406,2 L407,0 L408,5 L409,3 L410,2 L411,3 L412,0 L413,0 L414,0 L415,-1 L416,3 L417,3 L418,1 L419,3 L420,3 L421,1 L422,0 L423,0 L424,0 L425,2 L426,2 L427,2 L428,4 L429,2 L430,0 L431,1 L432,2 L433,1 L434,3 L435,4 L436,4 L437,3 L438,1 L439,-1 L440,1 L441,3 L442,1 L443,4 L444,4 L445,2 L446,4 L447,1 L448,1 L449,4 
L450,3 L451,3 L452,4 L453,4 L454,2 L455,1 L456,0 L457,0 L458,3 L459,4 L460,4 L461,4 L462,2 L463,1 L464,1 L465,0 L466,1 L467,3 L468,5 L469,3 L470,1 L471,1 L472,2 L473,1 L474,3 L475,3 L476,3 L477,3 L478,2 L479,3 L480,1 L481,0 L482,3 L483,4 L484,9 L485,3 L486,-27 L487,8 L488,26 L489,-10 L490,-16 L491,9 L492,12 L493,-9 L494,-10 L495,6 L496,8 L497,-4 L498,0 L499,-1 L500,2 L501,4 L502,-1 L503,4 L504,0 L505,3 L506,8 L507,0 L508,-5 L509,8 L510,12 L511,-4 L512,0 L513,8 L514,4 L515,4 L516,-2 L517,8 L518,8 L519,-1 L520,-1 L521,7 L522,-1 L523,-2 L524,4 L525,3 L526,5 L527,0 L528,1 L529,3 L530,-2 L531,3 L532,1 L533,2 L534,3 L535,0 L536,2 L537,-1 L538,-1 L539,3 L540,-3 L541,0 L542,3 L543,1 L544,-2 L545,1 L546,2 L547,-1 L548,0 L549,1 
L550,0 L551,4 L552,1 L553,1 L554,4 L555,1 L556,3 L557,3 L558,4 L559,4 L560,5 L561,3 L562,2 L563,3 L564,3 L565,3 L566,5 L567,4 L568,4 L569,5 L570,4 L571,2 L572,4 L573,1 L574,3 L575,4 L576,4 L577,3 L578,4 L579,1 L580,1 L581,1 L582,1 L583,2 L584,3 L585,2 L586,1 L587,0 L588,0 L589,3 L590,0 L591,-1 L592,4 L593,6 L594,-2 L595,-3 L596,3 L597,2 L598,1 L599,3 L600,1 L601,2 L602,1 L603,1 L604,1 L605,1 L606,0 L607,0 L608,1 L609,3 L610,5 L611,3 L612,1 L613,2 L614,1 L615,0 L616,2 L617,4 L618,3 L619,2 L620,2 L621,-1 L622,1 L623,0 L624,2 L625,3 L626,3 L627,2 L628,1 L629,0 L630,0 L631,0 L632,1 L633,0 L634,3 L635,2 L636,1 L637,2 L638,1 L639,0 L640,0 L641,2 L642,3 L643,3 L644,3 L645,1 L646,0 L647,0 L648,1 L649,3 
L650,5 L651,2 L652,4 L653,3 L654,2 L655,1 L656,3 L657,2 L658,4 L659,2 L660,3 L661,2 L662,2 L663,2 L664,3 L665,1 L666,1 L667,3 L668,2 L669,3 L670,4 L671,1 L672,1 L673,1 L674,0 L675,1 L676,3 L677,3 L678,1 L679,0 L680,1 L681,-1 L682,1 L683,0 L684,3 L685,2 L686,1 L687,0 L688,1 L689,-1 L690,0 L691,2 L692,2 L693,1 L694,2 L695,0 L696,1 L697,1 L698,1 L699,-1 L700,7 L701,0 L702,-1 L703,3 L704,3 L705,1 L706,1 L707,1 L708,0 L709,2 L710,2 L711,10 L712,2 L713,-1 L714,-1 L715,3 L716,4 L717,2 L718,4 L719,2 L720,0 L721,-4 L722,4 L723,5 L724,-1 L725,0 L726,1 L727,4 L728,2 L729,-1 L730,0 L731,0 L732,2 L733,3 L734,0 L735,3 L736,1 L737,0 L738,0 L739,0 L740,2 L741,1 L742,3 L743,2 L744,1 L745,0 L746,-1 L747,-1 L748,4 L749,3 
L750,4 L751,4 L752,0 L753,0 L754,1 L755,0 L756,2 L757,5 L758,3 L759,0 L760,0 L761,1 L762,0 L763,1 L764,1 L765,3 L766,3 L767,2 L768,3 L769,2 L770,0 L771,0 L772,2 L773,1 L774,3 L775,4 L776,2 L777,0 L778,0 L779,-2 L780,0 L781,2 L782,1 L783,1 L784,1 L785,-1 L786,0 L787,3 L788,0 L789,3 L790,6 L791,1 L792,1 L793,1 L794,7 L795,1 L796,-2 L797,0 L798,3 L799,4 L800,3 L801,1 L802,4 L803,0 L804,1 L805,0 L806,0 L807,4 L808,4 L809,2 L810,0 L811,-1 L812,-1 L813,-1 L814,0 L815,1 L816,3 L817,1 L818,-2 L819,1 L820,0 L821,-2 L822,0 L823,1 L824,0 L825,0 L826,1 L827,-1 L828,1 L829,-1 L830,-2 L831,2 L832,3 L833,0 L834,4 L835,3 L836,-1 L837,3 L838,1 L839,1 L840,2 L841,4 L842,3 L843,3 L844,1 L845,0 L846,2 L847,1 L848,3 L849,3 
L850,4 L851,2 L852,3 L853,0 L854,3 L855,2 L856,1 L857,0 L858,4 L859,4 L860,1 L861,0 L862,0 L863,-1 L864,2 L865,3 L866,1 L867,3 L868,1 L869,-1 L870,1 L871,1 L872,0 L873,3 L874,3 L875,0 L876,2 L877,1 L878,0 L879,2 L880,0 L881,1 L882,3 L883,2 L884,0 L885,3 L886,0 L887,1 L888,3 L889,1 L890,2 L891,4 L892,2 L893,0 L894,1 L895,1 L896,0 L897,1 L898,1 L899,3 L900,4 L901,0 L902,0 L903,0 L904,-1 L905,0 L906,3 L907,2 L908,0 L909,3 L910,-4 L911,1 L912,2 L913,4 L914,-2 L915,3 L916,0 L917,-1 L918,7 L919,4 L920,-5 L921,-3 L922,4 L923,7 L924,-4 L925,0 L926,10 L927,3 L928,-8 L929,-1 L930,6 L931,3 L932,-3 L933,4 L934,7 L935,1 L936,-3 L937,1 L938,5 L939,2 L940,-1 L941,5 L942,5 L943,-1 L944,-1 L945,3 L946,1 L947,-2 L948,3 L949,4 
L950,2 L951,1 L952,0 L953,2 L954,0 L955,-1 L956,2 L957,4 L958,1 L959,3 L960,3 L961,-1 L962,1 L963,4 L964,8 L965,-2 L966,-6 L967,6 L968,20 L969,-4 L970,-20 L971,15 L972,15 L973,1 L974,-11 L975,-29 L976,15 L977,54 L978,-45 L979,-52 L980,47 L981,76 L982,-58 L983,-43 L984,20 L985,21 L986,-39 L987,-4 L988,38 L989,19 L990,-9 L991,-12 L992,-5 L993,-7 L994,-3 L995,12 L996,28 L997,-2 L998,-11 L999,5 L1000,3 L1001,-19 L1002,-8 L1003,17 L1004,16 L1005,-5 L1006,-5 L1007,7 L1008,-4 L1009,-13 L1010,-1 L1011,11 L1012,5 L1013,2 L1014,8 L1015,2 L1016,-10 L1017,2 L1018,12 L1019,-5 L1020,-9 L1021,21 L1022,17 L1023,-28 L1024,-17 L1025,44 L1026,21 L1027,-48 L1028,-20 L1029,54 L1030,16 L1031,-54 L1032,-8 L1033,55 L1034,1 L1035,-59 L1036,3 L1037,59 L1038,-9 L1039,-45 L1040,21 L1041,38 L1042,-26 L1043,-32 L1044,31 L1045,29 L1046,-29 L1047,-19 L1048,36 L1049,14 
L1050,-35 L1051,-7 L1052,39 L1053,4 L1054,-32 L1055,9 L1056,32 L1057,-13 L1058,-25 L1059,16 L1060,20 L1061,-16 L1062,-13 L1063,21 L1064,11 L1065,-17 L1066,-3 L1067,20 L1068,-3 L1069,-17 L1070,9 L1071,19 L1072,-6 L1073,-11 L1074,11 L1075,10 L1076,-10 L1077,-7 L1078,12 L1079,7 L1080,-9 L1081,1 L1082,13 L1083,-2 L1084,-11 L1085,4 L1086,6 L1087,-4 L1088,-2 L1089,8 L1090,5 L1091,-3 L1092,-1 L1093,4 L1094,1 L1095,-4 L1096,4 L1097,8 L1098,1 L1099,-2 L1100,12 L1101,-10 L1102,-6 L1103,10 L1104,3 L1105,0 L1106,1 L1107,1 L1108,4 L1109,-1 L1110,0 L1111,-4 L1112,6 L1113,4 L1114,2 L1115,3 L1116,-1 L1117,-2 L1118,3 L1119,0 L1120,3 L1121,0 L1122,5 L1123,4 L1124,-1 L1125,-1 L1126,0 L1127,2 L1128,0 L1129,0 L1130,6 L1131,5 L1132,-1 L1133,0 L1134,1 L1135,2 L1136,0 L1137,0 L1138,2 L1139,3 L1140,3 L1141,0 L1142,4 L1143,-4 L1144,0 L1145,5 L1146,0 L1147,1 L1148,3 L1149,2 
L1150,1 L1151,-1 L1152,2 L1153,1 L1154,-3 L1155,6 L1156,6 L1157,2 L1158,-3 L1159,0 L1160,2 L1161,-1 L1162,0 L1163,4 L1164,5 L1165,2 L1166,0 L1167,1 L1168,2 L1169,-1 L1170,0 L1171,3 L1172,5 L1173,-3 L1174,7 L1175,3 L1176,-4 L1177,1 L1178,3 L1179,1 L1180,2 L1181,2 L1182,2 L1183,0 L1184,-2 L1185,4 L1186,0 L1187,-1 L1188,2 L1189,4 L1190,2 L1191,0 L1192,0 L1193,3 L1194,4 L1195,-4 L1196,-2 L1197,9 L1198,3 L1199,-1 L1200,1 L1201,3 L1202,2 L1203,0 L1204,3 L1205,2 L1206,0 L1207,7 L1208,4 L1209,0 L1210,3 L1211,1 L1212,2 L1213,3 L1214,4 L1215,6 L1216,1 L1217,-1 L1218,5 L1219,4 L1220,1 L1221,1 L1222,7 L1223,5 L1224,2 L1225,3 L1226,4 L1227,4 L1228,1 L1229,2 L1230,6 L1231,4 L1232,3 L1233,1 L1234,1 L1235,2 L1236,0 L1237,5 L1238,0 L1239,0 L1240,7 L1241,-1 L1242,-2 L1243,3 L1244,1 L1245,0 L1246,-2 L1247,2 L1248,8 L1249,-3 
L1250,-5 L1251,3 L1252,9 L1253,0 L1254,-4 L1255,6 L1256,6 L1257,-3 L1258,-1 L1259,2 L1260,4 L1261,2 L1262,-2 L1263,4 L1264,5 L1265,0 L1266,-1 L1267,8 L1268,-8 L1269,-3 L1270,19 L1271,0 L1272,-8 L1273,6 L1274,5 L1275,2 L1276,1 L1277,2 L1278,3 L1279,3 L1280,5 L1281,-1 L1282,6 L1283,3 L1284,-4 L1285,4 L1286,2 L1287,2 L1288,4 L1289,-1 L1290,2 L1291,4 L1292,-1 L1293,2 L1294,4 L1295,2 L1296,2 L1297,1 L1298,2 L1299,1 L1300,2 L1301,3 L1302,2 L1303,3 L1304,1 L1305,3 L1306,4 L1307,3 L1308,3 L1309,3 L1310,1 L1311,1 L1312,-2 L1313,8 L1314,4 L1315,4 L1316,0 L1317,2 L1318,2 L1319,1 L1320,4 L1321,6 L1322,4 L1323,4 L1324,0 L1325,1 L1326,2 L1327,3 L1328,3 L1329,-1 L1330,3 L1331,2 L1332,1 L1333,2 L1334,0 L1335,1 L1336,2 L1337,-1 L1338,1 L1339,4 L1340,1 L1341,1 L1342,0 L1343,0 L1344,2 L1345,3 L1346,4 L1347,3 L1348,2 L1349,-1 
L1350,0 L1351,2 L1352,5 L1353,1 L1354,2 L1355,4 L1356,3 L1357,0 L1358,1 L1359,3 L1360,5 L1361,2 L1362,0 L1363,0 L1364,11 L1365,0 L1366,-3 L1367,4 L1368,4 L1369,2 L1370,1 L1371,1 L1372,3 L1373,4 L1374,3 L1375,-4 L1376,3 L1377,5 L1378,0 L1379,4 L1380,3 L1381,2 L1382,3 L1383,-1 L1384,1 L1385,4 L1386,1 L1387,2 L1388,3 L1389,3 L1390,0 L1391,0 L1392,3 L1393,3 L1394,-2 L1395,11 L1396,1 L1397,-4 L1398,5 L1399,6 L1400,0 L1401,0 L1402,4 L1403,4 L1404,3 L1405,3 L1406,7 L1407,2 L1408,-1 L1409,0 L1410,4 L1411,5 L1412,4 L1413,4 L1414,2 L1415,4 L1416,0 L1417,1 L1418,4 L1419,4 L1420,1 L1421,1 L1422,3 L1423,2 L1424,0 L1425,3 L1426,2 L1427,-2 L1428,5 L1429,4 L1430,3 L1431,4 L1432,2 L1433,1 L1434,2 L1435,1 L1436,5 L1437,-1 L1438,2 L1439,7 L1440,3 L1441,0 L1442,1 L1443,3 L1444,6 L1445,3 L1446,4 L1447,4 L1448,4 L1449,0 
L1450,0 L1451,3 L1452,4 L1453,4 L1454,3 L1455,4 L1456,4 L1457,0 L1458,5 L1459,1 L1460,-2 L1461,3 L1462,3 L1463,2 L1464,4 L1465,1 L1466,0 L1467,0 L1468,1 L1469,5 L1470,0 L1471,1 L1472,0 L1473,3 L1474,2 L1475,0 L1476,1 L1477,0 L1478,2 L1479,0 L1480,0 L1481,4 L1482,2 L1483,1 L1484,1 L1485,2 L1486,1 L1487,0 L1488,4 L1489,1 L1490,1 L1491,5 L1492,2 L1493,0 L1494,3 L1495,2 L1496,3 L1497,5 L1498,2 L1499,4 L1500,-1 L1501,2 L1502,5 L1503,4 L1504,2 L1505,0 L1506,5 L1507,4 L1508,1 L1509,3 L1510,4 L1511,1 L1512,-1 L1513,3 L1514,-3 L1515,7 L1516,8 L1517,-2 L1518,-2 L1519,3 L1520,1 L1521,5 L1522,-1 L1523,2 L1524,3 L1525,1 L1526,1 L1527,3 L1528,2 L1529,2 L1530,3 L1531,5 L1532,3 L1533,1 L1534,2 L1535,3 L1536,4 L1537,2 L1538,2 L1539,2 L1540,0 L1541,3 L1542,2 L1543,3 L1544,2 L1545,3 L1546,2 L1547,3 L1548,3 L1549,3 
L1550,0 L1551,4 L1552,-1 L1553,4 L1554,5 L1555,0 L1556,1 L1557,3 L1558,0 L1559,2 L1560,2 L1561,3 L1562,3 L1563,-1 L1564,5 L1565,3 L1566,1 L1567,0 L1568,3 L1569,4 L1570,2 L1571,1 L1572,2 L1573,1 L1574,2 L1575,3 L1576,2 L1577,5 L1578,3 L1579,1 L1580,0 L1581,1 L1582,2 L1583,3 L1584,3 L1585,4 L1586,4 L1587,4 L1588,1 L1589,3 L1590,1 L1591,2 L1592,3 L1593,4 L1594,3 L1595,1 L1596,3 L1597,5 L1598,0 L1599,-1 L1600,6 L1601,3 L1602,1 L1603,4 L1604,4 L1605,4 L1606,2 L1607,2 L1608,3 L1609,3 L1610,3 L1611,4 L1612,3 L1613,2 L1614,2 L1615,1 L1616,0 L1617,2 L1618,3 L1619,1 L1620,2 L1621,3 L1622,3 L1623,2 L1624,1 L1625,1 L1626,3 L1627,3 L1628,4 L1629,3 L1630,4 L1631,2 L1632,0 L1633,2 L1634,2 L1635,4 L1636,4 L1637,4 L1638,2 L1639,2 L1640,1 L1641,2 L1642,2 L1643,3 L1644,4 L1645,3 L1646,2 L1647,3 L1648,2 L1649,2 
L1650,2 L1651,2 L1652,3 L1653,3 L1654,3 L1655,3 L1656,3 L1657,1 L1658,2 L1659,0 L1660,1 L1661,2 L1662,2 L1663,2 L1664,4 L1665,4 L1666,0 L1667,0 L1668,2 L1669,4 L1670,2 L1671,0 L1672,3 L1673,2 L1674,3 L1675,1 L1676,1 L1677,5 L1678,4 L1679,1 L1680,0 L1681,2 L1682,6 L1683,1 L1684,-1 L1685,2 L1686,6 L1687,5 L1688,0 L1689,3 L1690,2 L1691,1 L1692,3 L1693,4 L1694,5 L1695,1 L1696,1 L1697,4 L1698,0 L1699,1 L1700,2 L1701,2 L1702,3 L1703,2 L1704,1 L1705,2 L1706,-2 L1707,4 L1708,4 L1709,2 L1710,3 L1711,2 L1712,1 L1713,4 L1714,1 L1715,0 L1716,4 L1717,-1 L1718,6 L1719,2 L1720,3 L1721,1 L1722,1 L1723,3 L1724,1 L1725,2 L1726,4 L1727,3 L1728,3 L1729,-1 L1730,2 L1731,4 L1732,0 L1733,2 L1734,4 L1735,3 L1736,0 L1737,5 L1738,4 L1739,-1 L1740,0 L1741,3 L1742,4 L1743,5 L1744,1 L1745,3 L1746,2 L1747,0 L1748,4 L1749,1 
L1750,3 L1751,4 L1752,4 L1753,4 L1754,2 L1755,3 L1756,0 L1757,0 L1758,5 L1759,3 L1760,1 L1761,4 L1762,1 L1763,1 L1764,3 L1765,1 L1766,3 L1767,3 L1768,1 L1769,-3 L1770,7 L1771,5 L1772,-2 L1773,0 L1774,4 L1775,3 L1776,4 L1777,1 L1778,11 L1779,-8 L1780,2 L1781,10 L1782,1 L1783,0 L1784,-3 L1785,4 L1786,8 L1787,0 L1788,4 L1789,1 L1790,-1 L1791,4 L1792,0 L1793,4 L1794,1 L1795,3 L1796,4 L1797,0 L1798,7 L1799,-1 L1800,-1 L1801,7 L1802,5 L1803,3 L1804,0 L1805,3 L1806,4 L1807,1 L1808,3 L1809,2 L1810,3 L1811,2 L1812,3 L1813,3 L1814,1 L1815,3 L1816,4 L1817,1 L1818,3 L1819,2 L1820,1 L1821,2 L1822,1 L1823,1 L1824,4 L1825,1 L1826,0 L1827,3 L1828,0 L1829,2 L1830,3 L1831,2 L1832,1 L1833,3 L1834,3 L1835,3 L1836,0 L1837,1 L1838,1 L1839,2 L1840,0 L1841,1 L1842,3 L1843,0 L1844,0 L1845,2 L1846,1 L1847,0 L1848,1 L1849,0 
L1850,0 L1851,3 L1852,1 L1853,3 L1854,4 L1855,2 L1856,0 L1857,3 L1858,2 L1859,3 L1860,6 L1861,0 L1862,2 L1863,3 L1864,2 L1865,3 L1866,4 L1867,5 L1868,5 L1869,4 L1870,1 L1871,3 L1872,6 L1873,2 L1874,6 L1875,5 L1876,3 L1877,2 L1878,4 L1879,1 L1880,2 L1881,2 L1882,0 L1883,-2 L1884,7 L1885,14 L1886,5 L1887,0 L1888,4 L1889,2 L1890,-8 L1891,5 L1892,15 L1893,6 L1894,-2 L1895,1 L1896,1 L1897,-1 L1898,0 L1899,6 L1900,6 L1901,3 L1902,1 L1903,0 L1904,-3 L1905,-1 L1906,1 L1907,2 L1908,1 L1909,2 L1910,5 L1911,4 L1912,-4 L1913,-1 L1914,2 L1915,3 L1916,0 L1917,-2 L1918,8 L1919,14 L1920,-5 L1921,-4 L1922,5 L1923,4 L1924,2 L1925,3 L1926,8 L1927,3 L1928,1 L1929,3 L1930,1 L1931,5 L1932,5 L1933,3 L1934,4 L1935,4 L1936,2 L1937,4 L1938,1 L1939,3 L1940,4 L1941,4 L1942,0 L1943,5 L1944,4 L1945,0 L1946,2 L1947,1 L1948,1 L1949,1 
L1950,2 L1951,1 L1952,3 L1953,1 L1954,0 L1955,1 L1956,3 L1957,0 L1958,4 L1959,5 L1960,1 L1961,-1 L1962,1 L1963,2 L1964,3 L1965,3 L1966,4 L1967,7 L1968,4 L1969,2 L1970,3 L1971,4 L1972,2 L1973,1 L1974,2 L1975,4 L1976,3 L1977,5 L1978,0 L1979,1 L1980,0 L1981,-1 L1982,3 L1983,3 L1984,3 L1985,2 L1986,-1 L1987,-1 L1988,1 L1989,0 L1990,0 L1991,3 L1992,4 L1993,0 L1994,1 L1995,0 L1996,-1 L1997,2 L1998,3 L1999,7 L2000,-1 L2001,1 L2002,4 L2003,6 L2004,-2 L2005,-2 L2006,3 L2007,3 L2008,2 L2009,4 L2010,3 L2011,2 L2012,1 L2013,0 L2014,2 L2015,2 L2016,4 L2017,4 L2018,5 L2019,9 L2020,-3 L2021,-28 L2022,10 L2023,23 L2024,-8 L2025,-13 L2026,14 L2027,9 L2028,-11 L2029,-10 L2030,9 L2031,8 L2032,-5 L2033,4 L2034,1 L2035,2 L2036,5 L2037,-3 L2038,0 L2039,-1 L2040,5 L2041,9 L2042,1 L2043,0 L2044,6 L2045,4 L2046,-2 L2047,1 L2048,9 L2049,6 
L2050,4 L2051,2 L2052,6 L2053,7 L2054,0 L2055,1 L2056,11 L2057,2 L2058,1 L2059,3 L2060,5 L2061,5 L2062,-2 L2063,3 L2064,4 L2065,0 L2066,6 L2067,2 L2068,2 L2069,3 L2070,-1 L2071,1 L2072,1 L2073,1 L2074,3 L2075,1 L2076,2 L2077,2 L2078,0 L2079,0 L2080,0 L2081,2 L2082,4 L2083,3 L2084,4 L2085,2 L2086,0 L2087,0 L2088,0 L2089,4 L2090,4 L2091,3 L2092,4 L2093,7 L2094,3 L2095,3 L2096,4 L2097,4 L2098,2 L2099,6 L2100,4 L2101,5 L2102,7 L2103,3 L2104,4 L2105,4 L2106,3 L2107,2 L2108,4 L2109,3 L2110,2 L2111,1 L2112,0 L2113,1 L2114,3 L2115,1 L2116,1 L2117,2 L2118,-6 L2119,7 L2120,8 L2121,-5 L2122,-4 L2123,2 L2124,0 L2125,0 L2126,0 L2127,3 L2128,-1 L2129,0 L2130,-2 L2131,0 L2132,0 L2133,-1 L2134,4 L2135,4 L2136,-1 L2137,3 L2138,2 L2139,0 L2140,1 L2141,3 L2142,3 L2143,1 L2144,4 L2145,2 L2146,3 L2147,3 L2148,-2 L2149,4 
L2150,6 L2151,1 L2152,3 L2153,4 L2154,1 L2155,3 L2156,4 L2157,0 L2158,3 L2159,3 L2160,0 L2161,3 L2162,4 L2163,1 L2164,1 L2165,2 L2166,1 L2167,2 L2168,2 L2169,7 L2170,-1 L2171,-1 L2172,2 L2173,3 L2174,2 L2175,3 L2176,0 L2177,1 L2178,0 L2179,4 L2180,4 L2181,0 L2182,2 L2183,0 L2184,2 L2185,2 L2186,1 L2187,2 L2188,2 L2189,3 L2190,3 L2191,2 L2192,4 L2193,1 L2194,3 L2195,2 L2196,0 L2197,2 L2198,2 L2199,2 L2200,5 L2201,4 L2202,-1 L2203,-2 L2204,4 L2205,4 L2206,2 L2207,4 L2208,3 L2209,1 L2210,0 L2211,0 L2212,2 L2213,3 L2214,2 L2215,2 L2216,3 L2217,0 L2218,2 L2219,0 L2220,-1 L2221,2 L2222,3 L2223,1 L2224,2 L2225,0 L2226,1 L2227,1 L2228,0 L2229,1 L2230,3 L2231,3 L2232,4 L2233,3 L2234,3 L2235,1 L2236,0 L2237,2 L2238,3 L2239,4 L2240,6 L2241,4 L2242,3 L2243,2 L2244,-1 L2245,3 L2246,2 L2247,3 L2248,5 L2249,4 
L2250,3 L2251,2 L2252,3 L2253,1 L2254,2 L2255,3 L2256,3 L2257,6 L2258,3 L2259,3 L2260,3 L2261,0 L2262,1 L2263,1 L2264,4 L2265,3 L2266,3 L2267,2 L2268,1 L2269,2 L2270,0 L2271,3 L2272,3 L2273,3 L2274,3 L2275,3 L2276,1 L2277,1 L2278,1 L2279,2 L2280,1 L2281,4 L2282,3 L2283,1 L2284,3 L2285,0 L2286,1 L2287,2 L2288,4 L2289,2 L2290,5 L2291,2 L2292,2 L2293,3 L2294,1 L2295,1 L2296,3 L2297,3 L2298,3 L2299,3 L2300,1 L2301,3 L2302,3 L2303,0 L2304,2 L2305,4 L2306,1 L2307,1 L2308,4 L2309,1 L2310,0 L2311,1 L2312,1 L2313,1 L2314,3 L2315,2 L2316,1 L2317,3 L2318,0 L2319,-1 L2320,-3 L2321,4 L2322,9 L2323,-2 L2324,-2 L2325,3 L2326,4 L2327,0 L2328,0 L2329,4 L2330,2 L2331,1 L2332,5 L2333,0 L2334,1 L2335,3 L2336,1 L2337,1 L2338,2 L2339,2 L2340,3 L2341,3 L2342,2 L2343,2 L2344,2 L2345,-1 L2346,1 L2347,4 L2348,2 L2349,1 
L2350,4 L2351,1 L2352,1 L2353,0 L2354,0 L2355,3 L2356,3 L2357,2 L2358,2 L2359,4 L2360,1 L2361,0 L2362,3 L2363,1 L2364,3 L2365,3 L2366,1 L2367,2 L2368,2 L2369,-1 L2370,1 L2371,4 L2372,2 L2373,4 L2374,2 L2375,-1 L2376,1 L2377,0 L2378,0 L2379,3 L2380,4 L2381,2 L2382,2 L2383,1 L2384,0 L2385,1 L2386,0 L2387,3 L2388,3 L2389,2 L2390,0 L2391,3 L2392,1 L2393,0 L2394,2 L2395,1 L2396,1 L2397,3 L2398,4 L2399,1 L2400,2 L2401,2 L2402,5 L2403,-3 L2404,0 L2405,7 L2406,5 L2407,0 L2408,-2 L2409,4 L2410,3 L2411,0 L2412,3 L2413,2 L2414,2 L2415,2 L2416,1 L2417,0 L2418,1 L2419,4 L2420,0 L2421,2 L2422,3 L2423,2 L2424,2 L2425,3 L2426,0 L2427,4 L2428,1 L2429,0 L2430,3 L2431,3 L2432,1 L2433,1 L2434,0 L2435,1 L2436,5 L2437,4 L2438,0 L2439,0 L2440,8 L2441,2 L2442,-6 L2443,3 L2444,11 L2445,4 L2446,-7 L2447,0 L2448,13 L2449,3 
L2450,-8 L2451,1 L2452,9 L2453,1 L2454,-6 L2455,3 L2456,8 L2457,1 L2458,-4 L2459,1 L2460,6 L2461,-1 L2462,-3 L2463,6 L2464,4 L2465,-4 L2466,-2 L2467,5 L2468,3 L2469,0 L2470,0 L2471,6 L2472,3 L2473,-1 L2474,-2 L2475,6 L2476,3 L2477,-2 L2478,3 L2479,4 L2480,0 L2481,1 L2482,2 L2483,0 L2484,0 L2485,1 L2486,11 L2487,-2 L2488,0 L2489,0 L2490,10 L2491,9 L2492,-16 L2493,-23 L2494,36 L2495,34 L2496,-46 L2497,-59 L2498,65 L2499,68 L2500,-87 L2501,-83 L2502,116 L2503,80 L2504,-115 L2505,-81 L2506,96 L2507,60 L2508,-94 L2509,-40 L2510,95 L2511,48 L2512,-87 L2513,-36 L2514,66 L2515,13 L2516,-57 L2517,9 L2518,64 L2519,-11 L2520,-53 L2521,8 L2522,51 L2523,-21 L2524,-38 L2525,36 L2526,40 L2527,-33 L2528,-24 L2529,33 L2530,17 L2531,-30 L2532,-4 L2533,32 L2534,5 L2535,-19 L2536,4 L2537,18 L2538,-6 L2539,-7 L2540,14 L2541,4 L2542,-1 L2543,11 L2544,-6 L2545,-13 L2546,18 L2547,16 L2548,-27 L2549,-3 
L2550,39 L2551,-2 L2552,-37 L2553,13 L2554,30 L2555,-27 L2556,-31 L2557,35 L2558,28 L2559,-37 L2560,-15 L2561,42 L2562,-1 L2563,-49 L2564,10 L2565,50 L2566,-15 L2567,-35 L2568,28 L2569,28 L2570,-35 L2571,-23 L2572,40 L2573,20 L2574,-34 L2575,-4 L2576,39 L2577,-5 L2578,-42 L2579,12 L2580,40 L2581,-14 L2582,-27 L2583,26 L2584,20 L2585,-29 L2586,-17 L2587,32 L2588,11 L2589,-28 L2590,-2 L2591,30 L2592,-5 L2593,-28 L2594,13 L2595,30 L2596,-16 L2597,-18 L2598,21 L2599,11 L2600,-22 L2601,-4 L2602,26 L2603,7 L2604,-26 L2605,2 L2606,24 L2607,-4 L2608,-18 L2609,14 L2610,19 L2611,-13 L2612,-10 L2613,18 L2614,5 L2615,-13 L2616,3 L2617,17 L2618,1 L2619,-13 L2620,8 L2621,14 L2622,-5 L2623,-7 L2624,12 L2625,9 L2626,-11 L2627,-3 L2628,14 L2629,2 L2630,-8 L2631,4 L2632,10 L2633,-3 L2634,-7 L2635,6 L2636,8 L2637,-3 L2638,-3 L2639,8 L2640,3 L2641,-6 L2642,1 L2643,8 L2644,-1 L2645,-4 L2646,6 L2647,4 L2648,-2 L2649,-2 
L2650,5 L2651,4 L2652,-4 L2653,0 L2654,7 L2655,2 L2656,-5 L2657,2 L2658,4 L2659,0 L2660,0 L2661,6 L2662,3 L2663,0 L2664,1 L2665,4 L2666,2 L2667,-1 L2668,2 L2669,6 L2670,2 L2671,-1 L2672,5 L2673,4 L2674,0 L2675,0 L2676,4 L2677,1 L2678,0 L2679,3 L2680,5 L2681,4 L2682,-1 L2683,0 L2684,3 L2685,0 L2686,1 L2687,7 L2688,2 L2689,-2 L2690,0 L2691,1 L2692,0 L2693,0 L2694,2 L2695,3 L2696,2 L2697,0 L2698,0 L2699,1 L2700,0 L2701,0 L2702,4 L2703,4 L2704,0 L2705,3 L2706,1 L2707,0 L2708,0 L2709,1 L2710,3 L2711,4 L2712,3 L2713,2 L2714,3 L2715,0 L2716,-1 L2717,1 L2718,3 L2719,2 L2720,4 L2721,3 L2722,-5 L2723,8 L2724,1 L2725,3 L2726,1 L2727,1 L2728,1 L2729,3 L2730,1 L2731,3 L2732,4 L2733,0 L2734,-1 L2735,4 L2736,3 L2737,3 L2738,7 L2739,3 L2740,1 L2741,1 L2742,-1 L2743,3 L2744,4 L2745,4 L2746,4 L2747,4 L2748,0 L2749,-1 
L2750,3 L2751,1 L2752,3 L2753,6 L2754,5 L2755,1 L2756,4 L2757,-2 L2758,4 L2759,9 L2760,-2 L2761,3 L2762,6 L2763,1 L2764,2 L2765,4 L2766,0 L2767,-2 L2768,-3 L2769,11 L2770,2 L2771,-4 L2772,3 L2773,3 L2774,1 L2775,-4 L2776,0 L2777,6 L2778,-1 L2779,1 L2780,3 L2781,-2 L2782,-1 L2783,-2 L2784,3 L2785,2 L2786,0 L2787,2 L2788,3 L2789,1 L2790,0 L2791,1 L2792,5 L2793,-2 L2794,0 L2795,5 L2796,2 L2797,3 L2798,2 L2799,2 L2800,0 L2801,1 L2802,3 L2803,5 L2804,8 L2805,0 L2806,3 L2807,4 L2808,5 L2809,0 L2810,2 L2811,5 L2812,3 L2813,3 L2814,3 L2815,3 L2816,4 L2817,1 L2818,3 L2819,4 L2820,0 L2821,4 L2822,4 L2823,1 L2824,1 L2825,3 L2826,0 L2827,3 L2828,2 L2829,4 L2830,3 L2831,3 L2832,-1 L2833,3 L2834,2 L2835,1 L2836,2 L2837,4 L2838,1 L2839,0 L2840,2 L2841,0 L2842,0 L2843,3 L2844,2 L2845,4 L2846,3 L2847,0 L2848,3 L2849,1 
L2850,1 L2851,2 L2852,4 L2853,3 L2854,3 L2855,4 L2856,1 L2857,3 L2858,1 L2859,0 L2860,2 L2861,4 L2862,4 L2863,4 L2864,4 L2865,-1 L2866,-1 L2867,3 L2868,1 L2869,4 L2870,3 L2871,2 L2872,1 L2873,2 L2874,-1 L2875,2 L2876,2 L2877,2 L2878,4 L2879,3 L2880,1 L2881,1 L2882,2 L2883,1 L2884,2 L2885,4 L2886,3 L2887,4 L2888,3 L2889,2 L2890,2 L2891,1 L2892,0 L2893,4 L2894,4 L2895,3 L2896,3 L2897,4 L2898,1 L2899,3 L2900,2 L2901,3 L2902,4 L2903,3 L2904,1 L2905,3 L2906,1 L2907,2 L2908,2 L2909,3 L2910,3 L2911,4 L2912,4 L2913,2 L2914,4 L2915,1 L2916,0 L2917,3 L2918,4 L2919,3 L2920,4 L2921,4 L2922,1 L2923,3 L2924,0 L2925,-3 L2926,8 L2927,11 L2928,-1 L2929,0 L2930,3 L2931,2 L2932,4 L2933,0 L2934,3 L2935,4 L2936,3 L2937,4 L2938,1 L2939,4 L2940,3 L2941,4 L2942,3 L2943,3 L2944,4 L2945,3 L2946,1 L2947,3 L2948,4 L2949,4 
L2950,3 L2951,3 L2952,4 L2953,4 L2954,1 L2955,2 L2956,3 L2957,3 L2958,1 L2959,3 L2960,3 L2961,0 L2962,3 L2963,1 L2964,2 L2965,2 L2966,2 L2967,2 L2968,3 L2969,3 L2970,4 L2971,3 L2972,2 L2973,2 L2974,3 L2975,3 L2976,0 L2977,3 L2978,3 L2979,2 L2980,1 L2981,2 L2982,1 L2983,2 L2984,3 L2985,4 L2986,1 L2987,4 L2988,2 L2989,2 L2990,0 L2991,1 L2992,3 L2993,3 L2994,3 L2995,4 L2996,1 L2997,1 L2998,2 L2999,3 L3000,3 L3001,4 L3002,4 L3003,3 L3004,4 L3005,3 L3006,3 L3007,1 L3008,-1 L3009,8 L3010,4 L3011,-1 L3012,3 L3013,4 L3014,0 L3015,1 L3016,4 L3017,3 L3018,2 L3019,5 L3020,1 L3021,2 L3022,2 L3023,1 L3024,3 L3025,1 L3026,2 L3027,4 L3028,3 L3029,2 L3030,1 L3031,1 L3032,1 L3033,1 L3034,4 L3035,3 L3036,4 L3037,5 L3038,1 L3039,2 L3040,1 L3041,1 L3042,4 L3043,4 L3044,3 L3045,2 L3046,4 L3047,1 L3048,2 L3049,2 
L3050,2 L3051,4 L3052,5 L3053,3 L3054,1 L3055,3 L3056,0 L3057,1 L3058,3 L3059,4 L3060,5 L3061,4 L3062,3 L3063,3 L3064,3 L3065,1 L3066,1 L3067,3 L3068,2 L3069,4 L3070,4 L3071,1 L3072,1 L3073,1 L3074,2 L3075,3 L3076,4 L3077,4 L3078,3 L3079,3 L3080,1 L3081,2 L3082,2 L3083,2 L3084,3 L3085,4 L3086,3 L3087,3 L3088,1 L3089,1 L3090,3 L3091,3 L3092,4 L3093,4 L3094,4 L3095,4 L3096,2 L3097,1 L3098,1 L3099,3 L3100,4 L3101,2 L3102,3 L3103,3 L3104,3 L3105,3 L3106,1 L3107,2 L3108,3 L3109,4 L3110,2 L3111,4 L3112,3 L3113,2 L3114,1 L3115,2 L3116,2 L3117,3 L3118,3 L3119,3 L3120,4 L3121,1 L3122,2 L3123,3 L3124,3 L3125,3 L3126,-4 L3127,11 L3128,3 L3129,0 L3130,-3 L3131,4 L3132,4 L3133,3 L3134,1 L3135,5 L3136,2 L3137,3 L3138,1 L3139,2 L3140,1 L3141,1 L3142,4 L3143,3 L3144,3 L3145,4 L3146,0 L3147,0 L3148,1 L3149,1 
L3150,4 L3151,2 L3152,2 L3153,3 L3154,3 L3155,1 L3156,1 L3157,1 L3158,3 L3159,2 L3160,2 L3161,3 L3162,3 L3163,0 L3164,0 L3165,2 L3166,1 L3167,2 L3168,3 L3169,1 L3170,0 L3171,1 L3172,1 L3173,0 L3174,3 L3175,3 L3176,3 L3177,5 L3178,3 L3179,2 L3180,4 L3181,4 L3182,4 L3183,4 L3184,4 L3185,6 L3186,5 L3187,2 L3188,4 L3189,4 L3190,3 L3191,4 L3192,5 L3193,4 L3194,4 L3195,4 L3196,2 L3197,0 L3198,3 L3199,2 L3200,5 L3201,5 L3202,4 L3203,3 L3204,3 L3205,0 L3206,3 L3207,4 L3208,2 L3209,0 L3210,8 L3211,3 L3212,-1 L3213,1 L3214,1 L3215,1 L3216,1 L3217,3 L3218,3 L3219,3 L3220,2 L3221,1 L3222,1 L3223,0 L3224,3 L3225,3 L3226,2 L3227,4 L3228,4 L3229,0 L3230,-1 L3231,1 L3232,1 L3233,3 L3234,4 L3235,4 L3236,4 L3237,2 L3238,-1 L3239,2 L3240,4 L3241,1 L3242,0 L3243,5 L3244,7 L3245,3 L3246,0 L3247,0 L3248,4 L3249,2 
L3250,0 L3251,4 L3252,6 L3253,2 L3254,0 L3255,0 L3256,3 L3257,3 L3258,4 L3259,4 L3260,4 L3261,3 L3262,0 L3263,2 L3264,3 L3265,2 L3266,4 L3267,3 L3268,4 L3269,3 L3270,3 L3271,1 L3272,3 L3273,3 L3274,3 L3275,4 L3276,4 L3277,4 L3278,4 L3279,3 L3280,1 L3281,3 L3282,4 L3283,4 L3284,4 L3285,4 L3286,3 L3287,3 L3288,1 L3289,2 L3290,4 L3291,4 L3292,3 L3293,4 L3294,3 L3295,0 L3296,2 L3297,1 L3298,3 L3299,3 L3300,4 L3301,1 L3302,2 L3303,2 L3304,1 L3305,2 L3306,1 L3307,2 L3308,1 L3309,1 L3310,4 L3311,2 L3312,1 L3313,0 L3314,1 L3315,2 L3316,2 L3317,3 L3318,4 L3319,2 L3320,1 L3321,2 L3322,1 L3323,3 L3324,3 L3325,3 L3326,3 L3327,-1 L3328,4 L3329,3 L3330,4 L3331,-1 L3332,3 L3333,2 L3334,2 L3335,3 L3336,4 L3337,3 L3338,3 L3339,1 L3340,1 L3341,2 L3342,3 L3343,5 L3344,2 L3345,0 L3346,0 L3347,3 L3348,1 L3349,0 
L3350,5 L3351,5 L3352,1 L3353,1 L3354,0 L3355,3 L3356,4 L3357,0 L3358,3 L3359,5 L3360,3 L3361,0 L3362,2 L3363,2 L3364,0 L3365,3 L3366,3 L3367,5 L3368,-1 L3369,5 L3370,8 L3371,-1 L3372,-1 L3373,1 L3374,5 L3375,5 L3376,3 L3377,3 L3378,0 L3379,1 L3380,1 L3381,1 L3382,5 L3383,4 L3384,3 L3385,3 L3386,2 L3387,2 L3388,3 L3389,3 L3390,4 L3391,4 L3392,3 L3393,2 L3394,3 L3395,3 L3396,0 L3397,1 L3398,4 L3399,4 L3400,4 L3401,5 L3402,3 L3403,1 L3404,1 L3405,1 L3406,3 L3407,5 L3408,8 L3409,0 L3410,1 L3411,4 L3412,4 L3413,1 L3414,0 L3415,4 L3416,5 L3417,4 L3418,0 L3419,-2 L3420,5 L3421,14 L3422,5 L3423,-1 L3424,4 L3425,5 L3426,-7 L3427,1 L3428,14 L3429,4 L3430,-1 L3431,2 L3432,1 L3433,0 L3434,0 L3435,2 L3436,4 L3437,3 L3438,-1 L3439,-1 L3440,-1 L3441,0 L3442,2 L3443,3 L3444,1 L3445,4 L3446,2 L3447,-1 L3448,0 L3449,1 
L3450,2 L3451,1 L3452,3 L3453,1 L3454,4 L3455,3 L3456,-1 L3457,3 L3458,4 L3459,1 L3460,3 L3461,5 L3462,3 L3463,4 L3464,4 L3465,4 L3466,5 L3467,5 L3468,3 L3469,5 L3470,4 L3471,2 L3472,4 L3473,4 L3474,4 L3475,4 L3476,4 L3477,2 L3478,3 L3479,3 L3480,2 L3481,6 L3482,5 L3483,1 L3484,3 L3485,7 L3486,3 L3487,0 L3488,-1 L3489,3 L3490,4 L3491,0 L3492,2 L3493,5 L3494,4 L3495,-1 L3496,0 L3497,3 L3498,2 L3499,3 L3500,3 L3501,4 L3502,4 L3503,2 L3504,-1 L3505,4 L3506,3 L3507,4 L3508,6 L3509,5 L3510,1 L3511,1 L3512,0 L3513,1 L3514,3 L3515,4 L3516,2 L3517,3 L3518,2 L3519,-1 L3520,0 L3521,0 L3522,1 L3523,2 L3524,3 L3525,1 L3526,4 L3527,0 L3528,0 L3529,-6 L3530,11 L3531,4 L3532,-3 L3533,-1 L3534,6 L3535,1 L3536,-1 L3537,2 L3538,7 L3539,3 L3540,3 L3541,4 L3542,3 L3543,0 L3544,0 L3545,3 L3546,1 L3547,3 L3548,4 L3549,3 
L3550,3 L3551,2 L3552,2 L3553,4 L3554,2 L3555,8 L3556,7 L3557,-28 L3558,4 L3559,27 L3560,-6 L3561,-11 L3562,1 L3563,8 L3564,-3 L3565,-6 L3566,6 L3567,7 L3568,-2 L3569,1 L3570,-3 L3571,1 L3572,4 L3573,0 L3574,6 L3575,-1 L3576,5 L3577,7 L3578,-1 L3579,-1 L3580,5 L3581,7 L3582,1 L3583,2 L3584,5 L3585,5 L3586,5 L3587,-2 L3588,3 L3589,8 L3590,-1 L3591,2 L3592,11 L3593,-1 L3594,2 L3595,4 L3596,1 L3597,3 L3598,0 L3599,3 L3600,5 L3601,0 L3602,3 L3603,0 L3604,3 L3605,2 L3606,0 L3607,6 L3608,0 L3609,-1 L3610,8 L3611,-4 L3612,-2 L3613,7 L3614,4 L3615,1 L3616,2 L3617,3 L3618,2 L3619,3 L3620,2 L3621,3 L3622,5 L3623,0 L3624,3 L3625,5 L3626,0 L3627,3 L3628,3 L3629,0 L3630,5 L3631,4 L3632,3 L3633,4 L3634,3 L3635,2 L3636,3 L3637,2 L3638,4 L3639,3 L3640,5 L3641,4 L3642,3 L3643,4 L3644,1 L3645,1 L3646,4 L3647,3 L3648,3 L3649,3 
L3650,2 L3651,0 L3652,0 L3653,0 L3654,2 L3655,3 L3656,2 L3657,3 L3658,4 L3659,2 L3660,1 L3661,3 L3662,2 L3663,3 L3664,3 L3665,4 L3666,4 L3667,4 L3668,1 L3669,3 L3670,2 L3671,2 L3672,3 L3673,4 L3674,3 L3675,4 L3676,4 L3677,1 L3678,2 L3679,3 L3680,4 L3681,5 L3682,4 L3683,3 L3684,3 L3685,2 L3686,0 L3687,3 L3688,3 L3689,4 L3690,3 L3691,3 L3692,2 L3693,1 L3694,-1 L3695,1 L3696,3 L3697,4 L3698,4 L3699,4 L3700,2 L3701,2 L3702,1 L3703,1 L3704,1 L3705,3 L3706,3 L3707,3 L3708,3 L3709,1 L3710,0 L3711,1 L3712,1 L3713,3 L3714,3 L3715,4 L3716,2 L3717,4 L3718,2 L3719,1 L3720,2 L3721,1 L3722,2 L3723,3 L3724,5 L3725,3 L3726,2 L3727,0 L3728,2 L3729,2 L3730,-4 L3731,11 L3732,8 L3733,1 L3734,-2 L3735,4 L3736,1 L3737,-1 L3738,4 L3739,4 L3740,3 L3741,4 L3742,1 L3743,0 L3744,2 L3745,1 L3746,0 L3747,12 L3748,-3 L3749,-5 
L3750,3 L3751,3 L3752,0 L3753,0 L3754,-1 L3755,3 L3756,3 L3757,4 L3758,3 L3759,0 L3760,2 L3761,0 L3762,4 L3763,2 L3764,1 L3765,6 L3766,1 L3767,2 L3768,-1 L3769,0 L3770,6 L3771,3 L3772,2 L3773,1 L3774,3 L3775,4 L3776,1 L3777,2 L3778,4 L3779,0 L3780,1 L3781,2 L3782,2 L3783,3 L3784,0 L3785,2 L3786,3 L3787,0 L3788,1 L3789,6 L3790,0 L3791,1 L3792,2 L3793,2 L3794,1 L3795,2 L3796,2 L3797,4 L3798,4 L3799,4 L3800,4 L3801,-2 L3802,0 L3803,3 L3804,4 L3805,1 L3806,2 L3807,2 L3808,0 L3809,0 L3810,0 L3811,3 L3812,3 L3813,-1 L3814,-2 L3815,7 L3816,3 L3817,-3 L3818,1 L3819,3 L3820,-3 L3821,3 L3822,7 L3823,2 L3824,0 L3825,3 L3826,1 L3827,3 L3828,3 L3829,3 L3830,4 L3831,-1 L3832,4 L3833,5 L3834,3 L3835,2 L3836,3 L3837,5 L3838,4 L3839,2 L3840,3 L3841,6 L3842,3 L3843,3 L3844,4 L3845,5 L3846,4 L3847,1 L3848,4 L3849,4 
L3850,3 L3851,1 L3852,1 L3853,-1 L3854,4 L3855,6 L3856,3 L3857,3 L3858,2 L3859,-1 L3860,1 L3861,1 L3862,6 L3863,3 L3864,1 L3865,2 L3866,2 L3867,2 L3868,-1 L3869,1 L3870,3 L3871,2 L3872,2 L3873,3 L3874,2 L3875,0 L3876,1 L3877,1 L3878,3 L3879,3 L3880,3 L3881,4 L3882,3 L3883,-2 L3884,4 L3885,2 L3886,-1 L3887,2 L3888,5 L3889,3 L3890,3 L3891,1 L3892,-1 L3893,0 L3894,-1 L3895,5 L3896,2 L3897,1 L3898,0 L3899,3 L3900,2 L3901,0 L3902,2 L3903,3 L3904,0 L3905,4 L3906,3 L3907,0 L3908,4 L3909,0 L3910,-1 L3911,3 L3912,2 L3913,1 L3914,8 L3915,-3 L3916,-10 L3917,13 L3918,1 L3919,-8 L3920,3 L3921,7 L3922,2 L3923,2 L3924,1 L3925,2 L3926,-1 L3927,4 L3928,1 L3929,5 L3930,4 L3931,-8 L3932,11 L3933,3 L3934,-3 L3935,3 L3936,3 L3937,2 L3938,3 L3939,2 L3940,4 L3941,3 L3942,2 L3943,0 L3944,1 L3945,2 L3946,1 L3947,5 L3948,3 L3949,-1 
L3950,3 L3951,-2 L3952,0 L3953,2 L3954,2 L3955,3 L3956,1 L3957,3 L3958,0 L3959,-2 L3960,2 L3961,3 L3962,0 L3963,-1 L3964,5 L3965,8 L3966,-4 L3967,-4 L3968,7 L3969,3 L3970,-4 L3971,1 L3972,8 L3973,4 L3974,-3 L3975,-1 L3976,4 L3977,1 L3978,-3 L3979,5 L3980,7 L3981,0 L3982,-1 L3983,3 L3984,0 L3985,-1 L3986,1 L3987,5 L3988,4 L3989,2 L3990,0 L3991,3 L3992,2 L3993,-2 L3994,1 L3995,4 L3996,3 L3997,0 L3998,3 L3999,4 L4000,-1 L4001,-1 L4002,4 L4003,3 L4004,2 L4005,4 L4006,11 L4007,4 L4008,-10 L4009,-1 L4010,12 L4011,13 L4012,-15 L4013,2 L4014,20 L4015,22 L4016,-22 L4017,-40 L4018,20 L4019,63 L4020,-48 L4021,-51 L4022,54 L4023,78 L4024,-61 L4025,-48 L4026,23 L4027,24 L4028,-38 L4029,3 L4030,40 L4031,16 L4032,-6 L4033,-13 L4034,-9 L4035,-6 L4036,0 L4037,14 L4038,27 L4039,1 L4040,-8 L4041,0 L4042,6 L4043,-17 L4044,-11 L4045,22 L4046,18 L4047,-3 L4048,-1 L4049,5 
L4050,-4 L4051,-13 L4052,-3 L4053,16 L4054,6 L4055,2 L4056,8 L4057,5 L4058,-7 L4059,0 L4060,15 L4061,-5 L4062,-8 L4063,22 L4064,20 L4065,-23 L4066,-16 L4067,40 L4068,22 L4069,-46 L4070,-20 L4071,51 L4072,20 L4073,-49 L4074,-16 L4075,55 L4076,4 L4077,-60 L4078,1 L4079,56 L4080,-7 L4081,-45 L4082,13 L4083,42 L4084,-27 L4085,-40 L4086,33 L4087,33 L4088,-30 L4089,-23 L4090,36 L4091,15 L4092,-38 L4093,-9 L4094,38 L4095,6 L4096,-33 L4097,4 L4098,33 L4099,-9 L4100,-28 L4101,14 L4102,24 L4103,-12 L4104,-17 L4105,25 L4106,12 L4107,-22 L4108,-2 L4109,23 L4110,2 L4111,-14 L4112,7 L4113,18 L4114,-7 L4115,-13 L4116,16 L4117,11 L4118,-10 L4119,-4 L4120,16 L4121,7 L4122,-12 L4123,0 L4124,13 L4125,0 L4126,-9 L4127,5 L4128,10 L4129,-3 L4130,-4 L4131,8 L4132,3 L4133,-4 L4134,-2 L4135,11 L4136,-1 L4137,-7 L4138,7 L4139,6 L4140,-1 L4141,0 L4142,2 L4143,4 L4144,1 L4145,3 L4146,6 L4147,-1 L4148,0 L4149,6 
L4150,2 L4151,0 L4152,1 L4153,4 L4154,0 L4155,-3 L4156,2 L4157,4 L4158,2 L4159,-1 L4160,1 L4161,4 L4162,0 L4163,0 L4164,2 L4165,3 L4166,-1 L4167,0 L4168,7 L4169,0 L4170,-1 L4171,5 L4172,1 L4173,0 L4174,0 L4175,1 L4176,1 L4177,0 L4178,4 L4179,6 L4180,-2 L4181,0 L4182,2 L4183,4 L4184,-1 L4185,-1 L4186,5 L4187,3 L4188,1 L4189,1 L4190,3 L4191,2 L4192,-3 L4193,0 L4194,6 L4195,5 L4196,2 L4197,2 L4198,3 L4199,-2 L4200,0 L4201,8 L4202,3 L4203,3 L4204,7 L4205,2 L4206,1 L4207,2 L4208,2 L4209,4 L4210,-1 L4211,5 L4212,6 L4213,2 L4214,-1 L4215,5 L4216,1 L4217,0 L4218,2 L4219,8 L4220,1 L4221,1 L4222,4 L4223,1 L4224,0 L4225,-1 L4226,2 L4227,4 L4228,2 L4229,4 L4230,4 L4231,0 L4232,1 L4233,1 L4234,2 L4235,3 L4236,3 L4237,3 L4238,3 L4239,1 L4240,2 L4241,4 L4242,2 L4243,0 L4244,3 L4245,4 L4246,1 L4247,3 L4248,2 L4249,1 
L4250,0 L4251,1 L4252,4 L4253,3 L4254,3 L4255,3 L4256,2 L4257,2 L4258,1 L4259,1 L4260,4 L4261,3 L4262,3 L4263,2 L4264,2 L4265,1 L4266,0 L4267,2 L4268,3 L4269,4 L4270,3 L4271,4 L4272,2 L4273,1 L4274,1 L4275,1 L4276,0 L4277,4 L4278,4 L4279,3 L4280,0 L4281,4 L4282,4 L4283,1 L4284,-2 L4285,3 L4286,6 L4287,2 L4288,-3 L4289,3 L4290,5 L4291,0 L4292,-2 L4293,3 L4294,7 L4295,2 L4296,1 L4297,5 L4298,7 L4299,0 L4300,-2 L4301,2 L4302,4 L4303,0 L4304,1 L4305,5 L4306,4 L4307,0 L4308,0 L4309,5 L4310,4 L4311,3 L4312,3 L4313,5 L4314,2 L4315,-1 L4316,2 L4317,4 L4318,4 L4319,3 L4320,1 L4321,5 L4322,3 L4323,0 L4324,1 L4325,4 L4326,3 L4327,1 L4328,1 L4329,5 L4330,3 L4331,0 L4332,1 L4333,4 L4334,-4 L4335,8 L4336,9 L4337,-2 L4338,-1 L4339,3 L4340,3 L4341,3 L4342,0 L4343,3 L4344,6 L4345,3 L4346,1 L4347,-1 L4348,4 L4349,3 
L4350,3 L4351,3 L4352,5 L4353,-1 L4354,4 L4355,6 L4356,1 L4357,3 L4358,4 L4359,1 L4360,4 L4361,4 L4362,6 L4363,2 L4364,-4 L4365,3 L4366,4 L4367,0 L4368,0 L4369,5 L4370,4 L4371,1 L4372,1 L4373,2 L4374,4 L4375,3 L4376,1 L4377,4 L4378,4 L4379,4 L4380,0 L4381,1 L4382,3 L4383,-1 L4384,6 L4385,6 L4386,0 L4387,3 L4388,4 L4389,0 L4390,2 L4391,0 L4392,3 L4393,3 L4394,1 L4395,8 L4396,4 L4397,-1 L4398,0 L4399,4 L4400,7 L4401,3 L4402,3 L4403,4 L4404,1 L4405,4 L4406,3 L4407,0 L4408,5 L4409,4 L4410,4 L4411,3 L4412,2 L4413,1 L4414,4 L4415,3 L4416,-5 L4417,11 L4418,7 L4419,-6 L4420,8 L4421,5 L4422,-1 L4423,1 L4424,0 L4425,15 L4426,-11 L4427,3 L4428,16 L4429,0 L4430,1 L4431,-4 L4432,5 L4433,8 L4434,-2 L4435,6 L4436,3 L4437,0 L4438,6 L4439,-1 L4440,4 L4441,0 L4442,3 L4443,4 L4444,0 L4445,4 L4446,3 L4447,2 L4448,3 L4449,1 
L4450,5 L4451,3 L4452,3 L4453,6 L4454,1 L4455,0 L4456,2 L4457,2 L4458,3 L4459,3 L4460,4 L4461,4 L4462,1 L4463,1 L4464,0 L4465,2 L4466,2 L4467,1 L4468,5 L4469,2 L4470,0 L4471,2 L4472,1 L4473,1 L4474,2 L4475,1 L4476,3 L4477,5 L4478,3 L4479,4 L4480,3 L4481,4 L4482,1 L4483,4 L4484,3 L4485,5 L4486,6 L4487,5 L4488,2 L4489,3 L4490,4 L4491,3 L4492,4 L4493,4 L4494,5 L4495,5 L4496,4 L4497,2 L4498,3 L4499,3 L4500,3 L4501,5 L4502,5 L4503,5 L4504,5 L4505,3 L4506,2 L4507,4 L4508,1 L4509,4 L4510,4 L4511,3 L4512,4 L4513,1 L4514,0 L4515,0 L4516,2 L4517,3 L4518,2 L4519,4 L4520,2 L4521,1 L4522,3 L4523,1 L4524,1 L4525,3 L4526,2 L4527,3 L4528,4 L4529,4 L4530,1 L4531,2 L4532,1 L4533,0 L4534,4 L4535,-5 L4536,10 L4537,10 L4538,-2 L4539,-4 L4540,6 L4541,3 L4542,3 L4543,3 L4544,4 L4545,3 L4546,4 L4547,1 L4548,1 L4549,4 
L4550,1 L4551,4 L4552,3 L4553,2 L4554,3 L4555,1 L4556,0 L4557,2 L4558,4 L4559,3 L4560,2 L4561,5 L4562,3 L4563,2 L4564,3 L4565,1 L4566,3 L4567,4 L4568,0 L4569,4 L4570,5 L4571,0 L4572,3 L4573,4 L4574,4 L4575,2 L4576,3 L4577,4 L4578,3 L4579,4 L4580,3 L4581,4 L4582,3 L4583,2 L4584,3 L4585,4 L4586,3 L4587,2 L4588,4 L4589,3 L4590,3 L4591,3 L4592,3 L4593,2 L4594,2 L4595,2 L4596,2 L4597,3 L4598,0 L4599,3 L4600,4 L4601,3 L4602,2 L4603,3 L4604,1 L4605,3 L4606,2 L4607,3 L4608,2 L4609,1 L4610,2 L4611,3 L4612,3 L4613,2 L4614,1 L4615,1 L4616,3 L4617,4 L4618,7 L4619,0 L4620,0 L4621,3 L4622,3 L4623,1 L4624,1 L4625,3 L4626,4 L4627,3 L4628,2 L4629,2 L4630,4 L4631,3 L4632,4 L4633,4 L4634,0 L4635,3 L4636,2 L4637,1 L4638,3 L4639,3 L4640,4 L4641,3 L4642,3 L4643,3 L4644,4 L4645,3 L4646,1 L4647,1 L4648,3 L4649,3 
L4650,3 L4651,4 L4652,4 L4653,3 L4654,2 L4655,2 L4656,2 L4657,3 L4658,3 L4659,4 L4660,4 L4661,1 L4662,2 L4663,1 L4664,1 L4665,3 L4666,5 L4667,3 L4668,4 L4669,4 L4670,3 L4671,3 L4672,1 L4673,0 L4674,3 L4675,4 L4676,3 L4677,4 L4678,3 L4679,0 L4680,1 L4681,2 L4682,3 L4683,4 L4684,4 L4685,2 L4686,3 L4687,2 L4688,0 L4689,3 L4690,4 L4691,3 L4692,4 L4693,3 L4694,2 L4695,4 L4696,1 L4697,1 L4698,2 L4699,4 L4700,1 L4701,3 L4702,4 L4703,1 L4704,3 L4705,0 L4706,0 L4707,4 L4708,3 L4709,4 L4710,5 L4711,4 L4712,2 L4713,2 L4714,2 L4715,4 L4716,5 L4717,4 L4718,4 L4719,4 L4720,3 L4721,2 L4722,3 L4723,4 L4724,3 L4725,4 L4726,3 L4727,4 L4728,3 L4729,1 L4730,0 L4731,2 L4732,2 L4733,3 L4734,4 L4735,2 L4736,-5 L4737,9 L4738,1 L4739,-1 L4740,0 L4741,4 L4742,3 L4743,1 L4744,1 L4745,1 L4746,2 L4747,2 L4748,1 L4749,2 
L4750,2 L4751,2 L4752,4 L4753,0 L4754,1 L4755,3 L4756,1 L4757,2 L4758,3 L4759,3 L4760,4 L4761,4 L4762,3 L4763,2 L4764,3 L4765,2 L4766,2 L4767,5 L4768,3 L4769,3 L4770,2 L4771,3 L4772,1 L4773,2 L4774,3 L4775,4 L4776,4 L4777,1 L4778,2 L4779,4 L4780,2 L4781,4 L4782,5 L4783,3 L4784,1 L4785,2 L4786,2 L4787,3 L4788,3 L4789,2 L4790,3 L4791,4 L4792,2 L4793,3 L4794,4 L4795,-1 L4796,0 L4797,4 L4798,3 L4799,3 L4800,4 L4801,1 L4802,3 L4803,2 L4804,-2 L4805,1 L4806,8 L4807,3 L4808,1 L4809,4 L4810,1 L4811,2 L4812,1 L4813,1 L4814,2 L4815,3 L4816,9 L4817,-1 L4818,-1 L4819,4 L4820,5 L4821,-1 L4822,-2 L4823,7 L4824,5 L4825,1 L4826,3 L4827,3 L4828,1 L4829,1 L4830,0 L4831,3 L4832,1 L4833,3 L4834,3 L4835,2 L4836,2 L4837,1 L4838,2 L4839,4 L4840,3 L4841,5 L4842,3 L4843,0 L4844,3 L4845,3 L4846,1 L4847,1 L4848,5 L4849,3 
L4850,5 L4851,3 L4852,2 L4853,3 L4854,2 L4855,0 L4856,3 L4857,6 L4858,4 L4859,4 L4860,4 L4861,3 L4862,3 L4863,4 L4864,3 L4865,5 L4866,4 L4867,4 L4868,3 L4869,2 L4870,3 L4871,3 L4872,3 L4873,3 L4874,4 L4875,5 L4876,4 L4877,3 L4878,3 L4879,1 L4880,2 L4881,4 L4882,3 L4883,3 L4884,4 L4885,4 L4886,3 L4887,3 L4888,0 L4889,3 L4890,5 L4891,4 L4892,3 L4893,4 L4894,1 L4895,1 L4896,1 L4897,1 L4898,4 L4899,4 L4900,3 L4901,3 L4902,4 L4903,1 L4904,1 L4905,3 L4906,4 L4907,3 L4908,4 L4909,5 L4910,3 L4911,2 L4912,1 L4913,3 L4914,3 L4915,3 L4916,3 L4917,4 L4918,3 L4919,2 L4920,2 L4921,2 L4922,3 L4923,3 L4924,4 L4925,4 L4926,3 L4927,2 L4928,3 L4929,2 L4930,2 L4931,3 L4932,3 L4933,2 L4934,3 L4935,3 L4936,3 L4937,4 L4938,-4 L4939,8 L4940,6 L4941,3 L4942,-2 L4943,4 L4944,2 L4945,1 L4946,2 L4947,4 L4948,4 L4949,4 
L4950,0 L4951,3 L4952,2 L4953,1 L4954,3 L4955,3 L4956,2 L4957,3 L4958,3 L4959,3 L4960,1 L4961,-1 L4962,2 L4963,13 L4964,12 L4965,3 L4966,3 L4967,9 L4968,-4 L4969,-4 L4970,13 L4971,10 L4972,0 L4973,3 L4974,5 L4975,2 L4976,0 L4977,2 L4978,6 L4979,5 L4980,3 L4981,1 L4982,1 L4983,-1 L4984,1 L4985,3 L4986,2 L4987,2 L4988,3 L4989,0 L4990,2 L4991,0 L4992,1 L4993,1 L4994,0 L4995,0 L4996,3 L4997,5 L4998,1 L4999,0 "/>
<!--  <text font-family="Arial" x="638" y="458" fill="red" font-size="20" text-anchor="end">CH1: 100mV/div 50ms/div</text>
  <text font-family="Arial" x="2" y="458" fill="red" font-size="20" text-anchor="start" id="CH1"> </text>-->
  <text font-family="Arial" x="638" y="478" fill="red" font-size="20" text-anchor="end">CHC: 50mV/div 0.005ms/div</text>
  <text font-family="Arial" x="2" y="478" fill="red" font-size="20" text-anchor="start" id="CHC"> </text>
<script type="text/ecmascript"><![CDATA[
function init(evt) { if ( window.svgDocument == null ) svgDocument = evt.target.ownerDocument; }
function fmtT(val, div) {
  if (div > 100) return Math.floor((val-320)*div/64) + " ms";
  if (div > 0.025) return Math.floor((val-320)*div*1000/64)/1000 + " ms";
  return Math.floor((val-320)*div*1000*1000/64)/1000 + " us";
}
function fmtU(val, div, shift) { shift *= -60/25; return Math.floor((240-val+shift)*div/60) + " mV"; }
function msMove (evt)
{
	var x = evt.clientX;
	var y = evt.clientY;
	if (x < 0 || y < 0 || x >= 640 || y >= 480)
		return;
	svgDocument.getElementById("CH1").firstChild.data = fmtU(y, 100, 0) + " " + fmtT(x, 50);
	svgDocument.getElementById("CHC").firstChild.data = fmtU(y, 50, 0) + " " + fmtT(x, 0.005);
}
]]></script>
</g></svg>
