<?xml version="1.0" encoding="iso-8859-1"?>
<!DOCTYPE svg PUBLIC "-//W3C//DTD SVG 1.0//EN" "http://www.w3.org/TR/2001/REC-SVG-20010904/DTD/svg10.dtd">
<svg width="640" height="480" xmlns="http://www.w3.org/2000/svg" xmlns:xlink="http://www.w3.org/1999/xlink" onload="init(evt)" onmousemove="msMove(evt)">
<g transform="translate(0,0) scale(1,1)" stroke-width="1">
  <path stroke="white" fill="black" stroke-width="2" d="M0,0 H640 V480 H0 V0"/>
  <g transform="translate(320,240) scale(64,60)">
    <path stroke="white" stroke-width="0.01" d="M-5,-3 H5"/>
    <path stroke="white" stroke-width="0.01" d="M-5,-2 H5"/>
    <path stroke="white" stroke-width="0.01" d="M-5,-1 H5"/>
    <path stroke="white" stroke-width="0.02" d="M-5,0 H5"/>
    <path stroke="white" stroke-width="0.01" d="M-5,1 H5"/>
    <path stroke="white" stroke-width="0.01" d="M-5,2 H5"/>
    <path stroke="white" stroke-width="0.01" d="M-5,3 H5"/>
    <path stroke="white" stroke-width="0.01" d="M-4,-4 V4"/>
    <path stroke="white" stroke-width="0.01" d="M-3,-4 V4"/>
    <path stroke="white" stroke-width="0.01" d="M-2,-4 V4"/>
    <path stroke="white" stroke-width="0.01" d="M-1,-4 V4"/>
    <path stroke="white" stroke-width="0.02" d="M0,-4 V4"/>
    <path stroke="white" stroke-width="0.01" d="M1,-4 V4"/>
    <path stroke="white" stroke-width="0.01" d="M2,-4 V4"/>
    <path stroke="white" stroke-width="0.01" d="M3,-4 V4"/>
    <path stroke="white" stroke-width="0.01" d="M4,-4 V4"/>
  </g>
  <text font-family="Arial" font-weight="bold" x="2" y="22" fill="white" font-size="20" text-anchor="start">Owon PDS5022S  : auna_psu</text>
<path stroke="blue" transform="translate(0,240) scale(0.128,-2.4)" fill="none" stroke-width="3" d="M0,-3 L1,-5 L2,-4 L3,-5 L4,-1 L5,-4 L6,-3 L7,-2 L8,-3 L9,-4 L10,-2 L11,-3 L12,-2 L13,-3 L14,-4 L15,-3 L16,-3 L17,-2 L18,-2 L19,-3 L20,-3 L21,-2 L22,-4 L23,-4 L24,0 L25,-4 L26,-6 L27,-6 L28,-3 L29,-4 L30,-2 L31,-5 L32,-2 L33,-3 L34,-4 L35,-2 L36,-4 L37,-2 L38,-2 L39,-3 L40,-3 L41,-5 L42,-5 L43,-5 L44,-2 L45,-2 L46,-4 L47,-2 L48,-3 L49,-5 
L50,-3 L51,-4 L52,-1 L53,1 L54,-4 L55,-3 L56,-4 L57,-3 L58,-1 L59,-1 L60,3 L61,-8 L62,-2 L63,-5 L64,-2 L65,-2 L66,-25 L67,6 L68,0 L69,4 L70,20 L71,3 L72,0 L73,5 L74,-4 L75,2 L76,5 L77,3 L78,5 L79,6 L80,1 L81,0 L82,2 L83,1 L84,5 L85,2 L86,3 L87,1 L88,1 L89,-1 L90,1 L91,0 L92,2 L93,3 L94,-1 L95,-1 L96,-1 L97,0 L98,0 L99,0 L100,-2 L101,-2 L102,-2 L103,-2 L104,0 L105,0 L106,-1 L107,1 L108,0 L109,-1 L110,0 L111,0 L112,-1 L113,0 L114,-3 L115,-1 L116,-1 L117,-2 L118,0 L119,0 L120,-2 L121,-4 L122,-4 L123,-1 L124,0 L125,0 L126,-1 L127,-4 L128,-3 L129,-1 L130,0 L131,-3 L132,-3 L133,-2 L134,-6 L135,0 L136,-1 L137,-5 L138,-3 L139,1 L140,-5 L141,0 L142,-5 L143,-1 L144,-6 L145,-1 L146,-1 L147,-2 L148,-2 L149,-4 
L150,-1 L151,0 L152,0 L153,-1 L154,-4 L155,-5 L156,-2 L157,-4 L158,-2 L159,2 L160,-1 L161,-6 L162,-5 L163,-2 L164,3 L165,-2 L166,-3 L167,-3 L168,-3 L169,-2 L170,-3 L171,-2 L172,-4 L173,-2 L174,-2 L175,-2 L176,-2 L177,-4 L178,-2 L179,-2 L180,-2 L181,-2 L182,-1 L183,-1 L184,-2 L185,-1 L186,-1 L187,-3 L188,-2 L189,-2 L190,-4 L191,-4 L192,4 L193,-9 L194,-3 L195,-2 L196,-2 L197,-3 L198,-2 L199,-3 L200,-1 L201,-2 L202,-3 L203,-4 L204,-3 L205,-4 L206,-1 L207,-2 L208,0 L209,-5 L210,-4 L211,-4 L212,28 L213,-13 L214,0 L215,-6 L216,-5 L217,-5 L218,29 L219,-4 L220,-1 L221,-8 L222,-11 L223,1 L224,2 L225,0 L226,2 L227,1 L228,-1 L229,-1 L230,-1 L231,-3 L232,1 L233,0 L234,0 L235,5 L236,-1 L237,-1 L238,0 L239,0 L240,0 L241,-2 L242,-1 L243,-2 L244,-2 L245,-2 L246,-2 L247,0 L248,-2 L249,-2 
L250,-1 L251,-3 L252,0 L253,-1 L254,-2 L255,-2 L256,-4 L257,-2 L258,-3 L259,-2 L260,-2 L261,-1 L262,-2 L263,-4 L264,-2 L265,-3 L266,-2 L267,-1 L268,-3 L269,-6 L270,0 L271,-3 L272,-2 L273,-1 L274,-2 L275,-1 L276,-4 L277,-3 L278,-2 L279,-2 L280,-1 L281,-1 L282,-3 L283,-4 L284,-4 L285,-3 L286,-1 L287,-2 L288,-3 L289,-5 L290,1 L291,5 L292,15 L293,-12 L294,-2 L295,-3 L296,-4 L297,-2 L298,-3 L299,-2 L300,-3 L301,-4 L302,-3 L303,-4 L304,-1 L305,-3 L306,-1 L307,-2 L308,-3 L309,-7 L310,0 L311,-3 L312,-1 L313,-1 L314,-3 L315,-2 L316,-7 L317,-2 L318,-2 L319,-2 L320,-3 L321,-2 L322,-4 L323,-5 L324,-1 L325,-2 L326,-1 L327,-2 L328,-3 L329,-4 L330,-3 L331,-3 L332,-1 L333,0 L334,-3 L335,-4 L336,0 L337,-1 L338,-4 L339,-3 L340,-3 L341,-3 L342,-4 L343,-4 L344,-3 L345,-2 L346,-4 L347,-2 L348,-4 L349,-4 
L350,-2 L351,-3 L352,-1 L353,-2 L354,-3 L355,-3 L356,-4 L357,-4 L358,-2 L359,-3 L360,0 L361,-6 L362,-5 L363,-4 L364,-11 L365,-3 L366,-2 L367,-4 L368,-4 L369,4 L370,44 L371,-3 L372,-11 L373,4 L374,-3 L375,1 L376,13 L377,1 L378,2 L379,5 L380,0 L381,1 L382,4 L383,2 L384,4 L385,4 L386,2 L387,2 L388,1 L389,1 L390,9 L391,6 L392,0 L393,-1 L394,-3 L395,1 L396,1 L397,0 L398,0 L399,-1 L400,-1 L401,0 L402,-1 L403,-2 L404,-1 L405,-1 L406,0 L407,-3 L408,-1 L409,0 L410,1 L411,-7 L412,-5 L413,4 L414,4 L415,0 L416,-4 L417,-3 L418,-1 L419,0 L420,-1 L421,-1 L422,0 L423,-5 L424,-1 L425,-3 L426,-3 L427,3 L428,-1 L429,-4 L430,-5 L431,-3 L432,0 L433,-3 L434,1 L435,-4 L436,-2 L437,-1 L438,-1 L439,-1 L440,-1 L441,0 L442,0 L443,-3 L444,-1 L445,-3 L446,-1 L447,-2 L448,-2 L449,-2 
L450,-1 L451,-2 L452,-2 L453,-3 L454,-2 L455,-1 L456,-1 L457,-5 L458,0 L459,7 L460,-2 L461,-3 L462,0 L463,-1 L464,-4 L465,-4 L466,-3 L467,-3 L468,-1 L469,-2 L470,-2 L471,-2 L472,-1 L473,-2 L474,-2 L475,-1 L476,-2 L477,-4 L478,0 L479,-2 L480,-3 L481,-2 L482,-1 L483,-1 L484,-4 L485,-2 L486,-1 L487,-1 L488,-2 L489,-1 L490,-3 L491,-1 L492,-3 L493,-4 L494,-1 L495,-2 L496,-2 L497,-5 L498,1 L499,-3 L500,-3 L501,-3 L502,-2 L503,-1 L504,-3 L505,-3 L506,-4 L507,-1 L508,-2 L509,-1 L510,-3 L511,-3 L512,-3 L513,-4 L514,0 L515,-4 L516,-9 L517,-13 L518,2 L519,0 L520,-4 L521,18 L522,-8 L523,19 L524,18 L525,-4 L526,1 L527,-5 L528,-4 L529,-1 L530,0 L531,-2 L532,1 L533,-2 L534,1 L535,0 L536,1 L537,-1 L538,-1 L539,0 L540,0 L541,-2 L542,0 L543,-1 L544,-4 L545,-1 L546,-2 L547,0 L548,-1 L549,-1 
L550,-1 L551,-4 L552,-3 L553,-4 L554,-1 L555,0 L556,-2 L557,-2 L558,3 L559,-1 L560,-1 L561,-1 L562,-1 L563,0 L564,-2 L565,-2 L566,-3 L567,-4 L568,-1 L569,-1 L570,-2 L571,-3 L572,-3 L573,-3 L574,-3 L575,-3 L576,4 L577,-11 L578,-3 L579,-6 L580,-3 L581,-2 L582,-2 L583,0 L584,-1 L585,-2 L586,-4 L587,-4 L588,-2 L589,-2 L590,0 L591,-3 L592,-4 L593,-4 L594,-3 L595,-3 L596,-2 L597,-5 L598,-3 L599,-3 L600,-3 L601,-4 L602,-2 L603,-2 L604,-2 L605,-2 L606,-4 L607,-4 L608,-1 L609,-2 L610,-3 L611,-1 L612,-4 L613,-4 L614,-4 L615,-2 L616,-5 L617,-2 L618,-1 L619,-4 L620,-3 L621,-4 L622,-2 L623,-2 L624,-2 L625,-2 L626,-4 L627,-4 L628,-4 L629,-2 L630,-2 L631,-3 L632,-3 L633,-3 L634,-3 L635,-3 L636,-4 L637,-4 L638,-2 L639,-3 L640,-4 L641,-2 L642,-2 L643,-2 L644,-1 L645,-3 L646,-4 L647,-4 L648,0 L649,-2 
L650,-3 L651,-1 L652,-4 L653,-4 L654,-6 L655,-2 L656,-6 L657,-4 L658,-1 L659,-7 L660,-8 L661,-1 L662,0 L663,-7 L664,-1 L665,-3 L666,-1 L667,-5 L668,-9 L669,-2 L670,-4 L671,-4 L672,-3 L673,47 L674,4 L675,5 L676,26 L677,0 L678,-7 L679,13 L680,-3 L681,-1 L682,6 L683,0 L684,4 L685,4 L686,3 L687,2 L688,4 L689,0 L690,1 L691,4 L692,1 L693,3 L694,1 L695,1 L696,3 L697,0 L698,0 L699,2 L700,2 L701,-4 L702,1 L703,-1 L704,0 L705,-1 L706,-1 L707,-1 L708,0 L709,-2 L710,-3 L711,-1 L712,0 L713,-2 L714,0 L715,-1 L716,1 L717,-1 L718,0 L719,-1 L720,-2 L721,0 L722,-3 L723,1 L724,-2 L725,-3 L726,0 L727,0 L728,-2 L729,-2 L730,-3 L731,-2 L732,0 L733,1 L734,-2 L735,-3 L736,-2 L737,-2 L738,0 L739,0 L740,-2 L741,-10 L742,-3 L743,-3 L744,-3 L745,-1 L746,-2 L747,-1 L748,-3 L749,-2 
L750,-3 L751,-2 L752,-1 L753,-2 L754,-3 L755,-2 L756,-1 L757,-1 L758,-1 L759,0 L760,-2 L761,-3 L762,-1 L763,-4 L764,-1 L765,0 L766,-1 L767,-2 L768,-4 L769,-4 L770,-4 L771,-2 L772,-3 L773,-2 L774,-3 L775,-3 L776,-2 L777,-3 L778,-2 L779,-2 L780,-3 L781,-2 L782,-2 L783,-4 L784,-2 L785,-1 L786,-1 L787,-2 L788,-4 L789,-3 L790,-1 L791,-3 L792,-4 L793,-2 L794,-3 L795,-4 L796,-2 L797,-2 L798,-4 L799,-3 L800,-3 L801,-2 L802,-2 L803,-3 L804,-3 L805,-2 L806,-3 L807,-3 L808,-3 L809,-3 L810,-4 L811,-1 L812,-2 L813,-2 L814,-4 L815,-4 L816,-3 L817,-2 L818,-3 L819,-3 L820,-23 L821,-2 L822,-4 L823,-5 L824,-1 L825,-20 L826,-15 L827,-15 L828,-17 L829,3 L830,7 L831,3 L832,2 L833,0 L834,-3 L835,-3 L836,-2 L837,0 L838,1 L839,0 L840,-1 L841,-1 L842,-3 L843,1 L844,0 L845,-1 L846,-2 L847,-3 L848,-3 L849,-2 
L850,-1 L851,-1 L852,-3 L853,-2 L854,-4 L855,-3 L856,-1 L857,-2 L858,-1 L859,-3 L860,-3 L861,-3 L862,-2 L863,-2 L864,-4 L865,-1 L866,-3 L867,-2 L868,-3 L869,-3 L870,-2 L871,-3 L872,-3 L873,-2 L874,-3 L875,-4 L876,-1 L877,-2 L878,-2 L879,-1 L880,-5 L881,-4 L882,-2 L883,-1 L884,-2 L885,-2 L886,-5 L887,-4 L888,-4 L889,-2 L890,-1 L891,-8 L892,-2 L893,-4 L894,-2 L895,-4 L896,-2 L897,-3 L898,-2 L899,-3 L900,-3 L901,-3 L902,-1 L903,-1 L904,-1 L905,-1 L906,-4 L907,-3 L908,-4 L909,-3 L910,-3 L911,-2 L912,-3 L913,-4 L914,-4 L915,-4 L916,-1 L917,-3 L918,-1 L919,-3 L920,-6 L921,-5 L922,-3 L923,-8 L924,-2 L925,-2 L926,-4 L927,-6 L928,-4 L929,-5 L930,-1 L931,-2 L932,0 L933,-7 L934,-6 L935,0 L936,2 L937,-4 L938,-4 L939,-5 L940,-5 L941,-3 L942,-4 L943,-3 L944,-3 L945,-3 L946,-6 L947,-3 L948,-4 L949,-1 
L950,-3 L951,-3 L952,-6 L953,0 L954,-3 L955,-4 L956,-4 L957,-3 L958,-4 L959,-3 L960,-4 L961,-1 L962,-3 L963,-3 L964,-4 L965,-3 L966,-3 L967,-4 L968,-8 L969,-1 L970,-3 L971,-5 L972,0 L973,-1 L974,-4 L975,-4 L976,-2 L977,-18 L978,-26 L979,5 L980,-1 L981,5 L982,19 L983,-1 L984,-5 L985,8 L986,5 L987,0 L988,5 L989,1 L990,4 L991,3 L992,3 L993,3 L994,2 L995,2 L996,2 L997,1 L998,2 L999,3 L1000,1 L1001,1 L1002,0 L1003,-2 L1004,-2 L1005,0 L1006,0 L1007,0 L1008,-3 L1009,-2 L1010,0 L1011,-1 L1012,0 L1013,1 L1014,-2 L1015,-3 L1016,-2 L1017,-1 L1018,-1 L1019,-1 L1020,-2 L1021,-2 L1022,-1 L1023,0 L1024,-2 L1025,0 L1026,0 L1027,-1 L1028,-2 L1029,-3 L1030,-1 L1031,-2 L1032,0 L1033,-1 L1034,-4 L1035,-3 L1036,-2 L1037,-2 L1038,-1 L1039,-2 L1040,-1 L1041,-1 L1042,-1 L1043,-6 L1044,-3 L1045,-3 L1046,-1 L1047,-2 L1048,-3 L1049,-3 
L1050,-1 L1051,-2 L1052,-1 L1053,1 L1054,-3 L1055,-2 L1056,-4 L1057,-3 L1058,0 L1059,-1 L1060,-4 L1061,-2 L1062,-3 L1063,-12 L1064,-5 L1065,0 L1066,-1 L1067,-1 L1068,-3 L1069,-2 L1070,-3 L1071,-2 L1072,-1 L1073,-1 L1074,-4 L1075,-2 L1076,-4 L1077,-4 L1078,-1 L1079,0 L1080,-2 L1081,-2 L1082,-3 L1083,-4 L1084,0 L1085,-3 L1086,-15 L1087,-5 L1088,-3 L1089,-4 L1090,-1 L1091,-3 L1092,-1 L1093,0 L1094,-4 L1095,-2 L1096,-4 L1097,-4 L1098,-1 L1099,-2 L1100,-2 L1101,-1 L1102,-3 L1103,-10 L1104,-4 L1105,-1 L1106,0 L1107,-4 L1108,-5 L1109,-2 L1110,-3 L1111,-2 L1112,-1 L1113,-3 L1114,-4 L1115,-2 L1116,-4 L1117,-3 L1118,-1 L1119,-2 L1120,-1 L1121,-5 L1122,-4 L1123,-7 L1124,6 L1125,8 L1126,-4 L1127,-4 L1128,-3 L1129,12 L1130,27 L1131,0 L1132,1 L1133,-5 L1134,-8 L1135,-2 L1136,0 L1137,-1 L1138,3 L1139,2 L1140,-1 L1141,-1 L1142,-1 L1143,-2 L1144,1 L1145,0 L1146,1 L1147,2 L1148,-2 L1149,0 
L1150,-1 L1151,0 L1152,1 L1153,-3 L1154,-3 L1155,-3 L1156,-3 L1157,-2 L1158,-1 L1159,-2 L1160,-3 L1161,-1 L1162,0 L1163,-3 L1164,-1 L1165,-1 L1166,2 L1167,-1 L1168,-4 L1169,-3 L1170,-4 L1171,-4 L1172,0 L1173,-1 L1174,-6 L1175,-3 L1176,-4 L1177,-3 L1178,-2 L1179,-1 L1180,-1 L1181,-4 L1182,-3 L1183,-4 L1184,0 L1185,-3 L1186,-5 L1187,-4 L1188,-3 L1189,-1 L1190,-3 L1191,-2 L1192,-2 L1193,-5 L1194,-3 L1195,0 L1196,-4 L1197,-4 L1198,-3 L1199,-5 L1200,-2 L1201,0 L1202,-1 L1203,0 L1204,-3 L1205,-4 L1206,-6 L1207,0 L1208,-2 L1209,-2 L1210,-5 L1211,-4 L1212,-2 L1213,-2 L1214,-2 L1215,0 L1216,-4 L1217,-5 L1218,-4 L1219,-5 L1220,-1 L1221,-1 L1222,-1 L1223,-7 L1224,-7 L1225,0 L1226,4 L1227,-2 L1228,-4 L1229,-2 L1230,-4 L1231,-3 L1232,-2 L1233,-2 L1234,-3 L1235,-3 L1236,-3 L1237,-3 L1238,-1 L1239,-4 L1240,-3 L1241,-4 L1242,-4 L1243,-4 L1244,-3 L1245,-1 L1246,-3 L1247,-2 L1248,0 L1249,-8 
L1250,0 L1251,3 L1252,5 L1253,-5 L1254,-4 L1255,-3 L1256,-2 L1257,-4 L1258,-3 L1259,-4 L1260,-4 L1261,-3 L1262,-3 L1263,-2 L1264,-3 L1265,-2 L1266,-4 L1267,-9 L1268,-2 L1269,-3 L1270,-3 L1271,-2 L1272,-2 L1273,-4 L1274,-4 L1275,-8 L1276,-3 L1277,-4 L1278,-3 L1279,-2 L1280,-1 L1281,29 L1282,35 L1283,6 L1284,-7 L1285,0 L1286,-4 L1287,2 L1288,12 L1289,5 L1290,3 L1291,6 L1292,0 L1293,2 L1294,3 L1295,2 L1296,3 L1297,4 L1298,1 L1299,2 L1300,3 L1301,2 L1302,2 L1303,4 L1304,-1 L1305,2 L1306,0 L1307,0 L1308,1 L1309,0 L1310,-1 L1311,0 L1312,-1 L1313,-3 L1314,-1 L1315,0 L1316,1 L1317,0 L1318,-2 L1319,-2 L1320,-1 L1321,-2 L1322,0 L1323,0 L1324,-3 L1325,-2 L1326,-2 L1327,-1 L1328,-4 L1329,-1 L1330,-2 L1331,-2 L1332,-1 L1333,-2 L1334,-1 L1335,0 L1336,-1 L1337,-1 L1338,-3 L1339,-1 L1340,0 L1341,-1 L1342,-2 L1343,-1 L1344,3 L1345,-5 L1346,-3 L1347,0 L1348,2 L1349,-2 
L1350,-4 L1351,0 L1352,-2 L1353,-3 L1354,0 L1355,-1 L1356,-5 L1357,-2 L1358,-2 L1359,-3 L1360,-1 L1361,-2 L1362,-2 L1363,0 L1364,-2 L1365,-2 L1366,-1 L1367,-3 L1368,-2 L1369,-1 L1370,-2 L1371,-2 L1372,-2 L1373,-4 L1374,-1 L1375,-1 L1376,-2 L1377,-3 L1378,-4 L1379,-1 L1380,-1 L1381,-4 L1382,-3 L1383,-1 L1384,-4 L1385,-4 L1386,-3 L1387,-2 L1388,-1 L1389,-3 L1390,-3 L1391,-4 L1392,-3 L1393,-3 L1394,1 L1395,-1 L1396,-4 L1397,-3 L1398,-4 L1399,-5 L1400,-2 L1401,-2 L1402,-2 L1403,-3 L1404,-4 L1405,-4 L1406,-3 L1407,-3 L1408,-2 L1409,-1 L1410,-2 L1411,-4 L1412,-4 L1413,-4 L1414,-2 L1415,0 L1416,-3 L1417,-1 L1418,-4 L1419,-2 L1420,-2 L1421,-1 L1422,-4 L1423,-3 L1424,-4 L1425,-3 L1426,-2 L1427,-15 L1428,0 L1429,-4 L1430,-2 L1431,-1 L1432,-1 L1433,-24 L1434,-18 L1435,3 L1436,0 L1437,11 L1438,3 L1439,0 L1440,-1 L1441,-3 L1442,-1 L1443,-2 L1444,0 L1445,0 L1446,0 L1447,1 L1448,-1 L1449,-6 
L1450,0 L1451,-2 L1452,-3 L1453,0 L1454,0 L1455,-4 L1456,-5 L1457,0 L1458,-1 L1459,-1 L1460,-2 L1461,-3 L1462,0 L1463,-2 L1464,0 L1465,-3 L1466,-1 L1467,-2 L1468,-3 L1469,-3 L1470,-2 L1471,-1 L1472,1 L1473,-8 L1474,-3 L1475,3 L1476,2 L1477,-1 L1478,-6 L1479,-4 L1480,-2 L1481,-1 L1482,-1 L1483,-4 L1484,-3 L1485,-5 L1486,0 L1487,-3 L1488,0 L1489,-1 L1490,-2 L1491,-4 L1492,-5 L1493,-3 L1494,-2 L1495,6 L1496,-4 L1497,-2 L1498,0 L1499,-3 L1500,-3 L1501,-1 L1502,-3 L1503,-3 L1504,-3 L1505,-3 L1506,-3 L1507,-3 L1508,-1 L1509,-3 L1510,-4 L1511,-3 L1512,-2 L1513,-3 L1514,-3 L1515,-4 L1516,-1 L1517,-5 L1518,-3 L1519,-2 L1520,-5 L1521,-4 L1522,-2 L1523,-2 L1524,-1 L1525,-1 L1526,-3 L1527,-4 L1528,-4 L1529,-3 L1530,3 L1531,-4 L1532,-3 L1533,-3 L1534,-4 L1535,-4 L1536,-1 L1537,-1 L1538,-3 L1539,-4 L1540,-4 L1541,-3 L1542,-2 L1543,-2 L1544,-3 L1545,-3 L1546,-4 L1547,-3 L1548,-3 L1549,-3 
L1550,-4 L1551,-1 L1552,-5 L1553,-4 L1554,-4 L1555,-4 L1556,-2 L1557,-3 L1558,-3 L1559,-1 L1560,-5 L1561,-3 L1562,-2 L1563,-2 L1564,-4 L1565,-2 L1566,-5 L1567,-4 L1568,-2 L1569,-2 L1570,-2 L1571,-3 L1572,-4 L1573,-4 L1574,-4 L1575,-5 L1576,-1 L1577,-1 L1578,-4 L1579,4 L1580,-6 L1581,-6 L1582,-2 L1583,-2 L1584,29 L1585,-13 L1586,-7 L1587,8 L1588,18 L1589,10 L1590,0 L1591,3 L1592,-2 L1593,1 L1594,8 L1595,3 L1596,3 L1597,5 L1598,0 L1599,-3 L1600,3 L1601,2 L1602,3 L1603,4 L1604,2 L1605,2 L1606,2 L1607,0 L1608,2 L1609,0 L1610,1 L1611,2 L1612,-2 L1613,-1 L1614,-1 L1615,-2 L1616,0 L1617,1 L1618,-3 L1619,-1 L1620,-1 L1621,0 L1622,-1 L1623,0 L1624,-1 L1625,-1 L1626,-3 L1627,-3 L1628,-2 L1629,1 L1630,0 L1631,-1 L1632,-1 L1633,-2 L1634,0 L1635,-1 L1636,0 L1637,-1 L1638,-2 L1639,-2 L1640,-3 L1641,-1 L1642,-1 L1643,0 L1644,-1 L1645,-1 L1646,-10 L1647,-5 L1648,-1 L1649,-2 
L1650,-1 L1651,-1 L1652,-3 L1653,-3 L1654,-1 L1655,-1 L1656,-1 L1657,-1 L1658,-3 L1659,-3 L1660,-2 L1661,-2 L1662,-1 L1663,-1 L1664,-3 L1665,-2 L1666,-4 L1667,-4 L1668,-1 L1669,-2 L1670,-1 L1671,-2 L1672,-2 L1673,-2 L1674,-1 L1675,-2 L1676,-1 L1677,0 L1678,-3 L1679,-3 L1680,-4 L1681,-2 L1682,-1 L1683,0 L1684,-3 L1685,-1 L1686,-2 L1687,-4 L1688,-1 L1689,-1 L1690,-2 L1691,-1 L1692,-9 L1693,-5 L1694,-2 L1695,-2 L1696,-3 L1697,-1 L1698,-5 L1699,-2 L1700,-2 L1701,-1 L1702,-2 L1703,-1 L1704,-2 L1705,-2 L1706,-4 L1707,-4 L1708,-3 L1709,-3 L1710,-1 L1711,-3 L1712,-5 L1713,-3 L1714,-6 L1715,0 L1716,-3 L1717,-2 L1718,-4 L1719,1 L1720,-3 L1721,-2 L1722,-4 L1723,-5 L1724,-4 L1725,1 L1726,0 L1727,-7 L1728,-6 L1729,-3 L1730,-1 L1731,21 L1732,-15 L1733,-10 L1734,-2 L1735,-3 L1736,23 L1737,16 L1738,13 L1739,-17 L1740,-8 L1741,-7 L1742,-1 L1743,8 L1744,4 L1745,1 L1746,-5 L1747,0 L1748,-2 L1749,-3 
L1750,0 L1751,-1 L1752,-2 L1753,-2 L1754,-1 L1755,-1 L1756,0 L1757,-1 L1758,-1 L1759,-4 L1760,-4 L1761,-1 L1762,-3 L1763,-2 L1764,-2 L1765,-2 L1766,-4 L1767,-4 L1768,-2 L1769,-1 L1770,-1 L1771,-2 L1772,-2 L1773,-1 L1774,-2 L1775,0 L1776,2 L1777,-6 L1778,-6 L1779,-3 L1780,1 L1781,-1 L1782,-2 L1783,-2 L1784,-3 L1785,-3 L1786,0 L1787,0 L1788,-4 L1789,-3 L1790,-4 L1791,-4 L1792,-1 L1793,-6 L1794,-4 L1795,0 L1796,-4 L1797,-3 L1798,-2 L1799,-2 L1800,-2 L1801,-2 L1802,-4 L1803,-4 L1804,-3 L1805,-4 L1806,-1 L1807,-3 L1808,-3 L1809,-3 L1810,-3 L1811,-2 L1812,-3 L1813,-3 L1814,-2 L1815,-2 L1816,-4 L1817,-4 L1818,-3 L1819,-2 L1820,-2 L1821,-2 L1822,-2 L1823,-4 L1824,-3 L1825,-3 L1826,-2 L1827,-3 L1828,-2 L1829,-3 L1830,-5 L1831,-3 L1832,-2 L1833,-2 L1834,-5 L1835,-3 L1836,-4 L1837,-4 L1838,-4 L1839,-2 L1840,-2 L1841,-1 L1842,-3 L1843,-2 L1844,-4 L1845,-4 L1846,-2 L1847,-2 L1848,-2 L1849,-3 
L1850,-3 L1851,-4 L1852,-2 L1853,-2 L1854,-2 L1855,-3 L1856,-4 L1857,-5 L1858,0 L1859,-2 L1860,-1 L1861,-2 L1862,-5 L1863,-4 L1864,-3 L1865,-4 L1866,-1 L1867,0 L1868,-4 L1869,-3 L1870,-5 L1871,-4 L1872,-1 L1873,-3 L1874,-1 L1875,-1 L1876,-5 L1877,-3 L1878,-4 L1879,-7 L1880,-4 L1881,-4 L1882,-5 L1883,2 L1884,-4 L1885,-4 L1886,-2 L1887,-2 L1888,47 L1889,10 L1890,-5 L1891,-11 L1892,0 L1893,4 L1894,12 L1895,9 L1896,2 L1897,2 L1898,0 L1899,2 L1900,7 L1901,4 L1902,3 L1903,2 L1904,2 L1905,1 L1906,2 L1907,3 L1908,2 L1909,2 L1910,0 L1911,-1 L1912,0 L1913,1 L1914,0 L1915,0 L1916,-1 L1917,-1 L1918,0 L1919,-1 L1920,-1 L1921,-2 L1922,-1 L1923,-2 L1924,0 L1925,-2 L1926,0 L1927,0 L1928,-1 L1929,-1 L1930,-2 L1931,-1 L1932,-1 L1933,0 L1934,-1 L1935,0 L1936,-2 L1937,-4 L1938,-1 L1939,-1 L1940,-2 L1941,-2 L1942,-1 L1943,-1 L1944,-3 L1945,-2 L1946,-1 L1947,2 L1948,-5 L1949,-2 
L1950,-2 L1951,-1 L1952,-1 L1953,-1 L1954,-2 L1955,-4 L1956,-3 L1957,-1 L1958,0 L1959,-1 L1960,-2 L1961,-1 L1962,-3 L1963,-4 L1964,-1 L1965,-1 L1966,-2 L1967,-2 L1968,-3 L1969,-3 L1970,-3 L1971,-3 L1972,-1 L1973,-1 L1974,-2 L1975,-3 L1976,-2 L1977,-4 L1978,11 L1979,-1 L1980,-2 L1981,-3 L1982,-2 L1983,-4 L1984,-3 L1985,-2 L1986,-1 L1987,-2 L1988,-3 L1989,-5 L1990,-4 L1991,-4 L1992,-2 L1993,0 L1994,0 L1995,-8 L1996,-7 L1997,0 L1998,4 L1999,-2 L2000,-3 L2001,-2 L2002,-4 L2003,-3 L2004,0 L2005,-2 L2006,-3 L2007,-1 L2008,-4 L2009,-4 L2010,-5 L2011,1 L2012,1 L2013,-2 L2014,-5 L2015,3 L2016,-5 L2017,-3 L2018,-4 L2019,-4 L2020,-4 L2021,-2 L2022,-2 L2023,-2 L2024,-3 L2025,-3 L2026,-2 L2027,-1 L2028,-1 L2029,-1 L2030,-4 L2031,0 L2032,-1 L2033,-3 L2034,-5 L2035,23 L2036,-12 L2037,-3 L2038,-5 L2039,-7 L2040,-26 L2041,13 L2042,3 L2043,21 L2044,4 L2045,-17 L2046,-11 L2047,-2 L2048,1 L2049,0 
L2050,-2 L2051,1 L2052,-1 L2053,-1 L2054,0 L2055,-1 L2056,1 L2057,-3 L2058,-1 L2059,0 L2060,2 L2061,0 L2062,0 L2063,-2 L2064,-1 L2065,-2 L2066,-1 L2067,-3 L2068,-1 L2069,-1 L2070,-4 L2071,-2 L2072,-2 L2073,-3 L2074,-1 L2075,-2 L2076,-1 L2077,-1 L2078,-3 L2079,-3 L2080,-1 L2081,-2 L2082,-4 L2083,-2 L2084,-3 L2085,-4 L2086,0 L2087,-3 L2088,-2 L2089,-2 L2090,-4 L2091,-3 L2092,-3 L2093,-2 L2094,-2 L2095,-1 L2096,-2 L2097,-5 L2098,-1 L2099,-6 L2100,0 L2101,-2 L2102,-4 L2103,-2 L2104,-4 L2105,-4 L2106,-2 L2107,-1 L2108,-2 L2109,-1 L2110,-3 L2111,-6 L2112,-1 L2113,-2 L2114,-3 L2115,-1 L2116,-4 L2117,-5 L2118,-4 L2119,-4 L2120,-2 L2121,-3 L2122,-4 L2123,-1 L2124,-3 L2125,-5 L2126,-1 L2127,-1 L2128,-3 L2129,-3 L2130,-3 L2131,-3 L2132,-3 L2133,-4 L2134,-2 L2135,-1 L2136,-4 L2137,-5 L2138,-4 L2139,-4 L2140,-1 L2141,-2 L2142,-3 L2143,-3 L2144,-3 L2145,-4 L2146,-2 L2147,-2 L2148,-2 L2149,-2 
L2150,-4 L2151,-3 L2152,-3 L2153,-3 L2154,-2 L2155,-1 L2156,-4 L2157,-4 L2158,-3 L2159,-3 L2160,-3 L2161,-3 L2162,-4 L2163,-3 L2164,-4 L2165,-4 L2166,-2 L2167,-2 L2168,-2 L2169,-1 L2170,-6 L2171,-4 L2172,-3 L2173,-3 L2174,-2 L2175,-4 L2176,-4 L2177,-4 L2178,-4 L2179,-4 L2180,-2 L2181,-2 L2182,-3 L2183,0 L2184,-3 L2185,-3 L2186,-3 L2187,-9 L2188,-2 L2189,-1 L2190,-5 L2191,-3 L2192,-24 L2193,17 L2194,11 L2195,21 L2196,0 L2197,-6 L2198,3 L2199,-1 L2200,8 L2201,8 L2202,2 L2203,4 L2204,1 L2205,0 L2206,7 L2207,4 L2208,3 L2209,3 L2210,0 L2211,1 L2212,4 L2213,3 L2214,3 L2215,3 L2216,0 L2217,0 L2218,-5 L2219,0 L2220,1 L2221,-1 L2222,-2 L2223,-1 L2224,1 L2225,-1 L2226,-1 L2227,1 L2228,-2 L2229,-1 L2230,-3 L2231,-4 L2232,-1 L2233,-1 L2234,-1 L2235,-2 L2236,-2 L2237,-3 L2238,0 L2239,-4 L2240,-2 L2241,-1 L2242,-2 L2243,-11 L2244,0 L2245,-3 L2246,-3 L2247,4 L2248,1 L2249,-4 
L2250,-7 L2251,-2 L2252,0 L2253,0 L2254,-2 L2255,-1 L2256,-1 L2257,-5 L2258,-2 L2259,-2 L2260,0 L2261,-2 L2262,0 L2263,-5 L2264,-4 L2265,0 L2266,3 L2267,-7 L2268,-2 L2269,0 L2270,0 L2271,-2 L2272,-1 L2273,-2 L2274,-4 L2275,-2 L2276,-4 L2277,-1 L2278,-1 L2279,-4 L2280,-1 L2281,-3 L2282,-5 L2283,0 L2284,-3 L2285,-4 L2286,-3 L2287,-2 L2288,-4 L2289,-2 L2290,-2 L2291,-3 L2292,-3 L2293,-2 L2294,-2 L2295,-1 L2296,-3 L2297,-2 L2298,-2 L2299,-8 L2300,-2 L2301,-1 L2302,-4 L2303,-2 L2304,-2 L2305,-3 L2306,-4 L2307,-5 L2308,-3 L2309,-2 L2310,-1 L2311,-8 L2312,-4 L2313,-2 L2314,-4 L2315,-3 L2316,-2 L2317,0 L2318,-2 L2319,-2 L2320,-4 L2321,-3 L2322,-3 L2323,-3 L2324,-1 L2325,-1 L2326,-3 L2327,-3 L2328,-2 L2329,-4 L2330,-1 L2331,-1 L2332,-2 L2333,-3 L2334,-3 L2335,-6 L2336,-4 L2337,-1 L2338,-6 L2339,-22 L2340,7 L2341,-1 L2342,-5 L2343,-2 L2344,11 L2345,-29 L2346,-3 L2347,-12 L2348,-5 L2349,8 
L2350,3 L2351,3 L2352,-2 L2353,-2 L2354,0 L2355,-1 L2356,2 L2357,2 L2358,-2 L2359,0 L2360,-1 L2361,-1 L2362,-2 L2363,-1 L2364,1 L2365,0 L2366,-2 L2367,-5 L2368,-1 L2369,-2 L2370,-2 L2371,0 L2372,-2 L2373,-4 L2374,-3 L2375,-2 L2376,-2 L2377,0 L2378,-2 L2379,-2 L2380,-3 L2381,-4 L2382,-3 L2383,-1 L2384,-2 L2385,-2 L2386,-3 L2387,-4 L2388,-1 L2389,-3 L2390,-3 L2391,-1 L2392,-2 L2393,-3 L2394,-2 L2395,-3 L2396,-4 L2397,-2 L2398,-2 L2399,-3 L2400,2 L2401,-3 L2402,-9 L2403,-2 L2404,-2 L2405,0 L2406,-3 L2407,-4 L2408,-4 L2409,-3 L2410,-2 L2411,-2 L2412,-3 L2413,-1 L2414,-3 L2415,-4 L2416,-1 L2417,-1 L2418,-2 L2419,-2 L2420,-4 L2421,-4 L2422,-3 L2423,-3 L2424,-1 L2425,-3 L2426,-4 L2427,-4 L2428,-2 L2429,-2 L2430,-2 L2431,-3 L2432,-4 L2433,-4 L2434,-5 L2435,-5 L2436,-2 L2437,-2 L2438,-2 L2439,-2 L2440,-4 L2441,-3 L2442,-4 L2443,-2 L2444,0 L2445,-1 L2446,-4 L2447,-4 L2448,-3 L2449,-5 
L2450,-2 L2451,-3 L2452,-3 L2453,-3 L2454,-3 L2455,-3 L2456,-1 L2457,-2 L2458,-3 L2459,-1 L2460,-3 L2461,-6 L2462,-3 L2463,-3 L2464,-3 L2465,-1 L2466,-5 L2467,-3 L2468,-3 L2469,-2 L2470,-2 L2471,-2 L2472,-3 L2473,-2 L2474,-3 L2475,-5 L2476,-4 L2477,-2 L2478,-3 L2479,-1 L2480,-4 L2481,-2 L2482,-2 L2483,-2 L2484,-2 L2485,-2 L2486,-3 L2487,-5 L2488,-5 L2489,-5 L2490,-7 L2491,-1 L2492,-3 L2493,-4 L2494,-4 L2495,-4 L2496,25 L2497,-30 L2498,2 L2499,6 L2500,3 L2501,16 L2502,1 L2503,0 L2504,4 L2505,2 L2506,5 L2507,4 L2508,-1 L2509,6 L2510,3 L2511,0 L2512,1 L2513,7 L2514,0 L2515,0 L2516,-3 L2517,1 L2518,1 L2519,4 L2520,3 L2521,-1 L2522,-1 L2523,0 L2524,0 L2525,2 L2526,0 L2527,-1 L2528,-3 L2529,-3 L2530,-1 L2531,1 L2532,1 L2533,0 L2534,0 L2535,-4 L2536,-4 L2537,4 L2538,2 L2539,-1 L2540,-5 L2541,-1 L2542,-2 L2543,-2 L2544,-1 L2545,-3 L2546,-1 L2547,-4 L2548,-1 L2549,-3 
L2550,-1 L2551,-2 L2552,0 L2553,-2 L2554,-2 L2555,-4 L2556,-2 L2557,-3 L2558,-2 L2559,-2 L2560,-2 L2561,-1 L2562,4 L2563,-4 L2564,-1 L2565,-1 L2566,-3 L2567,-5 L2568,-5 L2569,-1 L2570,0 L2571,-4 L2572,-2 L2573,-1 L2574,-2 L2575,-1 L2576,0 L2577,-3 L2578,-2 L2579,-2 L2580,-1 L2581,-2 L2582,-3 L2583,-2 L2584,-2 L2585,-2 L2586,-2 L2587,-1 L2588,-4 L2589,-3 L2590,-4 L2591,-1 L2592,-1 L2593,-1 L2594,-3 L2595,-3 L2596,-4 L2597,-3 L2598,-1 L2599,-1 L2600,-2 L2601,-3 L2602,-4 L2603,-1 L2604,-1 L2605,-2 L2606,-3 L2607,-3 L2608,-3 L2609,-2 L2610,-3 L2611,-3 L2612,-1 L2613,-2 L2614,-3 L2615,-4 L2616,-3 L2617,-4 L2618,-2 L2619,0 L2620,-3 L2621,-2 L2622,-2 L2623,-1 L2624,-2 L2625,-1 L2626,-3 L2627,-3 L2628,-5 L2629,-4 L2630,-2 L2631,-2 L2632,0 L2633,-2 L2634,-4 L2635,-4 L2636,-2 L2637,-4 L2638,0 L2639,1 L2640,-4 L2641,-3 L2642,-17 L2643,0 L2644,-5 L2645,-4 L2646,-2 L2647,-2 L2648,-23 L2649,27 
L2650,4 L2651,0 L2652,10 L2653,-8 L2654,-1 L2655,0 L2656,-1 L2657,1 L2658,0 L2659,0 L2660,-2 L2661,-1 L2662,0 L2663,-1 L2664,1 L2665,0 L2666,-2 L2667,0 L2668,-3 L2669,-2 L2670,-2 L2671,-1 L2672,0 L2673,0 L2674,-4 L2675,-5 L2676,-2 L2677,-3 L2678,-1 L2679,-1 L2680,-3 L2681,-3 L2682,-4 L2683,-3 L2684,-2 L2685,-1 L2686,-3 L2687,-3 L2688,-4 L2689,-4 L2690,-2 L2691,-2 L2692,0 L2693,-2 L2694,-2 L2695,-3 L2696,-3 L2697,-3 L2698,-1 L2699,-2 L2700,-4 L2701,-3 L2702,-4 L2703,-2 L2704,-1 L2705,-3 L2706,-1 L2707,-2 L2708,-5 L2709,-6 L2710,-3 L2711,-2 L2712,0 L2713,-3 L2714,-3 L2715,-2 L2716,-2 L2717,-5 L2718,-2 L2719,-2 L2720,-4 L2721,-4 L2722,-4 L2723,-2 L2724,-4 L2725,-1 L2726,-2 L2727,-3 L2728,-5 L2729,-4 L2730,-1 L2731,-2 L2732,-4 L2733,-1 L2734,-3 L2735,-4 L2736,-3 L2737,-3 L2738,-2 L2739,-1 L2740,-4 L2741,-3 L2742,-4 L2743,-3 L2744,0 L2745,-2 L2746,-3 L2747,-3 L2748,-3 L2749,-4 
L2750,-2 L2751,-3 L2752,-1 L2753,-3 L2754,-4 L2755,-4 L2756,-4 L2757,-4 L2758,-1 L2759,-1 L2760,-3 L2761,-4 L2762,-4 L2763,-4 L2764,-2 L2765,-4 L2766,-3 L2767,-4 L2768,-3 L2769,-4 L2770,-3 L2771,-4 L2772,1 L2773,-3 L2774,-3 L2775,-3 L2776,-2 L2777,-5 L2778,-4 L2779,-2 L2780,-3 L2781,-2 L2782,-5 L2783,-3 L2784,-3 L2785,-4 L2786,-2 L2787,-5 L2788,0 L2789,-6 L2790,-8 L2791,-3 L2792,-1 L2793,-3 L2794,-1 L2795,0 L2796,-6 L2797,-4 L2798,-1 L2799,1 L2800,-1 L2801,36 L2802,9 L2803,-17 L2804,4 L2805,3 L2806,8 L2807,12 L2808,-3 L2809,4 L2810,1 L2811,2 L2812,4 L2813,4 L2814,1 L2815,1 L2816,2 L2817,1 L2818,4 L2819,3 L2820,2 L2821,1 L2822,1 L2823,-2 L2824,-1 L2825,3 L2826,-1 L2827,0 L2828,-1 L2829,0 L2830,0 L2831,0 L2832,-2 L2833,0 L2834,-2 L2835,-4 L2836,-3 L2837,4 L2838,-2 L2839,-6 L2840,-16 L2841,-1 L2842,-2 L2843,-2 L2844,-2 L2845,-3 L2846,-1 L2847,-2 L2848,0 L2849,0 
L2850,-3 L2851,-1 L2852,0 L2853,-2 L2854,-1 L2855,-1 L2856,0 L2857,-2 L2858,-3 L2859,0 L2860,-2 L2861,0 L2862,-1 L2863,-2 L2864,-2 L2865,-3 L2866,-2 L2867,-1 L2868,-2 L2869,-1 L2870,-3 L2871,-2 L2872,-1 L2873,-2 L2874,-4 L2875,-2 L2876,-2 L2877,-3 L2878,-2 L2879,-3 L2880,0 L2881,-1 L2882,-3 L2883,-2 L2884,-2 L2885,-3 L2886,-2 L2887,-1 L2888,-2 L2889,-1 L2890,-3 L2891,-4 L2892,-1 L2893,-2 L2894,-2 L2895,-2 L2896,-2 L2897,-3 L2898,-4 L2899,-4 L2900,-1 L2901,-1 L2902,-2 L2903,-4 L2904,-3 L2905,-2 L2906,-7 L2907,-1 L2908,-3 L2909,-1 L2910,-4 L2911,-2 L2912,-1 L2913,-3 L2914,-2 L2915,-2 L2916,-3 L2917,-3 L2918,-2 L2919,-2 L2920,-1 L2921,-2 L2922,-3 L2923,-3 L2924,-3 L2925,-3 L2926,-3 L2927,-3 L2928,-2 L2929,-2 L2930,-4 L2931,-3 L2932,-3 L2933,-1 L2934,-1 L2935,-1 L2936,-2 L2937,-3 L2938,-3 L2939,-3 L2940,-1 L2941,-3 L2942,-4 L2943,-1 L2944,-3 L2945,-4 L2946,-4 L2947,16 L2948,-9 L2949,-3 
L2950,-4 L2951,13 L2952,-1 L2953,-16 L2954,-16 L2955,16 L2956,-1 L2957,2 L2958,2 L2959,-4 L2960,3 L2961,0 L2962,0 L2963,2 L2964,-4 L2965,-3 L2966,1 L2967,3 L2968,2 L2969,1 L2970,-2 L2971,-2 L2972,-1 L2973,-1 L2974,-2 L2975,3 L2976,-4 L2977,-2 L2978,-2 L2979,-3 L2980,0 L2981,0 L2982,-2 L2983,-1 L2984,-2 L2985,-4 L2986,-1 L2987,0 L2988,-1 L2989,-1 L2990,-4 L2991,-2 L2992,-3 L2993,-3 L2994,-1 L2995,0 L2996,-4 L2997,-4 L2998,-3 L2999,-3 L3000,0 L3001,-2 L3002,-1 L3003,-2 L3004,-4 L3005,-4 L3006,-1 L3007,-2 L3008,-6 L3009,-1 L3010,-3 L3011,-1 L3012,-2 L3013,-2 L3014,-2 L3015,-1 L3016,-2 L3017,-3 L3018,-3 L3019,-3 L3020,-4 L3021,-3 L3022,-2 L3023,-2 L3024,-2 L3025,-4 L3026,-4 L3027,-4 L3028,-2 L3029,-1 L3030,-4 L3031,-4 L3032,-4 L3033,-2 L3034,-3 L3035,-2 L3036,-3 L3037,-2 L3038,-4 L3039,-2 L3040,-4 L3041,-4 L3042,-2 L3043,-4 L3044,-2 L3045,-3 L3046,-3 L3047,-3 L3048,-1 L3049,-2 
L3050,-3 L3051,-2 L3052,-4 L3053,-4 L3054,0 L3055,-7 L3056,-4 L3057,-1 L3058,0 L3059,0 L3060,-1 L3061,-4 L3062,-3 L3063,-4 L3064,-4 L3065,-2 L3066,-3 L3067,-4 L3068,-8 L3069,-2 L3070,-5 L3071,0 L3072,-3 L3073,-4 L3074,-3 L3075,-4 L3076,-3 L3077,-1 L3078,0 L3079,-8 L3080,-5 L3081,-4 L3082,-1 L3083,-1 L3084,-2 L3085,-3 L3086,-3 L3087,-4 L3088,3 L3089,-3 L3090,-5 L3091,-3 L3092,-3 L3093,-4 L3094,-6 L3095,0 L3096,-3 L3097,-4 L3098,8 L3099,-2 L3100,-4 L3101,-5 L3102,-4 L3103,28 L3104,1 L3105,4 L3106,11 L3107,19 L3108,1 L3109,-4 L3110,4 L3111,0 L3112,6 L3113,7 L3114,0 L3115,3 L3116,3 L3117,1 L3118,5 L3119,5 L3120,3 L3121,4 L3122,0 L3123,0 L3124,10 L3125,-8 L3126,0 L3127,0 L3128,-1 L3129,-4 L3130,2 L3131,0 L3132,0 L3133,-2 L3134,0 L3135,-2 L3136,-1 L3137,-2 L3138,0 L3139,0 L3140,-4 L3141,-4 L3142,-2 L3143,-3 L3144,8 L3145,-11 L3146,-2 L3147,-1 L3148,-1 L3149,3 
L3150,-1 L3151,-1 L3152,-3 L3153,-2 L3154,-3 L3155,-3 L3156,0 L3157,0 L3158,0 L3159,1 L3160,-1 L3161,-4 L3162,-3 L3163,0 L3164,-2 L3165,-4 L3166,-2 L3167,-2 L3168,-1 L3169,-6 L3170,-2 L3171,0 L3172,-1 L3173,-3 L3174,-2 L3175,-1 L3176,-3 L3177,-2 L3178,-2 L3179,-2 L3180,-3 L3181,-4 L3182,-4 L3183,1 L3184,-3 L3185,-2 L3186,-1 L3187,-4 L3188,-1 L3189,-2 L3190,0 L3191,-1 L3192,-3 L3193,-3 L3194,-1 L3195,-2 L3196,-2 L3197,-1 L3198,-2 L3199,-4 L3200,-3 L3201,-2 L3202,-1 L3203,12 L3204,0 L3205,-2 L3206,-1 L3207,-4 L3208,-3 L3209,-2 L3210,-1 L3211,-2 L3212,-4 L3213,-3 L3214,-2 L3215,-1 L3216,-1 L3217,-1 L3218,-3 L3219,-4 L3220,-4 L3221,-6 L3222,-4 L3223,12 L3224,0 L3225,-4 L3226,-4 L3227,-4 L3228,-1 L3229,-1 L3230,-1 L3231,-2 L3232,-4 L3233,-2 L3234,-2 L3235,-2 L3236,-2 L3237,-3 L3238,-6 L3239,-4 L3240,-3 L3241,-4 L3242,0 L3243,-2 L3244,-2 L3245,-1 L3246,-3 L3247,-5 L3248,-2 L3249,-2 
L3250,-1 L3251,4 L3252,-6 L3253,-5 L3254,-2 L3255,-1 L3256,11 L3257,-24 L3258,-10 L3259,-7 L3260,-1 L3261,5 L3262,5 L3263,-2 L3264,-3 L3265,-1 L3266,0 L3267,-2 L3268,1 L3269,2 L3270,-2 L3271,0 L3272,-4 L3273,-1 L3274,-1 L3275,-1 L3276,0 L3277,0 L3278,-3 L3279,-4 L3280,-3 L3281,-2 L3282,4 L3283,-9 L3284,-3 L3285,-1 L3286,-2 L3287,-4 L3288,0 L3289,0 L3290,-2 L3291,-3 L3292,-4 L3293,-2 L3294,0 L3295,-3 L3296,-2 L3297,-2 L3298,-3 L3299,-6 L3300,-2 L3301,1 L3302,2 L3303,-9 L3304,0 L3305,3 L3306,-3 L3307,-4 L3308,-6 L3309,2 L3310,1 L3311,-8 L3312,-8 L3313,-3 L3314,-1 L3315,-3 L3316,-3 L3317,0 L3318,-4 L3319,-4 L3320,-3 L3321,-4 L3322,0 L3323,-2 L3324,-1 L3325,-6 L3326,-5 L3327,-1 L3328,0 L3329,-6 L3330,-3 L3331,-2 L3332,-2 L3333,-2 L3334,-3 L3335,-2 L3336,-3 L3337,-3 L3338,-4 L3339,-3 L3340,-3 L3341,-4 L3342,-3 L3343,-3 L3344,-5 L3345,-1 L3346,-3 L3347,-1 L3348,-4 L3349,-2 
L3350,-3 L3351,-5 L3352,-3 L3353,-4 L3354,-3 L3355,-3 L3356,-2 L3357,-4 L3358,-3 L3359,-3 L3360,-3 L3361,-3 L3362,-6 L3363,-4 L3364,-4 L3365,-3 L3366,-2 L3367,-5 L3368,-4 L3369,-6 L3370,-1 L3371,-3 L3372,-3 L3373,-3 L3374,-4 L3375,-4 L3376,-3 L3377,-3 L3378,-3 L3379,-2 L3380,-5 L3381,-2 L3382,-4 L3383,-3 L3384,-2 L3385,-3 L3386,-2 L3387,-3 L3388,-5 L3389,-4 L3390,-4 L3391,-3 L3392,-1 L3393,-2 L3394,-4 L3395,-3 L3396,-3 L3397,-4 L3398,-4 L3399,-3 L3400,-4 L3401,-3 L3402,-1 L3403,-5 L3404,-2 L3405,-2 L3406,-2 L3407,27 L3408,6 L3409,-21 L3410,0 L3411,4 L3412,12 L3413,12 L3414,1 L3415,2 L3416,2 L3417,1 L3418,5 L3419,5 L3420,-1 L3421,3 L3422,1 L3423,3 L3424,3 L3425,2 L3426,2 L3427,3 L3428,3 L3429,0 L3430,0 L3431,2 L3432,5 L3433,1 L3434,0 L3435,-1 L3436,0 L3437,1 L3438,0 L3439,1 L3440,-3 L3441,-2 L3442,-2 L3443,0 L3444,0 L3445,0 L3446,-2 L3447,-2 L3448,-1 L3449,-3 
L3450,0 L3451,-1 L3452,-1 L3453,-1 L3454,-1 L3455,-1 L3456,-1 L3457,-2 L3458,0 L3459,0 L3460,-3 L3461,-4 L3462,-1 L3463,-2 L3464,-1 L3465,0 L3466,-1 L3467,-2 L3468,-3 L3469,-4 L3470,0 L3471,-3 L3472,0 L3473,-3 L3474,-3 L3475,-3 L3476,-1 L3477,-1 L3478,0 L3479,-1 L3480,-2 L3481,-2 L3482,-3 L3483,-4 L3484,-2 L3485,-2 L3486,-1 L3487,-2 L3488,-3 L3489,-3 L3490,0 L3491,0 L3492,-1 L3493,-3 L3494,-3 L3495,-1 L3496,-2 L3497,-2 L3498,-2 L3499,-2 L3500,-4 L3501,-1 L3502,-2 L3503,-1 L3504,-1 L3505,-2 L3506,-3 L3507,-2 L3508,-1 L3509,-3 L3510,-2 L3511,-2 L3512,-2 L3513,-1 L3514,-3 L3515,-4 L3516,-1 L3517,-2 L3518,-3 L3519,-1 L3520,-3 L3521,-3 L3522,-3 L3523,-4 L3524,-4 L3525,-2 L3526,-3 L3527,-3 L3528,-3 L3529,-3 L3530,-2 L3531,-1 L3532,-2 L3533,-3 L3534,-2 L3535,-4 L3536,-4 L3537,-2 L3538,-2 L3539,0 L3540,-3 L3541,-3 L3542,-4 L3543,-4 L3544,-2 L3545,-2 L3546,-2 L3547,-3 L3548,-2 L3549,-4 
L3550,-2 L3551,-3 L3552,-3 L3553,-5 L3554,3 L3555,-8 L3556,-2 L3557,-3 L3558,-2 L3559,6 L3560,-15 L3561,27 L3562,8 L3563,-3 L3564,3 L3565,-7 L3566,0 L3567,1 L3568,0 L3569,1 L3570,-1 L3571,0 L3572,0 L3573,0 L3574,-2 L3575,-1 L3576,-3 L3577,0 L3578,-1 L3579,0 L3580,1 L3581,-3 L3582,-4 L3583,0 L3584,-1 L3585,-3 L3586,-1 L3587,-2 L3588,-1 L3589,-2 L3590,-1 L3591,-4 L3592,-1 L3593,-1 L3594,-1 L3595,0 L3596,0 L3597,-6 L3598,-4 L3599,2 L3600,3 L3601,-3 L3602,-5 L3603,-4 L3604,-2 L3605,-3 L3606,-1 L3607,-4 L3608,-4 L3609,-5 L3610,-1 L3611,-4 L3612,-1 L3613,-2 L3614,1 L3615,-3 L3616,0 L3617,-1 L3618,-1 L3619,-3 L3620,-2 L3621,-4 L3622,-3 L3623,-1 L3624,-3 L3625,-3 L3626,-4 L3627,-3 L3628,-4 L3629,-6 L3630,-5 L3631,-1 L3632,-4 L3633,-3 L3634,-2 L3635,1 L3636,1 L3637,-3 L3638,-5 L3639,-4 L3640,-2 L3641,-4 L3642,-1 L3643,-2 L3644,-3 L3645,-3 L3646,-3 L3647,-2 L3648,-1 L3649,0 
L3650,-1 L3651,-3 L3652,-3 L3653,-3 L3654,-3 L3655,-4 L3656,-3 L3657,-3 L3658,-5 L3659,-4 L3660,-2 L3661,-4 L3662,-1 L3663,-2 L3664,-4 L3665,-4 L3666,-3 L3667,-3 L3668,-3 L3669,-1 L3670,-4 L3671,-4 L3672,-4 L3673,-2 L3674,-3 L3675,1 L3676,-4 L3677,-4 L3678,-5 L3679,-4 L3680,-2 L3681,-4 L3682,-2 L3683,-1 L3684,-3 L3685,-4 L3686,-2 L3687,-3 L3688,-2 L3689,0 L3690,-4 L3691,-3 L3692,-3 L3693,-4 L3694,-3 L3695,-6 L3696,-4 L3697,-2 L3698,-4 L3699,-4 L3700,-2 L3701,-2 L3702,0 L3703,-4 L3704,-3 L3705,-8 L3706,-9 L3707,-5 L3708,-1 L3709,0 L3710,-2 L3711,8 L3712,4 L3713,27 L3714,6 L3715,-9 L3716,4 L3717,0 L3718,7 L3719,8 L3720,3 L3721,4 L3722,4 L3723,2 L3724,4 L3725,4 L3726,3 L3727,4 L3728,3 L3729,4 L3730,2 L3731,3 L3732,1 L3733,3 L3734,3 L3735,0 L3736,0 L3737,2 L3738,0 L3739,-1 L3740,0 L3741,0 L3742,1 L3743,-2 L3744,-3 L3745,-1 L3746,0 L3747,-2 L3748,1 L3749,0 
L3750,-3 L3751,-3 L3752,-2 L3753,-2 L3754,-1 L3755,0 L3756,3 L3757,-3 L3758,-3 L3759,-2 L3760,0 L3761,-1 L3762,-2 L3763,-3 L3764,-5 L3765,0 L3766,-2 L3767,0 L3768,-3 L3769,2 L3770,-2 L3771,-1 L3772,-1 L3773,-2 L3774,-1 L3775,0 L3776,2 L3777,0 L3778,-3 L3779,-3 L3780,-1 L3781,-1 L3782,-2 L3783,-2 L3784,-2 L3785,-2 L3786,-1 L3787,0 L3788,-1 L3789,-2 L3790,-4 L3791,-2 L3792,-2 L3793,-2 L3794,-2 L3795,-1 L3796,-3 L3797,-4 L3798,-1 L3799,-2 L3800,0 L3801,-1 L3802,-3 L3803,-3 L3804,-4 L3805,-4 L3806,-2 L3807,-2 L3808,-3 L3809,-2 L3810,-1 L3811,-4 L3812,-2 L3813,-2 L3814,0 L3815,-1 L3816,-1 L3817,-4 L3818,-2 L3819,-2 L3820,0 L3821,-1 L3822,-3 L3823,-3 L3824,-3 L3825,-2 L3826,-2 L3827,-2 L3828,-3 L3829,-3 L3830,-3 L3831,-12 L3832,-2 L3833,-1 L3834,-3 L3835,-4 L3836,-2 L3837,0 L3838,-2 L3839,-2 L3840,-4 L3841,-1 L3842,-5 L3843,-1 L3844,-3 L3845,-5 L3846,-3 L3847,-3 L3848,-6 L3849,-1 
L3850,-4 L3851,-4 L3852,-4 L3853,-3 L3854,-3 L3855,-1 L3856,-4 L3857,-16 L3858,-12 L3859,-8 L3860,-3 L3861,0 L3862,-4 L3863,-28 L3864,-5 L3865,-8 L3866,-8 L3867,16 L3868,5 L3869,3 L3870,-2 L3871,-4 L3872,-1 L3873,0 L3874,0 L3875,-1 L3876,-1 L3877,-3 L3878,-2 L3879,0 L3880,0 L3881,-2 L3882,-1 L3883,-1 L3884,0 L3885,-3 L3886,-4 L3887,0 L3888,0 L3889,-1 L3890,-1 L3891,-1 L3892,-4 L3893,-2 L3894,-2 L3895,-1 L3896,0 L3897,0 L3898,-12 L3899,8 L3900,-2 L3901,-4 L3902,-1 L3903,-2 L3904,-1 L3905,-4 L3906,-3 L3907,-2 L3908,-2 L3909,-2 L3910,-2 L3911,-2 L3912,-4 L3913,-4 L3914,-1 L3915,-2 L3916,-1 L3917,-1 L3918,-2 L3919,-2 L3920,-2 L3921,-4 L3922,-2 L3923,-2 L3924,-3 L3925,-4 L3926,-2 L3927,-4 L3928,-1 L3929,-2 L3930,-3 L3931,-2 L3932,-4 L3933,-2 L3934,-1 L3935,-3 L3936,-2 L3937,-2 L3938,-2 L3939,-3 L3940,-2 L3941,-4 L3942,-1 L3943,-2 L3944,-3 L3945,-3 L3946,-6 L3947,-2 L3948,-2 L3949,-4 
L3950,-3 L3951,-1 L3952,-4 L3953,-3 L3954,-3 L3955,-3 L3956,-3 L3957,-1 L3958,3 L3959,-3 L3960,-4 L3961,-4 L3962,-2 L3963,-3 L3964,-2 L3965,-4 L3966,-5 L3967,-4 L3968,-4 L3969,-1 L3970,-1 L3971,-1 L3972,-6 L3973,-3 L3974,-3 L3975,0 L3976,-4 L3977,-2 L3978,-2 L3979,-4 L3980,-2 L3981,-4 L3982,-1 L3983,-1 L3984,-4 L3985,-4 L3986,-3 L3987,-1 L3988,-1 L3989,-2 L3990,-4 L3991,-3 L3992,-4 L3993,-3 L3994,-2 L3995,-3 L3996,-3 L3997,-3 L3998,-3 L3999,-5 L4000,-1 L4001,-3 L4002,-2 L4003,-1 L4004,-3 L4005,-5 L4006,-3 L4007,-1 L4008,-4 L4009,10 L4010,-6 L4011,-2 L4012,-5 L4013,-4 L4014,8 L4015,-26 L4016,-6 L4017,9 L4018,5 L4019,20 L4020,2 L4021,-2 L4022,3 L4023,1 L4024,5 L4025,5 L4026,3 L4027,1 L4028,1 L4029,3 L4030,3 L4031,2 L4032,1 L4033,3 L4034,2 L4035,1 L4036,3 L4037,2 L4038,1 L4039,-3 L4040,-1 L4041,0 L4042,1 L4043,1 L4044,0 L4045,-2 L4046,-1 L4047,0 L4048,0 L4049,1 
L4050,-3 L4051,-1 L4052,-1 L4053,-1 L4054,0 L4055,1 L4056,-2 L4057,0 L4058,-2 L4059,-3 L4060,0 L4061,-4 L4062,0 L4063,0 L4064,-1 L4065,0 L4066,0 L4067,-2 L4068,-1 L4069,0 L4070,-1 L4071,-2 L4072,-2 L4073,-4 L4074,-2 L4075,0 L4076,-5 L4077,-1 L4078,-3 L4079,-3 L4080,0 L4081,-1 L4082,0 L4083,0 L4084,-3 L4085,-5 L4086,-3 L4087,-2 L4088,0 L4089,-1 L4090,-3 L4091,-4 L4092,-4 L4093,-2 L4094,-1 L4095,-1 L4096,-4 L4097,-4 L4098,-2 L4099,2 L4100,1 L4101,-4 L4102,-6 L4103,0 L4104,-1 L4105,-2 L4106,-4 L4107,-3 L4108,-2 L4109,-1 L4110,-4 L4111,-1 L4112,-2 L4113,-4 L4114,-3 L4115,-4 L4116,-2 L4117,-2 L4118,0 L4119,-8 L4120,-2 L4121,-4 L4122,-4 L4123,0 L4124,-1 L4125,-1 L4126,-4 L4127,-4 L4128,-3 L4129,-1 L4130,-4 L4131,-2 L4132,-1 L4133,-4 L4134,-4 L4135,0 L4136,-1 L4137,-1 L4138,-4 L4139,0 L4140,2 L4141,0 L4142,-3 L4143,-2 L4144,-2 L4145,-4 L4146,-2 L4147,-4 L4148,-2 L4149,-3 
L4150,-3 L4151,-1 L4152,-1 L4153,-3 L4154,-1 L4155,-3 L4156,-3 L4157,-2 L4158,-3 L4159,-3 L4160,-5 L4161,34 L4162,-14 L4163,-8 L4164,-4 L4165,-4 L4166,15 L4167,21 L4168,16 L4169,-16 L4170,0 L4171,-9 L4172,-1 L4173,5 L4174,-1 L4175,1 L4176,-1 L4177,-2 L4178,0 L4179,-1 L4180,-1 L4181,-2 L4182,-2 L4183,-3 L4184,0 L4185,-2 L4186,0 L4187,-1 L4188,0 L4189,-1 L4190,-2 L4191,-2 L4192,-1 L4193,-1 L4194,-2 L4195,-3 L4196,-2 L4197,-3 L4198,-1 L4199,-1 L4200,-3 L4201,3 L4202,-3 L4203,-2 L4204,-1 L4205,0 L4206,-2 L4207,-3 L4208,-3 L4209,-1 L4210,-2 L4211,-2 L4212,-1 L4213,-1 L4214,-3 L4215,-3 L4216,-4 L4217,-3 L4218,-2 L4219,-1 L4220,-3 L4221,-6 L4222,-4 L4223,-3 L4224,-1 L4225,-4 L4226,-1 L4227,-1 L4228,-5 L4229,-4 L4230,-1 L4231,-2 L4232,-2 L4233,-1 L4234,-2 L4235,-3 L4236,-3 L4237,-4 L4238,-1 L4239,-1 L4240,-2 L4241,-4 L4242,-5 L4243,-2 L4244,-3 L4245,-3 L4246,-3 L4247,-1 L4248,-4 L4249,-5 
L4250,-4 L4251,-5 L4252,0 L4253,-2 L4254,-2 L4255,-3 L4256,-4 L4257,-3 L4258,-1 L4259,-1 L4260,-2 L4261,0 L4262,-4 L4263,-4 L4264,-4 L4265,-2 L4266,-1 L4267,-1 L4268,-3 L4269,-4 L4270,-4 L4271,-4 L4272,-1 L4273,-2 L4274,-3 L4275,-3 L4276,-4 L4277,-4 L4278,-2 L4279,-1 L4280,-3 L4281,-3 L4282,-4 L4283,-2 L4284,-3 L4285,-1 L4286,-3 L4287,-3 L4288,-4 L4289,-4 L4290,1 L4291,-5 L4292,-2 L4293,-2 L4294,-2 L4295,-4 L4296,-4 L4297,-4 L4298,-3 L4299,-4 L4300,-2 L4301,-1 L4302,2 L4303,-2 L4304,-3 L4305,-2 L4306,-4 L4307,-3 L4308,-3 L4309,-9 L4310,-4 L4311,-3 L4312,-2 L4313,1 L4314,-4 L4315,-3 L4316,-3 L4317,-4 L4318,46 L4319,20 L4320,0 L4321,-12 L4322,-1 L4323,2 L4324,11 L4325,10 L4326,3 L4327,5 L4328,2 L4329,-1 L4330,6 L4331,1 L4332,4 L4333,4 L4334,0 L4335,3 L4336,2 L4337,3 L4338,4 L4339,4 L4340,3 L4341,0 L4342,0 L4343,1 L4344,1 L4345,1 L4346,0 L4347,0 L4348,-1 L4349,-3 
L4350,0 L4351,0 L4352,1 L4353,0 L4354,-3 L4355,-2 L4356,0 L4357,-1 L4358,0 L4359,0 L4360,-3 L4361,0 L4362,-1 L4363,-5 L4364,-4 L4365,1 L4366,0 L4367,1 L4368,-2 L4369,0 L4370,-2 L4371,-2 L4372,-1 L4373,-2 L4374,-1 L4375,-3 L4376,-1 L4377,3 L4378,1 L4379,-1 L4380,-2 L4381,-2 L4382,-3 L4383,4 L4384,3 L4385,-2 L4386,0 L4387,-1 L4388,-4 L4389,-2 L4390,-3 L4391,0 L4392,-4 L4393,-1 L4394,-1 L4395,-3 L4396,-1 L4397,0 L4398,-1 L4399,-2 L4400,-4 L4401,-1 L4402,-3 L4403,-3 L4404,-2 L4405,-3 L4406,-5 L4407,1 L4408,-2 L4409,-3 L4410,-1 L4411,-1 L4412,-3 L4413,-2 L4414,-3 L4415,-2 L4416,-2 L4417,-2 L4418,-1 L4419,-3 L4420,-6 L4421,4 L4422,3 L4423,-3 L4424,-6 L4425,-5 L4426,-1 L4427,-2 L4428,-2 L4429,-5 L4430,-3 L4431,-4 L4432,-3 L4433,-3 L4434,0 L4435,-1 L4436,-4 L4437,-3 L4438,-2 L4439,-2 L4440,-1 L4441,-1 L4442,-1 L4443,-1 L4444,-4 L4445,-2 L4446,-3 L4447,-2 L4448,-4 L4449,-3 
L4450,-2 L4451,-4 L4452,-3 L4453,-2 L4454,-1 L4455,-2 L4456,-4 L4457,-2 L4458,-2 L4459,-4 L4460,-2 L4461,1 L4462,-3 L4463,-3 L4464,-7 L4465,16 L4466,-5 L4467,0 L4468,-4 L4469,-6 L4470,-26 L4471,10 L4472,-2 L4473,20 L4474,5 L4475,-3 L4476,-2 L4477,-5 L4478,0 L4479,0 L4480,0 L4481,2 L4482,-2 L4483,-1 L4484,-1 L4485,-1 L4486,0 L4487,-3 L4488,-1 L4489,-1 L4490,-2 L4491,-2 L4492,0 L4493,1 L4494,1 L4495,-2 L4496,-1 L4497,-3 L4498,-1 L4499,-2 L4500,-3 L4501,-1 L4502,-4 L4503,-5 L4504,-5 L4505,-3 L4506,-2 L4507,-1 L4508,-3 L4509,-2 L4510,-3 L4511,-2 L4512,-2 L4513,-4 L4514,-3 L4515,-3 L4516,-3 L4517,-4 L4518,-2 L4519,-2 L4520,-2 L4521,0 L4522,-3 L4523,-2 L4524,-3 L4525,-4 L4526,-3 L4527,-1 L4528,-3 L4529,-2 L4530,-8 L4531,-2 L4532,-2 L4533,-5 L4534,-2 L4535,-3 L4536,-4 L4537,-3 L4538,-3 L4539,-4 L4540,-2 L4541,-1 L4542,-4 L4543,-3 L4544,-5 L4545,1 L4546,-1 L4547,-4 L4548,-5 L4549,-2 
L4550,-3 L4551,-5 L4552,-1 L4553,-2 L4554,-2 L4555,-2 L4556,-3 L4557,-4 L4558,-2 L4559,-3 L4560,-3 L4561,-2 L4562,-4 L4563,-4 L4564,-3 L4565,-2 L4566,-3 L4567,-3 L4568,-4 L4569,-3 L4570,-3 L4571,-3 L4572,-2 L4573,-1 L4574,-2 L4575,-2 L4576,-2 L4577,-3 L4578,-2 L4579,-3 L4580,-2 L4581,-1 L4582,-4 L4583,-4 L4584,-3 L4585,-3 L4586,-1 L4587,-2 L4588,-1 L4589,-3 L4590,-4 L4591,-4 L4592,-3 L4593,-1 L4594,-3 L4595,-4 L4596,-4 L4597,-3 L4598,-1 L4599,-4 L4600,-2 L4601,-2 L4602,-4 L4603,-3 L4604,-3 L4605,-2 L4606,-4 L4607,-2 L4608,-2 L4609,-3 L4610,-4 L4611,-2 L4612,-2 L4613,1 L4614,-2 L4615,-3 L4616,-4 L4617,-11 L4618,-1 L4619,-1 L4620,-3 L4621,-3 L4622,-21 L4623,15 L4624,7 L4625,21 L4626,5 L4627,-6 L4628,3 L4629,0 L4630,5 L4631,7 L4632,3 L4633,6 L4634,3 L4635,3 L4636,4 L4637,0 L4638,3 L4639,10 L4640,2 L4641,3 L4642,3 L4643,-1 L4644,1 L4645,1 L4646,-4 L4647,0 L4648,1 L4649,-2 
L4650,-1 L4651,-1 L4652,0 L4653,2 L4654,-1 L4655,0 L4656,-2 L4657,-1 L4658,-1 L4659,0 L4660,0 L4661,-1 L4662,-4 L4663,-2 L4664,1 L4665,-2 L4666,-4 L4667,-2 L4668,-3 L4669,-1 L4670,-1 L4671,-2 L4672,-3 L4673,0 L4674,-1 L4675,-1 L4676,-2 L4677,-2 L4678,-1 L4679,-2 L4680,-2 L4681,-2 L4682,0 L4683,-1 L4684,-1 L4685,0 L4686,-3 L4687,-5 L4688,-1 L4689,3 L4690,3 L4691,-2 L4692,-12 L4693,9 L4694,1 L4695,-2 L4696,-2 L4697,-2 L4698,-2 L4699,-2 L4700,-2 L4701,-3 L4702,0 L4703,0 L4704,-4 L4705,-2 L4706,-2 L4707,0 L4708,0 L4709,-1 L4710,-3 L4711,-1 L4712,-4 L4713,-3 L4714,-2 L4715,-2 L4716,-2 L4717,-1 L4718,-2 L4719,-4 L4720,-2 L4721,-2 L4722,0 L4723,-1 L4724,-2 L4725,-3 L4726,-3 L4727,-8 L4728,-2 L4729,-1 L4730,-3 L4731,-3 L4732,-3 L4733,-4 L4734,-3 L4735,-3 L4736,-1 L4737,-3 L4738,-4 L4739,-2 L4740,-4 L4741,-3 L4742,-1 L4743,-2 L4744,-4 L4745,-3 L4746,-4 L4747,-4 L4748,-2 L4749,-1 
L4750,-4 L4751,-2 L4752,-2 L4753,-4 L4754,-2 L4755,-3 L4756,-2 L4757,-3 L4758,-4 L4759,-4 L4760,-3 L4761,-2 L4762,-2 L4763,-3 L4764,-5 L4765,-5 L4766,-3 L4767,-2 L4768,-7 L4769,-24 L4770,6 L4771,0 L4772,-6 L4773,-4 L4774,13 L4775,-29 L4776,1 L4777,-9 L4778,-6 L4779,8 L4780,-2 L4781,1 L4782,1 L4783,-1 L4784,0 L4785,-2 L4786,-1 L4787,0 L4788,0 L4789,0 L4790,0 L4791,0 L4792,-2 L4793,-2 L4794,-1 L4795,0 L4796,1 L4797,-2 L4798,-5 L4799,-3 L4800,-3 L4801,0 L4802,0 L4803,0 L4804,-4 L4805,-2 L4806,-5 L4807,-2 L4808,1 L4809,0 L4810,-3 L4811,-2 L4812,-3 L4813,-5 L4814,-3 L4815,-2 L4816,-3 L4817,-2 L4818,-3 L4819,-3 L4820,-3 L4821,-4 L4822,-2 L4823,-2 L4824,-3 L4825,-3 L4826,-2 L4827,-1 L4828,3 L4829,-1 L4830,-4 L4831,-1 L4832,-5 L4833,-4 L4834,-2 L4835,-4 L4836,-6 L4837,-2 L4838,-4 L4839,-3 L4840,-3 L4841,-3 L4842,-2 L4843,-1 L4844,-3 L4845,-3 L4846,-3 L4847,-4 L4848,-2 L4849,-3 
L4850,-2 L4851,-2 L4852,-3 L4853,-4 L4854,-3 L4855,-3 L4856,-3 L4857,-4 L4858,-3 L4859,-3 L4860,-3 L4861,-4 L4862,-1 L4863,-2 L4864,-3 L4865,-4 L4866,-3 L4867,-4 L4868,-1 L4869,-2 L4870,-4 L4871,-2 L4872,-4 L4873,-4 L4874,-4 L4875,-4 L4876,-1 L4877,-1 L4878,-3 L4879,-3 L4880,-4 L4881,-4 L4882,-1 L4883,-2 L4884,-4 L4885,-3 L4886,-5 L4887,-3 L4888,-2 L4889,-1 L4890,6 L4891,0 L4892,0 L4893,-4 L4894,-3 L4895,-4 L4896,-4 L4897,-7 L4898,-3 L4899,-3 L4900,-2 L4901,-4 L4902,-2 L4903,-3 L4904,-2 L4905,-2 L4906,-3 L4907,0 L4908,-3 L4909,2 L4910,-4 L4911,1 L4912,-2 L4913,-7 L4914,-4 L4915,-4 L4916,-3 L4917,-4 L4918,-4 L4919,-4 L4920,-7 L4921,-2 L4922,-3 L4923,-3 L4924,-2 L4925,-1 L4926,28 L4927,-32 L4928,1 L4929,8 L4930,4 L4931,15 L4932,-2 L4933,1 L4934,4 L4935,0 L4936,4 L4937,4 L4938,1 L4939,5 L4940,2 L4941,1 L4942,2 L4943,2 L4944,3 L4945,3 L4946,2 L4947,3 L4948,0 L4949,4 
L4950,3 L4951,-1 L4952,-1 L4953,0 L4954,-1 L4955,2 L4956,0 L4957,-3 L4958,-4 L4959,1 L4960,0 L4961,-1 L4962,-1 L4963,-4 L4964,-1 L4965,-1 L4966,0 L4967,0 L4968,-1 L4969,-3 L4970,-3 L4971,-1 L4972,0 L4973,0 L4974,-2 L4975,-1 L4976,-1 L4977,-1 L4978,-1 L4979,1 L4980,-1 L4981,-1 L4982,-1 L4983,-3 L4984,1 L4985,0 L4986,-1 L4987,-1 L4988,-3 L4989,-7 L4990,4 L4991,-2 L4992,-1 L4993,-2 L4994,-3 L4995,-2 L4996,-2 L4997,-2 L4998,-1 L4999,-1 "/>
<path stroke="#00ff00" transform="translate(0,240) scale(0.128,-2.4)" fill="none" stroke-width="3" d="M0,-53 L1,-49 L2,-52 L3,-52 L4,-53 L5,-53 L6,-51 L7,-50 L8,-51 L9,-50 L10,-50 L11,-53 L12,-52 L13,-55 L14,-51 L15,-52 L16,-51 L17,-52 L18,-52 L19,-52 L20,-53 L21,-40 L22,-52 L23,-48 L24,-47 L25,-52 L26,-52 L27,-50 L28,-51 L29,-52 L30,-52 L31,-55 L32,-51 L33,-52 L34,-48 L35,-49 L36,-53 L37,-55 L38,-47 L39,-52 L40,-61 L41,-51 L42,-52 L43,-51 L44,-53 L45,-52 L46,-53 L47,-52 L48,-52 L49,-52 
L50,-51 L51,-52 L52,-53 L53,-52 L54,-55 L55,-50 L56,-52 L57,-49 L58,-49 L59,-51 L60,-53 L61,-53 L62,-50 L63,-51 L64,-52 L65,-52 L66,-52 L67,-50 L68,-51 L69,-76 L70,-56 L71,-49 L72,-55 L73,-53 L74,-60 L75,-44 L76,-74 L77,-60 L78,-44 L79,-59 L80,-55 L81,-58 L82,-59 L83,-56 L84,-55 L85,-53 L86,-51 L87,-58 L88,-48 L89,-56 L90,-60 L91,-72 L92,-54 L93,-53 L94,-52 L95,-55 L96,-53 L97,-51 L98,-51 L99,-52 L100,-53 L101,-54 L102,-53 L103,-52 L104,-53 L105,-54 L106,-56 L107,-54 L108,-54 L109,-52 L110,-52 L111,-52 L112,-53 L113,-54 L114,-53 L115,-53 L116,-53 L117,-52 L118,-52 L119,-53 L120,-52 L121,-52 L122,-53 L123,-52 L124,-52 L125,-52 L126,-53 L127,-52 L128,-53 L129,-52 L130,-52 L131,-51 L132,-51 L133,-54 L134,-52 L135,-54 L136,-52 L137,-51 L138,-50 L139,-52 L140,-52 L141,-54 L142,-53 L143,-52 L144,-52 L145,-53 L146,-52 L147,-55 L148,-53 L149,-52 
L150,-52 L151,-50 L152,-52 L153,-52 L154,-52 L155,-54 L156,-51 L157,-52 L158,-50 L159,-53 L160,-53 L161,-53 L162,-53 L163,-52 L164,-52 L165,-51 L166,-51 L167,-61 L168,-44 L169,-51 L170,-53 L171,-51 L172,-52 L173,-52 L174,-52 L175,-51 L176,-51 L177,-50 L178,-50 L179,-52 L180,-53 L181,-54 L182,-53 L183,-50 L184,-52 L185,-52 L186,-50 L187,-56 L188,-53 L189,-52 L190,-52 L191,-49 L192,-50 L193,-52 L194,-53 L195,-52 L196,-51 L197,-52 L198,-52 L199,-52 L200,-52 L201,-52 L202,-51 L203,-51 L204,-52 L205,-52 L206,-52 L207,-52 L208,-47 L209,-49 L210,-52 L211,-50 L212,-51 L213,-53 L214,-52 L215,-52 L216,-49 L217,-52 L218,-50 L219,-51 L220,-52 L221,-48 L222,-50 L223,-52 L224,-53 L225,-51 L226,-44 L227,-49 L228,-58 L229,-43 L230,-64 L231,-64 L232,-56 L233,-64 L234,-55 L235,-55 L236,-56 L237,-56 L238,-56 L239,-58 L240,-57 L241,-56 L242,-57 L243,-55 L244,-55 L245,-56 L246,-56 L247,-57 L248,-57 L249,-54 
L250,-53 L251,-52 L252,-53 L253,-54 L254,-54 L255,-54 L256,-56 L257,-54 L258,-52 L259,-54 L260,-53 L261,-55 L262,-53 L263,-52 L264,-54 L265,-54 L266,-53 L267,-54 L268,-53 L269,-52 L270,-54 L271,-50 L272,-52 L273,-55 L274,-53 L275,-53 L276,-53 L277,-51 L278,-51 L279,-53 L280,-52 L281,-53 L282,-52 L283,-52 L284,-52 L285,-52 L286,-52 L287,-53 L288,-66 L289,-49 L290,-53 L291,-56 L292,-51 L293,-51 L294,-53 L295,-54 L296,-54 L297,-53 L298,-50 L299,-51 L300,-51 L301,-51 L302,-54 L303,-55 L304,-52 L305,-49 L306,-50 L307,-56 L308,-51 L309,-51 L310,-53 L311,-50 L312,-52 L313,-52 L314,-55 L315,-52 L316,-51 L317,-53 L318,-50 L319,-55 L320,-51 L321,-55 L322,-50 L323,-52 L324,-51 L325,-50 L326,-53 L327,-55 L328,-48 L329,-53 L330,-54 L331,-56 L332,-51 L333,-51 L334,-52 L335,-51 L336,-53 L337,-51 L338,-52 L339,-53 L340,-51 L341,-51 L342,-52 L343,-52 L344,-53 L345,-50 L346,-51 L347,-52 L348,-51 L349,-52 
L350,-52 L351,-52 L352,-54 L353,-53 L354,-51 L355,-51 L356,-56 L357,-54 L358,-51 L359,-52 L360,-52 L361,-51 L362,-52 L363,-50 L364,-53 L365,-51 L366,-52 L367,-51 L368,-52 L369,-51 L370,-52 L371,-55 L372,-50 L373,-42 L374,-42 L375,-53 L376,-53 L377,-53 L378,-51 L379,-68 L380,-59 L381,-47 L382,-69 L383,-56 L384,-52 L385,-59 L386,-54 L387,-56 L388,-56 L389,-56 L390,-57 L391,-55 L392,-55 L393,-56 L394,-54 L395,-55 L396,-55 L397,-55 L398,-56 L399,-55 L400,-54 L401,-52 L402,-52 L403,-54 L404,-53 L405,-52 L406,-53 L407,-52 L408,-52 L409,-53 L410,-49 L411,-53 L412,-53 L413,-52 L414,-53 L415,-53 L416,-51 L417,-52 L418,-52 L419,-53 L420,-52 L421,-50 L422,-52 L423,-52 L424,-53 L425,-52 L426,-52 L427,-52 L428,-50 L429,-52 L430,-48 L431,-52 L432,-54 L433,-53 L434,-51 L435,-52 L436,-53 L437,-52 L438,-54 L439,-51 L440,-53 L441,-52 L442,-52 L443,-53 L444,-52 L445,-51 L446,-53 L447,-50 L448,-52 L449,-52 
L450,-51 L451,-52 L452,-52 L453,-51 L454,-52 L455,-53 L456,-52 L457,-53 L458,-52 L459,-51 L460,-51 L461,-50 L462,-50 L463,-52 L464,-51 L465,-52 L466,-51 L467,-50 L468,-51 L469,-53 L470,-51 L471,-57 L472,-56 L473,-53 L474,-51 L475,-52 L476,-51 L477,-53 L478,-54 L479,-52 L480,-52 L481,-52 L482,-51 L483,-52 L484,-54 L485,-52 L486,-51 L487,-49 L488,-50 L489,-53 L490,-53 L491,-50 L492,-52 L493,-50 L494,-50 L495,-52 L496,-52 L497,-52 L498,-53 L499,-52 L500,-50 L501,-51 L502,-50 L503,-54 L504,-53 L505,-52 L506,-51 L507,-51 L508,-51 L509,-52 L510,-53 L511,-50 L512,-52 L513,-50 L514,-52 L515,-51 L516,-52 L517,-52 L518,-53 L519,-50 L520,-49 L521,-51 L522,-52 L523,-52 L524,-54 L525,-52 L526,-52 L527,-50 L528,-52 L529,-54 L530,-59 L531,-80 L532,-63 L533,-64 L534,-52 L535,-50 L536,-55 L537,-55 L538,-60 L539,-60 L540,-56 L541,-57 L542,-56 L543,-57 L544,-57 L545,-56 L546,-56 L547,-56 L548,-56 L549,-56 
L550,-57 L551,-50 L552,-53 L553,-53 L554,-55 L555,-55 L556,-52 L557,-53 L558,-57 L559,-54 L560,-48 L561,-48 L562,-54 L563,-56 L564,-53 L565,-54 L566,-54 L567,-51 L568,-53 L569,-55 L570,-59 L571,-49 L572,-52 L573,-52 L574,-52 L575,-52 L576,-54 L577,-53 L578,-52 L579,-50 L580,-53 L581,-52 L582,-53 L583,-45 L584,-52 L585,-53 L586,-53 L587,-53 L588,-54 L589,-53 L590,-52 L591,-52 L592,-53 L593,-53 L594,-52 L595,-52 L596,-52 L597,-54 L598,-51 L599,-51 L600,-53 L601,-53 L602,-52 L603,-54 L604,-52 L605,-52 L606,-52 L607,-52 L608,-52 L609,-52 L610,-50 L611,-53 L612,-50 L613,-55 L614,-53 L615,-52 L616,-51 L617,-51 L618,-53 L619,-55 L620,-53 L621,-47 L622,-50 L623,-51 L624,-50 L625,-53 L626,-53 L627,-51 L628,-52 L629,-51 L630,-51 L631,-52 L632,-53 L633,-52 L634,-52 L635,-50 L636,-50 L637,-51 L638,-51 L639,-52 L640,-53 L641,-52 L642,-51 L643,-51 L644,-52 L645,-54 L646,-52 L647,-52 L648,-53 L649,-51 
L650,-50 L651,-52 L652,-54 L653,-52 L654,-52 L655,-52 L656,-50 L657,-52 L658,-53 L659,-52 L660,-52 L661,-50 L662,-51 L663,-52 L664,-51 L665,-52 L666,-52 L667,-50 L668,-53 L669,-51 L670,-50 L671,-52 L672,-52 L673,-52 L674,-51 L675,-50 L676,-65 L677,-42 L678,-52 L679,-49 L680,-50 L681,-63 L682,-59 L683,-67 L684,-47 L685,-65 L686,-54 L687,-50 L688,-61 L689,-54 L690,-55 L691,-59 L692,-55 L693,-56 L694,-55 L695,-53 L696,-56 L697,-56 L698,-55 L699,-55 L700,-56 L701,-56 L702,-52 L703,-55 L704,-52 L705,-53 L706,-51 L707,-55 L708,-52 L709,-53 L710,-52 L711,-54 L712,-54 L713,-57 L714,-52 L715,-52 L716,-53 L717,-52 L718,-53 L719,-53 L720,-52 L721,-49 L722,-52 L723,-52 L724,-52 L725,-53 L726,-53 L727,-52 L728,-52 L729,-52 L730,-52 L731,-52 L732,-54 L733,-52 L734,-53 L735,-51 L736,-52 L737,-53 L738,-53 L739,-52 L740,-53 L741,-50 L742,-52 L743,-52 L744,-53 L745,-52 L746,-51 L747,-52 L748,-52 L749,-52 
L750,-52 L751,-53 L752,-54 L753,-52 L754,-51 L755,-50 L756,-53 L757,-52 L758,-52 L759,-53 L760,-52 L761,-52 L762,-49 L763,-53 L764,-52 L765,-53 L766,-53 L767,-52 L768,-50 L769,-52 L770,-48 L771,-52 L772,-52 L773,-52 L774,-53 L775,-51 L776,-51 L777,-52 L778,-53 L779,-52 L780,-52 L781,-51 L782,-53 L783,-53 L784,-52 L785,-51 L786,-52 L787,-51 L788,-51 L789,-51 L790,-51 L791,-54 L792,-53 L793,-51 L794,-56 L795,-50 L796,-52 L797,-53 L798,-54 L799,-51 L800,-52 L801,-52 L802,-50 L803,-52 L804,-52 L805,-51 L806,-51 L807,-51 L808,-49 L809,-52 L810,-52 L811,-53 L812,-53 L813,-52 L814,-53 L815,-51 L816,-52 L817,-52 L818,-53 L819,-50 L820,-52 L821,-51 L822,-48 L823,-50 L824,-51 L825,-52 L826,-53 L827,-53 L828,-39 L829,-51 L830,-55 L831,-56 L832,-49 L833,-77 L834,-46 L835,-39 L836,-58 L837,-61 L838,-68 L839,-63 L840,-57 L841,-57 L842,-52 L843,-58 L844,-58 L845,-59 L846,-59 L847,-56 L848,-65 L849,-52 
L850,-55 L851,-54 L852,-55 L853,-53 L854,-56 L855,-55 L856,-52 L857,-53 L858,-56 L859,-55 L860,-54 L861,-53 L862,-52 L863,-54 L864,-51 L865,-52 L866,-53 L867,-53 L868,-53 L869,-52 L870,-53 L871,-52 L872,-51 L873,-51 L874,-54 L875,-56 L876,-53 L877,-55 L878,-49 L879,-50 L880,-55 L881,-58 L882,-51 L883,-52 L884,-53 L885,-55 L886,-54 L887,-52 L888,-54 L889,-52 L890,-54 L891,-52 L892,-51 L893,-53 L894,-51 L895,-54 L896,-53 L897,-52 L898,-52 L899,-52 L900,-52 L901,-52 L902,-53 L903,-52 L904,-53 L905,-51 L906,-52 L907,-53 L908,-53 L909,-52 L910,-54 L911,-52 L912,-51 L913,-52 L914,-52 L915,-52 L916,-51 L917,-52 L918,-52 L919,-49 L920,-53 L921,-53 L922,-52 L923,-52 L924,-51 L925,-51 L926,-51 L927,-52 L928,-53 L929,-53 L930,-52 L931,-52 L932,-52 L933,-52 L934,-52 L935,-53 L936,-52 L937,-51 L938,-52 L939,-51 L940,-51 L941,-53 L942,-52 L943,-53 L944,-51 L945,-52 L946,-51 L947,-52 L948,-52 L949,-53 
L950,-52 L951,-51 L952,-51 L953,-52 L954,-52 L955,-53 L956,-50 L957,-52 L958,-51 L959,-51 L960,-51 L961,-52 L962,-52 L963,-53 L964,-54 L965,-51 L966,-52 L967,-52 L968,-52 L969,-51 L970,-53 L971,-52 L972,-50 L973,-50 L974,-52 L975,-52 L976,-53 L977,-52 L978,-51 L979,-50 L980,-3 L981,-64 L982,-56 L983,-51 L984,-53 L985,-87 L986,-68 L987,-38 L988,-57 L989,-56 L990,-56 L991,-63 L992,-55 L993,-56 L994,-59 L995,-54 L996,-56 L997,-56 L998,-53 L999,-55 L1000,-56 L1001,-56 L1002,-56 L1003,-56 L1004,-54 L1005,-53 L1006,-53 L1007,-53 L1008,-52 L1009,-53 L1010,-53 L1011,-52 L1012,-53 L1013,-52 L1014,-53 L1015,-53 L1016,-53 L1017,-52 L1018,-50 L1019,-52 L1020,-53 L1021,-54 L1022,-54 L1023,-52 L1024,-52 L1025,-53 L1026,-52 L1027,-53 L1028,-53 L1029,-53 L1030,-53 L1031,-52 L1032,-51 L1033,-52 L1034,-52 L1035,-53 L1036,-52 L1037,-53 L1038,-52 L1039,-53 L1040,-50 L1041,-53 L1042,-55 L1043,-53 L1044,-52 L1045,-53 L1046,-51 L1047,-53 L1048,-53 L1049,-53 
L1050,-53 L1051,-51 L1052,-52 L1053,-51 L1054,-52 L1055,-54 L1056,-51 L1057,-47 L1058,-52 L1059,-51 L1060,-52 L1061,-53 L1062,-53 L1063,-52 L1064,-52 L1065,-51 L1066,-51 L1067,-52 L1068,-52 L1069,-58 L1070,-53 L1071,-52 L1072,-51 L1073,-53 L1074,-52 L1075,-52 L1076,-52 L1077,-53 L1078,-51 L1079,-52 L1080,-51 L1081,-52 L1082,-61 L1083,-50 L1084,-50 L1085,-52 L1086,-53 L1087,-52 L1088,-52 L1089,-52 L1090,-52 L1091,-51 L1092,-51 L1093,-53 L1094,-50 L1095,-52 L1096,-51 L1097,-52 L1098,-53 L1099,-53 L1100,-48 L1101,-47 L1102,-57 L1103,-56 L1104,-51 L1105,-50 L1106,-52 L1107,-52 L1108,-51 L1109,-52 L1110,-53 L1111,-52 L1112,-49 L1113,-51 L1114,-51 L1115,-52 L1116,-55 L1117,-53 L1118,-50 L1119,-47 L1120,-50 L1121,-53 L1122,-52 L1123,-54 L1124,-52 L1125,-52 L1126,-55 L1127,-53 L1128,-56 L1129,-52 L1130,-52 L1131,-51 L1132,-54 L1133,-48 L1134,-50 L1135,-52 L1136,-52 L1137,-97 L1138,-77 L1139,-65 L1140,-50 L1141,-61 L1142,-47 L1143,-58 L1144,-61 L1145,-58 L1146,-59 L1147,-55 L1148,-53 L1149,-65 
L1150,-44 L1151,-56 L1152,-58 L1153,-54 L1154,-56 L1155,-56 L1156,-56 L1157,-57 L1158,-60 L1159,-56 L1160,-53 L1161,-56 L1162,-53 L1163,-54 L1164,-54 L1165,-53 L1166,-53 L1167,-53 L1168,-52 L1169,-53 L1170,-54 L1171,-53 L1172,-53 L1173,-52 L1174,-53 L1175,-53 L1176,-52 L1177,-52 L1178,-53 L1179,-51 L1180,-51 L1181,-53 L1182,-53 L1183,-52 L1184,-53 L1185,-53 L1186,-52 L1187,-54 L1188,-52 L1189,-53 L1190,-53 L1191,-52 L1192,-52 L1193,-52 L1194,-52 L1195,-54 L1196,-53 L1197,-53 L1198,-52 L1199,-52 L1200,-50 L1201,-52 L1202,-52 L1203,-53 L1204,-54 L1205,-53 L1206,-51 L1207,-51 L1208,-51 L1209,-53 L1210,-53 L1211,-51 L1212,-51 L1213,-51 L1214,-50 L1215,-54 L1216,-52 L1217,-52 L1218,-50 L1219,-54 L1220,-50 L1221,-52 L1222,-56 L1223,-52 L1224,-52 L1225,-51 L1226,-48 L1227,-48 L1228,-52 L1229,-51 L1230,-53 L1231,-52 L1232,-52 L1233,-50 L1234,-51 L1235,-53 L1236,-52 L1237,-53 L1238,-52 L1239,-45 L1240,-50 L1241,-54 L1242,-53 L1243,-54 L1244,-53 L1245,-52 L1246,-52 L1247,-53 L1248,-52 L1249,-53 
L1250,-52 L1251,-52 L1252,-52 L1253,-51 L1254,-51 L1255,-52 L1256,-52 L1257,-51 L1258,-52 L1259,-51 L1260,-49 L1261,-53 L1262,-52 L1263,-52 L1264,-52 L1265,-52 L1266,-48 L1267,-50 L1268,-55 L1269,-51 L1270,-52 L1271,-52 L1272,-52 L1273,-52 L1274,-51 L1275,-54 L1276,-53 L1277,-52 L1278,-52 L1279,-50 L1280,-51 L1281,-52 L1282,-53 L1283,-52 L1284,-59 L1285,-43 L1286,-49 L1287,-54 L1288,-53 L1289,-69 L1290,-67 L1291,-69 L1292,-60 L1293,-48 L1294,-55 L1295,-54 L1296,-55 L1297,-60 L1298,-54 L1299,-56 L1300,-60 L1301,-56 L1302,-56 L1303,-55 L1304,-55 L1305,-55 L1306,-56 L1307,-56 L1308,-57 L1309,-54 L1310,-56 L1311,-54 L1312,-51 L1313,-51 L1314,-52 L1315,-53 L1316,-53 L1317,-52 L1318,-52 L1319,-52 L1320,-53 L1321,-53 L1322,-53 L1323,-52 L1324,-54 L1325,-52 L1326,-52 L1327,-52 L1328,-53 L1329,-51 L1330,-53 L1331,-51 L1332,-51 L1333,-52 L1334,-52 L1335,-54 L1336,-53 L1337,-52 L1338,-51 L1339,-52 L1340,-52 L1341,-52 L1342,-54 L1343,-52 L1344,-53 L1345,-51 L1346,-52 L1347,-57 L1348,-54 L1349,-55 
L1350,-49 L1351,-49 L1352,-56 L1353,-54 L1354,-52 L1355,-49 L1356,-52 L1357,-51 L1358,-53 L1359,-52 L1360,-52 L1361,-52 L1362,-52 L1363,-51 L1364,-53 L1365,-52 L1366,-53 L1367,-55 L1368,-51 L1369,-51 L1370,-56 L1371,-57 L1372,-53 L1373,-50 L1374,-51 L1375,-50 L1376,-53 L1377,-53 L1378,-53 L1379,-50 L1380,-50 L1381,-53 L1382,-50 L1383,-55 L1384,-52 L1385,-52 L1386,-51 L1387,-51 L1388,-50 L1389,-52 L1390,-51 L1391,-55 L1392,-48 L1393,-48 L1394,-53 L1395,-51 L1396,-51 L1397,-50 L1398,-51 L1399,-51 L1400,-53 L1401,-54 L1402,-51 L1403,-52 L1404,-52 L1405,-52 L1406,-53 L1407,-51 L1408,-53 L1409,-52 L1410,-52 L1411,-53 L1412,-51 L1413,-52 L1414,-51 L1415,-56 L1416,-51 L1417,-51 L1418,-52 L1419,-53 L1420,-52 L1421,-45 L1422,-49 L1423,-51 L1424,-50 L1425,-53 L1426,-52 L1427,-52 L1428,-52 L1429,-51 L1430,-50 L1431,-52 L1432,-50 L1433,-51 L1434,-52 L1435,-49 L1436,-52 L1437,-52 L1438,-54 L1439,-52 L1440,-51 L1441,-72 L1442,-41 L1443,-46 L1444,-72 L1445,-51 L1446,-64 L1447,-63 L1448,-52 L1449,-59 
L1450,-56 L1451,-56 L1452,-61 L1453,-58 L1454,-56 L1455,-57 L1456,-55 L1457,-56 L1458,-58 L1459,-56 L1460,-57 L1461,-55 L1462,-57 L1463,-55 L1464,-53 L1465,-56 L1466,-55 L1467,-54 L1468,-53 L1469,-53 L1470,-55 L1471,-54 L1472,-54 L1473,-53 L1474,-53 L1475,-51 L1476,-53 L1477,-53 L1478,-52 L1479,-53 L1480,-54 L1481,-53 L1482,-53 L1483,-53 L1484,-52 L1485,-53 L1486,-52 L1487,-52 L1488,-53 L1489,-52 L1490,-55 L1491,-53 L1492,-56 L1493,-53 L1494,-53 L1495,-51 L1496,-52 L1497,-53 L1498,-53 L1499,-53 L1500,-52 L1501,-52 L1502,-47 L1503,-52 L1504,-51 L1505,-53 L1506,-52 L1507,-52 L1508,-52 L1509,-52 L1510,-53 L1511,-52 L1512,-54 L1513,-53 L1514,-52 L1515,-51 L1516,-51 L1517,-51 L1518,-52 L1519,-52 L1520,-53 L1521,-52 L1522,-52 L1523,-50 L1524,-52 L1525,-53 L1526,-52 L1527,-52 L1528,-52 L1529,-52 L1530,-50 L1531,-55 L1532,-52 L1533,-52 L1534,-52 L1535,-51 L1536,-51 L1537,-51 L1538,-51 L1539,-51 L1540,-52 L1541,-52 L1542,-51 L1543,-52 L1544,-51 L1545,-53 L1546,-52 L1547,-52 L1548,-52 L1549,-52 
L1550,-51 L1551,-51 L1552,-52 L1553,-50 L1554,-52 L1555,-52 L1556,-51 L1557,-52 L1558,-52 L1559,-51 L1560,-52 L1561,-51 L1562,-52 L1563,-52 L1564,-50 L1565,-52 L1566,-53 L1567,-51 L1568,-52 L1569,-52 L1570,-51 L1571,-51 L1572,-53 L1573,-54 L1574,-53 L1575,-50 L1576,-50 L1577,-53 L1578,-53 L1579,-52 L1580,-53 L1581,-52 L1582,-50 L1583,-49 L1584,-53 L1585,-53 L1586,-51 L1587,-50 L1588,-63 L1589,-48 L1590,-50 L1591,-52 L1592,-52 L1593,-61 L1594,-36 L1595,-55 L1596,-61 L1597,-64 L1598,-61 L1599,-56 L1600,-59 L1601,-53 L1602,-54 L1603,-59 L1604,-54 L1605,-57 L1606,-57 L1607,-55 L1608,-54 L1609,-54 L1610,-54 L1611,-56 L1612,-57 L1613,-54 L1614,-57 L1615,-54 L1616,-49 L1617,-51 L1618,-52 L1619,-55 L1620,-51 L1621,-55 L1622,-49 L1623,-51 L1624,-54 L1625,-57 L1626,-52 L1627,-52 L1628,-52 L1629,-53 L1630,-53 L1631,-53 L1632,-53 L1633,-53 L1634,-53 L1635,-50 L1636,-52 L1637,-51 L1638,-55 L1639,-54 L1640,-49 L1641,-50 L1642,-55 L1643,-54 L1644,-52 L1645,-49 L1646,-52 L1647,-53 L1648,-53 L1649,-54 
L1650,-52 L1651,-53 L1652,-52 L1653,-50 L1654,-54 L1655,-52 L1656,-52 L1657,-53 L1658,-49 L1659,-53 L1660,-52 L1661,-52 L1662,-51 L1663,-52 L1664,-46 L1665,-51 L1666,-52 L1667,-52 L1668,-52 L1669,-52 L1670,-52 L1671,-55 L1672,-46 L1673,-48 L1674,-53 L1675,-58 L1676,-53 L1677,-52 L1678,-51 L1679,-48 L1680,-54 L1681,-51 L1682,-54 L1683,-52 L1684,-55 L1685,-51 L1686,-52 L1687,-52 L1688,-53 L1689,-52 L1690,-52 L1691,-50 L1692,-51 L1693,-53 L1694,-52 L1695,-52 L1696,-51 L1697,-51 L1698,-52 L1699,-51 L1700,-54 L1701,-53 L1702,-52 L1703,-51 L1704,-51 L1705,-51 L1706,-52 L1707,-52 L1708,-52 L1709,-52 L1710,-52 L1711,-52 L1712,-52 L1713,-55 L1714,-53 L1715,-52 L1716,-52 L1717,-51 L1718,-52 L1719,-49 L1720,-55 L1721,-54 L1722,-53 L1723,-52 L1724,-50 L1725,-53 L1726,-51 L1727,-52 L1728,-53 L1729,-51 L1730,-51 L1731,-52 L1732,-51 L1733,-50 L1734,-53 L1735,-53 L1736,-53 L1737,-50 L1738,-49 L1739,-55 L1740,-46 L1741,-54 L1742,-52 L1743,-50 L1744,-51 L1745,-49 L1746,-61 L1747,-83 L1748,-45 L1749,-56 
L1750,-55 L1751,-49 L1752,-62 L1753,-64 L1754,-57 L1755,-60 L1756,-58 L1757,-53 L1758,-55 L1759,-58 L1760,-58 L1761,-56 L1762,-56 L1763,-56 L1764,-55 L1765,-61 L1766,-56 L1767,-56 L1768,-54 L1769,-53 L1770,-53 L1771,-53 L1772,-52 L1773,-54 L1774,-54 L1775,-54 L1776,-53 L1777,-48 L1778,-48 L1779,-57 L1780,-52 L1781,-51 L1782,-54 L1783,-51 L1784,-52 L1785,-53 L1786,-53 L1787,-51 L1788,-52 L1789,-52 L1790,-52 L1791,-55 L1792,-53 L1793,-56 L1794,-53 L1795,-52 L1796,-52 L1797,-48 L1798,-48 L1799,-55 L1800,-52 L1801,-52 L1802,-51 L1803,-51 L1804,-52 L1805,-52 L1806,-50 L1807,-53 L1808,-54 L1809,-52 L1810,-52 L1811,-52 L1812,-51 L1813,-53 L1814,-52 L1815,-61 L1816,-53 L1817,-51 L1818,-51 L1819,-52 L1820,-52 L1821,-52 L1822,-52 L1823,-51 L1824,-52 L1825,-52 L1826,-50 L1827,-52 L1828,-53 L1829,-51 L1830,-50 L1831,-52 L1832,-53 L1833,-53 L1834,-51 L1835,-53 L1836,-54 L1837,-52 L1838,-52 L1839,-54 L1840,-52 L1841,-52 L1842,-53 L1843,-52 L1844,-50 L1845,-52 L1846,-48 L1847,-52 L1848,-53 L1849,-52 
L1850,-52 L1851,-51 L1852,-52 L1853,-53 L1854,-52 L1855,-52 L1856,-52 L1857,-52 L1858,-52 L1859,-51 L1860,-52 L1861,-52 L1862,-53 L1863,-49 L1864,-52 L1865,-52 L1866,-53 L1867,-55 L1868,-51 L1869,-51 L1870,-51 L1871,-51 L1872,-52 L1873,-52 L1874,-52 L1875,-59 L1876,-53 L1877,-53 L1878,-54 L1879,-52 L1880,-53 L1881,-55 L1882,-52 L1883,-52 L1884,-49 L1885,-51 L1886,-50 L1887,-53 L1888,-51 L1889,-52 L1890,-48 L1891,-48 L1892,-39 L1893,-62 L1894,-50 L1895,-48 L1896,-53 L1897,-36 L1898,-73 L1899,-65 L1900,-42 L1901,-56 L1902,-55 L1903,-56 L1904,-61 L1905,-55 L1906,-57 L1907,-56 L1908,-53 L1909,-54 L1910,-61 L1911,-56 L1912,-52 L1913,-50 L1914,-56 L1915,-57 L1916,-55 L1917,-56 L1918,-54 L1919,-55 L1920,-51 L1921,-52 L1922,-55 L1923,-52 L1924,-52 L1925,-54 L1926,-52 L1927,-56 L1928,-53 L1929,-51 L1930,-53 L1931,-52 L1932,-52 L1933,-51 L1934,-53 L1935,-52 L1936,-52 L1937,-54 L1938,-53 L1939,-54 L1940,-49 L1941,-49 L1942,-52 L1943,-63 L1944,-43 L1945,-51 L1946,-54 L1947,-52 L1948,-53 L1949,-53 
L1950,-52 L1951,-52 L1952,-53 L1953,-51 L1954,-50 L1955,-52 L1956,-51 L1957,-53 L1958,-52 L1959,-51 L1960,-52 L1961,-52 L1962,-52 L1963,-51 L1964,-59 L1965,-51 L1966,-53 L1967,-53 L1968,-53 L1969,-52 L1970,-52 L1971,-52 L1972,-51 L1973,-51 L1974,-50 L1975,-52 L1976,-52 L1977,-52 L1978,-52 L1979,-51 L1980,-50 L1981,-51 L1982,-51 L1983,-53 L1984,-52 L1985,-52 L1986,-52 L1987,-51 L1988,-51 L1989,-52 L1990,-54 L1991,-51 L1992,-51 L1993,-51 L1994,-50 L1995,-53 L1996,-54 L1997,-53 L1998,-52 L1999,-50 L2000,-52 L2001,-52 L2002,-53 L2003,-51 L2004,-52 L2005,-51 L2006,-52 L2007,-52 L2008,-52 L2009,-53 L2010,-53 L2011,-51 L2012,-51 L2013,-52 L2014,-49 L2015,-53 L2016,-51 L2017,-51 L2018,-51 L2019,-51 L2020,-47 L2021,-48 L2022,-53 L2023,-53 L2024,-53 L2025,-51 L2026,-50 L2027,-52 L2028,-51 L2029,-51 L2030,-52 L2031,-52 L2032,-51 L2033,-51 L2034,-52 L2035,-52 L2036,-51 L2037,-53 L2038,-52 L2039,-52 L2040,-49 L2041,-52 L2042,-52 L2043,-46 L2044,-59 L2045,-49 L2046,-50 L2047,-52 L2048,-54 L2049,-47 
L2050,-60 L2051,-40 L2052,-66 L2053,-66 L2054,-56 L2055,-65 L2056,-55 L2057,-53 L2058,-58 L2059,-55 L2060,-52 L2061,-55 L2062,-59 L2063,-56 L2064,-58 L2065,-55 L2066,-55 L2067,-56 L2068,-56 L2069,-56 L2070,-57 L2071,-53 L2072,-56 L2073,-53 L2074,-53 L2075,-54 L2076,-54 L2077,-56 L2078,-52 L2079,-53 L2080,-52 L2081,-54 L2082,-54 L2083,-54 L2084,-53 L2085,-51 L2086,-53 L2087,-52 L2088,-53 L2089,-58 L2090,-52 L2091,-53 L2092,-51 L2093,-52 L2094,-53 L2095,-54 L2096,-54 L2097,-53 L2098,-52 L2099,-52 L2100,-52 L2101,-53 L2102,-53 L2103,-53 L2104,-53 L2105,-52 L2106,-52 L2107,-51 L2108,-54 L2109,-54 L2110,-53 L2111,-53 L2112,-60 L2113,-52 L2114,-51 L2115,-52 L2116,-53 L2117,-53 L2118,-53 L2119,-52 L2120,-53 L2121,-52 L2122,-51 L2123,-53 L2124,-52 L2125,-51 L2126,-52 L2127,-50 L2128,-52 L2129,-51 L2130,-51 L2131,-51 L2132,-53 L2133,-51 L2134,-50 L2135,-52 L2136,-54 L2137,-52 L2138,-51 L2139,-50 L2140,-51 L2141,-59 L2142,-53 L2143,-49 L2144,-51 L2145,-48 L2146,-53 L2147,-52 L2148,-51 L2149,-52 
L2150,-52 L2151,-52 L2152,-54 L2153,-52 L2154,-51 L2155,-52 L2156,-49 L2157,-52 L2158,-50 L2159,-53 L2160,-54 L2161,-53 L2162,-48 L2163,-49 L2164,-57 L2165,-54 L2166,-52 L2167,-50 L2168,-49 L2169,-52 L2170,-54 L2171,-52 L2172,-53 L2173,-50 L2174,-50 L2175,-51 L2176,-51 L2177,-53 L2178,-54 L2179,-52 L2180,-48 L2181,-48 L2182,-52 L2183,-56 L2184,-50 L2185,-52 L2186,-53 L2187,-52 L2188,-52 L2189,-52 L2190,-53 L2191,-53 L2192,-52 L2193,-52 L2194,-50 L2195,-56 L2196,-69 L2197,-47 L2198,-53 L2199,-52 L2200,-57 L2201,-78 L2202,-60 L2203,-39 L2204,-69 L2205,-58 L2206,-48 L2207,-61 L2208,-56 L2209,-65 L2210,-56 L2211,-53 L2212,-57 L2213,-57 L2214,-56 L2215,-55 L2216,-57 L2217,-55 L2218,-54 L2219,-55 L2220,-56 L2221,-54 L2222,-53 L2223,-49 L2224,-54 L2225,-53 L2226,-53 L2227,-55 L2228,-53 L2229,-52 L2230,-52 L2231,-55 L2232,-52 L2233,-52 L2234,-54 L2235,-52 L2236,-51 L2237,-51 L2238,-52 L2239,-54 L2240,-52 L2241,-53 L2242,-53 L2243,-51 L2244,-51 L2245,-53 L2246,-54 L2247,-51 L2248,-53 L2249,-52 
L2250,-52 L2251,-51 L2252,-52 L2253,-54 L2254,-53 L2255,-52 L2256,-53 L2257,-52 L2258,-52 L2259,-54 L2260,-53 L2261,-46 L2262,-52 L2263,-50 L2264,-50 L2265,-53 L2266,-51 L2267,-52 L2268,-52 L2269,-52 L2270,-52 L2271,-49 L2272,-52 L2273,-53 L2274,-54 L2275,-49 L2276,-52 L2277,-51 L2278,-53 L2279,-51 L2280,-52 L2281,-51 L2282,-52 L2283,-51 L2284,-52 L2285,-54 L2286,-50 L2287,-52 L2288,-52 L2289,-52 L2290,-52 L2291,-56 L2292,-52 L2293,-52 L2294,-54 L2295,-51 L2296,-51 L2297,-52 L2298,-52 L2299,-54 L2300,-50 L2301,-50 L2302,-52 L2303,-52 L2304,-50 L2305,-52 L2306,-52 L2307,-51 L2308,-52 L2309,-50 L2310,-50 L2311,-53 L2312,-54 L2313,-50 L2314,-52 L2315,-50 L2316,-51 L2317,-52 L2318,-51 L2319,-52 L2320,-53 L2321,-52 L2322,-49 L2323,-52 L2324,-51 L2325,-55 L2326,-50 L2327,-50 L2328,-50 L2329,-51 L2330,-51 L2331,-52 L2332,-55 L2333,-51 L2334,-53 L2335,-51 L2336,-50 L2337,-52 L2338,-52 L2339,-51 L2340,-50 L2341,-50 L2342,-52 L2343,-51 L2344,-52 L2345,-53 L2346,-52 L2347,-61 L2348,-52 L2349,-52 
L2350,-51 L2351,-52 L2352,-57 L2353,-81 L2354,-61 L2355,-61 L2356,-49 L2357,-48 L2358,-57 L2359,-57 L2360,-61 L2361,-60 L2362,-56 L2363,-57 L2364,-56 L2365,-57 L2366,-58 L2367,-55 L2368,-56 L2369,-56 L2370,-56 L2371,-57 L2372,-57 L2373,-56 L2374,-56 L2375,-53 L2376,-53 L2377,-56 L2378,-54 L2379,-53 L2380,-52 L2381,-53 L2382,-52 L2383,-53 L2384,-53 L2385,-54 L2386,-53 L2387,-53 L2388,-53 L2389,-54 L2390,-53 L2391,-53 L2392,-54 L2393,-54 L2394,-52 L2395,-52 L2396,-51 L2397,-54 L2398,-53 L2399,-52 L2400,-52 L2401,-51 L2402,-51 L2403,-54 L2404,-53 L2405,-53 L2406,-55 L2407,-52 L2408,-53 L2409,-50 L2410,-56 L2411,-53 L2412,-49 L2413,-48 L2414,-56 L2415,-55 L2416,-50 L2417,-51 L2418,-52 L2419,-52 L2420,-52 L2421,-53 L2422,-52 L2423,-53 L2424,-53 L2425,-52 L2426,-52 L2427,-51 L2428,-52 L2429,-54 L2430,-49 L2431,-52 L2432,-56 L2433,-59 L2434,-52 L2435,-51 L2436,-51 L2437,-50 L2438,-54 L2439,-52 L2440,-52 L2441,-54 L2442,-50 L2443,-52 L2444,-52 L2445,-52 L2446,-53 L2447,-52 L2448,-51 L2449,-50 
L2450,-52 L2451,-53 L2452,-51 L2453,-53 L2454,-53 L2455,-52 L2456,-52 L2457,-52 L2458,-52 L2459,-53 L2460,-51 L2461,-52 L2462,-53 L2463,-51 L2464,-52 L2465,-53 L2466,-49 L2467,-51 L2468,-50 L2469,-51 L2470,-51 L2471,-52 L2472,-51 L2473,-53 L2474,-51 L2475,-53 L2476,-52 L2477,-51 L2478,-51 L2479,-53 L2480,-52 L2481,-52 L2482,-52 L2483,-50 L2484,-52 L2485,-51 L2486,-52 L2487,-52 L2488,-53 L2489,-52 L2490,-51 L2491,-51 L2492,-51 L2493,-52 L2494,-54 L2495,-54 L2496,-51 L2497,-50 L2498,-52 L2499,-81 L2500,-56 L2501,-52 L2502,-52 L2503,-52 L2504,-81 L2505,-67 L2506,-48 L2507,-69 L2508,-54 L2509,-50 L2510,-62 L2511,-53 L2512,-55 L2513,-56 L2514,-52 L2515,-57 L2516,-56 L2517,-54 L2518,-56 L2519,-55 L2520,-55 L2521,-56 L2522,-55 L2523,-54 L2524,-54 L2525,-56 L2526,-54 L2527,-54 L2528,-53 L2529,-53 L2530,-52 L2531,-52 L2532,-53 L2533,-53 L2534,-57 L2535,-55 L2536,-52 L2537,-51 L2538,-53 L2539,-53 L2540,-52 L2541,-53 L2542,-53 L2543,-52 L2544,-51 L2545,-53 L2546,-52 L2547,-53 L2548,-51 L2549,-52 
L2550,-53 L2551,-54 L2552,-51 L2553,-54 L2554,-54 L2555,-51 L2556,-54 L2557,-51 L2558,-49 L2559,-56 L2560,-54 L2561,-52 L2562,-56 L2563,-52 L2564,-52 L2565,-53 L2566,-53 L2567,-53 L2568,-53 L2569,-52 L2570,-53 L2571,-53 L2572,-52 L2573,-52 L2574,-53 L2575,-55 L2576,-52 L2577,-51 L2578,-52 L2579,-52 L2580,-52 L2581,-52 L2582,-53 L2583,-52 L2584,-52 L2585,-54 L2586,-52 L2587,-53 L2588,-53 L2589,-51 L2590,-51 L2591,-53 L2592,-51 L2593,-52 L2594,-53 L2595,-52 L2596,-53 L2597,-52 L2598,-52 L2599,-51 L2600,-52 L2601,-52 L2602,-52 L2603,-50 L2604,-51 L2605,-52 L2606,-52 L2607,-53 L2608,-52 L2609,-52 L2610,-51 L2611,-52 L2612,-51 L2613,-52 L2614,-53 L2615,-56 L2616,-50 L2617,-51 L2618,-52 L2619,-52 L2620,-53 L2621,-51 L2622,-51 L2623,-50 L2624,-49 L2625,-52 L2626,-52 L2627,-53 L2628,-52 L2629,-52 L2630,-52 L2631,-52 L2632,-52 L2633,-53 L2634,-53 L2635,-53 L2636,-52 L2637,-51 L2638,-51 L2639,-52 L2640,-52 L2641,-52 L2642,-52 L2643,-51 L2644,-53 L2645,-52 L2646,-51 L2647,-52 L2648,-50 L2649,-51 
L2650,-51 L2651,-44 L2652,-49 L2653,-53 L2654,-51 L2655,-50 L2656,-76 L2657,-51 L2658,-50 L2659,-56 L2660,-72 L2661,-61 L2662,-60 L2663,-58 L2664,-50 L2665,-56 L2666,-59 L2667,-57 L2668,-60 L2669,-56 L2670,-56 L2671,-54 L2672,-57 L2673,-56 L2674,-57 L2675,-56 L2676,-59 L2677,-54 L2678,-54 L2679,-52 L2680,-52 L2681,-55 L2682,-58 L2683,-54 L2684,-49 L2685,-48 L2686,-54 L2687,-56 L2688,-55 L2689,-53 L2690,-53 L2691,-52 L2692,-55 L2693,-53 L2694,-57 L2695,-53 L2696,-49 L2697,-51 L2698,-50 L2699,-51 L2700,-56 L2701,-56 L2702,-50 L2703,-49 L2704,-56 L2705,-51 L2706,-53 L2707,-55 L2708,-52 L2709,-50 L2710,-52 L2711,-55 L2712,-52 L2713,-54 L2714,-52 L2715,-52 L2716,-52 L2717,-51 L2718,-53 L2719,-53 L2720,-52 L2721,-53 L2722,-52 L2723,-52 L2724,-53 L2725,-52 L2726,-52 L2727,-53 L2728,-52 L2729,-52 L2730,-51 L2731,-51 L2732,-55 L2733,-54 L2734,-46 L2735,-48 L2736,-53 L2737,-61 L2738,-52 L2739,-50 L2740,-55 L2741,-53 L2742,-50 L2743,-53 L2744,-53 L2745,-52 L2746,-52 L2747,-49 L2748,-53 L2749,-53 
L2750,-53 L2751,-52 L2752,-51 L2753,-51 L2754,-51 L2755,-53 L2756,-52 L2757,-52 L2758,-51 L2759,-52 L2760,-52 L2761,-52 L2762,-51 L2763,-52 L2764,-53 L2765,-52 L2766,-52 L2767,-51 L2768,-52 L2769,-52 L2770,-52 L2771,-52 L2772,-52 L2773,-50 L2774,-51 L2775,-53 L2776,-50 L2777,-56 L2778,-52 L2779,-51 L2780,-50 L2781,-52 L2782,-52 L2783,-52 L2784,-52 L2785,-52 L2786,-52 L2787,-51 L2788,-51 L2789,-51 L2790,-52 L2791,-51 L2792,-51 L2793,-50 L2794,-50 L2795,-52 L2796,-52 L2797,-48 L2798,-52 L2799,-52 L2800,-52 L2801,-52 L2802,-49 L2803,-28 L2804,-47 L2805,-52 L2806,-50 L2807,-50 L2808,-86 L2809,-41 L2810,-53 L2811,-58 L2812,-57 L2813,-67 L2814,-54 L2815,-56 L2816,-58 L2817,-54 L2818,-56 L2819,-55 L2820,-54 L2821,-57 L2822,-55 L2823,-57 L2824,-58 L2825,-54 L2826,-54 L2827,-53 L2828,-56 L2829,-55 L2830,-55 L2831,-52 L2832,-52 L2833,-52 L2834,-52 L2835,-51 L2836,-53 L2837,-54 L2838,-53 L2839,-52 L2840,-52 L2841,-52 L2842,-52 L2843,-52 L2844,-53 L2845,-53 L2846,-54 L2847,-51 L2848,-53 L2849,-52 
L2850,-52 L2851,-52 L2852,-52 L2853,-50 L2854,-51 L2855,-56 L2856,-53 L2857,-54 L2858,-56 L2859,-51 L2860,-51 L2861,-53 L2862,-53 L2863,-53 L2864,-53 L2865,-51 L2866,-52 L2867,-52 L2868,-52 L2869,-53 L2870,-53 L2871,-52 L2872,-51 L2873,-50 L2874,-49 L2875,-54 L2876,-52 L2877,-53 L2878,-56 L2879,-50 L2880,-51 L2881,-52 L2882,-52 L2883,-54 L2884,-54 L2885,-52 L2886,-52 L2887,-51 L2888,-52 L2889,-53 L2890,-53 L2891,-51 L2892,-51 L2893,-52 L2894,-51 L2895,-54 L2896,-53 L2897,-52 L2898,-51 L2899,-52 L2900,-50 L2901,-53 L2902,-53 L2903,-52 L2904,-52 L2905,-49 L2906,-51 L2907,-52 L2908,-52 L2909,-53 L2910,-51 L2911,-50 L2912,-51 L2913,-51 L2914,-52 L2915,-53 L2916,-52 L2917,-52 L2918,-52 L2919,-52 L2920,-52 L2921,-52 L2922,-52 L2923,-52 L2924,-51 L2925,-51 L2926,-51 L2927,-52 L2928,-52 L2929,-51 L2930,-52 L2931,-52 L2932,-50 L2933,-52 L2934,-52 L2935,-66 L2936,-53 L2937,-54 L2938,-52 L2939,-48 L2940,-48 L2941,-52 L2942,-52 L2943,-52 L2944,-51 L2945,-52 L2946,-49 L2947,-54 L2948,-49 L2949,-53 
L2950,-54 L2951,-53 L2952,-48 L2953,-48 L2954,-52 L2955,-59 L2956,-53 L2957,-52 L2958,-51 L2959,-56 L2960,-84 L2961,-62 L2962,-51 L2963,-63 L2964,-45 L2965,-52 L2966,-62 L2967,-57 L2968,-64 L2969,-60 L2970,-54 L2971,-58 L2972,-57 L2973,-54 L2974,-60 L2975,-57 L2976,-54 L2977,-52 L2978,-57 L2979,-60 L2980,-54 L2981,-56 L2982,-56 L2983,-54 L2984,-53 L2985,-53 L2986,-53 L2987,-53 L2988,-54 L2989,-53 L2990,-54 L2991,-52 L2992,-54 L2993,-52 L2994,-53 L2995,-52 L2996,-51 L2997,-52 L2998,-51 L2999,-53 L3000,-55 L3001,-51 L3002,-43 L3003,-47 L3004,-56 L3005,-53 L3006,-52 L3007,-53 L3008,-54 L3009,-52 L3010,-52 L3011,-53 L3012,-53 L3013,-52 L3014,-52 L3015,-51 L3016,-52 L3017,-53 L3018,-53 L3019,-52 L3020,-55 L3021,-51 L3022,-52 L3023,-53 L3024,-53 L3025,-52 L3026,-54 L3027,-51 L3028,-54 L3029,-52 L3030,-51 L3031,-54 L3032,-53 L3033,-51 L3034,-52 L3035,-52 L3036,-50 L3037,-53 L3038,-55 L3039,-52 L3040,-57 L3041,-52 L3042,-50 L3043,-53 L3044,-52 L3045,-52 L3046,-54 L3047,-51 L3048,-50 L3049,-51 
L3050,-52 L3051,-52 L3052,-53 L3053,-52 L3054,-52 L3055,-51 L3056,-51 L3057,-54 L3058,-52 L3059,-52 L3060,-52 L3061,-52 L3062,-50 L3063,-53 L3064,-52 L3065,-53 L3066,-53 L3067,-52 L3068,-51 L3069,-51 L3070,-52 L3071,-53 L3072,-53 L3073,-51 L3074,-52 L3075,-52 L3076,-50 L3077,-52 L3078,-52 L3079,-51 L3080,-51 L3081,-51 L3082,-51 L3083,-52 L3084,-51 L3085,-52 L3086,-53 L3087,-51 L3088,-52 L3089,-50 L3090,-52 L3091,-52 L3092,-53 L3093,-53 L3094,-51 L3095,-51 L3096,-51 L3097,-53 L3098,-53 L3099,-53 L3100,-51 L3101,-51 L3102,-50 L3103,-51 L3104,-52 L3105,-52 L3106,-51 L3107,-54 L3108,-61 L3109,-51 L3110,-52 L3111,-53 L3112,-61 L3113,-66 L3114,-61 L3115,-45 L3116,-52 L3117,-55 L3118,-56 L3119,-60 L3120,-56 L3121,-52 L3122,-57 L3123,-56 L3124,-56 L3125,-56 L3126,-56 L3127,-54 L3128,-54 L3129,-53 L3130,-55 L3131,-55 L3132,-55 L3133,-54 L3134,-54 L3135,-51 L3136,-54 L3137,-53 L3138,-53 L3139,-52 L3140,-52 L3141,-58 L3142,-52 L3143,-53 L3144,-54 L3145,-53 L3146,-53 L3147,-51 L3148,-52 L3149,-52 
L3150,-51 L3151,-53 L3152,-53 L3153,-49 L3154,-52 L3155,-52 L3156,-53 L3157,-53 L3158,-53 L3159,-52 L3160,-51 L3161,-52 L3162,-51 L3163,-53 L3164,-53 L3165,-53 L3166,-52 L3167,-52 L3168,-51 L3169,-52 L3170,-53 L3171,-52 L3172,-53 L3173,-51 L3174,-51 L3175,-53 L3176,-51 L3177,-53 L3178,-53 L3179,-52 L3180,-52 L3181,-52 L3182,-52 L3183,-53 L3184,-53 L3185,-52 L3186,-52 L3187,-49 L3188,-50 L3189,-53 L3190,-52 L3191,-51 L3192,-53 L3193,-51 L3194,-51 L3195,-52 L3196,-53 L3197,-54 L3198,-52 L3199,-50 L3200,-40 L3201,-53 L3202,-47 L3203,-48 L3204,-57 L3205,-57 L3206,-51 L3207,-46 L3208,-52 L3209,-51 L3210,-52 L3211,-53 L3212,-50 L3213,-54 L3214,-49 L3215,-52 L3216,-53 L3217,-55 L3218,-53 L3219,-51 L3220,-52 L3221,-49 L3222,-55 L3223,-53 L3224,-48 L3225,-52 L3226,-50 L3227,-52 L3228,-52 L3229,-53 L3230,-50 L3231,-52 L3232,-52 L3233,-53 L3234,-53 L3235,-52 L3236,-52 L3237,-52 L3238,-53 L3239,-52 L3240,-53 L3241,-51 L3242,-52 L3243,-51 L3244,-49 L3245,-49 L3246,-54 L3247,-52 L3248,-51 L3249,-52 
L3250,-53 L3251,-50 L3252,-50 L3253,-51 L3254,-52 L3255,-51 L3256,-50 L3257,-50 L3258,-53 L3259,-55 L3260,-52 L3261,-52 L3262,-52 L3263,-52 L3264,-42 L3265,-44 L3266,-78 L3267,-58 L3268,-59 L3269,-64 L3270,-49 L3271,-56 L3272,-56 L3273,-56 L3274,-60 L3275,-57 L3276,-57 L3277,-56 L3278,-56 L3279,-58 L3280,-57 L3281,-56 L3282,-56 L3283,-55 L3284,-54 L3285,-56 L3286,-55 L3287,-55 L3288,-56 L3289,-54 L3290,-54 L3291,-52 L3292,-52 L3293,-55 L3294,-54 L3295,-53 L3296,-53 L3297,-50 L3298,-52 L3299,-53 L3300,-52 L3301,-52 L3302,-54 L3303,-55 L3304,-52 L3305,-54 L3306,-52 L3307,-54 L3308,-53 L3309,-53 L3310,-52 L3311,-53 L3312,-51 L3313,-54 L3314,-54 L3315,-52 L3316,-52 L3317,-51 L3318,-50 L3319,-53 L3320,-52 L3321,-53 L3322,-53 L3323,-54 L3324,-51 L3325,-53 L3326,-52 L3327,-53 L3328,-53 L3329,-52 L3330,-52 L3331,-52 L3332,-53 L3333,-53 L3334,-54 L3335,-52 L3336,-52 L3337,-50 L3338,-51 L3339,-53 L3340,-53 L3341,-52 L3342,-53 L3343,-52 L3344,-51 L3345,-55 L3346,-51 L3347,-53 L3348,-53 L3349,-52 
L3350,-52 L3351,-52 L3352,-49 L3353,-52 L3354,-53 L3355,-53 L3356,-53 L3357,-51 L3358,-52 L3359,-52 L3360,-52 L3361,-53 L3362,-53 L3363,-50 L3364,-50 L3365,-50 L3366,-50 L3367,-52 L3368,-52 L3369,-52 L3370,-51 L3371,-52 L3372,-53 L3373,-53 L3374,-53 L3375,-52 L3376,-52 L3377,-50 L3378,-52 L3379,-52 L3380,-52 L3381,-52 L3382,-52 L3383,-52 L3384,-47 L3385,-53 L3386,-52 L3387,-53 L3388,-53 L3389,-53 L3390,-52 L3391,-51 L3392,-50 L3393,-52 L3394,-52 L3395,-51 L3396,-52 L3397,-51 L3398,-51 L3399,-52 L3400,-51 L3401,-52 L3402,-53 L3403,-52 L3404,-54 L3405,-52 L3406,-51 L3407,-54 L3408,-52 L3409,-52 L3410,-49 L3411,-65 L3412,-49 L3413,-55 L3414,-55 L3415,-57 L3416,-37 L3417,-57 L3418,-66 L3419,-63 L3420,-64 L3421,-56 L3422,-56 L3423,-53 L3424,-53 L3425,-58 L3426,-55 L3427,-58 L3428,-57 L3429,-57 L3430,-55 L3431,-55 L3432,-54 L3433,-58 L3434,-57 L3435,-57 L3436,-55 L3437,-52 L3438,-52 L3439,-53 L3440,-52 L3441,-52 L3442,-53 L3443,-52 L3444,-52 L3445,-50 L3446,-52 L3447,-64 L3448,-52 L3449,-53 
L3450,-52 L3451,-52 L3452,-51 L3453,-53 L3454,-52 L3455,-52 L3456,-54 L3457,-52 L3458,-52 L3459,-52 L3460,-53 L3461,-53 L3462,-53 L3463,-52 L3464,-51 L3465,-48 L3466,-52 L3467,-52 L3468,-50 L3469,-52 L3470,-54 L3471,-52 L3472,-49 L3473,-48 L3474,-50 L3475,-54 L3476,-52 L3477,-54 L3478,-51 L3479,-51 L3480,-54 L3481,-52 L3482,-54 L3483,-52 L3484,-52 L3485,-55 L3486,-51 L3487,-53 L3488,-56 L3489,-54 L3490,-52 L3491,-52 L3492,-51 L3493,-50 L3494,-55 L3495,-55 L3496,-49 L3497,-45 L3498,-52 L3499,-53 L3500,-52 L3501,-53 L3502,-53 L3503,-53 L3504,-50 L3505,-53 L3506,-52 L3507,-55 L3508,-53 L3509,-53 L3510,-49 L3511,-49 L3512,-51 L3513,-52 L3514,-51 L3515,-53 L3516,-52 L3517,-53 L3518,-52 L3519,-52 L3520,-52 L3521,-52 L3522,-53 L3523,-52 L3524,-48 L3525,-50 L3526,-53 L3527,-54 L3528,-51 L3529,-51 L3530,-52 L3531,-54 L3532,-55 L3533,-52 L3534,-49 L3535,-53 L3536,-52 L3537,-53 L3538,-52 L3539,-50 L3540,-52 L3541,-52 L3542,-52 L3543,-52 L3544,-52 L3545,-51 L3546,-49 L3547,-52 L3548,-51 L3549,-52 
L3550,-52 L3551,-52 L3552,-51 L3553,-51 L3554,-52 L3555,-52 L3556,-53 L3557,-51 L3558,-53 L3559,-52 L3560,-50 L3561,-53 L3562,-50 L3563,-48 L3564,-50 L3565,-52 L3566,-45 L3567,-53 L3568,-55 L3569,-78 L3570,-40 L3571,-51 L3572,-62 L3573,-49 L3574,-64 L3575,-62 L3576,-56 L3577,-60 L3578,-56 L3579,-54 L3580,-56 L3581,-56 L3582,-58 L3583,-58 L3584,-57 L3585,-55 L3586,-56 L3587,-56 L3588,-54 L3589,-57 L3590,-55 L3591,-54 L3592,-54 L3593,-53 L3594,-53 L3595,-65 L3596,-55 L3597,-55 L3598,-53 L3599,-52 L3600,-54 L3601,-52 L3602,-52 L3603,-52 L3604,-54 L3605,-52 L3606,-51 L3607,-52 L3608,-52 L3609,-52 L3610,-55 L3611,-52 L3612,-54 L3613,-54 L3614,-52 L3615,-52 L3616,-55 L3617,-53 L3618,-53 L3619,-52 L3620,-53 L3621,-53 L3622,-54 L3623,-53 L3624,-53 L3625,-50 L3626,-52 L3627,-52 L3628,-52 L3629,-54 L3630,-53 L3631,-52 L3632,-51 L3633,-52 L3634,-53 L3635,-56 L3636,-54 L3637,-53 L3638,-52 L3639,-50 L3640,-51 L3641,-54 L3642,-52 L3643,-53 L3644,-53 L3645,-51 L3646,-49 L3647,-55 L3648,-54 L3649,-54 
L3650,-54 L3651,-52 L3652,-52 L3653,-52 L3654,-51 L3655,-51 L3656,-54 L3657,-52 L3658,-51 L3659,-50 L3660,-52 L3661,-52 L3662,-54 L3663,-51 L3664,-52 L3665,-50 L3666,-51 L3667,-55 L3668,-52 L3669,-52 L3670,-53 L3671,-52 L3672,-51 L3673,-51 L3674,-52 L3675,-53 L3676,-51 L3677,-50 L3678,-52 L3679,-51 L3680,-50 L3681,-52 L3682,-53 L3683,-52 L3684,-50 L3685,-51 L3686,-51 L3687,-52 L3688,-53 L3689,-52 L3690,-51 L3691,-52 L3692,-53 L3693,-52 L3694,-52 L3695,-52 L3696,-53 L3697,-50 L3698,-51 L3699,-52 L3700,-52 L3701,-53 L3702,-51 L3703,-52 L3704,-52 L3705,-52 L3706,-52 L3707,-53 L3708,-53 L3709,-49 L3710,-54 L3711,-49 L3712,-51 L3713,-51 L3714,-63 L3715,-39 L3716,-50 L3717,-52 L3718,-52 L3719,-92 L3720,-79 L3721,-59 L3722,-38 L3723,-54 L3724,-57 L3725,-61 L3726,-61 L3727,-57 L3728,-53 L3729,-59 L3730,-56 L3731,-57 L3732,-57 L3733,-56 L3734,-56 L3735,-53 L3736,-55 L3737,-53 L3738,-54 L3739,-55 L3740,-55 L3741,-54 L3742,-49 L3743,-44 L3744,-58 L3745,-53 L3746,-48 L3747,-47 L3748,-55 L3749,-53 
L3750,-55 L3751,-53 L3752,-53 L3753,-52 L3754,-56 L3755,-52 L3756,-54 L3757,-52 L3758,-52 L3759,-52 L3760,-51 L3761,-52 L3762,-53 L3763,-53 L3764,-54 L3765,-53 L3766,-52 L3767,-50 L3768,-55 L3769,-53 L3770,-52 L3771,-50 L3772,-50 L3773,-52 L3774,-53 L3775,-53 L3776,-52 L3777,-56 L3778,-52 L3779,-52 L3780,-53 L3781,-51 L3782,-52 L3783,-52 L3784,-53 L3785,-52 L3786,-52 L3787,-52 L3788,-53 L3789,-53 L3790,-53 L3791,-53 L3792,-50 L3793,-49 L3794,-57 L3795,-51 L3796,-45 L3797,-37 L3798,-54 L3799,-52 L3800,-51 L3801,-51 L3802,-52 L3803,-52 L3804,-53 L3805,-52 L3806,-54 L3807,-51 L3808,-51 L3809,-50 L3810,-53 L3811,-54 L3812,-51 L3813,-52 L3814,-51 L3815,-52 L3816,-50 L3817,-53 L3818,-53 L3819,-52 L3820,-53 L3821,-53 L3822,-51 L3823,-52 L3824,-54 L3825,-52 L3826,-52 L3827,-51 L3828,-51 L3829,-55 L3830,-51 L3831,-52 L3832,-52 L3833,-51 L3834,-51 L3835,-52 L3836,-51 L3837,-54 L3838,-53 L3839,-51 L3840,-51 L3841,-51 L3842,-52 L3843,-53 L3844,-52 L3845,-52 L3846,-53 L3847,-49 L3848,-51 L3849,-54 
L3850,-52 L3851,-53 L3852,-52 L3853,-51 L3854,-52 L3855,-51 L3856,-51 L3857,-54 L3858,-53 L3859,-52 L3860,-50 L3861,-53 L3862,-51 L3863,-49 L3864,-53 L3865,-51 L3866,-61 L3867,-51 L3868,-52 L3869,-52 L3870,-52 L3871,-68 L3872,-73 L3873,-44 L3874,-66 L3875,-73 L3876,-52 L3877,-64 L3878,-55 L3879,-51 L3880,-60 L3881,-56 L3882,-57 L3883,-59 L3884,-58 L3885,-56 L3886,-56 L3887,-55 L3888,-56 L3889,-56 L3890,-60 L3891,-61 L3892,-55 L3893,-54 L3894,-52 L3895,-54 L3896,-54 L3897,-55 L3898,-59 L3899,-54 L3900,-53 L3901,-52 L3902,-52 L3903,-53 L3904,-53 L3905,-53 L3906,-54 L3907,-50 L3908,-52 L3909,-53 L3910,-47 L3911,-54 L3912,-52 L3913,-50 L3914,-51 L3915,-52 L3916,-53 L3917,-53 L3918,-55 L3919,-52 L3920,-52 L3921,-52 L3922,-52 L3923,-53 L3924,-55 L3925,-52 L3926,-52 L3927,-51 L3928,-52 L3929,-54 L3930,-53 L3931,-53 L3932,-51 L3933,-52 L3934,-52 L3935,-52 L3936,-52 L3937,-54 L3938,-54 L3939,-54 L3940,-51 L3941,-52 L3942,-52 L3943,-53 L3944,-52 L3945,-52 L3946,-52 L3947,-52 L3948,-51 L3949,-53 
L3950,-52 L3951,-54 L3952,-53 L3953,-52 L3954,-51 L3955,-52 L3956,-52 L3957,-53 L3958,-52 L3959,-51 L3960,-52 L3961,-52 L3962,-51 L3963,-52 L3964,-53 L3965,-51 L3966,-53 L3967,-51 L3968,-51 L3969,-52 L3970,-52 L3971,-56 L3972,-53 L3973,-52 L3974,-51 L3975,-51 L3976,-50 L3977,-53 L3978,-53 L3979,-53 L3980,-53 L3981,-51 L3982,-51 L3983,-52 L3984,-53 L3985,-52 L3986,-53 L3987,-51 L3988,-51 L3989,-52 L3990,-52 L3991,-55 L3992,-52 L3993,-51 L3994,-44 L3995,-54 L3996,-52 L3997,-48 L3998,-56 L3999,-53 L4000,-51 L4001,-51 L4002,-50 L4003,-54 L4004,-53 L4005,-53 L4006,-52 L4007,-51 L4008,-51 L4009,-52 L4010,-51 L4011,-49 L4012,-52 L4013,-52 L4014,-51 L4015,-50 L4016,-53 L4017,-55 L4018,-69 L4019,-53 L4020,-58 L4021,-49 L4022,-51 L4023,-98 L4024,-61 L4025,-38 L4026,-73 L4027,-59 L4028,-49 L4029,-60 L4030,-54 L4031,-58 L4032,-56 L4033,-53 L4034,-60 L4035,-55 L4036,-53 L4037,-52 L4038,-55 L4039,-56 L4040,-56 L4041,-55 L4042,-56 L4043,-54 L4044,-53 L4045,-55 L4046,-52 L4047,-53 L4048,-53 L4049,-52 
L4050,-52 L4051,-52 L4052,-55 L4053,-52 L4054,-54 L4055,-54 L4056,-53 L4057,-53 L4058,-49 L4059,-52 L4060,-53 L4061,-56 L4062,-45 L4063,-51 L4064,-53 L4065,-52 L4066,-50 L4067,-53 L4068,-53 L4069,-52 L4070,-52 L4071,-51 L4072,-48 L4073,-53 L4074,-54 L4075,-52 L4076,-53 L4077,-51 L4078,-51 L4079,-52 L4080,-50 L4081,-53 L4082,-53 L4083,-52 L4084,-52 L4085,-53 L4086,-51 L4087,-53 L4088,-53 L4089,-52 L4090,-52 L4091,-51 L4092,-54 L4093,-53 L4094,-52 L4095,-51 L4096,-54 L4097,-50 L4098,-51 L4099,-52 L4100,-52 L4101,-52 L4102,-52 L4103,-51 L4104,-51 L4105,-51 L4106,-50 L4107,-54 L4108,-53 L4109,-52 L4110,-52 L4111,-52 L4112,-51 L4113,-51 L4114,-54 L4115,-52 L4116,-52 L4117,-52 L4118,-49 L4119,-52 L4120,-53 L4121,-52 L4122,-53 L4123,-52 L4124,-52 L4125,-51 L4126,-51 L4127,-52 L4128,-52 L4129,-51 L4130,-52 L4131,-51 L4132,-51 L4133,-54 L4134,-52 L4135,-51 L4136,-52 L4137,-50 L4138,-49 L4139,-50 L4140,-52 L4141,-54 L4142,-52 L4143,-51 L4144,-49 L4145,-53 L4146,-52 L4147,-53 L4148,-53 L4149,-50 
L4150,-51 L4151,-52 L4152,-51 L4153,-49 L4154,-52 L4155,-52 L4156,-51 L4157,-50 L4158,-50 L4159,-53 L4160,-53 L4161,-51 L4162,-52 L4163,-51 L4164,-52 L4165,-52 L4166,-54 L4167,-53 L4168,-52 L4169,-50 L4170,-43 L4171,-55 L4172,-52 L4173,-53 L4174,-53 L4175,-91 L4176,-59 L4177,-60 L4178,-49 L4179,-45 L4180,-58 L4181,-57 L4182,-61 L4183,-62 L4184,-56 L4185,-54 L4186,-57 L4187,-56 L4188,-57 L4189,-55 L4190,-56 L4191,-57 L4192,-55 L4193,-56 L4194,-55 L4195,-55 L4196,-55 L4197,-56 L4198,-54 L4199,-54 L4200,-57 L4201,-53 L4202,-52 L4203,-53 L4204,-54 L4205,-53 L4206,-53 L4207,-53 L4208,-53 L4209,-52 L4210,-52 L4211,-53 L4212,-52 L4213,-52 L4214,-51 L4215,-54 L4216,-53 L4217,-53 L4218,-53 L4219,-53 L4220,-55 L4221,-52 L4222,-52 L4223,-53 L4224,-52 L4225,-52 L4226,-54 L4227,-51 L4228,-53 L4229,-50 L4230,-50 L4231,-55 L4232,-52 L4233,-52 L4234,-49 L4235,-51 L4236,-52 L4237,-52 L4238,-52 L4239,-54 L4240,-52 L4241,-50 L4242,-50 L4243,-54 L4244,-52 L4245,-52 L4246,-53 L4247,-52 L4248,-52 L4249,-52 
L4250,-51 L4251,-52 L4252,-53 L4253,-52 L4254,-56 L4255,-52 L4256,-51 L4257,-53 L4258,-52 L4259,-54 L4260,-51 L4261,-54 L4262,-53 L4263,-51 L4264,-50 L4265,-51 L4266,-58 L4267,-56 L4268,-50 L4269,-47 L4270,-52 L4271,-53 L4272,-52 L4273,-53 L4274,-51 L4275,-51 L4276,-53 L4277,-52 L4278,-52 L4279,-54 L4280,-53 L4281,-54 L4282,-49 L4283,-51 L4284,-51 L4285,-54 L4286,-47 L4287,-52 L4288,-53 L4289,-53 L4290,-53 L4291,-53 L4292,-52 L4293,-52 L4294,-53 L4295,-50 L4296,-50 L4297,-52 L4298,-52 L4299,-53 L4300,-50 L4301,-49 L4302,-55 L4303,-50 L4304,-50 L4305,-49 L4306,-51 L4307,-52 L4308,-52 L4309,-53 L4310,-50 L4311,-52 L4312,-51 L4313,-52 L4314,-51 L4315,-51 L4316,-52 L4317,-52 L4318,-49 L4319,-45 L4320,-52 L4321,-52 L4322,-30 L4323,-60 L4324,-51 L4325,-53 L4326,-51 L4327,-63 L4328,-55 L4329,-73 L4330,-56 L4331,-46 L4332,-66 L4333,-57 L4334,-54 L4335,-58 L4336,-55 L4337,-57 L4338,-56 L4339,-55 L4340,-56 L4341,-56 L4342,-54 L4343,-58 L4344,-55 L4345,-55 L4346,-53 L4347,-59 L4348,-53 L4349,-56 
L4350,-52 L4351,-52 L4352,-52 L4353,-52 L4354,-53 L4355,-52 L4356,-53 L4357,-51 L4358,-52 L4359,-52 L4360,-52 L4361,-55 L4362,-53 L4363,-54 L4364,-53 L4365,-52 L4366,-50 L4367,-56 L4368,-53 L4369,-52 L4370,-52 L4371,-52 L4372,-52 L4373,-52 L4374,-52 L4375,-51 L4376,-52 L4377,-52 L4378,-52 L4379,-52 L4380,-51 L4381,-55 L4382,-53 L4383,-52 L4384,-52 L4385,-52 L4386,-49 L4387,-53 L4388,-51 L4389,-53 L4390,-53 L4391,-51 L4392,-52 L4393,-53 L4394,-52 L4395,-52 L4396,-55 L4397,-51 L4398,-52 L4399,-52 L4400,-52 L4401,-53 L4402,-52 L4403,-53 L4404,-52 L4405,-51 L4406,-53 L4407,-52 L4408,-54 L4409,-53 L4410,-52 L4411,-51 L4412,-51 L4413,-52 L4414,-53 L4415,-53 L4416,-48 L4417,-50 L4418,-52 L4419,-52 L4420,-52 L4421,-53 L4422,-52 L4423,-51 L4424,-50 L4425,-45 L4426,-56 L4427,-50 L4428,-52 L4429,-52 L4430,-52 L4431,-51 L4432,-51 L4433,-52 L4434,-52 L4435,-52 L4436,-55 L4437,-52 L4438,-50 L4439,-52 L4440,-51 L4441,-53 L4442,-51 L4443,-52 L4444,-50 L4445,-47 L4446,-54 L4447,-51 L4448,-53 L4449,-52 
L4450,-52 L4451,-50 L4452,-50 L4453,-52 L4454,-52 L4455,-53 L4456,-52 L4457,-50 L4458,-51 L4459,-52 L4460,-52 L4461,-53 L4462,-54 L4463,-51 L4464,-52 L4465,-52 L4466,-53 L4467,-52 L4468,-54 L4469,-52 L4470,-50 L4471,-49 L4472,-51 L4473,-52 L4474,-60 L4475,-50 L4476,-51 L4477,-50 L4478,-49 L4479,-47 L4480,-52 L4481,-55 L4482,-76 L4483,-64 L4484,-60 L4485,-62 L4486,-48 L4487,-56 L4488,-60 L4489,-56 L4490,-60 L4491,-56 L4492,-56 L4493,-57 L4494,-56 L4495,-56 L4496,-57 L4497,-54 L4498,-55 L4499,-55 L4500,-55 L4501,-57 L4502,-54 L4503,-56 L4504,-56 L4505,-55 L4506,-52 L4507,-55 L4508,-53 L4509,-54 L4510,-53 L4511,-51 L4512,-52 L4513,-54 L4514,-53 L4515,-52 L4516,-54 L4517,-50 L4518,-52 L4519,-51 L4520,-52 L4521,-54 L4522,-52 L4523,-55 L4524,-54 L4525,-54 L4526,-51 L4527,-54 L4528,-55 L4529,-52 L4530,-53 L4531,-50 L4532,-52 L4533,-53 L4534,-53 L4535,-53 L4536,-54 L4537,-53 L4538,-52 L4539,-51 L4540,-51 L4541,-54 L4542,-53 L4543,-53 L4544,-52 L4545,-51 L4546,-52 L4547,-52 L4548,-52 L4549,-53 
L4550,-53 L4551,-51 L4552,-52 L4553,-52 L4554,-52 L4555,-52 L4556,-52 L4557,-51 L4558,-51 L4559,-51 L4560,-51 L4561,-52 L4562,-52 L4563,-52 L4564,-50 L4565,-53 L4566,-50 L4567,-53 L4568,-53 L4569,-53 L4570,-53 L4571,-51 L4572,-53 L4573,-52 L4574,-52 L4575,-51 L4576,-51 L4577,-51 L4578,-55 L4579,-52 L4580,-53 L4581,-51 L4582,-52 L4583,-49 L4584,-51 L4585,-50 L4586,-51 L4587,-50 L4588,-54 L4589,-50 L4590,-48 L4591,-50 L4592,-53 L4593,-54 L4594,-51 L4595,-51 L4596,-50 L4597,-51 L4598,-47 L4599,-53 L4600,-52 L4601,-52 L4602,-51 L4603,-52 L4604,-52 L4605,-51 L4606,-53 L4607,-51 L4608,-52 L4609,-50 L4610,-51 L4611,-52 L4612,-52 L4613,-53 L4614,-52 L4615,-53 L4616,-51 L4617,-52 L4618,-51 L4619,-52 L4620,-52 L4621,-50 L4622,-52 L4623,-52 L4624,-49 L4625,-49 L4626,-77 L4627,-36 L4628,-49 L4629,-51 L4630,-52 L4631,-53 L4632,-46 L4633,-56 L4634,-60 L4635,-67 L4636,-56 L4637,-54 L4638,-57 L4639,-57 L4640,-55 L4641,-58 L4642,-54 L4643,-55 L4644,-56 L4645,-55 L4646,-57 L4647,-55 L4648,-55 L4649,-54 
L4650,-52 L4651,-54 L4652,-55 L4653,-54 L4654,-53 L4655,-52 L4656,-52 L4657,-53 L4658,-52 L4659,-55 L4660,-52 L4661,-53 L4662,-51 L4663,-53 L4664,-53 L4665,-53 L4666,-54 L4667,-54 L4668,-50 L4669,-52 L4670,-52 L4671,-53 L4672,-52 L4673,-53 L4674,-53 L4675,-53 L4676,-49 L4677,-52 L4678,-52 L4679,-50 L4680,-52 L4681,-51 L4682,-53 L4683,-51 L4684,-53 L4685,-52 L4686,-52 L4687,-50 L4688,-53 L4689,-49 L4690,-51 L4691,-53 L4692,-52 L4693,-52 L4694,-51 L4695,-51 L4696,-51 L4697,-53 L4698,-51 L4699,-55 L4700,-53 L4701,-49 L4702,-52 L4703,-52 L4704,-52 L4705,-53 L4706,-53 L4707,-50 L4708,-50 L4709,-52 L4710,-50 L4711,-52 L4712,-53 L4713,-53 L4714,-52 L4715,-52 L4716,-51 L4717,-52 L4718,-52 L4719,-52 L4720,-52 L4721,-52 L4722,-52 L4723,-52 L4724,-52 L4725,-52 L4726,-55 L4727,-51 L4728,-52 L4729,-51 L4730,-51 L4731,-53 L4732,-51 L4733,-51 L4734,-51 L4735,-51 L4736,-51 L4737,-54 L4738,-52 L4739,-52 L4740,-52 L4741,-50 L4742,-51 L4743,-51 L4744,-51 L4745,-52 L4746,-53 L4747,-50 L4748,-48 L4749,-52 
L4750,-50 L4751,-53 L4752,-53 L4753,-52 L4754,-51 L4755,-50 L4756,-50 L4757,-53 L4758,-52 L4759,-52 L4760,-53 L4761,-49 L4762,-50 L4763,-53 L4764,-52 L4765,-52 L4766,-52 L4767,-51 L4768,-50 L4769,-51 L4770,-51 L4771,-52 L4772,-53 L4773,-52 L4774,-53 L4775,-53 L4776,-49 L4777,-56 L4778,-48 L4779,-52 L4780,-53 L4781,-49 L4782,-52 L4783,-57 L4784,-52 L4785,-69 L4786,-41 L4787,-52 L4788,-49 L4789,-52 L4790,-62 L4791,-60 L4792,-55 L4793,-59 L4794,-56 L4795,-55 L4796,-58 L4797,-58 L4798,-58 L4799,-56 L4800,-56 L4801,-54 L4802,-56 L4803,-56 L4804,-56 L4805,-54 L4806,-55 L4807,-52 L4808,-53 L4809,-56 L4810,-53 L4811,-55 L4812,-52 L4813,-53 L4814,-53 L4815,-53 L4816,-53 L4817,-53 L4818,-54 L4819,-51 L4820,-52 L4821,-51 L4822,-52 L4823,-52 L4824,-53 L4825,-52 L4826,-54 L4827,-50 L4828,-52 L4829,-52 L4830,-52 L4831,-53 L4832,-53 L4833,-53 L4834,-52 L4835,-52 L4836,-52 L4837,-52 L4838,-51 L4839,-53 L4840,-52 L4841,-51 L4842,-52 L4843,-51 L4844,-52 L4845,-52 L4846,-52 L4847,-53 L4848,-49 L4849,-53 
L4850,-56 L4851,-52 L4852,-51 L4853,-52 L4854,-55 L4855,-44 L4856,-56 L4857,-49 L4858,-51 L4859,-53 L4860,-52 L4861,-49 L4862,-53 L4863,-51 L4864,-52 L4865,-52 L4866,-53 L4867,-53 L4868,-53 L4869,-50 L4870,-52 L4871,-52 L4872,-52 L4873,-53 L4874,-52 L4875,-51 L4876,-53 L4877,-51 L4878,-51 L4879,-53 L4880,-53 L4881,-51 L4882,-52 L4883,-51 L4884,-52 L4885,-52 L4886,-52 L4887,-52 L4888,-53 L4889,-52 L4890,-52 L4891,-52 L4892,-52 L4893,-51 L4894,-52 L4895,-50 L4896,-51 L4897,-51 L4898,-50 L4899,-52 L4900,-53 L4901,-52 L4902,-52 L4903,-51 L4904,-51 L4905,-51 L4906,-52 L4907,-52 L4908,-52 L4909,-50 L4910,-50 L4911,-52 L4912,-52 L4913,-52 L4914,-53 L4915,-51 L4916,-50 L4917,-52 L4918,-52 L4919,-53 L4920,-52 L4921,-50 L4922,-55 L4923,-52 L4924,-52 L4925,-53 L4926,-51 L4927,-51 L4928,-52 L4929,-56 L4930,-40 L4931,-55 L4932,-54 L4933,-50 L4934,-52 L4935,-50 L4936,-70 L4937,-53 L4938,-46 L4939,-54 L4940,-57 L4941,-61 L4942,-54 L4943,-54 L4944,-56 L4945,-55 L4946,-56 L4947,-56 L4948,-55 L4949,-55 
L4950,-53 L4951,-55 L4952,-56 L4953,-56 L4954,-55 L4955,-54 L4956,-53 L4957,-54 L4958,-53 L4959,-53 L4960,-54 L4961,-52 L4962,-53 L4963,-52 L4964,-53 L4965,-53 L4966,-53 L4967,-51 L4968,-52 L4969,-52 L4970,-52 L4971,-56 L4972,-53 L4973,-54 L4974,-52 L4975,-52 L4976,-51 L4977,-53 L4978,-53 L4979,-54 L4980,-53 L4981,-52 L4982,-52 L4983,-51 L4984,-53 L4985,-51 L4986,-53 L4987,-52 L4988,-52 L4989,-51 L4990,-52 L4991,-52 L4992,-51 L4993,-52 L4994,-52 L4995,-52 L4996,-50 L4997,-54 L4998,-53 L4999,-52 "/>
  <text font-family="Arial" x="638" y="458" fill="blue" font-size="20" text-anchor="end">CHC: 50mV/div 0.05ms/div</text>
  <text font-family="Arial" x="2" y="458" fill="blue" font-size="20" text-anchor="start" id="CHC"> </text>
  <text font-family="Arial" x="638" y="478" fill="#00ff00" font-size="20" text-anchor="end">CHD: 50mV/div 0.05ms/div</text>
  <text font-family="Arial" x="2" y="478" fill="#00ff00" font-size="20" text-anchor="start" id="CHD"> </text>
<script type="text/ecmascript"><![CDATA[
function init(evt) { if ( window.svgDocument == null ) svgDocument = evt.target.ownerDocument; }
function fmtT(val, div) {
  if (div > 100) return Math.floor((val-320)*div/64) + " ms";
  if (div > 0.025) return Math.floor((val-320)*div*1000/64)/1000 + " ms";
  return Math.floor((val-320)*div*1000*1000/64)/1000 + " us";
}
function fmtU(val, div, shift) { shift *= -60/25; return Math.floor((240-val+shift)*div/60) + " mV"; }
function msMove (evt)
{
	var x = evt.clientX;
	var y = evt.clientY;
	if (x < 0 || y < 0 || x >= 640 || y >= 480)
		return;
	svgDocument.getElementById("CHC").firstChild.data = fmtU(y, 50, 0) + " " + fmtT(x, 0.05);
	svgDocument.getElementById("CHD").firstChild.data = fmtU(y, 50, -50) + " " + fmtT(x, 0.05);
}
]]></script>
</g></svg>
