<?xml version="1.0" encoding="iso-8859-1"?>
<!DOCTYPE svg PUBLIC "-//W3C//DTD SVG 1.0//EN" "http://www.w3.org/TR/2001/REC-SVG-20010904/DTD/svg10.dtd">
<svg width="4096" height="256" xmlns="http://www.w3.org/2000/svg" xmlns:xlink="http://www.w3.org/1999/xlink" onload="init(evt)" onmousemove="msMove(evt)">
<path stroke="none" fill="black" d="M0,0 H4096 V256 H0 V0"/>
<path stroke="none" fill="#000040" d="M30,0 H330 V256 H30 V0"/>
<path stroke="none" fill="#400000" d="M0,0 H30 V256 H0 V0"/>
<path stroke="#404040" d="M0,0 H4096"/>
<path stroke="#404040" d="M0,32 H4096"/>
<path stroke="#404040" d="M0,64 H4096"/>
<path stroke="#404040" d="M0,96 H4096"/>
<path stroke="#404040" d="M0,128 H4096"/>
<path stroke="#404040" d="M0,160 H4096"/>
<path stroke="#404040" d="M0,192 H4096"/>
<path stroke="#404040" d="M0,224 H4096"/>
<path stroke="#404040" d="M0,256 H4096"/>
<path stroke="#404040" d="M0,0 V256"/>
<path stroke="#404040" d="M32,0 V256"/>
<path stroke="#404040" d="M64,0 V256"/>
<path stroke="#404040" d="M96,0 V256"/>
<path stroke="#404040" d="M128,0 V256"/>
<path stroke="#404040" d="M160,0 V256"/>
<path stroke="#404040" d="M192,0 V256"/>
<path stroke="#404040" d="M224,0 V256"/>
<path stroke="#404040" d="M256,0 V256"/>
<path stroke="#404040" d="M288,0 V256"/>
<path stroke="#404040" d="M320,0 V256"/>
<path stroke="#404040" d="M352,0 V256"/>
<path stroke="#404040" d="M384,0 V256"/>
<path stroke="#404040" d="M416,0 V256"/>
<path stroke="#404040" d="M448,0 V256"/>
<path stroke="#404040" d="M480,0 V256"/>
<path stroke="#404040" d="M512,0 V256"/>
<path stroke="#404040" d="M544,0 V256"/>
<path stroke="#404040" d="M576,0 V256"/>
<path stroke="#404040" d="M608,0 V256"/>
<path stroke="#404040" d="M640,0 V256"/>
<path stroke="#404040" d="M672,0 V256"/>
<path stroke="#404040" d="M704,0 V256"/>
<path stroke="#404040" d="M736,0 V256"/>
<path stroke="#404040" d="M768,0 V256"/>
<path stroke="#404040" d="M800,0 V256"/>
<path stroke="#404040" d="M832,0 V256"/>
<path stroke="#404040" d="M864,0 V256"/>
<path stroke="#404040" d="M896,0 V256"/>
<path stroke="#404040" d="M928,0 V256"/>
<path stroke="#404040" d="M960,0 V256"/>
<path stroke="#404040" d="M992,0 V256"/>
<path stroke="#404040" d="M1024,0 V256"/>
<path stroke="#404040" d="M1056,0 V256"/>
<path stroke="#404040" d="M1088,0 V256"/>
<path stroke="#404040" d="M1120,0 V256"/>
<path stroke="#404040" d="M1152,0 V256"/>
<path stroke="#404040" d="M1184,0 V256"/>
<path stroke="#404040" d="M1216,0 V256"/>
<path stroke="#404040" d="M1248,0 V256"/>
<path stroke="#404040" d="M1280,0 V256"/>
<path stroke="#404040" d="M1312,0 V256"/>
<path stroke="#404040" d="M1344,0 V256"/>
<path stroke="#404040" d="M1376,0 V256"/>
<path stroke="#404040" d="M1408,0 V256"/>
<path stroke="#404040" d="M1440,0 V256"/>
<path stroke="#404040" d="M1472,0 V256"/>
<path stroke="#404040" d="M1504,0 V256"/>
<path stroke="#404040" d="M1536,0 V256"/>
<path stroke="#404040" d="M1568,0 V256"/>
<path stroke="#404040" d="M1600,0 V256"/>
<path stroke="#404040" d="M1632,0 V256"/>
<path stroke="#404040" d="M1664,0 V256"/>
<path stroke="#404040" d="M1696,0 V256"/>
<path stroke="#404040" d="M1728,0 V256"/>
<path stroke="#404040" d="M1760,0 V256"/>
<path stroke="#404040" d="M1792,0 V256"/>
<path stroke="#404040" d="M1824,0 V256"/>
<path stroke="#404040" d="M1856,0 V256"/>
<path stroke="#404040" d="M1888,0 V256"/>
<path stroke="#404040" d="M1920,0 V256"/>
<path stroke="#404040" d="M1952,0 V256"/>
<path stroke="#404040" d="M1984,0 V256"/>
<path stroke="#404040" d="M2016,0 V256"/>
<path stroke="#404040" d="M2048,0 V256"/>
<path stroke="#404040" d="M2080,0 V256"/>
<path stroke="#404040" d="M2112,0 V256"/>
<path stroke="#404040" d="M2144,0 V256"/>
<path stroke="#404040" d="M2176,0 V256"/>
<path stroke="#404040" d="M2208,0 V256"/>
<path stroke="#404040" d="M2240,0 V256"/>
<path stroke="#404040" d="M2272,0 V256"/>
<path stroke="#404040" d="M2304,0 V256"/>
<path stroke="#404040" d="M2336,0 V256"/>
<path stroke="#404040" d="M2368,0 V256"/>
<path stroke="#404040" d="M2400,0 V256"/>
<path stroke="#404040" d="M2432,0 V256"/>
<path stroke="#404040" d="M2464,0 V256"/>
<path stroke="#404040" d="M2496,0 V256"/>
<path stroke="#404040" d="M2528,0 V256"/>
<path stroke="#404040" d="M2560,0 V256"/>
<path stroke="#404040" d="M2592,0 V256"/>
<path stroke="#404040" d="M2624,0 V256"/>
<path stroke="#404040" d="M2656,0 V256"/>
<path stroke="#404040" d="M2688,0 V256"/>
<path stroke="#404040" d="M2720,0 V256"/>
<path stroke="#404040" d="M2752,0 V256"/>
<path stroke="#404040" d="M2784,0 V256"/>
<path stroke="#404040" d="M2816,0 V256"/>
<path stroke="#404040" d="M2848,0 V256"/>
<path stroke="#404040" d="M2880,0 V256"/>
<path stroke="#404040" d="M2912,0 V256"/>
<path stroke="#404040" d="M2944,0 V256"/>
<path stroke="#404040" d="M2976,0 V256"/>
<path stroke="#404040" d="M3008,0 V256"/>
<path stroke="#404040" d="M3040,0 V256"/>
<path stroke="#404040" d="M3072,0 V256"/>
<path stroke="#404040" d="M3104,0 V256"/>
<path stroke="#404040" d="M3136,0 V256"/>
<path stroke="#404040" d="M3168,0 V256"/>
<path stroke="#404040" d="M3200,0 V256"/>
<path stroke="#404040" d="M3232,0 V256"/>
<path stroke="#404040" d="M3264,0 V256"/>
<path stroke="#404040" d="M3296,0 V256"/>
<path stroke="#404040" d="M3328,0 V256"/>
<path stroke="#404040" d="M3360,0 V256"/>
<path stroke="#404040" d="M3392,0 V256"/>
<path stroke="#404040" d="M3424,0 V256"/>
<path stroke="#404040" d="M3456,0 V256"/>
<path stroke="#404040" d="M3488,0 V256"/>
<path stroke="#404040" d="M3520,0 V256"/>
<path stroke="#404040" d="M3552,0 V256"/>
<path stroke="#404040" d="M3584,0 V256"/>
<path stroke="#404040" d="M3616,0 V256"/>
<path stroke="#404040" d="M3648,0 V256"/>
<path stroke="#404040" d="M3680,0 V256"/>
<path stroke="#404040" d="M3712,0 V256"/>
<path stroke="#404040" d="M3744,0 V256"/>
<path stroke="#404040" d="M3776,0 V256"/>
<path stroke="#404040" d="M3808,0 V256"/>
<path stroke="#404040" d="M3840,0 V256"/>
<path stroke="#404040" d="M3872,0 V256"/>
<path stroke="#404040" d="M3904,0 V256"/>
<path stroke="#404040" d="M3936,0 V256"/>
<path stroke="#404040" d="M3968,0 V256"/>
<path stroke="#404040" d="M4000,0 V256"/>
<path stroke="#404040" d="M4032,0 V256"/>
<path stroke="#404040" d="M4064,0 V256"/>
<path stroke="yellow" fill="none" stroke-width="1" d="M0,88 L1,88 L2,88 L3,89 L4,88 L5,89 L6,88 L7,89 L8,88 L9,88 L10,88 L11,88 L12,89 L13,88 L14,88 L15,88 L16,88 L17,88 L18,88 L19,89 L20,89 L21,88 L22,87 L23,88 L24,88 L25,88 L26,88 L27,88 L28,88 L29,88 L30,88 L31,89 L32,88 L33,88 L34,88 L35,88 L36,88 L37,88 L38,88 L39,89 L40,88 L41,88 L42,88 L43,89 L44,88 L45,88 L46,88 L47,88 L48,88 L49,88 L50,89 L51,89 L52,88 L53,88 L54,88 L55,89 L56,89 L57,88 L58,89 L59,89 L60,88 L61,88 L62,88 L63,89 L64,89 L65,88 L66,88 L67,89 L68,88 L69,88 L70,88 L71,88 L72,88 L73,88 L74,89 L75,88 L76,88 L77,88 L78,88 L79,88 L80,88 L81,88 L82,89 L83,88 L84,89 L85,88 L86,88 L87,88 L88,88 L89,88 L90,89 L91,88 L92,88 L93,88 L94,89 L95,89 L96,88 L97,88 L98,88 L99,89 L100,88 L101,88 L102,88 L103,88 L104,88 L105,88 L106,89 L107,89 L108,88 L109,88 L110,88 L111,88 L112,88 L113,89 L114,88 L115,88 L116,88 L117,89 L118,89 L119,89 L120,88 L121,88 L122,89 L123,88 L124,160 L125,161 L126,161 L127,161 L128,161 L129,161 L130,161 L131,161 L132,161 L133,161 L134,161 L135,161 L136,161 L137,162 L138,162 L139,161 L140,161 L141,161 L142,161 L143,162 L144,162 L145,162 L146,162 L147,162 L148,162 L149,162 L150,88 L151,88 L152,88 L153,88 L154,88 L155,162 L156,163 L157,162 L158,162 L159,161 L160,162 L161,162 L162,162 L163,162 L164,161 L165,162 L166,162 L167,160 L168,162 L169,162 L170,68 L171,88 L172,88 L173,88 L174,89 L175,89 L176,163 L177,162 L178,162 L179,162 L180,162 L181,88 L182,88 L183,89 L184,88 L185,88 L186,88 L187,89 L188,89 L189,88 L190,88 L191,163 L192,161 L193,162 L194,162 L195,162 L196,89 L197,88 L198,88 L199,88 L200,89 L201,89 L202,88 L203,88 L204,88 L205,89 L206,88 L207,88 L208,88 L209,88 L210,88 L211,88 L212,88 L213,89 L214,88 L215,88 L216,88 L217,164 L218,162 L219,163 L220,162 L221,162 L222,141 L223,88 L224,88 L225,86 L226,88 L227,88 L228,162 L229,161 L230,161 L231,162 L232,162 L233,162 L234,161 L235,162 L236,162 L237,162 L238,162 L239,162 L240,161 L241,162 L242,162 L243,162 L244,162 L245,162 L246,162 L247,162 L248,162 L249,163 L250,160 L251,162 L252,162 L253,162 L254,88 L255,88 L256,88 L257,88 L258,88 L259,163 L260,162 L261,161 L262,162 L263,163 L264,162 L265,161 L266,162 L267,163 L268,162 L269,162 L270,162 L271,162 L272,162 L273,161 L274,162 L275,88 L276,88 L277,88 L278,88 L279,88 L280,163 L281,162 L282,162 L283,162 L284,162 L285,162 L286,162 L287,162 L288,162 L289,161 L290,162 L291,162 L292,161 L293,162 L294,162 L295,162 L296,162 L297,161 L298,162 L299,163 L300,162 L301,162 L302,162 L303,162 L304,162 L305,162 L306,88 L307,89 L308,88 L309,88 L310,88 L311,163 L312,163 L313,163 L314,162 L315,162 L316,162 L317,162 L318,162 L319,162 L320,162 L321,162 L322,162 L323,162 L324,162 L325,163 L326,162 L327,88 L328,88 L329,88 L330,88 L331,88 L332,162 L333,163 L334,162 L335,162 L336,162 L337,162 L338,162 L339,162 L340,161 L341,161 L342,86 L343,88 L344,88 L345,89 L346,88 L347,115 L348,162 L349,163 L350,163 L351,162 L352,162 L353,88 L354,88 L355,88 L356,88 L357,89 L358,163 L359,161 L360,162 L361,163 L362,162 L363,162 L364,162 L365,162 L366,162 L367,161 L368,162 L369,163 L370,162 L371,161 L372,161 L373,162 L374,163 L375,162 L376,162 L377,162 L378,162 L379,88 L380,88 L381,88 L382,88 L383,88 L384,162 L385,162 L386,162 L387,162 L388,162 L389,162 L390,161 L391,162 L392,162 L393,162 L394,162 L395,161 L396,162 L397,162 L398,161 L399,162 L400,162 L401,162 L402,162 L403,162 L404,162 L405,162 L406,162 L407,162 L408,162 L409,162 L410,161 L411,162 L412,162 L413,163 L414,162 L415,161 L416,162 L417,162 L418,162 L419,162 L420,161 L421,162 L422,161 L423,164 L424,162 L425,162 L426,162 L427,162 L428,162 L429,162 L430,162 L431,88 L432,89 L433,88 L434,88 L435,88 L436,164 L437,163 L438,162 L439,162 L440,162 L441,162 L442,162 L443,162 L444,162 L445,162 L446,161 L447,162 L448,164 L449,162 L450,162 L451,162 L452,162 L453,162 L454,162 L455,162 L456,162 L457,162 L458,162 L459,162 L460,162 L461,162 L462,162 L463,162 L464,162 L465,161 L466,162 L467,162 L468,162 L469,162 L470,162 L471,162 L472,162 L473,162 L474,162 L475,163 L476,163 L477,161 L478,162 L479,162 L480,162 L481,163 L482,162 L483,88 L484,88 L485,88 L486,88 L487,89 L488,163 L489,162 L490,162 L491,162 L492,162 L493,163 L494,162 L495,162 L496,162 L497,162 L498,162 L499,162 L500,162 L501,162 L502,162 L503,162 L504,162 L505,162 L506,164 L507,163 L508,162 L509,161 L510,162 L511,162 L512,162 L513,162 L514,162 L515,162 L516,162 L517,162 L518,162 L519,163 L520,162 L521,162 L522,162 L523,162 L524,162 L525,162 L526,162 L527,162 L528,161 L529,162 L530,162 L531,163 L532,162 L533,162 L534,162 L535,88 L536,88 L537,88 L538,89 L539,88 L540,163 L541,162 L542,163 L543,163 L544,162 L545,86 L546,88 L547,88 L548,88 L549,88 L550,89 L551,163 L552,162 L553,162 L554,162 L555,162 L556,88 L557,89 L558,88 L559,88 L560,88 L561,163 L562,163 L563,162 L564,162 L565,162 L566,87 L567,88 L568,88 L569,88 L570,88 L571,164 L572,162 L573,163 L574,163 L575,162 L576,161 L577,88 L578,88 L579,88 L580,88 L581,88 L582,163 L583,163 L584,161 L585,162 L586,163 L587,88 L588,88 L589,88 L590,88 L591,88 L592,164 L593,163 L594,163 L595,162 L596,162 L597,77 L598,88 L599,88 L600,88 L601,89 L602,88 L603,162 L604,162 L605,163 L606,162 L607,162 L608,87 L609,88 L610,88 L611,88 L612,89 L613,163 L614,162 L615,162 L616,162 L617,162 L618,86 L619,88 L620,88 L621,88 L622,88 L623,183 L624,162 L625,163 L626,162 L627,162 L628,161 L629,162 L630,162 L631,162 L632,162 L633,162 L634,161 L635,162 L636,162 L637,163 L638,162 L639,87 L640,88 L641,88 L642,88 L643,88 L644,165 L645,162 L646,162 L647,162 L648,163 L649,163 L650,162 L651,162 L652,162 L653,162 L654,162 L655,88 L656,88 L657,88 L658,88 L659,88 L660,88 L661,89 L662,89 L663,89 L664,88 L665,163 L666,162 L667,162 L668,162 L669,162 L670,162 L671,162 L672,162 L673,163 L674,162 L675,162 L676,163 L677,161 L678,161 L679,161 L680,163 L681,162 L682,162 L683,162 L684,162 L685,162 L686,162 L687,162 L688,162 L689,162 L690,162 L691,86 L692,88 L693,88 L694,88 L695,88 L696,164 L697,162 L698,162 L699,162 L700,162 L701,162 L702,162 L703,162 L704,160 L705,162 L706,162 L707,163 L708,162 L709,161 L710,161 L711,163 L712,162 L713,162 L714,161 L715,162 L716,162 L717,161 L718,162 L719,163 L720,162 L721,162 L722,161 L723,162 L724,162 L725,162 L726,162 L727,162 L728,162 L729,161 L730,162 L731,162 L732,162 L733,161 L734,162 L735,162 L736,162 L737,161 L738,163 L739,162 L740,162 L741,162 L742,163 L743,87 L744,88 L745,88 L746,89 L747,88 L748,182 L749,163 L750,163 L751,163 L752,162 L753,161 L754,88 L755,89 L756,88 L757,88 L758,88 L759,163 L760,162 L761,163 L762,161 L763,163 L764,87 L765,88 L766,88 L767,88 L768,88 L769,164 L770,163 L771,162 L772,162 L773,163 L774,162 L775,162 L776,161 L777,162 L778,162 L779,162 L780,162 L781,162 L782,162 L783,162 L784,161 L785,162 L786,162 L787,161 L788,162 L789,162 L790,162 L791,162 L792,161 L793,162 L794,162 L795,86 L796,88 L797,88 L798,88 L799,88 L800,113 L801,163 L802,162 L803,162 L804,162 L805,163 L806,162 L807,162 L808,162 L809,162 L810,161 L811,88 L812,89 L813,89 L814,88 L815,88 L816,163 L817,162 L818,163 L819,162 L820,162 L821,86 L822,88 L823,88 L824,88 L825,88 L826,89 L827,162 L828,162 L829,162 L830,163 L831,162 L832,162 L833,162 L834,161 L835,161 L836,163 L837,163 L838,162 L839,162 L840,162 L841,161 L842,162 L843,162 L844,163 L845,162 L846,161 L847,86 L848,89 L849,88 L850,88 L851,88 L852,88 L853,163 L854,162 L855,162 L856,162 L857,162 L858,88 L859,88 L860,88 L861,88 L862,89 L863,88 L864,88 L865,88 L866,89 L867,89 L868,89 L869,88 L870,88 L871,88 L872,88 L873,88 L874,88 L875,89 L876,88 L877,88 L878,88 L879,88 L880,89 L881,89 L882,88 L883,88 L884,88 L885,88 L886,88 L887,88 L888,88 L889,88 L890,87 L891,88 L892,89 L893,89 L894,88 L895,88 L896,88 L897,88 L898,88 L899,88 L900,88 L901,88 L902,88 L903,88 L904,88 L905,162 L906,162 L907,162 L908,162 L909,162 L910,162 L911,162 L912,162 L913,162 L914,162 L915,162 L916,162 L917,162 L918,162 L919,162 L920,162 L921,161 L922,162 L923,162 L924,163 L925,162 L926,162 L927,162 L928,162 L929,161 L930,162 L931,162 L932,162 L933,162 L934,162 L935,163 L936,162 L937,162 L938,162 L939,162 L940,162 L941,162 L942,163 L943,163 L944,162 L945,162 L946,162 L947,162 L948,161 L949,162 L950,163 L951,162 L952,87 L953,87 L954,88 L955,88 L956,88 L957,162 L958,162 L959,162 L960,164 L961,162 L962,88 L963,88 L964,88 L965,88 L966,88 L967,163 L968,162 L969,162 L970,162 L971,161 L972,85 L973,88 L974,88 L975,88 L976,88 L977,88 L978,162 L979,162 L980,162 L981,163 L982,162 L983,162 L984,161 L985,163 L986,163 L987,162 L988,162 L989,162 L990,162 L991,162 L992,161 L993,163 L994,162 L995,162 L996,162 L997,162 L998,162 L999,162 L1000,162 L1001,162 L1002,161 L1003,162 L1004,88 L1005,88 L1006,88 L1007,88 L1008,88 L1009,163 L1010,162 L1011,162 L1012,162 L1013,163 L1014,162 L1015,161 L1016,162 L1017,163 L1018,164 L1019,86 L1020,88 L1021,88 L1022,88 L1023,88 L1024,174 L1025,163 L1026,162 L1027,162 L1028,162 L1029,163 L1030,88 L1031,88 L1032,88 L1033,89 L1034,88 L1035,162 L1036,162 L1037,162 L1038,162 L1039,162 L1040,162 L1041,162 L1042,162 L1043,163 L1044,162 L1045,162 L1046,161 L1047,162 L1048,163 L1049,163 L1050,161 L1051,162 L1052,162 L1053,162 L1054,162 L1055,162 L1056,88 L1057,88 L1058,88 L1059,88 L1060,88 L1061,163 L1062,163 L1063,162 L1064,162 L1065,162 L1066,162 L1067,162 L1068,162 L1069,162 L1070,162 L1071,162 L1072,162 L1073,162 L1074,162 L1075,162 L1076,162 L1077,161 L1078,162 L1079,162 L1080,162 L1081,162 L1082,162 L1083,162 L1084,162 L1085,162 L1086,161 L1087,163 L1088,162 L1089,162 L1090,161 L1091,162 L1092,162 L1093,162 L1094,161 L1095,162 L1096,162 L1097,162 L1098,161 L1099,162 L1100,162 L1101,162 L1102,162 L1103,162 L1104,161 L1105,162 L1106,162 L1107,162 L1108,88 L1109,88 L1110,89 L1111,89 L1112,88 L1113,162 L1114,162 L1115,163 L1116,162 L1117,162 L1118,87 L1119,89 L1120,88 L1121,88 L1122,88 L1123,89 L1124,89 L1125,88 L1126,88 L1127,88 L1128,88 L1129,88 L1130,89 L1131,89 L1132,88 L1133,88 L1134,88 L1135,89 L1136,89 L1137,88 L1138,89 L1139,88 L1140,88 L1141,89 L1142,89 L1143,89 L1144,88 L1145,88 L1146,89 L1147,88 L1148,88 L1149,88 L1150,89 L1151,88 L1152,88 L1153,88 L1154,88 L1155,89 L1156,88 L1157,88 L1158,88 L1159,88 L1160,88 L1161,88 L1162,88 L1163,89 L1164,88 L1165,163 L1166,162 L1167,162 L1168,162 L1169,162 L1170,86 L1171,88 L1172,88 L1173,88 L1174,88 L1175,88 L1176,88 L1177,89 L1178,88 L1179,88 L1180,88 L1181,89 L1182,88 L1183,88 L1184,88 L1185,88 L1186,89 L1187,88 L1188,88 L1189,88 L1190,89 L1191,88 L1192,88 L1193,88 L1194,89 L1195,88 L1196,164 L1197,162 L1198,162 L1199,162 L1200,162 L1201,108 L1202,88 L1203,88 L1204,88 L1205,88 L1206,88 L1207,88 L1208,88 L1209,88 L1210,88 L1211,88 L1212,89 L1213,88 L1214,88 L1215,88 L1216,86 L1217,164 L1218,163 L1219,162 L1220,162 L1221,162 L1222,162 L1223,162 L1224,161 L1225,163 L1226,162 L1227,161 L1228,162 L1229,162 L1230,162 L1231,162 L1232,161 L1233,162 L1234,162 L1235,162 L1236,162 L1237,162 L1238,162 L1239,162 L1240,162 L1241,161 L1242,162 L1243,87 L1244,89 L1245,88 L1246,88 L1247,88 L1248,165 L1249,163 L1250,162 L1251,162 L1252,163 L1253,162 L1254,162 L1255,162 L1256,163 L1257,162 L1258,161 L1259,162 L1260,162 L1261,163 L1262,163 L1263,161 L1264,88 L1265,88 L1266,88 L1267,88 L1268,89 L1269,164 L1270,162 L1271,162 L1272,162 L1273,162 L1274,84 L1275,88 L1276,88 L1277,88 L1278,88 L1279,88 L1280,89 L1281,88 L1282,88 L1283,89 L1284,88 L1285,162 L1286,162 L1287,162 L1288,162 L1289,162 L1290,161 L1291,163 L1292,162 L1293,162 L1294,162 L1295,162 L1296,162 L1297,162 L1298,162 L1299,160 L1300,162 L1301,162 L1302,161 L1303,162 L1304,162 L1305,162 L1306,163 L1307,162 L1308,162 L1309,162 L1310,162 L1311,162 L1312,163 L1313,162 L1314,162 L1315,162 L1316,88 L1317,88 L1318,88 L1319,89 L1320,88 L1321,88 L1322,88 L1323,88 L1324,88 L1325,88 L1326,88 L1327,88 L1328,88 L1329,88 L1330,88 L1331,89 L1332,88 L1333,88 L1334,88 L1335,89 L1336,88 L1337,88 L1338,88 L1339,88 L1340,88 L1341,88 L1342,89 L1343,89 L1344,89 L1345,88 L1346,88 L1347,88 L1348,88 L1349,89 L1350,89 L1351,88 L1352,89 L1353,88 L1354,89 L1355,89 L1356,88 L1357,88 L1358,89 L1359,89 L1360,88 L1361,88 L1362,89 L1363,89 L1364,88 L1365,88 L1366,88 L1367,88 L1368,89 L1369,88 L1370,88 L1371,88 L1372,88 L1373,89 L1374,89 L1375,88 L1376,88 L1377,88 L1378,88 L1379,89 L1380,89 L1381,89 L1382,88 L1383,88 L1384,88 L1385,89 L1386,89 L1387,88 L1388,88 L1389,88 L1390,88 L1391,88 L1392,88 L1393,88 L1394,89 L1395,88 L1396,88 L1397,88 L1398,89 L1399,88 L1400,88 L1401,88 L1402,88 L1403,88 L1404,88 L1405,88 L1406,88 L1407,88 L1408,88 L1409,88 L1410,88 L1411,88 L1412,88 L1413,89 L1414,88 L1415,88 L1416,88 L1417,89 L1418,88 L1419,88 L1420,88 L1421,88 L1422,88 L1423,88 L1424,88 L1425,89 L1426,88 L1427,88 L1428,88 L1429,89 L1430,89 L1431,88 L1432,88 L1433,88 L1434,89 L1435,89 L1436,89 L1437,88 L1438,88 L1439,88 L1440,88 L1441,88 L1442,89 L1443,88 L1444,89 L1445,88 L1446,88 L1447,89 L1448,89 L1449,88 L1450,88 L1451,88 L1452,89 L1453,88 L1454,88 L1455,89 L1456,89 L1457,88 L1458,88 L1459,88 L1460,89 L1461,88 L1462,88 L1463,88 L1464,88 L1465,88 L1466,88 L1467,88 L1468,89 L1469,88 L1470,88 L1471,88 L1472,91 L1473,89 L1474,88 L1475,89 L1476,88 L1477,88 L1478,88 L1479,88 L1480,89 L1481,88 L1482,88 L1483,88 L1484,89 L1485,88 L1486,88 L1487,89 L1488,88 L1489,88 L1490,88 L1491,89 L1492,89 L1493,88 L1494,88 L1495,88 L1496,88 L1497,90 L1498,88 L1499,89 L1500,88 L1501,88 L1502,88 L1503,88 L1504,89 L1505,89 L1506,88 L1507,88 L1508,88 L1509,88 L1510,88 L1511,89 L1512,88 L1513,88 L1514,88 L1515,89 L1516,88 L1517,88 L1518,89 L1519,88 L1520,88 L1521,88 L1522,88 L1523,89 L1524,88 L1525,88 L1526,88 L1527,88 L1528,88 L1529,88 L1530,90 L1531,89 L1532,89 L1533,88 L1534,88 L1535,89 L1536,89 L1537,88 L1538,88 L1539,88 L1540,88 L1541,88 L1542,89 L1543,88 L1544,88 L1545,88 L1546,88 L1547,88 L1548,88 L1549,89 L1550,89 L1551,88 L1552,88 L1553,88 L1554,89 L1555,90 L1556,88 L1557,88 L1558,88 L1559,88 L1560,88 L1561,88 L1562,89 L1563,89 L1564,88 L1565,88 L1566,89 L1567,89 L1568,88 L1569,88 L1570,88 L1571,88 L1572,88 L1573,88 L1574,88 L1575,88 L1576,88 L1577,88 L1578,88 L1579,88 L1580,89 L1581,89 L1582,88 L1583,88 L1584,88 L1585,89 L1586,89 L1587,88 L1588,88 L1589,88 L1590,88 L1591,88 L1592,88 L1593,89 L1594,89 L1595,88 L1596,88 L1597,89 L1598,89 L1599,88 L1600,88 L1601,88 L1602,89 L1603,88 L1604,88 L1605,88 L1606,88 L1607,88 L1608,88 L1609,89 L1610,88 L1611,88 L1612,89 L1613,88 L1614,88 L1615,88 L1616,89 L1617,89 L1618,89 L1619,88 L1620,88 L1621,89 L1622,89 L1623,88 L1624,89 L1625,89 L1626,88 L1627,88 L1628,88 L1629,89 L1630,88 L1631,88 L1632,88 L1633,88 L1634,88 L1635,88 L1636,88 L1637,89 L1638,88 L1639,88 L1640,88 L1641,88 L1642,88 L1643,88 L1644,88 L1645,88 L1646,88 L1647,88 L1648,89 L1649,88 L1650,88 L1651,88 L1652,88 L1653,88 L1654,88 L1655,89 L1656,88 L1657,88 L1658,88 L1659,88 L1660,89 L1661,88 L1662,88 L1663,88 L1664,88 L1665,88 L1666,88 L1667,88 L1668,88 L1669,89 L1670,88 L1671,88 L1672,89 L1673,88 L1674,88 L1675,88 L1676,88 L1677,88 L1678,88 L1679,89 L1680,88 L1681,88 L1682,88 L1683,88 L1684,88 L1685,88 L1686,88 L1687,89 L1688,88 L1689,88 L1690,88 L1691,89 L1692,89 L1693,88 L1694,88 L1695,88 L1696,88 L1697,88 L1698,88 L1699,89 L1700,88 L1701,88 L1702,88 L1703,88 L1704,89 L1705,89 L1706,88 L1707,88 L1708,88 L1709,88 L1710,88 L1711,88 L1712,89 L1713,88 L1714,88 L1715,88 L1716,88 L1717,88 L1718,89 L1719,89 L1720,88 L1721,88 L1722,89 L1723,88 L1724,88 L1725,88 L1726,88 L1727,88 L1728,87 L1729,88 L1730,89 L1731,89 L1732,88 L1733,88 L1734,88 L1735,88 L1736,88 L1737,88 L1738,88 L1739,88 L1740,88 L1741,88 L1742,89 L1743,88 L1744,88 L1745,88 L1746,88 L1747,88 L1748,88 L1749,88 L1750,88 L1751,88 L1752,88 L1753,86 L1754,88 L1755,88 L1756,88 L1757,88 L1758,89 L1759,89 L1760,88 L1761,89 L1762,89 L1763,88 L1764,88 L1765,88 L1766,88 L1767,89 L1768,88 L1769,88 L1770,88 L1771,88 L1772,88 L1773,88 L1774,88 L1775,88 L1776,88 L1777,88 L1778,88 L1779,88 L1780,88 L1781,89 L1782,88 L1783,88 L1784,88 L1785,88 L1786,86 L1787,88 L1788,88 L1789,88 L1790,88 L1791,88 L1792,88 L1793,89 L1794,88 L1795,88 L1796,87 L1797,89 L1798,89 L1799,88 L1800,88 L1801,88 L1802,89 L1803,88 L1804,88 L1805,89 L1806,88 L1807,88 L1808,88 L1809,88 L1810,89 L1811,86 L1812,89 L1813,88 L1814,88 L1815,88 L1816,89 L1817,89 L1818,89 L1819,88 L1820,89 L1821,88 L1822,88 L1823,89 L1824,89 L1825,88 L1826,88 L1827,88 L1828,89 L1829,89 L1830,88 L1831,88 L1832,88 L1833,88 L1834,88 L1835,88 L1836,88 L1837,89 L1838,88 L1839,88 L1840,89 L1841,89 L1842,89 L1843,88 L1844,88 L1845,88 L1846,88 L1847,88 L1848,88 L1849,88 L1850,88 L1851,88 L1852,88 L1853,88 L1854,88 L1855,88 L1856,88 L1857,88 L1858,88 L1859,88 L1860,89 L1861,89 L1862,88 L1863,88 L1864,88 L1865,88 L1866,88 L1867,88 L1868,89 L1869,88 L1870,88 L1871,88 L1872,88 L1873,89 L1874,88 L1875,88 L1876,88 L1877,88 L1878,88 L1879,88 L1880,88 L1881,89 L1882,88 L1883,88 L1884,88 L1885,89 L1886,89 L1887,88 L1888,88 L1889,88 L1890,88 L1891,89 L1892,89 L1893,88 L1894,88 L1895,88 L1896,88 L1897,88 L1898,88 L1899,88 L1900,88 L1901,88 L1902,88 L1903,88 L1904,89 L1905,88 L1906,88 L1907,88 L1908,88 L1909,88 L1910,88 L1911,89 L1912,88 L1913,88 L1914,88 L1915,88 L1916,88 L1917,88 L1918,88 L1919,88 L1920,88 L1921,88 L1922,88 L1923,89 L1924,88 L1925,88 L1926,88 L1927,88 L1928,88 L1929,88 L1930,88 L1931,88 L1932,88 L1933,87 L1934,88 L1935,89 L1936,89 L1937,88 L1938,88 L1939,88 L1940,89 L1941,88 L1942,88 L1943,89 L1944,89 L1945,88 L1946,88 L1947,88 L1948,89 L1949,88 L1950,88 L1951,88 L1952,88 L1953,89 L1954,89 L1955,88 L1956,88 L1957,88 L1958,89 L1959,89 L1960,88 L1961,88 L1962,89 L1963,88 L1964,88 L1965,88 L1966,89 L1967,88 L1968,88 L1969,88 L1970,88 L1971,89 L1972,88 L1973,88 L1974,89 L1975,88 L1976,88 L1977,88 L1978,89 L1979,89 L1980,89 L1981,88 L1982,89 L1983,89 L1984,90 L1985,88 L1986,88 L1987,88 L1988,88 L1989,88 L1990,89 L1991,88 L1992,88 L1993,88 L1994,89 L1995,88 L1996,88 L1997,88 L1998,89 L1999,89 L2000,88 L2001,88 L2002,88 L2003,89 L2004,88 L2005,89 L2006,89 L2007,88 L2008,88 L2009,91 L2010,89 L2011,89 L2012,88 L2013,88 L2014,88 L2015,88 L2016,88 L2017,89 L2018,89 L2019,88 L2020,88 L2021,88 L2022,88 L2023,89 L2024,88 L2025,88 L2026,88 L2027,88 L2028,88 L2029,89 L2030,89 L2031,88 L2032,88 L2033,89 L2034,89 L2035,88 L2036,88 L2037,88 L2038,89 L2039,88 L2040,88 L2041,89 L2042,89 L2043,88 L2044,88 L2045,88 L2046,88 L2047,88 L2048,88 L2049,88 L2050,88 L2051,88 L2052,88 L2053,88 L2054,89 L2055,88 L2056,88 L2057,88 L2058,88 L2059,88 L2060,89 L2061,89 L2062,88 L2063,88 L2064,89 L2065,88 L2066,88 L2067,90 L2068,89 L2069,88 L2070,88 L2071,88 L2072,89 L2073,89 L2074,88 L2075,88 L2076,88 L2077,88 L2078,88 L2079,88 L2080,89 L2081,89 L2082,88 L2083,88 L2084,88 L2085,88 L2086,88 L2087,88 L2088,88 L2089,88 L2090,89 L2091,88 L2092,89 L2093,88 L2094,88 L2095,88 L2096,88 L2097,88 L2098,88 L2099,89 L2100,89 L2101,88 L2102,88 L2103,88 L2104,89 L2105,89 L2106,88 L2107,88 L2108,88 L2109,88 L2110,88 L2111,88 L2112,89 L2113,88 L2114,88 L2115,88 L2116,89 L2117,89 L2118,88 L2119,88 L2120,88 L2121,89 L2122,88 L2123,89 L2124,89 L2125,88 L2126,88 L2127,89 L2128,88 L2129,89 L2130,88 L2131,89 L2132,88 L2133,88 L2134,88 L2135,89 L2136,89 L2137,88 L2138,88 L2139,88 L2140,88 L2141,88 L2142,88 L2143,89 L2144,89 L2145,88 L2146,88 L2147,88 L2148,89 L2149,88 L2150,88 L2151,88 L2152,88 L2153,88 L2154,89 L2155,88 L2156,88 L2157,88 L2158,88 L2159,88 L2160,89 L2161,89 L2162,88 L2163,88 L2164,88 L2165,88 L2166,89 L2167,89 L2168,88 L2169,88 L2170,88 L2171,88 L2172,88 L2173,88 L2174,88 L2175,89 L2176,88 L2177,88 L2178,88 L2179,89 L2180,88 L2181,88 L2182,88 L2183,88 L2184,88 L2185,88 L2186,89 L2187,89 L2188,88 L2189,88 L2190,88 L2191,88 L2192,88 L2193,88 L2194,89 L2195,88 L2196,88 L2197,89 L2198,89 L2199,88 L2200,88 L2201,88 L2202,89 L2203,88 L2204,88 L2205,88 L2206,88 L2207,88 L2208,88 L2209,88 L2210,89 L2211,89 L2212,88 L2213,88 L2214,88 L2215,88 L2216,88 L2217,88 L2218,88 L2219,88 L2220,88 L2221,88 L2222,88 L2223,88 L2224,88 L2225,88 L2226,88 L2227,88 L2228,88 L2229,88 L2230,88 L2231,88 L2232,88 L2233,88 L2234,88 L2235,88 L2236,88 L2237,89 L2238,88 L2239,88 L2240,87 L2241,89 L2242,89 L2243,88 L2244,88 L2245,88 L2246,89 L2247,88 L2248,88 L2249,89 L2250,88 L2251,88 L2252,88 L2253,88 L2254,89 L2255,88 L2256,88 L2257,88 L2258,88 L2259,88 L2260,89 L2261,89 L2262,88 L2263,88 L2264,88 L2265,86 L2266,88 L2267,88 L2268,88 L2269,88 L2270,88 L2271,88 L2272,88 L2273,89 L2274,88 L2275,88 L2276,88 L2277,88 L2278,88 L2279,88 L2280,88 L2281,89 L2282,88 L2283,88 L2284,89 L2285,89 L2286,89 L2287,88 L2288,88 L2289,88 L2290,87 L2291,88 L2292,88 L2293,88 L2294,88 L2295,88 L2296,88 L2297,88 L2298,88 L2299,88 L2300,88 L2301,89 L2302,88 L2303,89 L2304,88 L2305,88 L2306,88 L2307,88 L2308,88 L2309,88 L2310,88 L2311,89 L2312,89 L2313,88 L2314,88 L2315,88 L2316,89 L2317,89 L2318,88 L2319,88 L2320,88 L2321,88 L2322,89 L2323,86 L2324,89 L2325,88 L2326,88 L2327,88 L2328,89 L2329,88 L2330,88 L2331,88 L2332,88 L2333,88 L2334,88 L2335,89 L2336,88 L2337,88 L2338,88 L2339,88 L2340,88 L2341,88 L2342,88 L2343,89 L2344,88 L2345,88 L2346,88 L2347,89 L2348,87 L2349,88 L2350,88 L2351,88 L2352,89 L2353,88 L2354,88 L2355,89 L2356,89 L2357,88 L2358,88 L2359,89 L2360,88 L2361,88 L2362,88 L2363,88 L2364,88 L2365,88 L2366,89 L2367,88 L2368,88 L2369,88 L2370,89 L2371,88 L2372,88 L2373,88 L2374,89 L2375,88 L2376,88 L2377,88 L2378,89 L2379,88 L2380,88 L2381,88 L2382,88 L2383,89 L2384,88 L2385,88 L2386,88 L2387,89 L2388,88 L2389,88 L2390,88 L2391,89 L2392,88 L2393,88 L2394,88 L2395,88 L2396,88 L2397,88 L2398,89 L2399,88 L2400,88 L2401,88 L2402,88 L2403,88 L2404,88 L2405,89 L2406,89 L2407,88 L2408,88 L2409,88 L2410,89 L2411,88 L2412,88 L2413,88 L2414,89 L2415,88 L2416,88 L2417,88 L2418,89 L2419,89 L2420,88 L2421,88 L2422,88 L2423,89 L2424,88 L2425,88 L2426,88 L2427,88 L2428,88 L2429,88 L2430,88 L2431,88 L2432,88 L2433,88 L2434,88 L2435,88 L2436,88 L2437,88 L2438,88 L2439,88 L2440,88 L2441,89 L2442,88 L2443,88 L2444,88 L2445,88 L2446,88 L2447,88 L2448,89 L2449,89 L2450,88 L2451,88 L2452,88 L2453,89 L2454,88 L2455,88 L2456,88 L2457,88 L2458,88 L2459,88 L2460,89 L2461,88 L2462,88 L2463,88 L2464,88 L2465,88 L2466,88 L2467,88 L2468,89 L2469,88 L2470,88 L2471,88 L2472,89 L2473,89 L2474,88 L2475,88 L2476,89 L2477,88 L2478,88 L2479,88 L2480,89 L2481,89 L2482,88 L2483,88 L2484,89 L2485,89 L2486,88 L2487,88 L2488,88 L2489,88 L2490,88 L2491,88 L2492,88 L2493,88 L2494,88 L2495,88 L2496,89 L2497,88 L2498,89 L2499,88 L2500,88 L2501,88 L2502,88 L2503,89 L2504,88 L2505,89 L2506,88 L2507,88 L2508,89 L2509,89 L2510,88 L2511,89 L2512,88 L2513,88 L2514,88 L2515,88 L2516,89 L2517,88 L2518,88 L2519,88 L2520,88 L2521,90 L2522,88 L2523,88 L2524,88 L2525,88 L2526,88 L2527,88 L2528,88 L2529,88 L2530,88 L2531,88 L2532,88 L2533,88 L2534,88 L2535,88 L2536,88 L2537,88 L2538,88 L2539,88 L2540,88 L2541,88 L2542,88 L2543,88 L2544,88 L2545,88 L2546,89 L2547,88 L2548,89 L2549,88 L2550,88 L2551,89 L2552,88 L2553,88 L2554,89 L2555,88 L2556,88 L2557,88 L2558,88 L2559,88 L2560,89 L2561,89 L2562,88 L2563,88 L2564,88 L2565,88 L2566,89 L2567,88 L2568,88 L2569,88 L2570,88 L2571,89 L2572,88 L2573,88 L2574,89 L2575,88 L2576,88 L2577,88 L2578,88 L2579,90 L2580,88 L2581,88 L2582,88 L2583,88 L2584,88 L2585,88 L2586,89 L2587,89 L2588,88 L2589,88 L2590,88 L2591,88 L2592,88 L2593,88 L2594,88 L2595,88 L2596,88 L2597,88 L2598,89 L2599,88 L2600,88 L2601,88 L2602,88 L2603,88 L2604,89 L2605,89 L2606,88 L2607,88 L2608,88 L2609,88 L2610,89 L2611,88 L2612,88 L2613,88 L2614,89 L2615,88 L2616,88 L2617,88 L2618,89 L2619,88 L2620,88 L2621,88 L2622,89 L2623,89 L2624,88 L2625,88 L2626,89 L2627,89 L2628,88 L2629,89 L2630,88 L2631,88 L2632,88 L2633,89 L2634,88 L2635,88 L2636,88 L2637,88 L2638,88 L2639,88 L2640,88 L2641,89 L2642,88 L2643,88 L2644,88 L2645,88 L2646,89 L2647,88 L2648,89 L2649,89 L2650,88 L2651,88 L2652,88 L2653,89 L2654,88 L2655,88 L2656,88 L2657,88 L2658,88 L2659,88 L2660,88 L2661,89 L2662,88 L2663,88 L2664,88 L2665,88 L2666,89 L2667,88 L2668,88 L2669,88 L2670,88 L2671,88 L2672,89 L2673,89 L2674,88 L2675,88 L2676,88 L2677,89 L2678,88 L2679,88 L2680,89 L2681,89 L2682,88 L2683,88 L2684,88 L2685,89 L2686,88 L2687,88 L2688,88 L2689,88 L2690,89 L2691,88 L2692,89 L2693,88 L2694,88 L2695,88 L2696,89 L2697,88 L2698,89 L2699,88 L2700,88 L2701,88 L2702,88 L2703,88 L2704,89 L2705,88 L2706,88 L2707,88 L2708,88 L2709,88 L2710,88 L2711,88 L2712,89 L2713,88 L2714,88 L2715,88 L2716,89 L2717,89 L2718,88 L2719,88 L2720,89 L2721,89 L2722,88 L2723,88 L2724,89 L2725,88 L2726,88 L2727,88 L2728,89 L2729,89 L2730,88 L2731,88 L2732,88 L2733,88 L2734,88 L2735,88 L2736,88 L2737,88 L2738,88 L2739,88 L2740,88 L2741,88 L2742,88 L2743,88 L2744,88 L2745,88 L2746,89 L2747,89 L2748,89 L2749,88 L2750,88 L2751,89 L2752,88 L2753,88 L2754,88 L2755,89 L2756,88 L2757,88 L2758,88 L2759,89 L2760,89 L2761,89 L2762,88 L2763,88 L2764,88 L2765,88 L2766,88 L2767,89 L2768,88 L2769,88 L2770,88 L2771,88 L2772,89 L2773,89 L2774,88 L2775,88 L2776,88 L2777,86 L2778,88 L2779,89 L2780,88 L2781,88 L2782,88 L2783,88 L2784,88 L2785,88 L2786,89 L2787,89 L2788,88 L2789,88 L2790,89 L2791,89 L2792,88 L2793,88 L2794,88 L2795,89 L2796,89 L2797,88 L2798,88 L2799,88 L2800,88 L2801,88 L2802,87 L2803,88 L2804,89 L2805,88 L2806,88 L2807,88 L2808,88 L2809,89 L2810,89 L2811,88 L2812,88 L2813,88 L2814,88 L2815,88 L2816,88 L2817,88 L2818,89 L2819,88 L2820,88 L2821,89 L2822,89 L2823,89 L2824,88 L2825,88 L2826,89 L2827,88 L2828,88 L2829,88 L2830,89 L2831,88 L2832,88 L2833,88 L2834,88 L2835,88 L2836,88 L2837,88 L2838,88 L2839,88 L2840,88 L2841,89 L2842,89 L2843,88 L2844,88 L2845,88 L2846,89 L2847,88 L2848,88 L2849,88 L2850,88 L2851,88 L2852,88 L2853,89 L2854,89 L2855,88 L2856,88 L2857,88 L2858,89 L2859,89 L2860,86 L2861,88 L2862,88 L2863,88 L2864,88 L2865,88 L2866,88 L2867,88 L2868,88 L2869,88 L2870,88 L2871,88 L2872,88 L2873,88 L2874,88 L2875,88 L2876,88 L2877,89 L2878,88 L2879,89 L2880,88 L2881,89 L2882,88 L2883,88 L2884,88 L2885,88 L2886,88 L2887,88 L2888,88 L2889,88 L2890,88 L2891,88 L2892,88 L2893,88 L2894,88 L2895,88 L2896,89 L2897,89 L2898,88 L2899,88 L2900,88 L2901,88 L2902,88 L2903,88 L2904,89 L2905,88 L2906,88 L2907,88 L2908,89 L2909,88 L2910,88 L2911,88 L2912,88 L2913,88 L2914,88 L2915,88 L2916,89 L2917,88 L2918,88 L2919,88 L2920,88 L2921,88 L2922,88 L2923,88 L2924,89 L2925,88 L2926,88 L2927,88 L2928,89 L2929,89 L2930,88 L2931,88 L2932,88 L2933,88 L2934,88 L2935,89 L2936,88 L2937,88 L2938,88 L2939,88 L2940,89 L2941,89 L2942,88 L2943,88 L2944,88 L2945,88 L2946,88 L2947,88 L2948,89 L2949,88 L2950,88 L2951,88 L2952,89 L2953,88 L2954,88 L2955,89 L2956,88 L2957,88 L2958,88 L2959,89 L2960,89 L2961,88 L2962,88 L2963,88 L2964,88 L2965,88 L2966,88 L2967,89 L2968,88 L2969,88 L2970,88 L2971,88 L2972,89 L2973,88 L2974,88 L2975,88 L2976,88 L2977,89 L2978,88 L2979,89 L2980,88 L2981,88 L2982,88 L2983,88 L2984,88 L2985,88 L2986,88 L2987,89 L2988,88 L2989,88 L2990,89 L2991,89 L2992,88 L2993,88 L2994,88 L2995,89 L2996,88 L2997,88 L2998,89 L2999,88 L3000,88 L3001,88 L3002,88 L3003,88 L3004,89 L3005,88 L3006,88 L3007,88 L3008,89 L3009,89 L3010,88 L3011,88 L3012,88 L3013,88 L3014,89 L3015,88 L3016,88 L3017,88 L3018,88 L3019,88 L3020,88 L3021,88 L3022,89 L3023,88 L3024,88 L3025,88 L3026,88 L3027,89 L3028,88 L3029,88 L3030,89 L3031,88 L3032,88 L3033,90 L3034,89 L3035,89 L3036,88 L3037,88 L3038,88 L3039,88 L3040,88 L3041,89 L3042,88 L3043,88 L3044,88 L3045,88 L3046,88 L3047,89 L3048,88 L3049,89 L3050,88 L3051,88 L3052,88 L3053,89 L3054,89 L3055,88 L3056,88 L3057,88 L3058,90 L3059,88 L3060,88 L3061,89 L3062,89 L3063,88 L3064,88 L3065,89 L3066,89 L3067,88 L3068,88 L3069,88 L3070,89 L3071,88 L3072,88 L3073,88 L3074,89 L3075,88 L3076,88 L3077,88 L3078,88 L3079,89 L3080,88 L3081,88 L3082,88 L3083,88 L3084,89 L3085,88 L3086,88 L3087,88 L3088,88 L3089,88 L3090,88 L3091,89 L3092,88 L3093,89 L3094,88 L3095,88 L3096,88 L3097,89 L3098,88 L3099,88 L3100,88 L3101,88 L3102,88 L3103,88 L3104,89 L3105,89 L3106,88 L3107,88 L3108,88 L3109,89 L3110,89 L3111,88 L3112,89 L3113,88 L3114,88 L3115,88 L3116,91 L3117,88 L3118,88 L3119,88 L3120,89 L3121,88 L3122,88 L3123,88 L3124,89 L3125,88 L3126,88 L3127,89 L3128,89 L3129,89 L3130,88 L3131,88 L3132,89 L3133,89 L3134,88 L3135,88 L3136,88 L3137,89 L3138,88 L3139,89 L3140,89 L3141,89 L3142,88 L3143,88 L3144,88 L3145,88 L3146,89 L3147,89 L3148,88 L3149,88 L3150,88 L3151,88 L3152,88 L3153,88 L3154,89 L3155,89 L3156,88 L3157,88 L3158,88 L3159,89 L3160,89 L3161,88 L3162,88 L3163,88 L3164,89 L3165,88 L3166,88 L3167,89 L3168,88 L3169,88 L3170,88 L3171,88 L3172,89 L3173,88 L3174,88 L3175,88 L3176,88 L3177,88 L3178,88 L3179,89 L3180,88 L3181,88 L3182,88 L3183,88 L3184,88 L3185,88 L3186,89 L3187,88 L3188,88 L3189,88 L3190,89 L3191,88 L3192,88 L3193,88 L3194,88 L3195,89 L3196,88 L3197,88 L3198,89 L3199,88 L3200,88 L3201,87 L3202,88 L3203,89 L3204,89 L3205,88 L3206,88 L3207,88 L3208,89 L3209,88 L3210,88 L3211,88 L3212,88 L3213,88 L3214,88 L3215,88 L3216,88 L3217,89 L3218,88 L3219,88 L3220,88 L3221,89 L3222,89 L3223,88 L3224,88 L3225,88 L3226,88 L3227,88 L3228,88 L3229,88 L3230,88 L3231,88 L3232,88 L3233,88 L3234,88 L3235,88 L3236,88 L3237,88 L3238,88 L3239,88 L3240,88 L3241,88 L3242,88 L3243,88 L3244,88 L3245,88 L3246,88 L3247,88 L3248,89 L3249,88 L3250,89 L3251,88 L3252,88 L3253,89 L3254,89 L3255,88 L3256,88 L3257,88 L3258,88 L3259,88 L3260,88 L3261,89 L3262,88 L3263,88 L3264,88 L3265,89 L3266,89 L3267,88 L3268,88 L3269,88 L3270,88 L3271,88 L3272,88 L3273,89 L3274,88 L3275,88 L3276,88 L3277,88 L3278,88 L3279,88 L3280,88 L3281,88 L3282,88 L3283,88 L3284,89 L3285,88 L3286,88 L3287,88 L3288,88 L3289,87 L3290,88 L3291,88 L3292,89 L3293,88 L3294,88 L3295,88 L3296,88 L3297,89 L3298,89 L3299,88 L3300,88 L3301,88 L3302,89 L3303,88 L3304,89 L3305,88 L3306,88 L3307,88 L3308,88 L3309,89 L3310,89 L3311,89 L3312,88 L3313,88 L3314,87 L3315,89 L3316,89 L3317,89 L3318,88 L3319,89 L3320,88 L3321,88 L3322,88 L3323,89 L3324,88 L3325,88 L3326,88 L3327,89 L3328,89 L3329,88 L3330,88 L3331,88 L3332,89 L3333,88 L3334,88 L3335,89 L3336,88 L3337,88 L3338,88 L3339,87 L3340,89 L3341,89 L3342,88 L3343,88 L3344,88 L3345,88 L3346,88 L3347,88 L3348,88 L3349,88 L3350,88 L3351,88 L3352,88 L3353,88 L3354,88 L3355,89 L3356,88 L3357,88 L3358,88 L3359,89 L3360,88 L3361,88 L3362,88 L3363,88 L3364,88 L3365,88 L3366,88 L3367,88 L3368,88 L3369,88 L3370,88 L3371,89 L3372,86 L3373,89 L3374,88 L3375,88 L3376,88 L3377,88 L3378,89 L3379,89 L3380,88 L3381,87 L3382,88 L3383,88 L3384,89 L3385,88 L3386,89 L3387,88 L3388,88 L3389,89 L3390,89 L3391,89 L3392,88 L3393,88 L3394,89 L3395,89 L3396,88 L3397,87 L3398,89 L3399,88 L3400,88 L3401,88 L3402,88 L3403,89 L3404,88 L3405,88 L3406,88 L3407,88 L3408,88 L3409,88 L3410,88 L3411,88 L3412,88 L3413,88 L3414,88 L3415,88 L3416,88 L3417,89 L3418,88 L3419,88 L3420,88 L3421,89 L3422,89 L3423,88 L3424,88 L3425,88 L3426,88 L3427,88 L3428,88 L3429,89 L3430,89 L3431,88 L3432,88 L3433,89 L3434,88 L3435,88 L3436,88 L3437,88 L3438,88 L3439,88 L3440,88 L3441,89 L3442,89 L3443,88 L3444,88 L3445,88 L3446,89 L3447,89 L3448,89 L3449,88 L3450,88 L3451,88 L3452,89 L3453,89 L3454,88 L3455,88 L3456,88 L3457,88 L3458,88 L3459,88 L3460,88 L3461,89 L3462,88 L3463,88 L3464,88 L3465,89 L3466,88 L3467,88 L3468,88 L3469,88 L3470,88 L3471,88 L3472,89 L3473,89 L3474,88 L3475,88 L3476,88 L3477,88 L3478,89 L3479,88 L3480,88 L3481,88 L3482,88 L3483,89 L3484,89 L3485,88 L3486,88 L3487,88 L3488,89 L3489,88 L3490,88 L3491,88 L3492,89 L3493,88 L3494,88 L3495,88 L3496,89 L3497,89 L3498,88 L3499,88 L3500,88 L3501,89 L3502,88 L3503,89 L3504,88 L3505,89 L3506,88 L3507,88 L3508,88 L3509,89 L3510,89 L3511,88 L3512,88 L3513,88 L3514,88 L3515,89 L3516,89 L3517,88 L3518,88 L3519,89 L3520,89 L3521,88 L3522,88 L3523,89 L3524,88 L3525,88 L3526,88 L3527,89 L3528,89 L3529,88 L3530,88 L3531,88 L3532,88 L3533,88 L3534,88 L3535,89 L3536,89 L3537,88 L3538,88 L3539,89 L3540,89 L3541,88 L3542,88 L3543,88 L3544,88 L3545,89 L3546,88 L3547,88 L3548,88 L3549,88 L3550,88 L3551,88 L3552,88 L3553,88 L3554,89 L3555,88 L3556,88 L3557,88 L3558,88 L3559,89 L3560,89 L3561,88 L3562,88 L3563,88 L3564,89 L3565,88 L3566,88 L3567,89 L3568,88 L3569,88 L3570,90 L3571,88 L3572,89 L3573,88 L3574,88 L3575,88 L3576,89 L3577,88 L3578,89 L3579,89 L3580,88 L3581,88 L3582,89 L3583,88 L3584,89 L3585,89 L3586,89 L3587,88 L3588,88 L3589,88 L3590,89 L3591,89 L3592,88 L3593,88 L3594,88 L3595,89 L3596,88 L3597,88 L3598,89 L3599,89 L3600,88 L3601,88 L3602,89 L3603,89 L3604,88 L3605,88 L3606,88 L3607,88 L3608,88 L3609,89 L3610,88 L3611,88 L3612,88 L3613,88 L3614,88 L3615,88 L3616,89 L3617,89 L3618,88 L3619,88 L3620,88 L3621,89 L3622,89 L3623,88 L3624,88 L3625,88 L3626,89 L3627,88 L3628,90 L3629,89 L3630,88 L3631,88 L3632,88 L3633,89 L3634,89 L3635,88 L3636,88 L3637,89 L3638,88 L3639,88 L3640,89 L3641,88 L3642,89 L3643,88 L3644,88 L3645,88 L3646,88 L3647,89 L3648,89 L3649,88 L3650,88 L3651,88 L3652,89 L3653,90 L3654,88 L3655,88 L3656,88 L3657,88 L3658,88 L3659,88 L3660,89 L3661,88 L3662,88 L3663,88 L3664,88 L3665,89 L3666,88 L3667,88 L3668,88 L3669,88 L3670,88 L3671,88 L3672,89 L3673,89 L3674,88 L3675,88 L3676,88 L3677,89 L3678,89 L3679,88 L3680,88 L3681,88 L3682,88 L3683,89 L3684,88 L3685,88 L3686,88 L3687,88 L3688,89 L3689,89 L3690,88 L3691,89 L3692,89 L3693,88 L3694,88 L3695,89 L3696,89 L3697,88 L3698,88 L3699,88 L3700,88 L3701,88 L3702,88 L3703,88 L3704,89 L3705,88 L3706,88 L3707,88 L3708,88 L3709,89 L3710,88 L3711,88 L3712,88 L3713,88 L3714,88 L3715,88 L3716,88 L3717,88 L3718,88 L3719,88 L3720,88 L3721,88 L3722,88 L3723,89 L3724,88 L3725,88 L3726,88 L3727,89 L3728,88 L3729,88 L3730,88 L3731,89 L3732,89 L3733,88 L3734,88 L3735,89 L3736,88 L3737,88 L3738,88 L3739,88 L3740,89 L3741,89 L3742,88 L3743,88 L3744,88 L3745,88 L3746,89 L3747,88 L3748,88 L3749,88 L3750,88 L3751,88 L3752,89 L3753,88 L3754,89 L3755,88 L3756,88 L3757,88 L3758,89 L3759,89 L3760,88 L3761,88 L3762,88 L3763,89 L3764,88 L3765,88 L3766,88 L3767,89 L3768,88 L3769,88 L3770,88 L3771,89 L3772,88 L3773,88 L3774,88 L3775,88 L3776,88 L3777,88 L3778,89 L3779,88 L3780,88 L3781,88 L3782,88 L3783,88 L3784,88 L3785,88 L3786,88 L3787,88 L3788,88 L3789,89 L3790,88 L3791,88 L3792,88 L3793,88 L3794,88 L3795,88 L3796,88 L3797,88 L3798,89 L3799,88 L3800,88 L3801,88 L3802,89 L3803,89 L3804,88 L3805,88 L3806,88 L3807,89 L3808,88 L3809,89 L3810,89 L3811,88 L3812,88 L3813,88 L3814,89 L3815,89 L3816,88 L3817,89 L3818,88 L3819,88 L3820,89 L3821,89 L3822,88 L3823,88 L3824,88 L3825,89 L3826,87 L3827,88 L3828,89 L3829,89 L3830,88 L3831,88 L3832,88 L3833,89 L3834,89 L3835,88 L3836,88 L3837,88 L3838,88 L3839,89 L3840,88 L3841,89 L3842,89 L3843,88 L3844,88 L3845,88 L3846,88 L3847,89 L3848,88 L3849,88 L3850,88 L3851,87 L3852,89 L3853,89 L3854,88 L3855,88 L3856,88 L3857,88 L3858,88 L3859,88 L3860,89 L3861,88 L3862,88 L3863,88 L3864,89 L3865,89 L3866,88 L3867,88 L3868,88 L3869,88 L3870,88 L3871,88 L3872,89 L3873,89 L3874,88 L3875,88 L3876,88 L3877,89 L3878,89 L3879,88 L3880,88 L3881,88 L3882,88 L3883,89 L3884,87 L3885,88 L3886,88 L3887,88 L3888,89 L3889,89 L3890,88 L3891,88 L3892,88 L3893,88 L3894,88 L3895,88 L3896,89 L3897,88 L3898,88 L3899,88 L3900,88 L3901,88 L3902,88 L3903,88 L3904,88 L3905,88 L3906,88 L3907,88 L3908,88 L3909,86 L3910,88 L3911,88 L3912,88 L3913,88 L3914,88 L3915,89 L3916,88 L3917,88 L3918,88 L3919,89 L3920,88 L3921,88 L3922,88 L3923,89 L3924,88 L3925,88 L3926,89 L3927,89 L3928,88 L3929,89 L3930,88 L3931,89 L3932,88 L3933,88 L3934,88 L3935,88 L3936,88 L3937,88 L3938,88 L3939,88 L3940,89 L3941,88 L3942,88 L3943,88 L3944,88 L3945,88 L3946,88 L3947,89 L3948,89 L3949,88 L3950,88 L3951,88 L3952,89 L3953,88 L3954,88 L3955,88 L3956,88 L3957,88 L3958,89 L3959,89 L3960,88 L3961,88 L3962,88 L3963,89 L3964,88 L3965,88 L3966,89 L3967,89 L3968,88 L3969,88 L3970,88 L3971,89 L3972,88 L3973,88 L3974,88 L3975,89 L3976,88 L3977,88 L3978,88 L3979,88 L3980,88 L3981,88 L3982,88 L3983,88 L3984,89 L3985,89 L3986,88 L3987,88 L3988,88 L3989,89 L3990,88 L3991,88 L3992,88 L3993,88 L3994,88 L3995,88 L3996,88 L3997,89 L3998,88 L3999,88 L4000,88 L4001,88 L4002,89 L4003,88 L4004,88 L4005,88 L4006,88 L4007,88 L4008,88 L4009,89 L4010,88 L4011,88 L4012,88 L4013,88 L4014,88 L4015,88 L4016,88 L4017,88 L4018,88 L4019,89 L4020,88 L4021,89 L4022,88 L4023,88 L4024,88 L4025,88 L4026,88 L4027,88 L4028,88 L4029,88 L4030,88 L4031,88 L4032,88 L4033,89 L4034,89 L4035,88 L4036,88 L4037,88 L4038,89 L4039,88 L4040,88 L4041,89 L4042,88 L4043,88 L4044,88 L4045,89 L4046,89 L4047,89 L4048,88 L4049,88 L4050,88 L4051,88 L4052,89 L4053,88 L4054,88 L4055,88 L4056,88 L4057,89 L4058,88 L4059,88 L4060,88 L4061,88 L4062,88 L4063,88 L4064,88 L4065,89 L4066,88 L4067,88 L4068,88 L4069,88 L4070,88 L4071,88 L4072,89 L4073,89 L4074,88 L4075,88 L4076,89 L4077,89 L4078,89 L4079,88 L4080,88 L4081,88 L4082,91 L4083,89 L4084,89 L4085,88 L4086,88 L4087,88 L4088,88 L4089,88 L4090,89 L4091,89 L4092,88 L4093,88 L4094,88 L4095,89 "/>
<path stroke="cyan" fill="none" stroke-width="1" d="M0,221 L1,223 L2,221 L3,223 L4,220 L5,220 L6,220 L7,220 L8,220 L9,220 L10,220 L11,218 L12,220 L13,221 L14,221 L15,221 L16,220 L17,221 L18,221 L19,220 L20,221 L21,221 L22,220 L23,220 L24,221 L25,223 L26,220 L27,220 L28,221 L29,221 L30,220 L31,218 L32,220 L33,220 L34,220 L35,218 L36,220 L37,220 L38,218 L39,218 L40,220 L41,220 L42,220 L43,220 L44,221 L45,221 L46,221 L47,221 L48,221 L49,220 L50,220 L51,221 L52,223 L53,221 L54,220 L55,220 L56,221 L57,221 L58,220 L59,221 L60,220 L61,220 L62,220 L63,220 L64,220 L65,220 L66,218 L67,220 L68,221 L69,220 L70,218 L71,220 L72,220 L73,220 L74,220 L75,220 L76,221 L77,221 L78,221 L79,221 L80,223 L81,220 L82,220 L83,223 L84,223 L85,221 L86,220 L87,221 L88,221 L89,221 L90,221 L91,220 L92,220 L93,220 L94,218 L95,220 L96,220 L97,218 L98,218 L99,220 L100,220 L101,218 L102,220 L103,220 L104,220 L105,220 L106,221 L107,220 L108,221 L109,220 L110,221 L111,221 L112,221 L113,220 L114,221 L115,221 L116,221 L117,221 L118,220 L119,220 L120,220 L121,221 L122,220 L123,220 L124,221 L125,220 L126,220 L127,221 L128,220 L129,218 L130,220 L131,220 L132,220 L133,220 L134,220 L135,220 L136,220 L137,220 L138,223 L139,223 L140,221 L141,220 L142,221 L143,223 L144,223 L145,221 L146,221 L147,221 L148,221 L149,221 L150,220 L151,220 L152,220 L153,220 L154,220 L155,220 L156,220 L157,220 L158,220 L159,221 L160,220 L161,220 L162,220 L163,220 L164,220 L165,220 L166,220 L167,220 L168,220 L169,221 L170,221 L171,221 L172,218 L173,220 L174,221 L175,220 L176,221 L177,223 L178,223 L179,221 L180,221 L181,221 L182,221 L183,220 L184,218 L185,220 L186,220 L187,220 L188,218 L189,218 L190,218 L191,220 L192,220 L193,221 L194,220 L195,220 L196,218 L197,220 L198,220 L199,220 L200,218 L201,221 L202,221 L203,220 L204,220 L205,221 L206,221 L207,220 L208,221 L209,221 L210,221 L211,220 L212,220 L213,221 L214,223 L215,220 L216,218 L217,220 L218,221 L219,220 L220,221 L221,220 L222,220 L223,218 L224,218 L225,220 L226,218 L227,219 L228,220 L229,221 L230,223 L231,221 L232,221 L233,221 L234,221 L235,221 L236,223 L237,221 L238,221 L239,220 L240,221 L241,223 L242,220 L243,220 L244,221 L245,223 L246,221 L247,220 L248,220 L249,220 L250,220 L251,220 L252,220 L253,220 L254,219 L255,218 L256,218 L257,220 L258,218 L259,218 L260,220 L261,221 L262,221 L263,223 L264,221 L265,220 L266,220 L267,221 L268,223 L269,221 L270,220 L271,221 L272,221 L273,221 L274,221 L275,220 L276,221 L277,220 L278,218 L279,220 L280,221 L281,220 L282,218 L283,220 L284,220 L285,220 L286,218 L287,220 L288,220 L289,220 L290,220 L291,220 L292,220 L293,220 L294,221 L295,223 L296,221 L297,220 L298,220 L299,221 L300,223 L301,221 L302,220 L303,221 L304,221 L305,220 L306,220 L307,221 L308,218 L309,219 L310,218 L311,220 L312,220 L313,218 L314,220 L315,220 L316,220 L317,220 L318,220 L319,220 L320,220 L321,218 L322,220 L323,221 L324,221 L325,220 L326,221 L327,220 L328,221 L329,220 L330,220 L331,220 L332,221 L333,221 L334,221 L335,221 L336,221 L337,220 L338,221 L339,221 L340,220 L341,218 L342,218 L343,220 L344,218 L345,218 L346,218 L347,220 L348,220 L349,220 L350,221 L351,220 L352,218 L353,218 L354,220 L355,220 L356,218 L357,218 L358,221 L359,223 L360,223 L361,221 L362,221 L363,221 L364,221 L365,221 L366,223 L367,221 L368,220 L369,220 L370,221 L371,220 L372,220 L373,220 L374,220 L375,220 L376,220 L377,220 L378,220 L379,218 L380,218 L381,218 L382,220 L383,220 L384,218 L385,220 L386,221 L387,221 L388,221 L389,220 L390,221 L391,221 L392,221 L393,221 L394,221 L395,221 L396,220 L397,221 L398,223 L399,221 L400,221 L401,220 L402,220 L403,220 L404,218 L405,220 L406,220 L407,220 L408,218 L409,221 L410,220 L411,218 L412,218 L413,220 L414,220 L415,220 L416,220 L417,220 L418,221 L419,221 L420,221 L421,221 L422,221 L423,220 L424,221 L425,221 L426,221 L427,220 L428,220 L429,221 L430,221 L431,220 L432,220 L433,218 L434,218 L435,218 L436,220 L437,220 L438,220 L439,218 L440,220 L441,220 L442,220 L443,218 L444,220 L445,220 L446,220 L447,220 L448,220 L449,221 L450,221 L451,220 L452,221 L453,223 L454,221 L455,220 L456,221 L457,221 L458,221 L459,220 L460,221 L461,221 L462,221 L463,220 L464,220 L465,220 L466,218 L467,218 L468,220 L469,220 L470,218 L471,218 L472,220 L473,220 L474,220 L475,220 L476,220 L477,220 L478,220 L479,220 L480,221 L481,221 L482,220 L483,218 L484,220 L485,220 L486,218 L487,218 L488,221 L489,221 L490,221 L491,221 L492,221 L493,221 L494,220 L495,220 L496,220 L497,220 L498,218 L499,218 L500,220 L501,220 L502,220 L503,218 L504,220 L505,220 L506,220 L507,220 L508,220 L509,220 L510,220 L511,220 L512,221 L513,221 L514,220 L515,221 L516,221 L517,221 L518,220 L519,221 L520,221 L521,220 L522,220 L523,221 L524,223 L525,220 L526,218 L527,220 L528,220 L529,218 L530,218 L531,220 L532,220 L533,220 L534,218 L535,218 L536,218 L537,218 L538,218 L539,220 L540,221 L541,220 L542,220 L543,223 L544,221 L545,220 L546,218 L547,220 L548,220 L549,220 L550,220 L551,221 L552,221 L553,220 L554,221 L555,223 L556,220 L557,219 L558,218 L559,218 L560,218 L561,220 L562,220 L563,220 L564,220 L565,220 L566,220 L567,218 L568,218 L569,219 L570,218 L571,221 L572,221 L573,220 L574,221 L575,221 L576,221 L577,220 L578,220 L579,220 L580,220 L581,220 L582,223 L583,221 L584,221 L585,220 L586,221 L587,220 L588,220 L589,218 L590,218 L591,218 L592,220 L593,220 L594,220 L595,220 L596,220 L597,218 L598,220 L599,220 L600,219 L601,218 L602,220 L603,223 L604,221 L605,223 L606,223 L607,220 L608,220 L609,220 L610,221 L611,220 L612,220 L613,221 L614,223 L615,223 L616,221 L617,221 L618,220 L619,220 L620,218 L621,218 L622,218 L623,220 L624,220 L625,220 L626,220 L627,220 L628,218 L629,220 L630,220 L631,220 L632,220 L633,220 L634,221 L635,220 L636,221 L637,221 L638,221 L639,220 L640,220 L641,220 L642,221 L643,220 L644,221 L645,223 L646,223 L647,221 L648,221 L649,221 L650,220 L651,220 L652,220 L653,220 L654,220 L655,219 L656,218 L657,218 L658,218 L659,218 L660,218 L661,218 L662,220 L663,218 L664,220 L665,221 L666,221 L667,221 L668,221 L669,223 L670,221 L671,221 L672,221 L673,223 L674,223 L675,221 L676,221 L677,221 L678,221 L679,221 L680,223 L681,220 L682,220 L683,218 L684,220 L685,220 L686,220 L687,218 L688,220 L689,220 L690,220 L691,218 L692,218 L693,218 L694,218 L695,218 L696,223 L697,221 L698,221 L699,220 L700,221 L701,221 L702,221 L703,221 L704,221 L705,221 L706,221 L707,221 L708,223 L709,221 L710,220 L711,221 L712,221 L713,220 L714,218 L715,220 L716,220 L717,220 L718,220 L719,220 L720,220 L721,220 L722,218 L723,220 L724,220 L725,218 L726,220 L727,221 L728,221 L729,221 L730,220 L731,220 L732,221 L733,221 L734,221 L735,223 L736,221 L737,220 L738,220 L739,221 L740,223 L741,220 L742,220 L743,218 L744,218 L745,218 L746,218 L747,218 L748,220 L749,220 L750,220 L751,220 L752,220 L753,218 L754,219 L755,218 L756,220 L757,218 L758,220 L759,223 L760,223 L761,221 L762,220 L763,221 L764,220 L765,218 L766,220 L767,221 L768,220 L769,220 L770,221 L771,221 L772,221 L773,221 L774,220 L775,220 L776,220 L777,220 L778,220 L779,220 L780,218 L781,218 L782,220 L783,220 L784,220 L785,218 L786,220 L787,220 L788,221 L789,221 L790,221 L791,223 L792,221 L793,220 L794,221 L795,220 L796,218 L797,220 L798,220 L799,220 L800,220 L801,221 L802,221 L803,221 L804,221 L805,220 L806,220 L807,220 L808,218 L809,220 L810,220 L811,218 L812,219 L813,218 L814,220 L815,218 L816,220 L817,220 L818,220 L819,220 L820,220 L821,220 L822,220 L823,220 L824,218 L825,221 L826,221 L827,223 L828,220 L829,221 L830,223 L831,221 L832,221 L833,220 L834,221 L835,221 L836,220 L837,220 L838,220 L839,220 L840,218 L841,220 L842,221 L843,220 L844,218 L845,220 L846,220 L847,218 L848,218 L849,218 L850,220 L851,218 L852,220 L853,223 L854,223 L855,220 L856,220 L857,221 L858,220 L859,220 L860,220 L861,220 L862,220 L863,220 L864,220 L865,220 L866,221 L867,220 L868,218 L869,220 L870,218 L871,218 L872,218 L873,220 L874,220 L875,220 L876,218 L877,220 L878,218 L879,218 L880,220 L881,220 L882,220 L883,218 L884,221 L885,221 L886,221 L887,220 L888,220 L889,221 L890,220 L891,220 L892,221 L893,220 L894,220 L895,220 L896,220 L897,223 L898,220 L899,218 L900,220 L901,220 L902,220 L903,218 L904,220 L905,220 L906,220 L907,220 L908,221 L909,220 L910,220 L911,220 L912,221 L913,221 L914,221 L915,221 L916,221 L917,221 L918,221 L919,221 L920,223 L921,221 L922,221 L923,221 L924,223 L925,221 L926,220 L927,221 L928,223 L929,220 L930,220 L931,220 L932,220 L933,220 L934,220 L935,220 L936,220 L937,220 L938,218 L939,220 L940,220 L941,220 L942,218 L943,220 L944,221 L945,221 L946,221 L947,221 L948,221 L949,221 L950,220 L951,223 L952,220 L953,220 L954,220 L955,220 L956,221 L957,221 L958,220 L959,223 L960,221 L961,220 L962,218 L963,218 L964,218 L965,219 L966,218 L967,220 L968,220 L969,218 L970,220 L971,220 L972,218 L973,218 L974,218 L975,220 L976,220 L977,220 L978,223 L979,221 L980,221 L981,220 L982,221 L983,223 L984,221 L985,220 L986,221 L987,221 L988,221 L989,221 L990,221 L991,220 L992,220 L993,218 L994,220 L995,220 L996,218 L997,218 L998,220 L999,220 L1000,220 L1001,218 L1002,220 L1003,220 L1004,218 L1005,218 L1006,220 L1007,220 L1008,218 L1009,221 L1010,223 L1011,223 L1012,220 L1013,221 L1014,221 L1015,221 L1016,220 L1017,221 L1018,221 L1019,220 L1020,220 L1021,221 L1022,220 L1023,218 L1024,220 L1025,220 L1026,220 L1027,220 L1028,220 L1029,220 L1030,218 L1031,218 L1032,218 L1033,218 L1034,218 L1035,220 L1036,220 L1037,223 L1038,223 L1039,221 L1040,220 L1041,221 L1042,221 L1043,221 L1044,220 L1045,221 L1046,221 L1047,221 L1048,221 L1049,221 L1050,221 L1051,221 L1052,220 L1053,221 L1054,220 L1055,220 L1056,219 L1057,218 L1058,220 L1059,218 L1060,218 L1061,220 L1062,220 L1063,218 L1064,220 L1065,220 L1066,220 L1067,220 L1068,220 L1069,221 L1070,221 L1071,220 L1072,220 L1073,221 L1074,221 L1075,221 L1076,221 L1077,221 L1078,221 L1079,220 L1080,221 L1081,223 L1082,221 L1083,220 L1084,220 L1085,220 L1086,220 L1087,220 L1088,220 L1089,220 L1090,220 L1091,218 L1092,220 L1093,220 L1094,218 L1095,220 L1096,221 L1097,220 L1098,220 L1099,220 L1100,220 L1101,220 L1102,221 L1103,220 L1104,221 L1105,221 L1106,220 L1107,221 L1108,220 L1109,220 L1110,220 L1111,220 L1112,220 L1113,221 L1114,221 L1115,220 L1116,220 L1117,220 L1118,218 L1119,218 L1120,218 L1121,218 L1122,219 L1123,220 L1124,220 L1125,218 L1126,218 L1127,218 L1128,220 L1129,220 L1130,220 L1131,220 L1132,220 L1133,220 L1134,220 L1135,221 L1136,221 L1137,220 L1138,220 L1139,221 L1140,221 L1141,220 L1142,220 L1143,220 L1144,220 L1145,221 L1146,220 L1147,220 L1148,220 L1149,218 L1150,218 L1151,220 L1152,220 L1153,218 L1154,218 L1155,220 L1156,220 L1157,220 L1158,220 L1159,220 L1160,220 L1161,220 L1162,221 L1163,221 L1164,221 L1165,221 L1166,223 L1167,223 L1168,223 L1169,221 L1170,220 L1171,220 L1172,221 L1173,220 L1174,221 L1175,221 L1176,221 L1177,220 L1178,220 L1179,220 L1180,218 L1181,219 L1182,220 L1183,220 L1184,220 L1185,218 L1186,220 L1187,220 L1188,220 L1189,220 L1190,220 L1191,220 L1192,220 L1193,220 L1194,221 L1195,221 L1196,221 L1197,220 L1198,223 L1199,223 L1200,223 L1201,220 L1202,220 L1203,221 L1204,220 L1205,220 L1206,221 L1207,221 L1208,220 L1209,218 L1210,220 L1211,220 L1212,218 L1213,218 L1214,218 L1215,220 L1216,218 L1217,221 L1218,220 L1219,220 L1220,220 L1221,220 L1222,221 L1223,221 L1224,220 L1225,221 L1226,223 L1227,223 L1228,221 L1229,221 L1230,221 L1231,221 L1232,221 L1233,223 L1234,223 L1235,221 L1236,220 L1237,221 L1238,223 L1239,220 L1240,218 L1241,220 L1242,221 L1243,218 L1244,218 L1245,218 L1246,218 L1247,218 L1248,220 L1249,221 L1250,220 L1251,220 L1252,220 L1253,220 L1254,221 L1255,220 L1256,220 L1257,221 L1258,221 L1259,221 L1260,221 L1261,221 L1262,221 L1263,220 L1264,220 L1265,221 L1266,220 L1267,218 L1268,220 L1269,223 L1270,223 L1271,220 L1272,220 L1273,220 L1274,218 L1275,218 L1276,218 L1277,218 L1278,218 L1279,218 L1280,218 L1281,220 L1282,218 L1283,218 L1284,220 L1285,223 L1286,221 L1287,221 L1288,221 L1289,221 L1290,221 L1291,221 L1292,223 L1293,221 L1294,221 L1295,220 L1296,221 L1297,223 L1298,221 L1299,220 L1300,223 L1301,221 L1302,220 L1303,220 L1304,220 L1305,220 L1306,218 L1307,220 L1308,220 L1309,220 L1310,218 L1311,218 L1312,220 L1313,220 L1314,220 L1315,220 L1316,220 L1317,220 L1318,220 L1319,221 L1320,220 L1321,220 L1322,220 L1323,220 L1324,221 L1325,220 L1326,220 L1327,220 L1328,220 L1329,220 L1330,220 L1331,221 L1332,220 L1333,218 L1334,218 L1335,220 L1336,220 L1337,218 L1338,218 L1339,218 L1340,220 L1341,220 L1342,219 L1343,220 L1344,220 L1345,218 L1346,218 L1347,221 L1348,221 L1349,220 L1350,220 L1351,220 L1352,221 L1353,220 L1354,220 L1355,221 L1356,221 L1357,221 L1358,220 L1359,220 L1360,221 L1361,220 L1362,221 L1363,221 L1364,220 L1365,218 L1366,218 L1367,220 L1368,220 L1369,218 L1370,218 L1371,220 L1372,220 L1373,220 L1374,220 L1375,220 L1376,220 L1377,218 L1378,220 L1379,223 L1380,220 L1381,220 L1382,220 L1383,221 L1384,221 L1385,220 L1386,220 L1387,221 L1388,221 L1389,220 L1390,223 L1391,221 L1392,220 L1393,221 L1394,221 L1395,220 L1396,220 L1397,218 L1398,220 L1399,220 L1400,220 L1401,220 L1402,220 L1403,220 L1404,218 L1405,218 L1406,220 L1407,220 L1408,218 L1409,218 L1410,221 L1411,221 L1412,221 L1413,220 L1414,221 L1415,221 L1416,220 L1417,221 L1418,221 L1419,221 L1420,220 L1421,221 L1422,223 L1423,221 L1424,220 L1425,221 L1426,220 L1427,220 L1428,218 L1429,220 L1430,220 L1431,220 L1432,218 L1433,220 L1434,220 L1435,218 L1436,218 L1437,220 L1438,220 L1439,220 L1440,218 L1441,221 L1442,221 L1443,221 L1444,221 L1445,221 L1446,220 L1447,220 L1448,220 L1449,223 L1450,221 L1451,220 L1452,220 L1453,221 L1454,221 L1455,220 L1456,220 L1457,220 L1458,220 L1459,218 L1460,220 L1461,220 L1462,220 L1463,218 L1464,220 L1465,220 L1466,220 L1467,218 L1468,218 L1469,220 L1470,220 L1471,220 L1472,221 L1473,220 L1474,221 L1475,220 L1476,221 L1477,223 L1478,221 L1479,220 L1480,223 L1481,221 L1482,221 L1483,220 L1484,220 L1485,221 L1486,221 L1487,221 L1488,220 L1489,220 L1490,220 L1491,218 L1492,220 L1493,220 L1494,218 L1495,218 L1496,220 L1497,220 L1498,220 L1499,218 L1500,218 L1501,220 L1502,220 L1503,220 L1504,221 L1505,221 L1506,220 L1507,220 L1508,221 L1509,221 L1510,220 L1511,220 L1512,221 L1513,221 L1514,221 L1515,221 L1516,221 L1517,221 L1518,221 L1519,220 L1520,220 L1521,220 L1522,218 L1523,220 L1524,220 L1525,220 L1526,218 L1527,220 L1528,220 L1529,218 L1530,220 L1531,220 L1532,220 L1533,220 L1534,220 L1535,221 L1536,223 L1537,221 L1538,220 L1539,220 L1540,223 L1541,221 L1542,220 L1543,221 L1544,221 L1545,221 L1546,220 L1547,223 L1548,223 L1549,220 L1550,220 L1551,220 L1552,220 L1553,218 L1554,218 L1555,220 L1556,220 L1557,220 L1558,220 L1559,220 L1560,220 L1561,220 L1562,220 L1563,220 L1564,221 L1565,220 L1566,220 L1567,223 L1568,223 L1569,220 L1570,220 L1571,221 L1572,221 L1573,221 L1574,221 L1575,221 L1576,221 L1577,220 L1578,221 L1579,221 L1580,221 L1581,220 L1582,220 L1583,220 L1584,220 L1585,218 L1586,220 L1587,220 L1588,220 L1589,218 L1590,221 L1591,220 L1592,218 L1593,218 L1594,220 L1595,221 L1596,220 L1597,220 L1598,221 L1599,221 L1600,221 L1601,221 L1602,221 L1603,221 L1604,220 L1605,221 L1606,223 L1607,221 L1608,220 L1609,220 L1610,221 L1611,221 L1612,220 L1613,220 L1614,220 L1615,220 L1616,218 L1617,220 L1618,220 L1619,218 L1620,218 L1621,220 L1622,220 L1623,220 L1624,218 L1625,220 L1626,221 L1627,221 L1628,220 L1629,221 L1630,221 L1631,220 L1632,221 L1633,223 L1634,223 L1635,220 L1636,220 L1637,221 L1638,221 L1639,221 L1640,221 L1641,221 L1642,221 L1643,220 L1644,220 L1645,220 L1646,220 L1647,218 L1648,218 L1649,220 L1650,220 L1651,218 L1652,218 L1653,220 L1654,220 L1655,220 L1656,220 L1657,220 L1658,221 L1659,220 L1660,221 L1661,221 L1662,221 L1663,220 L1664,221 L1665,223 L1666,221 L1667,220 L1668,221 L1669,221 L1670,220 L1671,220 L1672,221 L1673,221 L1674,220 L1675,220 L1676,220 L1677,220 L1678,220 L1679,218 L1680,220 L1681,220 L1682,220 L1683,218 L1684,220 L1685,220 L1686,218 L1687,218 L1688,220 L1689,221 L1690,220 L1691,220 L1692,221 L1693,221 L1694,221 L1695,220 L1696,221 L1697,223 L1698,221 L1699,221 L1700,221 L1701,221 L1702,220 L1703,221 L1704,223 L1705,220 L1706,218 L1707,218 L1708,220 L1709,220 L1710,220 L1711,218 L1712,220 L1713,220 L1714,218 L1715,220 L1716,220 L1717,218 L1718,218 L1719,220 L1720,221 L1721,221 L1722,220 L1723,221 L1724,221 L1725,221 L1726,220 L1727,221 L1728,221 L1729,221 L1730,221 L1731,223 L1732,221 L1733,221 L1734,220 L1735,223 L1736,221 L1737,220 L1738,218 L1739,218 L1740,220 L1741,220 L1742,218 L1743,220 L1744,220 L1745,218 L1746,218 L1747,221 L1748,220 L1749,218 L1750,220 L1751,221 L1752,221 L1753,221 L1754,220 L1755,221 L1756,221 L1757,221 L1758,221 L1759,221 L1760,220 L1761,220 L1762,221 L1763,223 L1764,223 L1765,220 L1766,223 L1767,221 L1768,220 L1769,220 L1770,220 L1771,220 L1772,220 L1773,220 L1774,220 L1775,220 L1776,220 L1777,218 L1778,220 L1779,220 L1780,220 L1781,220 L1782,220 L1783,221 L1784,221 L1785,220 L1786,221 L1787,221 L1788,220 L1789,220 L1790,221 L1791,221 L1792,221 L1793,220 L1794,221 L1795,221 L1796,221 L1797,221 L1798,220 L1799,220 L1800,218 L1801,220 L1802,220 L1803,220 L1804,218 L1805,220 L1806,220 L1807,220 L1808,218 L1809,218 L1810,220 L1811,220 L1812,220 L1813,220 L1814,221 L1815,221 L1816,220 L1817,220 L1818,223 L1819,221 L1820,220 L1821,221 L1822,223 L1823,221 L1824,220 L1825,220 L1826,221 L1827,221 L1828,221 L1829,220 L1830,220 L1831,218 L1832,220 L1833,220 L1834,220 L1835,220 L1836,218 L1837,220 L1838,220 L1839,220 L1840,218 L1841,220 L1842,220 L1843,220 L1844,220 L1845,223 L1846,221 L1847,220 L1848,220 L1849,221 L1850,223 L1851,221 L1852,220 L1853,221 L1854,221 L1855,221 L1856,220 L1857,221 L1858,221 L1859,221 L1860,220 L1861,220 L1862,220 L1863,218 L1864,218 L1865,220 L1866,220 L1867,220 L1868,218 L1869,220 L1870,220 L1871,218 L1872,220 L1873,220 L1874,220 L1875,220 L1876,220 L1877,223 L1878,221 L1879,220 L1880,220 L1881,221 L1882,221 L1883,220 L1884,221 L1885,221 L1886,223 L1887,220 L1888,221 L1889,221 L1890,221 L1891,220 L1892,220 L1893,220 L1894,220 L1895,218 L1896,220 L1897,220 L1898,220 L1899,220 L1900,220 L1901,220 L1902,218 L1903,220 L1904,220 L1905,221 L1906,220 L1907,220 L1908,221 L1909,221 L1910,221 L1911,221 L1912,221 L1913,221 L1914,220 L1915,220 L1916,221 L1917,221 L1918,220 L1919,220 L1920,221 L1921,223 L1922,220 L1923,218 L1924,220 L1925,220 L1926,218 L1927,218 L1928,220 L1929,220 L1930,220 L1931,220 L1932,220 L1933,220 L1934,218 L1935,220 L1936,220 L1937,221 L1938,220 L1939,220 L1940,221 L1941,221 L1942,220 L1943,221 L1944,221 L1945,221 L1946,220 L1947,221 L1948,223 L1949,221 L1950,220 L1951,221 L1952,223 L1953,221 L1954,218 L1955,218 L1956,218 L1957,220 L1958,220 L1959,220 L1960,220 L1961,218 L1962,218 L1963,220 L1964,220 L1965,220 L1966,218 L1967,220 L1968,221 L1969,221 L1970,220 L1971,221 L1972,220 L1973,220 L1974,221 L1975,221 L1976,221 L1977,220 L1978,220 L1979,221 L1980,221 L1981,220 L1982,221 L1983,223 L1984,221 L1985,220 L1986,220 L1987,220 L1988,220 L1989,218 L1990,220 L1991,220 L1992,220 L1993,218 L1994,220 L1995,220 L1996,220 L1997,220 L1998,220 L1999,221 L2000,221 L2001,220 L2002,223 L2003,221 L2004,221 L2005,220 L2006,221 L2007,223 L2008,221 L2009,220 L2010,221 L2011,223 L2012,221 L2013,220 L2014,221 L2015,220 L2016,220 L2017,218 L2018,220 L2019,220 L2020,218 L2021,218 L2022,220 L2023,220 L2024,218 L2025,218 L2026,220 L2027,220 L2028,220 L2029,218 L2030,220 L2031,221 L2032,220 L2033,220 L2034,221 L2035,223 L2036,220 L2037,220 L2038,223 L2039,221 L2040,220 L2041,220 L2042,221 L2043,221 L2044,220 L2045,221 L2046,221 L2047,220 L2048,218 L2049,220 L2050,220 L2051,220 L2052,218 L2053,218 L2054,220 L2055,220 L2056,220 L2057,220 L2058,220 L2059,220 L2060,220 L2061,221 L2062,221 L2063,221 L2064,220 L2065,221 L2066,223 L2067,221 L2068,220 L2069,221 L2070,221 L2071,220 L2072,220 L2073,221 L2074,221 L2075,221 L2076,221 L2077,221 L2078,220 L2079,218 L2080,218 L2081,220 L2082,220 L2083,220 L2084,218 L2085,220 L2086,220 L2087,220 L2088,220 L2089,220 L2090,220 L2091,218 L2092,220 L2093,221 L2094,221 L2095,220 L2096,220 L2097,221 L2098,223 L2099,221 L2100,221 L2101,220 L2102,220 L2103,220 L2104,221 L2105,221 L2106,221 L2107,220 L2108,220 L2109,220 L2110,220 L2111,218 L2112,220 L2113,220 L2114,220 L2115,218 L2116,220 L2117,220 L2118,218 L2119,218 L2120,220 L2121,221 L2122,220 L2123,220 L2124,221 L2125,221 L2126,221 L2127,220 L2128,221 L2129,223 L2130,221 L2131,220 L2132,223 L2133,221 L2134,220 L2135,220 L2136,223 L2137,221 L2138,221 L2139,220 L2140,220 L2141,220 L2142,218 L2143,218 L2144,220 L2145,220 L2146,218 L2147,218 L2148,220 L2149,220 L2150,218 L2151,218 L2152,220 L2153,220 L2154,220 L2155,220 L2156,220 L2157,221 L2158,220 L2159,221 L2160,221 L2161,220 L2162,220 L2163,221 L2164,223 L2165,223 L2166,220 L2167,221 L2168,221 L2169,221 L2170,220 L2171,220 L2172,220 L2173,220 L2174,220 L2175,220 L2176,220 L2177,218 L2178,218 L2179,220 L2180,220 L2181,220 L2182,218 L2183,220 L2184,220 L2185,220 L2186,220 L2187,220 L2188,221 L2189,220 L2190,220 L2191,223 L2192,221 L2193,220 L2194,220 L2195,221 L2196,221 L2197,221 L2198,220 L2199,221 L2200,221 L2201,220 L2202,220 L2203,221 L2204,220 L2205,218 L2206,218 L2207,220 L2208,220 L2209,218 L2210,218 L2211,220 L2212,220 L2213,220 L2214,220 L2215,220 L2216,221 L2217,220 L2218,221 L2219,221 L2220,221 L2221,220 L2222,221 L2223,223 L2224,221 L2225,220 L2226,221 L2227,221 L2228,221 L2229,221 L2230,221 L2231,221 L2232,220 L2233,218 L2234,220 L2235,221 L2236,218 L2237,218 L2238,220 L2239,220 L2240,220 L2241,218 L2242,220 L2243,218 L2244,220 L2245,218 L2246,220 L2247,221 L2248,220 L2249,220 L2250,221 L2251,223 L2252,220 L2253,220 L2254,221 L2255,221 L2256,220 L2257,221 L2258,221 L2259,221 L2260,220 L2261,221 L2262,223 L2263,220 L2264,218 L2265,220 L2266,220 L2267,220 L2268,218 L2269,218 L2270,220 L2271,220 L2272,220 L2273,220 L2274,220 L2275,218 L2276,218 L2277,220 L2278,221 L2279,220 L2280,220 L2281,221 L2282,223 L2283,223 L2284,221 L2285,221 L2286,221 L2287,221 L2288,221 L2289,223 L2290,221 L2291,220 L2292,220 L2293,223 L2294,221 L2295,220 L2296,218 L2297,220 L2298,220 L2299,220 L2300,220 L2301,220 L2302,220 L2303,218 L2304,220 L2305,220 L2306,220 L2307,218 L2308,220 L2309,221 L2310,221 L2311,220 L2312,220 L2313,221 L2314,221 L2315,221 L2316,221 L2317,221 L2318,220 L2319,220 L2320,221 L2321,221 L2322,221 L2323,220 L2324,220 L2325,221 L2326,220 L2327,220 L2328,220 L2329,220 L2330,220 L2331,218 L2332,220 L2333,220 L2334,220 L2335,218 L2336,220 L2337,220 L2338,220 L2339,218 L2340,220 L2341,221 L2342,221 L2343,220 L2344,221 L2345,221 L2346,220 L2347,220 L2348,223 L2349,221 L2350,220 L2351,220 L2352,221 L2353,221 L2354,220 L2355,221 L2356,221 L2357,220 L2358,220 L2359,220 L2360,220 L2361,220 L2362,218 L2363,218 L2364,220 L2365,220 L2366,218 L2367,220 L2368,220 L2369,220 L2370,220 L2371,221 L2372,221 L2373,220 L2374,220 L2375,221 L2376,223 L2377,221 L2378,220 L2379,221 L2380,221 L2381,221 L2382,220 L2383,220 L2384,221 L2385,221 L2386,220 L2387,221 L2388,220 L2389,220 L2390,218 L2391,220 L2392,220 L2393,218 L2394,219 L2395,220 L2396,220 L2397,220 L2398,218 L2399,220 L2400,220 L2401,220 L2402,220 L2403,221 L2404,220 L2405,220 L2406,220 L2407,221 L2408,221 L2409,220 L2410,220 L2411,221 L2412,221 L2413,220 L2414,221 L2415,221 L2416,220 L2417,220 L2418,221 L2419,221 L2420,220 L2421,218 L2422,218 L2423,220 L2424,220 L2425,218 L2426,220 L2427,220 L2428,220 L2429,218 L2430,220 L2431,220 L2432,220 L2433,220 L2434,221 L2435,221 L2436,221 L2437,220 L2438,221 L2439,221 L2440,221 L2441,220 L2442,221 L2443,221 L2444,221 L2445,221 L2446,223 L2447,221 L2448,220 L2449,220 L2450,220 L2451,220 L2452,220 L2453,220 L2454,220 L2455,220 L2456,218 L2457,220 L2458,220 L2459,218 L2460,218 L2461,220 L2462,220 L2463,220 L2464,220 L2465,220 L2466,221 L2467,221 L2468,220 L2469,220 L2470,221 L2471,221 L2472,220 L2473,223 L2474,221 L2475,220 L2476,220 L2477,221 L2478,223 L2479,221 L2480,220 L2481,220 L2482,220 L2483,220 L2484,218 L2485,220 L2486,220 L2487,218 L2488,220 L2489,220 L2490,220 L2491,218 L2492,218 L2493,220 L2494,220 L2495,220 L2496,220 L2497,220 L2498,221 L2499,220 L2500,221 L2501,221 L2502,220 L2503,220 L2504,221 L2505,221 L2506,221 L2507,220 L2508,220 L2509,221 L2510,223 L2511,221 L2512,220 L2513,220 L2514,220 L2515,218 L2516,220 L2517,220 L2518,218 L2519,218 L2520,220 L2521,220 L2522,220 L2523,218 L2524,220 L2525,220 L2526,221 L2527,220 L2528,221 L2529,221 L2530,220 L2531,221 L2532,221 L2533,221 L2534,221 L2535,220 L2536,221 L2537,221 L2538,221 L2539,220 L2540,220 L2541,221 L2542,221 L2543,220 L2544,220 L2545,220 L2546,218 L2547,218 L2548,220 L2549,220 L2550,220 L2551,218 L2552,220 L2553,220 L2554,220 L2555,218 L2556,220 L2557,220 L2558,220 L2559,221 L2560,221 L2561,221 L2562,220 L2563,221 L2564,223 L2565,223 L2566,220 L2567,220 L2568,221 L2569,221 L2570,220 L2571,221 L2572,221 L2573,221 L2574,218 L2575,220 L2576,221 L2577,220 L2578,218 L2579,220 L2580,220 L2581,220 L2582,218 L2583,218 L2584,220 L2585,220 L2586,218 L2587,220 L2588,220 L2589,220 L2590,220 L2591,221 L2592,221 L2593,220 L2594,220 L2595,221 L2596,221 L2597,221 L2598,221 L2599,221 L2600,220 L2601,220 L2602,221 L2603,223 L2604,223 L2605,218 L2606,218 L2607,220 L2608,220 L2609,218 L2610,220 L2611,220 L2612,220 L2613,218 L2614,220 L2615,220 L2616,218 L2617,218 L2618,220 L2619,221 L2620,221 L2621,220 L2622,221 L2623,221 L2624,221 L2625,220 L2626,221 L2627,221 L2628,221 L2629,220 L2630,223 L2631,221 L2632,221 L2633,220 L2634,221 L2635,223 L2636,220 L2637,218 L2638,220 L2639,220 L2640,220 L2641,218 L2642,220 L2643,220 L2644,220 L2645,220 L2646,220 L2647,220 L2648,218 L2649,218 L2650,220 L2651,221 L2652,220 L2653,221 L2654,221 L2655,221 L2656,221 L2657,221 L2658,221 L2659,220 L2660,220 L2661,221 L2662,221 L2663,223 L2664,220 L2665,220 L2666,223 L2667,220 L2668,218 L2669,220 L2670,220 L2671,220 L2672,218 L2673,220 L2674,220 L2675,220 L2676,218 L2677,220 L2678,220 L2679,220 L2680,218 L2681,220 L2682,221 L2683,221 L2684,221 L2685,221 L2686,221 L2687,221 L2688,220 L2689,221 L2690,221 L2691,221 L2692,220 L2693,221 L2694,223 L2695,221 L2696,220 L2697,221 L2698,220 L2699,220 L2700,218 L2701,221 L2702,220 L2703,218 L2704,218 L2705,220 L2706,220 L2707,218 L2708,218 L2709,220 L2710,220 L2711,220 L2712,220 L2713,221 L2714,221 L2715,220 L2716,221 L2717,223 L2718,221 L2719,220 L2720,220 L2721,221 L2722,223 L2723,221 L2724,220 L2725,221 L2726,221 L2727,220 L2728,223 L2729,220 L2730,220 L2731,218 L2732,220 L2733,220 L2734,220 L2735,218 L2736,220 L2737,220 L2738,220 L2739,218 L2740,220 L2741,220 L2742,220 L2743,220 L2744,221 L2745,221 L2746,220 L2747,220 L2748,223 L2749,223 L2750,221 L2751,221 L2752,221 L2753,221 L2754,221 L2755,221 L2756,221 L2757,221 L2758,220 L2759,221 L2760,220 L2761,220 L2762,218 L2763,218 L2764,220 L2765,220 L2766,218 L2767,218 L2768,218 L2769,220 L2770,218 L2771,220 L2772,220 L2773,218 L2774,218 L2775,220 L2776,221 L2777,221 L2778,220 L2779,220 L2780,221 L2781,221 L2782,221 L2783,220 L2784,221 L2785,221 L2786,220 L2787,221 L2788,221 L2789,221 L2790,220 L2791,221 L2792,220 L2793,220 L2794,218 L2795,218 L2796,220 L2797,220 L2798,218 L2799,220 L2800,220 L2801,218 L2802,218 L2803,220 L2804,220 L2805,220 L2806,220 L2807,221 L2808,221 L2809,221 L2810,220 L2811,221 L2812,221 L2813,221 L2814,221 L2815,221 L2816,221 L2817,220 L2818,220 L2819,221 L2820,223 L2821,221 L2822,220 L2823,220 L2824,220 L2825,218 L2826,220 L2827,220 L2828,220 L2829,218 L2830,220 L2831,220 L2832,218 L2833,218 L2834,220 L2835,220 L2836,221 L2837,220 L2838,220 L2839,221 L2840,221 L2841,220 L2842,221 L2843,221 L2844,221 L2845,220 L2846,223 L2847,221 L2848,221 L2849,220 L2850,221 L2851,223 L2852,221 L2853,220 L2854,220 L2855,220 L2856,220 L2857,218 L2858,220 L2859,220 L2860,218 L2861,218 L2862,220 L2863,220 L2864,220 L2865,218 L2866,220 L2867,220 L2868,221 L2869,220 L2870,221 L2871,220 L2872,220 L2873,221 L2874,223 L2875,223 L2876,220 L2877,220 L2878,221 L2879,221 L2880,221 L2881,221 L2882,221 L2883,221 L2884,220 L2885,220 L2886,220 L2887,218 L2888,218 L2889,220 L2890,220 L2891,220 L2892,218 L2893,218 L2894,220 L2895,220 L2896,220 L2897,220 L2898,220 L2899,220 L2900,220 L2901,223 L2902,221 L2903,220 L2904,220 L2905,221 L2906,223 L2907,221 L2908,220 L2909,221 L2910,221 L2911,221 L2912,221 L2913,221 L2914,221 L2915,220 L2916,218 L2917,220 L2918,220 L2919,218 L2920,218 L2921,220 L2922,220 L2923,220 L2924,218 L2925,220 L2926,220 L2927,220 L2928,220 L2929,220 L2930,220 L2931,220 L2932,220 L2933,221 L2934,221 L2935,220 L2936,220 L2937,221 L2938,221 L2939,221 L2940,221 L2941,221 L2942,221 L2943,220 L2944,221 L2945,221 L2946,220 L2947,218 L2948,220 L2949,220 L2950,220 L2951,218 L2952,218 L2953,220 L2954,220 L2955,218 L2956,220 L2957,220 L2958,220 L2959,218 L2960,220 L2961,221 L2962,220 L2963,220 L2964,221 L2965,223 L2966,221 L2967,220 L2968,220 L2969,221 L2970,221 L2971,221 L2972,221 L2973,221 L2974,220 L2975,220 L2976,221 L2977,221 L2978,220 L2979,218 L2980,220 L2981,220 L2982,218 L2983,220 L2984,220 L2985,218 L2986,218 L2987,220 L2988,220 L2989,220 L2990,218 L2991,220 L2992,221 L2993,220 L2994,220 L2995,221 L2996,221 L2997,221 L2998,221 L2999,221 L3000,223 L3001,220 L3002,220 L3003,223 L3004,221 L3005,221 L3006,220 L3007,221 L3008,221 L3009,220 L3010,218 L3011,220 L3012,218 L3013,218 L3014,220 L3015,220 L3016,220 L3017,218 L3018,218 L3019,220 L3020,221 L3021,220 L3022,220 L3023,220 L3024,221 L3025,220 L3026,221 L3027,221 L3028,221 L3029,220 L3030,221 L3031,223 L3032,221 L3033,220 L3034,220 L3035,223 L3036,221 L3037,220 L3038,221 L3039,220 L3040,220 L3041,220 L3042,220 L3043,220 L3044,220 L3045,218 L3046,220 L3047,220 L3048,220 L3049,218 L3050,220 L3051,220 L3052,220 L3053,218 L3054,220 L3055,220 L3056,220 L3057,220 L3058,223 L3059,223 L3060,220 L3061,220 L3062,221 L3063,223 L3064,220 L3065,220 L3066,221 L3067,221 L3068,220 L3069,221 L3070,221 L3071,220 L3072,218 L3073,220 L3074,220 L3075,220 L3076,218 L3077,218 L3078,220 L3079,220 L3080,220 L3081,220 L3082,218 L3083,220 L3084,220 L3085,221 L3086,221 L3087,220 L3088,220 L3089,221 L3090,223 L3091,221 L3092,220 L3093,221 L3094,221 L3095,220 L3096,220 L3097,221 L3098,221 L3099,220 L3100,221 L3101,221 L3102,220 L3103,218 L3104,218 L3105,220 L3106,220 L3107,220 L3108,218 L3109,220 L3110,220 L3111,220 L3112,220 L3113,220 L3114,220 L3115,218 L3116,220 L3117,221 L3118,221 L3119,220 L3120,220 L3121,221 L3122,223 L3123,221 L3124,220 L3125,221 L3126,221 L3127,220 L3128,221 L3129,223 L3130,221 L3131,220 L3132,221 L3133,220 L3134,220 L3135,218 L3136,218 L3137,220 L3138,220 L3139,220 L3140,220 L3141,220 L3142,220 L3143,218 L3144,220 L3145,220 L3146,220 L3147,218 L3148,220 L3149,221 L3150,220 L3151,220 L3152,221 L3153,221 L3154,221 L3155,220 L3156,221 L3157,221 L3158,220 L3159,220 L3160,223 L3161,221 L3162,220 L3163,220 L3164,220 L3165,220 L3166,220 L3167,220 L3168,220 L3169,220 L3170,218 L3171,220 L3172,220 L3173,220 L3174,218 L3175,218 L3176,220 L3177,220 L3178,220 L3179,220 L3180,220 L3181,220 L3182,220 L3183,221 L3184,221 L3185,221 L3186,220 L3187,221 L3188,221 L3189,221 L3190,220 L3191,221 L3192,221 L3193,221 L3194,220 L3195,220 L3196,220 L3197,220 L3198,218 L3199,220 L3200,220 L3201,218 L3202,218 L3203,220 L3204,220 L3205,218 L3206,218 L3207,220 L3208,220 L3209,220 L3210,221 L3211,221 L3212,220 L3213,220 L3214,220 L3215,223 L3216,221 L3217,220 L3218,220 L3219,221 L3220,223 L3221,220 L3222,221 L3223,221 L3224,221 L3225,220 L3226,220 L3227,220 L3228,220 L3229,218 L3230,218 L3231,221 L3232,220 L3233,218 L3234,220 L3235,220 L3236,220 L3237,220 L3238,220 L3239,220 L3240,220 L3241,220 L3242,221 L3243,221 L3244,220 L3245,220 L3246,221 L3247,221 L3248,221 L3249,220 L3250,221 L3251,221 L3252,221 L3253,221 L3254,221 L3255,221 L3256,220 L3257,220 L3258,220 L3259,220 L3260,218 L3261,218 L3262,220 L3263,220 L3264,220 L3265,220 L3266,220 L3267,220 L3268,220 L3269,220 L3270,220 L3271,220 L3272,220 L3273,220 L3274,221 L3275,221 L3276,220 L3277,221 L3278,221 L3279,221 L3280,221 L3281,221 L3282,221 L3283,221 L3284,220 L3285,221 L3286,223 L3287,220 L3288,220 L3289,221 L3290,221 L3291,221 L3292,220 L3293,221 L3294,221 L3295,220 L3296,220 L3297,221 L3298,220 L3299,220 L3300,221 L3301,221 L3302,223 L3303,220 L3304,218 L3305,220 L3306,220 L3307,220 L3308,220 L3309,220 L3310,218 L3311,218 L3312,220 L3313,220 L3314,220 L3315,218 L3316,218 L3317,220 L3318,221 L3319,220 L3320,221 L3321,221 L3322,221 L3323,220 L3324,223 L3325,221 L3326,220 L3327,220 L3328,223 L3329,223 L3330,221 L3331,220 L3332,221 L3333,223 L3334,220 L3335,218 L3336,220 L3337,220 L3338,220 L3339,218 L3340,221 L3341,220 L3342,218 L3343,218 L3344,220 L3345,220 L3346,220 L3347,218 L3348,220 L3349,221 L3350,220 L3351,221 L3352,221 L3353,220 L3354,220 L3355,221 L3356,223 L3357,221 L3358,220 L3359,220 L3360,223 L3361,221 L3362,220 L3363,220 L3364,221 L3365,220 L3366,218 L3367,220 L3368,220 L3369,218 L3370,218 L3371,220 L3372,220 L3373,220 L3374,218 L3375,220 L3376,220 L3377,220 L3378,218 L3379,220 L3380,220 L3381,221 L3382,220 L3383,223 L3384,221 L3385,220 L3386,220 L3387,221 L3388,223 L3389,221 L3390,220 L3391,221 L3392,221 L3393,221 L3394,221 L3395,223 L3396,220 L3397,218 L3398,220 L3399,220 L3400,220 L3401,218 L3402,220 L3403,220 L3404,220 L3405,220 L3406,220 L3407,220 L3408,220 L3409,218 L3410,220 L3411,221 L3412,220 L3413,220 L3414,221 L3415,221 L3416,221 L3417,220 L3418,221 L3419,221 L3420,221 L3421,221 L3422,221 L3423,221 L3424,220 L3425,220 L3426,223 L3427,223 L3428,218 L3429,218 L3430,220 L3431,220 L3432,220 L3433,220 L3434,220 L3435,220 L3436,218 L3437,220 L3438,220 L3439,220 L3440,218 L3441,218 L3442,221 L3443,221 L3444,220 L3445,221 L3446,221 L3447,221 L3448,221 L3449,221 L3450,221 L3451,221 L3452,221 L3453,221 L3454,221 L3455,221 L3456,220 L3457,221 L3458,220 L3459,220 L3460,220 L3461,218 L3462,218 L3463,220 L3464,218 L3465,220 L3466,220 L3467,220 L3468,218 L3469,220 L3470,221 L3471,220 L3472,220 L3473,220 L3474,221 L3475,221 L3476,221 L3477,220 L3478,221 L3479,220 L3480,220 L3481,223 L3482,220 L3483,220 L3484,220 L3485,221 L3486,223 L3487,220 L3488,221 L3489,220 L3490,220 L3491,220 L3492,220 L3493,220 L3494,218 L3495,218 L3496,218 L3497,220 L3498,220 L3499,218 L3500,220 L3501,220 L3502,220 L3503,220 L3504,220 L3505,221 L3506,221 L3507,220 L3508,221 L3509,221 L3510,221 L3511,220 L3512,221 L3513,221 L3514,221 L3515,220 L3516,220 L3517,221 L3518,221 L3519,221 L3520,220 L3521,220 L3522,220 L3523,218 L3524,220 L3525,220 L3526,218 L3527,218 L3528,220 L3529,220 L3530,220 L3531,218 L3532,220 L3533,220 L3534,220 L3535,220 L3536,220 L3537,221 L3538,221 L3539,220 L3540,223 L3541,221 L3542,220 L3543,220 L3544,221 L3545,223 L3546,220 L3547,220 L3548,221 L3549,221 L3550,221 L3551,221 L3552,220 L3553,220 L3554,218 L3555,218 L3556,220 L3557,220 L3558,218 L3559,218 L3560,220 L3561,220 L3562,220 L3563,220 L3564,220 L3565,220 L3566,220 L3567,221 L3568,223 L3569,221 L3570,220 L3571,221 L3572,221 L3573,221 L3574,220 L3575,221 L3576,221 L3577,221 L3578,221 L3579,221 L3580,221 L3581,221 L3582,220 L3583,220 L3584,220 L3585,218 L3586,218 L3587,220 L3588,220 L3589,220 L3590,220 L3591,220 L3592,220 L3593,220 L3594,220 L3595,220 L3596,220 L3597,220 L3598,220 L3599,221 L3600,223 L3601,220 L3602,220 L3603,221 L3604,221 L3605,221 L3606,221 L3607,221 L3608,221 L3609,220 L3610,221 L3611,223 L3612,221 L3613,220 L3614,220 L3615,220 L3616,220 L3617,218 L3618,220 L3619,220 L3620,220 L3621,220 L3622,220 L3623,220 L3624,218 L3625,218 L3626,220 L3627,220 L3628,220 L3629,220 L3630,220 L3631,221 L3632,220 L3633,221 L3634,223 L3635,221 L3636,220 L3637,221 L3638,223 L3639,221 L3640,220 L3641,220 L3642,221 L3643,221 L3644,220 L3645,220 L3646,220 L3647,220 L3648,218 L3649,220 L3650,220 L3651,220 L3652,220 L3653,220 L3654,220 L3655,220 L3656,218 L3657,220 L3658,220 L3659,220 L3660,220 L3661,220 L3662,221 L3663,220 L3664,220 L3665,223 L3666,221 L3667,220 L3668,220 L3669,221 L3670,221 L3671,220 L3672,220 L3673,221 L3674,223 L3675,220 L3676,220 L3677,220 L3678,220 L3679,218 L3680,220 L3681,220 L3682,220 L3683,218 L3684,218 L3685,220 L3686,220 L3687,220 L3688,220 L3689,220 L3690,220 L3691,220 L3692,221 L3693,223 L3694,221 L3695,220 L3696,221 L3697,223 L3698,221 L3699,220 L3700,221 L3701,221 L3702,221 L3703,221 L3704,221 L3705,221 L3706,220 L3707,218 L3708,220 L3709,220 L3710,220 L3711,218 L3712,220 L3713,220 L3714,220 L3715,218 L3716,220 L3717,220 L3718,220 L3719,220 L3720,220 L3721,221 L3722,221 L3723,221 L3724,223 L3725,221 L3726,220 L3727,220 L3728,221 L3729,223 L3730,221 L3731,220 L3732,221 L3733,221 L3734,220 L3735,221 L3736,223 L3737,220 L3738,218 L3739,220 L3740,220 L3741,220 L3742,218 L3743,218 L3744,220 L3745,220 L3746,220 L3747,220 L3748,220 L3749,220 L3750,218 L3751,220 L3752,221 L3753,220 L3754,220 L3755,221 L3756,221 L3757,221 L3758,221 L3759,221 L3760,221 L3761,221 L3762,221 L3763,221 L3764,221 L3765,220 L3766,221 L3767,221 L3768,221 L3769,220 L3770,218 L3771,220 L3772,220 L3773,220 L3774,218 L3775,218 L3776,220 L3777,220 L3778,218 L3779,220 L3780,220 L3781,218 L3782,218 L3783,221 L3784,221 L3785,220 L3786,220 L3787,220 L3788,221 L3789,221 L3790,221 L3791,221 L3792,220 L3793,220 L3794,221 L3795,223 L3796,221 L3797,220 L3798,220 L3799,221 L3800,220 L3801,218 L3802,220 L3803,220 L3804,220 L3805,220 L3806,220 L3807,220 L3808,220 L3809,218 L3810,220 L3811,220 L3812,220 L3813,220 L3814,221 L3815,221 L3816,221 L3817,220 L3818,220 L3819,221 L3820,221 L3821,220 L3822,223 L3823,221 L3824,220 L3825,220 L3826,223 L3827,221 L3828,220 L3829,220 L3830,221 L3831,220 L3832,220 L3833,220 L3834,220 L3835,220 L3836,218 L3837,220 L3838,220 L3839,220 L3840,218 L3841,218 L3842,220 L3843,220 L3844,220 L3845,220 L3846,221 L3847,220 L3848,220 L3849,221 L3850,221 L3851,220 L3852,220 L3853,221 L3854,223 L3855,221 L3856,220 L3857,221 L3858,221 L3859,221 L3860,221 L3861,221 L3862,220 L3863,220 L3864,220 L3865,220 L3866,220 L3867,220 L3868,219 L3869,220 L3870,220 L3871,220 L3872,218 L3873,218 L3874,220 L3875,220 L3876,220 L3877,221 L3878,221 L3879,221 L3880,220 L3881,221 L3882,223 L3883,220 L3884,220 L3885,221 L3886,221 L3887,221 L3888,221 L3889,220 L3890,220 L3891,221 L3892,221 L3893,220 L3894,220 L3895,218 L3896,220 L3897,220 L3898,220 L3899,218 L3900,218 L3901,220 L3902,220 L3903,220 L3904,220 L3905,220 L3906,220 L3907,220 L3908,221 L3909,223 L3910,221 L3911,220 L3912,221 L3913,221 L3914,221 L3915,220 L3916,221 L3917,221 L3918,220 L3919,220 L3920,223 L3921,221 L3922,221 L3923,220 L3924,220 L3925,220 L3926,218 L3927,218 L3928,220 L3929,220 L3930,220 L3931,218 L3932,220 L3933,218 L3934,218 L3935,218 L3936,220 L3937,220 L3938,220 L3939,220 L3940,221 L3941,221 L3942,220 L3943,220 L3944,221 L3945,223 L3946,221 L3947,221 L3948,221 L3949,220 L3950,220 L3951,221 L3952,223 L3953,221 L3954,220 L3955,220 L3956,220 L3957,220 L3958,220 L3959,220 L3960,220 L3961,220 L3962,218 L3963,220 L3964,220 L3965,218 L3966,218 L3967,220 L3968,220 L3969,220 L3970,220 L3971,221 L3972,221 L3973,220 L3974,221 L3975,221 L3976,221 L3977,220 L3978,220 L3979,221 L3980,221 L3981,220 L3982,220 L3983,221 L3984,223 L3985,220 L3986,218 L3987,220 L3988,220 L3989,220 L3990,220 L3991,220 L3992,220 L3993,218 L3994,220 L3995,220 L3996,220 L3997,218 L3998,220 L3999,220 L4000,220 L4001,220 L4002,221 L4003,221 L4004,220 L4005,220 L4006,221 L4007,221 L4008,220 L4009,220 L4010,221 L4011,221 L4012,220 L4013,220 L4014,221 L4015,221 L4016,220 L4017,220 L4018,220 L4019,220 L4020,220 L4021,220 L4022,220 L4023,220 L4024,220 L4025,218 L4026,220 L4027,220 L4028,220 L4029,218 L4030,220 L4031,220 L4032,220 L4033,221 L4034,223 L4035,221 L4036,220 L4037,221 L4038,221 L4039,221 L4040,220 L4041,220 L4042,221 L4043,221 L4044,220 L4045,221 L4046,221 L4047,220 L4048,218 L4049,220 L4050,220 L4051,220 L4052,218 L4053,220 L4054,220 L4055,220 L4056,218 L4057,220 L4058,220 L4059,220 L4060,220 L4061,220 L4062,220 L4063,220 L4064,220 L4065,221 L4066,221 L4067,220 L4068,220 L4069,221 L4070,223 L4071,221 L4072,220 L4073,221 L4074,221 L4075,220 L4076,221 L4077,223 L4078,221 L4079,218 L4080,220 L4081,220 L4082,220 L4083,218 L4084,218 L4085,220 L4086,220 L4087,218 L4088,220 L4089,220 L4090,220 L4091,218 L4092,220 L4093,221 L4094,220 L4095,220 "/>
<text font-family="Arial" x="638" y="230" fill="yellow" font-size="20" text-anchor="end" id="CH1s">CH1: 1V/div (1 x) 50us/div</text>
<text font-family="Arial" x="2" y="230" fill="yellow" font-size="20" text-anchor="start" id="CH1"> </text>
<text font-family="Arial" x="638" y="250" fill="cyan" font-size="20" text-anchor="end" id="CH2s">CH2: 50mV/div (10 x) 50us/div</text>
<text font-family="Arial" x="2" y="250" fill="cyan" font-size="20" text-anchor="start" id="CH2"> </text>
<script type="text/ecmascript"><![CDATA[
function init(evt) { if ( window.svgDocument == null ) svgDocument = evt.target.ownerDocument; }
function fmtT(val, div) {
 if (div > 100) return Math.floor(val*div/32) + " ms";
if (div > 0.025) return Math.floor(val*div*1000/32)/1000 + " ms";
 return Math.floor(val*div*1000*1000/32)/1000 + " us";
}
function fmtU(val, div, shift) { return Math.floor((shift-val)*div/32) + " mV"; }
function msMove (evt)
{
	var x = evt.clientX;
	var y = evt.clientY;
	if (x < 0 || y < 0 || x >= 4096 || y >= 256)
		return;
	var hscroll = (document.all ? document.scrollLeft : window.pageXOffset);
	var width = window.innerWidth;

	svgDocument.getElementById("CH1").setAttribute("x", hscroll+20);
	svgDocument.getElementById("CH2").setAttribute("x", hscroll+20);
	svgDocument.getElementById("CH1s").setAttribute("x", hscroll+width-20);
	svgDocument.getElementById("CH2s").setAttribute("x", hscroll+width-20);

	svgDocument.getElementById("CH1").firstChild.data = "CH1: "+fmtU(y, 1000.000, 157) + " " + fmtT(x, 0.049);
	svgDocument.getElementById("CH2").firstChild.data = "CH2: "+fmtU(y, 500.000, 223) + " " + fmtT(x, 0.049);
}
]]></script>
</svg>
