<?xml version="1.0" encoding="iso-8859-1"?>
<!DOCTYPE svg PUBLIC "-//W3C//DTD SVG 1.0//EN" "http://www.w3.org/TR/2001/REC-SVG-20010904/DTD/svg10.dtd">
<svg width="4096" height="256" xmlns="http://www.w3.org/2000/svg" xmlns:xlink="http://www.w3.org/1999/xlink" onload="init(evt)" onmousemove="msMove(evt)">
<path stroke="none" fill="black" d="M0,0 H4096 V256 H0 V0"/>
<path stroke="none" fill="#000040" d="M30,0 H330 V256 H30 V0"/>
<path stroke="none" fill="#400000" d="M0,0 H30 V256 H0 V0"/>
<path stroke="#404040" d="M0,0 H4096"/>
<path stroke="#404040" d="M0,32 H4096"/>
<path stroke="#404040" d="M0,64 H4096"/>
<path stroke="#404040" d="M0,96 H4096"/>
<path stroke="#404040" d="M0,128 H4096"/>
<path stroke="#404040" d="M0,160 H4096"/>
<path stroke="#404040" d="M0,192 H4096"/>
<path stroke="#404040" d="M0,224 H4096"/>
<path stroke="#404040" d="M0,256 H4096"/>
<path stroke="#404040" d="M0,0 V256"/>
<path stroke="#404040" d="M32,0 V256"/>
<path stroke="#404040" d="M64,0 V256"/>
<path stroke="#404040" d="M96,0 V256"/>
<path stroke="#404040" d="M128,0 V256"/>
<path stroke="#404040" d="M160,0 V256"/>
<path stroke="#404040" d="M192,0 V256"/>
<path stroke="#404040" d="M224,0 V256"/>
<path stroke="#404040" d="M256,0 V256"/>
<path stroke="#404040" d="M288,0 V256"/>
<path stroke="#404040" d="M320,0 V256"/>
<path stroke="#404040" d="M352,0 V256"/>
<path stroke="#404040" d="M384,0 V256"/>
<path stroke="#404040" d="M416,0 V256"/>
<path stroke="#404040" d="M448,0 V256"/>
<path stroke="#404040" d="M480,0 V256"/>
<path stroke="#404040" d="M512,0 V256"/>
<path stroke="#404040" d="M544,0 V256"/>
<path stroke="#404040" d="M576,0 V256"/>
<path stroke="#404040" d="M608,0 V256"/>
<path stroke="#404040" d="M640,0 V256"/>
<path stroke="#404040" d="M672,0 V256"/>
<path stroke="#404040" d="M704,0 V256"/>
<path stroke="#404040" d="M736,0 V256"/>
<path stroke="#404040" d="M768,0 V256"/>
<path stroke="#404040" d="M800,0 V256"/>
<path stroke="#404040" d="M832,0 V256"/>
<path stroke="#404040" d="M864,0 V256"/>
<path stroke="#404040" d="M896,0 V256"/>
<path stroke="#404040" d="M928,0 V256"/>
<path stroke="#404040" d="M960,0 V256"/>
<path stroke="#404040" d="M992,0 V256"/>
<path stroke="#404040" d="M1024,0 V256"/>
<path stroke="#404040" d="M1056,0 V256"/>
<path stroke="#404040" d="M1088,0 V256"/>
<path stroke="#404040" d="M1120,0 V256"/>
<path stroke="#404040" d="M1152,0 V256"/>
<path stroke="#404040" d="M1184,0 V256"/>
<path stroke="#404040" d="M1216,0 V256"/>
<path stroke="#404040" d="M1248,0 V256"/>
<path stroke="#404040" d="M1280,0 V256"/>
<path stroke="#404040" d="M1312,0 V256"/>
<path stroke="#404040" d="M1344,0 V256"/>
<path stroke="#404040" d="M1376,0 V256"/>
<path stroke="#404040" d="M1408,0 V256"/>
<path stroke="#404040" d="M1440,0 V256"/>
<path stroke="#404040" d="M1472,0 V256"/>
<path stroke="#404040" d="M1504,0 V256"/>
<path stroke="#404040" d="M1536,0 V256"/>
<path stroke="#404040" d="M1568,0 V256"/>
<path stroke="#404040" d="M1600,0 V256"/>
<path stroke="#404040" d="M1632,0 V256"/>
<path stroke="#404040" d="M1664,0 V256"/>
<path stroke="#404040" d="M1696,0 V256"/>
<path stroke="#404040" d="M1728,0 V256"/>
<path stroke="#404040" d="M1760,0 V256"/>
<path stroke="#404040" d="M1792,0 V256"/>
<path stroke="#404040" d="M1824,0 V256"/>
<path stroke="#404040" d="M1856,0 V256"/>
<path stroke="#404040" d="M1888,0 V256"/>
<path stroke="#404040" d="M1920,0 V256"/>
<path stroke="#404040" d="M1952,0 V256"/>
<path stroke="#404040" d="M1984,0 V256"/>
<path stroke="#404040" d="M2016,0 V256"/>
<path stroke="#404040" d="M2048,0 V256"/>
<path stroke="#404040" d="M2080,0 V256"/>
<path stroke="#404040" d="M2112,0 V256"/>
<path stroke="#404040" d="M2144,0 V256"/>
<path stroke="#404040" d="M2176,0 V256"/>
<path stroke="#404040" d="M2208,0 V256"/>
<path stroke="#404040" d="M2240,0 V256"/>
<path stroke="#404040" d="M2272,0 V256"/>
<path stroke="#404040" d="M2304,0 V256"/>
<path stroke="#404040" d="M2336,0 V256"/>
<path stroke="#404040" d="M2368,0 V256"/>
<path stroke="#404040" d="M2400,0 V256"/>
<path stroke="#404040" d="M2432,0 V256"/>
<path stroke="#404040" d="M2464,0 V256"/>
<path stroke="#404040" d="M2496,0 V256"/>
<path stroke="#404040" d="M2528,0 V256"/>
<path stroke="#404040" d="M2560,0 V256"/>
<path stroke="#404040" d="M2592,0 V256"/>
<path stroke="#404040" d="M2624,0 V256"/>
<path stroke="#404040" d="M2656,0 V256"/>
<path stroke="#404040" d="M2688,0 V256"/>
<path stroke="#404040" d="M2720,0 V256"/>
<path stroke="#404040" d="M2752,0 V256"/>
<path stroke="#404040" d="M2784,0 V256"/>
<path stroke="#404040" d="M2816,0 V256"/>
<path stroke="#404040" d="M2848,0 V256"/>
<path stroke="#404040" d="M2880,0 V256"/>
<path stroke="#404040" d="M2912,0 V256"/>
<path stroke="#404040" d="M2944,0 V256"/>
<path stroke="#404040" d="M2976,0 V256"/>
<path stroke="#404040" d="M3008,0 V256"/>
<path stroke="#404040" d="M3040,0 V256"/>
<path stroke="#404040" d="M3072,0 V256"/>
<path stroke="#404040" d="M3104,0 V256"/>
<path stroke="#404040" d="M3136,0 V256"/>
<path stroke="#404040" d="M3168,0 V256"/>
<path stroke="#404040" d="M3200,0 V256"/>
<path stroke="#404040" d="M3232,0 V256"/>
<path stroke="#404040" d="M3264,0 V256"/>
<path stroke="#404040" d="M3296,0 V256"/>
<path stroke="#404040" d="M3328,0 V256"/>
<path stroke="#404040" d="M3360,0 V256"/>
<path stroke="#404040" d="M3392,0 V256"/>
<path stroke="#404040" d="M3424,0 V256"/>
<path stroke="#404040" d="M3456,0 V256"/>
<path stroke="#404040" d="M3488,0 V256"/>
<path stroke="#404040" d="M3520,0 V256"/>
<path stroke="#404040" d="M3552,0 V256"/>
<path stroke="#404040" d="M3584,0 V256"/>
<path stroke="#404040" d="M3616,0 V256"/>
<path stroke="#404040" d="M3648,0 V256"/>
<path stroke="#404040" d="M3680,0 V256"/>
<path stroke="#404040" d="M3712,0 V256"/>
<path stroke="#404040" d="M3744,0 V256"/>
<path stroke="#404040" d="M3776,0 V256"/>
<path stroke="#404040" d="M3808,0 V256"/>
<path stroke="#404040" d="M3840,0 V256"/>
<path stroke="#404040" d="M3872,0 V256"/>
<path stroke="#404040" d="M3904,0 V256"/>
<path stroke="#404040" d="M3936,0 V256"/>
<path stroke="#404040" d="M3968,0 V256"/>
<path stroke="#404040" d="M4000,0 V256"/>
<path stroke="#404040" d="M4032,0 V256"/>
<path stroke="#404040" d="M4064,0 V256"/>
<path stroke="yellow" fill="none" stroke-width="1" d="M0,87 L1,88 L2,88 L3,88 L4,88 L5,88 L6,89 L7,88 L8,88 L9,88 L10,88 L11,89 L12,88 L13,89 L14,88 L15,88 L16,88 L17,88 L18,89 L19,89 L20,88 L21,89 L22,88 L23,88 L24,88 L25,89 L26,88 L27,88 L28,88 L29,88 L30,88 L31,88 L32,89 L33,88 L34,88 L35,87 L36,90 L37,89 L38,88 L39,88 L40,88 L41,88 L42,88 L43,88 L44,88 L45,88 L46,88 L47,88 L48,88 L49,88 L50,89 L51,88 L52,89 L53,88 L54,88 L55,88 L56,88 L57,88 L58,88 L59,88 L60,88 L61,88 L62,88 L63,89 L64,88 L65,88 L66,88 L67,88 L68,89 L69,89 L70,88 L71,88 L72,89 L73,88 L74,88 L75,88 L76,89 L77,88 L78,88 L79,88 L80,88 L81,88 L82,88 L83,88 L84,88 L85,88 L86,88 L87,89 L88,88 L89,88 L90,88 L91,88 L92,88 L93,88 L94,90 L95,89 L96,88 L97,88 L98,88 L99,89 L100,88 L101,88 L102,88 L103,88 L104,88 L105,88 L106,88 L107,88 L108,88 L109,88 L110,88 L111,88 L112,88 L113,88 L114,88 L115,88 L116,88 L117,88 L118,88 L119,89 L120,88 L121,88 L122,88 L123,88 L124,163 L125,162 L126,162 L127,162 L128,161 L129,162 L130,162 L131,162 L132,162 L133,162 L134,163 L135,161 L136,162 L137,162 L138,162 L139,162 L140,161 L141,162 L142,162 L143,162 L144,161 L145,162 L146,162 L147,162 L148,162 L149,162 L150,87 L151,88 L152,88 L153,88 L154,88 L155,183 L156,162 L157,163 L158,162 L159,162 L160,162 L161,162 L162,162 L163,162 L164,161 L165,162 L166,162 L167,161 L168,161 L169,162 L170,162 L171,88 L172,88 L173,88 L174,88 L175,88 L176,163 L177,162 L178,162 L179,162 L180,161 L181,93 L182,89 L183,88 L184,88 L185,88 L186,88 L187,88 L188,89 L189,88 L190,88 L191,88 L192,163 L193,163 L194,162 L195,162 L196,162 L197,86 L198,88 L199,88 L200,89 L201,88 L202,88 L203,87 L204,88 L205,89 L206,88 L207,88 L208,88 L209,88 L210,88 L211,88 L212,89 L213,88 L214,88 L215,88 L216,88 L217,88 L218,162 L219,162 L220,162 L221,162 L222,161 L223,87 L224,88 L225,88 L226,88 L227,88 L228,164 L229,162 L230,161 L231,163 L232,162 L233,162 L234,87 L235,88 L236,88 L237,88 L238,88 L239,162 L240,162 L241,162 L242,162 L243,162 L244,88 L245,88 L246,88 L247,88 L248,88 L249,88 L250,88 L251,88 L252,88 L253,88 L254,163 L255,162 L256,162 L257,162 L258,162 L259,162 L260,161 L261,161 L262,162 L263,163 L264,162 L265,161 L266,161 L267,161 L268,162 L269,162 L270,162 L271,162 L272,162 L273,162 L274,162 L275,88 L276,89 L277,88 L278,88 L279,88 L280,170 L281,163 L282,162 L283,162 L284,161 L285,161 L286,88 L287,88 L288,88 L289,88 L290,88 L291,88 L292,86 L293,88 L294,88 L295,88 L296,88 L297,88 L298,88 L299,88 L300,88 L301,164 L302,162 L303,162 L304,161 L305,162 L306,162 L307,162 L308,161 L309,161 L310,162 L311,162 L312,162 L313,162 L314,162 L315,161 L316,162 L317,161 L318,162 L319,161 L320,162 L321,162 L322,161 L323,161 L324,161 L325,162 L326,162 L327,85 L328,88 L329,89 L330,89 L331,88 L332,105 L333,163 L334,162 L335,162 L336,162 L337,162 L338,162 L339,162 L340,161 L341,161 L342,162 L343,162 L344,162 L345,161 L346,162 L347,161 L348,162 L349,162 L350,160 L351,162 L352,162 L353,161 L354,161 L355,162 L356,162 L357,162 L358,161 L359,161 L360,162 L361,162 L362,162 L363,162 L364,162 L365,162 L366,161 L367,162 L368,162 L369,162 L370,162 L371,162 L372,162 L373,162 L374,162 L375,160 L376,162 L377,161 L378,161 L379,85 L380,88 L381,88 L382,88 L383,88 L384,88 L385,162 L386,162 L387,163 L388,162 L389,162 L390,162 L391,162 L392,162 L393,162 L394,162 L395,162 L396,162 L397,162 L398,161 L399,162 L400,162 L401,162 L402,161 L403,162 L404,162 L405,162 L406,162 L407,162 L408,162 L409,161 L410,161 L411,162 L412,162 L413,162 L414,162 L415,162 L416,161 L417,162 L418,162 L419,162 L420,162 L421,161 L422,161 L423,162 L424,162 L425,162 L426,162 L427,162 L428,162 L429,161 L430,162 L431,70 L432,88 L433,88 L434,88 L435,88 L436,89 L437,162 L438,162 L439,162 L440,162 L441,161 L442,162 L443,162 L444,162 L445,162 L446,162 L447,162 L448,162 L449,162 L450,163 L451,162 L452,161 L453,162 L454,163 L455,162 L456,162 L457,162 L458,162 L459,162 L460,162 L461,163 L462,163 L463,163 L464,162 L465,161 L466,162 L467,162 L468,162 L469,162 L470,162 L471,162 L472,161 L473,162 L474,162 L475,162 L476,162 L477,161 L478,162 L479,162 L480,162 L481,162 L482,162 L483,118 L484,88 L485,88 L486,88 L487,88 L488,88 L489,163 L490,162 L491,161 L492,161 L493,163 L494,88 L495,88 L496,88 L497,88 L498,88 L499,163 L500,162 L501,162 L502,162 L503,162 L504,85 L505,88 L506,88 L507,88 L508,88 L509,88 L510,162 L511,162 L512,162 L513,162 L514,162 L515,88 L516,88 L517,88 L518,88 L519,88 L520,163 L521,162 L522,161 L523,162 L524,162 L525,87 L526,88 L527,87 L528,88 L529,88 L530,163 L531,162 L532,162 L533,162 L534,161 L535,161 L536,88 L537,88 L538,88 L539,88 L540,88 L541,162 L542,162 L543,162 L544,162 L545,162 L546,87 L547,88 L548,90 L549,88 L550,88 L551,164 L552,162 L553,162 L554,161 L555,162 L556,86 L557,88 L558,88 L559,88 L560,88 L561,89 L562,162 L563,162 L564,162 L565,162 L566,161 L567,88 L568,88 L569,88 L570,88 L571,88 L572,163 L573,163 L574,162 L575,162 L576,162 L577,162 L578,162 L579,162 L580,162 L581,163 L582,162 L583,162 L584,162 L585,161 L586,162 L587,162 L588,88 L589,88 L590,88 L591,88 L592,88 L593,163 L594,162 L595,162 L596,162 L597,162 L598,87 L599,88 L600,89 L601,88 L602,88 L603,88 L604,88 L605,88 L606,90 L607,89 L608,140 L609,162 L610,162 L611,162 L612,162 L613,162 L614,162 L615,162 L616,162 L617,161 L618,163 L619,162 L620,161 L621,161 L622,162 L623,161 L624,161 L625,161 L626,162 L627,162 L628,161 L629,161 L630,162 L631,164 L632,162 L633,161 L634,162 L635,162 L636,162 L637,162 L638,162 L639,162 L640,88 L641,88 L642,88 L643,88 L644,88 L645,163 L646,162 L647,162 L648,162 L649,162 L650,162 L651,162 L652,161 L653,162 L654,162 L655,162 L656,162 L657,162 L658,162 L659,162 L660,161 L661,162 L662,162 L663,162 L664,161 L665,162 L666,162 L667,162 L668,162 L669,162 L670,162 L671,162 L672,161 L673,162 L674,162 L675,162 L676,162 L677,161 L678,161 L679,162 L680,162 L681,162 L682,162 L683,161 L684,161 L685,162 L686,162 L687,162 L688,162 L689,162 L690,162 L691,161 L692,88 L693,88 L694,88 L695,88 L696,88 L697,163 L698,163 L699,162 L700,163 L701,163 L702,162 L703,161 L704,162 L705,162 L706,162 L707,162 L708,162 L709,162 L710,162 L711,162 L712,162 L713,162 L714,162 L715,162 L716,162 L717,162 L718,162 L719,162 L720,162 L721,161 L722,161 L723,162 L724,163 L725,162 L726,162 L727,161 L728,162 L729,162 L730,162 L731,161 L732,163 L733,162 L734,162 L735,161 L736,162 L737,162 L738,162 L739,162 L740,162 L741,161 L742,161 L743,162 L744,88 L745,88 L746,88 L747,88 L748,88 L749,163 L750,162 L751,162 L752,162 L753,161 L754,162 L755,162 L756,163 L757,162 L758,161 L759,162 L760,162 L761,162 L762,162 L763,162 L764,162 L765,162 L766,161 L767,162 L768,163 L769,162 L770,162 L771,162 L772,162 L773,162 L774,161 L775,162 L776,162 L777,162 L778,162 L779,162 L780,163 L781,162 L782,162 L783,162 L784,161 L785,161 L786,163 L787,162 L788,162 L789,161 L790,162 L791,161 L792,162 L793,161 L794,162 L795,162 L796,88 L797,88 L798,88 L799,89 L800,88 L801,163 L802,162 L803,162 L804,161 L805,162 L806,162 L807,162 L808,162 L809,162 L810,162 L811,162 L812,162 L813,162 L814,162 L815,161 L816,161 L817,162 L818,163 L819,162 L820,161 L821,162 L822,163 L823,162 L824,162 L825,162 L826,162 L827,162 L828,161 L829,161 L830,163 L831,163 L832,162 L833,161 L834,162 L835,162 L836,162 L837,162 L838,163 L839,162 L840,162 L841,161 L842,162 L843,162 L844,163 L845,162 L846,161 L847,162 L848,88 L849,89 L850,88 L851,88 L852,88 L853,164 L854,162 L855,162 L856,162 L857,163 L858,162 L859,162 L860,162 L861,162 L862,161 L863,162 L864,87 L865,88 L866,88 L867,88 L868,88 L869,163 L870,163 L871,161 L872,162 L873,162 L874,88 L875,88 L876,88 L877,88 L878,88 L879,164 L880,162 L881,162 L882,162 L883,161 L884,162 L885,162 L886,162 L887,160 L888,163 L889,162 L890,162 L891,161 L892,162 L893,162 L894,162 L895,161 L896,162 L897,162 L898,162 L899,162 L900,87 L901,88 L902,88 L903,88 L904,88 L905,164 L906,162 L907,162 L908,162 L909,162 L910,141 L911,88 L912,88 L913,88 L914,88 L915,88 L916,162 L917,161 L918,162 L919,163 L920,162 L921,161 L922,162 L923,162 L924,163 L925,162 L926,161 L927,162 L928,162 L929,162 L930,162 L931,162 L932,162 L933,162 L934,161 L935,162 L936,162 L937,163 L938,162 L939,162 L940,161 L941,162 L942,162 L943,162 L944,162 L945,162 L946,162 L947,162 L948,162 L949,162 L950,163 L951,162 L952,87 L953,88 L954,88 L955,89 L956,88 L957,163 L958,162 L959,162 L960,162 L961,162 L962,163 L963,88 L964,88 L965,88 L966,88 L967,88 L968,163 L969,162 L970,162 L971,162 L972,162 L973,162 L974,162 L975,162 L976,162 L977,162 L978,87 L979,88 L980,88 L981,89 L982,89 L983,88 L984,88 L985,88 L986,89 L987,89 L988,88 L989,88 L990,88 L991,88 L992,88 L993,88 L994,89 L995,88 L996,88 L997,88 L998,88 L999,88 L1000,88 L1001,88 L1002,88 L1003,88 L1004,88 L1005,88 L1006,89 L1007,88 L1008,88 L1009,179 L1010,162 L1011,162 L1012,162 L1013,162 L1014,162 L1015,161 L1016,162 L1017,162 L1018,162 L1019,161 L1020,161 L1021,162 L1022,162 L1023,162 L1024,162 L1025,162 L1026,162 L1027,162 L1028,162 L1029,162 L1030,162 L1031,162 L1032,162 L1033,162 L1034,162 L1035,75 L1036,88 L1037,88 L1038,88 L1039,88 L1040,88 L1041,162 L1042,162 L1043,162 L1044,162 L1045,162 L1046,161 L1047,162 L1048,162 L1049,162 L1050,161 L1051,161 L1052,161 L1053,162 L1054,162 L1055,162 L1056,85 L1057,88 L1058,88 L1059,87 L1060,90 L1061,134 L1062,162 L1063,162 L1064,161 L1065,162 L1066,162 L1067,88 L1068,88 L1069,89 L1070,88 L1071,88 L1072,88 L1073,88 L1074,88 L1075,88 L1076,88 L1077,163 L1078,162 L1079,162 L1080,163 L1081,162 L1082,162 L1083,161 L1084,162 L1085,163 L1086,162 L1087,162 L1088,163 L1089,162 L1090,162 L1091,161 L1092,162 L1093,162 L1094,162 L1095,161 L1096,162 L1097,162 L1098,161 L1099,163 L1100,162 L1101,162 L1102,162 L1103,161 L1104,162 L1105,162 L1106,162 L1107,162 L1108,86 L1109,88 L1110,88 L1111,89 L1112,88 L1113,88 L1114,88 L1115,88 L1116,88 L1117,88 L1118,90 L1119,89 L1120,88 L1121,88 L1122,88 L1123,89 L1124,89 L1125,88 L1126,88 L1127,88 L1128,88 L1129,88 L1130,88 L1131,88 L1132,88 L1133,88 L1134,88 L1135,88 L1136,89 L1137,88 L1138,88 L1139,88 L1140,88 L1141,88 L1142,88 L1143,90 L1144,88 L1145,88 L1146,88 L1147,89 L1148,88 L1149,88 L1150,89 L1151,88 L1152,88 L1153,88 L1154,88 L1155,89 L1156,88 L1157,88 L1158,88 L1159,88 L1160,88 L1161,88 L1162,88 L1163,88 L1164,88 L1165,88 L1166,88 L1167,89 L1168,89 L1169,88 L1170,88 L1171,88 L1172,88 L1173,88 L1174,89 L1175,88 L1176,88 L1177,88 L1178,88 L1179,88 L1180,88 L1181,89 L1182,88 L1183,88 L1184,88 L1185,88 L1186,89 L1187,88 L1188,88 L1189,89 L1190,88 L1191,88 L1192,88 L1193,88 L1194,88 L1195,88 L1196,88 L1197,88 L1198,88 L1199,88 L1200,88 L1201,88 L1202,88 L1203,88 L1204,88 L1205,88 L1206,88 L1207,88 L1208,88 L1209,88 L1210,88 L1211,88 L1212,89 L1213,88 L1214,88 L1215,88 L1216,89 L1217,89 L1218,88 L1219,88 L1220,88 L1221,88 L1222,88 L1223,88 L1224,88 L1225,89 L1226,89 L1227,88 L1228,88 L1229,88 L1230,89 L1231,88 L1232,88 L1233,88 L1234,88 L1235,88 L1236,88 L1237,88 L1238,88 L1239,88 L1240,88 L1241,88 L1242,88 L1243,88 L1244,89 L1245,88 L1246,88 L1247,88 L1248,89 L1249,88 L1250,88 L1251,88 L1252,88 L1253,89 L1254,88 L1255,88 L1256,89 L1257,88 L1258,88 L1259,88 L1260,88 L1261,89 L1262,88 L1263,88 L1264,88 L1265,88 L1266,88 L1267,88 L1268,88 L1269,89 L1270,88 L1271,88 L1272,88 L1273,88 L1274,88 L1275,89 L1276,88 L1277,88 L1278,88 L1279,89 L1280,88 L1281,88 L1282,88 L1283,88 L1284,88 L1285,88 L1286,88 L1287,88 L1288,88 L1289,88 L1290,88 L1291,88 L1292,89 L1293,88 L1294,88 L1295,88 L1296,88 L1297,88 L1298,88 L1299,88 L1300,88 L1301,88 L1302,88 L1303,88 L1304,88 L1305,88 L1306,88 L1307,88 L1308,88 L1309,88 L1310,88 L1311,88 L1312,88 L1313,88 L1314,88 L1315,88 L1316,87 L1317,88 L1318,89 L1319,89 L1320,88 L1321,88 L1322,88 L1323,88 L1324,88 L1325,88 L1326,88 L1327,88 L1328,88 L1329,88 L1330,89 L1331,88 L1332,89 L1333,88 L1334,88 L1335,88 L1336,89 L1337,88 L1338,88 L1339,88 L1340,88 L1341,86 L1342,88 L1343,88 L1344,88 L1345,88 L1346,88 L1347,88 L1348,88 L1349,89 L1350,89 L1351,88 L1352,88 L1353,88 L1354,89 L1355,88 L1356,88 L1357,88 L1358,88 L1359,88 L1360,88 L1361,88 L1362,88 L1363,89 L1364,88 L1365,88 L1366,87 L1367,89 L1368,88 L1369,88 L1370,88 L1371,88 L1372,88 L1373,89 L1374,88 L1375,88 L1376,88 L1377,88 L1378,88 L1379,88 L1380,88 L1381,88 L1382,88 L1383,88 L1384,88 L1385,89 L1386,89 L1387,88 L1388,88 L1389,88 L1390,88 L1391,88 L1392,88 L1393,89 L1394,88 L1395,88 L1396,88 L1397,88 L1398,88 L1399,86 L1400,88 L1401,88 L1402,88 L1403,88 L1404,88 L1405,88 L1406,88 L1407,88 L1408,88 L1409,88 L1410,88 L1411,88 L1412,88 L1413,88 L1414,88 L1415,87 L1416,89 L1417,88 L1418,89 L1419,88 L1420,88 L1421,88 L1422,88 L1423,88 L1424,88 L1425,89 L1426,88 L1427,87 L1428,88 L1429,88 L1430,88 L1431,89 L1432,88 L1433,88 L1434,88 L1435,88 L1436,88 L1437,88 L1438,88 L1439,88 L1440,88 L1441,88 L1442,88 L1443,89 L1444,88 L1445,88 L1446,88 L1447,89 L1448,89 L1449,88 L1450,88 L1451,89 L1452,88 L1453,88 L1454,88 L1455,88 L1456,89 L1457,88 L1458,88 L1459,88 L1460,89 L1461,88 L1462,88 L1463,89 L1464,88 L1465,88 L1466,88 L1467,89 L1468,88 L1469,88 L1470,88 L1471,89 L1472,88 L1473,88 L1474,89 L1475,89 L1476,88 L1477,88 L1478,88 L1479,88 L1480,88 L1481,88 L1482,89 L1483,88 L1484,88 L1485,88 L1486,89 L1487,89 L1488,88 L1489,88 L1490,88 L1491,88 L1492,88 L1493,88 L1494,88 L1495,88 L1496,88 L1497,88 L1498,88 L1499,88 L1500,88 L1501,88 L1502,88 L1503,88 L1504,88 L1505,88 L1506,89 L1507,88 L1508,89 L1509,88 L1510,88 L1511,88 L1512,88 L1513,88 L1514,88 L1515,88 L1516,88 L1517,88 L1518,89 L1519,88 L1520,88 L1521,88 L1522,88 L1523,88 L1524,88 L1525,88 L1526,89 L1527,88 L1528,88 L1529,88 L1530,88 L1531,89 L1532,88 L1533,88 L1534,88 L1535,88 L1536,88 L1537,89 L1538,88 L1539,88 L1540,88 L1541,88 L1542,88 L1543,88 L1544,88 L1545,88 L1546,88 L1547,88 L1548,88 L1549,88 L1550,89 L1551,88 L1552,88 L1553,88 L1554,89 L1555,88 L1556,88 L1557,88 L1558,89 L1559,88 L1560,88 L1561,89 L1562,89 L1563,88 L1564,88 L1565,88 L1566,88 L1567,88 L1568,89 L1569,89 L1570,88 L1571,88 L1572,89 L1573,88 L1574,88 L1575,88 L1576,88 L1577,88 L1578,88 L1579,88 L1580,89 L1581,89 L1582,88 L1583,88 L1584,89 L1585,88 L1586,88 L1587,88 L1588,88 L1589,88 L1590,88 L1591,88 L1592,89 L1593,89 L1594,88 L1595,88 L1596,88 L1597,90 L1598,89 L1599,88 L1600,88 L1601,88 L1602,88 L1603,88 L1604,88 L1605,88 L1606,88 L1607,89 L1608,88 L1609,88 L1610,88 L1611,89 L1612,88 L1613,88 L1614,87 L1615,88 L1616,89 L1617,89 L1618,88 L1619,89 L1620,88 L1621,88 L1622,89 L1623,88 L1624,89 L1625,88 L1626,88 L1627,88 L1628,88 L1629,88 L1630,89 L1631,88 L1632,88 L1633,88 L1634,88 L1635,88 L1636,88 L1637,88 L1638,89 L1639,88 L1640,88 L1641,88 L1642,89 L1643,89 L1644,88 L1645,88 L1646,88 L1647,89 L1648,88 L1649,88 L1650,88 L1651,89 L1652,88 L1653,88 L1654,89 L1655,91 L1656,89 L1657,88 L1658,88 L1659,88 L1660,88 L1661,88 L1662,88 L1663,88 L1664,88 L1665,88 L1666,89 L1667,88 L1668,89 L1669,88 L1670,88 L1671,88 L1672,88 L1673,88 L1674,89 L1675,88 L1676,88 L1677,88 L1678,89 L1679,89 L1680,89 L1681,88 L1682,88 L1683,88 L1684,88 L1685,88 L1686,88 L1687,89 L1688,88 L1689,88 L1690,88 L1691,88 L1692,88 L1693,88 L1694,88 L1695,88 L1696,88 L1697,88 L1698,88 L1699,89 L1700,88 L1701,88 L1702,88 L1703,88 L1704,88 L1705,89 L1706,89 L1707,88 L1708,88 L1709,88 L1710,89 L1711,88 L1712,88 L1713,88 L1714,88 L1715,88 L1716,88 L1717,89 L1718,89 L1719,88 L1720,88 L1721,88 L1722,89 L1723,88 L1724,88 L1725,88 L1726,88 L1727,88 L1728,88 L1729,89 L1730,88 L1731,88 L1732,88 L1733,88 L1734,88 L1735,88 L1736,88 L1737,89 L1738,88 L1739,88 L1740,88 L1741,89 L1742,88 L1743,88 L1744,88 L1745,88 L1746,88 L1747,88 L1748,88 L1749,89 L1750,88 L1751,87 L1752,88 L1753,88 L1754,89 L1755,88 L1756,88 L1757,88 L1758,88 L1759,88 L1760,88 L1761,88 L1762,88 L1763,88 L1764,88 L1765,88 L1766,88 L1767,88 L1768,89 L1769,88 L1770,88 L1771,88 L1772,89 L1773,88 L1774,88 L1775,89 L1776,88 L1777,88 L1778,88 L1779,89 L1780,89 L1781,88 L1782,88 L1783,88 L1784,88 L1785,88 L1786,88 L1787,88 L1788,88 L1789,88 L1790,88 L1791,88 L1792,89 L1793,89 L1794,88 L1795,88 L1796,88 L1797,88 L1798,88 L1799,88 L1800,88 L1801,88 L1802,88 L1803,88 L1804,88 L1805,88 L1806,88 L1807,88 L1808,88 L1809,88 L1810,88 L1811,89 L1812,88 L1813,88 L1814,88 L1815,88 L1816,89 L1817,88 L1818,88 L1819,88 L1820,88 L1821,88 L1822,88 L1823,88 L1824,89 L1825,88 L1826,88 L1827,89 L1828,88 L1829,89 L1830,89 L1831,88 L1832,88 L1833,88 L1834,89 L1835,88 L1836,88 L1837,88 L1838,88 L1839,88 L1840,88 L1841,88 L1842,89 L1843,88 L1844,88 L1845,88 L1846,89 L1847,88 L1848,88 L1849,88 L1850,89 L1851,88 L1852,88 L1853,86 L1854,88 L1855,89 L1856,88 L1857,88 L1858,88 L1859,88 L1860,88 L1861,88 L1862,88 L1863,88 L1864,88 L1865,88 L1866,88 L1867,88 L1868,88 L1869,88 L1870,88 L1871,88 L1872,88 L1873,88 L1874,88 L1875,88 L1876,87 L1877,88 L1878,87 L1879,88 L1880,88 L1881,88 L1882,88 L1883,88 L1884,88 L1885,88 L1886,89 L1887,88 L1888,88 L1889,88 L1890,88 L1891,88 L1892,88 L1893,88 L1894,88 L1895,88 L1896,88 L1897,88 L1898,88 L1899,88 L1900,89 L1901,88 L1902,88 L1903,88 L1904,88 L1905,88 L1906,88 L1907,88 L1908,88 L1909,88 L1910,88 L1911,86 L1912,88 L1913,88 L1914,88 L1915,88 L1916,88 L1917,89 L1918,89 L1919,88 L1920,88 L1921,88 L1922,89 L1923,88 L1924,88 L1925,88 L1926,88 L1927,88 L1928,89 L1929,88 L1930,88 L1931,88 L1932,88 L1933,88 L1934,88 L1935,88 L1936,86 L1937,88 L1938,88 L1939,88 L1940,88 L1941,88 L1942,88 L1943,88 L1944,89 L1945,88 L1946,88 L1947,88 L1948,89 L1949,89 L1950,88 L1951,88 L1952,88 L1953,89 L1954,88 L1955,88 L1956,88 L1957,88 L1958,88 L1959,88 L1960,88 L1961,88 L1962,88 L1963,88 L1964,88 L1965,88 L1966,89 L1967,89 L1968,89 L1969,88 L1970,88 L1971,89 L1972,88 L1973,88 L1974,88 L1975,89 L1976,88 L1977,88 L1978,88 L1979,89 L1980,88 L1981,88 L1982,88 L1983,88 L1984,88 L1985,88 L1986,89 L1987,89 L1988,88 L1989,88 L1990,88 L1991,88 L1992,88 L1993,88 L1994,89 L1995,88 L1996,88 L1997,88 L1998,89 L1999,89 L2000,88 L2001,88 L2002,88 L2003,88 L2004,88 L2005,88 L2006,89 L2007,89 L2008,88 L2009,88 L2010,89 L2011,89 L2012,88 L2013,88 L2014,88 L2015,88 L2016,88 L2017,88 L2018,88 L2019,88 L2020,88 L2021,88 L2022,88 L2023,88 L2024,88 L2025,88 L2026,88 L2027,88 L2028,88 L2029,89 L2030,89 L2031,88 L2032,88 L2033,88 L2034,88 L2035,88 L2036,88 L2037,88 L2038,88 L2039,88 L2040,88 L2041,88 L2042,89 L2043,88 L2044,88 L2045,88 L2046,88 L2047,88 L2048,88 L2049,88 L2050,88 L2051,88 L2052,88 L2053,88 L2054,89 L2055,88 L2056,88 L2057,88 L2058,88 L2059,88 L2060,88 L2061,89 L2062,88 L2063,88 L2064,88 L2065,88 L2066,88 L2067,88 L2068,88 L2069,88 L2070,88 L2071,88 L2072,88 L2073,88 L2074,89 L2075,88 L2076,88 L2077,88 L2078,88 L2079,88 L2080,88 L2081,88 L2082,88 L2083,88 L2084,89 L2085,89 L2086,89 L2087,88 L2088,88 L2089,88 L2090,88 L2091,88 L2092,88 L2093,88 L2094,88 L2095,88 L2096,88 L2097,88 L2098,88 L2099,88 L2100,88 L2101,88 L2102,88 L2103,88 L2104,88 L2105,88 L2106,88 L2107,88 L2108,88 L2109,90 L2110,88 L2111,88 L2112,89 L2113,88 L2114,88 L2115,88 L2116,89 L2117,89 L2118,88 L2119,88 L2120,88 L2121,88 L2122,88 L2123,88 L2124,89 L2125,88 L2126,88 L2127,88 L2128,88 L2129,89 L2130,88 L2131,89 L2132,88 L2133,88 L2134,89 L2135,88 L2136,89 L2137,88 L2138,88 L2139,88 L2140,89 L2141,88 L2142,88 L2143,88 L2144,89 L2145,88 L2146,89 L2147,88 L2148,88 L2149,89 L2150,88 L2151,88 L2152,88 L2153,88 L2154,88 L2155,88 L2156,88 L2157,88 L2158,88 L2159,88 L2160,88 L2161,88 L2162,89 L2163,88 L2164,88 L2165,88 L2166,88 L2167,90 L2168,88 L2169,88 L2170,88 L2171,88 L2172,88 L2173,88 L2174,89 L2175,88 L2176,88 L2177,88 L2178,88 L2179,89 L2180,88 L2181,88 L2182,88 L2183,88 L2184,88 L2185,88 L2186,88 L2187,88 L2188,88 L2189,88 L2190,88 L2191,88 L2192,89 L2193,88 L2194,88 L2195,88 L2196,88 L2197,88 L2198,89 L2199,88 L2200,88 L2201,88 L2202,88 L2203,88 L2204,88 L2205,88 L2206,88 L2207,89 L2208,88 L2209,88 L2210,89 L2211,88 L2212,88 L2213,88 L2214,88 L2215,88 L2216,88 L2217,88 L2218,89 L2219,88 L2220,88 L2221,88 L2222,89 L2223,89 L2224,88 L2225,88 L2226,88 L2227,88 L2228,88 L2229,88 L2230,88 L2231,88 L2232,88 L2233,88 L2234,88 L2235,88 L2236,89 L2237,89 L2238,88 L2239,88 L2240,88 L2241,89 L2242,88 L2243,88 L2244,88 L2245,88 L2246,88 L2247,88 L2248,88 L2249,88 L2250,88 L2251,88 L2252,88 L2253,88 L2254,88 L2255,89 L2256,88 L2257,88 L2258,88 L2259,88 L2260,88 L2261,88 L2262,88 L2263,88 L2264,88 L2265,88 L2266,88 L2267,88 L2268,88 L2269,89 L2270,88 L2271,88 L2272,89 L2273,89 L2274,88 L2275,88 L2276,88 L2277,88 L2278,88 L2279,88 L2280,89 L2281,89 L2282,88 L2283,88 L2284,88 L2285,89 L2286,89 L2287,88 L2288,88 L2289,88 L2290,88 L2291,88 L2292,88 L2293,88 L2294,88 L2295,88 L2296,88 L2297,88 L2298,88 L2299,88 L2300,88 L2301,88 L2302,88 L2303,88 L2304,89 L2305,88 L2306,88 L2307,88 L2308,89 L2309,88 L2310,88 L2311,88 L2312,89 L2313,88 L2314,88 L2315,88 L2316,88 L2317,89 L2318,88 L2319,88 L2320,88 L2321,88 L2322,88 L2323,88 L2324,88 L2325,88 L2326,89 L2327,88 L2328,88 L2329,88 L2330,88 L2331,89 L2332,88 L2333,88 L2334,88 L2335,89 L2336,88 L2337,88 L2338,88 L2339,88 L2340,89 L2341,88 L2342,88 L2343,89 L2344,88 L2345,88 L2346,88 L2347,89 L2348,89 L2349,88 L2350,88 L2351,88 L2352,88 L2353,88 L2354,88 L2355,88 L2356,88 L2357,88 L2358,88 L2359,88 L2360,88 L2361,89 L2362,88 L2363,88 L2364,88 L2365,86 L2366,89 L2367,89 L2368,88 L2369,88 L2370,88 L2371,88 L2372,88 L2373,88 L2374,88 L2375,88 L2376,88 L2377,88 L2378,88 L2379,89 L2380,88 L2381,88 L2382,88 L2383,88 L2384,88 L2385,88 L2386,89 L2387,88 L2388,88 L2389,88 L2390,86 L2391,88 L2392,88 L2393,88 L2394,88 L2395,88 L2396,88 L2397,88 L2398,89 L2399,88 L2400,88 L2401,88 L2402,88 L2403,88 L2404,88 L2405,89 L2406,88 L2407,88 L2408,88 L2409,88 L2410,89 L2411,88 L2412,88 L2413,88 L2414,88 L2415,88 L2416,88 L2417,88 L2418,88 L2419,88 L2420,88 L2421,88 L2422,88 L2423,87 L2424,88 L2425,88 L2426,88 L2427,88 L2428,88 L2429,88 L2430,88 L2431,88 L2432,88 L2433,88 L2434,88 L2435,88 L2436,89 L2437,89 L2438,88 L2439,88 L2440,88 L2441,88 L2442,88 L2443,88 L2444,88 L2445,88 L2446,88 L2447,88 L2448,86 L2449,88 L2450,88 L2451,88 L2452,88 L2453,88 L2454,89 L2455,88 L2456,88 L2457,88 L2458,88 L2459,88 L2460,89 L2461,88 L2462,88 L2463,88 L2464,89 L2465,89 L2466,88 L2467,88 L2468,89 L2469,88 L2470,88 L2471,88 L2472,89 L2473,87 L2474,88 L2475,88 L2476,88 L2477,89 L2478,88 L2479,88 L2480,89 L2481,88 L2482,88 L2483,88 L2484,88 L2485,89 L2486,88 L2487,88 L2488,88 L2489,88 L2490,88 L2491,88 L2492,89 L2493,88 L2494,88 L2495,88 L2496,88 L2497,88 L2498,88 L2499,88 L2500,88 L2501,88 L2502,88 L2503,89 L2504,89 L2505,88 L2506,88 L2507,88 L2508,88 L2509,88 L2510,88 L2511,89 L2512,88 L2513,88 L2514,88 L2515,88 L2516,88 L2517,88 L2518,88 L2519,88 L2520,88 L2521,88 L2522,88 L2523,89 L2524,88 L2525,88 L2526,88 L2527,88 L2528,88 L2529,88 L2530,88 L2531,88 L2532,88 L2533,88 L2534,88 L2535,89 L2536,88 L2537,88 L2538,88 L2539,88 L2540,88 L2541,88 L2542,88 L2543,89 L2544,88 L2545,88 L2546,88 L2547,89 L2548,88 L2549,88 L2550,88 L2551,88 L2552,88 L2553,88 L2554,88 L2555,89 L2556,88 L2557,88 L2558,88 L2559,88 L2560,88 L2561,88 L2562,88 L2563,88 L2564,88 L2565,88 L2566,88 L2567,88 L2568,88 L2569,88 L2570,88 L2571,88 L2572,88 L2573,88 L2574,89 L2575,88 L2576,88 L2577,88 L2578,88 L2579,89 L2580,88 L2581,88 L2582,88 L2583,88 L2584,88 L2585,88 L2586,89 L2587,88 L2588,88 L2589,88 L2590,88 L2591,89 L2592,88 L2593,89 L2594,88 L2595,88 L2596,88 L2597,88 L2598,89 L2599,88 L2600,88 L2601,88 L2602,88 L2603,88 L2604,88 L2605,89 L2606,88 L2607,87 L2608,88 L2609,88 L2610,89 L2611,88 L2612,88 L2613,88 L2614,88 L2615,88 L2616,88 L2617,88 L2618,88 L2619,88 L2620,88 L2621,89 L2622,88 L2623,88 L2624,88 L2625,88 L2626,88 L2627,88 L2628,88 L2629,88 L2630,88 L2631,88 L2632,88 L2633,88 L2634,88 L2635,88 L2636,89 L2637,88 L2638,88 L2639,88 L2640,88 L2641,88 L2642,88 L2643,88 L2644,88 L2645,89 L2646,89 L2647,88 L2648,88 L2649,89 L2650,88 L2651,88 L2652,88 L2653,88 L2654,88 L2655,89 L2656,88 L2657,88 L2658,88 L2659,88 L2660,88 L2661,88 L2662,88 L2663,88 L2664,88 L2665,88 L2666,88 L2667,89 L2668,88 L2669,88 L2670,88 L2671,89 L2672,89 L2673,88 L2674,88 L2675,88 L2676,89 L2677,88 L2678,88 L2679,89 L2680,89 L2681,88 L2682,88 L2683,88 L2684,88 L2685,89 L2686,88 L2687,88 L2688,88 L2689,88 L2690,88 L2691,88 L2692,88 L2693,88 L2694,88 L2695,88 L2696,87 L2697,89 L2698,88 L2699,88 L2700,88 L2701,88 L2702,88 L2703,89 L2704,90 L2705,88 L2706,88 L2707,88 L2708,88 L2709,88 L2710,89 L2711,89 L2712,88 L2713,88 L2714,88 L2715,88 L2716,89 L2717,88 L2718,88 L2719,88 L2720,88 L2721,88 L2722,89 L2723,88 L2724,88 L2725,88 L2726,88 L2727,88 L2728,88 L2729,89 L2730,88 L2731,88 L2732,88 L2733,88 L2734,89 L2735,89 L2736,88 L2737,88 L2738,88 L2739,88 L2740,88 L2741,88 L2742,89 L2743,88 L2744,88 L2745,88 L2746,88 L2747,89 L2748,88 L2749,88 L2750,88 L2751,89 L2752,88 L2753,88 L2754,89 L2755,88 L2756,88 L2757,88 L2758,88 L2759,88 L2760,88 L2761,88 L2762,88 L2763,88 L2764,88 L2765,88 L2766,88 L2767,88 L2768,88 L2769,88 L2770,88 L2771,88 L2772,88 L2773,89 L2774,88 L2775,88 L2776,88 L2777,88 L2778,89 L2779,88 L2780,88 L2781,89 L2782,88 L2783,88 L2784,88 L2785,88 L2786,89 L2787,88 L2788,88 L2789,88 L2790,88 L2791,88 L2792,89 L2793,88 L2794,88 L2795,88 L2796,89 L2797,88 L2798,88 L2799,88 L2800,88 L2801,88 L2802,88 L2803,88 L2804,88 L2805,89 L2806,88 L2807,87 L2808,88 L2809,89 L2810,89 L2811,88 L2812,88 L2813,88 L2814,88 L2815,88 L2816,88 L2817,89 L2818,88 L2819,88 L2820,88 L2821,88 L2822,88 L2823,88 L2824,88 L2825,88 L2826,88 L2827,89 L2828,89 L2829,88 L2830,88 L2831,88 L2832,88 L2833,88 L2834,88 L2835,89 L2836,89 L2837,88 L2838,88 L2839,88 L2840,89 L2841,89 L2842,88 L2843,88 L2844,89 L2845,88 L2846,88 L2847,88 L2848,89 L2849,89 L2850,88 L2851,88 L2852,89 L2853,89 L2854,88 L2855,88 L2856,88 L2857,88 L2858,88 L2859,89 L2860,88 L2861,88 L2862,88 L2863,88 L2864,88 L2865,88 L2866,88 L2867,89 L2868,88 L2869,88 L2870,88 L2871,89 L2872,88 L2873,88 L2874,88 L2875,88 L2876,88 L2877,87 L2878,88 L2879,89 L2880,89 L2881,88 L2882,88 L2883,88 L2884,89 L2885,88 L2886,88 L2887,88 L2888,88 L2889,88 L2890,88 L2891,88 L2892,89 L2893,88 L2894,88 L2895,88 L2896,88 L2897,88 L2898,89 L2899,88 L2900,88 L2901,88 L2902,86 L2903,89 L2904,88 L2905,88 L2906,88 L2907,88 L2908,88 L2909,88 L2910,89 L2911,89 L2912,88 L2913,88 L2914,88 L2915,89 L2916,88 L2917,88 L2918,88 L2919,88 L2920,88 L2921,88 L2922,88 L2923,88 L2924,88 L2925,88 L2926,88 L2927,87 L2928,88 L2929,88 L2930,89 L2931,88 L2932,88 L2933,88 L2934,88 L2935,88 L2936,88 L2937,88 L2938,88 L2939,88 L2940,88 L2941,89 L2942,88 L2943,88 L2944,88 L2945,88 L2946,88 L2947,88 L2948,88 L2949,88 L2950,88 L2951,88 L2952,88 L2953,88 L2954,88 L2955,88 L2956,88 L2957,88 L2958,88 L2959,88 L2960,86 L2961,89 L2962,88 L2963,88 L2964,89 L2965,88 L2966,88 L2967,88 L2968,88 L2969,89 L2970,88 L2971,88 L2972,89 L2973,89 L2974,88 L2975,88 L2976,88 L2977,89 L2978,88 L2979,88 L2980,88 L2981,88 L2982,88 L2983,88 L2984,88 L2985,88 L2986,88 L2987,88 L2988,88 L2989,88 L2990,88 L2991,89 L2992,89 L2993,88 L2994,88 L2995,88 L2996,88 L2997,89 L2998,88 L2999,88 L3000,88 L3001,88 L3002,88 L3003,88 L3004,89 L3005,88 L3006,88 L3007,88 L3008,88 L3009,89 L3010,88 L3011,88 L3012,88 L3013,88 L3014,88 L3015,88 L3016,88 L3017,89 L3018,88 L3019,88 L3020,88 L3021,88 L3022,88 L3023,88 L3024,88 L3025,88 L3026,88 L3027,88 L3028,88 L3029,88 L3030,88 L3031,88 L3032,88 L3033,88 L3034,88 L3035,89 L3036,88 L3037,88 L3038,88 L3039,88 L3040,88 L3041,88 L3042,88 L3043,89 L3044,88 L3045,88 L3046,88 L3047,88 L3048,88 L3049,88 L3050,88 L3051,88 L3052,88 L3053,88 L3054,89 L3055,89 L3056,88 L3057,88 L3058,88 L3059,89 L3060,89 L3061,88 L3062,88 L3063,88 L3064,88 L3065,88 L3066,88 L3067,88 L3068,88 L3069,87 L3070,88 L3071,88 L3072,88 L3073,88 L3074,88 L3075,88 L3076,88 L3077,88 L3078,88 L3079,88 L3080,88 L3081,88 L3082,88 L3083,88 L3084,88 L3085,88 L3086,88 L3087,88 L3088,88 L3089,88 L3090,88 L3091,88 L3092,88 L3093,88 L3094,88 L3095,88 L3096,88 L3097,89 L3098,89 L3099,88 L3100,88 L3101,88 L3102,89 L3103,88 L3104,88 L3105,88 L3106,88 L3107,88 L3108,88 L3109,88 L3110,88 L3111,88 L3112,88 L3113,88 L3114,88 L3115,88 L3116,88 L3117,88 L3118,88 L3119,88 L3120,88 L3121,88 L3122,88 L3123,88 L3124,88 L3125,88 L3126,88 L3127,88 L3128,88 L3129,89 L3130,88 L3131,88 L3132,88 L3133,89 L3134,88 L3135,88 L3136,88 L3137,89 L3138,88 L3139,88 L3140,88 L3141,89 L3142,89 L3143,88 L3144,88 L3145,88 L3146,88 L3147,88 L3148,88 L3149,88 L3150,88 L3151,88 L3152,88 L3153,88 L3154,88 L3155,88 L3156,88 L3157,88 L3158,90 L3159,88 L3160,88 L3161,88 L3162,88 L3163,88 L3164,89 L3165,88 L3166,88 L3167,88 L3168,88 L3169,88 L3170,88 L3171,88 L3172,89 L3173,89 L3174,88 L3175,88 L3176,89 L3177,88 L3178,88 L3179,88 L3180,88 L3181,88 L3182,88 L3183,89 L3184,88 L3185,88 L3186,88 L3187,88 L3188,88 L3189,88 L3190,88 L3191,89 L3192,88 L3193,88 L3194,88 L3195,88 L3196,89 L3197,88 L3198,88 L3199,88 L3200,88 L3201,88 L3202,88 L3203,89 L3204,88 L3205,88 L3206,88 L3207,88 L3208,88 L3209,89 L3210,88 L3211,88 L3212,88 L3213,88 L3214,88 L3215,88 L3216,90 L3217,89 L3218,88 L3219,88 L3220,88 L3221,88 L3222,89 L3223,88 L3224,88 L3225,88 L3226,88 L3227,88 L3228,88 L3229,88 L3230,88 L3231,88 L3232,88 L3233,88 L3234,89 L3235,88 L3236,88 L3237,88 L3238,88 L3239,89 L3240,88 L3241,89 L3242,89 L3243,89 L3244,88 L3245,88 L3246,89 L3247,89 L3248,88 L3249,88 L3250,88 L3251,88 L3252,88 L3253,88 L3254,89 L3255,88 L3256,88 L3257,88 L3258,89 L3259,88 L3260,88 L3261,88 L3262,89 L3263,88 L3264,88 L3265,88 L3266,89 L3267,88 L3268,88 L3269,88 L3270,88 L3271,88 L3272,88 L3273,88 L3274,88 L3275,88 L3276,88 L3277,88 L3278,89 L3279,89 L3280,88 L3281,88 L3282,88 L3283,89 L3284,88 L3285,88 L3286,88 L3287,88 L3288,88 L3289,88 L3290,88 L3291,88 L3292,88 L3293,89 L3294,88 L3295,88 L3296,88 L3297,89 L3298,88 L3299,88 L3300,88 L3301,88 L3302,88 L3303,88 L3304,88 L3305,88 L3306,88 L3307,88 L3308,88 L3309,88 L3310,89 L3311,88 L3312,88 L3313,88 L3314,88 L3315,89 L3316,88 L3317,88 L3318,88 L3319,88 L3320,88 L3321,88 L3322,88 L3323,88 L3324,88 L3325,88 L3326,88 L3327,88 L3328,89 L3329,89 L3330,88 L3331,88 L3332,88 L3333,88 L3334,88 L3335,88 L3336,88 L3337,88 L3338,88 L3339,88 L3340,88 L3341,89 L3342,88 L3343,88 L3344,88 L3345,88 L3346,88 L3347,88 L3348,89 L3349,88 L3350,88 L3351,88 L3352,88 L3353,88 L3354,88 L3355,88 L3356,88 L3357,88 L3358,88 L3359,88 L3360,89 L3361,88 L3362,88 L3363,88 L3364,88 L3365,88 L3366,88 L3367,89 L3368,88 L3369,88 L3370,88 L3371,88 L3372,88 L3373,89 L3374,88 L3375,88 L3376,88 L3377,88 L3378,88 L3379,88 L3380,88 L3381,88 L3382,88 L3383,88 L3384,88 L3385,88 L3386,88 L3387,88 L3388,88 L3389,87 L3390,88 L3391,89 L3392,88 L3393,87 L3394,88 L3395,88 L3396,88 L3397,88 L3398,88 L3399,88 L3400,88 L3401,88 L3402,88 L3403,89 L3404,88 L3405,88 L3406,88 L3407,88 L3408,88 L3409,88 L3410,88 L3411,88 L3412,88 L3413,88 L3414,86 L3415,88 L3416,88 L3417,88 L3418,88 L3419,88 L3420,88 L3421,88 L3422,89 L3423,88 L3424,88 L3425,88 L3426,88 L3427,88 L3428,88 L3429,89 L3430,89 L3431,88 L3432,88 L3433,88 L3434,89 L3435,88 L3436,88 L3437,88 L3438,88 L3439,86 L3440,88 L3441,88 L3442,88 L3443,88 L3444,88 L3445,88 L3446,88 L3447,88 L3448,89 L3449,88 L3450,88 L3451,88 L3452,88 L3453,89 L3454,88 L3455,88 L3456,88 L3457,89 L3458,88 L3459,88 L3460,88 L3461,89 L3462,88 L3463,88 L3464,88 L3465,89 L3466,89 L3467,88 L3468,88 L3469,88 L3470,89 L3471,88 L3472,87 L3473,88 L3474,88 L3475,88 L3476,88 L3477,88 L3478,89 L3479,88 L3480,88 L3481,88 L3482,88 L3483,88 L3484,89 L3485,88 L3486,88 L3487,88 L3488,88 L3489,88 L3490,88 L3491,88 L3492,88 L3493,88 L3494,88 L3495,88 L3496,88 L3497,86 L3498,88 L3499,88 L3500,88 L3501,88 L3502,88 L3503,88 L3504,89 L3505,88 L3506,88 L3507,88 L3508,88 L3509,88 L3510,88 L3511,88 L3512,88 L3513,88 L3514,88 L3515,89 L3516,88 L3517,88 L3518,88 L3519,88 L3520,88 L3521,88 L3522,88 L3523,89 L3524,88 L3525,88 L3526,88 L3527,89 L3528,89 L3529,88 L3530,88 L3531,88 L3532,89 L3533,88 L3534,88 L3535,88 L3536,89 L3537,88 L3538,88 L3539,89 L3540,89 L3541,89 L3542,88 L3543,88 L3544,88 L3545,88 L3546,88 L3547,89 L3548,88 L3549,88 L3550,88 L3551,88 L3552,88 L3553,89 L3554,88 L3555,88 L3556,88 L3557,88 L3558,88 L3559,88 L3560,88 L3561,88 L3562,88 L3563,88 L3564,88 L3565,88 L3566,88 L3567,88 L3568,88 L3569,88 L3570,88 L3571,89 L3572,88 L3573,88 L3574,88 L3575,88 L3576,88 L3577,88 L3578,89 L3579,88 L3580,88 L3581,88 L3582,88 L3583,88 L3584,88 L3585,89 L3586,88 L3587,88 L3588,88 L3589,88 L3590,89 L3591,88 L3592,88 L3593,88 L3594,88 L3595,88 L3596,88 L3597,89 L3598,89 L3599,88 L3600,88 L3601,88 L3602,89 L3603,88 L3604,88 L3605,88 L3606,88 L3607,88 L3608,88 L3609,89 L3610,88 L3611,88 L3612,88 L3613,88 L3614,88 L3615,88 L3616,88 L3617,88 L3618,88 L3619,88 L3620,88 L3621,88 L3622,88 L3623,88 L3624,88 L3625,88 L3626,88 L3627,88 L3628,89 L3629,89 L3630,88 L3631,88 L3632,88 L3633,89 L3634,89 L3635,88 L3636,88 L3637,88 L3638,88 L3639,88 L3640,89 L3641,88 L3642,88 L3643,88 L3644,88 L3645,88 L3646,88 L3647,88 L3648,89 L3649,88 L3650,88 L3651,88 L3652,89 L3653,89 L3654,88 L3655,88 L3656,89 L3657,89 L3658,88 L3659,88 L3660,89 L3661,88 L3662,88 L3663,88 L3664,88 L3665,89 L3666,88 L3667,88 L3668,88 L3669,89 L3670,90 L3671,88 L3672,88 L3673,88 L3674,88 L3675,88 L3676,88 L3677,88 L3678,88 L3679,89 L3680,88 L3681,88 L3682,88 L3683,89 L3684,88 L3685,88 L3686,88 L3687,88 L3688,88 L3689,88 L3690,88 L3691,89 L3692,89 L3693,88 L3694,88 L3695,90 L3696,88 L3697,88 L3698,88 L3699,88 L3700,88 L3701,88 L3702,88 L3703,88 L3704,88 L3705,88 L3706,88 L3707,88 L3708,88 L3709,88 L3710,89 L3711,88 L3712,88 L3713,88 L3714,88 L3715,89 L3716,88 L3717,88 L3718,88 L3719,88 L3720,88 L3721,88 L3722,89 L3723,89 L3724,88 L3725,88 L3726,88 L3727,89 L3728,90 L3729,88 L3730,88 L3731,88 L3732,88 L3733,88 L3734,88 L3735,89 L3736,88 L3737,88 L3738,88 L3739,88 L3740,88 L3741,88 L3742,88 L3743,88 L3744,88 L3745,88 L3746,89 L3747,88 L3748,88 L3749,88 L3750,88 L3751,88 L3752,88 L3753,90 L3754,89 L3755,88 L3756,88 L3757,88 L3758,88 L3759,88 L3760,88 L3761,88 L3762,88 L3763,88 L3764,88 L3765,88 L3766,89 L3767,88 L3768,88 L3769,88 L3770,88 L3771,88 L3772,88 L3773,89 L3774,88 L3775,88 L3776,88 L3777,89 L3778,89 L3779,88 L3780,88 L3781,88 L3782,89 L3783,88 L3784,88 L3785,89 L3786,88 L3787,88 L3788,88 L3789,89 L3790,88 L3791,88 L3792,88 L3793,89 L3794,88 L3795,88 L3796,88 L3797,89 L3798,88 L3799,88 L3800,88 L3801,88 L3802,88 L3803,88 L3804,88 L3805,88 L3806,88 L3807,88 L3808,88 L3809,88 L3810,88 L3811,88 L3812,88 L3813,88 L3814,88 L3815,89 L3816,89 L3817,88 L3818,88 L3819,88 L3820,89 L3821,88 L3822,88 L3823,88 L3824,88 L3825,88 L3826,88 L3827,88 L3828,89 L3829,88 L3830,88 L3831,88 L3832,89 L3833,88 L3834,88 L3835,89 L3836,88 L3837,88 L3838,88 L3839,88 L3840,88 L3841,88 L3842,88 L3843,88 L3844,88 L3845,88 L3846,88 L3847,89 L3848,89 L3849,88 L3850,87 L3851,89 L3852,89 L3853,88 L3854,88 L3855,88 L3856,88 L3857,88 L3858,88 L3859,88 L3860,89 L3861,88 L3862,88 L3863,88 L3864,89 L3865,89 L3866,88 L3867,88 L3868,88 L3869,88 L3870,88 L3871,88 L3872,89 L3873,88 L3874,88 L3875,88 L3876,88 L3877,88 L3878,89 L3879,89 L3880,88 L3881,88 L3882,88 L3883,89 L3884,88 L3885,88 L3886,88 L3887,88 L3888,88 L3889,88 L3890,89 L3891,89 L3892,88 L3893,88 L3894,88 L3895,89 L3896,88 L3897,88 L3898,88 L3899,88 L3900,88 L3901,88 L3902,88 L3903,88 L3904,88 L3905,88 L3906,88 L3907,88 L3908,88 L3909,89 L3910,89 L3911,88 L3912,88 L3913,88 L3914,88 L3915,89 L3916,88 L3917,88 L3918,88 L3919,88 L3920,88 L3921,89 L3922,88 L3923,88 L3924,88 L3925,88 L3926,87 L3927,88 L3928,88 L3929,88 L3930,88 L3931,88 L3932,88 L3933,88 L3934,88 L3935,88 L3936,88 L3937,89 L3938,88 L3939,88 L3940,88 L3941,89 L3942,88 L3943,88 L3944,88 L3945,89 L3946,88 L3947,88 L3948,88 L3949,88 L3950,88 L3951,86 L3952,88 L3953,88 L3954,89 L3955,88 L3956,88 L3957,88 L3958,88 L3959,88 L3960,89 L3961,89 L3962,89 L3963,88 L3964,88 L3965,89 L3966,88 L3967,88 L3968,88 L3969,88 L3970,88 L3971,88 L3972,88 L3973,88 L3974,88 L3975,88 L3976,88 L3977,88 L3978,88 L3979,88 L3980,89 L3981,88 L3982,88 L3983,88 L3984,88 L3985,89 L3986,88 L3987,88 L3988,89 L3989,88 L3990,88 L3991,88 L3992,88 L3993,88 L3994,88 L3995,88 L3996,88 L3997,88 L3998,88 L3999,88 L4000,88 L4001,88 L4002,88 L4003,89 L4004,88 L4005,88 L4006,88 L4007,88 L4008,88 L4009,86 L4010,88 L4011,88 L4012,88 L4013,88 L4014,88 L4015,89 L4016,89 L4017,88 L4018,88 L4019,89 L4020,88 L4021,88 L4022,88 L4023,88 L4024,88 L4025,88 L4026,88 L4027,88 L4028,88 L4029,88 L4030,88 L4031,88 L4032,88 L4033,88 L4034,87 L4035,89 L4036,88 L4037,88 L4038,88 L4039,89 L4040,88 L4041,88 L4042,88 L4043,88 L4044,88 L4045,88 L4046,88 L4047,89 L4048,88 L4049,87 L4050,88 L4051,89 L4052,88 L4053,88 L4054,88 L4055,88 L4056,88 L4057,88 L4058,89 L4059,88 L4060,88 L4061,88 L4062,88 L4063,88 L4064,89 L4065,88 L4066,88 L4067,88 L4068,88 L4069,88 L4070,88 L4071,88 L4072,88 L4073,88 L4074,88 L4075,88 L4076,88 L4077,88 L4078,89 L4079,88 L4080,87 L4081,88 L4082,88 L4083,88 L4084,88 L4085,88 L4086,88 L4087,88 L4088,88 L4089,88 L4090,89 L4091,88 L4092,88 L4093,88 L4094,88 L4095,88 "/>
<path stroke="cyan" fill="none" stroke-width="1" d="M0,221 L1,218 L2,220 L3,221 L4,218 L5,218 L6,221 L7,220 L8,220 L9,218 L10,220 L11,220 L12,220 L13,220 L14,220 L15,220 L16,218 L17,220 L18,221 L19,221 L20,220 L21,221 L22,221 L23,223 L24,221 L25,221 L26,221 L27,221 L28,220 L29,221 L30,223 L31,220 L32,220 L33,221 L34,221 L35,220 L36,218 L37,220 L38,220 L39,220 L40,220 L41,220 L42,218 L43,220 L44,220 L45,220 L46,220 L47,220 L48,218 L49,220 L50,221 L51,221 L52,221 L53,221 L54,221 L55,221 L56,221 L57,223 L58,221 L59,220 L60,221 L61,223 L62,221 L63,220 L64,220 L65,221 L66,220 L67,220 L68,220 L69,220 L70,220 L71,220 L72,220 L73,220 L74,220 L75,218 L76,220 L77,221 L78,220 L79,218 L80,220 L81,221 L82,221 L83,221 L84,221 L85,221 L86,221 L87,220 L88,221 L89,221 L90,220 L91,220 L92,221 L93,223 L94,221 L95,220 L96,220 L97,220 L98,220 L99,220 L100,221 L101,220 L102,218 L103,218 L104,220 L105,220 L106,218 L107,218 L108,220 L109,220 L110,220 L111,221 L112,221 L113,220 L114,221 L115,223 L116,223 L117,221 L118,220 L119,221 L120,221 L121,221 L122,221 L123,221 L124,222 L125,223 L126,221 L127,223 L128,221 L129,220 L130,220 L131,221 L132,220 L133,220 L134,220 L135,220 L136,221 L137,220 L138,220 L139,220 L140,220 L141,220 L142,221 L143,223 L144,223 L145,221 L146,220 L147,221 L148,223 L149,221 L150,220 L151,221 L152,220 L153,220 L154,221 L155,223 L156,221 L157,221 L158,223 L159,221 L160,220 L161,220 L162,220 L163,220 L164,220 L165,220 L166,220 L167,220 L168,220 L169,220 L170,220 L171,220 L172,218 L173,218 L174,220 L175,220 L176,223 L177,220 L178,221 L179,221 L180,221 L181,221 L182,220 L183,220 L184,220 L185,220 L186,221 L187,221 L188,220 L189,220 L190,220 L191,220 L192,220 L193,220 L194,220 L195,220 L196,220 L197,220 L198,220 L199,218 L200,218 L201,218 L202,220 L203,220 L204,218 L205,220 L206,220 L207,221 L208,220 L209,221 L210,221 L211,220 L212,220 L213,221 L214,221 L215,220 L216,220 L217,221 L218,223 L219,221 L220,221 L221,220 L222,220 L223,218 L224,220 L225,220 L226,218 L227,218 L228,220 L229,221 L230,220 L231,220 L232,220 L233,220 L234,220 L235,218 L236,220 L237,220 L238,220 L239,221 L240,223 L241,223 L242,221 L243,220 L244,220 L245,221 L246,221 L247,220 L248,220 L249,221 L250,220 L251,221 L252,220 L253,220 L254,220 L255,220 L256,220 L257,220 L258,220 L259,220 L260,220 L261,220 L262,220 L263,220 L264,220 L265,220 L266,220 L267,221 L268,221 L269,223 L270,220 L271,221 L272,223 L273,221 L274,220 L275,220 L276,220 L277,220 L278,220 L279,221 L280,221 L281,221 L282,221 L283,221 L284,221 L285,220 L286,218 L287,218 L288,218 L289,218 L290,218 L291,218 L292,218 L293,218 L294,220 L295,220 L296,218 L297,220 L298,220 L299,221 L300,221 L301,221 L302,221 L303,221 L304,223 L305,221 L306,221 L307,221 L308,221 L309,220 L310,223 L311,223 L312,221 L313,221 L314,220 L315,221 L316,220 L317,220 L318,220 L319,220 L320,220 L321,220 L322,221 L323,220 L324,218 L325,218 L326,220 L327,220 L328,220 L329,218 L330,220 L331,221 L332,220 L333,221 L334,223 L335,221 L336,220 L337,221 L338,223 L339,221 L340,220 L341,220 L342,223 L343,221 L344,221 L345,220 L346,220 L347,220 L348,220 L349,220 L350,220 L351,218 L352,218 L353,220 L354,220 L355,220 L356,218 L357,220 L358,220 L359,220 L360,220 L361,221 L362,221 L363,221 L364,221 L365,223 L366,221 L367,220 L368,220 L369,221 L370,221 L371,221 L372,220 L373,220 L374,221 L375,221 L376,220 L377,220 L378,220 L379,218 L380,218 L381,220 L382,218 L383,218 L384,218 L385,220 L386,220 L387,220 L388,220 L389,220 L390,220 L391,220 L392,221 L393,223 L394,221 L395,220 L396,221 L397,221 L398,221 L399,220 L400,221 L401,221 L402,221 L403,221 L404,221 L405,221 L406,221 L407,220 L408,220 L409,220 L410,218 L411,218 L412,220 L413,220 L414,220 L415,220 L416,220 L417,220 L418,220 L419,220 L420,220 L421,220 L422,220 L423,221 L424,223 L425,223 L426,220 L427,220 L428,221 L429,221 L430,220 L431,220 L432,220 L433,220 L434,220 L435,220 L436,221 L437,221 L438,218 L439,220 L440,220 L441,220 L442,218 L443,220 L444,220 L445,220 L446,218 L447,220 L448,220 L449,220 L450,218 L451,220 L452,221 L453,220 L454,220 L455,221 L456,223 L457,220 L458,221 L459,221 L460,221 L461,221 L462,221 L463,221 L464,221 L465,220 L466,221 L467,221 L468,223 L469,220 L470,218 L471,220 L472,220 L473,218 L474,220 L475,220 L476,218 L477,218 L478,220 L479,220 L480,220 L481,218 L482,218 L483,220 L484,220 L485,220 L486,220 L487,220 L488,220 L489,221 L490,221 L491,221 L492,220 L493,220 L494,220 L495,220 L496,220 L497,220 L498,220 L499,223 L500,221 L501,220 L502,220 L503,220 L504,219 L505,218 L506,218 L507,220 L508,218 L509,218 L510,220 L511,221 L512,220 L513,220 L514,220 L515,220 L516,220 L517,221 L518,221 L519,220 L520,220 L521,221 L522,223 L523,221 L524,220 L525,220 L526,220 L527,221 L528,220 L529,220 L530,223 L531,220 L532,220 L533,221 L534,220 L535,218 L536,219 L537,218 L538,220 L539,218 L540,218 L541,220 L542,220 L543,220 L544,220 L545,220 L546,220 L547,220 L548,220 L549,221 L550,220 L551,221 L552,220 L553,223 L554,223 L555,221 L556,220 L557,220 L558,220 L559,220 L560,220 L561,221 L562,221 L563,218 L564,220 L565,221 L566,221 L567,219 L568,218 L569,220 L570,218 L571,218 L572,220 L573,220 L574,220 L575,220 L576,220 L577,221 L578,220 L579,220 L580,223 L581,221 L582,221 L583,221 L584,221 L585,221 L586,221 L587,221 L588,221 L589,220 L590,220 L591,220 L592,221 L593,221 L594,220 L595,220 L596,220 L597,220 L598,218 L599,220 L600,218 L601,218 L602,218 L603,218 L604,220 L605,220 L606,218 L607,218 L608,221 L609,223 L610,220 L611,221 L612,221 L613,221 L614,221 L615,223 L616,223 L617,221 L618,220 L619,221 L620,223 L621,221 L622,220 L623,221 L624,221 L625,220 L626,220 L627,220 L628,220 L629,218 L630,220 L631,220 L632,220 L633,218 L634,218 L635,220 L636,220 L637,220 L638,220 L639,220 L640,220 L641,220 L642,220 L643,220 L644,220 L645,220 L646,221 L647,223 L648,221 L649,220 L650,220 L651,221 L652,221 L653,221 L654,221 L655,220 L656,220 L657,220 L658,220 L659,220 L660,220 L661,218 L662,220 L663,220 L664,220 L665,218 L666,220 L667,220 L668,220 L669,218 L670,220 L671,221 L672,220 L673,220 L674,221 L675,221 L676,220 L677,220 L678,223 L679,223 L680,221 L681,221 L682,221 L683,221 L684,220 L685,221 L686,221 L687,220 L688,218 L689,220 L690,220 L691,220 L692,219 L693,218 L694,218 L695,218 L696,218 L697,220 L698,220 L699,220 L700,218 L701,221 L702,221 L703,220 L704,221 L705,221 L706,223 L707,221 L708,221 L709,220 L710,221 L711,221 L712,221 L713,221 L714,221 L715,221 L716,220 L717,221 L718,221 L719,220 L720,218 L721,220 L722,220 L723,220 L724,218 L725,220 L726,220 L727,220 L728,218 L729,220 L730,220 L731,220 L732,220 L733,221 L734,221 L735,220 L736,220 L737,221 L738,223 L739,221 L740,221 L741,221 L742,221 L743,220 L744,220 L745,221 L746,220 L747,220 L748,220 L749,220 L750,221 L751,220 L752,218 L753,220 L754,220 L755,220 L756,220 L757,220 L758,220 L759,218 L760,220 L761,220 L762,218 L763,220 L764,221 L765,221 L766,221 L767,220 L768,221 L769,221 L770,221 L771,221 L772,221 L773,221 L774,220 L775,220 L776,223 L777,221 L778,220 L779,220 L780,220 L781,220 L782,218 L783,220 L784,220 L785,220 L786,218 L787,220 L788,220 L789,220 L790,218 L791,218 L792,220 L793,220 L794,220 L795,220 L796,220 L797,220 L798,220 L799,220 L800,220 L801,221 L802,220 L803,221 L804,223 L805,221 L806,220 L807,220 L808,221 L809,220 L810,221 L811,220 L812,220 L813,218 L814,220 L815,220 L816,220 L817,218 L818,218 L819,220 L820,220 L821,220 L822,220 L823,220 L824,220 L825,220 L826,221 L827,221 L828,220 L829,220 L830,221 L831,223 L832,223 L833,220 L834,220 L835,221 L836,221 L837,220 L838,221 L839,221 L840,221 L841,220 L842,220 L843,220 L844,220 L845,218 L846,220 L847,220 L848,218 L849,219 L850,218 L851,218 L852,218 L853,220 L854,220 L855,220 L856,220 L857,220 L858,221 L859,223 L860,220 L861,220 L862,221 L863,223 L864,220 L865,220 L866,220 L867,220 L868,220 L869,221 L870,221 L871,221 L872,220 L873,220 L874,218 L875,218 L876,219 L877,218 L878,218 L879,220 L880,220 L881,220 L882,220 L883,220 L884,218 L885,220 L886,221 L887,220 L888,220 L889,220 L890,223 L891,223 L892,220 L893,220 L894,221 L895,221 L896,221 L897,221 L898,221 L899,220 L900,220 L901,220 L902,221 L903,220 L904,219 L905,220 L906,220 L907,220 L908,220 L909,220 L910,218 L911,218 L912,218 L913,220 L914,218 L915,218 L916,220 L917,221 L918,221 L919,221 L920,221 L921,223 L922,221 L923,221 L924,223 L925,221 L926,221 L927,221 L928,221 L929,223 L930,221 L931,220 L932,221 L933,221 L934,223 L935,220 L936,220 L937,220 L938,218 L939,220 L940,220 L941,220 L942,218 L943,218 L944,220 L945,220 L946,220 L947,218 L948,220 L949,221 L950,221 L951,221 L952,220 L953,220 L954,220 L955,220 L956,221 L957,221 L958,220 L959,221 L960,223 L961,223 L962,220 L963,218 L964,220 L965,220 L966,220 L967,218 L968,220 L969,220 L970,218 L971,220 L972,221 L973,220 L974,218 L975,220 L976,220 L977,220 L978,218 L979,218 L980,220 L981,220 L982,220 L983,221 L984,221 L985,220 L986,220 L987,221 L988,221 L989,220 L990,220 L991,220 L992,221 L993,220 L994,221 L995,221 L996,221 L997,220 L998,218 L999,220 L1000,220 L1001,218 L1002,218 L1003,220 L1004,220 L1005,218 L1006,218 L1007,220 L1008,220 L1009,220 L1010,220 L1011,223 L1012,221 L1013,220 L1014,221 L1015,223 L1016,223 L1017,220 L1018,221 L1019,223 L1020,221 L1021,221 L1022,221 L1023,221 L1024,221 L1025,221 L1026,221 L1027,223 L1028,220 L1029,218 L1030,220 L1031,220 L1032,220 L1033,218 L1034,220 L1035,220 L1036,218 L1037,218 L1038,220 L1039,218 L1040,218 L1041,220 L1042,221 L1043,223 L1044,221 L1045,221 L1046,221 L1047,221 L1048,221 L1049,221 L1050,221 L1051,221 L1052,221 L1053,221 L1054,223 L1055,221 L1056,220 L1057,220 L1058,221 L1059,220 L1060,218 L1061,220 L1062,220 L1063,220 L1064,220 L1065,220 L1066,220 L1067,218 L1068,219 L1069,220 L1070,220 L1071,218 L1072,219 L1073,220 L1074,221 L1075,220 L1076,221 L1077,221 L1078,221 L1079,221 L1080,221 L1081,223 L1082,221 L1083,220 L1084,221 L1085,223 L1086,223 L1087,221 L1088,220 L1089,223 L1090,221 L1091,220 L1092,220 L1093,220 L1094,220 L1095,218 L1096,220 L1097,220 L1098,220 L1099,218 L1100,220 L1101,220 L1102,220 L1103,220 L1104,220 L1105,221 L1106,221 L1107,220 L1108,221 L1109,220 L1110,220 L1111,220 L1112,221 L1113,221 L1114,221 L1115,220 L1116,220 L1117,220 L1118,220 L1119,220 L1120,221 L1121,220 L1122,218 L1123,220 L1124,220 L1125,220 L1126,218 L1127,218 L1128,220 L1129,220 L1130,218 L1131,218 L1132,220 L1133,220 L1134,218 L1135,220 L1136,221 L1137,220 L1138,220 L1139,220 L1140,221 L1141,221 L1142,220 L1143,220 L1144,221 L1145,220 L1146,221 L1147,221 L1148,220 L1149,220 L1150,220 L1151,221 L1152,220 L1153,218 L1154,218 L1155,220 L1156,220 L1157,218 L1158,218 L1159,220 L1160,220 L1161,220 L1162,220 L1163,220 L1164,220 L1165,218 L1166,220 L1167,221 L1168,221 L1169,220 L1170,220 L1171,221 L1172,221 L1173,220 L1174,221 L1175,221 L1176,221 L1177,220 L1178,221 L1179,223 L1180,221 L1181,220 L1182,221 L1183,220 L1184,220 L1185,218 L1186,218 L1187,220 L1188,220 L1189,218 L1190,220 L1191,220 L1192,220 L1193,218 L1194,220 L1195,220 L1196,220 L1197,220 L1198,220 L1199,221 L1200,221 L1201,220 L1202,220 L1203,221 L1204,221 L1205,220 L1206,221 L1207,221 L1208,220 L1209,220 L1210,221 L1211,221 L1212,220 L1213,221 L1214,220 L1215,220 L1216,220 L1217,220 L1218,220 L1219,220 L1220,218 L1221,220 L1222,220 L1223,220 L1224,218 L1225,220 L1226,220 L1227,220 L1228,220 L1229,220 L1230,221 L1231,221 L1232,220 L1233,221 L1234,221 L1235,221 L1236,220 L1237,221 L1238,223 L1239,220 L1240,220 L1241,221 L1242,221 L1243,221 L1244,221 L1245,220 L1246,220 L1247,220 L1248,218 L1249,220 L1250,220 L1251,218 L1252,218 L1253,220 L1254,220 L1255,220 L1256,218 L1257,220 L1258,220 L1259,220 L1260,220 L1261,221 L1262,221 L1263,220 L1264,221 L1265,223 L1266,223 L1267,220 L1268,220 L1269,221 L1270,221 L1271,221 L1272,221 L1273,221 L1274,221 L1275,221 L1276,221 L1277,220 L1278,220 L1279,218 L1280,220 L1281,220 L1282,220 L1283,218 L1284,220 L1285,220 L1286,220 L1287,220 L1288,220 L1289,220 L1290,220 L1291,220 L1292,221 L1293,221 L1294,220 L1295,220 L1296,221 L1297,223 L1298,221 L1299,220 L1300,221 L1301,221 L1302,220 L1303,221 L1304,221 L1305,221 L1306,221 L1307,220 L1308,220 L1309,220 L1310,218 L1311,220 L1312,220 L1313,220 L1314,220 L1315,220 L1316,220 L1317,220 L1318,218 L1319,220 L1320,220 L1321,220 L1322,220 L1323,221 L1324,221 L1325,221 L1326,220 L1327,221 L1328,221 L1329,221 L1330,221 L1331,221 L1332,221 L1333,221 L1334,220 L1335,223 L1336,221 L1337,221 L1338,220 L1339,220 L1340,220 L1341,220 L1342,220 L1343,220 L1344,220 L1345,218 L1346,220 L1347,220 L1348,220 L1349,218 L1350,220 L1351,220 L1352,220 L1353,220 L1354,220 L1355,221 L1356,221 L1357,221 L1358,221 L1359,221 L1360,221 L1361,221 L1362,221 L1363,223 L1364,220 L1365,220 L1366,221 L1367,221 L1368,223 L1369,220 L1370,220 L1371,220 L1372,218 L1373,220 L1374,220 L1375,220 L1376,218 L1377,218 L1378,220 L1379,220 L1380,218 L1381,220 L1382,220 L1383,220 L1384,220 L1385,221 L1386,220 L1387,221 L1388,220 L1389,223 L1390,223 L1391,221 L1392,220 L1393,221 L1394,221 L1395,221 L1396,220 L1397,221 L1398,221 L1399,223 L1400,220 L1401,220 L1402,220 L1403,220 L1404,218 L1405,220 L1406,221 L1407,220 L1408,218 L1409,220 L1410,220 L1411,220 L1412,220 L1413,220 L1414,220 L1415,220 L1416,221 L1417,223 L1418,221 L1419,220 L1420,221 L1421,223 L1422,221 L1423,221 L1424,220 L1425,221 L1426,221 L1427,221 L1428,221 L1429,221 L1430,221 L1431,220 L1432,220 L1433,220 L1434,220 L1435,218 L1436,220 L1437,220 L1438,220 L1439,220 L1440,220 L1441,220 L1442,220 L1443,218 L1444,220 L1445,220 L1446,220 L1447,220 L1448,221 L1449,223 L1450,221 L1451,220 L1452,221 L1453,223 L1454,221 L1455,221 L1456,223 L1457,221 L1458,220 L1459,220 L1460,221 L1461,223 L1462,220 L1463,218 L1464,220 L1465,221 L1466,220 L1467,218 L1468,220 L1469,220 L1470,220 L1471,220 L1472,220 L1473,220 L1474,218 L1475,220 L1476,221 L1477,221 L1478,220 L1479,220 L1480,221 L1481,220 L1482,220 L1483,221 L1484,221 L1485,221 L1486,221 L1487,223 L1488,221 L1489,220 L1490,220 L1491,221 L1492,223 L1493,221 L1494,218 L1495,220 L1496,220 L1497,220 L1498,220 L1499,220 L1500,220 L1501,218 L1502,218 L1503,220 L1504,220 L1505,220 L1506,218 L1507,220 L1508,221 L1509,221 L1510,220 L1511,221 L1512,221 L1513,221 L1514,223 L1515,223 L1516,220 L1517,220 L1518,221 L1519,221 L1520,223 L1521,220 L1522,221 L1523,221 L1524,221 L1525,220 L1526,220 L1527,220 L1528,220 L1529,220 L1530,220 L1531,220 L1532,220 L1533,218 L1534,220 L1535,220 L1536,220 L1537,218 L1538,220 L1539,221 L1540,220 L1541,220 L1542,223 L1543,221 L1544,221 L1545,221 L1546,221 L1547,223 L1548,220 L1549,220 L1550,221 L1551,221 L1552,221 L1553,221 L1554,221 L1555,221 L1556,220 L1557,220 L1558,220 L1559,220 L1560,218 L1561,218 L1562,220 L1563,220 L1564,220 L1565,220 L1566,220 L1567,220 L1568,218 L1569,220 L1570,221 L1571,220 L1572,220 L1573,221 L1574,223 L1575,221 L1576,220 L1577,221 L1578,221 L1579,221 L1580,220 L1581,221 L1582,221 L1583,220 L1584,220 L1585,223 L1586,221 L1587,218 L1588,220 L1589,220 L1590,220 L1591,220 L1592,218 L1593,220 L1594,220 L1595,220 L1596,220 L1597,220 L1598,220 L1599,218 L1600,220 L1601,221 L1602,221 L1603,220 L1604,220 L1605,221 L1606,221 L1607,221 L1608,221 L1609,221 L1610,220 L1611,220 L1612,221 L1613,221 L1614,220 L1615,220 L1616,221 L1617,221 L1618,220 L1619,220 L1620,220 L1621,220 L1622,220 L1623,218 L1624,220 L1625,220 L1626,218 L1627,220 L1628,220 L1629,220 L1630,218 L1631,220 L1632,221 L1633,221 L1634,221 L1635,221 L1636,221 L1637,221 L1638,221 L1639,221 L1640,221 L1641,221 L1642,220 L1643,221 L1644,223 L1645,221 L1646,220 L1647,221 L1648,223 L1649,220 L1650,220 L1651,220 L1652,220 L1653,220 L1654,218 L1655,220 L1656,220 L1657,218 L1658,218 L1659,220 L1660,220 L1661,220 L1662,218 L1663,220 L1664,221 L1665,220 L1666,221 L1667,221 L1668,220 L1669,220 L1670,220 L1671,221 L1672,223 L1673,221 L1674,220 L1675,221 L1676,223 L1677,221 L1678,220 L1679,221 L1680,220 L1681,218 L1682,220 L1683,220 L1684,220 L1685,218 L1686,220 L1687,220 L1688,220 L1689,218 L1690,220 L1691,220 L1692,220 L1693,220 L1694,221 L1695,221 L1696,221 L1697,220 L1698,221 L1699,221 L1700,221 L1701,220 L1702,221 L1703,221 L1704,221 L1705,220 L1706,220 L1707,221 L1708,221 L1709,221 L1710,223 L1711,221 L1712,220 L1713,218 L1714,220 L1715,220 L1716,220 L1717,218 L1718,220 L1719,220 L1720,220 L1721,220 L1722,220 L1723,220 L1724,220 L1725,220 L1726,221 L1727,221 L1728,220 L1729,220 L1730,223 L1731,221 L1732,221 L1733,221 L1734,223 L1735,221 L1736,220 L1737,221 L1738,221 L1739,221 L1740,220 L1741,221 L1742,221 L1743,220 L1744,218 L1745,218 L1746,220 L1747,220 L1748,220 L1749,220 L1750,220 L1751,220 L1752,218 L1753,220 L1754,220 L1755,220 L1756,220 L1757,221 L1758,221 L1759,221 L1760,220 L1761,221 L1762,221 L1763,221 L1764,221 L1765,221 L1766,221 L1767,221 L1768,220 L1769,223 L1770,221 L1771,220 L1772,220 L1773,221 L1774,220 L1775,220 L1776,218 L1777,220 L1778,220 L1779,218 L1780,220 L1781,220 L1782,220 L1783,218 L1784,220 L1785,220 L1786,220 L1787,220 L1788,220 L1789,221 L1790,221 L1791,221 L1792,221 L1793,221 L1794,221 L1795,221 L1796,223 L1797,221 L1798,221 L1799,220 L1800,221 L1801,223 L1802,221 L1803,220 L1804,220 L1805,220 L1806,220 L1807,220 L1808,220 L1809,220 L1810,218 L1811,220 L1812,220 L1813,220 L1814,218 L1815,220 L1816,220 L1817,220 L1818,220 L1819,220 L1820,221 L1821,221 L1822,221 L1823,221 L1824,221 L1825,221 L1826,220 L1827,221 L1828,221 L1829,221 L1830,220 L1831,220 L1832,223 L1833,221 L1834,221 L1835,220 L1836,220 L1837,218 L1838,218 L1839,220 L1840,220 L1841,220 L1842,218 L1843,220 L1844,220 L1845,220 L1846,218 L1847,220 L1848,220 L1849,220 L1850,220 L1851,221 L1852,221 L1853,220 L1854,221 L1855,221 L1856,223 L1857,220 L1858,220 L1859,221 L1860,223 L1861,220 L1862,221 L1863,221 L1864,221 L1865,221 L1866,220 L1867,220 L1868,220 L1869,218 L1870,218 L1871,220 L1872,220 L1873,218 L1874,218 L1875,220 L1876,220 L1877,218 L1878,220 L1879,220 L1880,220 L1881,220 L1882,221 L1883,221 L1884,220 L1885,220 L1886,221 L1887,221 L1888,221 L1889,221 L1890,221 L1891,221 L1892,220 L1893,220 L1894,223 L1895,221 L1896,220 L1897,220 L1898,220 L1899,220 L1900,218 L1901,220 L1902,220 L1903,220 L1904,220 L1905,220 L1906,220 L1907,220 L1908,218 L1909,220 L1910,220 L1911,220 L1912,220 L1913,221 L1914,221 L1915,221 L1916,221 L1917,221 L1918,221 L1919,221 L1920,221 L1921,223 L1922,223 L1923,221 L1924,220 L1925,221 L1926,221 L1927,221 L1928,218 L1929,220 L1930,220 L1931,220 L1932,218 L1933,220 L1934,220 L1935,220 L1936,218 L1937,220 L1938,220 L1939,218 L1940,218 L1941,220 L1942,221 L1943,220 L1944,220 L1945,220 L1946,221 L1947,220 L1948,221 L1949,223 L1950,221 L1951,220 L1952,221 L1953,223 L1954,221 L1955,220 L1956,221 L1957,221 L1958,221 L1959,220 L1960,220 L1961,220 L1962,220 L1963,218 L1964,220 L1965,220 L1966,220 L1967,218 L1968,220 L1969,220 L1970,220 L1971,218 L1972,220 L1973,221 L1974,220 L1975,221 L1976,221 L1977,221 L1978,220 L1979,221 L1980,223 L1981,223 L1982,221 L1983,220 L1984,221 L1985,221 L1986,221 L1987,220 L1988,221 L1989,221 L1990,220 L1991,221 L1992,221 L1993,220 L1994,218 L1995,220 L1996,220 L1997,220 L1998,218 L1999,220 L2000,220 L2001,220 L2002,220 L2003,220 L2004,221 L2005,220 L2006,220 L2007,221 L2008,223 L2009,220 L2010,220 L2011,221 L2012,221 L2013,221 L2014,220 L2015,221 L2016,221 L2017,221 L2018,220 L2019,223 L2020,221 L2021,220 L2022,218 L2023,220 L2024,220 L2025,218 L2026,218 L2027,220 L2028,220 L2029,220 L2030,220 L2031,220 L2032,220 L2033,220 L2034,220 L2035,221 L2036,221 L2037,220 L2038,220 L2039,221 L2040,221 L2041,220 L2042,220 L2043,221 L2044,221 L2045,220 L2046,221 L2047,223 L2048,221 L2049,220 L2050,221 L2051,223 L2052,220 L2053,218 L2054,220 L2055,220 L2056,220 L2057,218 L2058,220 L2059,220 L2060,220 L2061,220 L2062,220 L2063,220 L2064,220 L2065,218 L2066,221 L2067,221 L2068,220 L2069,220 L2070,221 L2071,221 L2072,221 L2073,221 L2074,221 L2075,221 L2076,220 L2077,221 L2078,221 L2079,221 L2080,220 L2081,220 L2082,223 L2083,221 L2084,220 L2085,220 L2086,220 L2087,220 L2088,220 L2089,220 L2090,220 L2091,220 L2092,218 L2093,220 L2094,220 L2095,220 L2096,218 L2097,220 L2098,221 L2099,221 L2100,220 L2101,221 L2102,221 L2103,221 L2104,221 L2105,223 L2106,223 L2107,220 L2108,220 L2109,221 L2110,223 L2111,221 L2112,220 L2113,221 L2114,220 L2115,220 L2116,220 L2117,220 L2118,220 L2119,218 L2120,220 L2121,220 L2122,220 L2123,218 L2124,218 L2125,220 L2126,220 L2127,220 L2128,220 L2129,220 L2130,221 L2131,220 L2132,221 L2133,223 L2134,221 L2135,220 L2136,223 L2137,223 L2138,221 L2139,220 L2140,221 L2141,221 L2142,221 L2143,221 L2144,223 L2145,221 L2146,220 L2147,220 L2148,220 L2149,220 L2150,220 L2151,218 L2152,220 L2153,220 L2154,220 L2155,218 L2156,220 L2157,220 L2158,218 L2159,220 L2160,221 L2161,220 L2162,220 L2163,220 L2164,221 L2165,221 L2166,220 L2167,220 L2168,221 L2169,221 L2170,220 L2171,220 L2172,221 L2173,220 L2174,220 L2175,223 L2176,221 L2177,220 L2178,218 L2179,220 L2180,220 L2181,220 L2182,220 L2183,220 L2184,220 L2185,220 L2186,218 L2187,220 L2188,220 L2189,218 L2190,220 L2191,223 L2192,223 L2193,220 L2194,220 L2195,221 L2196,221 L2197,221 L2198,221 L2199,221 L2200,221 L2201,220 L2202,220 L2203,223 L2204,221 L2205,220 L2206,221 L2207,221 L2208,220 L2209,220 L2210,218 L2211,220 L2212,220 L2213,218 L2214,220 L2215,220 L2216,220 L2217,220 L2218,220 L2219,220 L2220,220 L2221,218 L2222,220 L2223,221 L2224,221 L2225,220 L2226,221 L2227,221 L2228,221 L2229,220 L2230,221 L2231,221 L2232,221 L2233,220 L2234,221 L2235,223 L2236,221 L2237,220 L2238,221 L2239,220 L2240,220 L2241,220 L2242,220 L2243,220 L2244,220 L2245,220 L2246,220 L2247,220 L2248,218 L2249,218 L2250,220 L2251,220 L2252,220 L2253,220 L2254,221 L2255,221 L2256,220 L2257,221 L2258,221 L2259,221 L2260,221 L2261,221 L2262,223 L2263,221 L2264,220 L2265,220 L2266,221 L2267,221 L2268,221 L2269,220 L2270,220 L2271,220 L2272,218 L2273,220 L2274,220 L2275,220 L2276,218 L2277,220 L2278,221 L2279,220 L2280,218 L2281,220 L2282,220 L2283,220 L2284,220 L2285,221 L2286,221 L2287,220 L2288,220 L2289,223 L2290,223 L2291,221 L2292,220 L2293,221 L2294,221 L2295,220 L2296,220 L2297,221 L2298,221 L2299,221 L2300,221 L2301,220 L2302,218 L2303,218 L2304,220 L2305,220 L2306,220 L2307,218 L2308,220 L2309,220 L2310,220 L2311,220 L2312,220 L2313,220 L2314,220 L2315,220 L2316,220 L2317,221 L2318,220 L2319,220 L2320,221 L2321,223 L2322,223 L2323,220 L2324,220 L2325,221 L2326,221 L2327,220 L2328,221 L2329,221 L2330,220 L2331,220 L2332,220 L2333,220 L2334,218 L2335,218 L2336,220 L2337,220 L2338,220 L2339,220 L2340,220 L2341,220 L2342,220 L2343,220 L2344,220 L2345,220 L2346,220 L2347,220 L2348,223 L2349,221 L2350,220 L2351,221 L2352,221 L2353,221 L2354,221 L2355,221 L2356,221 L2357,220 L2358,220 L2359,221 L2360,221 L2361,221 L2362,220 L2363,220 L2364,220 L2365,220 L2366,218 L2367,220 L2368,220 L2369,220 L2370,220 L2371,221 L2372,220 L2373,218 L2374,218 L2375,220 L2376,220 L2377,221 L2378,220 L2379,221 L2380,221 L2381,221 L2382,221 L2383,223 L2384,221 L2385,220 L2386,220 L2387,223 L2388,221 L2389,220 L2390,220 L2391,223 L2392,223 L2393,220 L2394,220 L2395,220 L2396,220 L2397,218 L2398,220 L2399,220 L2400,220 L2401,218 L2402,220 L2403,221 L2404,220 L2405,218 L2406,218 L2407,220 L2408,221 L2409,221 L2410,221 L2411,221 L2412,221 L2413,221 L2414,223 L2415,223 L2416,220 L2417,220 L2418,221 L2419,223 L2420,221 L2421,220 L2422,221 L2423,221 L2424,220 L2425,220 L2426,221 L2427,221 L2428,220 L2429,220 L2430,223 L2431,221 L2432,220 L2433,220 L2434,221 L2435,221 L2436,221 L2437,220 L2438,221 L2439,221 L2440,220 L2441,220 L2442,220 L2443,220 L2444,218 L2445,220 L2446,220 L2447,220 L2448,218 L2449,220 L2450,220 L2451,220 L2452,220 L2453,220 L2454,220 L2455,220 L2456,220 L2457,223 L2458,223 L2459,220 L2460,220 L2461,221 L2462,221 L2463,221 L2464,220 L2465,221 L2466,221 L2467,221 L2468,220 L2469,223 L2470,223 L2471,220 L2472,220 L2473,220 L2474,220 L2475,218 L2476,218 L2477,220 L2478,220 L2479,220 L2480,218 L2481,220 L2482,220 L2483,218 L2484,220 L2485,220 L2486,220 L2487,220 L2488,221 L2489,223 L2490,221 L2491,220 L2492,220 L2493,221 L2494,221 L2495,220 L2496,221 L2497,221 L2498,221 L2499,220 L2500,221 L2501,223 L2502,220 L2503,218 L2504,220 L2505,220 L2506,220 L2507,220 L2508,220 L2509,220 L2510,220 L2511,220 L2512,220 L2513,220 L2514,218 L2515,220 L2516,221 L2517,221 L2518,221 L2519,220 L2520,221 L2521,221 L2522,220 L2523,220 L2524,221 L2525,221 L2526,221 L2527,221 L2528,223 L2529,221 L2530,220 L2531,220 L2532,223 L2533,221 L2534,220 L2535,218 L2536,220 L2537,220 L2538,218 L2539,220 L2540,220 L2541,220 L2542,218 L2543,220 L2544,221 L2545,220 L2546,218 L2547,220 L2548,221 L2549,221 L2550,221 L2551,221 L2552,221 L2553,221 L2554,220 L2555,221 L2556,221 L2557,220 L2558,220 L2559,221 L2560,223 L2561,221 L2562,220 L2563,221 L2564,220 L2565,220 L2566,220 L2567,220 L2568,220 L2569,218 L2570,220 L2571,220 L2572,220 L2573,218 L2574,220 L2575,220 L2576,220 L2577,220 L2578,220 L2579,221 L2580,221 L2581,220 L2582,223 L2583,221 L2584,221 L2585,220 L2586,221 L2587,223 L2588,221 L2589,220 L2590,220 L2591,221 L2592,221 L2593,221 L2594,221 L2595,221 L2596,218 L2597,218 L2598,220 L2599,220 L2600,220 L2601,218 L2602,220 L2603,220 L2604,220 L2605,218 L2606,220 L2607,220 L2608,220 L2609,220 L2610,221 L2611,221 L2612,220 L2613,221 L2614,221 L2615,221 L2616,220 L2617,220 L2618,221 L2619,221 L2620,221 L2621,221 L2622,221 L2623,221 L2624,221 L2625,223 L2626,221 L2627,220 L2628,218 L2629,220 L2630,220 L2631,220 L2632,218 L2633,220 L2634,220 L2635,220 L2636,218 L2637,220 L2638,220 L2639,220 L2640,218 L2641,223 L2642,223 L2643,221 L2644,220 L2645,221 L2646,221 L2647,221 L2648,221 L2649,221 L2650,221 L2651,220 L2652,220 L2653,221 L2654,221 L2655,220 L2656,221 L2657,221 L2658,220 L2659,218 L2660,220 L2661,220 L2662,220 L2663,218 L2664,220 L2665,220 L2666,220 L2667,218 L2668,220 L2669,220 L2670,220 L2671,218 L2672,220 L2673,221 L2674,221 L2675,221 L2676,220 L2677,221 L2678,221 L2679,221 L2680,221 L2681,221 L2682,220 L2683,220 L2684,221 L2685,223 L2686,221 L2687,220 L2688,220 L2689,220 L2690,220 L2691,220 L2692,218 L2693,220 L2694,218 L2695,220 L2696,221 L2697,220 L2698,218 L2699,220 L2700,220 L2701,220 L2702,220 L2703,220 L2704,220 L2705,221 L2706,221 L2707,221 L2708,223 L2709,221 L2710,220 L2711,221 L2712,223 L2713,221 L2714,220 L2715,221 L2716,221 L2717,221 L2718,221 L2719,220 L2720,218 L2721,220 L2722,220 L2723,220 L2724,220 L2725,220 L2726,218 L2727,220 L2728,220 L2729,220 L2730,218 L2731,220 L2732,220 L2733,220 L2734,220 L2735,221 L2736,221 L2737,221 L2738,220 L2739,223 L2740,223 L2741,220 L2742,221 L2743,221 L2744,221 L2745,221 L2746,221 L2747,221 L2748,221 L2749,221 L2750,221 L2751,220 L2752,220 L2753,218 L2754,218 L2755,220 L2756,220 L2757,218 L2758,220 L2759,220 L2760,220 L2761,220 L2762,220 L2763,220 L2764,220 L2765,220 L2766,221 L2767,221 L2768,221 L2769,220 L2770,221 L2771,223 L2772,221 L2773,220 L2774,221 L2775,221 L2776,221 L2777,220 L2778,221 L2779,221 L2780,220 L2781,220 L2782,220 L2783,221 L2784,218 L2785,218 L2786,220 L2787,220 L2788,220 L2789,220 L2790,220 L2791,220 L2792,218 L2793,220 L2794,220 L2795,220 L2796,220 L2797,220 L2798,221 L2799,223 L2800,220 L2801,220 L2802,221 L2803,221 L2804,221 L2805,223 L2806,221 L2807,220 L2808,220 L2809,221 L2810,223 L2811,221 L2812,220 L2813,220 L2814,220 L2815,220 L2816,220 L2817,220 L2818,220 L2819,220 L2820,218 L2821,220 L2822,220 L2823,218 L2824,220 L2825,220 L2826,220 L2827,220 L2828,220 L2829,221 L2830,221 L2831,220 L2832,221 L2833,221 L2834,221 L2835,220 L2836,221 L2837,223 L2838,221 L2839,220 L2840,220 L2841,221 L2842,221 L2843,220 L2844,220 L2845,220 L2846,220 L2847,218 L2848,220 L2849,220 L2850,220 L2851,218 L2852,220 L2853,221 L2854,220 L2855,218 L2856,220 L2857,220 L2858,221 L2859,220 L2860,221 L2861,221 L2862,221 L2863,220 L2864,221 L2865,223 L2866,220 L2867,220 L2868,221 L2869,223 L2870,221 L2871,220 L2872,221 L2873,221 L2874,220 L2875,220 L2876,220 L2877,220 L2878,218 L2879,218 L2880,220 L2881,220 L2882,218 L2883,218 L2884,220 L2885,220 L2886,220 L2887,218 L2888,220 L2889,220 L2890,220 L2891,221 L2892,223 L2893,221 L2894,220 L2895,221 L2896,223 L2897,223 L2898,220 L2899,221 L2900,221 L2901,221 L2902,221 L2903,221 L2904,221 L2905,220 L2906,218 L2907,221 L2908,220 L2909,220 L2910,218 L2911,220 L2912,220 L2913,220 L2914,218 L2915,220 L2916,220 L2917,220 L2918,220 L2919,220 L2920,221 L2921,220 L2922,220 L2923,223 L2924,221 L2925,220 L2926,220 L2927,221 L2928,221 L2929,220 L2930,221 L2931,221 L2932,221 L2933,220 L2934,221 L2935,223 L2936,221 L2937,218 L2938,220 L2939,221 L2940,220 L2941,218 L2942,220 L2943,220 L2944,220 L2945,220 L2946,220 L2947,220 L2948,220 L2949,218 L2950,220 L2951,221 L2952,220 L2953,220 L2954,221 L2955,221 L2956,220 L2957,221 L2958,221 L2959,221 L2960,221 L2961,221 L2962,223 L2963,221 L2964,220 L2965,221 L2966,223 L2967,223 L2968,220 L2969,220 L2970,220 L2971,220 L2972,220 L2973,220 L2974,220 L2975,218 L2976,218 L2977,220 L2978,220 L2979,220 L2980,218 L2981,220 L2982,221 L2983,221 L2984,221 L2985,221 L2986,221 L2987,221 L2988,220 L2989,221 L2990,221 L2991,220 L2992,220 L2993,221 L2994,223 L2995,221 L2996,220 L2997,221 L2998,221 L2999,220 L3000,220 L3001,220 L3002,220 L3003,218 L3004,220 L3005,220 L3006,220 L3007,218 L3008,220 L3009,220 L3010,220 L3011,220 L3012,218 L3013,220 L3014,221 L3015,220 L3016,223 L3017,221 L3018,221 L3019,220 L3020,221 L3021,223 L3022,221 L3023,220 L3024,220 L3025,221 L3026,221 L3027,220 L3028,220 L3029,221 L3030,220 L3031,220 L3032,220 L3033,220 L3034,218 L3035,218 L3036,220 L3037,220 L3038,220 L3039,218 L3040,220 L3041,220 L3042,220 L3043,220 L3044,221 L3045,221 L3046,220 L3047,223 L3048,223 L3049,221 L3050,220 L3051,220 L3052,221 L3053,221 L3054,221 L3055,220 L3056,221 L3057,221 L3058,220 L3059,221 L3060,223 L3061,220 L3062,218 L3063,220 L3064,220 L3065,220 L3066,218 L3067,220 L3068,220 L3069,220 L3070,220 L3071,220 L3072,220 L3073,220 L3074,218 L3075,220 L3076,221 L3077,220 L3078,220 L3079,221 L3080,221 L3081,221 L3082,221 L3083,221 L3084,221 L3085,221 L3086,221 L3087,221 L3088,221 L3089,220 L3090,221 L3091,223 L3092,220 L3093,220 L3094,220 L3095,220 L3096,220 L3097,220 L3098,218 L3099,220 L3100,220 L3101,218 L3102,220 L3103,221 L3104,220 L3105,218 L3106,220 L3107,223 L3108,221 L3109,220 L3110,220 L3111,221 L3112,221 L3113,220 L3114,221 L3115,221 L3116,221 L3117,220 L3118,221 L3119,223 L3120,221 L3121,220 L3122,221 L3123,220 L3124,220 L3125,220 L3126,220 L3127,220 L3128,220 L3129,218 L3130,220 L3131,220 L3132,218 L3133,218 L3134,220 L3135,220 L3136,220 L3137,220 L3138,221 L3139,221 L3140,221 L3141,221 L3142,221 L3143,220 L3144,221 L3145,221 L3146,223 L3147,221 L3148,220 L3149,220 L3150,221 L3151,221 L3152,221 L3153,221 L3154,220 L3155,220 L3156,220 L3157,220 L3158,220 L3159,218 L3160,218 L3161,220 L3162,220 L3163,220 L3164,218 L3165,220 L3166,220 L3167,220 L3168,220 L3169,221 L3170,220 L3171,221 L3172,221 L3173,221 L3174,221 L3175,220 L3176,221 L3177,221 L3178,223 L3179,221 L3180,221 L3181,221 L3182,221 L3183,220 L3184,221 L3185,220 L3186,220 L3187,218 L3188,220 L3189,220 L3190,220 L3191,218 L3192,218 L3193,220 L3194,220 L3195,220 L3196,220 L3197,220 L3198,220 L3199,220 L3200,221 L3201,221 L3202,221 L3203,220 L3204,221 L3205,223 L3206,221 L3207,220 L3208,221 L3209,221 L3210,221 L3211,221 L3212,221 L3213,221 L3214,220 L3215,221 L3216,220 L3217,220 L3218,218 L3219,218 L3220,220 L3221,220 L3222,220 L3223,220 L3224,220 L3225,220 L3226,220 L3227,220 L3228,220 L3229,220 L3230,218 L3231,221 L3232,221 L3233,223 L3234,220 L3235,220 L3236,221 L3237,221 L3238,221 L3239,221 L3240,221 L3241,221 L3242,220 L3243,223 L3244,223 L3245,221 L3246,221 L3247,220 L3248,220 L3249,220 L3250,220 L3251,220 L3252,220 L3253,220 L3254,220 L3255,220 L3256,220 L3257,218 L3258,218 L3259,220 L3260,220 L3261,220 L3262,220 L3263,221 L3264,223 L3265,220 L3266,221 L3267,221 L3268,221 L3269,221 L3270,221 L3271,223 L3272,221 L3273,220 L3274,220 L3275,221 L3276,221 L3277,221 L3278,220 L3279,220 L3280,220 L3281,220 L3282,220 L3283,220 L3284,220 L3285,218 L3286,220 L3287,220 L3288,220 L3289,218 L3290,220 L3291,220 L3292,220 L3293,220 L3294,220 L3295,221 L3296,220 L3297,221 L3298,223 L3299,221 L3300,220 L3301,220 L3302,223 L3303,223 L3304,220 L3305,220 L3306,221 L3307,221 L3308,221 L3309,220 L3310,220 L3311,220 L3312,218 L3313,220 L3314,221 L3315,220 L3316,218 L3317,218 L3318,220 L3319,220 L3320,220 L3321,220 L3322,220 L3323,220 L3324,221 L3325,221 L3326,221 L3327,220 L3328,220 L3329,221 L3330,221 L3331,221 L3332,220 L3333,221 L3334,221 L3335,221 L3336,221 L3337,221 L3338,221 L3339,221 L3340,220 L3341,220 L3342,220 L3343,218 L3344,218 L3345,220 L3346,220 L3347,218 L3348,218 L3349,220 L3350,220 L3351,220 L3352,220 L3353,220 L3354,220 L3355,220 L3356,221 L3357,223 L3358,221 L3359,220 L3360,220 L3361,221 L3362,221 L3363,221 L3364,221 L3365,223 L3366,221 L3367,221 L3368,221 L3369,221 L3370,221 L3371,220 L3372,220 L3373,220 L3374,220 L3375,218 L3376,220 L3377,220 L3378,220 L3379,220 L3380,220 L3381,220 L3382,218 L3383,218 L3384,220 L3385,220 L3386,220 L3387,220 L3388,221 L3389,221 L3390,221 L3391,220 L3392,221 L3393,221 L3394,220 L3395,221 L3396,223 L3397,221 L3398,220 L3399,221 L3400,221 L3401,221 L3402,220 L3403,220 L3404,220 L3405,220 L3406,220 L3407,220 L3408,220 L3409,218 L3410,218 L3411,220 L3412,220 L3413,220 L3414,218 L3415,220 L3416,220 L3417,220 L3418,220 L3419,221 L3420,221 L3421,220 L3422,220 L3423,223 L3424,221 L3425,220 L3426,220 L3427,221 L3428,221 L3429,220 L3430,220 L3431,221 L3432,221 L3433,220 L3434,220 L3435,220 L3436,220 L3437,218 L3438,220 L3439,220 L3440,220 L3441,218 L3442,220 L3443,220 L3444,220 L3445,220 L3446,220 L3447,220 L3448,220 L3449,221 L3450,221 L3451,221 L3452,220 L3453,220 L3454,221 L3455,221 L3456,221 L3457,220 L3458,221 L3459,221 L3460,221 L3461,221 L3462,221 L3463,221 L3464,220 L3465,220 L3466,221 L3467,220 L3468,218 L3469,220 L3470,220 L3471,220 L3472,218 L3473,220 L3474,220 L3475,220 L3476,218 L3477,220 L3478,220 L3479,220 L3480,220 L3481,221 L3482,223 L3483,221 L3484,220 L3485,221 L3486,221 L3487,221 L3488,220 L3489,221 L3490,221 L3491,220 L3492,220 L3493,223 L3494,223 L3495,220 L3496,218 L3497,220 L3498,220 L3499,220 L3500,218 L3501,220 L3502,220 L3503,218 L3504,220 L3505,220 L3506,220 L3507,218 L3508,220 L3509,221 L3510,221 L3511,220 L3512,220 L3513,221 L3514,221 L3515,220 L3516,221 L3517,221 L3518,221 L3519,220 L3520,221 L3521,221 L3522,221 L3523,220 L3524,221 L3525,223 L3526,221 L3527,218 L3528,220 L3529,220 L3530,220 L3531,218 L3532,220 L3533,220 L3534,218 L3535,218 L3536,220 L3537,220 L3538,218 L3539,218 L3540,220 L3541,221 L3542,220 L3543,220 L3544,221 L3545,221 L3546,221 L3547,221 L3548,221 L3549,221 L3550,220 L3551,221 L3552,223 L3553,221 L3554,220 L3555,220 L3556,221 L3557,221 L3558,220 L3559,220 L3560,220 L3561,218 L3562,218 L3563,220 L3564,220 L3565,220 L3566,218 L3567,220 L3568,220 L3569,220 L3570,218 L3571,220 L3572,220 L3573,220 L3574,221 L3575,223 L3576,221 L3577,220 L3578,220 L3579,223 L3580,221 L3581,220 L3582,220 L3583,221 L3584,221 L3585,221 L3586,221 L3587,223 L3588,221 L3589,220 L3590,220 L3591,220 L3592,220 L3593,218 L3594,220 L3595,220 L3596,220 L3597,218 L3598,218 L3599,220 L3600,220 L3601,220 L3602,220 L3603,220 L3604,220 L3605,220 L3606,223 L3607,221 L3608,220 L3609,220 L3610,221 L3611,221 L3612,221 L3613,221 L3614,221 L3615,221 L3616,220 L3617,221 L3618,223 L3619,221 L3620,218 L3621,220 L3622,220 L3623,220 L3624,218 L3625,218 L3626,220 L3627,220 L3628,220 L3629,220 L3630,220 L3631,220 L3632,218 L3633,220 L3634,223 L3635,221 L3636,220 L3637,221 L3638,221 L3639,221 L3640,221 L3641,221 L3642,221 L3643,221 L3644,221 L3645,223 L3646,221 L3647,220 L3648,220 L3649,221 L3650,223 L3651,220 L3652,220 L3653,220 L3654,220 L3655,218 L3656,220 L3657,220 L3658,220 L3659,218 L3660,220 L3661,220 L3662,220 L3663,218 L3664,220 L3665,221 L3666,221 L3667,220 L3668,220 L3669,221 L3670,221 L3671,221 L3672,221 L3673,221 L3674,221 L3675,220 L3676,221 L3677,221 L3678,221 L3679,220 L3680,221 L3681,221 L3682,220 L3683,220 L3684,220 L3685,220 L3686,220 L3687,218 L3688,220 L3689,220 L3690,218 L3691,218 L3692,220 L3693,220 L3694,220 L3695,218 L3696,220 L3697,221 L3698,221 L3699,221 L3700,221 L3701,220 L3702,220 L3703,221 L3704,221 L3705,221 L3706,220 L3707,220 L3708,221 L3709,221 L3710,221 L3711,221 L3712,221 L3713,220 L3714,218 L3715,220 L3716,220 L3717,220 L3718,218 L3719,220 L3720,220 L3721,220 L3722,218 L3723,220 L3724,220 L3725,220 L3726,220 L3727,221 L3728,221 L3729,220 L3730,221 L3731,223 L3732,223 L3733,221 L3734,220 L3735,221 L3736,221 L3737,221 L3738,220 L3739,221 L3740,221 L3741,220 L3742,221 L3743,221 L3744,220 L3745,218 L3746,220 L3747,220 L3748,220 L3749,218 L3750,220 L3751,220 L3752,220 L3753,218 L3754,220 L3755,220 L3756,218 L3757,218 L3758,221 L3759,223 L3760,221 L3761,220 L3762,221 L3763,223 L3764,223 L3765,221 L3766,221 L3767,223 L3768,221 L3769,220 L3770,221 L3771,221 L3772,220 L3773,220 L3774,221 L3775,220 L3776,218 L3777,218 L3778,220 L3779,220 L3780,218 L3781,220 L3782,220 L3783,220 L3784,218 L3785,220 L3786,220 L3787,220 L3788,218 L3789,220 L3790,221 L3791,221 L3792,221 L3793,221 L3794,221 L3795,221 L3796,220 L3797,221 L3798,221 L3799,221 L3800,220 L3801,221 L3802,223 L3803,221 L3804,220 L3805,221 L3806,220 L3807,220 L3808,220 L3809,220 L3810,220 L3811,220 L3812,220 L3813,220 L3814,220 L3815,218 L3816,218 L3817,220 L3818,220 L3819,220 L3820,220 L3821,221 L3822,221 L3823,221 L3824,221 L3825,221 L3826,220 L3827,220 L3828,221 L3829,223 L3830,221 L3831,220 L3832,220 L3833,221 L3834,221 L3835,220 L3836,221 L3837,220 L3838,220 L3839,220 L3840,220 L3841,220 L3842,218 L3843,218 L3844,220 L3845,220 L3846,218 L3847,218 L3848,220 L3849,220 L3850,220 L3851,220 L3852,220 L3853,221 L3854,221 L3855,221 L3856,221 L3857,223 L3858,220 L3859,220 L3860,221 L3861,221 L3862,220 L3863,220 L3864,221 L3865,221 L3866,221 L3867,221 L3868,220 L3869,220 L3870,220 L3871,220 L3872,220 L3873,220 L3874,218 L3875,218 L3876,220 L3877,221 L3878,220 L3879,220 L3880,220 L3881,220 L3882,220 L3883,221 L3884,221 L3885,221 L3886,220 L3887,221 L3888,223 L3889,221 L3890,220 L3891,220 L3892,221 L3893,221 L3894,221 L3895,223 L3896,221 L3897,220 L3898,221 L3899,220 L3900,220 L3901,220 L3902,218 L3903,220 L3904,220 L3905,220 L3906,220 L3907,220 L3908,220 L3909,220 L3910,220 L3911,220 L3912,220 L3913,218 L3914,220 L3915,221 L3916,221 L3917,220 L3918,220 L3919,221 L3920,221 L3921,221 L3922,221 L3923,221 L3924,220 L3925,220 L3926,221 L3927,221 L3928,221 L3929,220 L3930,220 L3931,220 L3932,220 L3933,218 L3934,220 L3935,220 L3936,218 L3937,220 L3938,221 L3939,220 L3940,218 L3941,218 L3942,220 L3943,221 L3944,220 L3945,220 L3946,221 L3947,223 L3948,221 L3949,221 L3950,223 L3951,221 L3952,220 L3953,221 L3954,223 L3955,221 L3956,220 L3957,220 L3958,221 L3959,223 L3960,221 L3961,220 L3962,220 L3963,220 L3964,218 L3965,220 L3966,220 L3967,220 L3968,218 L3969,220 L3970,220 L3971,220 L3972,218 L3973,220 L3974,220 L3975,220 L3976,221 L3977,221 L3978,221 L3979,220 L3980,220 L3981,221 L3982,221 L3983,221 L3984,220 L3985,223 L3986,221 L3987,220 L3988,221 L3989,221 L3990,221 L3991,221 L3992,220 L3993,220 L3994,220 L3995,218 L3996,220 L3997,220 L3998,220 L3999,218 L4000,220 L4001,220 L4002,220 L4003,220 L4004,218 L4005,220 L4006,220 L4007,220 L4008,221 L4009,221 L4010,220 L4011,220 L4012,221 L4013,221 L4014,221 L4015,220 L4016,220 L4017,221 L4018,221 L4019,221 L4020,221 L4021,221 L4022,221 L4023,220 L4024,220 L4025,220 L4026,218 L4027,218 L4028,220 L4029,220 L4030,220 L4031,218 L4032,220 L4033,220 L4034,220 L4035,220 L4036,220 L4037,220 L4038,220 L4039,220 L4040,223 L4041,221 L4042,220 L4043,220 L4044,221 L4045,221 L4046,221 L4047,221 L4048,221 L4049,221 L4050,221 L4051,221 L4052,223 L4053,221 L4054,218 L4055,218 L4056,221 L4057,220 L4058,218 L4059,220 L4060,220 L4061,220 L4062,220 L4063,220 L4064,220 L4065,220 L4066,220 L4067,220 L4068,221 L4069,220 L4070,220 L4071,223 L4072,221 L4073,220 L4074,221 L4075,221 L4076,221 L4077,221 L4078,221 L4079,221 L4080,221 L4081,221 L4082,221 L4083,221 L4084,223 L4085,220 L4086,218 L4087,220 L4088,220 L4089,218 L4090,220 L4091,220 L4092,220 L4093,218 L4094,220 L4095,220 "/>
<text font-family="Arial" x="638" y="230" fill="yellow" font-size="20" text-anchor="end" id="CH1s">CH1: 1V/div (1 x) 50us/div</text>
<text font-family="Arial" x="2" y="230" fill="yellow" font-size="20" text-anchor="start" id="CH1"> </text>
<text font-family="Arial" x="638" y="250" fill="cyan" font-size="20" text-anchor="end" id="CH2s">CH2: 50mV/div (10 x) 50us/div</text>
<text font-family="Arial" x="2" y="250" fill="cyan" font-size="20" text-anchor="start" id="CH2"> </text>
<script type="text/ecmascript"><![CDATA[
function init(evt) { if ( window.svgDocument == null ) svgDocument = evt.target.ownerDocument; }
function fmtT(val, div) {
 if (div > 100) return Math.floor(val*div/32) + " ms";
if (div > 0.025) return Math.floor(val*div*1000/32)/1000 + " ms";
 return Math.floor(val*div*1000*1000/32)/1000 + " us";
}
function fmtU(val, div, shift) { return Math.floor((shift-val)*div/32) + " mV"; }
function msMove (evt)
{
	var x = evt.clientX;
	var y = evt.clientY;
	if (x < 0 || y < 0 || x >= 4096 || y >= 256)
		return;
	var hscroll = (document.all ? document.scrollLeft : window.pageXOffset);
	var width = window.innerWidth;

	svgDocument.getElementById("CH1").setAttribute("x", hscroll+20);
	svgDocument.getElementById("CH2").setAttribute("x", hscroll+20);
	svgDocument.getElementById("CH1s").setAttribute("x", hscroll+width-20);
	svgDocument.getElementById("CH2s").setAttribute("x", hscroll+width-20);

	svgDocument.getElementById("CH1").firstChild.data = "CH1: "+fmtU(y, 1000.000, 157) + " " + fmtT(x, 0.049);
	svgDocument.getElementById("CH2").firstChild.data = "CH2: "+fmtU(y, 500.000, 223) + " " + fmtT(x, 0.049);
}
]]></script>
</svg>
