<?xml version="1.0" encoding="iso-8859-1"?>
<!DOCTYPE svg PUBLIC "-//W3C//DTD SVG 1.0//EN" "http://www.w3.org/TR/2001/REC-SVG-20010904/DTD/svg10.dtd">
<svg width="4096" height="256" xmlns="http://www.w3.org/2000/svg" xmlns:xlink="http://www.w3.org/1999/xlink" onload="init(evt)" onmousemove="msMove(evt)">
<path stroke="none" fill="black" d="M0,0 H4096 V256 H0 V0"/>
<path stroke="none" fill="#000040" d="M30,0 H330 V256 H30 V0"/>
<path stroke="none" fill="#400000" d="M0,0 H30 V256 H0 V0"/>
<path stroke="#404040" d="M0,0 H4096"/>
<path stroke="#404040" d="M0,32 H4096"/>
<path stroke="#404040" d="M0,64 H4096"/>
<path stroke="#404040" d="M0,96 H4096"/>
<path stroke="#404040" d="M0,128 H4096"/>
<path stroke="#404040" d="M0,160 H4096"/>
<path stroke="#404040" d="M0,192 H4096"/>
<path stroke="#404040" d="M0,224 H4096"/>
<path stroke="#404040" d="M0,256 H4096"/>
<path stroke="#404040" d="M0,0 V256"/>
<path stroke="#404040" d="M32,0 V256"/>
<path stroke="#404040" d="M64,0 V256"/>
<path stroke="#404040" d="M96,0 V256"/>
<path stroke="#404040" d="M128,0 V256"/>
<path stroke="#404040" d="M160,0 V256"/>
<path stroke="#404040" d="M192,0 V256"/>
<path stroke="#404040" d="M224,0 V256"/>
<path stroke="#404040" d="M256,0 V256"/>
<path stroke="#404040" d="M288,0 V256"/>
<path stroke="#404040" d="M320,0 V256"/>
<path stroke="#404040" d="M352,0 V256"/>
<path stroke="#404040" d="M384,0 V256"/>
<path stroke="#404040" d="M416,0 V256"/>
<path stroke="#404040" d="M448,0 V256"/>
<path stroke="#404040" d="M480,0 V256"/>
<path stroke="#404040" d="M512,0 V256"/>
<path stroke="#404040" d="M544,0 V256"/>
<path stroke="#404040" d="M576,0 V256"/>
<path stroke="#404040" d="M608,0 V256"/>
<path stroke="#404040" d="M640,0 V256"/>
<path stroke="#404040" d="M672,0 V256"/>
<path stroke="#404040" d="M704,0 V256"/>
<path stroke="#404040" d="M736,0 V256"/>
<path stroke="#404040" d="M768,0 V256"/>
<path stroke="#404040" d="M800,0 V256"/>
<path stroke="#404040" d="M832,0 V256"/>
<path stroke="#404040" d="M864,0 V256"/>
<path stroke="#404040" d="M896,0 V256"/>
<path stroke="#404040" d="M928,0 V256"/>
<path stroke="#404040" d="M960,0 V256"/>
<path stroke="#404040" d="M992,0 V256"/>
<path stroke="#404040" d="M1024,0 V256"/>
<path stroke="#404040" d="M1056,0 V256"/>
<path stroke="#404040" d="M1088,0 V256"/>
<path stroke="#404040" d="M1120,0 V256"/>
<path stroke="#404040" d="M1152,0 V256"/>
<path stroke="#404040" d="M1184,0 V256"/>
<path stroke="#404040" d="M1216,0 V256"/>
<path stroke="#404040" d="M1248,0 V256"/>
<path stroke="#404040" d="M1280,0 V256"/>
<path stroke="#404040" d="M1312,0 V256"/>
<path stroke="#404040" d="M1344,0 V256"/>
<path stroke="#404040" d="M1376,0 V256"/>
<path stroke="#404040" d="M1408,0 V256"/>
<path stroke="#404040" d="M1440,0 V256"/>
<path stroke="#404040" d="M1472,0 V256"/>
<path stroke="#404040" d="M1504,0 V256"/>
<path stroke="#404040" d="M1536,0 V256"/>
<path stroke="#404040" d="M1568,0 V256"/>
<path stroke="#404040" d="M1600,0 V256"/>
<path stroke="#404040" d="M1632,0 V256"/>
<path stroke="#404040" d="M1664,0 V256"/>
<path stroke="#404040" d="M1696,0 V256"/>
<path stroke="#404040" d="M1728,0 V256"/>
<path stroke="#404040" d="M1760,0 V256"/>
<path stroke="#404040" d="M1792,0 V256"/>
<path stroke="#404040" d="M1824,0 V256"/>
<path stroke="#404040" d="M1856,0 V256"/>
<path stroke="#404040" d="M1888,0 V256"/>
<path stroke="#404040" d="M1920,0 V256"/>
<path stroke="#404040" d="M1952,0 V256"/>
<path stroke="#404040" d="M1984,0 V256"/>
<path stroke="#404040" d="M2016,0 V256"/>
<path stroke="#404040" d="M2048,0 V256"/>
<path stroke="#404040" d="M2080,0 V256"/>
<path stroke="#404040" d="M2112,0 V256"/>
<path stroke="#404040" d="M2144,0 V256"/>
<path stroke="#404040" d="M2176,0 V256"/>
<path stroke="#404040" d="M2208,0 V256"/>
<path stroke="#404040" d="M2240,0 V256"/>
<path stroke="#404040" d="M2272,0 V256"/>
<path stroke="#404040" d="M2304,0 V256"/>
<path stroke="#404040" d="M2336,0 V256"/>
<path stroke="#404040" d="M2368,0 V256"/>
<path stroke="#404040" d="M2400,0 V256"/>
<path stroke="#404040" d="M2432,0 V256"/>
<path stroke="#404040" d="M2464,0 V256"/>
<path stroke="#404040" d="M2496,0 V256"/>
<path stroke="#404040" d="M2528,0 V256"/>
<path stroke="#404040" d="M2560,0 V256"/>
<path stroke="#404040" d="M2592,0 V256"/>
<path stroke="#404040" d="M2624,0 V256"/>
<path stroke="#404040" d="M2656,0 V256"/>
<path stroke="#404040" d="M2688,0 V256"/>
<path stroke="#404040" d="M2720,0 V256"/>
<path stroke="#404040" d="M2752,0 V256"/>
<path stroke="#404040" d="M2784,0 V256"/>
<path stroke="#404040" d="M2816,0 V256"/>
<path stroke="#404040" d="M2848,0 V256"/>
<path stroke="#404040" d="M2880,0 V256"/>
<path stroke="#404040" d="M2912,0 V256"/>
<path stroke="#404040" d="M2944,0 V256"/>
<path stroke="#404040" d="M2976,0 V256"/>
<path stroke="#404040" d="M3008,0 V256"/>
<path stroke="#404040" d="M3040,0 V256"/>
<path stroke="#404040" d="M3072,0 V256"/>
<path stroke="#404040" d="M3104,0 V256"/>
<path stroke="#404040" d="M3136,0 V256"/>
<path stroke="#404040" d="M3168,0 V256"/>
<path stroke="#404040" d="M3200,0 V256"/>
<path stroke="#404040" d="M3232,0 V256"/>
<path stroke="#404040" d="M3264,0 V256"/>
<path stroke="#404040" d="M3296,0 V256"/>
<path stroke="#404040" d="M3328,0 V256"/>
<path stroke="#404040" d="M3360,0 V256"/>
<path stroke="#404040" d="M3392,0 V256"/>
<path stroke="#404040" d="M3424,0 V256"/>
<path stroke="#404040" d="M3456,0 V256"/>
<path stroke="#404040" d="M3488,0 V256"/>
<path stroke="#404040" d="M3520,0 V256"/>
<path stroke="#404040" d="M3552,0 V256"/>
<path stroke="#404040" d="M3584,0 V256"/>
<path stroke="#404040" d="M3616,0 V256"/>
<path stroke="#404040" d="M3648,0 V256"/>
<path stroke="#404040" d="M3680,0 V256"/>
<path stroke="#404040" d="M3712,0 V256"/>
<path stroke="#404040" d="M3744,0 V256"/>
<path stroke="#404040" d="M3776,0 V256"/>
<path stroke="#404040" d="M3808,0 V256"/>
<path stroke="#404040" d="M3840,0 V256"/>
<path stroke="#404040" d="M3872,0 V256"/>
<path stroke="#404040" d="M3904,0 V256"/>
<path stroke="#404040" d="M3936,0 V256"/>
<path stroke="#404040" d="M3968,0 V256"/>
<path stroke="#404040" d="M4000,0 V256"/>
<path stroke="#404040" d="M4032,0 V256"/>
<path stroke="#404040" d="M4064,0 V256"/>
<path stroke="yellow" fill="none" stroke-width="1" d="M0,88 L1,88 L2,88 L3,88 L4,88 L5,88 L6,88 L7,89 L8,89 L9,88 L10,88 L11,88 L12,88 L13,89 L14,89 L15,89 L16,88 L17,88 L18,88 L19,88 L20,88 L21,89 L22,88 L23,88 L24,88 L25,88 L26,89 L27,88 L28,88 L29,89 L30,88 L31,88 L32,88 L33,89 L34,88 L35,88 L36,88 L37,88 L38,88 L39,89 L40,89 L41,88 L42,88 L43,88 L44,89 L45,88 L46,88 L47,88 L48,88 L49,88 L50,88 L51,88 L52,88 L53,88 L54,88 L55,88 L56,89 L57,89 L58,88 L59,88 L60,88 L61,88 L62,89 L63,88 L64,89 L65,88 L66,89 L67,88 L68,88 L69,88 L70,89 L71,88 L72,88 L73,88 L74,88 L75,88 L76,88 L77,88 L78,88 L79,88 L80,88 L81,91 L82,88 L83,89 L84,88 L85,88 L86,88 L87,88 L88,88 L89,89 L90,88 L91,88 L92,88 L93,88 L94,88 L95,88 L96,89 L97,89 L98,88 L99,88 L100,88 L101,88 L102,88 L103,88 L104,88 L105,88 L106,91 L107,88 L108,89 L109,89 L110,88 L111,88 L112,88 L113,88 L114,88 L115,88 L116,88 L117,88 L118,88 L119,89 L120,89 L121,88 L122,88 L123,88 L124,160 L125,159 L126,160 L127,161 L128,160 L129,160 L130,160 L131,161 L132,161 L133,161 L134,161 L135,161 L136,161 L137,161 L138,161 L139,163 L140,161 L141,161 L142,161 L143,161 L144,161 L145,162 L146,162 L147,161 L148,161 L149,161 L150,88 L151,88 L152,88 L153,88 L154,88 L155,161 L156,161 L157,161 L158,161 L159,161 L160,161 L161,161 L162,161 L163,161 L164,164 L165,162 L166,161 L167,161 L168,162 L169,162 L170,88 L171,89 L172,88 L173,88 L174,88 L175,89 L176,162 L177,162 L178,161 L179,161 L180,162 L181,88 L182,88 L183,88 L184,88 L185,88 L186,88 L187,88 L188,88 L189,89 L190,89 L191,162 L192,161 L193,161 L194,162 L195,162 L196,83 L197,88 L198,88 L199,88 L200,88 L201,89 L202,89 L203,88 L204,88 L205,88 L206,88 L207,89 L208,89 L209,88 L210,88 L211,88 L212,89 L213,88 L214,88 L215,88 L216,89 L217,163 L218,161 L219,161 L220,162 L221,162 L222,92 L223,88 L224,89 L225,89 L226,88 L227,88 L228,163 L229,161 L230,161 L231,162 L232,161 L233,88 L234,89 L235,88 L236,88 L237,88 L238,162 L239,161 L240,161 L241,161 L242,161 L243,87 L244,88 L245,88 L246,89 L247,89 L248,88 L249,88 L250,88 L251,89 L252,88 L253,88 L254,161 L255,161 L256,162 L257,161 L258,162 L259,161 L260,161 L261,161 L262,161 L263,161 L264,161 L265,161 L266,161 L267,161 L268,161 L269,162 L270,161 L271,162 L272,161 L273,161 L274,162 L275,88 L276,89 L277,89 L278,89 L279,88 L280,161 L281,161 L282,162 L283,162 L284,161 L285,88 L286,88 L287,88 L288,89 L289,89 L290,88 L291,88 L292,88 L293,88 L294,88 L295,89 L296,89 L297,88 L298,88 L299,88 L300,89 L301,161 L302,161 L303,161 L304,161 L305,161 L306,161 L307,162 L308,161 L309,161 L310,161 L311,161 L312,161 L313,161 L314,162 L315,161 L316,161 L317,161 L318,161 L319,161 L320,161 L321,162 L322,162 L323,162 L324,161 L325,161 L326,162 L327,88 L328,88 L329,88 L330,88 L331,88 L332,162 L333,161 L334,161 L335,161 L336,161 L337,161 L338,161 L339,161 L340,162 L341,161 L342,161 L343,161 L344,162 L345,162 L346,162 L347,161 L348,161 L349,161 L350,162 L351,161 L352,161 L353,161 L354,161 L355,161 L356,162 L357,162 L358,162 L359,161 L360,161 L361,161 L362,159 L363,162 L364,162 L365,161 L366,161 L367,162 L368,162 L369,161 L370,161 L371,162 L372,162 L373,161 L374,161 L375,162 L376,161 L377,161 L378,161 L379,88 L380,88 L381,88 L382,88 L383,88 L384,162 L385,161 L386,161 L387,160 L388,161 L389,162 L390,162 L391,161 L392,161 L393,161 L394,162 L395,160 L396,161 L397,162 L398,161 L399,161 L400,161 L401,162 L402,161 L403,161 L404,161 L405,161 L406,162 L407,162 L408,161 L409,161 L410,161 L411,161 L412,162 L413,161 L414,161 L415,161 L416,162 L417,161 L418,161 L419,162 L420,159 L421,162 L422,161 L423,161 L424,162 L425,161 L426,161 L427,161 L428,162 L429,161 L430,161 L431,88 L432,88 L433,89 L434,89 L435,88 L436,161 L437,162 L438,162 L439,162 L440,161 L441,161 L442,161 L443,161 L444,161 L445,160 L446,161 L447,161 L448,161 L449,161 L450,162 L451,162 L452,162 L453,161 L454,161 L455,161 L456,162 L457,162 L458,161 L459,161 L460,161 L461,162 L462,161 L463,161 L464,161 L465,162 L466,161 L467,161 L468,161 L469,162 L470,162 L471,161 L472,161 L473,162 L474,161 L475,161 L476,162 L477,162 L478,161 L479,161 L480,161 L481,162 L482,162 L483,88 L484,88 L485,88 L486,88 L487,89 L488,162 L489,162 L490,161 L491,161 L492,161 L493,87 L494,88 L495,89 L496,89 L497,88 L498,177 L499,161 L500,162 L501,162 L502,161 L503,162 L504,88 L505,88 L506,88 L507,88 L508,88 L509,161 L510,161 L511,161 L512,161 L513,162 L514,88 L515,88 L516,88 L517,88 L518,89 L519,163 L520,161 L521,161 L522,161 L523,161 L524,115 L525,88 L526,89 L527,88 L528,88 L529,88 L530,161 L531,161 L532,162 L533,161 L534,161 L535,88 L536,89 L537,88 L538,89 L539,89 L540,162 L541,161 L542,161 L543,161 L544,162 L545,86 L546,88 L547,88 L548,88 L549,88 L550,92 L551,161 L552,161 L553,162 L554,161 L555,162 L556,88 L557,88 L558,89 L559,88 L560,88 L561,162 L562,161 L563,162 L564,161 L565,161 L566,88 L567,88 L568,88 L569,88 L570,89 L571,164 L572,161 L573,161 L574,161 L575,162 L576,162 L577,161 L578,161 L579,161 L580,161 L581,161 L582,162 L583,161 L584,161 L585,161 L586,161 L587,88 L588,88 L589,89 L590,88 L591,88 L592,162 L593,164 L594,162 L595,161 L596,162 L597,87 L598,88 L599,88 L600,88 L601,88 L602,89 L603,88 L604,89 L605,88 L606,89 L607,88 L608,162 L609,161 L610,161 L611,162 L612,162 L613,162 L614,161 L615,162 L616,161 L617,161 L618,164 L619,162 L620,162 L621,162 L622,161 L623,161 L624,161 L625,161 L626,161 L627,162 L628,161 L629,161 L630,161 L631,161 L632,162 L633,162 L634,161 L635,161 L636,161 L637,161 L638,162 L639,88 L640,88 L641,88 L642,89 L643,89 L644,162 L645,161 L646,161 L647,161 L648,161 L649,162 L650,162 L651,163 L652,161 L653,161 L654,161 L655,161 L656,161 L657,161 L658,162 L659,161 L660,161 L661,161 L662,161 L663,161 L664,162 L665,161 L666,161 L667,161 L668,161 L669,162 L670,161 L671,161 L672,161 L673,161 L674,161 L675,161 L676,164 L677,162 L678,161 L679,161 L680,161 L681,161 L682,162 L683,162 L684,161 L685,161 L686,161 L687,162 L688,161 L689,161 L690,161 L691,88 L692,88 L693,88 L694,89 L695,89 L696,164 L697,161 L698,161 L699,162 L700,161 L701,163 L702,162 L703,161 L704,161 L705,161 L706,162 L707,161 L708,162 L709,161 L710,161 L711,161 L712,161 L713,162 L714,161 L715,162 L716,161 L717,162 L718,162 L719,161 L720,162 L721,162 L722,161 L723,161 L724,161 L725,162 L726,162 L727,161 L728,162 L729,161 L730,161 L731,162 L732,162 L733,161 L734,161 L735,161 L736,162 L737,161 L738,161 L739,162 L740,162 L741,161 L742,161 L743,89 L744,89 L745,88 L746,88 L747,88 L748,162 L749,162 L750,161 L751,161 L752,162 L753,161 L754,88 L755,88 L756,88 L757,88 L758,89 L759,88 L760,88 L761,88 L762,89 L763,89 L764,162 L765,161 L766,162 L767,161 L768,161 L769,162 L770,162 L771,162 L772,161 L773,161 L774,162 L775,162 L776,161 L777,161 L778,161 L779,161 L780,161 L781,161 L782,162 L783,162 L784,161 L785,162 L786,161 L787,161 L788,162 L789,162 L790,161 L791,161 L792,162 L793,161 L794,162 L795,87 L796,89 L797,89 L798,88 L799,88 L800,163 L801,162 L802,161 L803,161 L804,161 L805,161 L806,88 L807,89 L808,89 L809,88 L810,88 L811,89 L812,89 L813,88 L814,88 L815,88 L816,88 L817,88 L818,88 L819,89 L820,89 L821,88 L822,88 L823,88 L824,89 L825,88 L826,88 L827,89 L828,88 L829,88 L830,89 L831,88 L832,89 L833,88 L834,88 L835,88 L836,88 L837,89 L838,89 L839,88 L840,88 L841,89 L842,89 L843,88 L844,88 L845,89 L846,88 L847,88 L848,88 L849,88 L850,89 L851,89 L852,88 L853,161 L854,161 L855,161 L856,162 L857,162 L858,161 L859,161 L860,161 L861,161 L862,161 L863,88 L864,89 L865,88 L866,88 L867,88 L868,163 L869,162 L870,161 L871,162 L872,162 L873,88 L874,86 L875,89 L876,89 L877,88 L878,88 L879,161 L880,161 L881,162 L882,162 L883,161 L884,161 L885,161 L886,162 L887,161 L888,162 L889,161 L890,162 L891,161 L892,161 L893,161 L894,162 L895,162 L896,161 L897,161 L898,161 L899,83 L900,88 L901,88 L902,89 L903,88 L904,88 L905,161 L906,161 L907,161 L908,162 L909,161 L910,88 L911,88 L912,88 L913,89 L914,89 L915,88 L916,88 L917,89 L918,88 L919,88 L920,163 L921,162 L922,161 L923,161 L924,161 L925,162 L926,162 L927,161 L928,161 L929,161 L930,162 L931,162 L932,160 L933,162 L934,161 L935,161 L936,161 L937,161 L938,162 L939,162 L940,161 L941,161 L942,161 L943,162 L944,162 L945,161 L946,161 L947,161 L948,161 L949,161 L950,161 L951,74 L952,88 L953,88 L954,88 L955,88 L956,89 L957,159 L958,162 L959,161 L960,161 L961,161 L962,88 L963,89 L964,88 L965,88 L966,88 L967,162 L968,161 L969,162 L970,162 L971,161 L972,85 L973,88 L974,89 L975,89 L976,88 L977,89 L978,161 L979,161 L980,162 L981,161 L982,161 L983,88 L984,88 L985,88 L986,88 L987,88 L988,89 L989,88 L990,88 L991,88 L992,89 L993,89 L994,89 L995,88 L996,88 L997,88 L998,88 L999,88 L1000,89 L1001,89 L1002,88 L1003,89 L1004,88 L1005,88 L1006,88 L1007,89 L1008,89 L1009,162 L1010,161 L1011,161 L1012,161 L1013,162 L1014,162 L1015,161 L1016,161 L1017,161 L1018,162 L1019,162 L1020,162 L1021,161 L1022,161 L1023,162 L1024,161 L1025,162 L1026,162 L1027,162 L1028,161 L1029,161 L1030,161 L1031,161 L1032,162 L1033,161 L1034,162 L1035,88 L1036,88 L1037,89 L1038,88 L1039,88 L1040,162 L1041,162 L1042,162 L1043,161 L1044,162 L1045,162 L1046,162 L1047,161 L1048,161 L1049,161 L1050,161 L1051,162 L1052,161 L1053,161 L1054,161 L1055,161 L1056,88 L1057,88 L1058,88 L1059,88 L1060,88 L1061,161 L1062,161 L1063,162 L1064,162 L1065,161 L1066,87 L1067,88 L1068,89 L1069,88 L1070,89 L1071,88 L1072,89 L1073,88 L1074,88 L1075,89 L1076,179 L1077,162 L1078,161 L1079,161 L1080,162 L1081,162 L1082,161 L1083,161 L1084,161 L1085,161 L1086,161 L1087,162 L1088,161 L1089,161 L1090,161 L1091,161 L1092,161 L1093,161 L1094,162 L1095,161 L1096,161 L1097,161 L1098,162 L1099,161 L1100,161 L1101,162 L1102,162 L1103,161 L1104,161 L1105,163 L1106,161 L1107,161 L1108,88 L1109,88 L1110,88 L1111,88 L1112,89 L1113,89 L1114,88 L1115,88 L1116,89 L1117,88 L1118,88 L1119,88 L1120,89 L1121,89 L1122,88 L1123,88 L1124,88 L1125,89 L1126,89 L1127,88 L1128,88 L1129,88 L1130,91 L1131,89 L1132,88 L1133,88 L1134,88 L1135,88 L1136,88 L1137,88 L1138,88 L1139,89 L1140,88 L1141,88 L1142,88 L1143,89 L1144,88 L1145,88 L1146,88 L1147,88 L1148,88 L1149,88 L1150,89 L1151,88 L1152,89 L1153,88 L1154,88 L1155,90 L1156,89 L1157,89 L1158,89 L1159,88 L1160,88 L1161,89 L1162,89 L1163,89 L1164,88 L1165,88 L1166,88 L1167,88 L1168,88 L1169,89 L1170,89 L1171,89 L1172,88 L1173,89 L1174,89 L1175,89 L1176,88 L1177,88 L1178,88 L1179,88 L1180,89 L1181,89 L1182,88 L1183,89 L1184,88 L1185,88 L1186,88 L1187,88 L1188,91 L1189,88 L1190,88 L1191,88 L1192,88 L1193,88 L1194,88 L1195,88 L1196,89 L1197,88 L1198,88 L1199,88 L1200,89 L1201,89 L1202,88 L1203,88 L1204,88 L1205,88 L1206,88 L1207,89 L1208,88 L1209,88 L1210,88 L1211,88 L1212,88 L1213,91 L1214,89 L1215,88 L1216,88 L1217,88 L1218,89 L1219,89 L1220,88 L1221,88 L1222,88 L1223,88 L1224,88 L1225,88 L1226,89 L1227,89 L1228,88 L1229,88 L1230,88 L1231,89 L1232,88 L1233,88 L1234,88 L1235,88 L1236,88 L1237,89 L1238,89 L1239,88 L1240,88 L1241,88 L1242,88 L1243,88 L1244,88 L1245,89 L1246,88 L1247,88 L1248,88 L1249,88 L1250,89 L1251,88 L1252,88 L1253,88 L1254,88 L1255,88 L1256,89 L1257,89 L1258,89 L1259,88 L1260,88 L1261,88 L1262,89 L1263,89 L1264,89 L1265,88 L1266,88 L1267,89 L1268,88 L1269,88 L1270,88 L1271,89 L1272,88 L1273,88 L1274,88 L1275,89 L1276,89 L1277,88 L1278,88 L1279,88 L1280,89 L1281,88 L1282,89 L1283,88 L1284,88 L1285,88 L1286,88 L1287,88 L1288,88 L1289,89 L1290,88 L1291,88 L1292,88 L1293,88 L1294,89 L1295,89 L1296,88 L1297,88 L1298,88 L1299,89 L1300,88 L1301,89 L1302,88 L1303,88 L1304,88 L1305,88 L1306,89 L1307,88 L1308,88 L1309,88 L1310,88 L1311,88 L1312,88 L1313,88 L1314,88 L1315,88 L1316,88 L1317,88 L1318,88 L1319,88 L1320,89 L1321,88 L1322,88 L1323,88 L1324,88 L1325,88 L1326,89 L1327,88 L1328,88 L1329,88 L1330,89 L1331,88 L1332,88 L1333,88 L1334,88 L1335,88 L1336,88 L1337,88 L1338,88 L1339,89 L1340,88 L1341,88 L1342,88 L1343,88 L1344,88 L1345,88 L1346,88 L1347,88 L1348,88 L1349,88 L1350,89 L1351,89 L1352,88 L1353,88 L1354,88 L1355,88 L1356,89 L1357,88 L1358,88 L1359,88 L1360,88 L1361,88 L1362,88 L1363,88 L1364,88 L1365,88 L1366,88 L1367,88 L1368,88 L1369,89 L1370,88 L1371,88 L1372,88 L1373,89 L1374,89 L1375,88 L1376,88 L1377,88 L1378,88 L1379,88 L1380,88 L1381,88 L1382,88 L1383,88 L1384,88 L1385,88 L1386,86 L1387,89 L1388,88 L1389,88 L1390,88 L1391,88 L1392,89 L1393,88 L1394,88 L1395,89 L1396,88 L1397,88 L1398,88 L1399,89 L1400,89 L1401,89 L1402,88 L1403,88 L1404,88 L1405,89 L1406,89 L1407,88 L1408,88 L1409,88 L1410,88 L1411,86 L1412,88 L1413,88 L1414,89 L1415,88 L1416,88 L1417,88 L1418,89 L1419,88 L1420,88 L1421,88 L1422,89 L1423,88 L1424,88 L1425,88 L1426,88 L1427,89 L1428,88 L1429,88 L1430,88 L1431,88 L1432,88 L1433,88 L1434,88 L1435,88 L1436,87 L1437,89 L1438,88 L1439,88 L1440,88 L1441,88 L1442,88 L1443,88 L1444,86 L1445,89 L1446,89 L1447,88 L1448,88 L1449,89 L1450,89 L1451,88 L1452,88 L1453,88 L1454,88 L1455,89 L1456,89 L1457,88 L1458,88 L1459,89 L1460,88 L1461,88 L1462,89 L1463,89 L1464,88 L1465,88 L1466,88 L1467,89 L1468,88 L1469,85 L1470,89 L1471,88 L1472,88 L1473,88 L1474,88 L1475,89 L1476,88 L1477,88 L1478,88 L1479,89 L1480,89 L1481,88 L1482,88 L1483,88 L1484,88 L1485,88 L1486,89 L1487,88 L1488,88 L1489,88 L1490,88 L1491,88 L1492,88 L1493,89 L1494,88 L1495,88 L1496,88 L1497,88 L1498,88 L1499,88 L1500,88 L1501,89 L1502,88 L1503,88 L1504,88 L1505,89 L1506,89 L1507,88 L1508,88 L1509,88 L1510,88 L1511,88 L1512,89 L1513,88 L1514,88 L1515,88 L1516,88 L1517,88 L1518,88 L1519,89 L1520,89 L1521,88 L1522,88 L1523,88 L1524,89 L1525,89 L1526,88 L1527,88 L1528,88 L1529,88 L1530,89 L1531,88 L1532,89 L1533,88 L1534,88 L1535,88 L1536,88 L1537,89 L1538,89 L1539,88 L1540,88 L1541,88 L1542,89 L1543,89 L1544,89 L1545,88 L1546,89 L1547,88 L1548,88 L1549,89 L1550,89 L1551,89 L1552,88 L1553,88 L1554,88 L1555,89 L1556,89 L1557,88 L1558,88 L1559,88 L1560,88 L1561,89 L1562,89 L1563,88 L1564,89 L1565,88 L1566,88 L1567,88 L1568,88 L1569,89 L1570,88 L1571,88 L1572,88 L1573,89 L1574,89 L1575,88 L1576,89 L1577,88 L1578,88 L1579,88 L1580,88 L1581,88 L1582,89 L1583,88 L1584,88 L1585,89 L1586,88 L1587,89 L1588,89 L1589,88 L1590,88 L1591,88 L1592,89 L1593,88 L1594,88 L1595,89 L1596,88 L1597,88 L1598,88 L1599,89 L1600,89 L1601,88 L1602,88 L1603,88 L1604,89 L1605,88 L1606,89 L1607,89 L1608,88 L1609,88 L1610,88 L1611,88 L1612,89 L1613,89 L1614,88 L1615,88 L1616,88 L1617,89 L1618,88 L1619,88 L1620,88 L1621,88 L1622,88 L1623,88 L1624,88 L1625,89 L1626,88 L1627,88 L1628,88 L1629,88 L1630,88 L1631,89 L1632,88 L1633,88 L1634,89 L1635,88 L1636,88 L1637,88 L1638,89 L1639,88 L1640,88 L1641,89 L1642,90 L1643,88 L1644,89 L1645,88 L1646,88 L1647,88 L1648,88 L1649,89 L1650,88 L1651,88 L1652,88 L1653,88 L1654,88 L1655,88 L1656,89 L1657,88 L1658,89 L1659,88 L1660,88 L1661,89 L1662,88 L1663,88 L1664,88 L1665,88 L1666,88 L1667,91 L1668,88 L1669,88 L1670,89 L1671,88 L1672,88 L1673,88 L1674,89 L1675,89 L1676,88 L1677,88 L1678,88 L1679,88 L1680,89 L1681,88 L1682,89 L1683,88 L1684,88 L1685,88 L1686,88 L1687,88 L1688,88 L1689,88 L1690,88 L1691,88 L1692,89 L1693,89 L1694,88 L1695,88 L1696,88 L1697,88 L1698,88 L1699,88 L1700,90 L1701,89 L1702,88 L1703,88 L1704,88 L1705,88 L1706,89 L1707,89 L1708,88 L1709,88 L1710,88 L1711,89 L1712,89 L1713,88 L1714,88 L1715,89 L1716,88 L1717,88 L1718,88 L1719,89 L1720,89 L1721,88 L1722,88 L1723,88 L1724,88 L1725,91 L1726,88 L1727,88 L1728,88 L1729,88 L1730,88 L1731,88 L1732,88 L1733,88 L1734,88 L1735,88 L1736,88 L1737,88 L1738,89 L1739,88 L1740,88 L1741,88 L1742,88 L1743,89 L1744,88 L1745,88 L1746,88 L1747,88 L1748,88 L1749,88 L1750,89 L1751,88 L1752,88 L1753,88 L1754,89 L1755,89 L1756,88 L1757,88 L1758,88 L1759,88 L1760,88 L1761,88 L1762,88 L1763,88 L1764,89 L1765,88 L1766,88 L1767,88 L1768,89 L1769,88 L1770,88 L1771,88 L1772,88 L1773,89 L1774,88 L1775,88 L1776,89 L1777,88 L1778,88 L1779,88 L1780,88 L1781,89 L1782,88 L1783,88 L1784,88 L1785,88 L1786,88 L1787,89 L1788,89 L1789,88 L1790,88 L1791,88 L1792,88 L1793,88 L1794,88 L1795,88 L1796,88 L1797,88 L1798,88 L1799,89 L1800,88 L1801,88 L1802,88 L1803,88 L1804,89 L1805,89 L1806,89 L1807,89 L1808,88 L1809,88 L1810,88 L1811,88 L1812,88 L1813,89 L1814,88 L1815,88 L1816,88 L1817,89 L1818,89 L1819,88 L1820,88 L1821,88 L1822,89 L1823,88 L1824,88 L1825,89 L1826,89 L1827,88 L1828,88 L1829,88 L1830,89 L1831,88 L1832,89 L1833,88 L1834,88 L1835,88 L1836,88 L1837,88 L1838,89 L1839,88 L1840,88 L1841,89 L1842,88 L1843,89 L1844,89 L1845,88 L1846,88 L1847,88 L1848,88 L1849,89 L1850,89 L1851,88 L1852,88 L1853,88 L1854,88 L1855,89 L1856,89 L1857,89 L1858,88 L1859,88 L1860,88 L1861,89 L1862,89 L1863,88 L1864,88 L1865,88 L1866,89 L1867,88 L1868,88 L1869,88 L1870,89 L1871,89 L1872,88 L1873,88 L1874,89 L1875,89 L1876,88 L1877,88 L1878,88 L1879,89 L1880,88 L1881,88 L1882,88 L1883,88 L1884,88 L1885,88 L1886,88 L1887,88 L1888,88 L1889,89 L1890,88 L1891,88 L1892,88 L1893,89 L1894,89 L1895,88 L1896,88 L1897,88 L1898,87 L1899,88 L1900,89 L1901,89 L1902,88 L1903,88 L1904,89 L1905,89 L1906,88 L1907,88 L1908,88 L1909,88 L1910,89 L1911,88 L1912,89 L1913,88 L1914,88 L1915,88 L1916,88 L1917,88 L1918,89 L1919,89 L1920,88 L1921,88 L1922,88 L1923,86 L1924,89 L1925,88 L1926,89 L1927,88 L1928,88 L1929,89 L1930,89 L1931,89 L1932,88 L1933,88 L1934,88 L1935,88 L1936,89 L1937,88 L1938,89 L1939,88 L1940,88 L1941,88 L1942,89 L1943,88 L1944,88 L1945,88 L1946,88 L1947,88 L1948,86 L1949,89 L1950,89 L1951,88 L1952,88 L1953,88 L1954,89 L1955,88 L1956,87 L1957,88 L1958,88 L1959,88 L1960,88 L1961,89 L1962,88 L1963,89 L1964,89 L1965,88 L1966,88 L1967,88 L1968,89 L1969,88 L1970,88 L1971,88 L1972,89 L1973,88 L1974,88 L1975,88 L1976,89 L1977,89 L1978,88 L1979,88 L1980,89 L1981,86 L1982,88 L1983,88 L1984,88 L1985,88 L1986,88 L1987,89 L1988,89 L1989,88 L1990,88 L1991,88 L1992,88 L1993,88 L1994,88 L1995,88 L1996,88 L1997,88 L1998,89 L1999,89 L2000,88 L2001,88 L2002,88 L2003,88 L2004,89 L2005,89 L2006,87 L2007,89 L2008,89 L2009,88 L2010,88 L2011,88 L2012,89 L2013,89 L2014,88 L2015,88 L2016,88 L2017,89 L2018,88 L2019,88 L2020,88 L2021,89 L2022,88 L2023,88 L2024,88 L2025,89 L2026,88 L2027,88 L2028,88 L2029,88 L2030,89 L2031,89 L2032,89 L2033,88 L2034,88 L2035,88 L2036,88 L2037,88 L2038,88 L2039,89 L2040,88 L2041,88 L2042,88 L2043,89 L2044,88 L2045,88 L2046,88 L2047,88 L2048,89 L2049,89 L2050,88 L2051,88 L2052,89 L2053,89 L2054,88 L2055,88 L2056,89 L2057,88 L2058,89 L2059,88 L2060,88 L2061,89 L2062,89 L2063,88 L2064,88 L2065,88 L2066,88 L2067,88 L2068,88 L2069,88 L2070,89 L2071,88 L2072,88 L2073,88 L2074,89 L2075,89 L2076,88 L2077,88 L2078,88 L2079,88 L2080,88 L2081,89 L2082,88 L2083,88 L2084,88 L2085,88 L2086,88 L2087,89 L2088,89 L2089,89 L2090,88 L2091,88 L2092,89 L2093,89 L2094,88 L2095,88 L2096,88 L2097,88 L2098,88 L2099,88 L2100,89 L2101,89 L2102,88 L2103,88 L2104,88 L2105,89 L2106,88 L2107,88 L2108,88 L2109,88 L2110,88 L2111,89 L2112,89 L2113,88 L2114,89 L2115,88 L2116,88 L2117,88 L2118,89 L2119,89 L2120,88 L2121,88 L2122,88 L2123,89 L2124,89 L2125,88 L2126,88 L2127,88 L2128,89 L2129,88 L2130,88 L2131,88 L2132,88 L2133,88 L2134,88 L2135,88 L2136,88 L2137,88 L2138,89 L2139,88 L2140,88 L2141,89 L2142,89 L2143,88 L2144,88 L2145,89 L2146,88 L2147,88 L2148,88 L2149,89 L2150,89 L2151,88 L2152,88 L2153,88 L2154,90 L2155,89 L2156,88 L2157,89 L2158,88 L2159,88 L2160,88 L2161,89 L2162,88 L2163,89 L2164,89 L2165,88 L2166,88 L2167,88 L2168,88 L2169,89 L2170,88 L2171,88 L2172,88 L2173,88 L2174,88 L2175,88 L2176,89 L2177,88 L2178,88 L2179,91 L2180,88 L2181,89 L2182,88 L2183,89 L2184,88 L2185,88 L2186,88 L2187,88 L2188,88 L2189,88 L2190,88 L2191,88 L2192,88 L2193,89 L2194,89 L2195,88 L2196,88 L2197,88 L2198,89 L2199,89 L2200,89 L2201,88 L2202,88 L2203,89 L2204,89 L2205,88 L2206,89 L2207,89 L2208,88 L2209,88 L2210,88 L2211,88 L2212,89 L2213,88 L2214,88 L2215,88 L2216,88 L2217,89 L2218,88 L2219,88 L2220,88 L2221,89 L2222,88 L2223,88 L2224,89 L2225,89 L2226,89 L2227,88 L2228,88 L2229,89 L2230,89 L2231,88 L2232,89 L2233,88 L2234,88 L2235,88 L2236,88 L2237,91 L2238,88 L2239,89 L2240,88 L2241,88 L2242,88 L2243,89 L2244,89 L2245,88 L2246,88 L2247,88 L2248,88 L2249,88 L2250,88 L2251,89 L2252,88 L2253,88 L2254,88 L2255,88 L2256,89 L2257,88 L2258,88 L2259,88 L2260,88 L2261,88 L2262,90 L2263,88 L2264,88 L2265,88 L2266,89 L2267,88 L2268,88 L2269,88 L2270,89 L2271,88 L2272,88 L2273,88 L2274,89 L2275,89 L2276,88 L2277,88 L2278,88 L2279,88 L2280,88 L2281,88 L2282,89 L2283,88 L2284,88 L2285,88 L2286,89 L2287,89 L2288,89 L2289,88 L2290,88 L2291,88 L2292,89 L2293,89 L2294,88 L2295,88 L2296,88 L2297,88 L2298,88 L2299,88 L2300,89 L2301,88 L2302,88 L2303,88 L2304,89 L2305,89 L2306,88 L2307,88 L2308,88 L2309,88 L2310,88 L2311,88 L2312,88 L2313,89 L2314,88 L2315,88 L2316,88 L2317,88 L2318,89 L2319,89 L2320,88 L2321,88 L2322,88 L2323,89 L2324,89 L2325,88 L2326,88 L2327,88 L2328,88 L2329,88 L2330,88 L2331,89 L2332,88 L2333,88 L2334,88 L2335,89 L2336,88 L2337,88 L2338,88 L2339,88 L2340,88 L2341,88 L2342,88 L2343,88 L2344,88 L2345,88 L2346,88 L2347,88 L2348,88 L2349,88 L2350,89 L2351,88 L2352,88 L2353,88 L2354,88 L2355,88 L2356,88 L2357,89 L2358,88 L2359,88 L2360,88 L2361,88 L2362,89 L2363,88 L2364,88 L2365,88 L2366,88 L2367,88 L2368,88 L2369,89 L2370,88 L2371,88 L2372,88 L2373,88 L2374,88 L2375,89 L2376,89 L2377,88 L2378,87 L2379,88 L2380,89 L2381,89 L2382,88 L2383,88 L2384,88 L2385,89 L2386,89 L2387,89 L2388,88 L2389,89 L2390,88 L2391,88 L2392,88 L2393,89 L2394,89 L2395,88 L2396,88 L2397,88 L2398,89 L2399,89 L2400,88 L2401,88 L2402,89 L2403,88 L2404,88 L2405,88 L2406,89 L2407,89 L2408,88 L2409,88 L2410,88 L2411,88 L2412,89 L2413,89 L2414,88 L2415,88 L2416,88 L2417,88 L2418,88 L2419,88 L2420,88 L2421,88 L2422,88 L2423,88 L2424,89 L2425,89 L2426,88 L2427,88 L2428,88 L2429,89 L2430,89 L2431,88 L2432,88 L2433,88 L2434,88 L2435,86 L2436,88 L2437,88 L2438,88 L2439,88 L2440,88 L2441,88 L2442,89 L2443,88 L2444,88 L2445,88 L2446,88 L2447,88 L2448,88 L2449,88 L2450,88 L2451,89 L2452,88 L2453,88 L2454,88 L2455,89 L2456,89 L2457,89 L2458,88 L2459,88 L2460,86 L2461,88 L2462,89 L2463,89 L2464,88 L2465,88 L2466,89 L2467,88 L2468,89 L2469,88 L2470,88 L2471,88 L2472,88 L2473,88 L2474,89 L2475,88 L2476,89 L2477,88 L2478,88 L2479,89 L2480,88 L2481,89 L2482,88 L2483,88 L2484,88 L2485,88 L2486,88 L2487,89 L2488,88 L2489,88 L2490,88 L2491,88 L2492,88 L2493,86 L2494,88 L2495,88 L2496,88 L2497,88 L2498,88 L2499,88 L2500,89 L2501,88 L2502,88 L2503,88 L2504,89 L2505,89 L2506,88 L2507,88 L2508,89 L2509,88 L2510,89 L2511,88 L2512,88 L2513,89 L2514,88 L2515,88 L2516,88 L2517,88 L2518,86 L2519,89 L2520,89 L2521,88 L2522,88 L2523,89 L2524,89 L2525,88 L2526,88 L2527,88 L2528,88 L2529,88 L2530,88 L2531,89 L2532,89 L2533,88 L2534,89 L2535,89 L2536,89 L2537,89 L2538,88 L2539,88 L2540,88 L2541,88 L2542,88 L2543,88 L2544,88 L2545,88 L2546,88 L2547,88 L2548,88 L2549,89 L2550,89 L2551,88 L2552,88 L2553,89 L2554,89 L2555,88 L2556,88 L2557,89 L2558,88 L2559,88 L2560,88 L2561,89 L2562,89 L2563,88 L2564,88 L2565,88 L2566,88 L2567,89 L2568,89 L2569,88 L2570,88 L2571,88 L2572,88 L2573,88 L2574,89 L2575,88 L2576,88 L2577,88 L2578,88 L2579,88 L2580,89 L2581,89 L2582,88 L2583,88 L2584,88 L2585,88 L2586,88 L2587,88 L2588,88 L2589,88 L2590,88 L2591,88 L2592,88 L2593,89 L2594,89 L2595,89 L2596,88 L2597,88 L2598,89 L2599,89 L2600,88 L2601,88 L2602,89 L2603,89 L2604,88 L2605,89 L2606,89 L2607,88 L2608,88 L2609,88 L2610,89 L2611,89 L2612,89 L2613,88 L2614,88 L2615,88 L2616,88 L2617,88 L2618,89 L2619,88 L2620,88 L2621,88 L2622,88 L2623,88 L2624,89 L2625,89 L2626,88 L2627,88 L2628,88 L2629,89 L2630,89 L2631,88 L2632,88 L2633,88 L2634,89 L2635,88 L2636,88 L2637,89 L2638,88 L2639,88 L2640,88 L2641,89 L2642,88 L2643,88 L2644,88 L2645,88 L2646,88 L2647,88 L2648,88 L2649,88 L2650,88 L2651,89 L2652,88 L2653,88 L2654,88 L2655,89 L2656,89 L2657,88 L2658,88 L2659,88 L2660,89 L2661,89 L2662,88 L2663,88 L2664,89 L2665,88 L2666,89 L2667,88 L2668,88 L2669,88 L2670,88 L2671,88 L2672,88 L2673,88 L2674,89 L2675,88 L2676,88 L2677,88 L2678,89 L2679,88 L2680,88 L2681,88 L2682,89 L2683,88 L2684,88 L2685,88 L2686,89 L2687,89 L2688,88 L2689,88 L2690,88 L2691,91 L2692,88 L2693,88 L2694,88 L2695,88 L2696,88 L2697,89 L2698,89 L2699,88 L2700,89 L2701,88 L2702,88 L2703,88 L2704,89 L2705,89 L2706,88 L2707,88 L2708,89 L2709,89 L2710,88 L2711,88 L2712,89 L2713,89 L2714,88 L2715,88 L2716,90 L2717,89 L2718,88 L2719,88 L2720,88 L2721,88 L2722,88 L2723,89 L2724,89 L2725,88 L2726,88 L2727,88 L2728,88 L2729,88 L2730,88 L2731,89 L2732,88 L2733,88 L2734,89 L2735,89 L2736,88 L2737,88 L2738,88 L2739,89 L2740,88 L2741,88 L2742,89 L2743,89 L2744,88 L2745,89 L2746,88 L2747,88 L2748,88 L2749,91 L2750,88 L2751,88 L2752,88 L2753,89 L2754,88 L2755,88 L2756,89 L2757,89 L2758,88 L2759,88 L2760,88 L2761,89 L2762,89 L2763,88 L2764,88 L2765,88 L2766,88 L2767,89 L2768,88 L2769,88 L2770,88 L2771,88 L2772,89 L2773,88 L2774,91 L2775,88 L2776,88 L2777,88 L2778,88 L2779,89 L2780,89 L2781,88 L2782,88 L2783,88 L2784,89 L2785,88 L2786,88 L2787,88 L2788,89 L2789,88 L2790,88 L2791,88 L2792,89 L2793,88 L2794,88 L2795,88 L2796,88 L2797,88 L2798,88 L2799,89 L2800,88 L2801,88 L2802,88 L2803,89 L2804,88 L2805,89 L2806,89 L2807,88 L2808,88 L2809,88 L2810,89 L2811,88 L2812,88 L2813,88 L2814,88 L2815,88 L2816,88 L2817,89 L2818,89 L2819,88 L2820,88 L2821,88 L2822,89 L2823,88 L2824,88 L2825,89 L2826,88 L2827,88 L2828,88 L2829,89 L2830,89 L2831,88 L2832,89 L2833,88 L2834,88 L2835,88 L2836,89 L2837,89 L2838,88 L2839,88 L2840,88 L2841,89 L2842,89 L2843,88 L2844,88 L2845,88 L2846,88 L2847,88 L2848,88 L2849,88 L2850,89 L2851,88 L2852,88 L2853,88 L2854,89 L2855,89 L2856,88 L2857,88 L2858,88 L2859,89 L2860,88 L2861,88 L2862,88 L2863,88 L2864,88 L2865,88 L2866,88 L2867,89 L2868,89 L2869,88 L2870,88 L2871,88 L2872,88 L2873,89 L2874,88 L2875,88 L2876,88 L2877,88 L2878,89 L2879,88 L2880,88 L2881,89 L2882,89 L2883,88 L2884,88 L2885,89 L2886,89 L2887,89 L2888,88 L2889,88 L2890,88 L2891,89 L2892,88 L2893,88 L2894,89 L2895,88 L2896,89 L2897,88 L2898,88 L2899,89 L2900,89 L2901,88 L2902,88 L2903,88 L2904,89 L2905,88 L2906,88 L2907,88 L2908,88 L2909,88 L2910,88 L2911,89 L2912,89 L2913,89 L2914,88 L2915,88 L2916,89 L2917,88 L2918,88 L2919,88 L2920,88 L2921,88 L2922,88 L2923,88 L2924,89 L2925,89 L2926,88 L2927,88 L2928,88 L2929,88 L2930,89 L2931,89 L2932,88 L2933,88 L2934,89 L2935,89 L2936,89 L2937,88 L2938,88 L2939,89 L2940,88 L2941,88 L2942,88 L2943,89 L2944,88 L2945,88 L2946,88 L2947,86 L2948,88 L2949,89 L2950,88 L2951,88 L2952,88 L2953,89 L2954,88 L2955,88 L2956,89 L2957,88 L2958,88 L2959,88 L2960,89 L2961,89 L2962,88 L2963,88 L2964,88 L2965,88 L2966,89 L2967,88 L2968,88 L2969,89 L2970,89 L2971,88 L2972,86 L2973,88 L2974,89 L2975,89 L2976,88 L2977,88 L2978,88 L2979,89 L2980,89 L2981,88 L2982,88 L2983,89 L2984,88 L2985,88 L2986,88 L2987,89 L2988,89 L2989,88 L2990,88 L2991,89 L2992,88 L2993,89 L2994,88 L2995,88 L2996,88 L2997,87 L2998,88 L2999,88 L3000,88 L3001,88 L3002,88 L3003,88 L3004,88 L3005,86 L3006,89 L3007,88 L3008,88 L3009,88 L3010,89 L3011,89 L3012,88 L3013,89 L3014,88 L3015,88 L3016,88 L3017,89 L3018,88 L3019,88 L3020,88 L3021,88 L3022,89 L3023,88 L3024,88 L3025,88 L3026,88 L3027,88 L3028,89 L3029,88 L3030,85 L3031,88 L3032,88 L3033,88 L3034,88 L3035,88 L3036,89 L3037,89 L3038,88 L3039,88 L3040,88 L3041,89 L3042,88 L3043,88 L3044,88 L3045,88 L3046,88 L3047,89 L3048,88 L3049,89 L3050,88 L3051,88 L3052,88 L3053,88 L3054,89 L3055,88 L3056,89 L3057,88 L3058,88 L3059,89 L3060,88 L3061,88 L3062,88 L3063,88 L3064,88 L3065,88 L3066,89 L3067,89 L3068,89 L3069,88 L3070,88 L3071,88 L3072,88 L3073,88 L3074,89 L3075,89 L3076,88 L3077,88 L3078,88 L3079,88 L3080,89 L3081,88 L3082,88 L3083,88 L3084,88 L3085,89 L3086,89 L3087,88 L3088,88 L3089,88 L3090,89 L3091,88 L3092,88 L3093,88 L3094,88 L3095,88 L3096,88 L3097,88 L3098,89 L3099,88 L3100,88 L3101,88 L3102,88 L3103,88 L3104,89 L3105,89 L3106,88 L3107,88 L3108,88 L3109,88 L3110,88 L3111,88 L3112,89 L3113,88 L3114,88 L3115,88 L3116,89 L3117,88 L3118,88 L3119,88 L3120,88 L3121,88 L3122,88 L3123,88 L3124,88 L3125,89 L3126,88 L3127,88 L3128,88 L3129,88 L3130,89 L3131,88 L3132,88 L3133,88 L3134,89 L3135,89 L3136,88 L3137,88 L3138,89 L3139,88 L3140,88 L3141,88 L3142,89 L3143,89 L3144,88 L3145,88 L3146,88 L3147,88 L3148,88 L3149,88 L3150,88 L3151,88 L3152,88 L3153,88 L3154,88 L3155,88 L3156,89 L3157,88 L3158,88 L3159,88 L3160,89 L3161,89 L3162,88 L3163,88 L3164,88 L3165,89 L3166,89 L3167,88 L3168,88 L3169,88 L3170,88 L3171,88 L3172,88 L3173,89 L3174,88 L3175,89 L3176,88 L3177,88 L3178,88 L3179,89 L3180,88 L3181,88 L3182,88 L3183,88 L3184,88 L3185,88 L3186,89 L3187,88 L3188,88 L3189,88 L3190,88 L3191,89 L3192,88 L3193,89 L3194,88 L3195,88 L3196,88 L3197,88 L3198,89 L3199,88 L3200,89 L3201,88 L3202,88 L3203,90 L3204,88 L3205,89 L3206,89 L3207,88 L3208,88 L3209,89 L3210,89 L3211,88 L3212,88 L3213,88 L3214,88 L3215,88 L3216,88 L3217,89 L3218,89 L3219,88 L3220,88 L3221,88 L3222,88 L3223,89 L3224,88 L3225,88 L3226,88 L3227,88 L3228,92 L3229,89 L3230,88 L3231,88 L3232,88 L3233,88 L3234,88 L3235,88 L3236,89 L3237,88 L3238,88 L3239,88 L3240,88 L3241,89 L3242,88 L3243,88 L3244,88 L3245,88 L3246,88 L3247,89 L3248,89 L3249,88 L3250,88 L3251,88 L3252,88 L3253,89 L3254,89 L3255,89 L3256,88 L3257,88 L3258,89 L3259,88 L3260,88 L3261,90 L3262,89 L3263,88 L3264,88 L3265,88 L3266,89 L3267,89 L3268,89 L3269,88 L3270,88 L3271,88 L3272,88 L3273,89 L3274,89 L3275,88 L3276,88 L3277,88 L3278,88 L3279,88 L3280,88 L3281,89 L3282,88 L3283,88 L3284,88 L3285,89 L3286,91 L3287,88 L3288,88 L3289,88 L3290,89 L3291,88 L3292,89 L3293,89 L3294,88 L3295,88 L3296,88 L3297,88 L3298,89 L3299,88 L3300,88 L3301,88 L3302,88 L3303,88 L3304,88 L3305,88 L3306,88 L3307,88 L3308,88 L3309,88 L3310,88 L3311,89 L3312,89 L3313,88 L3314,88 L3315,88 L3316,89 L3317,88 L3318,89 L3319,88 L3320,88 L3321,88 L3322,88 L3323,88 L3324,89 L3325,89 L3326,88 L3327,88 L3328,88 L3329,88 L3330,89 L3331,88 L3332,88 L3333,88 L3334,89 L3335,88 L3336,88 L3337,89 L3338,88 L3339,88 L3340,88 L3341,89 L3342,89 L3343,88 L3344,88 L3345,88 L3346,88 L3347,89 L3348,89 L3349,88 L3350,88 L3351,88 L3352,88 L3353,89 L3354,88 L3355,88 L3356,89 L3357,88 L3358,88 L3359,88 L3360,88 L3361,88 L3362,89 L3363,88 L3364,88 L3365,89 L3366,88 L3367,89 L3368,88 L3369,88 L3370,88 L3371,88 L3372,88 L3373,88 L3374,89 L3375,88 L3376,88 L3377,88 L3378,88 L3379,89 L3380,89 L3381,88 L3382,88 L3383,89 L3384,88 L3385,88 L3386,89 L3387,89 L3388,88 L3389,88 L3390,88 L3391,89 L3392,88 L3393,88 L3394,88 L3395,88 L3396,89 L3397,89 L3398,88 L3399,89 L3400,88 L3401,88 L3402,88 L3403,89 L3404,89 L3405,89 L3406,88 L3407,88 L3408,88 L3409,88 L3410,89 L3411,88 L3412,88 L3413,89 L3414,88 L3415,88 L3416,89 L3417,89 L3418,89 L3419,88 L3420,88 L3421,88 L3422,89 L3423,88 L3424,89 L3425,89 L3426,88 L3427,88 L3428,88 L3429,89 L3430,88 L3431,88 L3432,89 L3433,88 L3434,88 L3435,88 L3436,89 L3437,88 L3438,88 L3439,88 L3440,89 L3441,88 L3442,88 L3443,88 L3444,88 L3445,88 L3446,88 L3447,89 L3448,89 L3449,89 L3450,88 L3451,88 L3452,88 L3453,88 L3454,89 L3455,89 L3456,88 L3457,88 L3458,89 L3459,87 L3460,88 L3461,88 L3462,89 L3463,89 L3464,88 L3465,88 L3466,89 L3467,89 L3468,88 L3469,88 L3470,88 L3471,89 L3472,89 L3473,89 L3474,88 L3475,89 L3476,88 L3477,88 L3478,89 L3479,88 L3480,89 L3481,89 L3482,88 L3483,88 L3484,86 L3485,89 L3486,89 L3487,88 L3488,88 L3489,88 L3490,88 L3491,88 L3492,89 L3493,88 L3494,88 L3495,88 L3496,88 L3497,89 L3498,88 L3499,88 L3500,88 L3501,88 L3502,88 L3503,89 L3504,88 L3505,88 L3506,89 L3507,88 L3508,88 L3509,86 L3510,88 L3511,89 L3512,89 L3513,88 L3514,88 L3515,88 L3516,89 L3517,88 L3518,88 L3519,88 L3520,88 L3521,88 L3522,89 L3523,88 L3524,88 L3525,88 L3526,88 L3527,88 L3528,89 L3529,89 L3530,89 L3531,88 L3532,88 L3533,89 L3534,89 L3535,88 L3536,88 L3537,88 L3538,88 L3539,88 L3540,88 L3541,89 L3542,86 L3543,88 L3544,88 L3545,88 L3546,88 L3547,89 L3548,88 L3549,88 L3550,88 L3551,89 L3552,89 L3553,88 L3554,88 L3555,89 L3556,88 L3557,88 L3558,88 L3559,89 L3560,89 L3561,88 L3562,88 L3563,88 L3564,89 L3565,89 L3566,88 L3567,87 L3568,89 L3569,88 L3570,88 L3571,88 L3572,88 L3573,88 L3574,88 L3575,88 L3576,88 L3577,88 L3578,88 L3579,89 L3580,89 L3581,88 L3582,88 L3583,88 L3584,88 L3585,89 L3586,89 L3587,89 L3588,88 L3589,88 L3590,88 L3591,89 L3592,89 L3593,88 L3594,88 L3595,88 L3596,88 L3597,88 L3598,88 L3599,89 L3600,88 L3601,89 L3602,88 L3603,88 L3604,89 L3605,89 L3606,88 L3607,88 L3608,88 L3609,89 L3610,89 L3611,88 L3612,88 L3613,88 L3614,88 L3615,88 L3616,89 L3617,89 L3618,89 L3619,88 L3620,88 L3621,88 L3622,88 L3623,88 L3624,89 L3625,88 L3626,88 L3627,88 L3628,88 L3629,88 L3630,88 L3631,88 L3632,88 L3633,88 L3634,88 L3635,89 L3636,89 L3637,88 L3638,88 L3639,88 L3640,88 L3641,89 L3642,88 L3643,88 L3644,88 L3645,88 L3646,88 L3647,89 L3648,88 L3649,88 L3650,88 L3651,88 L3652,88 L3653,89 L3654,89 L3655,89 L3656,88 L3657,88 L3658,89 L3659,89 L3660,88 L3661,88 L3662,89 L3663,88 L3664,88 L3665,88 L3666,89 L3667,88 L3668,88 L3669,88 L3670,88 L3671,88 L3672,88 L3673,88 L3674,89 L3675,89 L3676,88 L3677,88 L3678,88 L3679,89 L3680,89 L3681,88 L3682,88 L3683,88 L3684,89 L3685,89 L3686,88 L3687,88 L3688,88 L3689,88 L3690,88 L3691,88 L3692,89 L3693,88 L3694,89 L3695,88 L3696,88 L3697,88 L3698,88 L3699,89 L3700,88 L3701,88 L3702,88 L3703,88 L3704,88 L3705,88 L3706,88 L3707,89 L3708,88 L3709,88 L3710,89 L3711,88 L3712,88 L3713,88 L3714,88 L3715,90 L3716,89 L3717,88 L3718,89 L3719,88 L3720,88 L3721,88 L3722,88 L3723,89 L3724,89 L3725,88 L3726,88 L3727,88 L3728,89 L3729,89 L3730,88 L3731,88 L3732,88 L3733,89 L3734,89 L3735,88 L3736,88 L3737,89 L3738,88 L3739,88 L3740,91 L3741,89 L3742,89 L3743,88 L3744,88 L3745,88 L3746,88 L3747,88 L3748,88 L3749,89 L3750,89 L3751,88 L3752,88 L3753,88 L3754,88 L3755,89 L3756,89 L3757,88 L3758,88 L3759,88 L3760,89 L3761,89 L3762,88 L3763,88 L3764,89 L3765,90 L3766,88 L3767,88 L3768,88 L3769,88 L3770,88 L3771,88 L3772,89 L3773,89 L3774,88 L3775,88 L3776,88 L3777,88 L3778,88 L3779,89 L3780,88 L3781,88 L3782,88 L3783,88 L3784,88 L3785,88 L3786,89 L3787,88 L3788,88 L3789,88 L3790,88 L3791,89 L3792,88 L3793,88 L3794,88 L3795,88 L3796,88 L3797,88 L3798,91 L3799,88 L3800,88 L3801,89 L3802,88 L3803,89 L3804,88 L3805,89 L3806,88 L3807,88 L3808,88 L3809,88 L3810,88 L3811,88 L3812,89 L3813,88 L3814,88 L3815,88 L3816,89 L3817,89 L3818,89 L3819,88 L3820,88 L3821,89 L3822,89 L3823,90 L3824,88 L3825,89 L3826,88 L3827,88 L3828,88 L3829,88 L3830,89 L3831,88 L3832,88 L3833,88 L3834,88 L3835,89 L3836,88 L3837,88 L3838,88 L3839,88 L3840,89 L3841,88 L3842,89 L3843,89 L3844,88 L3845,88 L3846,88 L3847,89 L3848,89 L3849,88 L3850,88 L3851,88 L3852,88 L3853,88 L3854,89 L3855,88 L3856,88 L3857,88 L3858,88 L3859,88 L3860,88 L3861,89 L3862,89 L3863,88 L3864,88 L3865,88 L3866,89 L3867,89 L3868,88 L3869,88 L3870,88 L3871,88 L3872,88 L3873,88 L3874,88 L3875,88 L3876,88 L3877,88 L3878,88 L3879,89 L3880,89 L3881,89 L3882,89 L3883,88 L3884,89 L3885,88 L3886,88 L3887,88 L3888,89 L3889,88 L3890,88 L3891,88 L3892,89 L3893,89 L3894,88 L3895,88 L3896,88 L3897,88 L3898,88 L3899,88 L3900,88 L3901,88 L3902,88 L3903,89 L3904,88 L3905,89 L3906,88 L3907,88 L3908,88 L3909,88 L3910,89 L3911,89 L3912,89 L3913,88 L3914,89 L3915,89 L3916,88 L3917,88 L3918,89 L3919,88 L3920,88 L3921,88 L3922,88 L3923,88 L3924,89 L3925,88 L3926,88 L3927,88 L3928,89 L3929,89 L3930,88 L3931,88 L3932,88 L3933,89 L3934,88 L3935,88 L3936,89 L3937,89 L3938,88 L3939,88 L3940,88 L3941,89 L3942,89 L3943,88 L3944,88 L3945,88 L3946,89 L3947,88 L3948,88 L3949,89 L3950,88 L3951,88 L3952,88 L3953,89 L3954,89 L3955,89 L3956,88 L3957,88 L3958,88 L3959,88 L3960,88 L3961,89 L3962,88 L3963,88 L3964,88 L3965,88 L3966,88 L3967,89 L3968,88 L3969,88 L3970,88 L3971,88 L3972,88 L3973,88 L3974,88 L3975,88 L3976,88 L3977,88 L3978,89 L3979,89 L3980,88 L3981,88 L3982,88 L3983,88 L3984,88 L3985,89 L3986,89 L3987,88 L3988,88 L3989,88 L3990,88 L3991,89 L3992,88 L3993,89 L3994,88 L3995,88 L3996,86 L3997,88 L3998,88 L3999,88 L4000,89 L4001,88 L4002,88 L4003,88 L4004,89 L4005,88 L4006,88 L4007,88 L4008,88 L4009,88 L4010,88 L4011,88 L4012,88 L4013,88 L4014,88 L4015,88 L4016,89 L4017,89 L4018,88 L4019,88 L4020,88 L4021,87 L4022,88 L4023,89 L4024,88 L4025,88 L4026,88 L4027,88 L4028,88 L4029,89 L4030,88 L4031,89 L4032,88 L4033,88 L4034,89 L4035,89 L4036,89 L4037,88 L4038,88 L4039,89 L4040,88 L4041,88 L4042,88 L4043,89 L4044,88 L4045,88 L4046,88 L4047,89 L4048,88 L4049,88 L4050,88 L4051,88 L4052,88 L4053,89 L4054,86 L4055,88 L4056,88 L4057,88 L4058,88 L4059,88 L4060,88 L4061,89 L4062,88 L4063,88 L4064,88 L4065,88 L4066,89 L4067,88 L4068,88 L4069,88 L4070,88 L4071,88 L4072,89 L4073,88 L4074,88 L4075,88 L4076,88 L4077,88 L4078,89 L4079,86 L4080,89 L4081,88 L4082,88 L4083,89 L4084,88 L4085,89 L4086,88 L4087,88 L4088,88 L4089,88 L4090,88 L4091,89 L4092,89 L4093,88 L4094,88 L4095,88 "/>
<path stroke="cyan" fill="none" stroke-width="1" d="M0,221 L1,221 L2,220 L3,218 L4,218 L5,218 L6,220 L7,220 L8,220 L9,220 L10,220 L11,220 L12,220 L13,220 L14,220 L15,221 L16,220 L17,220 L18,221 L19,220 L20,220 L21,220 L22,221 L23,221 L24,220 L25,220 L26,218 L27,218 L28,218 L29,218 L30,218 L31,218 L32,218 L33,218 L34,220 L35,218 L36,218 L37,218 L38,220 L39,218 L40,220 L41,220 L42,220 L43,220 L44,221 L45,221 L46,220 L47,220 L48,220 L49,221 L50,220 L51,220 L52,220 L53,220 L54,220 L55,220 L56,220 L57,220 L58,218 L59,218 L60,218 L61,220 L62,220 L63,218 L64,218 L65,218 L66,218 L67,220 L68,220 L69,218 L70,220 L71,220 L72,220 L73,220 L74,220 L75,220 L76,220 L77,220 L78,221 L79,221 L80,220 L81,220 L82,220 L83,220 L84,220 L85,220 L86,220 L87,218 L88,218 L89,220 L90,220 L91,218 L92,218 L93,218 L94,220 L95,220 L96,218 L97,218 L98,218 L99,218 L100,218 L101,220 L102,220 L103,220 L104,220 L105,220 L106,221 L107,220 L108,220 L109,220 L110,221 L111,220 L112,220 L113,221 L114,220 L115,220 L116,221 L117,221 L118,218 L119,218 L120,218 L121,218 L122,218 L123,218 L124,220 L125,220 L126,218 L127,220 L128,220 L129,220 L130,218 L131,220 L132,220 L133,220 L134,221 L135,221 L136,220 L137,220 L138,221 L139,221 L140,221 L141,220 L142,220 L143,221 L144,220 L145,221 L146,221 L147,221 L148,220 L149,220 L150,218 L151,218 L152,219 L153,219 L154,218 L155,218 L156,218 L157,220 L158,220 L159,218 L160,218 L161,220 L162,220 L163,218 L164,220 L165,220 L166,220 L167,220 L168,221 L169,221 L170,220 L171,220 L172,220 L173,220 L174,220 L175,220 L176,221 L177,221 L178,220 L179,221 L180,220 L181,218 L182,219 L183,219 L184,218 L185,218 L186,219 L187,218 L188,218 L189,218 L190,218 L191,220 L192,218 L193,218 L194,220 L195,221 L196,220 L197,218 L198,220 L199,220 L200,220 L201,220 L202,220 L203,220 L204,220 L205,220 L206,221 L207,220 L208,220 L209,220 L210,220 L211,220 L212,218 L213,218 L214,218 L215,218 L216,218 L217,220 L218,218 L219,218 L220,218 L221,220 L222,220 L223,218 L224,218 L225,220 L226,220 L227,220 L228,221 L229,221 L230,221 L231,220 L232,221 L233,221 L234,220 L235,220 L236,220 L237,220 L238,220 L239,221 L240,221 L241,221 L242,220 L243,218 L244,218 L245,218 L246,219 L247,219 L248,218 L249,218 L250,218 L251,220 L252,218 L253,218 L254,218 L255,220 L256,221 L257,221 L258,220 L259,220 L260,221 L261,220 L262,221 L263,220 L264,220 L265,220 L266,221 L267,221 L268,220 L269,220 L270,221 L271,221 L272,221 L273,220 L274,218 L275,218 L276,219 L277,218 L278,218 L279,218 L280,218 L281,218 L282,220 L283,220 L284,218 L285,218 L286,218 L287,218 L288,218 L289,220 L290,220 L291,220 L292,220 L293,221 L294,221 L295,220 L296,220 L297,220 L298,220 L299,220 L300,221 L301,221 L302,220 L303,220 L304,220 L305,221 L306,220 L307,220 L308,221 L309,220 L310,220 L311,221 L312,220 L313,220 L314,220 L315,221 L316,221 L317,220 L318,220 L319,220 L320,218 L321,220 L322,218 L323,218 L324,218 L325,218 L326,220 L327,218 L328,218 L329,219 L330,218 L331,218 L332,220 L333,220 L334,221 L335,220 L336,220 L337,220 L338,220 L339,221 L340,220 L341,220 L342,220 L343,220 L344,220 L345,220 L346,221 L347,220 L348,220 L349,221 L350,220 L351,218 L352,218 L353,218 L354,218 L355,218 L356,218 L357,218 L358,218 L359,218 L360,220 L361,220 L362,218 L363,218 L364,220 L365,220 L366,220 L367,221 L368,221 L369,220 L370,220 L371,220 L372,221 L373,220 L374,218 L375,220 L376,220 L377,220 L378,220 L379,220 L380,220 L381,218 L382,219 L383,218 L384,218 L385,218 L386,218 L387,218 L388,220 L389,218 L390,218 L391,218 L392,218 L393,218 L394,218 L395,220 L396,220 L397,220 L398,221 L399,221 L400,220 L401,220 L402,220 L403,221 L404,220 L405,221 L406,221 L407,220 L408,220 L409,220 L410,221 L411,221 L412,218 L413,218 L414,218 L415,218 L416,218 L417,218 L418,218 L419,219 L420,218 L421,218 L422,220 L423,218 L424,218 L425,220 L426,220 L427,220 L428,220 L429,220 L430,220 L431,218 L432,220 L433,220 L434,220 L435,218 L436,220 L437,221 L438,220 L439,221 L440,221 L441,220 L442,220 L443,220 L444,220 L445,218 L446,219 L447,218 L448,220 L449,218 L450,218 L451,218 L452,218 L453,218 L454,218 L455,220 L456,218 L457,218 L458,220 L459,221 L460,221 L461,220 L462,220 L463,220 L464,220 L465,220 L466,221 L467,220 L468,220 L469,220 L470,221 L471,221 L472,220 L473,221 L474,220 L475,218 L476,218 L477,220 L478,218 L479,218 L480,218 L481,218 L482,220 L483,219 L484,219 L485,218 L486,218 L487,219 L488,220 L489,220 L490,220 L491,220 L492,221 L493,220 L494,220 L495,218 L496,218 L497,220 L498,220 L499,221 L500,221 L501,220 L502,220 L503,220 L504,220 L505,218 L506,219 L507,218 L508,218 L509,218 L510,220 L511,218 L512,218 L513,218 L514,218 L515,218 L516,218 L517,219 L518,218 L519,220 L520,220 L521,220 L522,221 L523,221 L524,218 L525,218 L526,220 L527,220 L528,220 L529,218 L530,220 L531,221 L532,220 L533,220 L534,220 L535,220 L536,218 L537,218 L538,220 L539,218 L540,218 L541,220 L542,220 L543,220 L544,220 L545,218 L546,218 L547,218 L548,218 L549,220 L550,220 L551,220 L552,220 L553,221 L554,221 L555,220 L556,220 L557,220 L558,220 L559,220 L560,220 L561,220 L562,220 L563,221 L564,221 L565,221 L566,220 L567,218 L568,218 L569,218 L570,218 L571,220 L572,220 L573,218 L574,218 L575,220 L576,220 L577,218 L578,218 L579,218 L580,218 L581,220 L582,220 L583,220 L584,220 L585,220 L586,220 L587,220 L588,220 L589,218 L590,220 L591,220 L592,220 L593,221 L594,221 L595,220 L596,220 L597,220 L598,218 L599,218 L600,219 L601,218 L602,218 L603,218 L604,218 L605,218 L606,218 L607,218 L608,218 L609,220 L610,220 L611,218 L612,220 L613,220 L614,220 L615,221 L616,220 L617,220 L618,220 L619,220 L620,221 L621,221 L622,220 L623,218 L624,220 L625,221 L626,220 L627,220 L628,221 L629,220 L630,218 L631,220 L632,220 L633,218 L634,219 L635,218 L636,220 L637,220 L638,218 L639,218 L640,218 L641,219 L642,218 L643,220 L644,220 L645,220 L646,221 L647,221 L648,220 L649,220 L650,220 L651,220 L652,220 L653,220 L654,221 L655,220 L656,220 L657,220 L658,220 L659,221 L660,220 L661,220 L662,220 L663,218 L664,218 L665,220 L666,218 L667,218 L668,218 L669,220 L670,220 L671,218 L672,218 L673,218 L674,220 L675,220 L676,221 L677,221 L678,220 L679,218 L680,220 L681,220 L682,220 L683,220 L684,220 L685,221 L686,220 L687,220 L688,220 L689,220 L690,220 L691,218 L692,218 L693,218 L694,219 L695,219 L696,218 L697,218 L698,218 L699,220 L700,218 L701,218 L702,218 L703,220 L704,220 L705,218 L706,220 L707,220 L708,221 L709,220 L710,220 L711,220 L712,220 L713,220 L714,221 L715,221 L716,220 L717,220 L718,220 L719,220 L720,220 L721,220 L722,220 L723,218 L724,218 L725,218 L726,218 L727,218 L728,218 L729,218 L730,220 L731,218 L732,218 L733,220 L734,220 L735,218 L736,220 L737,220 L738,220 L739,220 L740,220 L741,220 L742,221 L743,220 L744,218 L745,220 L746,218 L747,220 L748,221 L749,221 L750,220 L751,220 L752,221 L753,220 L754,219 L755,219 L756,218 L757,218 L758,218 L759,218 L760,218 L761,219 L762,219 L763,218 L764,220 L765,220 L766,218 L767,220 L768,220 L769,220 L770,221 L771,221 L772,220 L773,220 L774,221 L775,221 L776,221 L777,220 L778,220 L779,220 L780,220 L781,220 L782,220 L783,220 L784,218 L785,218 L786,220 L787,220 L788,218 L789,218 L790,220 L791,220 L792,218 L793,220 L794,218 L795,218 L796,218 L797,218 L798,220 L799,218 L800,220 L801,221 L802,221 L803,220 L804,220 L805,220 L806,220 L807,220 L808,220 L809,220 L810,218 L811,218 L812,220 L813,220 L814,220 L815,218 L816,218 L817,220 L818,218 L819,218 L820,218 L821,218 L822,219 L823,218 L824,220 L825,220 L826,218 L827,218 L828,218 L829,218 L830,220 L831,220 L832,221 L833,220 L834,218 L835,220 L836,221 L837,220 L838,220 L839,220 L840,220 L841,220 L842,220 L843,220 L844,220 L845,220 L846,220 L847,218 L848,218 L849,218 L850,218 L851,218 L852,218 L853,220 L854,220 L855,220 L856,220 L857,220 L858,220 L859,220 L860,220 L861,220 L862,221 L863,220 L864,220 L865,220 L866,220 L867,220 L868,221 L869,223 L870,221 L871,220 L872,220 L873,220 L874,220 L875,220 L876,220 L877,218 L878,219 L879,220 L880,220 L881,220 L882,218 L883,218 L884,220 L885,218 L886,218 L887,218 L888,220 L889,220 L890,218 L891,220 L892,221 L893,220 L894,220 L895,220 L896,221 L897,221 L898,221 L899,220 L900,220 L901,218 L902,220 L903,220 L904,220 L905,220 L906,221 L907,221 L908,220 L909,218 L910,218 L911,218 L912,219 L913,218 L914,218 L915,218 L916,219 L917,218 L918,220 L919,220 L920,218 L921,218 L922,220 L923,220 L924,220 L925,221 L926,220 L927,220 L928,220 L929,221 L930,221 L931,220 L932,220 L933,220 L934,221 L935,220 L936,221 L937,221 L938,220 L939,218 L940,220 L941,220 L942,220 L943,218 L944,218 L945,220 L946,218 L947,218 L948,220 L949,218 L950,218 L951,218 L952,218 L953,220 L954,218 L955,220 L956,220 L957,221 L958,220 L959,220 L960,220 L961,220 L962,218 L963,220 L964,220 L965,218 L966,218 L967,220 L968,221 L969,220 L970,220 L971,220 L972,218 L973,219 L974,218 L975,218 L976,218 L977,218 L978,218 L979,220 L980,220 L981,220 L982,220 L983,218 L984,218 L985,220 L986,220 L987,220 L988,220 L989,220 L990,220 L991,220 L992,218 L993,220 L994,220 L995,220 L996,220 L997,220 L998,220 L999,218 L1000,220 L1001,218 L1002,220 L1003,218 L1004,218 L1005,218 L1006,218 L1007,218 L1008,220 L1009,220 L1010,218 L1011,218 L1012,220 L1013,220 L1014,218 L1015,220 L1016,220 L1017,220 L1018,220 L1019,221 L1020,220 L1021,220 L1022,220 L1023,220 L1024,221 L1025,221 L1026,220 L1027,220 L1028,221 L1029,221 L1030,220 L1031,220 L1032,218 L1033,218 L1034,220 L1035,218 L1036,218 L1037,219 L1038,219 L1039,218 L1040,220 L1041,220 L1042,220 L1043,220 L1044,218 L1045,218 L1046,220 L1047,220 L1048,218 L1049,220 L1050,221 L1051,221 L1052,220 L1053,220 L1054,220 L1055,220 L1056,218 L1057,220 L1058,220 L1059,218 L1060,220 L1061,221 L1062,221 L1063,218 L1064,218 L1065,218 L1066,218 L1067,219 L1068,218 L1069,218 L1070,218 L1071,219 L1072,218 L1073,218 L1074,218 L1075,218 L1076,220 L1077,220 L1078,220 L1079,220 L1080,221 L1081,220 L1082,220 L1083,220 L1084,221 L1085,221 L1086,220 L1087,220 L1088,220 L1089,220 L1090,221 L1091,221 L1092,221 L1093,220 L1094,218 L1095,220 L1096,220 L1097,218 L1098,218 L1099,218 L1100,220 L1101,218 L1102,220 L1103,220 L1104,218 L1105,218 L1106,220 L1107,220 L1108,218 L1109,218 L1110,218 L1111,220 L1112,220 L1113,220 L1114,220 L1115,220 L1116,218 L1117,220 L1118,221 L1119,220 L1120,218 L1121,220 L1122,220 L1123,220 L1124,220 L1125,218 L1126,218 L1127,218 L1128,218 L1129,218 L1130,218 L1131,218 L1132,218 L1133,220 L1134,218 L1135,218 L1136,220 L1137,218 L1138,218 L1139,220 L1140,220 L1141,220 L1142,220 L1143,220 L1144,220 L1145,220 L1146,220 L1147,220 L1148,220 L1149,220 L1150,220 L1151,220 L1152,220 L1153,220 L1154,220 L1155,220 L1156,220 L1157,220 L1158,218 L1159,218 L1160,218 L1161,218 L1162,220 L1163,218 L1164,218 L1165,219 L1166,218 L1167,220 L1168,220 L1169,218 L1170,220 L1171,220 L1172,220 L1173,220 L1174,221 L1175,220 L1176,220 L1177,220 L1178,220 L1179,221 L1180,220 L1181,220 L1182,220 L1183,220 L1184,220 L1185,221 L1186,220 L1187,218 L1188,218 L1189,218 L1190,220 L1191,218 L1192,218 L1193,218 L1194,218 L1195,218 L1196,218 L1197,218 L1198,218 L1199,218 L1200,218 L1201,220 L1202,220 L1203,220 L1204,220 L1205,221 L1206,220 L1207,220 L1208,220 L1209,220 L1210,220 L1211,220 L1212,221 L1213,220 L1214,220 L1215,220 L1216,221 L1217,220 L1218,218 L1219,218 L1220,218 L1221,218 L1222,218 L1223,220 L1224,220 L1225,218 L1226,218 L1227,220 L1228,218 L1229,218 L1230,218 L1231,220 L1232,220 L1233,220 L1234,220 L1235,221 L1236,220 L1237,220 L1238,220 L1239,221 L1240,220 L1241,220 L1242,220 L1243,220 L1244,220 L1245,221 L1246,221 L1247,220 L1248,218 L1249,218 L1250,220 L1251,220 L1252,218 L1253,218 L1254,218 L1255,218 L1256,218 L1257,220 L1258,220 L1259,218 L1260,220 L1261,220 L1262,220 L1263,220 L1264,220 L1265,220 L1266,221 L1267,220 L1268,221 L1269,220 L1270,220 L1271,220 L1272,220 L1273,221 L1274,220 L1275,220 L1276,220 L1277,220 L1278,221 L1279,221 L1280,218 L1281,218 L1282,218 L1283,218 L1284,220 L1285,218 L1286,219 L1287,218 L1288,220 L1289,218 L1290,218 L1291,220 L1292,218 L1293,218 L1294,220 L1295,220 L1296,220 L1297,220 L1298,220 L1299,221 L1300,221 L1301,220 L1302,220 L1303,221 L1304,220 L1305,221 L1306,221 L1307,221 L1308,220 L1309,220 L1310,220 L1311,220 L1312,218 L1313,218 L1314,218 L1315,218 L1316,218 L1317,218 L1318,220 L1319,218 L1320,218 L1321,218 L1322,220 L1323,220 L1324,218 L1325,220 L1326,220 L1327,220 L1328,221 L1329,221 L1330,220 L1331,220 L1332,220 L1333,221 L1334,220 L1335,220 L1336,220 L1337,220 L1338,220 L1339,221 L1340,221 L1341,220 L1342,218 L1343,218 L1344,220 L1345,218 L1346,218 L1347,218 L1348,218 L1349,218 L1350,218 L1351,220 L1352,220 L1353,218 L1354,218 L1355,220 L1356,221 L1357,220 L1358,220 L1359,221 L1360,220 L1361,220 L1362,220 L1363,220 L1364,220 L1365,220 L1366,220 L1367,221 L1368,220 L1369,220 L1370,220 L1371,221 L1372,220 L1373,220 L1374,220 L1375,218 L1376,218 L1377,218 L1378,218 L1379,220 L1380,218 L1381,218 L1382,218 L1383,218 L1384,218 L1385,218 L1386,218 L1387,220 L1388,220 L1389,221 L1390,220 L1391,220 L1392,220 L1393,220 L1394,220 L1395,220 L1396,220 L1397,221 L1398,220 L1399,220 L1400,221 L1401,220 L1402,220 L1403,220 L1404,220 L1405,220 L1406,218 L1407,218 L1408,218 L1409,218 L1410,218 L1411,220 L1412,218 L1413,218 L1414,218 L1415,218 L1416,220 L1417,218 L1418,220 L1419,220 L1420,220 L1421,220 L1422,220 L1423,221 L1424,220 L1425,220 L1426,220 L1427,221 L1428,220 L1429,220 L1430,220 L1431,220 L1432,220 L1433,221 L1434,220 L1435,218 L1436,219 L1437,218 L1438,218 L1439,218 L1440,218 L1441,218 L1442,220 L1443,220 L1444,218 L1445,220 L1446,220 L1447,218 L1448,218 L1449,220 L1450,221 L1451,220 L1452,220 L1453,220 L1454,221 L1455,220 L1456,220 L1457,221 L1458,220 L1459,220 L1460,220 L1461,221 L1462,220 L1463,220 L1464,221 L1465,220 L1466,220 L1467,220 L1468,218 L1469,220 L1470,218 L1471,220 L1472,220 L1473,218 L1474,218 L1475,218 L1476,220 L1477,220 L1478,218 L1479,220 L1480,220 L1481,220 L1482,220 L1483,221 L1484,221 L1485,220 L1486,220 L1487,220 L1488,221 L1489,220 L1490,220 L1491,220 L1492,220 L1493,220 L1494,221 L1495,221 L1496,220 L1497,218 L1498,220 L1499,220 L1500,218 L1501,218 L1502,218 L1503,218 L1504,218 L1505,220 L1506,220 L1507,218 L1508,218 L1509,218 L1510,220 L1511,220 L1512,220 L1513,220 L1514,220 L1515,220 L1516,220 L1517,221 L1518,220 L1519,220 L1520,220 L1521,221 L1522,220 L1523,220 L1524,220 L1525,220 L1526,221 L1527,220 L1528,220 L1529,218 L1530,218 L1531,218 L1532,218 L1533,220 L1534,218 L1535,218 L1536,218 L1537,220 L1538,218 L1539,218 L1540,218 L1541,218 L1542,220 L1543,220 L1544,220 L1545,220 L1546,218 L1547,220 L1548,220 L1549,220 L1550,220 L1551,220 L1552,220 L1553,220 L1554,220 L1555,221 L1556,220 L1557,220 L1558,220 L1559,220 L1560,218 L1561,218 L1562,218 L1563,218 L1564,218 L1565,220 L1566,220 L1567,218 L1568,218 L1569,218 L1570,220 L1571,220 L1572,218 L1573,220 L1574,220 L1575,220 L1576,220 L1577,220 L1578,220 L1579,220 L1580,220 L1581,221 L1582,220 L1583,220 L1584,220 L1585,220 L1586,220 L1587,220 L1588,221 L1589,220 L1590,218 L1591,218 L1592,218 L1593,220 L1594,218 L1595,218 L1596,218 L1597,218 L1598,218 L1599,220 L1600,220 L1601,218 L1602,218 L1603,220 L1604,220 L1605,220 L1606,220 L1607,220 L1608,220 L1609,220 L1610,220 L1611,221 L1612,220 L1613,218 L1614,220 L1615,221 L1616,221 L1617,220 L1618,220 L1619,221 L1620,220 L1621,218 L1622,220 L1623,218 L1624,218 L1625,218 L1626,218 L1627,220 L1628,218 L1629,218 L1630,220 L1631,220 L1632,218 L1633,220 L1634,218 L1635,220 L1636,220 L1637,221 L1638,221 L1639,220 L1640,220 L1641,220 L1642,221 L1643,220 L1644,220 L1645,220 L1646,220 L1647,220 L1648,220 L1649,221 L1650,221 L1651,218 L1652,218 L1653,220 L1654,220 L1655,218 L1656,218 L1657,218 L1658,218 L1659,218 L1660,220 L1661,220 L1662,218 L1663,218 L1664,220 L1665,220 L1666,220 L1667,220 L1668,220 L1669,221 L1670,220 L1671,221 L1672,220 L1673,220 L1674,220 L1675,221 L1676,221 L1677,220 L1678,220 L1679,220 L1680,220 L1681,220 L1682,220 L1683,220 L1684,218 L1685,219 L1686,218 L1687,220 L1688,220 L1689,218 L1690,218 L1691,218 L1692,218 L1693,220 L1694,220 L1695,218 L1696,218 L1697,220 L1698,221 L1699,221 L1700,220 L1701,220 L1702,220 L1703,220 L1704,220 L1705,221 L1706,221 L1707,220 L1708,220 L1709,220 L1710,220 L1711,220 L1712,221 L1713,220 L1714,218 L1715,218 L1716,218 L1717,218 L1718,218 L1719,219 L1720,220 L1721,220 L1722,218 L1723,218 L1724,220 L1725,220 L1726,218 L1727,220 L1728,220 L1729,220 L1730,220 L1731,221 L1732,220 L1733,220 L1734,220 L1735,220 L1736,220 L1737,220 L1738,220 L1739,220 L1740,220 L1741,220 L1742,220 L1743,223 L1744,220 L1745,218 L1746,218 L1747,220 L1748,220 L1749,218 L1750,218 L1751,218 L1752,218 L1753,218 L1754,220 L1755,220 L1756,218 L1757,218 L1758,220 L1759,220 L1760,220 L1761,220 L1762,220 L1763,220 L1764,220 L1765,220 L1766,220 L1767,220 L1768,220 L1769,221 L1770,221 L1771,220 L1772,220 L1773,220 L1774,220 L1775,220 L1776,220 L1777,220 L1778,220 L1779,218 L1780,218 L1781,220 L1782,218 L1783,218 L1784,218 L1785,218 L1786,220 L1787,220 L1788,220 L1789,220 L1790,220 L1791,220 L1792,221 L1793,221 L1794,220 L1795,220 L1796,221 L1797,220 L1798,220 L1799,220 L1800,220 L1801,220 L1802,220 L1803,220 L1804,221 L1805,221 L1806,218 L1807,220 L1808,220 L1809,220 L1810,218 L1811,218 L1812,220 L1813,218 L1814,218 L1815,220 L1816,218 L1817,218 L1818,218 L1819,218 L1820,220 L1821,220 L1822,220 L1823,220 L1824,220 L1825,220 L1826,221 L1827,220 L1828,220 L1829,220 L1830,221 L1831,220 L1832,220 L1833,220 L1834,220 L1835,221 L1836,221 L1837,220 L1838,218 L1839,218 L1840,218 L1841,218 L1842,220 L1843,218 L1844,218 L1845,218 L1846,220 L1847,218 L1848,220 L1849,220 L1850,218 L1851,218 L1852,220 L1853,220 L1854,221 L1855,220 L1856,220 L1857,220 L1858,220 L1859,220 L1860,221 L1861,220 L1862,220 L1863,220 L1864,221 L1865,220 L1866,220 L1867,221 L1868,220 L1869,220 L1870,218 L1871,220 L1872,218 L1873,218 L1874,218 L1875,220 L1876,220 L1877,218 L1878,218 L1879,220 L1880,220 L1881,218 L1882,220 L1883,220 L1884,220 L1885,220 L1886,221 L1887,220 L1888,220 L1889,220 L1890,220 L1891,221 L1892,220 L1893,221 L1894,221 L1895,220 L1896,220 L1897,220 L1898,221 L1899,218 L1900,219 L1901,218 L1902,220 L1903,218 L1904,218 L1905,218 L1906,218 L1907,218 L1908,218 L1909,220 L1910,220 L1911,218 L1912,218 L1913,220 L1914,221 L1915,220 L1916,220 L1917,220 L1918,220 L1919,220 L1920,221 L1921,220 L1922,220 L1923,220 L1924,220 L1925,220 L1926,220 L1927,220 L1928,220 L1929,221 L1930,220 L1931,220 L1932,218 L1933,218 L1934,218 L1935,218 L1936,220 L1937,218 L1938,218 L1939,218 L1940,218 L1941,218 L1942,220 L1943,220 L1944,220 L1945,220 L1946,220 L1947,221 L1948,221 L1949,218 L1950,220 L1951,220 L1952,221 L1953,220 L1954,220 L1955,221 L1956,220 L1957,220 L1958,221 L1959,221 L1960,220 L1961,220 L1962,220 L1963,220 L1964,218 L1965,218 L1966,218 L1967,218 L1968,218 L1969,220 L1970,220 L1971,218 L1972,218 L1973,218 L1974,220 L1975,220 L1976,220 L1977,220 L1978,220 L1979,220 L1980,221 L1981,221 L1982,221 L1983,218 L1984,220 L1985,221 L1986,221 L1987,220 L1988,220 L1989,220 L1990,220 L1991,221 L1992,220 L1993,218 L1994,218 L1995,218 L1996,220 L1997,218 L1998,218 L1999,218 L2000,218 L2001,218 L2002,218 L2003,220 L2004,218 L2005,218 L2006,220 L2007,220 L2008,220 L2009,221 L2010,220 L2011,220 L2012,220 L2013,221 L2014,221 L2015,221 L2016,220 L2017,220 L2018,221 L2019,220 L2020,220 L2021,220 L2022,220 L2023,218 L2024,218 L2025,220 L2026,220 L2027,218 L2028,218 L2029,218 L2030,220 L2031,220 L2032,218 L2033,218 L2034,220 L2035,218 L2036,220 L2037,220 L2038,220 L2039,220 L2040,221 L2041,221 L2042,221 L2043,220 L2044,220 L2045,220 L2046,220 L2047,220 L2048,220 L2049,220 L2050,220 L2051,220 L2052,220 L2053,221 L2054,218 L2055,218 L2056,220 L2057,220 L2058,218 L2059,218 L2060,218 L2061,218 L2062,218 L2063,220 L2064,220 L2065,218 L2066,218 L2067,220 L2068,220 L2069,220 L2070,220 L2071,220 L2072,220 L2073,220 L2074,220 L2075,221 L2076,220 L2077,220 L2078,220 L2079,221 L2080,221 L2081,220 L2082,220 L2083,220 L2084,220 L2085,220 L2086,220 L2087,220 L2088,218 L2089,218 L2090,220 L2091,220 L2092,220 L2093,218 L2094,218 L2095,218 L2096,218 L2097,220 L2098,220 L2099,220 L2100,220 L2101,220 L2102,221 L2103,220 L2104,220 L2105,220 L2106,220 L2107,220 L2108,220 L2109,220 L2110,220 L2111,220 L2112,221 L2113,221 L2114,220 L2115,220 L2116,220 L2117,220 L2118,218 L2119,220 L2120,218 L2121,218 L2122,218 L2123,218 L2124,220 L2125,218 L2126,219 L2127,218 L2128,220 L2129,220 L2130,220 L2131,220 L2132,220 L2133,221 L2134,220 L2135,221 L2136,221 L2137,220 L2138,220 L2139,220 L2140,220 L2141,220 L2142,220 L2143,220 L2144,220 L2145,220 L2146,221 L2147,220 L2148,218 L2149,218 L2150,218 L2151,218 L2152,218 L2153,218 L2154,220 L2155,220 L2156,218 L2157,220 L2158,220 L2159,218 L2160,218 L2161,220 L2162,220 L2163,220 L2164,220 L2165,220 L2166,220 L2167,220 L2168,220 L2169,221 L2170,220 L2171,220 L2172,220 L2173,220 L2174,221 L2175,220 L2176,220 L2177,220 L2178,220 L2179,218 L2180,220 L2181,220 L2182,218 L2183,218 L2184,218 L2185,220 L2186,220 L2187,218 L2188,220 L2189,220 L2190,218 L2191,220 L2192,220 L2193,220 L2194,220 L2195,221 L2196,221 L2197,220 L2198,220 L2199,220 L2200,220 L2201,220 L2202,220 L2203,221 L2204,220 L2205,220 L2206,220 L2207,221 L2208,221 L2209,218 L2210,218 L2211,220 L2212,218 L2213,218 L2214,218 L2215,218 L2216,218 L2217,218 L2218,220 L2219,218 L2220,218 L2221,218 L2222,220 L2223,220 L2224,220 L2225,220 L2226,221 L2227,220 L2228,220 L2229,221 L2230,221 L2231,220 L2232,220 L2233,220 L2234,221 L2235,221 L2236,220 L2237,220 L2238,220 L2239,220 L2240,220 L2241,220 L2242,218 L2243,219 L2244,218 L2245,220 L2246,218 L2247,218 L2248,218 L2249,218 L2250,218 L2251,220 L2252,218 L2253,220 L2254,218 L2255,220 L2256,221 L2257,221 L2258,220 L2259,220 L2260,220 L2261,220 L2262,220 L2263,220 L2264,220 L2265,220 L2266,220 L2267,221 L2268,221 L2269,220 L2270,220 L2271,220 L2272,218 L2273,220 L2274,218 L2275,218 L2276,218 L2277,218 L2278,220 L2279,220 L2280,220 L2281,219 L2282,218 L2283,220 L2284,220 L2285,220 L2286,220 L2287,220 L2288,220 L2289,220 L2290,221 L2291,221 L2292,220 L2293,220 L2294,220 L2295,221 L2296,220 L2297,221 L2298,221 L2299,220 L2300,220 L2301,221 L2302,220 L2303,218 L2304,218 L2305,220 L2306,218 L2307,218 L2308,218 L2309,218 L2310,218 L2311,218 L2312,218 L2313,218 L2314,218 L2315,218 L2316,220 L2317,220 L2318,221 L2319,220 L2320,220 L2321,220 L2322,220 L2323,221 L2324,221 L2325,220 L2326,220 L2327,220 L2328,221 L2329,221 L2330,220 L2331,220 L2332,220 L2333,218 L2334,218 L2335,220 L2336,218 L2337,218 L2338,218 L2339,218 L2340,220 L2341,218 L2342,218 L2343,218 L2344,218 L2345,218 L2346,220 L2347,220 L2348,220 L2349,220 L2350,221 L2351,221 L2352,220 L2353,220 L2354,220 L2355,221 L2356,220 L2357,220 L2358,220 L2359,220 L2360,220 L2361,220 L2362,221 L2363,220 L2364,218 L2365,218 L2366,220 L2367,220 L2368,220 L2369,220 L2370,218 L2371,218 L2372,218 L2373,220 L2374,220 L2375,218 L2376,218 L2377,220 L2378,220 L2379,220 L2380,220 L2381,221 L2382,220 L2383,220 L2384,220 L2385,220 L2386,220 L2387,220 L2388,220 L2389,220 L2390,220 L2391,220 L2392,220 L2393,220 L2394,220 L2395,220 L2396,220 L2397,218 L2398,218 L2399,218 L2400,220 L2401,218 L2402,219 L2403,218 L2404,218 L2405,218 L2406,220 L2407,220 L2408,218 L2409,218 L2410,220 L2411,221 L2412,221 L2413,220 L2414,220 L2415,220 L2416,220 L2417,220 L2418,221 L2419,220 L2420,220 L2421,220 L2422,220 L2423,220 L2424,220 L2425,220 L2426,218 L2427,220 L2428,218 L2429,220 L2430,218 L2431,218 L2432,218 L2433,218 L2434,220 L2435,218 L2436,219 L2437,218 L2438,220 L2439,218 L2440,220 L2441,220 L2442,220 L2443,220 L2444,220 L2445,221 L2446,220 L2447,220 L2448,220 L2449,220 L2450,220 L2451,220 L2452,220 L2453,220 L2454,220 L2455,220 L2456,221 L2457,220 L2458,218 L2459,218 L2460,218 L2461,220 L2462,218 L2463,218 L2464,218 L2465,218 L2466,218 L2467,220 L2468,220 L2469,218 L2470,218 L2471,220 L2472,221 L2473,221 L2474,220 L2475,220 L2476,220 L2477,220 L2478,220 L2479,221 L2480,220 L2481,220 L2482,220 L2483,221 L2484,221 L2485,220 L2486,221 L2487,220 L2488,218 L2489,218 L2490,220 L2491,218 L2492,218 L2493,218 L2494,220 L2495,220 L2496,218 L2497,218 L2498,218 L2499,220 L2500,218 L2501,220 L2502,220 L2503,220 L2504,220 L2505,221 L2506,221 L2507,220 L2508,220 L2509,220 L2510,221 L2511,220 L2512,220 L2513,220 L2514,220 L2515,220 L2516,220 L2517,221 L2518,220 L2519,218 L2520,218 L2521,220 L2522,220 L2523,218 L2524,220 L2525,220 L2526,218 L2527,218 L2528,220 L2529,220 L2530,218 L2531,218 L2532,218 L2533,220 L2534,220 L2535,220 L2536,221 L2537,220 L2538,220 L2539,221 L2540,221 L2541,220 L2542,220 L2543,220 L2544,220 L2545,220 L2546,220 L2547,220 L2548,220 L2549,220 L2550,220 L2551,220 L2552,218 L2553,218 L2554,218 L2555,220 L2556,218 L2557,218 L2558,218 L2559,220 L2560,218 L2561,218 L2562,220 L2563,218 L2564,218 L2565,220 L2566,220 L2567,221 L2568,220 L2569,220 L2570,221 L2571,220 L2572,221 L2573,221 L2574,220 L2575,220 L2576,220 L2577,221 L2578,221 L2579,220 L2580,220 L2581,220 L2582,220 L2583,218 L2584,220 L2585,220 L2586,218 L2587,218 L2588,218 L2589,220 L2590,218 L2591,218 L2592,218 L2593,218 L2594,218 L2595,220 L2596,220 L2597,220 L2598,220 L2599,221 L2600,221 L2601,220 L2602,220 L2603,220 L2604,221 L2605,220 L2606,220 L2607,220 L2608,220 L2609,220 L2610,221 L2611,221 L2612,218 L2613,218 L2614,218 L2615,220 L2616,220 L2617,218 L2618,218 L2619,218 L2620,218 L2621,218 L2622,220 L2623,220 L2624,218 L2625,218 L2626,220 L2627,221 L2628,220 L2629,221 L2630,220 L2631,220 L2632,220 L2633,221 L2634,220 L2635,220 L2636,220 L2637,221 L2638,221 L2639,220 L2640,220 L2641,220 L2642,220 L2643,218 L2644,220 L2645,220 L2646,218 L2647,219 L2648,218 L2649,220 L2650,220 L2651,218 L2652,218 L2653,218 L2654,218 L2655,218 L2656,220 L2657,220 L2658,220 L2659,220 L2660,221 L2661,221 L2662,220 L2663,220 L2664,220 L2665,221 L2666,220 L2667,220 L2668,220 L2669,220 L2670,220 L2671,220 L2672,221 L2673,220 L2674,218 L2675,218 L2676,220 L2677,218 L2678,218 L2679,218 L2680,218 L2681,218 L2682,218 L2683,220 L2684,218 L2685,218 L2686,220 L2687,220 L2688,220 L2689,220 L2690,220 L2691,221 L2692,220 L2693,220 L2694,221 L2695,220 L2696,220 L2697,220 L2698,221 L2699,221 L2700,220 L2701,220 L2702,220 L2703,220 L2704,220 L2705,220 L2706,220 L2707,218 L2708,218 L2709,220 L2710,220 L2711,218 L2712,218 L2713,218 L2714,218 L2715,218 L2716,220 L2717,220 L2718,220 L2719,220 L2720,220 L2721,221 L2722,221 L2723,220 L2724,220 L2725,220 L2726,220 L2727,220 L2728,220 L2729,220 L2730,220 L2731,220 L2732,221 L2733,221 L2734,220 L2735,220 L2736,220 L2737,218 L2738,218 L2739,218 L2740,218 L2741,218 L2742,218 L2743,220 L2744,220 L2745,218 L2746,218 L2747,220 L2748,218 L2749,218 L2750,220 L2751,220 L2752,220 L2753,220 L2754,220 L2755,220 L2756,220 L2757,220 L2758,220 L2759,221 L2760,221 L2761,220 L2762,220 L2763,220 L2764,220 L2765,221 L2766,221 L2767,220 L2768,218 L2769,218 L2770,218 L2771,220 L2772,218 L2773,218 L2774,220 L2775,218 L2776,218 L2777,220 L2778,220 L2779,218 L2780,218 L2781,220 L2782,220 L2783,220 L2784,221 L2785,220 L2786,220 L2787,220 L2788,221 L2789,221 L2790,220 L2791,220 L2792,220 L2793,221 L2794,220 L2795,220 L2796,221 L2797,220 L2798,218 L2799,220 L2800,218 L2801,218 L2802,218 L2803,220 L2804,220 L2805,220 L2806,218 L2807,218 L2808,220 L2809,218 L2810,218 L2811,220 L2812,220 L2813,218 L2814,220 L2815,221 L2816,220 L2817,220 L2818,220 L2819,220 L2820,220 L2821,221 L2822,220 L2823,220 L2824,220 L2825,220 L2826,221 L2827,221 L2828,218 L2829,218 L2830,220 L2831,220 L2832,218 L2833,218 L2834,218 L2835,218 L2836,218 L2837,220 L2838,220 L2839,218 L2840,218 L2841,220 L2842,220 L2843,220 L2844,220 L2845,220 L2846,220 L2847,220 L2848,220 L2849,221 L2850,220 L2851,218 L2852,220 L2853,220 L2854,221 L2855,220 L2856,220 L2857,220 L2858,220 L2859,220 L2860,220 L2861,218 L2862,218 L2863,218 L2864,220 L2865,220 L2866,218 L2867,218 L2868,218 L2869,218 L2870,218 L2871,220 L2872,220 L2873,218 L2874,220 L2875,220 L2876,220 L2877,220 L2878,220 L2879,220 L2880,220 L2881,220 L2882,221 L2883,221 L2884,220 L2885,220 L2886,221 L2887,221 L2888,220 L2889,220 L2890,220 L2891,220 L2892,218 L2893,220 L2894,218 L2895,218 L2896,218 L2897,218 L2898,218 L2899,220 L2900,218 L2901,218 L2902,220 L2903,218 L2904,220 L2905,220 L2906,220 L2907,220 L2908,220 L2909,221 L2910,220 L2911,220 L2912,220 L2913,220 L2914,220 L2915,220 L2916,220 L2917,220 L2918,220 L2919,220 L2920,221 L2921,221 L2922,218 L2923,218 L2924,218 L2925,218 L2926,218 L2927,218 L2928,218 L2929,218 L2930,218 L2931,220 L2932,220 L2933,218 L2934,218 L2935,220 L2936,220 L2937,220 L2938,220 L2939,221 L2940,220 L2941,220 L2942,221 L2943,221 L2944,220 L2945,220 L2946,220 L2947,221 L2948,221 L2949,220 L2950,220 L2951,220 L2952,220 L2953,218 L2954,220 L2955,220 L2956,218 L2957,218 L2958,220 L2959,218 L2960,218 L2961,218 L2962,218 L2963,218 L2964,218 L2965,220 L2966,220 L2967,220 L2968,220 L2969,221 L2970,221 L2971,220 L2972,220 L2973,220 L2974,221 L2975,220 L2976,221 L2977,221 L2978,220 L2979,220 L2980,221 L2981,221 L2982,220 L2983,218 L2984,218 L2985,220 L2986,220 L2987,218 L2988,218 L2989,218 L2990,218 L2991,218 L2992,220 L2993,220 L2994,218 L2995,218 L2996,220 L2997,220 L2998,220 L2999,220 L3000,220 L3001,220 L3002,220 L3003,221 L3004,221 L3005,220 L3006,220 L3007,220 L3008,220 L3009,220 L3010,220 L3011,221 L3012,220 L3013,220 L3014,220 L3015,220 L3016,218 L3017,218 L3018,220 L3019,220 L3020,218 L3021,218 L3022,218 L3023,218 L3024,218 L3025,220 L3026,220 L3027,218 L3028,218 L3029,220 L3030,221 L3031,221 L3032,220 L3033,220 L3034,220 L3035,221 L3036,220 L3037,220 L3038,220 L3039,220 L3040,220 L3041,221 L3042,221 L3043,220 L3044,220 L3045,220 L3046,218 L3047,218 L3048,220 L3049,218 L3050,218 L3051,218 L3052,218 L3053,218 L3054,218 L3055,218 L3056,218 L3057,220 L3058,218 L3059,220 L3060,220 L3061,220 L3062,220 L3063,220 L3064,221 L3065,220 L3066,220 L3067,220 L3068,220 L3069,221 L3070,220 L3071,221 L3072,220 L3073,220 L3074,220 L3075,221 L3076,220 L3077,218 L3078,218 L3079,220 L3080,218 L3081,218 L3082,218 L3083,218 L3084,218 L3085,220 L3086,220 L3087,218 L3088,218 L3089,218 L3090,220 L3091,220 L3092,220 L3093,221 L3094,220 L3095,220 L3096,220 L3097,221 L3098,221 L3099,220 L3100,220 L3101,220 L3102,220 L3103,221 L3104,220 L3105,221 L3106,221 L3107,218 L3108,220 L3109,220 L3110,218 L3111,219 L3112,218 L3113,220 L3114,220 L3115,218 L3116,218 L3117,218 L3118,218 L3119,218 L3120,220 L3121,220 L3122,220 L3123,220 L3124,221 L3125,221 L3126,220 L3127,220 L3128,221 L3129,220 L3130,220 L3131,220 L3132,220 L3133,220 L3134,220 L3135,221 L3136,221 L3137,220 L3138,220 L3139,220 L3140,220 L3141,218 L3142,220 L3143,220 L3144,218 L3145,219 L3146,218 L3147,220 L3148,220 L3149,218 L3150,218 L3151,220 L3152,220 L3153,220 L3154,220 L3155,220 L3156,220 L3157,220 L3158,221 L3159,220 L3160,220 L3161,221 L3162,221 L3163,220 L3164,220 L3165,220 L3166,220 L3167,220 L3168,220 L3169,220 L3170,220 L3171,218 L3172,218 L3173,218 L3174,220 L3175,218 L3176,220 L3177,218 L3178,218 L3179,218 L3180,220 L3181,220 L3182,218 L3183,220 L3184,220 L3185,220 L3186,221 L3187,220 L3188,220 L3189,220 L3190,220 L3191,221 L3192,221 L3193,220 L3194,220 L3195,221 L3196,221 L3197,220 L3198,220 L3199,221 L3200,220 L3201,218 L3202,218 L3203,220 L3204,218 L3205,218 L3206,218 L3207,220 L3208,218 L3209,218 L3210,218 L3211,220 L3212,218 L3213,220 L3214,220 L3215,220 L3216,218 L3217,221 L3218,220 L3219,220 L3220,220 L3221,220 L3222,221 L3223,220 L3224,220 L3225,221 L3226,220 L3227,220 L3228,220 L3229,220 L3230,221 L3231,218 L3232,218 L3233,220 L3234,220 L3235,218 L3236,218 L3237,218 L3238,218 L3239,218 L3240,218 L3241,220 L3242,218 L3243,218 L3244,218 L3245,220 L3246,220 L3247,220 L3248,221 L3249,220 L3250,220 L3251,220 L3252,221 L3253,221 L3254,220 L3255,220 L3256,220 L3257,221 L3258,220 L3259,220 L3260,221 L3261,220 L3262,220 L3263,220 L3264,220 L3265,218 L3266,218 L3267,218 L3268,220 L3269,218 L3270,218 L3271,220 L3272,218 L3273,218 L3274,220 L3275,220 L3276,220 L3277,218 L3278,220 L3279,221 L3280,221 L3281,220 L3282,220 L3283,220 L3284,220 L3285,220 L3286,221 L3287,220 L3288,220 L3289,220 L3290,221 L3291,221 L3292,220 L3293,218 L3294,218 L3295,220 L3296,218 L3297,218 L3298,218 L3299,218 L3300,218 L3301,220 L3302,220 L3303,218 L3304,218 L3305,218 L3306,220 L3307,218 L3308,220 L3309,220 L3310,220 L3311,220 L3312,220 L3313,221 L3314,220 L3315,220 L3316,221 L3317,221 L3318,220 L3319,220 L3320,220 L3321,220 L3322,220 L3323,221 L3324,220 L3325,218 L3326,219 L3327,218 L3328,218 L3329,218 L3330,218 L3331,218 L3332,218 L3333,218 L3334,220 L3335,220 L3336,220 L3337,218 L3338,220 L3339,220 L3340,220 L3341,221 L3342,221 L3343,220 L3344,220 L3345,220 L3346,221 L3347,221 L3348,220 L3349,220 L3350,220 L3351,220 L3352,220 L3353,220 L3354,221 L3355,220 L3356,218 L3357,220 L3358,220 L3359,218 L3360,218 L3361,220 L3362,220 L3363,218 L3364,218 L3365,218 L3366,218 L3367,218 L3368,220 L3369,220 L3370,220 L3371,220 L3372,221 L3373,221 L3374,220 L3375,220 L3376,220 L3377,220 L3378,220 L3379,221 L3380,221 L3381,220 L3382,220 L3383,220 L3384,221 L3385,221 L3386,218 L3387,218 L3388,220 L3389,218 L3390,218 L3391,220 L3392,220 L3393,218 L3394,218 L3395,218 L3396,220 L3397,218 L3398,218 L3399,220 L3400,220 L3401,220 L3402,220 L3403,221 L3404,220 L3405,220 L3406,221 L3407,221 L3408,220 L3409,220 L3410,220 L3411,221 L3412,220 L3413,220 L3414,220 L3415,220 L3416,220 L3417,220 L3418,220 L3419,218 L3420,218 L3421,218 L3422,220 L3423,220 L3424,218 L3425,218 L3426,218 L3427,218 L3428,218 L3429,220 L3430,220 L3431,218 L3432,220 L3433,220 L3434,221 L3435,220 L3436,220 L3437,220 L3438,220 L3439,220 L3440,220 L3441,221 L3442,220 L3443,220 L3444,220 L3445,221 L3446,220 L3447,220 L3448,218 L3449,218 L3450,218 L3451,220 L3452,220 L3453,218 L3454,218 L3455,218 L3456,220 L3457,220 L3458,218 L3459,220 L3460,218 L3461,220 L3462,220 L3463,220 L3464,220 L3465,220 L3466,220 L3467,221 L3468,220 L3469,220 L3470,220 L3471,221 L3472,220 L3473,220 L3474,221 L3475,221 L3476,220 L3477,220 L3478,221 L3479,220 L3480,218 L3481,218 L3482,220 L3483,220 L3484,218 L3485,220 L3486,218 L3487,218 L3488,218 L3489,218 L3490,220 L3491,220 L3492,218 L3493,220 L3494,220 L3495,220 L3496,221 L3497,220 L3498,220 L3499,220 L3500,220 L3501,221 L3502,220 L3503,220 L3504,220 L3505,220 L3506,221 L3507,220 L3508,221 L3509,220 L3510,218 L3511,218 L3512,220 L3513,218 L3514,218 L3515,218 L3516,220 L3517,220 L3518,218 L3519,218 L3520,218 L3521,218 L3522,218 L3523,220 L3524,220 L3525,220 L3526,220 L3527,221 L3528,221 L3529,220 L3530,220 L3531,220 L3532,220 L3533,220 L3534,221 L3535,221 L3536,220 L3537,220 L3538,220 L3539,221 L3540,220 L3541,218 L3542,218 L3543,220 L3544,218 L3545,218 L3546,220 L3547,218 L3548,218 L3549,218 L3550,218 L3551,218 L3552,218 L3553,218 L3554,220 L3555,220 L3556,220 L3557,220 L3558,221 L3559,220 L3560,220 L3561,220 L3562,221 L3563,220 L3564,220 L3565,220 L3566,220 L3567,220 L3568,221 L3569,220 L3570,220 L3571,220 L3572,218 L3573,220 L3574,218 L3575,218 L3576,218 L3577,218 L3578,218 L3579,218 L3580,218 L3581,218 L3582,218 L3583,220 L3584,220 L3585,220 L3586,218 L3587,218 L3588,220 L3589,221 L3590,220 L3591,220 L3592,220 L3593,220 L3594,220 L3595,220 L3596,220 L3597,220 L3598,220 L3599,221 L3600,221 L3601,220 L3602,220 L3603,218 L3604,218 L3605,218 L3606,218 L3607,220 L3608,218 L3609,218 L3610,220 L3611,220 L3612,218 L3613,218 L3614,218 L3615,220 L3616,218 L3617,220 L3618,220 L3619,220 L3620,220 L3621,220 L3622,221 L3623,221 L3624,220 L3625,220 L3626,220 L3627,220 L3628,221 L3629,221 L3630,220 L3631,220 L3632,220 L3633,220 L3634,218 L3635,218 L3636,218 L3637,220 L3638,220 L3639,218 L3640,220 L3641,218 L3642,218 L3643,218 L3644,218 L3645,220 L3646,218 L3647,218 L3648,220 L3649,220 L3650,220 L3651,221 L3652,220 L3653,220 L3654,220 L3655,220 L3656,221 L3657,220 L3658,220 L3659,220 L3660,221 L3661,220 L3662,220 L3663,220 L3664,220 L3665,218 L3666,220 L3667,220 L3668,218 L3669,218 L3670,218 L3671,218 L3672,218 L3673,218 L3674,218 L3675,218 L3676,218 L3677,218 L3678,220 L3679,220 L3680,220 L3681,220 L3682,221 L3683,220 L3684,220 L3685,220 L3686,220 L3687,220 L3688,220 L3689,221 L3690,220 L3691,220 L3692,220 L3693,220 L3694,221 L3695,220 L3696,218 L3697,220 L3698,218 L3699,218 L3700,220 L3701,218 L3702,218 L3703,218 L3704,220 L3705,220 L3706,218 L3707,218 L3708,218 L3709,218 L3710,220 L3711,220 L3712,220 L3713,220 L3714,220 L3715,221 L3716,221 L3717,220 L3718,220 L3719,220 L3720,220 L3721,221 L3722,221 L3723,221 L3724,220 L3725,220 L3726,220 L3727,220 L3728,220 L3729,218 L3730,218 L3731,218 L3732,218 L3733,218 L3734,220 L3735,220 L3736,218 L3737,218 L3738,220 L3739,220 L3740,218 L3741,218 L3742,220 L3743,220 L3744,220 L3745,220 L3746,221 L3747,221 L3748,220 L3749,221 L3750,221 L3751,220 L3752,220 L3753,220 L3754,221 L3755,221 L3756,221 L3757,220 L3758,218 L3759,218 L3760,220 L3761,220 L3762,218 L3763,218 L3764,218 L3765,220 L3766,220 L3767,218 L3768,218 L3769,220 L3770,220 L3771,220 L3772,220 L3773,220 L3774,218 L3775,220 L3776,220 L3777,221 L3778,221 L3779,220 L3780,220 L3781,220 L3782,220 L3783,221 L3784,221 L3785,220 L3786,220 L3787,221 L3788,221 L3789,218 L3790,219 L3791,218 L3792,218 L3793,218 L3794,218 L3795,218 L3796,218 L3797,218 L3798,220 L3799,220 L3800,220 L3801,218 L3802,220 L3803,220 L3804,220 L3805,220 L3806,220 L3807,220 L3808,220 L3809,220 L3810,221 L3811,220 L3812,220 L3813,220 L3814,220 L3815,220 L3816,220 L3817,220 L3818,221 L3819,220 L3820,218 L3821,220 L3822,220 L3823,218 L3824,218 L3825,220 L3826,218 L3827,218 L3828,218 L3829,218 L3830,218 L3831,218 L3832,220 L3833,220 L3834,220 L3835,220 L3836,220 L3837,221 L3838,220 L3839,220 L3840,220 L3841,220 L3842,220 L3843,221 L3844,221 L3845,220 L3846,218 L3847,220 L3848,221 L3849,221 L3850,220 L3851,218 L3852,220 L3853,218 L3854,218 L3855,220 L3856,218 L3857,218 L3858,218 L3859,220 L3860,218 L3861,218 L3862,218 L3863,218 L3864,218 L3865,220 L3866,221 L3867,221 L3868,220 L3869,220 L3870,220 L3871,221 L3872,220 L3873,220 L3874,220 L3875,221 L3876,220 L3877,221 L3878,220 L3879,220 L3880,220 L3881,220 L3882,218 L3883,218 L3884,218 L3885,218 L3886,218 L3887,218 L3888,218 L3889,220 L3890,218 L3891,218 L3892,218 L3893,220 L3894,218 L3895,218 L3896,220 L3897,220 L3898,220 L3899,220 L3900,220 L3901,220 L3902,220 L3903,220 L3904,221 L3905,220 L3906,220 L3907,220 L3908,220 L3909,220 L3910,220 L3911,221 L3912,220 L3913,218 L3914,218 L3915,220 L3916,220 L3917,220 L3918,218 L3919,218 L3920,220 L3921,218 L3922,218 L3923,220 L3924,218 L3925,218 L3926,220 L3927,220 L3928,220 L3929,220 L3930,221 L3931,220 L3932,221 L3933,220 L3934,221 L3935,220 L3936,220 L3937,220 L3938,221 L3939,220 L3940,220 L3941,220 L3942,221 L3943,220 L3944,218 L3945,220 L3946,220 L3947,218 L3948,218 L3949,220 L3950,218 L3951,218 L3952,218 L3953,220 L3954,220 L3955,218 L3956,218 L3957,220 L3958,220 L3959,220 L3960,220 L3961,221 L3962,218 L3963,220 L3964,220 L3965,221 L3966,220 L3967,220 L3968,220 L3969,220 L3970,220 L3971,221 L3972,221 L3973,220 L3974,220 L3975,218 L3976,220 L3977,218 L3978,218 L3979,218 L3980,220 L3981,218 L3982,218 L3983,220 L3984,220 L3985,218 L3986,220 L3987,220 L3988,220 L3989,218 L3990,220 L3991,221 L3992,221 L3993,220 L3994,220 L3995,220 L3996,220 L3997,220 L3998,221 L3999,221 L4000,220 L4001,220 L4002,220 L4003,220 L4004,220 L4005,220 L4006,218 L4007,218 L4008,218 L4009,220 L4010,220 L4011,218 L4012,218 L4013,218 L4014,218 L4015,218 L4016,218 L4017,218 L4018,218 L4019,218 L4020,220 L4021,221 L4022,220 L4023,220 L4024,220 L4025,221 L4026,221 L4027,220 L4028,220 L4029,220 L4030,220 L4031,220 L4032,221 L4033,221 L4034,220 L4035,220 L4036,220 L4037,218 L4038,218 L4039,220 L4040,218 L4041,218 L4042,218 L4043,220 L4044,220 L4045,218 L4046,218 L4047,220 L4048,220 L4049,218 L4050,218 L4051,220 L4052,220 L4053,220 L4054,221 L4055,220 L4056,220 L4057,220 L4058,220 L4059,221 L4060,220 L4061,220 L4062,220 L4063,220 L4064,221 L4065,220 L4066,221 L4067,218 L4068,218 L4069,218 L4070,220 L4071,220 L4072,218 L4073,220 L4074,218 L4075,218 L4076,218 L4077,220 L4078,218 L4079,218 L4080,220 L4081,220 L4082,220 L4083,220 L4084,220 L4085,220 L4086,220 L4087,220 L4088,221 L4089,220 L4090,220 L4091,220 L4092,221 L4093,221 L4094,220 L4095,220 "/>
<text font-family="Arial" x="638" y="230" fill="yellow" font-size="20" text-anchor="end" id="CH1s">CH1: 1V/div (1 x) 50us/div</text>
<text font-family="Arial" x="2" y="230" fill="yellow" font-size="20" text-anchor="start" id="CH1"> </text>
<text font-family="Arial" x="638" y="250" fill="cyan" font-size="20" text-anchor="end" id="CH2s">CH2: 50mV/div (10 x) 50us/div</text>
<text font-family="Arial" x="2" y="250" fill="cyan" font-size="20" text-anchor="start" id="CH2"> </text>
<script type="text/ecmascript"><![CDATA[
function init(evt) { if ( window.svgDocument == null ) svgDocument = evt.target.ownerDocument; }
function fmtT(val, div) {
 if (div > 100) return Math.floor(val*div/32) + " ms";
if (div > 0.025) return Math.floor(val*div*1000/32)/1000 + " ms";
 return Math.floor(val*div*1000*1000/32)/1000 + " us";
}
function fmtU(val, div, shift) { return Math.floor((shift-val)*div/32) + " mV"; }
function msMove (evt)
{
	var x = evt.clientX;
	var y = evt.clientY;
	if (x < 0 || y < 0 || x >= 4096 || y >= 256)
		return;
	var hscroll = (document.all ? document.scrollLeft : window.pageXOffset);
	var width = window.innerWidth;

	svgDocument.getElementById("CH1").setAttribute("x", hscroll+20);
	svgDocument.getElementById("CH2").setAttribute("x", hscroll+20);
	svgDocument.getElementById("CH1s").setAttribute("x", hscroll+width-20);
	svgDocument.getElementById("CH2s").setAttribute("x", hscroll+width-20);

	svgDocument.getElementById("CH1").firstChild.data = "CH1: "+fmtU(y, 1000.000, 157) + " " + fmtT(x, 0.049);
	svgDocument.getElementById("CH2").firstChild.data = "CH2: "+fmtU(y, 500.000, 223) + " " + fmtT(x, 0.049);
}
]]></script>
</svg>
