<?xml version="1.0" encoding="iso-8859-1"?>
<!DOCTYPE svg PUBLIC "-//W3C//DTD SVG 1.0//EN" "http://www.w3.org/TR/2001/REC-SVG-20010904/DTD/svg10.dtd">
<svg width="4096" height="256" xmlns="http://www.w3.org/2000/svg" xmlns:xlink="http://www.w3.org/1999/xlink" onload="init(evt)" onmousemove="msMove(evt)">
<path stroke="none" fill="black" d="M0,0 H4096 V256 H0 V0"/>
<path stroke="none" fill="#000040" d="M30,0 H330 V256 H30 V0"/>
<path stroke="none" fill="#400000" d="M0,0 H30 V256 H0 V0"/>
<path stroke="#404040" d="M0,0 H4096"/>
<path stroke="#404040" d="M0,32 H4096"/>
<path stroke="#404040" d="M0,64 H4096"/>
<path stroke="#404040" d="M0,96 H4096"/>
<path stroke="#404040" d="M0,128 H4096"/>
<path stroke="#404040" d="M0,160 H4096"/>
<path stroke="#404040" d="M0,192 H4096"/>
<path stroke="#404040" d="M0,224 H4096"/>
<path stroke="#404040" d="M0,256 H4096"/>
<path stroke="#404040" d="M0,0 V256"/>
<path stroke="#404040" d="M32,0 V256"/>
<path stroke="#404040" d="M64,0 V256"/>
<path stroke="#404040" d="M96,0 V256"/>
<path stroke="#404040" d="M128,0 V256"/>
<path stroke="#404040" d="M160,0 V256"/>
<path stroke="#404040" d="M192,0 V256"/>
<path stroke="#404040" d="M224,0 V256"/>
<path stroke="#404040" d="M256,0 V256"/>
<path stroke="#404040" d="M288,0 V256"/>
<path stroke="#404040" d="M320,0 V256"/>
<path stroke="#404040" d="M352,0 V256"/>
<path stroke="#404040" d="M384,0 V256"/>
<path stroke="#404040" d="M416,0 V256"/>
<path stroke="#404040" d="M448,0 V256"/>
<path stroke="#404040" d="M480,0 V256"/>
<path stroke="#404040" d="M512,0 V256"/>
<path stroke="#404040" d="M544,0 V256"/>
<path stroke="#404040" d="M576,0 V256"/>
<path stroke="#404040" d="M608,0 V256"/>
<path stroke="#404040" d="M640,0 V256"/>
<path stroke="#404040" d="M672,0 V256"/>
<path stroke="#404040" d="M704,0 V256"/>
<path stroke="#404040" d="M736,0 V256"/>
<path stroke="#404040" d="M768,0 V256"/>
<path stroke="#404040" d="M800,0 V256"/>
<path stroke="#404040" d="M832,0 V256"/>
<path stroke="#404040" d="M864,0 V256"/>
<path stroke="#404040" d="M896,0 V256"/>
<path stroke="#404040" d="M928,0 V256"/>
<path stroke="#404040" d="M960,0 V256"/>
<path stroke="#404040" d="M992,0 V256"/>
<path stroke="#404040" d="M1024,0 V256"/>
<path stroke="#404040" d="M1056,0 V256"/>
<path stroke="#404040" d="M1088,0 V256"/>
<path stroke="#404040" d="M1120,0 V256"/>
<path stroke="#404040" d="M1152,0 V256"/>
<path stroke="#404040" d="M1184,0 V256"/>
<path stroke="#404040" d="M1216,0 V256"/>
<path stroke="#404040" d="M1248,0 V256"/>
<path stroke="#404040" d="M1280,0 V256"/>
<path stroke="#404040" d="M1312,0 V256"/>
<path stroke="#404040" d="M1344,0 V256"/>
<path stroke="#404040" d="M1376,0 V256"/>
<path stroke="#404040" d="M1408,0 V256"/>
<path stroke="#404040" d="M1440,0 V256"/>
<path stroke="#404040" d="M1472,0 V256"/>
<path stroke="#404040" d="M1504,0 V256"/>
<path stroke="#404040" d="M1536,0 V256"/>
<path stroke="#404040" d="M1568,0 V256"/>
<path stroke="#404040" d="M1600,0 V256"/>
<path stroke="#404040" d="M1632,0 V256"/>
<path stroke="#404040" d="M1664,0 V256"/>
<path stroke="#404040" d="M1696,0 V256"/>
<path stroke="#404040" d="M1728,0 V256"/>
<path stroke="#404040" d="M1760,0 V256"/>
<path stroke="#404040" d="M1792,0 V256"/>
<path stroke="#404040" d="M1824,0 V256"/>
<path stroke="#404040" d="M1856,0 V256"/>
<path stroke="#404040" d="M1888,0 V256"/>
<path stroke="#404040" d="M1920,0 V256"/>
<path stroke="#404040" d="M1952,0 V256"/>
<path stroke="#404040" d="M1984,0 V256"/>
<path stroke="#404040" d="M2016,0 V256"/>
<path stroke="#404040" d="M2048,0 V256"/>
<path stroke="#404040" d="M2080,0 V256"/>
<path stroke="#404040" d="M2112,0 V256"/>
<path stroke="#404040" d="M2144,0 V256"/>
<path stroke="#404040" d="M2176,0 V256"/>
<path stroke="#404040" d="M2208,0 V256"/>
<path stroke="#404040" d="M2240,0 V256"/>
<path stroke="#404040" d="M2272,0 V256"/>
<path stroke="#404040" d="M2304,0 V256"/>
<path stroke="#404040" d="M2336,0 V256"/>
<path stroke="#404040" d="M2368,0 V256"/>
<path stroke="#404040" d="M2400,0 V256"/>
<path stroke="#404040" d="M2432,0 V256"/>
<path stroke="#404040" d="M2464,0 V256"/>
<path stroke="#404040" d="M2496,0 V256"/>
<path stroke="#404040" d="M2528,0 V256"/>
<path stroke="#404040" d="M2560,0 V256"/>
<path stroke="#404040" d="M2592,0 V256"/>
<path stroke="#404040" d="M2624,0 V256"/>
<path stroke="#404040" d="M2656,0 V256"/>
<path stroke="#404040" d="M2688,0 V256"/>
<path stroke="#404040" d="M2720,0 V256"/>
<path stroke="#404040" d="M2752,0 V256"/>
<path stroke="#404040" d="M2784,0 V256"/>
<path stroke="#404040" d="M2816,0 V256"/>
<path stroke="#404040" d="M2848,0 V256"/>
<path stroke="#404040" d="M2880,0 V256"/>
<path stroke="#404040" d="M2912,0 V256"/>
<path stroke="#404040" d="M2944,0 V256"/>
<path stroke="#404040" d="M2976,0 V256"/>
<path stroke="#404040" d="M3008,0 V256"/>
<path stroke="#404040" d="M3040,0 V256"/>
<path stroke="#404040" d="M3072,0 V256"/>
<path stroke="#404040" d="M3104,0 V256"/>
<path stroke="#404040" d="M3136,0 V256"/>
<path stroke="#404040" d="M3168,0 V256"/>
<path stroke="#404040" d="M3200,0 V256"/>
<path stroke="#404040" d="M3232,0 V256"/>
<path stroke="#404040" d="M3264,0 V256"/>
<path stroke="#404040" d="M3296,0 V256"/>
<path stroke="#404040" d="M3328,0 V256"/>
<path stroke="#404040" d="M3360,0 V256"/>
<path stroke="#404040" d="M3392,0 V256"/>
<path stroke="#404040" d="M3424,0 V256"/>
<path stroke="#404040" d="M3456,0 V256"/>
<path stroke="#404040" d="M3488,0 V256"/>
<path stroke="#404040" d="M3520,0 V256"/>
<path stroke="#404040" d="M3552,0 V256"/>
<path stroke="#404040" d="M3584,0 V256"/>
<path stroke="#404040" d="M3616,0 V256"/>
<path stroke="#404040" d="M3648,0 V256"/>
<path stroke="#404040" d="M3680,0 V256"/>
<path stroke="#404040" d="M3712,0 V256"/>
<path stroke="#404040" d="M3744,0 V256"/>
<path stroke="#404040" d="M3776,0 V256"/>
<path stroke="#404040" d="M3808,0 V256"/>
<path stroke="#404040" d="M3840,0 V256"/>
<path stroke="#404040" d="M3872,0 V256"/>
<path stroke="#404040" d="M3904,0 V256"/>
<path stroke="#404040" d="M3936,0 V256"/>
<path stroke="#404040" d="M3968,0 V256"/>
<path stroke="#404040" d="M4000,0 V256"/>
<path stroke="#404040" d="M4032,0 V256"/>
<path stroke="#404040" d="M4064,0 V256"/>
<path stroke="yellow" fill="none" stroke-width="1" d="M0,88 L1,86 L2,88 L3,88 L4,88 L5,88 L6,88 L7,88 L8,88 L9,86 L10,88 L11,88 L12,88 L13,88 L14,88 L15,88 L16,89 L17,89 L18,88 L19,88 L20,88 L21,89 L22,89 L23,88 L24,88 L25,88 L26,88 L27,88 L28,88 L29,88 L30,88 L31,89 L32,88 L33,88 L34,88 L35,88 L36,88 L37,88 L38,88 L39,88 L40,88 L41,88 L42,88 L43,88 L44,88 L45,88 L46,88 L47,88 L48,88 L49,88 L50,88 L51,88 L52,88 L53,88 L54,88 L55,88 L56,88 L57,88 L58,88 L59,88 L60,88 L61,88 L62,88 L63,88 L64,88 L65,88 L66,88 L67,88 L68,88 L69,88 L70,88 L71,88 L72,88 L73,88 L74,88 L75,88 L76,88 L77,89 L78,89 L79,88 L80,88 L81,88 L82,88 L83,88 L84,89 L85,88 L86,88 L87,88 L88,88 L89,89 L90,88 L91,88 L92,88 L93,88 L94,88 L95,88 L96,89 L97,88 L98,88 L99,88 L100,88 L101,88 L102,88 L103,88 L104,88 L105,88 L106,88 L107,88 L108,88 L109,89 L110,88 L111,88 L112,88 L113,88 L114,88 L115,88 L116,88 L117,88 L118,88 L119,88 L120,88 L121,89 L122,88 L123,89 L124,163 L125,162 L126,161 L127,163 L128,162 L129,162 L130,161 L131,161 L132,162 L133,162 L134,162 L135,162 L136,162 L137,161 L138,162 L139,162 L140,162 L141,162 L142,162 L143,162 L144,162 L145,162 L146,162 L147,162 L148,162 L149,161 L150,86 L151,88 L152,88 L153,88 L154,89 L155,179 L156,162 L157,163 L158,163 L159,162 L160,161 L161,161 L162,162 L163,162 L164,162 L165,162 L166,162 L167,162 L168,161 L169,161 L170,162 L171,88 L172,88 L173,88 L174,88 L175,88 L176,165 L177,162 L178,162 L179,162 L180,162 L181,161 L182,90 L183,88 L184,88 L185,89 L186,88 L187,88 L188,88 L189,88 L190,89 L191,88 L192,162 L193,162 L194,162 L195,162 L196,161 L197,87 L198,88 L199,88 L200,88 L201,88 L202,88 L203,89 L204,88 L205,88 L206,88 L207,89 L208,88 L209,89 L210,88 L211,89 L212,88 L213,88 L214,89 L215,89 L216,88 L217,88 L218,162 L219,161 L220,162 L221,162 L222,162 L223,86 L224,88 L225,88 L226,88 L227,88 L228,163 L229,162 L230,162 L231,161 L232,161 L233,163 L234,162 L235,162 L236,161 L237,162 L238,162 L239,161 L240,164 L241,162 L242,161 L243,161 L244,161 L245,162 L246,162 L247,162 L248,162 L249,162 L250,161 L251,162 L252,162 L253,162 L254,70 L255,88 L256,88 L257,88 L258,88 L259,88 L260,163 L261,162 L262,162 L263,162 L264,163 L265,164 L266,162 L267,161 L268,162 L269,162 L270,162 L271,162 L272,162 L273,162 L274,162 L275,86 L276,88 L277,88 L278,88 L279,88 L280,178 L281,162 L282,162 L283,162 L284,162 L285,162 L286,162 L287,162 L288,162 L289,162 L290,163 L291,163 L292,162 L293,161 L294,161 L295,162 L296,162 L297,162 L298,161 L299,161 L300,162 L301,162 L302,161 L303,162 L304,162 L305,162 L306,113 L307,88 L308,89 L309,88 L310,88 L311,88 L312,162 L313,163 L314,162 L315,162 L316,162 L317,162 L318,161 L319,161 L320,162 L321,162 L322,162 L323,162 L324,162 L325,161 L326,161 L327,86 L328,88 L329,88 L330,88 L331,88 L332,95 L333,163 L334,161 L335,162 L336,162 L337,161 L338,161 L339,162 L340,162 L341,162 L342,161 L343,88 L344,88 L345,88 L346,88 L347,88 L348,163 L349,162 L350,162 L351,162 L352,163 L353,87 L354,88 L355,88 L356,88 L357,88 L358,88 L359,162 L360,162 L361,161 L362,162 L363,162 L364,161 L365,162 L366,162 L367,161 L368,161 L369,161 L370,162 L371,163 L372,162 L373,161 L374,161 L375,162 L376,162 L377,162 L378,162 L379,86 L380,88 L381,88 L382,88 L383,88 L384,89 L385,162 L386,162 L387,162 L388,162 L389,162 L390,162 L391,161 L392,162 L393,162 L394,162 L395,162 L396,162 L397,162 L398,162 L399,162 L400,161 L401,162 L402,162 L403,162 L404,162 L405,162 L406,162 L407,162 L408,162 L409,162 L410,162 L411,162 L412,161 L413,161 L414,162 L415,162 L416,162 L417,162 L418,161 L419,162 L420,162 L421,162 L422,162 L423,161 L424,161 L425,162 L426,161 L427,162 L428,162 L429,163 L430,162 L431,67 L432,88 L433,89 L434,89 L435,88 L436,88 L437,163 L438,161 L439,162 L440,162 L441,162 L442,162 L443,162 L444,162 L445,162 L446,162 L447,162 L448,161 L449,161 L450,162 L451,162 L452,162 L453,162 L454,162 L455,162 L456,161 L457,162 L458,162 L459,162 L460,162 L461,162 L462,161 L463,160 L464,162 L465,162 L466,161 L467,161 L468,162 L469,163 L470,162 L471,162 L472,162 L473,163 L474,162 L475,162 L476,162 L477,163 L478,162 L479,162 L480,161 L481,162 L482,161 L483,162 L484,88 L485,88 L486,88 L487,88 L488,88 L489,162 L490,162 L491,162 L492,162 L493,162 L494,161 L495,162 L496,161 L497,162 L498,161 L499,161 L500,162 L501,162 L502,162 L503,162 L504,162 L505,162 L506,161 L507,162 L508,163 L509,162 L510,161 L511,162 L512,162 L513,162 L514,162 L515,162 L516,162 L517,162 L518,162 L519,162 L520,162 L521,160 L522,162 L523,162 L524,161 L525,161 L526,162 L527,163 L528,162 L529,161 L530,162 L531,162 L532,162 L533,162 L534,161 L535,162 L536,88 L537,88 L538,88 L539,89 L540,89 L541,162 L542,162 L543,162 L544,162 L545,162 L546,87 L547,88 L548,88 L549,88 L550,88 L551,164 L552,162 L553,162 L554,162 L555,161 L556,68 L557,88 L558,88 L559,88 L560,88 L561,88 L562,163 L563,162 L564,162 L565,162 L566,163 L567,88 L568,88 L569,87 L570,88 L571,89 L572,163 L573,162 L574,162 L575,162 L576,162 L577,86 L578,88 L579,89 L580,88 L581,88 L582,167 L583,163 L584,162 L585,162 L586,162 L587,162 L588,88 L589,88 L590,88 L591,88 L592,88 L593,162 L594,162 L595,162 L596,162 L597,162 L598,87 L599,88 L600,88 L601,88 L602,88 L603,164 L604,161 L605,162 L606,162 L607,162 L608,138 L609,88 L610,88 L611,88 L612,88 L613,88 L614,163 L615,163 L616,162 L617,161 L618,162 L619,88 L620,89 L621,88 L622,88 L623,88 L624,163 L625,162 L626,162 L627,163 L628,162 L629,162 L630,162 L631,162 L632,162 L633,162 L634,162 L635,161 L636,161 L637,162 L638,162 L639,161 L640,88 L641,89 L642,88 L643,88 L644,88 L645,163 L646,163 L647,162 L648,161 L649,162 L650,162 L651,162 L652,162 L653,162 L654,162 L655,87 L656,88 L657,88 L658,88 L659,88 L660,88 L661,88 L662,88 L663,88 L664,88 L665,89 L666,162 L667,161 L668,162 L669,163 L670,162 L671,161 L672,162 L673,162 L674,161 L675,161 L676,162 L677,162 L678,162 L679,162 L680,161 L681,162 L682,162 L683,162 L684,162 L685,162 L686,162 L687,162 L688,162 L689,162 L690,162 L691,162 L692,88 L693,88 L694,90 L695,88 L696,89 L697,163 L698,162 L699,162 L700,162 L701,162 L702,162 L703,162 L704,163 L705,162 L706,161 L707,162 L708,163 L709,162 L710,163 L711,162 L712,162 L713,162 L714,162 L715,162 L716,162 L717,162 L718,162 L719,163 L720,162 L721,162 L722,162 L723,161 L724,162 L725,162 L726,162 L727,162 L728,162 L729,162 L730,161 L731,161 L732,162 L733,161 L734,162 L735,162 L736,162 L737,162 L738,162 L739,163 L740,162 L741,161 L742,161 L743,162 L744,88 L745,88 L746,88 L747,88 L748,88 L749,162 L750,161 L751,162 L752,164 L753,162 L754,85 L755,88 L756,88 L757,88 L758,88 L759,88 L760,162 L761,162 L762,162 L763,162 L764,162 L765,88 L766,89 L767,88 L768,88 L769,87 L770,163 L771,163 L772,162 L773,161 L774,162 L775,162 L776,162 L777,164 L778,162 L779,162 L780,162 L781,161 L782,162 L783,163 L784,162 L785,161 L786,161 L787,161 L788,162 L789,162 L790,162 L791,162 L792,161 L793,161 L794,161 L795,162 L796,88 L797,88 L798,88 L799,88 L800,89 L801,163 L802,163 L803,162 L804,162 L805,162 L806,162 L807,162 L808,162 L809,162 L810,162 L811,161 L812,87 L813,88 L814,88 L815,89 L816,88 L817,162 L818,162 L819,162 L820,162 L821,162 L822,87 L823,88 L824,88 L825,88 L826,88 L827,164 L828,162 L829,162 L830,162 L831,162 L832,162 L833,162 L834,162 L835,162 L836,161 L837,162 L838,162 L839,162 L840,162 L841,162 L842,161 L843,161 L844,161 L845,162 L846,162 L847,162 L848,87 L849,88 L850,88 L851,88 L852,87 L853,164 L854,162 L855,162 L856,161 L857,162 L858,69 L859,88 L860,88 L861,88 L862,88 L863,88 L864,88 L865,89 L866,88 L867,88 L868,88 L869,89 L870,88 L871,88 L872,88 L873,88 L874,88 L875,88 L876,88 L877,89 L878,88 L879,88 L880,88 L881,89 L882,89 L883,88 L884,88 L885,88 L886,88 L887,88 L888,88 L889,88 L890,89 L891,88 L892,88 L893,88 L894,89 L895,88 L896,89 L897,88 L898,88 L899,88 L900,88 L901,88 L902,88 L903,88 L904,88 L905,165 L906,162 L907,162 L908,162 L909,162 L910,162 L911,161 L912,162 L913,162 L914,161 L915,161 L916,162 L917,162 L918,162 L919,161 L920,162 L921,162 L922,162 L923,161 L924,162 L925,162 L926,162 L927,162 L928,162 L929,162 L930,161 L931,162 L932,162 L933,162 L934,162 L935,162 L936,162 L937,162 L938,161 L939,163 L940,163 L941,161 L942,161 L943,162 L944,162 L945,162 L946,162 L947,162 L948,162 L949,162 L950,160 L951,162 L952,87 L953,88 L954,88 L955,88 L956,88 L957,164 L958,162 L959,162 L960,162 L961,162 L962,162 L963,88 L964,88 L965,88 L966,88 L967,88 L968,162 L969,162 L970,162 L971,163 L972,162 L973,87 L974,88 L975,86 L976,88 L977,88 L978,164 L979,162 L980,162 L981,161 L982,162 L983,163 L984,162 L985,161 L986,161 L987,162 L988,162 L989,162 L990,162 L991,162 L992,162 L993,161 L994,162 L995,162 L996,162 L997,162 L998,162 L999,162 L1000,161 L1001,162 L1002,162 L1003,162 L1004,86 L1005,88 L1006,88 L1007,88 L1008,88 L1009,183 L1010,163 L1011,162 L1012,161 L1013,161 L1014,162 L1015,162 L1016,161 L1017,161 L1018,162 L1019,162 L1020,88 L1021,88 L1022,88 L1023,88 L1024,88 L1025,163 L1026,162 L1027,162 L1028,162 L1029,161 L1030,85 L1031,88 L1032,88 L1033,86 L1034,88 L1035,96 L1036,162 L1037,162 L1038,162 L1039,162 L1040,162 L1041,162 L1042,162 L1043,162 L1044,161 L1045,163 L1046,162 L1047,161 L1048,161 L1049,162 L1050,162 L1051,162 L1052,162 L1053,162 L1054,162 L1055,161 L1056,85 L1057,88 L1058,87 L1059,88 L1060,88 L1061,88 L1062,162 L1063,162 L1064,162 L1065,162 L1066,162 L1067,161 L1068,162 L1069,162 L1070,161 L1071,162 L1072,162 L1073,162 L1074,161 L1075,162 L1076,162 L1077,162 L1078,162 L1079,161 L1080,162 L1081,162 L1082,162 L1083,161 L1084,162 L1085,162 L1086,162 L1087,161 L1088,162 L1089,162 L1090,162 L1091,162 L1092,161 L1093,162 L1094,162 L1095,161 L1096,162 L1097,162 L1098,162 L1099,161 L1100,162 L1101,162 L1102,162 L1103,161 L1104,162 L1105,162 L1106,162 L1107,162 L1108,82 L1109,88 L1110,88 L1111,88 L1112,88 L1113,88 L1114,163 L1115,162 L1116,162 L1117,162 L1118,161 L1119,88 L1120,89 L1121,88 L1122,88 L1123,88 L1124,88 L1125,88 L1126,88 L1127,88 L1128,88 L1129,89 L1130,88 L1131,88 L1132,88 L1133,89 L1134,88 L1135,88 L1136,88 L1137,88 L1138,89 L1139,89 L1140,89 L1141,88 L1142,88 L1143,88 L1144,88 L1145,88 L1146,88 L1147,88 L1148,89 L1149,88 L1150,88 L1151,89 L1152,89 L1153,88 L1154,88 L1155,88 L1156,89 L1157,88 L1158,88 L1159,88 L1160,88 L1161,88 L1162,88 L1163,88 L1164,89 L1165,88 L1166,162 L1167,162 L1168,161 L1169,162 L1170,162 L1171,88 L1172,88 L1173,88 L1174,88 L1175,88 L1176,88 L1177,88 L1178,88 L1179,88 L1180,88 L1181,88 L1182,88 L1183,88 L1184,88 L1185,88 L1186,88 L1187,88 L1188,88 L1189,88 L1190,88 L1191,88 L1192,88 L1193,88 L1194,88 L1195,88 L1196,89 L1197,162 L1198,162 L1199,162 L1200,162 L1201,162 L1202,87 L1203,88 L1204,88 L1205,88 L1206,90 L1207,89 L1208,88 L1209,89 L1210,89 L1211,88 L1212,88 L1213,88 L1214,89 L1215,89 L1216,88 L1217,88 L1218,163 L1219,162 L1220,162 L1221,162 L1222,162 L1223,162 L1224,161 L1225,161 L1226,162 L1227,162 L1228,162 L1229,161 L1230,161 L1231,164 L1232,162 L1233,162 L1234,161 L1235,162 L1236,161 L1237,162 L1238,162 L1239,162 L1240,162 L1241,162 L1242,162 L1243,161 L1244,88 L1245,89 L1246,88 L1247,88 L1248,88 L1249,163 L1250,162 L1251,162 L1252,162 L1253,163 L1254,162 L1255,162 L1256,162 L1257,162 L1258,162 L1259,162 L1260,162 L1261,162 L1262,162 L1263,162 L1264,163 L1265,88 L1266,88 L1267,88 L1268,88 L1269,88 L1270,163 L1271,162 L1272,162 L1273,162 L1274,162 L1275,87 L1276,88 L1277,88 L1278,88 L1279,88 L1280,88 L1281,89 L1282,88 L1283,88 L1284,88 L1285,177 L1286,162 L1287,162 L1288,162 L1289,164 L1290,162 L1291,161 L1292,162 L1293,162 L1294,162 L1295,161 L1296,162 L1297,162 L1298,162 L1299,163 L1300,162 L1301,162 L1302,162 L1303,162 L1304,162 L1305,161 L1306,161 L1307,162 L1308,162 L1309,162 L1310,161 L1311,161 L1312,162 L1313,162 L1314,163 L1315,161 L1316,162 L1317,88 L1318,88 L1319,88 L1320,89 L1321,89 L1322,88 L1323,88 L1324,88 L1325,89 L1326,88 L1327,88 L1328,88 L1329,88 L1330,88 L1331,88 L1332,88 L1333,89 L1334,88 L1335,88 L1336,88 L1337,88 L1338,89 L1339,89 L1340,88 L1341,88 L1342,88 L1343,89 L1344,88 L1345,88 L1346,88 L1347,88 L1348,88 L1349,88 L1350,87 L1351,89 L1352,89 L1353,88 L1354,87 L1355,88 L1356,88 L1357,88 L1358,88 L1359,88 L1360,88 L1361,88 L1362,88 L1363,88 L1364,88 L1365,88 L1366,88 L1367,88 L1368,88 L1369,88 L1370,88 L1371,88 L1372,88 L1373,88 L1374,88 L1375,88 L1376,88 L1377,88 L1378,88 L1379,88 L1380,88 L1381,88 L1382,88 L1383,89 L1384,88 L1385,88 L1386,88 L1387,89 L1388,88 L1389,89 L1390,89 L1391,88 L1392,88 L1393,88 L1394,88 L1395,89 L1396,89 L1397,88 L1398,88 L1399,88 L1400,88 L1401,89 L1402,89 L1403,88 L1404,88 L1405,88 L1406,88 L1407,88 L1408,88 L1409,88 L1410,89 L1411,88 L1412,88 L1413,88 L1414,89 L1415,88 L1416,88 L1417,88 L1418,88 L1419,88 L1420,88 L1421,88 L1422,89 L1423,88 L1424,88 L1425,88 L1426,89 L1427,89 L1428,88 L1429,88 L1430,88 L1431,88 L1432,88 L1433,89 L1434,88 L1435,88 L1436,88 L1437,88 L1438,89 L1439,89 L1440,88 L1441,88 L1442,88 L1443,88 L1444,88 L1445,89 L1446,89 L1447,88 L1448,88 L1449,89 L1450,89 L1451,88 L1452,88 L1453,88 L1454,88 L1455,88 L1456,88 L1457,89 L1458,89 L1459,88 L1460,88 L1461,88 L1462,88 L1463,88 L1464,88 L1465,89 L1466,88 L1467,88 L1468,88 L1469,88 L1470,89 L1471,88 L1472,88 L1473,88 L1474,88 L1475,88 L1476,88 L1477,88 L1478,88 L1479,88 L1480,88 L1481,88 L1482,88 L1483,88 L1484,88 L1485,88 L1486,88 L1487,86 L1488,88 L1489,89 L1490,88 L1491,88 L1492,88 L1493,88 L1494,88 L1495,88 L1496,88 L1497,88 L1498,88 L1499,88 L1500,88 L1501,89 L1502,88 L1503,88 L1504,88 L1505,88 L1506,88 L1507,88 L1508,88 L1509,88 L1510,88 L1511,88 L1512,87 L1513,88 L1514,89 L1515,88 L1516,88 L1517,88 L1518,88 L1519,88 L1520,88 L1521,88 L1522,88 L1523,88 L1524,88 L1525,88 L1526,88 L1527,88 L1528,89 L1529,88 L1530,88 L1531,88 L1532,88 L1533,88 L1534,88 L1535,88 L1536,88 L1537,88 L1538,89 L1539,88 L1540,88 L1541,88 L1542,88 L1543,88 L1544,88 L1545,86 L1546,88 L1547,88 L1548,88 L1549,88 L1550,88 L1551,89 L1552,89 L1553,88 L1554,88 L1555,88 L1556,89 L1557,88 L1558,88 L1559,88 L1560,88 L1561,88 L1562,88 L1563,88 L1564,89 L1565,88 L1566,88 L1567,88 L1568,89 L1569,89 L1570,86 L1571,88 L1572,88 L1573,88 L1574,88 L1575,89 L1576,89 L1577,88 L1578,88 L1579,89 L1580,88 L1581,88 L1582,89 L1583,89 L1584,88 L1585,88 L1586,88 L1587,89 L1588,88 L1589,88 L1590,88 L1591,89 L1592,88 L1593,88 L1594,88 L1595,88 L1596,88 L1597,88 L1598,88 L1599,88 L1600,88 L1601,88 L1602,88 L1603,88 L1604,88 L1605,88 L1606,88 L1607,88 L1608,88 L1609,88 L1610,88 L1611,88 L1612,88 L1613,88 L1614,89 L1615,88 L1616,88 L1617,88 L1618,88 L1619,88 L1620,88 L1621,88 L1622,88 L1623,88 L1624,88 L1625,88 L1626,89 L1627,88 L1628,88 L1629,88 L1630,88 L1631,88 L1632,88 L1633,88 L1634,88 L1635,88 L1636,88 L1637,88 L1638,88 L1639,89 L1640,88 L1641,88 L1642,88 L1643,88 L1644,88 L1645,89 L1646,89 L1647,88 L1648,88 L1649,88 L1650,89 L1651,88 L1652,88 L1653,88 L1654,88 L1655,88 L1656,88 L1657,88 L1658,89 L1659,88 L1660,87 L1661,88 L1662,89 L1663,88 L1664,88 L1665,88 L1666,88 L1667,88 L1668,88 L1669,89 L1670,88 L1671,89 L1672,88 L1673,88 L1674,88 L1675,88 L1676,89 L1677,88 L1678,88 L1679,88 L1680,88 L1681,88 L1682,88 L1683,88 L1684,88 L1685,88 L1686,88 L1687,88 L1688,88 L1689,89 L1690,88 L1691,88 L1692,88 L1693,88 L1694,88 L1695,88 L1696,88 L1697,88 L1698,88 L1699,88 L1700,89 L1701,89 L1702,88 L1703,88 L1704,88 L1705,88 L1706,88 L1707,89 L1708,89 L1709,88 L1710,88 L1711,88 L1712,89 L1713,88 L1714,88 L1715,89 L1716,88 L1717,88 L1718,89 L1719,88 L1720,89 L1721,88 L1722,88 L1723,88 L1724,88 L1725,88 L1726,88 L1727,88 L1728,88 L1729,88 L1730,88 L1731,88 L1732,89 L1733,89 L1734,88 L1735,88 L1736,88 L1737,89 L1738,88 L1739,89 L1740,88 L1741,88 L1742,88 L1743,90 L1744,88 L1745,89 L1746,88 L1747,88 L1748,88 L1749,88 L1750,88 L1751,89 L1752,88 L1753,88 L1754,88 L1755,88 L1756,89 L1757,88 L1758,88 L1759,88 L1760,88 L1761,88 L1762,88 L1763,89 L1764,89 L1765,88 L1766,88 L1767,88 L1768,90 L1769,88 L1770,88 L1771,88 L1772,88 L1773,88 L1774,88 L1775,88 L1776,88 L1777,88 L1778,89 L1779,88 L1780,88 L1781,88 L1782,88 L1783,88 L1784,88 L1785,88 L1786,88 L1787,88 L1788,88 L1789,88 L1790,89 L1791,88 L1792,88 L1793,88 L1794,88 L1795,89 L1796,88 L1797,88 L1798,89 L1799,89 L1800,88 L1801,89 L1802,88 L1803,88 L1804,88 L1805,88 L1806,88 L1807,88 L1808,88 L1809,88 L1810,88 L1811,88 L1812,88 L1813,89 L1814,89 L1815,88 L1816,88 L1817,88 L1818,89 L1819,88 L1820,88 L1821,88 L1822,89 L1823,88 L1824,88 L1825,88 L1826,91 L1827,88 L1828,88 L1829,88 L1830,88 L1831,89 L1832,88 L1833,88 L1834,88 L1835,88 L1836,88 L1837,88 L1838,88 L1839,88 L1840,88 L1841,88 L1842,88 L1843,88 L1844,88 L1845,89 L1846,88 L1847,88 L1848,88 L1849,88 L1850,89 L1851,89 L1852,88 L1853,88 L1854,88 L1855,88 L1856,88 L1857,89 L1858,89 L1859,88 L1860,88 L1861,88 L1862,89 L1863,88 L1864,88 L1865,88 L1866,88 L1867,88 L1868,88 L1869,88 L1870,88 L1871,88 L1872,88 L1873,88 L1874,88 L1875,88 L1876,88 L1877,88 L1878,88 L1879,88 L1880,89 L1881,88 L1882,88 L1883,88 L1884,88 L1885,88 L1886,88 L1887,88 L1888,89 L1889,89 L1890,88 L1891,88 L1892,88 L1893,88 L1894,89 L1895,88 L1896,88 L1897,88 L1898,88 L1899,88 L1900,89 L1901,88 L1902,89 L1903,88 L1904,89 L1905,88 L1906,88 L1907,88 L1908,88 L1909,88 L1910,88 L1911,88 L1912,88 L1913,88 L1914,88 L1915,88 L1916,88 L1917,88 L1918,88 L1919,88 L1920,89 L1921,88 L1922,88 L1923,88 L1924,89 L1925,88 L1926,88 L1927,88 L1928,88 L1929,88 L1930,88 L1931,88 L1932,89 L1933,88 L1934,88 L1935,88 L1936,88 L1937,88 L1938,88 L1939,88 L1940,88 L1941,88 L1942,88 L1943,88 L1944,89 L1945,89 L1946,88 L1947,88 L1948,88 L1949,88 L1950,89 L1951,89 L1952,88 L1953,88 L1954,88 L1955,89 L1956,88 L1957,88 L1958,88 L1959,89 L1960,88 L1961,88 L1962,88 L1963,89 L1964,89 L1965,88 L1966,88 L1967,88 L1968,88 L1969,88 L1970,88 L1971,88 L1972,88 L1973,88 L1974,88 L1975,88 L1976,88 L1977,88 L1978,89 L1979,88 L1980,88 L1981,88 L1982,89 L1983,89 L1984,88 L1985,88 L1986,89 L1987,88 L1988,88 L1989,88 L1990,88 L1991,88 L1992,88 L1993,88 L1994,88 L1995,89 L1996,88 L1997,88 L1998,88 L1999,87 L2000,88 L2001,88 L2002,88 L2003,88 L2004,88 L2005,88 L2006,88 L2007,89 L2008,88 L2009,88 L2010,88 L2011,88 L2012,88 L2013,88 L2014,88 L2015,88 L2016,88 L2017,88 L2018,88 L2019,88 L2020,88 L2021,88 L2022,88 L2023,88 L2024,86 L2025,88 L2026,89 L2027,88 L2028,88 L2029,88 L2030,88 L2031,88 L2032,88 L2033,88 L2034,88 L2035,88 L2036,88 L2037,88 L2038,89 L2039,88 L2040,88 L2041,88 L2042,88 L2043,89 L2044,88 L2045,88 L2046,88 L2047,88 L2048,88 L2049,88 L2050,88 L2051,88 L2052,88 L2053,88 L2054,88 L2055,88 L2056,88 L2057,88 L2058,88 L2059,88 L2060,88 L2061,89 L2062,89 L2063,88 L2064,88 L2065,89 L2066,88 L2067,88 L2068,89 L2069,89 L2070,89 L2071,88 L2072,88 L2073,88 L2074,89 L2075,88 L2076,88 L2077,88 L2078,88 L2079,89 L2080,88 L2081,88 L2082,86 L2083,89 L2084,88 L2085,88 L2086,88 L2087,88 L2088,89 L2089,88 L2090,88 L2091,88 L2092,88 L2093,88 L2094,88 L2095,88 L2096,88 L2097,88 L2098,88 L2099,88 L2100,89 L2101,89 L2102,88 L2103,88 L2104,88 L2105,88 L2106,88 L2107,87 L2108,89 L2109,88 L2110,88 L2111,88 L2112,88 L2113,88 L2114,88 L2115,88 L2116,88 L2117,88 L2118,88 L2119,88 L2120,89 L2121,88 L2122,88 L2123,88 L2124,88 L2125,88 L2126,88 L2127,88 L2128,89 L2129,88 L2130,88 L2131,88 L2132,89 L2133,88 L2134,87 L2135,88 L2136,89 L2137,88 L2138,88 L2139,88 L2140,88 L2141,88 L2142,88 L2143,88 L2144,89 L2145,88 L2146,89 L2147,88 L2148,88 L2149,88 L2150,89 L2151,89 L2152,88 L2153,88 L2154,88 L2155,88 L2156,88 L2157,88 L2158,88 L2159,88 L2160,88 L2161,88 L2162,88 L2163,89 L2164,88 L2165,88 L2166,88 L2167,89 L2168,88 L2169,88 L2170,88 L2171,89 L2172,88 L2173,88 L2174,88 L2175,89 L2176,89 L2177,88 L2178,88 L2179,88 L2180,88 L2181,88 L2182,89 L2183,88 L2184,88 L2185,88 L2186,88 L2187,88 L2188,88 L2189,88 L2190,88 L2191,88 L2192,88 L2193,88 L2194,89 L2195,89 L2196,88 L2197,88 L2198,88 L2199,89 L2200,88 L2201,88 L2202,88 L2203,89 L2204,88 L2205,88 L2206,88 L2207,89 L2208,88 L2209,88 L2210,88 L2211,88 L2212,88 L2213,88 L2214,88 L2215,88 L2216,88 L2217,88 L2218,88 L2219,89 L2220,89 L2221,88 L2222,88 L2223,88 L2224,88 L2225,88 L2226,88 L2227,88 L2228,88 L2229,88 L2230,88 L2231,88 L2232,88 L2233,88 L2234,88 L2235,88 L2236,88 L2237,88 L2238,89 L2239,88 L2240,88 L2241,88 L2242,88 L2243,88 L2244,88 L2245,89 L2246,88 L2247,88 L2248,88 L2249,88 L2250,88 L2251,88 L2252,88 L2253,88 L2254,88 L2255,90 L2256,88 L2257,89 L2258,88 L2259,88 L2260,88 L2261,89 L2262,89 L2263,88 L2264,88 L2265,89 L2266,88 L2267,88 L2268,88 L2269,89 L2270,89 L2271,88 L2272,88 L2273,88 L2274,89 L2275,88 L2276,88 L2277,88 L2278,89 L2279,88 L2280,90 L2281,88 L2282,89 L2283,88 L2284,88 L2285,88 L2286,88 L2287,88 L2288,88 L2289,88 L2290,88 L2291,88 L2292,88 L2293,88 L2294,88 L2295,88 L2296,88 L2297,89 L2298,88 L2299,88 L2300,88 L2301,89 L2302,88 L2303,88 L2304,88 L2305,89 L2306,88 L2307,88 L2308,88 L2309,88 L2310,88 L2311,88 L2312,88 L2313,90 L2314,88 L2315,88 L2316,88 L2317,88 L2318,89 L2319,88 L2320,88 L2321,88 L2322,88 L2323,88 L2324,88 L2325,88 L2326,88 L2327,88 L2328,89 L2329,88 L2330,88 L2331,88 L2332,89 L2333,89 L2334,87 L2335,88 L2336,88 L2337,89 L2338,89 L2339,88 L2340,88 L2341,88 L2342,88 L2343,88 L2344,89 L2345,89 L2346,88 L2347,88 L2348,88 L2349,88 L2350,88 L2351,88 L2352,88 L2353,88 L2354,88 L2355,88 L2356,88 L2357,88 L2358,88 L2359,88 L2360,88 L2361,88 L2362,88 L2363,89 L2364,89 L2365,88 L2366,88 L2367,88 L2368,88 L2369,88 L2370,88 L2371,88 L2372,88 L2373,88 L2374,88 L2375,89 L2376,89 L2377,88 L2378,88 L2379,88 L2380,88 L2381,88 L2382,88 L2383,88 L2384,88 L2385,88 L2386,88 L2387,89 L2388,88 L2389,88 L2390,88 L2391,88 L2392,88 L2393,88 L2394,88 L2395,89 L2396,88 L2397,88 L2398,88 L2399,88 L2400,89 L2401,88 L2402,88 L2403,88 L2404,88 L2405,88 L2406,89 L2407,89 L2408,88 L2409,88 L2410,88 L2411,89 L2412,88 L2413,88 L2414,88 L2415,88 L2416,88 L2417,88 L2418,88 L2419,89 L2420,88 L2421,88 L2422,88 L2423,88 L2424,88 L2425,88 L2426,89 L2427,88 L2428,88 L2429,88 L2430,88 L2431,88 L2432,88 L2433,88 L2434,89 L2435,88 L2436,88 L2437,88 L2438,88 L2439,89 L2440,88 L2441,88 L2442,88 L2443,88 L2444,88 L2445,88 L2446,89 L2447,88 L2448,88 L2449,88 L2450,88 L2451,89 L2452,88 L2453,88 L2454,88 L2455,88 L2456,88 L2457,88 L2458,89 L2459,88 L2460,88 L2461,88 L2462,88 L2463,88 L2464,88 L2465,88 L2466,88 L2467,88 L2468,88 L2469,89 L2470,89 L2471,88 L2472,88 L2473,88 L2474,88 L2475,88 L2476,88 L2477,89 L2478,88 L2479,88 L2480,88 L2481,89 L2482,89 L2483,88 L2484,88 L2485,88 L2486,88 L2487,88 L2488,88 L2489,88 L2490,88 L2491,88 L2492,88 L2493,88 L2494,88 L2495,88 L2496,88 L2497,88 L2498,88 L2499,88 L2500,88 L2501,89 L2502,88 L2503,88 L2504,88 L2505,89 L2506,88 L2507,88 L2508,88 L2509,88 L2510,88 L2511,87 L2512,88 L2513,89 L2514,88 L2515,88 L2516,88 L2517,88 L2518,88 L2519,88 L2520,88 L2521,88 L2522,88 L2523,88 L2524,88 L2525,88 L2526,89 L2527,88 L2528,88 L2529,88 L2530,88 L2531,88 L2532,89 L2533,88 L2534,88 L2535,88 L2536,86 L2537,88 L2538,88 L2539,88 L2540,88 L2541,88 L2542,88 L2543,88 L2544,89 L2545,89 L2546,88 L2547,88 L2548,88 L2549,89 L2550,88 L2551,88 L2552,88 L2553,88 L2554,88 L2555,88 L2556,88 L2557,88 L2558,88 L2559,88 L2560,88 L2561,87 L2562,88 L2563,88 L2564,88 L2565,88 L2566,88 L2567,89 L2568,89 L2569,88 L2570,88 L2571,88 L2572,88 L2573,88 L2574,88 L2575,89 L2576,89 L2577,88 L2578,87 L2579,88 L2580,89 L2581,88 L2582,88 L2583,89 L2584,88 L2585,88 L2586,88 L2587,89 L2588,89 L2589,89 L2590,88 L2591,88 L2592,88 L2593,89 L2594,86 L2595,89 L2596,88 L2597,88 L2598,88 L2599,88 L2600,88 L2601,88 L2602,88 L2603,88 L2604,88 L2605,88 L2606,88 L2607,89 L2608,88 L2609,88 L2610,88 L2611,89 L2612,88 L2613,88 L2614,88 L2615,88 L2616,88 L2617,88 L2618,88 L2619,86 L2620,88 L2621,88 L2622,88 L2623,88 L2624,88 L2625,88 L2626,88 L2627,88 L2628,88 L2629,88 L2630,89 L2631,88 L2632,88 L2633,88 L2634,88 L2635,88 L2636,88 L2637,88 L2638,88 L2639,89 L2640,88 L2641,88 L2642,89 L2643,88 L2644,88 L2645,88 L2646,88 L2647,88 L2648,88 L2649,88 L2650,89 L2651,88 L2652,88 L2653,88 L2654,88 L2655,89 L2656,89 L2657,89 L2658,88 L2659,88 L2660,88 L2661,88 L2662,88 L2663,88 L2664,88 L2665,88 L2666,88 L2667,88 L2668,88 L2669,89 L2670,88 L2671,88 L2672,88 L2673,88 L2674,88 L2675,88 L2676,88 L2677,88 L2678,88 L2679,88 L2680,88 L2681,88 L2682,89 L2683,88 L2684,87 L2685,88 L2686,88 L2687,88 L2688,88 L2689,88 L2690,88 L2691,88 L2692,88 L2693,88 L2694,89 L2695,88 L2696,88 L2697,88 L2698,88 L2699,88 L2700,88 L2701,88 L2702,88 L2703,88 L2704,88 L2705,89 L2706,88 L2707,88 L2708,88 L2709,89 L2710,88 L2711,88 L2712,88 L2713,89 L2714,89 L2715,88 L2716,88 L2717,89 L2718,89 L2719,88 L2720,88 L2721,88 L2722,88 L2723,88 L2724,88 L2725,88 L2726,89 L2727,88 L2728,88 L2729,88 L2730,88 L2731,89 L2732,89 L2733,88 L2734,88 L2735,88 L2736,88 L2737,88 L2738,88 L2739,88 L2740,88 L2741,88 L2742,88 L2743,88 L2744,89 L2745,89 L2746,88 L2747,88 L2748,88 L2749,88 L2750,88 L2751,88 L2752,88 L2753,88 L2754,88 L2755,88 L2756,88 L2757,89 L2758,88 L2759,88 L2760,88 L2761,88 L2762,89 L2763,88 L2764,88 L2765,88 L2766,88 L2767,89 L2768,89 L2769,88 L2770,88 L2771,88 L2772,89 L2773,88 L2774,88 L2775,89 L2776,89 L2777,88 L2778,88 L2779,88 L2780,88 L2781,88 L2782,88 L2783,88 L2784,88 L2785,88 L2786,88 L2787,89 L2788,89 L2789,88 L2790,88 L2791,88 L2792,91 L2793,88 L2794,88 L2795,88 L2796,88 L2797,88 L2798,88 L2799,88 L2800,88 L2801,89 L2802,88 L2803,88 L2804,88 L2805,88 L2806,88 L2807,89 L2808,88 L2809,88 L2810,88 L2811,88 L2812,88 L2813,88 L2814,88 L2815,88 L2816,88 L2817,89 L2818,88 L2819,88 L2820,89 L2821,88 L2822,88 L2823,88 L2824,89 L2825,89 L2826,88 L2827,88 L2828,88 L2829,88 L2830,88 L2831,89 L2832,88 L2833,88 L2834,88 L2835,88 L2836,88 L2837,88 L2838,89 L2839,88 L2840,88 L2841,88 L2842,88 L2843,89 L2844,88 L2845,88 L2846,88 L2847,88 L2848,88 L2849,88 L2850,90 L2851,89 L2852,88 L2853,88 L2854,88 L2855,88 L2856,88 L2857,88 L2858,88 L2859,88 L2860,88 L2861,88 L2862,88 L2863,89 L2864,88 L2865,88 L2866,88 L2867,88 L2868,88 L2869,88 L2870,88 L2871,88 L2872,88 L2873,88 L2874,88 L2875,90 L2876,88 L2877,88 L2878,88 L2879,88 L2880,88 L2881,89 L2882,89 L2883,88 L2884,88 L2885,88 L2886,89 L2887,88 L2888,88 L2889,88 L2890,88 L2891,88 L2892,88 L2893,88 L2894,89 L2895,88 L2896,88 L2897,88 L2898,89 L2899,88 L2900,89 L2901,88 L2902,88 L2903,88 L2904,88 L2905,88 L2906,88 L2907,88 L2908,88 L2909,88 L2910,88 L2911,88 L2912,88 L2913,89 L2914,88 L2915,88 L2916,88 L2917,89 L2918,89 L2919,88 L2920,88 L2921,89 L2922,88 L2923,88 L2924,88 L2925,88 L2926,89 L2927,88 L2928,88 L2929,88 L2930,88 L2931,88 L2932,88 L2933,88 L2934,88 L2935,88 L2936,88 L2937,88 L2938,88 L2939,88 L2940,88 L2941,88 L2942,88 L2943,88 L2944,89 L2945,88 L2946,88 L2947,88 L2948,88 L2949,89 L2950,88 L2951,88 L2952,88 L2953,88 L2954,88 L2955,88 L2956,89 L2957,89 L2958,88 L2959,88 L2960,88 L2961,89 L2962,88 L2963,88 L2964,88 L2965,88 L2966,88 L2967,88 L2968,89 L2969,88 L2970,88 L2971,88 L2972,88 L2973,88 L2974,88 L2975,88 L2976,89 L2977,88 L2978,88 L2979,88 L2980,89 L2981,88 L2982,88 L2983,88 L2984,88 L2985,88 L2986,88 L2987,88 L2988,89 L2989,88 L2990,88 L2991,88 L2992,89 L2993,88 L2994,88 L2995,87 L2996,88 L2997,88 L2998,88 L2999,88 L3000,88 L3001,88 L3002,87 L3003,88 L3004,88 L3005,88 L3006,88 L3007,88 L3008,88 L3009,88 L3010,88 L3011,88 L3012,88 L3013,88 L3014,88 L3015,88 L3016,88 L3017,87 L3018,88 L3019,88 L3020,89 L3021,88 L3022,88 L3023,88 L3024,89 L3025,88 L3026,88 L3027,88 L3028,88 L3029,88 L3030,88 L3031,89 L3032,88 L3033,88 L3034,88 L3035,88 L3036,88 L3037,88 L3038,88 L3039,88 L3040,88 L3041,88 L3042,88 L3043,88 L3044,88 L3045,88 L3046,88 L3047,88 L3048,86 L3049,88 L3050,89 L3051,89 L3052,88 L3053,88 L3054,88 L3055,88 L3056,88 L3057,88 L3058,88 L3059,88 L3060,88 L3061,88 L3062,88 L3063,89 L3064,88 L3065,87 L3066,89 L3067,88 L3068,89 L3069,88 L3070,88 L3071,88 L3072,88 L3073,86 L3074,88 L3075,88 L3076,88 L3077,88 L3078,89 L3079,88 L3080,88 L3081,89 L3082,88 L3083,88 L3084,88 L3085,89 L3086,89 L3087,88 L3088,88 L3089,88 L3090,88 L3091,88 L3092,88 L3093,88 L3094,89 L3095,88 L3096,88 L3097,88 L3098,88 L3099,89 L3100,89 L3101,88 L3102,88 L3103,88 L3104,88 L3105,88 L3106,86 L3107,88 L3108,88 L3109,88 L3110,88 L3111,88 L3112,88 L3113,88 L3114,88 L3115,88 L3116,88 L3117,88 L3118,88 L3119,88 L3120,88 L3121,88 L3122,88 L3123,88 L3124,88 L3125,89 L3126,88 L3127,88 L3128,88 L3129,88 L3130,88 L3131,86 L3132,88 L3133,88 L3134,88 L3135,88 L3136,88 L3137,88 L3138,88 L3139,88 L3140,88 L3141,88 L3142,88 L3143,89 L3144,88 L3145,88 L3146,88 L3147,88 L3148,89 L3149,89 L3150,88 L3151,88 L3152,88 L3153,88 L3154,88 L3155,88 L3156,89 L3157,89 L3158,88 L3159,88 L3160,88 L3161,89 L3162,88 L3163,88 L3164,88 L3165,88 L3166,88 L3167,88 L3168,88 L3169,88 L3170,88 L3171,87 L3172,88 L3173,88 L3174,88 L3175,88 L3176,88 L3177,88 L3178,88 L3179,88 L3180,88 L3181,88 L3182,88 L3183,88 L3184,88 L3185,88 L3186,88 L3187,88 L3188,89 L3189,88 L3190,88 L3191,88 L3192,89 L3193,88 L3194,88 L3195,88 L3196,88 L3197,88 L3198,88 L3199,88 L3200,89 L3201,89 L3202,88 L3203,88 L3204,89 L3205,89 L3206,89 L3207,88 L3208,89 L3209,88 L3210,88 L3211,89 L3212,88 L3213,89 L3214,88 L3215,89 L3216,88 L3217,88 L3218,88 L3219,88 L3220,88 L3221,88 L3222,88 L3223,88 L3224,88 L3225,88 L3226,88 L3227,88 L3228,88 L3229,88 L3230,88 L3231,89 L3232,88 L3233,88 L3234,88 L3235,88 L3236,89 L3237,89 L3238,88 L3239,88 L3240,88 L3241,88 L3242,88 L3243,89 L3244,88 L3245,88 L3246,89 L3247,88 L3248,88 L3249,88 L3250,88 L3251,89 L3252,88 L3253,88 L3254,89 L3255,89 L3256,88 L3257,88 L3258,88 L3259,88 L3260,88 L3261,88 L3262,88 L3263,88 L3264,88 L3265,88 L3266,88 L3267,88 L3268,89 L3269,88 L3270,88 L3271,88 L3272,88 L3273,88 L3274,89 L3275,88 L3276,88 L3277,88 L3278,88 L3279,88 L3280,88 L3281,88 L3282,88 L3283,88 L3284,88 L3285,88 L3286,88 L3287,88 L3288,88 L3289,88 L3290,88 L3291,88 L3292,88 L3293,88 L3294,88 L3295,88 L3296,88 L3297,88 L3298,88 L3299,89 L3300,89 L3301,88 L3302,88 L3303,88 L3304,90 L3305,88 L3306,89 L3307,88 L3308,88 L3309,88 L3310,88 L3311,88 L3312,88 L3313,88 L3314,88 L3315,88 L3316,88 L3317,88 L3318,89 L3319,88 L3320,88 L3321,88 L3322,88 L3323,88 L3324,88 L3325,89 L3326,88 L3327,88 L3328,88 L3329,90 L3330,89 L3331,88 L3332,88 L3333,89 L3334,88 L3335,88 L3336,88 L3337,88 L3338,88 L3339,88 L3340,88 L3341,88 L3342,88 L3343,88 L3344,88 L3345,88 L3346,88 L3347,88 L3348,88 L3349,89 L3350,88 L3351,88 L3352,88 L3353,88 L3354,88 L3355,88 L3356,88 L3357,88 L3358,88 L3359,88 L3360,88 L3361,89 L3362,89 L3363,88 L3364,88 L3365,88 L3366,88 L3367,88 L3368,88 L3369,88 L3370,88 L3371,88 L3372,88 L3373,88 L3374,89 L3375,88 L3376,88 L3377,88 L3378,88 L3379,88 L3380,88 L3381,88 L3382,88 L3383,88 L3384,88 L3385,88 L3386,88 L3387,91 L3388,88 L3389,88 L3390,88 L3391,88 L3392,89 L3393,89 L3394,88 L3395,88 L3396,89 L3397,89 L3398,89 L3399,89 L3400,89 L3401,88 L3402,88 L3403,88 L3404,88 L3405,89 L3406,88 L3407,88 L3408,88 L3409,88 L3410,88 L3411,89 L3412,90 L3413,88 L3414,88 L3415,88 L3416,88 L3417,88 L3418,88 L3419,89 L3420,88 L3421,88 L3422,88 L3423,88 L3424,88 L3425,88 L3426,88 L3427,88 L3428,88 L3429,88 L3430,88 L3431,88 L3432,89 L3433,88 L3434,88 L3435,88 L3436,88 L3437,89 L3438,88 L3439,88 L3440,89 L3441,88 L3442,88 L3443,88 L3444,89 L3445,88 L3446,88 L3447,88 L3448,88 L3449,88 L3450,89 L3451,88 L3452,88 L3453,88 L3454,88 L3455,89 L3456,88 L3457,88 L3458,88 L3459,88 L3460,88 L3461,88 L3462,88 L3463,89 L3464,88 L3465,88 L3466,88 L3467,89 L3468,88 L3469,88 L3470,88 L3471,88 L3472,88 L3473,88 L3474,88 L3475,89 L3476,88 L3477,88 L3478,88 L3479,89 L3480,88 L3481,88 L3482,88 L3483,88 L3484,88 L3485,88 L3486,88 L3487,88 L3488,88 L3489,88 L3490,88 L3491,88 L3492,88 L3493,88 L3494,89 L3495,88 L3496,88 L3497,88 L3498,89 L3499,89 L3500,88 L3501,88 L3502,88 L3503,88 L3504,88 L3505,88 L3506,89 L3507,89 L3508,88 L3509,88 L3510,88 L3511,89 L3512,88 L3513,88 L3514,88 L3515,88 L3516,88 L3517,88 L3518,89 L3519,89 L3520,88 L3521,88 L3522,88 L3523,88 L3524,89 L3525,89 L3526,88 L3527,88 L3528,88 L3529,89 L3530,89 L3531,88 L3532,88 L3533,89 L3534,88 L3535,88 L3536,88 L3537,88 L3538,89 L3539,88 L3540,88 L3541,88 L3542,88 L3543,88 L3544,88 L3545,88 L3546,88 L3547,88 L3548,88 L3549,88 L3550,88 L3551,88 L3552,88 L3553,88 L3554,88 L3555,88 L3556,88 L3557,88 L3558,88 L3559,88 L3560,87 L3561,89 L3562,89 L3563,88 L3564,88 L3565,88 L3566,88 L3567,88 L3568,88 L3569,89 L3570,88 L3571,88 L3572,88 L3573,89 L3574,89 L3575,88 L3576,88 L3577,88 L3578,88 L3579,88 L3580,88 L3581,88 L3582,88 L3583,88 L3584,88 L3585,86 L3586,88 L3587,89 L3588,89 L3589,88 L3590,88 L3591,88 L3592,89 L3593,88 L3594,88 L3595,88 L3596,88 L3597,88 L3598,88 L3599,88 L3600,89 L3601,88 L3602,88 L3603,88 L3604,88 L3605,88 L3606,88 L3607,88 L3608,88 L3609,88 L3610,87 L3611,88 L3612,89 L3613,88 L3614,88 L3615,88 L3616,88 L3617,88 L3618,87 L3619,88 L3620,88 L3621,88 L3622,88 L3623,89 L3624,88 L3625,88 L3626,88 L3627,88 L3628,88 L3629,88 L3630,88 L3631,88 L3632,89 L3633,88 L3634,88 L3635,89 L3636,89 L3637,88 L3638,88 L3639,88 L3640,88 L3641,88 L3642,88 L3643,86 L3644,89 L3645,88 L3646,87 L3647,88 L3648,89 L3649,89 L3650,88 L3651,88 L3652,88 L3653,88 L3654,88 L3655,89 L3656,88 L3657,88 L3658,88 L3659,88 L3660,88 L3661,88 L3662,88 L3663,89 L3664,88 L3665,88 L3666,88 L3667,89 L3668,87 L3669,88 L3670,88 L3671,88 L3672,88 L3673,88 L3674,88 L3675,88 L3676,88 L3677,88 L3678,88 L3679,88 L3680,88 L3681,88 L3682,88 L3683,88 L3684,88 L3685,88 L3686,88 L3687,88 L3688,88 L3689,88 L3690,88 L3691,88 L3692,88 L3693,88 L3694,89 L3695,88 L3696,87 L3697,88 L3698,89 L3699,88 L3700,88 L3701,88 L3702,88 L3703,88 L3704,88 L3705,88 L3706,89 L3707,89 L3708,88 L3709,88 L3710,88 L3711,89 L3712,88 L3713,88 L3714,88 L3715,88 L3716,88 L3717,88 L3718,89 L3719,88 L3720,88 L3721,88 L3722,88 L3723,88 L3724,88 L3725,89 L3726,88 L3727,88 L3728,88 L3729,88 L3730,88 L3731,88 L3732,88 L3733,88 L3734,88 L3735,88 L3736,88 L3737,88 L3738,88 L3739,88 L3740,88 L3741,88 L3742,88 L3743,89 L3744,88 L3745,89 L3746,88 L3747,88 L3748,88 L3749,88 L3750,88 L3751,88 L3752,88 L3753,89 L3754,88 L3755,88 L3756,89 L3757,88 L3758,88 L3759,88 L3760,88 L3761,89 L3762,88 L3763,88 L3764,88 L3765,88 L3766,88 L3767,88 L3768,89 L3769,89 L3770,88 L3771,88 L3772,88 L3773,89 L3774,89 L3775,88 L3776,88 L3777,89 L3778,88 L3779,88 L3780,88 L3781,88 L3782,89 L3783,88 L3784,88 L3785,88 L3786,88 L3787,88 L3788,88 L3789,88 L3790,88 L3791,88 L3792,88 L3793,88 L3794,88 L3795,88 L3796,88 L3797,88 L3798,88 L3799,88 L3800,88 L3801,88 L3802,88 L3803,88 L3804,89 L3805,88 L3806,88 L3807,88 L3808,88 L3809,88 L3810,88 L3811,88 L3812,88 L3813,88 L3814,88 L3815,88 L3816,89 L3817,88 L3818,88 L3819,88 L3820,88 L3821,88 L3822,88 L3823,88 L3824,88 L3825,88 L3826,88 L3827,88 L3828,88 L3829,88 L3830,88 L3831,88 L3832,88 L3833,88 L3834,88 L3835,89 L3836,89 L3837,88 L3838,88 L3839,88 L3840,88 L3841,90 L3842,88 L3843,89 L3844,88 L3845,88 L3846,88 L3847,88 L3848,88 L3849,88 L3850,88 L3851,88 L3852,88 L3853,88 L3854,88 L3855,88 L3856,88 L3857,88 L3858,88 L3859,88 L3860,88 L3861,88 L3862,88 L3863,88 L3864,88 L3865,88 L3866,89 L3867,88 L3868,88 L3869,88 L3870,88 L3871,88 L3872,88 L3873,88 L3874,89 L3875,88 L3876,88 L3877,88 L3878,88 L3879,89 L3880,88 L3881,88 L3882,88 L3883,88 L3884,88 L3885,88 L3886,88 L3887,88 L3888,88 L3889,88 L3890,88 L3891,88 L3892,88 L3893,89 L3894,89 L3895,88 L3896,88 L3897,88 L3898,88 L3899,91 L3900,88 L3901,88 L3902,88 L3903,88 L3904,88 L3905,88 L3906,89 L3907,88 L3908,88 L3909,88 L3910,89 L3911,89 L3912,88 L3913,87 L3914,88 L3915,88 L3916,87 L3917,88 L3918,88 L3919,88 L3920,88 L3921,88 L3922,88 L3923,88 L3924,89 L3925,89 L3926,88 L3927,88 L3928,88 L3929,88 L3930,89 L3931,88 L3932,88 L3933,88 L3934,88 L3935,88 L3936,88 L3937,89 L3938,88 L3939,88 L3940,88 L3941,88 L3942,89 L3943,88 L3944,88 L3945,88 L3946,88 L3947,88 L3948,88 L3949,88 L3950,88 L3951,88 L3952,88 L3953,88 L3954,88 L3955,88 L3956,88 L3957,88 L3958,88 L3959,88 L3960,88 L3961,89 L3962,88 L3963,88 L3964,88 L3965,88 L3966,88 L3967,88 L3968,89 L3969,89 L3970,88 L3971,87 L3972,88 L3973,89 L3974,88 L3975,88 L3976,88 L3977,88 L3978,88 L3979,88 L3980,88 L3981,88 L3982,88 L3983,88 L3984,88 L3985,88 L3986,88 L3987,88 L3988,88 L3989,88 L3990,88 L3991,88 L3992,88 L3993,89 L3994,88 L3995,88 L3996,88 L3997,88 L3998,88 L3999,88 L4000,88 L4001,88 L4002,88 L4003,88 L4004,88 L4005,88 L4006,88 L4007,88 L4008,88 L4009,88 L4010,88 L4011,88 L4012,88 L4013,88 L4014,88 L4015,88 L4016,88 L4017,88 L4018,88 L4019,88 L4020,88 L4021,88 L4022,88 L4023,88 L4024,88 L4025,88 L4026,88 L4027,88 L4028,88 L4029,88 L4030,88 L4031,88 L4032,89 L4033,87 L4034,88 L4035,88 L4036,89 L4037,88 L4038,88 L4039,88 L4040,88 L4041,88 L4042,88 L4043,89 L4044,88 L4045,88 L4046,88 L4047,88 L4048,89 L4049,88 L4050,88 L4051,88 L4052,88 L4053,88 L4054,88 L4055,88 L4056,88 L4057,88 L4058,88 L4059,88 L4060,88 L4061,89 L4062,88 L4063,88 L4064,88 L4065,88 L4066,88 L4067,89 L4068,88 L4069,88 L4070,88 L4071,88 L4072,88 L4073,88 L4074,89 L4075,88 L4076,88 L4077,88 L4078,88 L4079,89 L4080,88 L4081,88 L4082,88 L4083,88 L4084,88 L4085,88 L4086,88 L4087,89 L4088,88 L4089,88 L4090,88 L4091,88 L4092,88 L4093,88 L4094,88 L4095,88 "/>
<path stroke="cyan" fill="none" stroke-width="1" d="M0,221 L1,221 L2,220 L3,220 L4,220 L5,218 L6,220 L7,220 L8,220 L9,218 L10,220 L11,220 L12,220 L13,220 L14,220 L15,221 L16,221 L17,221 L18,221 L19,221 L20,220 L21,220 L22,221 L23,221 L24,221 L25,220 L26,221 L27,223 L28,221 L29,221 L30,221 L31,220 L32,220 L33,220 L34,220 L35,220 L36,218 L37,218 L38,220 L39,220 L40,218 L41,218 L42,220 L43,220 L44,220 L45,221 L46,221 L47,220 L48,220 L49,221 L50,221 L51,221 L52,220 L53,221 L54,223 L55,221 L56,221 L57,220 L58,221 L59,220 L60,220 L61,221 L62,220 L63,218 L64,218 L65,220 L66,220 L67,220 L68,218 L69,220 L70,220 L71,220 L72,218 L73,220 L74,220 L75,220 L76,220 L77,221 L78,221 L79,220 L80,220 L81,221 L82,223 L83,221 L84,220 L85,221 L86,220 L87,220 L88,221 L89,221 L90,221 L91,220 L92,220 L93,220 L94,220 L95,218 L96,218 L97,220 L98,220 L99,218 L100,220 L101,220 L102,220 L103,218 L104,220 L105,220 L106,220 L107,218 L108,220 L109,221 L110,221 L111,220 L112,220 L113,221 L114,221 L115,221 L116,221 L117,221 L118,220 L119,220 L120,221 L121,223 L122,220 L123,220 L124,221 L125,221 L126,221 L127,220 L128,220 L129,220 L130,220 L131,220 L132,221 L133,220 L134,220 L135,220 L136,220 L137,221 L138,220 L139,220 L140,221 L141,223 L142,221 L143,221 L144,223 L145,221 L146,221 L147,221 L148,223 L149,221 L150,220 L151,220 L152,220 L153,221 L154,220 L155,220 L156,220 L157,221 L158,220 L159,220 L160,220 L161,220 L162,220 L163,220 L164,221 L165,220 L166,218 L167,220 L168,220 L169,220 L170,220 L171,220 L172,221 L173,220 L174,220 L175,221 L176,223 L177,221 L178,221 L179,223 L180,223 L181,221 L182,220 L183,220 L184,221 L185,220 L186,218 L187,220 L188,220 L189,218 L190,220 L191,220 L192,221 L193,218 L194,220 L195,221 L196,221 L197,218 L198,220 L199,220 L200,220 L201,220 L202,221 L203,221 L204,220 L205,220 L206,221 L207,221 L208,221 L209,220 L210,220 L211,221 L212,221 L213,221 L214,221 L215,221 L216,221 L217,220 L218,221 L219,221 L220,220 L221,218 L222,221 L223,220 L224,220 L225,218 L226,220 L227,218 L228,220 L229,220 L230,221 L231,221 L232,220 L233,221 L234,223 L235,221 L236,220 L237,220 L238,221 L239,221 L240,221 L241,221 L242,220 L243,221 L244,221 L245,223 L246,223 L247,221 L248,220 L249,220 L250,220 L251,220 L252,218 L253,218 L254,220 L255,218 L256,218 L257,218 L258,218 L259,218 L260,220 L261,221 L262,221 L263,220 L264,220 L265,221 L266,223 L267,221 L268,220 L269,221 L270,221 L271,221 L272,221 L273,221 L274,221 L275,220 L276,220 L277,220 L278,221 L279,218 L280,220 L281,220 L282,220 L283,220 L284,220 L285,220 L286,220 L287,218 L288,220 L289,220 L290,220 L291,218 L292,218 L293,221 L294,221 L295,220 L296,221 L297,221 L298,221 L299,220 L300,221 L301,221 L302,221 L303,220 L304,221 L305,223 L306,220 L307,220 L308,220 L309,221 L310,220 L311,218 L312,220 L313,221 L314,220 L315,220 L316,220 L317,220 L318,218 L319,218 L320,220 L321,220 L322,220 L323,218 L324,220 L325,221 L326,221 L327,220 L328,220 L329,220 L330,220 L331,220 L332,221 L333,221 L334,221 L335,221 L336,221 L337,223 L338,221 L339,220 L340,221 L341,220 L342,220 L343,218 L344,218 L345,218 L346,218 L347,218 L348,221 L349,220 L350,218 L351,220 L352,220 L353,220 L354,218 L355,218 L356,220 L357,220 L358,221 L359,223 L360,221 L361,221 L362,220 L363,221 L364,223 L365,221 L366,220 L367,221 L368,221 L369,223 L370,221 L371,223 L372,220 L373,218 L374,218 L375,220 L376,220 L377,220 L378,218 L379,218 L380,220 L381,218 L382,218 L383,218 L384,218 L385,220 L386,220 L387,221 L388,221 L389,221 L390,221 L391,221 L392,221 L393,221 L394,221 L395,221 L396,221 L397,221 L398,221 L399,221 L400,221 L401,220 L402,223 L403,221 L404,220 L405,218 L406,220 L407,220 L408,220 L409,218 L410,220 L411,220 L412,220 L413,220 L414,220 L415,220 L416,220 L417,218 L418,221 L419,221 L420,221 L421,220 L422,221 L423,221 L424,221 L425,220 L426,221 L427,221 L428,220 L429,220 L430,221 L431,220 L432,220 L433,220 L434,220 L435,220 L436,218 L437,218 L438,220 L439,221 L440,220 L441,220 L442,220 L443,220 L444,218 L445,220 L446,220 L447,220 L448,218 L449,220 L450,221 L451,223 L452,220 L453,220 L454,221 L455,221 L456,221 L457,221 L458,221 L459,220 L460,220 L461,221 L462,221 L463,221 L464,220 L465,220 L466,220 L467,220 L468,220 L469,220 L470,220 L471,220 L472,220 L473,220 L474,220 L475,218 L476,218 L477,220 L478,220 L479,220 L480,220 L481,221 L482,221 L483,221 L484,220 L485,220 L486,220 L487,220 L488,220 L489,223 L490,221 L491,220 L492,220 L493,221 L494,221 L495,221 L496,220 L497,220 L498,220 L499,220 L500,220 L501,220 L502,220 L503,218 L504,220 L505,221 L506,220 L507,218 L508,218 L509,220 L510,220 L511,220 L512,220 L513,221 L514,221 L515,220 L516,221 L517,221 L518,221 L519,220 L520,221 L521,221 L522,221 L523,220 L524,220 L525,221 L526,221 L527,220 L528,220 L529,220 L530,220 L531,218 L532,220 L533,220 L534,220 L535,218 L536,218 L537,218 L538,218 L539,219 L540,218 L541,220 L542,220 L543,221 L544,221 L545,221 L546,218 L547,220 L548,220 L549,221 L550,220 L551,220 L552,221 L553,221 L554,221 L555,221 L556,220 L557,220 L558,218 L559,218 L560,220 L561,218 L562,218 L563,220 L564,220 L565,220 L566,220 L567,218 L568,218 L569,218 L570,218 L571,218 L572,220 L573,220 L574,220 L575,221 L576,223 L577,220 L578,218 L579,220 L580,220 L581,220 L582,221 L583,223 L584,223 L585,221 L586,221 L587,221 L588,220 L589,220 L590,218 L591,220 L592,220 L593,220 L594,220 L595,220 L596,220 L597,220 L598,218 L599,218 L600,218 L601,218 L602,218 L603,221 L604,221 L605,220 L606,221 L607,223 L608,221 L609,220 L610,220 L611,221 L612,220 L613,220 L614,221 L615,221 L616,221 L617,220 L618,221 L619,221 L620,220 L621,218 L622,218 L623,220 L624,220 L625,220 L626,220 L627,220 L628,220 L629,220 L630,220 L631,220 L632,218 L633,220 L634,220 L635,221 L636,221 L637,220 L638,221 L639,221 L640,220 L641,220 L642,221 L643,220 L644,220 L645,221 L646,223 L647,223 L648,221 L649,220 L650,221 L651,221 L652,220 L653,220 L654,220 L655,218 L656,218 L657,218 L658,220 L659,218 L660,218 L661,218 L662,220 L663,220 L664,218 L665,218 L666,221 L667,221 L668,221 L669,223 L670,221 L671,221 L672,221 L673,221 L674,223 L675,221 L676,221 L677,221 L678,221 L679,221 L680,221 L681,221 L682,221 L683,220 L684,220 L685,220 L686,220 L687,218 L688,218 L689,220 L690,220 L691,220 L692,219 L693,218 L694,220 L695,220 L696,218 L697,220 L698,221 L699,221 L700,221 L701,223 L702,221 L703,221 L704,220 L705,221 L706,221 L707,221 L708,220 L709,221 L710,221 L711,221 L712,221 L713,221 L714,220 L715,218 L716,220 L717,220 L718,220 L719,218 L720,220 L721,220 L722,220 L723,220 L724,218 L725,220 L726,220 L727,220 L728,220 L729,220 L730,220 L731,221 L732,221 L733,223 L734,221 L735,220 L736,221 L737,221 L738,221 L739,220 L740,220 L741,221 L742,220 L743,220 L744,220 L745,218 L746,218 L747,219 L748,220 L749,220 L750,220 L751,218 L752,220 L753,220 L754,218 L755,218 L756,218 L757,218 L758,218 L759,220 L760,223 L761,223 L762,221 L763,221 L764,221 L765,220 L766,220 L767,220 L768,220 L769,221 L770,221 L771,223 L772,221 L773,221 L774,220 L775,221 L776,221 L777,220 L778,218 L779,220 L780,220 L781,220 L782,218 L783,220 L784,220 L785,220 L786,218 L787,220 L788,220 L789,220 L790,220 L791,221 L792,223 L793,221 L794,220 L795,220 L796,220 L797,220 L798,220 L799,220 L800,220 L801,221 L802,221 L803,223 L804,221 L805,221 L806,220 L807,220 L808,220 L809,220 L810,218 L811,218 L812,218 L813,218 L814,218 L815,220 L816,218 L817,220 L818,220 L819,220 L820,221 L821,220 L822,218 L823,220 L824,221 L825,220 L826,220 L827,221 L828,223 L829,221 L830,221 L831,223 L832,221 L833,220 L834,221 L835,223 L836,223 L837,221 L838,220 L839,220 L840,220 L841,220 L842,220 L843,220 L844,220 L845,218 L846,220 L847,220 L848,218 L849,219 L850,218 L851,220 L852,220 L853,220 L854,221 L855,223 L856,221 L857,221 L858,220 L859,221 L860,220 L861,220 L862,221 L863,221 L864,220 L865,220 L866,220 L867,221 L868,220 L869,218 L870,220 L871,218 L872,218 L873,218 L874,220 L875,220 L876,218 L877,218 L878,220 L879,220 L880,218 L881,218 L882,220 L883,220 L884,220 L885,220 L886,223 L887,221 L888,220 L889,221 L890,223 L891,221 L892,220 L893,220 L894,221 L895,221 L896,220 L897,220 L898,221 L899,221 L900,220 L901,220 L902,220 L903,218 L904,219 L905,220 L906,220 L907,220 L908,220 L909,220 L910,220 L911,220 L912,220 L913,221 L914,221 L915,220 L916,220 L917,222 L918,223 L919,220 L920,220 L921,221 L922,223 L923,221 L924,221 L925,223 L926,221 L927,221 L928,221 L929,221 L930,221 L931,220 L932,220 L933,221 L934,220 L935,218 L936,220 L937,220 L938,220 L939,220 L940,220 L941,220 L942,220 L943,220 L944,220 L945,221 L946,220 L947,220 L948,221 L949,221 L950,221 L951,220 L952,220 L953,220 L954,220 L955,220 L956,221 L957,221 L958,221 L959,221 L960,223 L961,223 L962,220 L963,218 L964,218 L965,218 L966,218 L967,218 L968,220 L969,220 L970,220 L971,220 L972,220 L973,218 L974,218 L975,218 L976,220 L977,220 L978,220 L979,221 L980,221 L981,221 L982,221 L983,221 L984,221 L985,221 L986,221 L987,221 L988,223 L989,221 L990,220 L991,221 L992,223 L993,221 L994,220 L995,218 L996,220 L997,220 L998,218 L999,220 L1000,220 L1001,220 L1002,218 L1003,220 L1004,220 L1005,218 L1006,218 L1007,220 L1008,220 L1009,221 L1010,221 L1011,221 L1012,221 L1013,221 L1014,221 L1015,221 L1016,221 L1017,220 L1018,220 L1019,223 L1020,221 L1021,220 L1022,220 L1023,221 L1024,220 L1025,220 L1026,220 L1027,220 L1028,220 L1029,220 L1030,218 L1031,220 L1032,220 L1033,219 L1034,218 L1035,220 L1036,220 L1037,220 L1038,220 L1039,221 L1040,221 L1041,221 L1042,223 L1043,221 L1044,221 L1045,221 L1046,221 L1047,221 L1048,221 L1049,220 L1050,220 L1051,221 L1052,221 L1053,220 L1054,223 L1055,220 L1056,218 L1057,218 L1058,218 L1059,220 L1060,218 L1061,218 L1062,220 L1063,220 L1064,220 L1065,220 L1066,220 L1067,220 L1068,220 L1069,220 L1070,221 L1071,221 L1072,221 L1073,221 L1074,221 L1075,221 L1076,220 L1077,220 L1078,221 L1079,221 L1080,221 L1081,221 L1082,221 L1083,221 L1084,221 L1085,223 L1086,221 L1087,220 L1088,218 L1089,220 L1090,220 L1091,220 L1092,218 L1093,220 L1094,220 L1095,220 L1096,218 L1097,220 L1098,220 L1099,220 L1100,220 L1101,221 L1102,221 L1103,221 L1104,220 L1105,221 L1106,221 L1107,221 L1108,220 L1109,220 L1110,220 L1111,220 L1112,220 L1113,221 L1114,221 L1115,220 L1116,221 L1117,221 L1118,220 L1119,218 L1120,218 L1121,218 L1122,220 L1123,218 L1124,218 L1125,218 L1126,218 L1127,218 L1128,220 L1129,220 L1130,220 L1131,218 L1132,220 L1133,221 L1134,221 L1135,220 L1136,220 L1137,220 L1138,220 L1139,220 L1140,220 L1141,220 L1142,220 L1143,220 L1144,220 L1145,221 L1146,221 L1147,220 L1148,220 L1149,220 L1150,220 L1151,218 L1152,220 L1153,220 L1154,220 L1155,218 L1156,220 L1157,220 L1158,218 L1159,218 L1160,220 L1161,220 L1162,220 L1163,218 L1164,220 L1165,221 L1166,223 L1167,221 L1168,221 L1169,221 L1170,221 L1171,220 L1172,221 L1173,221 L1174,220 L1175,220 L1176,221 L1177,221 L1178,221 L1179,220 L1180,220 L1181,220 L1182,218 L1183,220 L1184,220 L1185,218 L1186,218 L1187,220 L1188,220 L1189,220 L1190,218 L1191,220 L1192,220 L1193,220 L1194,220 L1195,221 L1196,220 L1197,221 L1198,221 L1199,223 L1200,223 L1201,221 L1202,220 L1203,220 L1204,221 L1205,221 L1206,220 L1207,221 L1208,221 L1209,221 L1210,221 L1211,220 L1212,220 L1213,218 L1214,220 L1215,220 L1216,220 L1217,218 L1218,220 L1219,220 L1220,221 L1221,220 L1222,220 L1223,220 L1224,220 L1225,221 L1226,223 L1227,223 L1228,221 L1229,220 L1230,221 L1231,223 L1232,223 L1233,220 L1234,221 L1235,221 L1236,221 L1237,221 L1238,221 L1239,221 L1240,221 L1241,220 L1242,220 L1243,220 L1244,218 L1245,218 L1246,220 L1247,220 L1248,220 L1249,220 L1250,220 L1251,220 L1252,220 L1253,220 L1254,220 L1255,220 L1256,220 L1257,221 L1258,223 L1259,223 L1260,221 L1261,221 L1262,221 L1263,221 L1264,221 L1265,220 L1266,220 L1267,220 L1268,220 L1269,220 L1270,223 L1271,221 L1272,220 L1273,220 L1274,220 L1275,220 L1276,218 L1277,218 L1278,220 L1279,218 L1280,218 L1281,220 L1282,220 L1283,218 L1284,218 L1285,220 L1286,221 L1287,221 L1288,220 L1289,221 L1290,223 L1291,221 L1292,220 L1293,221 L1294,223 L1295,221 L1296,220 L1297,221 L1298,221 L1299,221 L1300,221 L1301,221 L1302,223 L1303,221 L1304,218 L1305,220 L1306,220 L1307,220 L1308,220 L1309,220 L1310,220 L1311,220 L1312,220 L1313,220 L1314,220 L1315,218 L1316,218 L1317,218 L1318,220 L1319,220 L1320,220 L1321,220 L1322,221 L1323,220 L1324,220 L1325,221 L1326,221 L1327,220 L1328,220 L1329,221 L1330,221 L1331,220 L1332,220 L1333,221 L1334,220 L1335,218 L1336,218 L1337,218 L1338,220 L1339,218 L1340,220 L1341,220 L1342,218 L1343,218 L1344,220 L1345,220 L1346,220 L1347,218 L1348,220 L1349,220 L1350,221 L1351,220 L1352,221 L1353,221 L1354,220 L1355,220 L1356,223 L1357,223 L1358,220 L1359,220 L1360,221 L1361,221 L1362,221 L1363,220 L1364,221 L1365,220 L1366,220 L1367,220 L1368,220 L1369,218 L1370,218 L1371,218 L1372,220 L1373,220 L1374,218 L1375,218 L1376,220 L1377,220 L1378,220 L1379,218 L1380,220 L1381,220 L1382,220 L1383,223 L1384,221 L1385,220 L1386,220 L1387,221 L1388,221 L1389,221 L1390,220 L1391,221 L1392,221 L1393,221 L1394,221 L1395,221 L1396,220 L1397,218 L1398,218 L1399,220 L1400,220 L1401,220 L1402,218 L1403,220 L1404,220 L1405,220 L1406,220 L1407,220 L1408,220 L1409,220 L1410,220 L1411,221 L1412,220 L1413,220 L1414,221 L1415,223 L1416,221 L1417,220 L1418,220 L1419,221 L1420,221 L1421,220 L1422,221 L1423,221 L1424,220 L1425,220 L1426,221 L1427,223 L1428,220 L1429,218 L1430,220 L1431,220 L1432,220 L1433,220 L1434,220 L1435,220 L1436,220 L1437,220 L1438,220 L1439,220 L1440,218 L1441,218 L1442,220 L1443,221 L1444,220 L1445,220 L1446,221 L1447,221 L1448,221 L1449,220 L1450,221 L1451,221 L1452,221 L1453,221 L1454,223 L1455,221 L1456,220 L1457,220 L1458,221 L1459,220 L1460,220 L1461,218 L1462,220 L1463,220 L1464,218 L1465,220 L1466,220 L1467,220 L1468,218 L1469,218 L1470,220 L1471,220 L1472,218 L1473,220 L1474,221 L1475,221 L1476,221 L1477,220 L1478,221 L1479,221 L1480,221 L1481,221 L1482,223 L1483,221 L1484,220 L1485,221 L1486,223 L1487,221 L1488,220 L1489,221 L1490,220 L1491,220 L1492,220 L1493,220 L1494,220 L1495,220 L1496,220 L1497,220 L1498,220 L1499,220 L1500,218 L1501,220 L1502,220 L1503,220 L1504,220 L1505,220 L1506,221 L1507,221 L1508,221 L1509,220 L1510,221 L1511,221 L1512,220 L1513,223 L1514,221 L1515,221 L1516,220 L1517,221 L1518,221 L1519,221 L1520,221 L1521,220 L1522,220 L1523,220 L1524,220 L1525,220 L1526,220 L1527,218 L1528,220 L1529,220 L1530,220 L1531,218 L1532,218 L1533,220 L1534,220 L1535,220 L1536,220 L1537,221 L1538,221 L1539,220 L1540,221 L1541,221 L1542,221 L1543,220 L1544,221 L1545,221 L1546,221 L1547,220 L1548,221 L1549,221 L1550,221 L1551,221 L1552,220 L1553,220 L1554,220 L1555,220 L1556,220 L1557,220 L1558,218 L1559,218 L1560,220 L1561,220 L1562,220 L1563,218 L1564,220 L1565,220 L1566,220 L1567,220 L1568,221 L1569,223 L1570,221 L1571,220 L1572,221 L1573,223 L1574,221 L1575,220 L1576,221 L1577,221 L1578,220 L1579,221 L1580,221 L1581,221 L1582,221 L1583,220 L1584,220 L1585,220 L1586,218 L1587,218 L1588,220 L1589,220 L1590,218 L1591,218 L1592,220 L1593,220 L1594,218 L1595,220 L1596,220 L1597,220 L1598,220 L1599,221 L1600,223 L1601,221 L1602,220 L1603,221 L1604,221 L1605,221 L1606,220 L1607,221 L1608,221 L1609,220 L1610,220 L1611,221 L1612,221 L1613,221 L1614,220 L1615,220 L1616,220 L1617,220 L1618,218 L1619,220 L1620,220 L1621,220 L1622,220 L1623,220 L1624,220 L1625,218 L1626,220 L1627,220 L1628,221 L1629,220 L1630,220 L1631,223 L1632,223 L1633,220 L1634,220 L1635,221 L1636,221 L1637,220 L1638,221 L1639,221 L1640,221 L1641,220 L1642,220 L1643,221 L1644,223 L1645,218 L1646,220 L1647,220 L1648,220 L1649,218 L1650,220 L1651,220 L1652,220 L1653,218 L1654,220 L1655,220 L1656,218 L1657,218 L1658,220 L1659,221 L1660,221 L1661,220 L1662,223 L1663,223 L1664,221 L1665,221 L1666,221 L1667,221 L1668,221 L1669,220 L1670,221 L1671,221 L1672,220 L1673,220 L1674,221 L1675,223 L1676,220 L1677,220 L1678,220 L1679,220 L1680,220 L1681,220 L1682,220 L1683,220 L1684,218 L1685,220 L1686,220 L1687,220 L1688,218 L1689,218 L1690,220 L1691,221 L1692,221 L1693,221 L1694,221 L1695,220 L1696,220 L1697,221 L1698,223 L1699,221 L1700,220 L1701,221 L1702,223 L1703,221 L1704,220 L1705,221 L1706,223 L1707,220 L1708,220 L1709,220 L1710,220 L1711,218 L1712,218 L1713,220 L1714,220 L1715,220 L1716,218 L1717,220 L1718,220 L1719,220 L1720,220 L1721,220 L1722,220 L1723,221 L1724,221 L1725,223 L1726,220 L1727,220 L1728,220 L1729,221 L1730,223 L1731,220 L1732,220 L1733,221 L1734,221 L1735,220 L1736,221 L1737,223 L1738,220 L1739,218 L1740,220 L1741,221 L1742,220 L1743,218 L1744,220 L1745,220 L1746,220 L1747,220 L1748,220 L1749,220 L1750,220 L1751,220 L1752,220 L1753,221 L1754,220 L1755,220 L1756,223 L1757,221 L1758,221 L1759,220 L1760,220 L1761,223 L1762,220 L1763,220 L1764,221 L1765,221 L1766,220 L1767,221 L1768,223 L1769,221 L1770,218 L1771,218 L1772,220 L1773,220 L1774,218 L1775,218 L1776,220 L1777,220 L1778,218 L1779,220 L1780,220 L1781,220 L1782,218 L1783,220 L1784,223 L1785,221 L1786,220 L1787,221 L1788,221 L1789,221 L1790,220 L1791,221 L1792,221 L1793,221 L1794,221 L1795,223 L1796,221 L1797,221 L1798,220 L1799,223 L1800,221 L1801,220 L1802,218 L1803,220 L1804,220 L1805,218 L1806,220 L1807,220 L1808,220 L1809,218 L1810,218 L1811,220 L1812,220 L1813,220 L1814,220 L1815,221 L1816,221 L1817,221 L1818,221 L1819,221 L1820,221 L1821,221 L1822,221 L1823,223 L1824,221 L1825,220 L1826,221 L1827,223 L1828,221 L1829,220 L1830,221 L1831,221 L1832,220 L1833,220 L1834,220 L1835,220 L1836,220 L1837,218 L1838,220 L1839,220 L1840,220 L1841,218 L1842,220 L1843,220 L1844,220 L1845,220 L1846,220 L1847,221 L1848,221 L1849,221 L1850,221 L1851,221 L1852,221 L1853,221 L1854,223 L1855,223 L1856,221 L1857,220 L1858,221 L1859,221 L1860,221 L1861,221 L1862,221 L1863,220 L1864,218 L1865,220 L1866,220 L1867,220 L1868,218 L1869,220 L1870,220 L1871,220 L1872,218 L1873,220 L1874,220 L1875,220 L1876,218 L1877,220 L1878,220 L1879,220 L1880,220 L1881,221 L1882,221 L1883,221 L1884,220 L1885,221 L1886,221 L1887,221 L1888,220 L1889,221 L1890,221 L1891,221 L1892,221 L1893,223 L1894,220 L1895,218 L1896,218 L1897,220 L1898,220 L1899,220 L1900,218 L1901,220 L1902,220 L1903,220 L1904,220 L1905,220 L1906,220 L1907,218 L1908,220 L1909,223 L1910,221 L1911,220 L1912,221 L1913,221 L1914,221 L1915,220 L1916,220 L1917,221 L1918,221 L1919,221 L1920,221 L1921,221 L1922,221 L1923,220 L1924,221 L1925,221 L1926,220 L1927,218 L1928,218 L1929,220 L1930,220 L1931,220 L1932,218 L1933,220 L1934,220 L1935,218 L1936,220 L1937,220 L1938,220 L1939,220 L1940,220 L1941,221 L1942,221 L1943,220 L1944,220 L1945,221 L1946,220 L1947,221 L1948,221 L1949,221 L1950,220 L1951,220 L1952,221 L1953,221 L1954,220 L1955,220 L1956,220 L1957,220 L1958,220 L1959,218 L1960,220 L1961,220 L1962,218 L1963,220 L1964,220 L1965,220 L1966,220 L1967,220 L1968,221 L1969,220 L1970,220 L1971,220 L1972,221 L1973,221 L1974,221 L1975,221 L1976,221 L1977,220 L1978,220 L1979,223 L1980,221 L1981,220 L1982,220 L1983,221 L1984,221 L1985,221 L1986,220 L1987,220 L1988,220 L1989,220 L1990,220 L1991,220 L1992,220 L1993,218 L1994,218 L1995,220 L1996,220 L1997,220 L1998,218 L1999,220 L2000,221 L2001,220 L2002,220 L2003,220 L2004,221 L2005,221 L2006,220 L2007,223 L2008,221 L2009,220 L2010,220 L2011,223 L2012,223 L2013,220 L2014,220 L2015,221 L2016,221 L2017,221 L2018,220 L2019,220 L2020,220 L2021,220 L2022,220 L2023,220 L2024,220 L2025,218 L2026,220 L2027,220 L2028,220 L2029,220 L2030,218 L2031,220 L2032,220 L2033,220 L2034,221 L2035,221 L2036,220 L2037,220 L2038,221 L2039,223 L2040,221 L2041,220 L2042,220 L2043,223 L2044,221 L2045,220 L2046,221 L2047,221 L2048,221 L2049,220 L2050,220 L2051,220 L2052,218 L2053,218 L2054,220 L2055,220 L2056,220 L2057,218 L2058,220 L2059,220 L2060,220 L2061,220 L2062,220 L2063,220 L2064,220 L2065,221 L2066,223 L2067,221 L2068,220 L2069,220 L2070,221 L2071,221 L2072,221 L2073,221 L2074,221 L2075,221 L2076,220 L2077,221 L2078,221 L2079,221 L2080,218 L2081,220 L2082,220 L2083,220 L2084,218 L2085,220 L2086,220 L2087,220 L2088,220 L2089,220 L2090,220 L2091,220 L2092,220 L2093,220 L2094,220 L2095,220 L2096,220 L2097,221 L2098,221 L2099,221 L2100,220 L2101,221 L2102,221 L2103,221 L2104,220 L2105,221 L2106,221 L2107,220 L2108,220 L2109,221 L2110,223 L2111,218 L2112,218 L2113,220 L2114,220 L2115,220 L2116,218 L2117,220 L2118,220 L2119,220 L2120,220 L2121,220 L2122,220 L2123,218 L2124,220 L2125,221 L2126,221 L2127,220 L2128,221 L2129,221 L2130,221 L2131,220 L2132,221 L2133,221 L2134,221 L2135,220 L2136,221 L2137,221 L2138,221 L2139,220 L2140,220 L2141,223 L2142,220 L2143,218 L2144,220 L2145,220 L2146,220 L2147,218 L2148,220 L2149,220 L2150,218 L2151,218 L2152,220 L2153,220 L2154,220 L2155,218 L2156,221 L2157,221 L2158,221 L2159,221 L2160,221 L2161,221 L2162,220 L2163,220 L2164,221 L2165,221 L2166,220 L2167,220 L2168,223 L2169,221 L2170,221 L2171,220 L2172,221 L2173,220 L2174,220 L2175,220 L2176,220 L2177,220 L2178,218 L2179,220 L2180,221 L2181,220 L2182,218 L2183,218 L2184,220 L2185,220 L2186,220 L2187,220 L2188,221 L2189,221 L2190,221 L2191,221 L2192,221 L2193,220 L2194,220 L2195,221 L2196,223 L2197,221 L2198,220 L2199,221 L2200,221 L2201,221 L2202,220 L2203,221 L2204,220 L2205,220 L2206,220 L2207,220 L2208,220 L2209,218 L2210,218 L2211,220 L2212,221 L2213,220 L2214,218 L2215,220 L2216,220 L2217,220 L2218,220 L2219,221 L2220,221 L2221,221 L2222,221 L2223,221 L2224,221 L2225,221 L2226,220 L2227,221 L2228,221 L2229,221 L2230,221 L2231,221 L2232,221 L2233,220 L2234,223 L2235,220 L2236,220 L2237,218 L2238,220 L2239,220 L2240,220 L2241,218 L2242,218 L2243,220 L2244,220 L2245,220 L2246,220 L2247,220 L2248,220 L2249,220 L2250,221 L2251,221 L2252,221 L2253,220 L2254,220 L2255,221 L2256,223 L2257,220 L2258,221 L2259,221 L2260,221 L2261,221 L2262,221 L2263,221 L2264,221 L2265,221 L2266,220 L2267,220 L2268,220 L2269,218 L2270,220 L2271,220 L2272,220 L2273,218 L2274,220 L2275,220 L2276,220 L2277,218 L2278,220 L2279,220 L2280,218 L2281,220 L2282,221 L2283,223 L2284,221 L2285,220 L2286,221 L2287,223 L2288,221 L2289,221 L2290,221 L2291,221 L2292,220 L2293,221 L2294,223 L2295,221 L2296,220 L2297,220 L2298,220 L2299,220 L2300,220 L2301,220 L2302,220 L2303,220 L2304,220 L2305,220 L2306,220 L2307,220 L2308,218 L2309,220 L2310,221 L2311,220 L2312,220 L2313,220 L2314,221 L2315,221 L2316,220 L2317,220 L2318,221 L2319,221 L2320,220 L2321,221 L2322,221 L2323,221 L2324,220 L2325,221 L2326,221 L2327,221 L2328,220 L2329,220 L2330,220 L2331,220 L2332,218 L2333,220 L2334,220 L2335,218 L2336,220 L2337,220 L2338,220 L2339,218 L2340,218 L2341,220 L2342,221 L2343,221 L2344,220 L2345,221 L2346,221 L2347,220 L2348,221 L2349,223 L2350,221 L2351,220 L2352,221 L2353,223 L2354,221 L2355,220 L2356,220 L2357,221 L2358,221 L2359,220 L2360,220 L2361,220 L2362,220 L2363,218 L2364,220 L2365,220 L2366,220 L2367,218 L2368,220 L2369,221 L2370,220 L2371,218 L2372,220 L2373,220 L2374,220 L2375,220 L2376,221 L2377,221 L2378,220 L2379,220 L2380,223 L2381,223 L2382,220 L2383,220 L2384,221 L2385,221 L2386,221 L2387,220 L2388,221 L2389,223 L2390,220 L2391,220 L2392,220 L2393,220 L2394,218 L2395,218 L2396,220 L2397,220 L2398,218 L2399,218 L2400,220 L2401,220 L2402,220 L2403,220 L2404,220 L2405,220 L2406,220 L2407,221 L2408,223 L2409,221 L2410,220 L2411,221 L2412,223 L2413,221 L2414,221 L2415,220 L2416,221 L2417,221 L2418,220 L2419,221 L2420,223 L2421,220 L2422,218 L2423,220 L2424,221 L2425,218 L2426,218 L2427,220 L2428,220 L2429,218 L2430,218 L2431,220 L2432,220 L2433,220 L2434,220 L2435,220 L2436,220 L2437,220 L2438,220 L2439,223 L2440,221 L2441,221 L2442,220 L2443,221 L2444,223 L2445,221 L2446,221 L2447,221 L2448,221 L2449,220 L2450,221 L2451,223 L2452,221 L2453,218 L2454,220 L2455,220 L2456,220 L2457,220 L2458,220 L2459,220 L2460,220 L2461,218 L2462,220 L2463,220 L2464,220 L2465,218 L2466,220 L2467,221 L2468,220 L2469,220 L2470,221 L2471,221 L2472,221 L2473,220 L2474,221 L2475,221 L2476,221 L2477,220 L2478,221 L2479,221 L2480,221 L2481,220 L2482,221 L2483,223 L2484,220 L2485,218 L2486,220 L2487,220 L2488,220 L2489,218 L2490,220 L2491,220 L2492,218 L2493,218 L2494,220 L2495,220 L2496,218 L2497,218 L2498,220 L2499,221 L2500,221 L2501,221 L2502,221 L2503,221 L2504,221 L2505,221 L2506,223 L2507,221 L2508,220 L2509,220 L2510,223 L2511,223 L2512,220 L2513,221 L2514,223 L2515,220 L2516,220 L2517,220 L2518,220 L2519,220 L2520,218 L2521,220 L2522,220 L2523,220 L2524,218 L2525,220 L2526,220 L2527,220 L2528,218 L2529,220 L2530,220 L2531,221 L2532,221 L2533,221 L2534,221 L2535,220 L2536,220 L2537,221 L2538,221 L2539,221 L2540,220 L2541,221 L2542,221 L2543,221 L2544,220 L2545,221 L2546,220 L2547,218 L2548,220 L2549,221 L2550,220 L2551,218 L2552,220 L2553,220 L2554,221 L2555,220 L2556,220 L2557,220 L2558,220 L2559,220 L2560,220 L2561,221 L2562,221 L2563,221 L2564,221 L2565,221 L2566,221 L2567,220 L2568,221 L2569,223 L2570,221 L2571,221 L2572,221 L2573,223 L2574,221 L2575,220 L2576,223 L2577,220 L2578,220 L2579,218 L2580,220 L2581,220 L2582,220 L2583,218 L2584,220 L2585,220 L2586,220 L2587,220 L2588,220 L2589,220 L2590,218 L2591,220 L2592,223 L2593,221 L2594,220 L2595,221 L2596,221 L2597,221 L2598,221 L2599,220 L2600,221 L2601,221 L2602,220 L2603,221 L2604,221 L2605,221 L2606,220 L2607,221 L2608,221 L2609,220 L2610,218 L2611,220 L2612,220 L2613,220 L2614,220 L2615,220 L2616,220 L2617,220 L2618,218 L2619,220 L2620,220 L2621,218 L2622,220 L2623,221 L2624,221 L2625,221 L2626,220 L2627,220 L2628,221 L2629,221 L2630,221 L2631,221 L2632,221 L2633,221 L2634,220 L2635,223 L2636,221 L2637,220 L2638,220 L2639,220 L2640,220 L2641,218 L2642,218 L2643,220 L2644,220 L2645,220 L2646,220 L2647,220 L2648,220 L2649,218 L2650,220 L2651,220 L2652,220 L2653,218 L2654,220 L2655,221 L2656,223 L2657,221 L2658,220 L2659,221 L2660,221 L2661,220 L2662,221 L2663,223 L2664,221 L2665,220 L2666,221 L2667,221 L2668,221 L2669,220 L2670,220 L2671,220 L2672,220 L2673,218 L2674,220 L2675,220 L2676,220 L2677,218 L2678,220 L2679,220 L2680,218 L2681,218 L2682,220 L2683,220 L2684,220 L2685,220 L2686,220 L2687,223 L2688,221 L2689,220 L2690,221 L2691,221 L2692,220 L2693,220 L2694,221 L2695,223 L2696,221 L2697,220 L2698,221 L2699,223 L2700,221 L2701,220 L2702,220 L2703,220 L2704,218 L2705,220 L2706,220 L2707,220 L2708,218 L2709,220 L2710,220 L2711,220 L2712,218 L2713,220 L2714,220 L2715,220 L2716,220 L2717,221 L2718,223 L2719,221 L2720,220 L2721,221 L2722,223 L2723,221 L2724,220 L2725,221 L2726,221 L2727,221 L2728,221 L2729,221 L2730,221 L2731,221 L2732,220 L2733,220 L2734,220 L2735,218 L2736,218 L2737,220 L2738,221 L2739,220 L2740,218 L2741,220 L2742,220 L2743,218 L2744,220 L2745,220 L2746,220 L2747,220 L2748,221 L2749,223 L2750,221 L2751,220 L2752,220 L2753,221 L2754,223 L2755,221 L2756,221 L2757,221 L2758,221 L2759,220 L2760,221 L2761,221 L2762,221 L2763,220 L2764,220 L2765,220 L2766,220 L2767,218 L2768,220 L2769,220 L2770,220 L2771,218 L2772,220 L2773,220 L2774,220 L2775,218 L2776,220 L2777,220 L2778,220 L2779,220 L2780,221 L2781,223 L2782,221 L2783,220 L2784,221 L2785,221 L2786,221 L2787,221 L2788,221 L2789,221 L2790,221 L2791,220 L2792,221 L2793,223 L2794,220 L2795,218 L2796,220 L2797,220 L2798,220 L2799,220 L2800,220 L2801,220 L2802,220 L2803,220 L2804,220 L2805,220 L2806,218 L2807,218 L2808,220 L2809,221 L2810,220 L2811,220 L2812,221 L2813,221 L2814,221 L2815,221 L2816,221 L2817,221 L2818,220 L2819,220 L2820,221 L2821,221 L2822,220 L2823,221 L2824,223 L2825,221 L2826,218 L2827,220 L2828,220 L2829,220 L2830,220 L2831,220 L2832,220 L2833,220 L2834,218 L2835,220 L2836,221 L2837,220 L2838,218 L2839,220 L2840,221 L2841,221 L2842,221 L2843,220 L2844,221 L2845,221 L2846,221 L2847,223 L2848,221 L2849,221 L2850,220 L2851,221 L2852,221 L2853,221 L2854,220 L2855,221 L2856,221 L2857,220 L2858,220 L2859,220 L2860,220 L2861,220 L2862,220 L2863,220 L2864,220 L2865,218 L2866,218 L2867,220 L2868,220 L2869,218 L2870,218 L2871,220 L2872,221 L2873,221 L2874,221 L2875,220 L2876,221 L2877,221 L2878,221 L2879,221 L2880,221 L2881,220 L2882,220 L2883,221 L2884,221 L2885,220 L2886,221 L2887,220 L2888,220 L2889,218 L2890,220 L2891,220 L2892,220 L2893,218 L2894,220 L2895,220 L2896,220 L2897,218 L2898,220 L2899,220 L2900,220 L2901,220 L2902,220 L2903,221 L2904,220 L2905,221 L2906,221 L2907,221 L2908,220 L2909,220 L2910,221 L2911,221 L2912,220 L2913,220 L2914,221 L2915,221 L2916,221 L2917,221 L2918,221 L2919,220 L2920,218 L2921,220 L2922,220 L2923,220 L2924,218 L2925,218 L2926,220 L2927,220 L2928,218 L2929,218 L2930,220 L2931,220 L2932,220 L2933,221 L2934,221 L2935,221 L2936,220 L2937,220 L2938,221 L2939,221 L2940,220 L2941,221 L2942,221 L2943,221 L2944,220 L2945,221 L2946,221 L2947,221 L2948,220 L2949,221 L2950,220 L2951,220 L2952,218 L2953,220 L2954,220 L2955,220 L2956,218 L2957,220 L2958,220 L2959,220 L2960,218 L2961,220 L2962,220 L2963,220 L2964,220 L2965,221 L2966,221 L2967,221 L2968,220 L2969,221 L2970,223 L2971,221 L2972,220 L2973,221 L2974,221 L2975,220 L2976,220 L2977,221 L2978,221 L2979,221 L2980,220 L2981,220 L2982,220 L2983,220 L2984,218 L2985,220 L2986,220 L2987,218 L2988,220 L2989,220 L2990,220 L2991,220 L2992,220 L2993,221 L2994,220 L2995,220 L2996,221 L2997,223 L2998,221 L2999,220 L3000,220 L3001,221 L3002,221 L3003,221 L3004,221 L3005,221 L3006,220 L3007,220 L3008,221 L3009,221 L3010,221 L3011,220 L3012,220 L3013,220 L3014,220 L3015,218 L3016,220 L3017,220 L3018,218 L3019,218 L3020,220 L3021,220 L3022,218 L3023,218 L3024,220 L3025,220 L3026,220 L3027,220 L3028,221 L3029,223 L3030,220 L3031,221 L3032,221 L3033,221 L3034,220 L3035,221 L3036,223 L3037,221 L3038,220 L3039,221 L3040,223 L3041,223 L3042,220 L3043,218 L3044,220 L3045,220 L3046,218 L3047,220 L3048,220 L3049,220 L3050,218 L3051,220 L3052,220 L3053,220 L3054,218 L3055,220 L3056,220 L3057,220 L3058,221 L3059,221 L3060,221 L3061,220 L3062,220 L3063,223 L3064,223 L3065,220 L3066,220 L3067,221 L3068,223 L3069,221 L3070,220 L3071,221 L3072,221 L3073,220 L3074,220 L3075,220 L3076,220 L3077,218 L3078,220 L3079,220 L3080,220 L3081,218 L3082,218 L3083,220 L3084,220 L3085,220 L3086,220 L3087,220 L3088,221 L3089,220 L3090,221 L3091,223 L3092,221 L3093,218 L3094,221 L3095,221 L3096,221 L3097,220 L3098,220 L3099,221 L3100,221 L3101,221 L3102,221 L3103,221 L3104,220 L3105,218 L3106,220 L3107,220 L3108,218 L3109,218 L3110,220 L3111,220 L3112,220 L3113,220 L3114,218 L3115,220 L3116,220 L3117,218 L3118,220 L3119,220 L3120,220 L3121,220 L3122,223 L3123,223 L3124,220 L3125,220 L3126,221 L3127,221 L3128,220 L3129,220 L3130,221 L3131,221 L3132,220 L3133,221 L3134,221 L3135,221 L3136,218 L3137,220 L3138,220 L3139,220 L3140,218 L3141,220 L3142,220 L3143,220 L3144,220 L3145,220 L3146,220 L3147,220 L3148,220 L3149,220 L3150,221 L3151,221 L3152,220 L3153,223 L3154,221 L3155,221 L3156,221 L3157,221 L3158,221 L3159,221 L3160,221 L3161,221 L3162,221 L3163,220 L3164,220 L3165,221 L3166,221 L3167,220 L3168,218 L3169,220 L3170,220 L3171,220 L3172,220 L3173,220 L3174,220 L3175,218 L3176,220 L3177,220 L3178,220 L3179,220 L3180,218 L3181,220 L3182,221 L3183,221 L3184,220 L3185,221 L3186,221 L3187,220 L3188,221 L3189,221 L3190,221 L3191,220 L3192,221 L3193,223 L3194,221 L3195,220 L3196,220 L3197,221 L3198,220 L3199,220 L3200,218 L3201,220 L3202,220 L3203,220 L3204,220 L3205,220 L3206,220 L3207,218 L3208,218 L3209,220 L3210,220 L3211,218 L3212,220 L3213,221 L3214,221 L3215,221 L3216,221 L3217,221 L3218,221 L3219,221 L3220,223 L3221,221 L3222,221 L3223,220 L3224,221 L3225,221 L3226,221 L3227,220 L3228,221 L3229,220 L3230,220 L3231,218 L3232,220 L3233,218 L3234,220 L3235,218 L3236,220 L3237,220 L3238,218 L3239,218 L3240,220 L3241,220 L3242,220 L3243,220 L3244,220 L3245,220 L3246,221 L3247,220 L3248,221 L3249,221 L3250,220 L3251,220 L3252,221 L3253,223 L3254,220 L3255,220 L3256,221 L3257,221 L3258,220 L3259,221 L3260,220 L3261,220 L3262,218 L3263,218 L3264,220 L3265,220 L3266,218 L3267,220 L3268,220 L3269,220 L3270,220 L3271,220 L3272,220 L3273,220 L3274,220 L3275,221 L3276,220 L3277,220 L3278,220 L3279,221 L3280,223 L3281,221 L3282,220 L3283,221 L3284,221 L3285,221 L3286,221 L3287,221 L3288,221 L3289,220 L3290,221 L3291,220 L3292,220 L3293,218 L3294,218 L3295,220 L3296,220 L3297,220 L3298,218 L3299,220 L3300,220 L3301,220 L3302,220 L3303,220 L3304,220 L3305,220 L3306,220 L3307,221 L3308,221 L3309,220 L3310,220 L3311,221 L3312,221 L3313,220 L3314,220 L3315,221 L3316,221 L3317,220 L3318,221 L3319,221 L3320,220 L3321,220 L3322,220 L3323,221 L3324,220 L3325,218 L3326,218 L3327,220 L3328,220 L3329,220 L3330,220 L3331,220 L3332,220 L3333,218 L3334,221 L3335,220 L3336,220 L3337,220 L3338,221 L3339,221 L3340,221 L3341,220 L3342,221 L3343,221 L3344,221 L3345,221 L3346,221 L3347,221 L3348,220 L3349,220 L3350,223 L3351,221 L3352,220 L3353,218 L3354,220 L3355,220 L3356,220 L3357,218 L3358,220 L3359,220 L3360,220 L3361,220 L3362,220 L3363,220 L3364,218 L3365,220 L3366,220 L3367,221 L3368,220 L3369,220 L3370,221 L3371,221 L3372,221 L3373,221 L3374,221 L3375,221 L3376,220 L3377,221 L3378,223 L3379,221 L3380,220 L3381,221 L3382,221 L3383,223 L3384,218 L3385,218 L3386,220 L3387,220 L3388,218 L3389,220 L3390,220 L3391,218 L3392,218 L3393,220 L3394,220 L3395,220 L3396,218 L3397,220 L3398,220 L3399,220 L3400,220 L3401,221 L3402,221 L3403,220 L3404,221 L3405,223 L3406,221 L3407,220 L3408,220 L3409,221 L3410,223 L3411,220 L3412,220 L3413,221 L3414,221 L3415,220 L3416,220 L3417,220 L3418,218 L3419,218 L3420,220 L3421,221 L3422,220 L3423,218 L3424,220 L3425,220 L3426,220 L3427,220 L3428,220 L3429,220 L3430,221 L3431,220 L3432,221 L3433,221 L3434,220 L3435,220 L3436,221 L3437,223 L3438,221 L3439,220 L3440,220 L3441,221 L3442,221 L3443,221 L3444,221 L3445,221 L3446,220 L3447,218 L3448,221 L3449,220 L3450,218 L3451,218 L3452,220 L3453,220 L3454,220 L3455,218 L3456,220 L3457,220 L3458,220 L3459,220 L3460,221 L3461,221 L3462,220 L3463,221 L3464,223 L3465,221 L3466,220 L3467,220 L3468,223 L3469,221 L3470,221 L3471,221 L3472,221 L3473,221 L3474,221 L3475,221 L3476,223 L3477,220 L3478,218 L3479,220 L3480,220 L3481,220 L3482,218 L3483,220 L3484,220 L3485,220 L3486,218 L3487,220 L3488,220 L3489,220 L3490,218 L3491,220 L3492,220 L3493,220 L3494,220 L3495,221 L3496,221 L3497,221 L3498,220 L3499,221 L3500,221 L3501,221 L3502,220 L3503,221 L3504,221 L3505,220 L3506,220 L3507,223 L3508,221 L3509,220 L3510,218 L3511,220 L3512,220 L3513,220 L3514,218 L3515,220 L3516,220 L3517,218 L3518,220 L3519,220 L3520,220 L3521,218 L3522,220 L3523,221 L3524,223 L3525,220 L3526,220 L3527,221 L3528,221 L3529,223 L3530,223 L3531,223 L3532,221 L3533,220 L3534,221 L3535,223 L3536,221 L3537,220 L3538,223 L3539,221 L3540,220 L3541,218 L3542,220 L3543,220 L3544,220 L3545,218 L3546,220 L3547,220 L3548,218 L3549,218 L3550,220 L3551,220 L3552,220 L3553,220 L3554,221 L3555,221 L3556,221 L3557,221 L3558,221 L3559,221 L3560,220 L3561,221 L3562,223 L3563,221 L3564,220 L3565,221 L3566,223 L3567,221 L3568,221 L3569,221 L3570,220 L3571,220 L3572,218 L3573,220 L3574,220 L3575,220 L3576,218 L3577,220 L3578,221 L3579,220 L3580,218 L3581,220 L3582,220 L3583,220 L3584,220 L3585,221 L3586,220 L3587,221 L3588,220 L3589,221 L3590,221 L3591,221 L3592,220 L3593,223 L3594,223 L3595,221 L3596,220 L3597,221 L3598,221 L3599,220 L3600,221 L3601,220 L3602,220 L3603,220 L3604,220 L3605,220 L3606,220 L3607,218 L3608,220 L3609,220 L3610,220 L3611,220 L3612,218 L3613,220 L3614,220 L3615,220 L3616,220 L3617,221 L3618,221 L3619,220 L3620,221 L3621,223 L3622,221 L3623,220 L3624,221 L3625,221 L3626,221 L3627,221 L3628,221 L3629,221 L3630,221 L3631,221 L3632,220 L3633,220 L3634,220 L3635,218 L3636,220 L3637,220 L3638,220 L3639,218 L3640,220 L3641,220 L3642,220 L3643,220 L3644,220 L3645,220 L3646,220 L3647,220 L3648,221 L3649,221 L3650,220 L3651,220 L3652,221 L3653,221 L3654,221 L3655,221 L3656,221 L3657,221 L3658,220 L3659,221 L3660,223 L3661,220 L3662,220 L3663,220 L3664,220 L3665,220 L3666,218 L3667,220 L3668,220 L3669,220 L3670,218 L3671,220 L3672,220 L3673,220 L3674,218 L3675,220 L3676,220 L3677,220 L3678,220 L3679,220 L3680,223 L3681,221 L3682,220 L3683,221 L3684,221 L3685,221 L3686,221 L3687,221 L3688,221 L3689,220 L3690,220 L3691,223 L3692,221 L3693,221 L3694,220 L3695,220 L3696,220 L3697,220 L3698,220 L3699,220 L3700,220 L3701,218 L3702,220 L3703,220 L3704,220 L3705,218 L3706,220 L3707,220 L3708,220 L3709,220 L3710,220 L3711,221 L3712,221 L3713,220 L3714,221 L3715,221 L3716,221 L3717,220 L3718,221 L3719,223 L3720,221 L3721,220 L3722,221 L3723,223 L3724,223 L3725,220 L3726,220 L3727,220 L3728,220 L3729,218 L3730,220 L3731,220 L3732,218 L3733,218 L3734,220 L3735,220 L3736,220 L3737,218 L3738,220 L3739,220 L3740,220 L3741,220 L3742,221 L3743,221 L3744,220 L3745,220 L3746,223 L3747,223 L3748,221 L3749,220 L3750,221 L3751,221 L3752,220 L3753,220 L3754,221 L3755,223 L3756,220 L3757,220 L3758,220 L3759,220 L3760,218 L3761,220 L3762,220 L3763,220 L3764,218 L3765,218 L3766,220 L3767,220 L3768,220 L3769,220 L3770,220 L3771,220 L3772,220 L3773,223 L3774,223 L3775,220 L3776,220 L3777,220 L3778,221 L3779,223 L3780,220 L3781,220 L3782,221 L3783,221 L3784,220 L3785,221 L3786,221 L3787,220 L3788,218 L3789,220 L3790,220 L3791,220 L3792,218 L3793,220 L3794,220 L3795,220 L3796,218 L3797,220 L3798,220 L3799,220 L3800,220 L3801,220 L3802,220 L3803,220 L3804,220 L3805,221 L3806,221 L3807,220 L3808,220 L3809,221 L3810,221 L3811,221 L3812,221 L3813,220 L3814,221 L3815,221 L3816,221 L3817,221 L3818,221 L3819,218 L3820,220 L3821,220 L3822,220 L3823,218 L3824,220 L3825,220 L3826,220 L3827,220 L3828,220 L3829,220 L3830,220 L3831,218 L3832,220 L3833,221 L3834,220 L3835,220 L3836,221 L3837,221 L3838,221 L3839,220 L3840,221 L3841,221 L3842,220 L3843,220 L3844,221 L3845,221 L3846,221 L3847,220 L3848,223 L3849,221 L3850,220 L3851,218 L3852,220 L3853,220 L3854,220 L3855,218 L3856,220 L3857,220 L3858,218 L3859,220 L3860,220 L3861,220 L3862,218 L3863,218 L3864,221 L3865,221 L3866,220 L3867,221 L3868,221 L3869,221 L3870,221 L3871,221 L3872,221 L3873,221 L3874,220 L3875,221 L3876,223 L3877,221 L3878,220 L3879,221 L3880,221 L3881,220 L3882,218 L3883,218 L3884,220 L3885,218 L3886,218 L3887,220 L3888,220 L3889,218 L3890,218 L3891,220 L3892,220 L3893,220 L3894,218 L3895,220 L3896,221 L3897,221 L3898,221 L3899,221 L3900,221 L3901,220 L3902,220 L3903,223 L3904,221 L3905,221 L3906,220 L3907,221 L3908,221 L3909,221 L3910,221 L3911,221 L3912,220 L3913,220 L3914,220 L3915,220 L3916,220 L3917,218 L3918,220 L3919,220 L3920,220 L3921,218 L3922,218 L3923,220 L3924,220 L3925,220 L3926,221 L3927,220 L3928,220 L3929,220 L3930,223 L3931,223 L3932,221 L3933,220 L3934,221 L3935,221 L3936,221 L3937,220 L3938,221 L3939,221 L3940,220 L3941,220 L3942,221 L3943,220 L3944,220 L3945,220 L3946,220 L3947,220 L3948,218 L3949,218 L3950,220 L3951,220 L3952,220 L3953,218 L3954,220 L3955,220 L3956,220 L3957,220 L3958,221 L3959,221 L3960,220 L3961,220 L3962,221 L3963,223 L3964,221 L3965,220 L3966,221 L3967,221 L3968,220 L3969,221 L3970,221 L3971,221 L3972,220 L3973,221 L3974,220 L3975,220 L3976,218 L3977,220 L3978,220 L3979,220 L3980,220 L3981,218 L3982,220 L3983,220 L3984,218 L3985,220 L3986,220 L3987,220 L3988,220 L3989,221 L3990,221 L3991,220 L3992,220 L3993,221 L3994,221 L3995,221 L3996,220 L3997,220 L3998,221 L3999,221 L4000,220 L4001,223 L4002,221 L4003,220 L4004,220 L4005,220 L4006,220 L4007,220 L4008,218 L4009,218 L4010,220 L4011,220 L4012,220 L4013,220 L4014,220 L4015,220 L4016,220 L4017,220 L4018,220 L4019,220 L4020,220 L4021,221 L4022,223 L4023,221 L4024,221 L4025,221 L4026,221 L4027,220 L4028,221 L4029,221 L4030,220 L4031,220 L4032,221 L4033,223 L4034,221 L4035,220 L4036,220 L4037,220 L4038,220 L4039,220 L4040,220 L4041,220 L4042,220 L4043,220 L4044,220 L4045,220 L4046,218 L4047,218 L4048,220 L4049,220 L4050,220 L4051,220 L4052,221 L4053,221 L4054,221 L4055,221 L4056,223 L4057,221 L4058,220 L4059,220 L4060,223 L4061,221 L4062,220 L4063,220 L4064,221 L4065,221 L4066,223 L4067,220 L4068,220 L4069,220 L4070,218 L4071,220 L4072,220 L4073,220 L4074,218 L4075,220 L4076,220 L4077,220 L4078,220 L4079,220 L4080,220 L4081,221 L4082,220 L4083,220 L4084,221 L4085,220 L4086,220 L4087,221 L4088,223 L4089,221 L4090,220 L4091,221 L4092,223 L4093,221 L4094,220 L4095,220 "/>
<text font-family="Arial" x="638" y="230" fill="yellow" font-size="20" text-anchor="end" id="CH1s">CH1: 1V/div (1 x) 50us/div</text>
<text font-family="Arial" x="2" y="230" fill="yellow" font-size="20" text-anchor="start" id="CH1"> </text>
<text font-family="Arial" x="638" y="250" fill="cyan" font-size="20" text-anchor="end" id="CH2s">CH2: 50mV/div (10 x) 50us/div</text>
<text font-family="Arial" x="2" y="250" fill="cyan" font-size="20" text-anchor="start" id="CH2"> </text>
<script type="text/ecmascript"><![CDATA[
function init(evt) { if ( window.svgDocument == null ) svgDocument = evt.target.ownerDocument; }
function fmtT(val, div) {
 if (div > 100) return Math.floor(val*div/32) + " ms";
if (div > 0.025) return Math.floor(val*div*1000/32)/1000 + " ms";
 return Math.floor(val*div*1000*1000/32)/1000 + " us";
}
function fmtU(val, div, shift) { return Math.floor((shift-val)*div/32) + " mV"; }
function msMove (evt)
{
	var x = evt.clientX;
	var y = evt.clientY;
	if (x < 0 || y < 0 || x >= 4096 || y >= 256)
		return;
	var hscroll = (document.all ? document.scrollLeft : window.pageXOffset);
	var width = window.innerWidth;

	svgDocument.getElementById("CH1").setAttribute("x", hscroll+20);
	svgDocument.getElementById("CH2").setAttribute("x", hscroll+20);
	svgDocument.getElementById("CH1s").setAttribute("x", hscroll+width-20);
	svgDocument.getElementById("CH2s").setAttribute("x", hscroll+width-20);

	svgDocument.getElementById("CH1").firstChild.data = "CH1: "+fmtU(y, 1000.000, 157) + " " + fmtT(x, 0.049);
	svgDocument.getElementById("CH2").firstChild.data = "CH2: "+fmtU(y, 500.000, 223) + " " + fmtT(x, 0.049);
}
]]></script>
</svg>
