<?xml version="1.0" encoding="iso-8859-1"?>
<!DOCTYPE svg PUBLIC "-//W3C//DTD SVG 1.0//EN" "http://www.w3.org/TR/2001/REC-SVG-20010904/DTD/svg10.dtd">
<svg width="4096" height="256" xmlns="http://www.w3.org/2000/svg" xmlns:xlink="http://www.w3.org/1999/xlink" onload="init(evt)" onmousemove="msMove(evt)">
<path stroke="none" fill="black" d="M0,0 H4096 V256 H0 V0"/>
<path stroke="none" fill="#000040" d="M30,0 H330 V256 H30 V0"/>
<path stroke="none" fill="#400000" d="M0,0 H30 V256 H0 V0"/>
<path stroke="#404040" d="M0,0 H4096"/>
<path stroke="#404040" d="M0,32 H4096"/>
<path stroke="#404040" d="M0,64 H4096"/>
<path stroke="#404040" d="M0,96 H4096"/>
<path stroke="#404040" d="M0,128 H4096"/>
<path stroke="#404040" d="M0,160 H4096"/>
<path stroke="#404040" d="M0,192 H4096"/>
<path stroke="#404040" d="M0,224 H4096"/>
<path stroke="#404040" d="M0,256 H4096"/>
<path stroke="#404040" d="M0,0 V256"/>
<path stroke="#404040" d="M32,0 V256"/>
<path stroke="#404040" d="M64,0 V256"/>
<path stroke="#404040" d="M96,0 V256"/>
<path stroke="#404040" d="M128,0 V256"/>
<path stroke="#404040" d="M160,0 V256"/>
<path stroke="#404040" d="M192,0 V256"/>
<path stroke="#404040" d="M224,0 V256"/>
<path stroke="#404040" d="M256,0 V256"/>
<path stroke="#404040" d="M288,0 V256"/>
<path stroke="#404040" d="M320,0 V256"/>
<path stroke="#404040" d="M352,0 V256"/>
<path stroke="#404040" d="M384,0 V256"/>
<path stroke="#404040" d="M416,0 V256"/>
<path stroke="#404040" d="M448,0 V256"/>
<path stroke="#404040" d="M480,0 V256"/>
<path stroke="#404040" d="M512,0 V256"/>
<path stroke="#404040" d="M544,0 V256"/>
<path stroke="#404040" d="M576,0 V256"/>
<path stroke="#404040" d="M608,0 V256"/>
<path stroke="#404040" d="M640,0 V256"/>
<path stroke="#404040" d="M672,0 V256"/>
<path stroke="#404040" d="M704,0 V256"/>
<path stroke="#404040" d="M736,0 V256"/>
<path stroke="#404040" d="M768,0 V256"/>
<path stroke="#404040" d="M800,0 V256"/>
<path stroke="#404040" d="M832,0 V256"/>
<path stroke="#404040" d="M864,0 V256"/>
<path stroke="#404040" d="M896,0 V256"/>
<path stroke="#404040" d="M928,0 V256"/>
<path stroke="#404040" d="M960,0 V256"/>
<path stroke="#404040" d="M992,0 V256"/>
<path stroke="#404040" d="M1024,0 V256"/>
<path stroke="#404040" d="M1056,0 V256"/>
<path stroke="#404040" d="M1088,0 V256"/>
<path stroke="#404040" d="M1120,0 V256"/>
<path stroke="#404040" d="M1152,0 V256"/>
<path stroke="#404040" d="M1184,0 V256"/>
<path stroke="#404040" d="M1216,0 V256"/>
<path stroke="#404040" d="M1248,0 V256"/>
<path stroke="#404040" d="M1280,0 V256"/>
<path stroke="#404040" d="M1312,0 V256"/>
<path stroke="#404040" d="M1344,0 V256"/>
<path stroke="#404040" d="M1376,0 V256"/>
<path stroke="#404040" d="M1408,0 V256"/>
<path stroke="#404040" d="M1440,0 V256"/>
<path stroke="#404040" d="M1472,0 V256"/>
<path stroke="#404040" d="M1504,0 V256"/>
<path stroke="#404040" d="M1536,0 V256"/>
<path stroke="#404040" d="M1568,0 V256"/>
<path stroke="#404040" d="M1600,0 V256"/>
<path stroke="#404040" d="M1632,0 V256"/>
<path stroke="#404040" d="M1664,0 V256"/>
<path stroke="#404040" d="M1696,0 V256"/>
<path stroke="#404040" d="M1728,0 V256"/>
<path stroke="#404040" d="M1760,0 V256"/>
<path stroke="#404040" d="M1792,0 V256"/>
<path stroke="#404040" d="M1824,0 V256"/>
<path stroke="#404040" d="M1856,0 V256"/>
<path stroke="#404040" d="M1888,0 V256"/>
<path stroke="#404040" d="M1920,0 V256"/>
<path stroke="#404040" d="M1952,0 V256"/>
<path stroke="#404040" d="M1984,0 V256"/>
<path stroke="#404040" d="M2016,0 V256"/>
<path stroke="#404040" d="M2048,0 V256"/>
<path stroke="#404040" d="M2080,0 V256"/>
<path stroke="#404040" d="M2112,0 V256"/>
<path stroke="#404040" d="M2144,0 V256"/>
<path stroke="#404040" d="M2176,0 V256"/>
<path stroke="#404040" d="M2208,0 V256"/>
<path stroke="#404040" d="M2240,0 V256"/>
<path stroke="#404040" d="M2272,0 V256"/>
<path stroke="#404040" d="M2304,0 V256"/>
<path stroke="#404040" d="M2336,0 V256"/>
<path stroke="#404040" d="M2368,0 V256"/>
<path stroke="#404040" d="M2400,0 V256"/>
<path stroke="#404040" d="M2432,0 V256"/>
<path stroke="#404040" d="M2464,0 V256"/>
<path stroke="#404040" d="M2496,0 V256"/>
<path stroke="#404040" d="M2528,0 V256"/>
<path stroke="#404040" d="M2560,0 V256"/>
<path stroke="#404040" d="M2592,0 V256"/>
<path stroke="#404040" d="M2624,0 V256"/>
<path stroke="#404040" d="M2656,0 V256"/>
<path stroke="#404040" d="M2688,0 V256"/>
<path stroke="#404040" d="M2720,0 V256"/>
<path stroke="#404040" d="M2752,0 V256"/>
<path stroke="#404040" d="M2784,0 V256"/>
<path stroke="#404040" d="M2816,0 V256"/>
<path stroke="#404040" d="M2848,0 V256"/>
<path stroke="#404040" d="M2880,0 V256"/>
<path stroke="#404040" d="M2912,0 V256"/>
<path stroke="#404040" d="M2944,0 V256"/>
<path stroke="#404040" d="M2976,0 V256"/>
<path stroke="#404040" d="M3008,0 V256"/>
<path stroke="#404040" d="M3040,0 V256"/>
<path stroke="#404040" d="M3072,0 V256"/>
<path stroke="#404040" d="M3104,0 V256"/>
<path stroke="#404040" d="M3136,0 V256"/>
<path stroke="#404040" d="M3168,0 V256"/>
<path stroke="#404040" d="M3200,0 V256"/>
<path stroke="#404040" d="M3232,0 V256"/>
<path stroke="#404040" d="M3264,0 V256"/>
<path stroke="#404040" d="M3296,0 V256"/>
<path stroke="#404040" d="M3328,0 V256"/>
<path stroke="#404040" d="M3360,0 V256"/>
<path stroke="#404040" d="M3392,0 V256"/>
<path stroke="#404040" d="M3424,0 V256"/>
<path stroke="#404040" d="M3456,0 V256"/>
<path stroke="#404040" d="M3488,0 V256"/>
<path stroke="#404040" d="M3520,0 V256"/>
<path stroke="#404040" d="M3552,0 V256"/>
<path stroke="#404040" d="M3584,0 V256"/>
<path stroke="#404040" d="M3616,0 V256"/>
<path stroke="#404040" d="M3648,0 V256"/>
<path stroke="#404040" d="M3680,0 V256"/>
<path stroke="#404040" d="M3712,0 V256"/>
<path stroke="#404040" d="M3744,0 V256"/>
<path stroke="#404040" d="M3776,0 V256"/>
<path stroke="#404040" d="M3808,0 V256"/>
<path stroke="#404040" d="M3840,0 V256"/>
<path stroke="#404040" d="M3872,0 V256"/>
<path stroke="#404040" d="M3904,0 V256"/>
<path stroke="#404040" d="M3936,0 V256"/>
<path stroke="#404040" d="M3968,0 V256"/>
<path stroke="#404040" d="M4000,0 V256"/>
<path stroke="#404040" d="M4032,0 V256"/>
<path stroke="#404040" d="M4064,0 V256"/>
<path stroke="yellow" fill="none" stroke-width="1" d="M0,88 L1,88 L2,88 L3,89 L4,88 L5,88 L6,88 L7,88 L8,88 L9,88 L10,88 L11,88 L12,89 L13,88 L14,88 L15,88 L16,89 L17,88 L18,88 L19,88 L20,89 L21,88 L22,88 L23,88 L24,89 L25,88 L26,88 L27,88 L28,88 L29,88 L30,88 L31,88 L32,88 L33,88 L34,88 L35,89 L36,88 L37,88 L38,88 L39,88 L40,88 L41,87 L42,88 L43,89 L44,89 L45,88 L46,88 L47,89 L48,89 L49,88 L50,88 L51,88 L52,88 L53,88 L54,88 L55,88 L56,89 L57,88 L58,88 L59,88 L60,89 L61,88 L62,88 L63,88 L64,88 L65,88 L66,86 L67,89 L68,89 L69,89 L70,88 L71,88 L72,88 L73,88 L74,89 L75,88 L76,88 L77,88 L78,88 L79,89 L80,88 L81,88 L82,88 L83,88 L84,88 L85,88 L86,88 L87,89 L88,88 L89,88 L90,88 L91,88 L92,89 L93,88 L94,89 L95,88 L96,88 L97,88 L98,89 L99,88 L100,88 L101,88 L102,88 L103,88 L104,88 L105,89 L106,89 L107,88 L108,88 L109,88 L110,89 L111,89 L112,88 L113,88 L114,88 L115,88 L116,88 L117,88 L118,89 L119,89 L120,88 L121,88 L122,89 L123,89 L124,160 L125,161 L126,162 L127,161 L128,161 L129,161 L130,162 L131,162 L132,161 L133,161 L134,161 L135,161 L136,162 L137,162 L138,161 L139,161 L140,162 L141,162 L142,162 L143,162 L144,162 L145,162 L146,162 L147,161 L148,161 L149,160 L150,88 L151,88 L152,87 L153,88 L154,88 L155,163 L156,161 L157,162 L158,162 L159,162 L160,161 L161,162 L162,163 L163,162 L164,161 L165,161 L166,162 L167,162 L168,162 L169,162 L170,162 L171,87 L172,88 L173,88 L174,88 L175,88 L176,163 L177,162 L178,162 L179,161 L180,162 L181,88 L182,88 L183,87 L184,88 L185,89 L186,88 L187,88 L188,88 L189,89 L190,88 L191,99 L192,162 L193,163 L194,162 L195,161 L196,161 L197,88 L198,88 L199,88 L200,88 L201,88 L202,88 L203,88 L204,88 L205,88 L206,88 L207,88 L208,88 L209,88 L210,88 L211,88 L212,88 L213,88 L214,88 L215,88 L216,88 L217,89 L218,162 L219,162 L220,162 L221,162 L222,162 L223,87 L224,88 L225,88 L226,88 L227,88 L228,163 L229,163 L230,162 L231,162 L232,162 L233,86 L234,88 L235,88 L236,88 L237,89 L238,163 L239,162 L240,162 L241,162 L242,162 L243,162 L244,88 L245,88 L246,88 L247,88 L248,88 L249,88 L250,88 L251,88 L252,88 L253,88 L254,163 L255,163 L256,162 L257,162 L258,161 L259,161 L260,162 L261,162 L262,161 L263,162 L264,162 L265,162 L266,161 L267,162 L268,162 L269,162 L270,161 L271,162 L272,162 L273,162 L274,162 L275,88 L276,88 L277,88 L278,88 L279,89 L280,163 L281,162 L282,162 L283,162 L284,162 L285,86 L286,88 L287,89 L288,88 L289,88 L290,89 L291,89 L292,89 L293,88 L294,88 L295,88 L296,88 L297,89 L298,88 L299,88 L300,88 L301,163 L302,162 L303,162 L304,162 L305,162 L306,162 L307,162 L308,162 L309,161 L310,162 L311,162 L312,162 L313,162 L314,162 L315,162 L316,161 L317,162 L318,162 L319,162 L320,162 L321,162 L322,164 L323,162 L324,162 L325,161 L326,162 L327,88 L328,88 L329,88 L330,88 L331,88 L332,162 L333,162 L334,162 L335,163 L336,162 L337,162 L338,161 L339,162 L340,161 L341,162 L342,162 L343,162 L344,162 L345,162 L346,162 L347,163 L348,162 L349,162 L350,162 L351,161 L352,161 L353,162 L354,162 L355,163 L356,161 L357,162 L358,162 L359,162 L360,161 L361,162 L362,162 L363,162 L364,161 L365,162 L366,162 L367,162 L368,161 L369,162 L370,162 L371,162 L372,162 L373,162 L374,162 L375,162 L376,162 L377,162 L378,162 L379,88 L380,91 L381,89 L382,88 L383,88 L384,164 L385,163 L386,162 L387,162 L388,162 L389,162 L390,162 L391,161 L392,162 L393,163 L394,162 L395,161 L396,161 L397,162 L398,162 L399,162 L400,162 L401,162 L402,161 L403,162 L404,162 L405,163 L406,162 L407,162 L408,162 L409,162 L410,162 L411,163 L412,162 L413,162 L414,162 L415,162 L416,163 L417,162 L418,162 L419,162 L420,162 L421,162 L422,162 L423,162 L424,163 L425,162 L426,161 L427,162 L428,162 L429,162 L430,162 L431,87 L432,88 L433,88 L434,88 L435,89 L436,164 L437,163 L438,162 L439,161 L440,162 L441,162 L442,162 L443,162 L444,162 L445,161 L446,161 L447,162 L448,162 L449,162 L450,162 L451,162 L452,161 L453,162 L454,162 L455,162 L456,162 L457,161 L458,162 L459,162 L460,162 L461,162 L462,162 L463,162 L464,162 L465,161 L466,161 L467,162 L468,162 L469,162 L470,162 L471,162 L472,162 L473,162 L474,162 L475,162 L476,162 L477,162 L478,162 L479,162 L480,162 L481,162 L482,162 L483,88 L484,88 L485,88 L486,88 L487,89 L488,165 L489,162 L490,162 L491,163 L492,162 L493,161 L494,88 L495,88 L496,88 L497,88 L498,88 L499,163 L500,162 L501,162 L502,162 L503,162 L504,88 L505,88 L506,88 L507,88 L508,88 L509,163 L510,163 L511,163 L512,162 L513,162 L514,87 L515,88 L516,88 L517,88 L518,88 L519,88 L520,162 L521,162 L522,162 L523,163 L524,162 L525,87 L526,88 L527,88 L528,87 L529,88 L530,164 L531,162 L532,161 L533,161 L534,162 L535,87 L536,88 L537,88 L538,88 L539,88 L540,164 L541,162 L542,162 L543,163 L544,162 L545,161 L546,88 L547,88 L548,88 L549,89 L550,88 L551,162 L552,162 L553,162 L554,162 L555,162 L556,87 L557,88 L558,88 L559,88 L560,88 L561,164 L562,163 L563,162 L564,161 L565,162 L566,75 L567,88 L568,88 L569,88 L570,88 L571,88 L572,162 L573,162 L574,162 L575,162 L576,161 L577,162 L578,160 L579,162 L580,162 L581,162 L582,161 L583,162 L584,162 L585,162 L586,162 L587,86 L588,88 L589,88 L590,88 L591,88 L592,183 L593,163 L594,162 L595,162 L596,162 L597,162 L598,88 L599,88 L600,88 L601,88 L602,88 L603,86 L604,88 L605,89 L606,89 L607,88 L608,163 L609,162 L610,162 L611,162 L612,162 L613,162 L614,162 L615,162 L616,162 L617,162 L618,162 L619,162 L620,162 L621,161 L622,162 L623,162 L624,162 L625,162 L626,161 L627,161 L628,162 L629,162 L630,162 L631,161 L632,162 L633,162 L634,161 L635,162 L636,161 L637,162 L638,162 L639,85 L640,88 L641,88 L642,89 L643,88 L644,88 L645,162 L646,162 L647,162 L648,162 L649,162 L650,161 L651,161 L652,162 L653,162 L654,162 L655,163 L656,162 L657,161 L658,161 L659,162 L660,162 L661,161 L662,162 L663,162 L664,162 L665,162 L666,161 L667,162 L668,163 L669,162 L670,161 L671,162 L672,162 L673,162 L674,162 L675,162 L676,162 L677,162 L678,162 L679,162 L680,162 L681,162 L682,162 L683,161 L684,162 L685,162 L686,162 L687,162 L688,162 L689,161 L690,161 L691,87 L692,88 L693,88 L694,88 L695,89 L696,88 L697,162 L698,163 L699,163 L700,162 L701,161 L702,162 L703,162 L704,162 L705,162 L706,162 L707,162 L708,162 L709,162 L710,162 L711,163 L712,162 L713,161 L714,162 L715,162 L716,162 L717,162 L718,162 L719,162 L720,162 L721,161 L722,162 L723,162 L724,162 L725,162 L726,162 L727,162 L728,162 L729,162 L730,162 L731,162 L732,162 L733,161 L734,162 L735,163 L736,162 L737,162 L738,162 L739,162 L740,162 L741,162 L742,162 L743,94 L744,88 L745,88 L746,88 L747,88 L748,88 L749,163 L750,162 L751,162 L752,162 L753,162 L754,88 L755,88 L756,88 L757,88 L758,88 L759,163 L760,162 L761,162 L762,162 L763,162 L764,161 L765,162 L766,162 L767,162 L768,161 L769,162 L770,162 L771,161 L772,161 L773,162 L774,162 L775,162 L776,161 L777,162 L778,162 L779,162 L780,162 L781,162 L782,162 L783,161 L784,161 L785,162 L786,162 L787,162 L788,161 L789,162 L790,162 L791,162 L792,162 L793,162 L794,162 L795,162 L796,88 L797,88 L798,88 L799,88 L800,88 L801,163 L802,162 L803,162 L804,162 L805,163 L806,88 L807,87 L808,88 L809,89 L810,88 L811,88 L812,88 L813,88 L814,88 L815,88 L816,88 L817,89 L818,89 L819,88 L820,88 L821,88 L822,88 L823,88 L824,89 L825,88 L826,88 L827,88 L828,89 L829,88 L830,88 L831,88 L832,88 L833,89 L834,90 L835,88 L836,88 L837,88 L838,88 L839,88 L840,88 L841,89 L842,88 L843,88 L844,88 L845,88 L846,88 L847,88 L848,88 L849,89 L850,88 L851,88 L852,88 L853,163 L854,162 L855,162 L856,162 L857,162 L858,162 L859,163 L860,162 L861,162 L862,161 L863,86 L864,88 L865,88 L866,88 L867,89 L868,182 L869,163 L870,162 L871,162 L872,162 L873,162 L874,88 L875,88 L876,88 L877,88 L878,88 L879,163 L880,163 L881,162 L882,162 L883,162 L884,162 L885,162 L886,162 L887,162 L888,162 L889,161 L890,162 L891,162 L892,164 L893,162 L894,162 L895,162 L896,162 L897,162 L898,162 L899,163 L900,88 L901,88 L902,88 L903,89 L904,88 L905,163 L906,162 L907,162 L908,162 L909,161 L910,87 L911,89 L912,89 L913,88 L914,88 L915,88 L916,89 L917,90 L918,88 L919,89 L920,88 L921,162 L922,162 L923,162 L924,163 L925,162 L926,162 L927,161 L928,162 L929,162 L930,163 L931,162 L932,161 L933,161 L934,162 L935,162 L936,162 L937,161 L938,162 L939,162 L940,162 L941,162 L942,163 L943,162 L944,162 L945,161 L946,162 L947,162 L948,162 L949,162 L950,161 L951,162 L952,88 L953,88 L954,88 L955,88 L956,88 L957,163 L958,162 L959,162 L960,162 L961,162 L962,86 L963,88 L964,87 L965,88 L966,88 L967,88 L968,88 L969,89 L970,88 L971,88 L972,88 L973,88 L974,89 L975,88 L976,88 L977,88 L978,163 L979,163 L980,162 L981,162 L982,162 L983,88 L984,88 L985,88 L986,88 L987,88 L988,88 L989,88 L990,88 L991,89 L992,88 L993,89 L994,88 L995,88 L996,88 L997,88 L998,88 L999,88 L1000,88 L1001,88 L1002,88 L1003,88 L1004,88 L1005,89 L1006,88 L1007,88 L1008,88 L1009,163 L1010,162 L1011,162 L1012,161 L1013,162 L1014,162 L1015,162 L1016,161 L1017,162 L1018,162 L1019,162 L1020,161 L1021,162 L1022,162 L1023,162 L1024,162 L1025,161 L1026,162 L1027,161 L1028,162 L1029,162 L1030,162 L1031,162 L1032,162 L1033,162 L1034,162 L1035,86 L1036,88 L1037,88 L1038,88 L1039,88 L1040,164 L1041,163 L1042,162 L1043,162 L1044,162 L1045,162 L1046,162 L1047,162 L1048,163 L1049,163 L1050,162 L1051,161 L1052,162 L1053,162 L1054,162 L1055,162 L1056,88 L1057,88 L1058,88 L1059,89 L1060,89 L1061,164 L1062,162 L1063,162 L1064,162 L1065,161 L1066,85 L1067,88 L1068,88 L1069,88 L1070,88 L1071,88 L1072,88 L1073,88 L1074,88 L1075,88 L1076,88 L1077,163 L1078,161 L1079,162 L1080,162 L1081,162 L1082,161 L1083,162 L1084,161 L1085,162 L1086,162 L1087,162 L1088,161 L1089,162 L1090,160 L1091,162 L1092,162 L1093,162 L1094,162 L1095,161 L1096,162 L1097,162 L1098,162 L1099,163 L1100,161 L1101,162 L1102,162 L1103,163 L1104,162 L1105,162 L1106,162 L1107,162 L1108,87 L1109,88 L1110,88 L1111,89 L1112,88 L1113,88 L1114,88 L1115,87 L1116,89 L1117,88 L1118,88 L1119,89 L1120,88 L1121,88 L1122,88 L1123,88 L1124,89 L1125,88 L1126,88 L1127,88 L1128,89 L1129,88 L1130,88 L1131,88 L1132,88 L1133,88 L1134,88 L1135,89 L1136,88 L1137,88 L1138,88 L1139,88 L1140,87 L1141,88 L1142,89 L1143,88 L1144,88 L1145,88 L1146,88 L1147,89 L1148,87 L1149,89 L1150,88 L1151,88 L1152,88 L1153,88 L1154,88 L1155,88 L1156,88 L1157,88 L1158,88 L1159,88 L1160,88 L1161,88 L1162,88 L1163,88 L1164,88 L1165,88 L1166,88 L1167,88 L1168,88 L1169,88 L1170,88 L1171,88 L1172,88 L1173,86 L1174,89 L1175,88 L1176,88 L1177,88 L1178,89 L1179,89 L1180,88 L1181,88 L1182,88 L1183,88 L1184,88 L1185,88 L1186,89 L1187,88 L1188,88 L1189,88 L1190,88 L1191,88 L1192,88 L1193,88 L1194,88 L1195,88 L1196,88 L1197,88 L1198,87 L1199,88 L1200,88 L1201,88 L1202,88 L1203,88 L1204,88 L1205,89 L1206,88 L1207,88 L1208,88 L1209,89 L1210,89 L1211,88 L1212,88 L1213,88 L1214,88 L1215,88 L1216,88 L1217,88 L1218,88 L1219,88 L1220,88 L1221,88 L1222,88 L1223,89 L1224,88 L1225,88 L1226,88 L1227,88 L1228,88 L1229,89 L1230,88 L1231,88 L1232,88 L1233,89 L1234,88 L1235,88 L1236,89 L1237,89 L1238,88 L1239,89 L1240,88 L1241,88 L1242,88 L1243,88 L1244,88 L1245,89 L1246,88 L1247,88 L1248,89 L1249,89 L1250,88 L1251,87 L1252,88 L1253,89 L1254,89 L1255,88 L1256,88 L1257,88 L1258,88 L1259,88 L1260,88 L1261,88 L1262,88 L1263,88 L1264,88 L1265,88 L1266,88 L1267,89 L1268,88 L1269,88 L1270,88 L1271,88 L1272,89 L1273,88 L1274,88 L1275,88 L1276,88 L1277,88 L1278,88 L1279,88 L1280,88 L1281,88 L1282,88 L1283,88 L1284,88 L1285,88 L1286,88 L1287,88 L1288,88 L1289,88 L1290,88 L1291,89 L1292,89 L1293,88 L1294,88 L1295,88 L1296,89 L1297,88 L1298,89 L1299,88 L1300,88 L1301,88 L1302,88 L1303,88 L1304,88 L1305,88 L1306,88 L1307,88 L1308,88 L1309,88 L1310,88 L1311,89 L1312,88 L1313,88 L1314,88 L1315,89 L1316,88 L1317,88 L1318,88 L1319,88 L1320,88 L1321,88 L1322,88 L1323,88 L1324,88 L1325,88 L1326,88 L1327,88 L1328,88 L1329,89 L1330,88 L1331,88 L1332,88 L1333,88 L1334,88 L1335,88 L1336,88 L1337,88 L1338,88 L1339,88 L1340,88 L1341,88 L1342,88 L1343,89 L1344,88 L1345,88 L1346,89 L1347,89 L1348,88 L1349,88 L1350,88 L1351,88 L1352,88 L1353,88 L1354,88 L1355,89 L1356,88 L1357,88 L1358,88 L1359,88 L1360,88 L1361,88 L1362,88 L1363,88 L1364,88 L1365,88 L1366,89 L1367,88 L1368,88 L1369,88 L1370,88 L1371,90 L1372,88 L1373,88 L1374,89 L1375,88 L1376,88 L1377,88 L1378,88 L1379,88 L1380,88 L1381,88 L1382,88 L1383,88 L1384,88 L1385,88 L1386,89 L1387,88 L1388,88 L1389,88 L1390,88 L1391,89 L1392,88 L1393,88 L1394,88 L1395,88 L1396,88 L1397,88 L1398,88 L1399,88 L1400,88 L1401,88 L1402,88 L1403,88 L1404,90 L1405,89 L1406,88 L1407,88 L1408,88 L1409,89 L1410,88 L1411,88 L1412,88 L1413,89 L1414,88 L1415,88 L1416,88 L1417,89 L1418,89 L1419,89 L1420,88 L1421,88 L1422,89 L1423,88 L1424,88 L1425,88 L1426,88 L1427,88 L1428,89 L1429,91 L1430,89 L1431,88 L1432,88 L1433,88 L1434,88 L1435,88 L1436,88 L1437,88 L1438,88 L1439,88 L1440,88 L1441,89 L1442,88 L1443,88 L1444,88 L1445,89 L1446,88 L1447,88 L1448,88 L1449,89 L1450,88 L1451,87 L1452,88 L1453,89 L1454,89 L1455,88 L1456,88 L1457,88 L1458,88 L1459,88 L1460,88 L1461,89 L1462,88 L1463,88 L1464,88 L1465,88 L1466,88 L1467,88 L1468,88 L1469,88 L1470,88 L1471,88 L1472,89 L1473,88 L1474,88 L1475,88 L1476,88 L1477,88 L1478,88 L1479,88 L1480,89 L1481,88 L1482,88 L1483,88 L1484,89 L1485,89 L1486,88 L1487,88 L1488,89 L1489,88 L1490,88 L1491,88 L1492,89 L1493,88 L1494,88 L1495,88 L1496,88 L1497,89 L1498,88 L1499,88 L1500,88 L1501,88 L1502,88 L1503,88 L1504,88 L1505,88 L1506,88 L1507,88 L1508,88 L1509,89 L1510,88 L1511,88 L1512,88 L1513,88 L1514,88 L1515,88 L1516,88 L1517,88 L1518,88 L1519,88 L1520,88 L1521,88 L1522,88 L1523,89 L1524,88 L1525,88 L1526,88 L1527,88 L1528,88 L1529,88 L1530,88 L1531,88 L1532,88 L1533,88 L1534,88 L1535,89 L1536,88 L1537,88 L1538,88 L1539,88 L1540,88 L1541,88 L1542,89 L1543,88 L1544,88 L1545,88 L1546,88 L1547,89 L1548,89 L1549,88 L1550,88 L1551,88 L1552,88 L1553,88 L1554,88 L1555,88 L1556,88 L1557,88 L1558,88 L1559,89 L1560,88 L1561,88 L1562,88 L1563,88 L1564,88 L1565,88 L1566,88 L1567,88 L1568,88 L1569,88 L1570,88 L1571,88 L1572,88 L1573,88 L1574,88 L1575,88 L1576,88 L1577,88 L1578,89 L1579,88 L1580,88 L1581,88 L1582,88 L1583,88 L1584,88 L1585,89 L1586,89 L1587,88 L1588,88 L1589,88 L1590,88 L1591,89 L1592,88 L1593,88 L1594,88 L1595,88 L1596,88 L1597,88 L1598,89 L1599,89 L1600,88 L1601,88 L1602,87 L1603,88 L1604,88 L1605,89 L1606,88 L1607,88 L1608,88 L1609,89 L1610,88 L1611,89 L1612,88 L1613,88 L1614,88 L1615,88 L1616,88 L1617,89 L1618,89 L1619,88 L1620,88 L1621,88 L1622,89 L1623,88 L1624,88 L1625,88 L1626,88 L1627,86 L1628,88 L1629,89 L1630,89 L1631,88 L1632,88 L1633,88 L1634,88 L1635,88 L1636,88 L1637,88 L1638,88 L1639,88 L1640,88 L1641,88 L1642,88 L1643,88 L1644,88 L1645,88 L1646,88 L1647,88 L1648,89 L1649,88 L1650,88 L1651,88 L1652,87 L1653,89 L1654,88 L1655,88 L1656,88 L1657,88 L1658,88 L1659,88 L1660,88 L1661,89 L1662,88 L1663,88 L1664,88 L1665,88 L1666,89 L1667,88 L1668,88 L1669,88 L1670,88 L1671,88 L1672,89 L1673,88 L1674,88 L1675,88 L1676,88 L1677,88 L1678,88 L1679,88 L1680,89 L1681,88 L1682,87 L1683,88 L1684,88 L1685,86 L1686,88 L1687,88 L1688,88 L1689,89 L1690,88 L1691,88 L1692,89 L1693,88 L1694,88 L1695,88 L1696,88 L1697,88 L1698,88 L1699,88 L1700,88 L1701,88 L1702,88 L1703,88 L1704,88 L1705,88 L1706,88 L1707,88 L1708,88 L1709,88 L1710,86 L1711,88 L1712,88 L1713,88 L1714,88 L1715,88 L1716,88 L1717,88 L1718,88 L1719,88 L1720,88 L1721,88 L1722,88 L1723,89 L1724,88 L1725,88 L1726,88 L1727,88 L1728,88 L1729,88 L1730,88 L1731,88 L1732,88 L1733,88 L1734,88 L1735,88 L1736,88 L1737,88 L1738,88 L1739,88 L1740,88 L1741,88 L1742,88 L1743,88 L1744,88 L1745,88 L1746,89 L1747,89 L1748,88 L1749,88 L1750,88 L1751,88 L1752,88 L1753,88 L1754,89 L1755,88 L1756,88 L1757,88 L1758,88 L1759,89 L1760,89 L1761,88 L1762,88 L1763,88 L1764,88 L1765,88 L1766,88 L1767,88 L1768,88 L1769,88 L1770,88 L1771,88 L1772,89 L1773,88 L1774,88 L1775,88 L1776,88 L1777,88 L1778,88 L1779,89 L1780,88 L1781,88 L1782,88 L1783,88 L1784,88 L1785,89 L1786,88 L1787,88 L1788,88 L1789,88 L1790,88 L1791,89 L1792,88 L1793,88 L1794,88 L1795,88 L1796,89 L1797,88 L1798,89 L1799,88 L1800,88 L1801,88 L1802,88 L1803,88 L1804,88 L1805,88 L1806,88 L1807,88 L1808,88 L1809,89 L1810,88 L1811,88 L1812,88 L1813,88 L1814,88 L1815,88 L1816,88 L1817,89 L1818,88 L1819,88 L1820,88 L1821,89 L1822,89 L1823,88 L1824,88 L1825,88 L1826,89 L1827,88 L1828,88 L1829,89 L1830,88 L1831,88 L1832,88 L1833,88 L1834,89 L1835,88 L1836,88 L1837,88 L1838,88 L1839,88 L1840,88 L1841,88 L1842,89 L1843,88 L1844,88 L1845,88 L1846,88 L1847,88 L1848,88 L1849,88 L1850,88 L1851,88 L1852,89 L1853,88 L1854,88 L1855,88 L1856,88 L1857,89 L1858,89 L1859,88 L1860,88 L1861,89 L1862,88 L1863,88 L1864,88 L1865,89 L1866,89 L1867,88 L1868,88 L1869,89 L1870,88 L1871,88 L1872,89 L1873,89 L1874,88 L1875,88 L1876,88 L1877,88 L1878,88 L1879,88 L1880,89 L1881,88 L1882,88 L1883,90 L1884,89 L1885,88 L1886,88 L1887,88 L1888,89 L1889,88 L1890,88 L1891,88 L1892,89 L1893,88 L1894,87 L1895,88 L1896,89 L1897,89 L1898,88 L1899,88 L1900,88 L1901,88 L1902,88 L1903,88 L1904,88 L1905,88 L1906,88 L1907,88 L1908,89 L1909,89 L1910,89 L1911,88 L1912,88 L1913,88 L1914,88 L1915,88 L1916,89 L1917,88 L1918,88 L1919,88 L1920,88 L1921,88 L1922,88 L1923,88 L1924,89 L1925,88 L1926,88 L1927,88 L1928,89 L1929,88 L1930,88 L1931,88 L1932,89 L1933,88 L1934,88 L1935,88 L1936,88 L1937,88 L1938,88 L1939,88 L1940,89 L1941,90 L1942,88 L1943,88 L1944,88 L1945,88 L1946,88 L1947,88 L1948,88 L1949,88 L1950,88 L1951,89 L1952,88 L1953,88 L1954,88 L1955,88 L1956,88 L1957,88 L1958,88 L1959,89 L1960,88 L1961,88 L1962,88 L1963,88 L1964,89 L1965,88 L1966,90 L1967,89 L1968,88 L1969,88 L1970,88 L1971,88 L1972,88 L1973,88 L1974,88 L1975,88 L1976,88 L1977,88 L1978,88 L1979,88 L1980,88 L1981,88 L1982,88 L1983,88 L1984,88 L1985,88 L1986,88 L1987,88 L1988,88 L1989,88 L1990,89 L1991,89 L1992,88 L1993,88 L1994,88 L1995,88 L1996,88 L1997,88 L1998,89 L1999,88 L2000,88 L2001,88 L2002,88 L2003,88 L2004,88 L2005,88 L2006,88 L2007,88 L2008,88 L2009,88 L2010,88 L2011,88 L2012,88 L2013,88 L2014,88 L2015,88 L2016,88 L2017,88 L2018,88 L2019,88 L2020,88 L2021,89 L2022,89 L2023,88 L2024,88 L2025,88 L2026,88 L2027,88 L2028,88 L2029,89 L2030,89 L2031,88 L2032,88 L2033,88 L2034,89 L2035,88 L2036,88 L2037,88 L2038,88 L2039,88 L2040,88 L2041,89 L2042,88 L2043,88 L2044,88 L2045,88 L2046,89 L2047,89 L2048,89 L2049,88 L2050,88 L2051,88 L2052,88 L2053,89 L2054,88 L2055,88 L2056,88 L2057,88 L2058,88 L2059,88 L2060,88 L2061,89 L2062,88 L2063,88 L2064,88 L2065,89 L2066,89 L2067,88 L2068,88 L2069,88 L2070,88 L2071,88 L2072,89 L2073,88 L2074,88 L2075,88 L2076,88 L2077,88 L2078,88 L2079,88 L2080,88 L2081,88 L2082,88 L2083,88 L2084,89 L2085,88 L2086,88 L2087,88 L2088,88 L2089,88 L2090,88 L2091,88 L2092,89 L2093,88 L2094,88 L2095,88 L2096,89 L2097,88 L2098,89 L2099,88 L2100,89 L2101,88 L2102,88 L2103,88 L2104,88 L2105,89 L2106,88 L2107,88 L2108,88 L2109,89 L2110,88 L2111,88 L2112,88 L2113,88 L2114,88 L2115,88 L2116,89 L2117,89 L2118,88 L2119,88 L2120,88 L2121,88 L2122,88 L2123,89 L2124,88 L2125,88 L2126,88 L2127,88 L2128,89 L2129,88 L2130,88 L2131,89 L2132,89 L2133,88 L2134,88 L2135,88 L2136,89 L2137,88 L2138,88 L2139,87 L2140,88 L2141,88 L2142,88 L2143,88 L2144,88 L2145,88 L2146,88 L2147,89 L2148,88 L2149,88 L2150,88 L2151,88 L2152,88 L2153,88 L2154,88 L2155,89 L2156,88 L2157,88 L2158,88 L2159,89 L2160,88 L2161,88 L2162,88 L2163,88 L2164,86 L2165,88 L2166,88 L2167,88 L2168,88 L2169,88 L2170,88 L2171,89 L2172,88 L2173,88 L2174,88 L2175,88 L2176,88 L2177,88 L2178,89 L2179,89 L2180,88 L2181,88 L2182,88 L2183,88 L2184,88 L2185,88 L2186,88 L2187,88 L2188,89 L2189,88 L2190,88 L2191,88 L2192,88 L2193,88 L2194,88 L2195,88 L2196,88 L2197,86 L2198,89 L2199,88 L2200,88 L2201,88 L2202,88 L2203,89 L2204,88 L2205,88 L2206,88 L2207,88 L2208,88 L2209,88 L2210,88 L2211,88 L2212,88 L2213,88 L2214,88 L2215,88 L2216,88 L2217,88 L2218,88 L2219,88 L2220,88 L2221,89 L2222,86 L2223,88 L2224,88 L2225,88 L2226,88 L2227,88 L2228,88 L2229,89 L2230,89 L2231,88 L2232,88 L2233,88 L2234,89 L2235,89 L2236,88 L2237,88 L2238,88 L2239,88 L2240,88 L2241,89 L2242,88 L2243,88 L2244,88 L2245,88 L2246,89 L2247,88 L2248,88 L2249,88 L2250,88 L2251,88 L2252,88 L2253,89 L2254,88 L2255,88 L2256,88 L2257,88 L2258,88 L2259,88 L2260,89 L2261,89 L2262,88 L2263,88 L2264,88 L2265,89 L2266,88 L2267,88 L2268,88 L2269,88 L2270,88 L2271,88 L2272,89 L2273,89 L2274,88 L2275,88 L2276,88 L2277,89 L2278,89 L2279,89 L2280,88 L2281,88 L2282,88 L2283,88 L2284,88 L2285,88 L2286,88 L2287,88 L2288,88 L2289,88 L2290,88 L2291,89 L2292,89 L2293,88 L2294,88 L2295,88 L2296,89 L2297,89 L2298,88 L2299,88 L2300,88 L2301,88 L2302,88 L2303,88 L2304,89 L2305,88 L2306,88 L2307,88 L2308,88 L2309,89 L2310,88 L2311,88 L2312,88 L2313,88 L2314,88 L2315,88 L2316,89 L2317,88 L2318,88 L2319,88 L2320,88 L2321,88 L2322,88 L2323,89 L2324,88 L2325,88 L2326,88 L2327,88 L2328,89 L2329,88 L2330,88 L2331,88 L2332,88 L2333,88 L2334,88 L2335,88 L2336,88 L2337,88 L2338,87 L2339,89 L2340,89 L2341,88 L2342,88 L2343,88 L2344,88 L2345,88 L2346,88 L2347,88 L2348,89 L2349,88 L2350,88 L2351,88 L2352,88 L2353,88 L2354,88 L2355,88 L2356,88 L2357,88 L2358,88 L2359,89 L2360,88 L2361,88 L2362,88 L2363,88 L2364,88 L2365,88 L2366,88 L2367,88 L2368,89 L2369,88 L2370,88 L2371,89 L2372,88 L2373,88 L2374,88 L2375,88 L2376,88 L2377,88 L2378,88 L2379,89 L2380,88 L2381,88 L2382,88 L2383,89 L2384,89 L2385,88 L2386,88 L2387,88 L2388,88 L2389,88 L2390,88 L2391,89 L2392,88 L2393,88 L2394,88 L2395,90 L2396,88 L2397,88 L2398,89 L2399,88 L2400,88 L2401,88 L2402,89 L2403,88 L2404,88 L2405,88 L2406,88 L2407,88 L2408,88 L2409,88 L2410,89 L2411,88 L2412,88 L2413,88 L2414,88 L2415,89 L2416,88 L2417,88 L2418,88 L2419,88 L2420,90 L2421,88 L2422,88 L2423,88 L2424,88 L2425,88 L2426,88 L2427,88 L2428,88 L2429,88 L2430,88 L2431,88 L2432,88 L2433,88 L2434,89 L2435,88 L2436,88 L2437,88 L2438,88 L2439,88 L2440,88 L2441,88 L2442,88 L2443,88 L2444,88 L2445,89 L2446,89 L2447,88 L2448,88 L2449,88 L2450,88 L2451,88 L2452,88 L2453,89 L2454,88 L2455,88 L2456,88 L2457,88 L2458,89 L2459,88 L2460,88 L2461,88 L2462,88 L2463,88 L2464,88 L2465,89 L2466,88 L2467,88 L2468,88 L2469,89 L2470,88 L2471,88 L2472,88 L2473,89 L2474,88 L2475,88 L2476,88 L2477,89 L2478,91 L2479,88 L2480,88 L2481,88 L2482,88 L2483,88 L2484,88 L2485,89 L2486,88 L2487,88 L2488,88 L2489,89 L2490,89 L2491,88 L2492,88 L2493,88 L2494,88 L2495,88 L2496,88 L2497,88 L2498,88 L2499,87 L2500,88 L2501,88 L2502,88 L2503,89 L2504,89 L2505,88 L2506,88 L2507,88 L2508,88 L2509,88 L2510,88 L2511,88 L2512,88 L2513,88 L2514,88 L2515,88 L2516,89 L2517,88 L2518,88 L2519,88 L2520,88 L2521,88 L2522,88 L2523,88 L2524,88 L2525,88 L2526,88 L2527,88 L2528,88 L2529,88 L2530,88 L2531,88 L2532,88 L2533,88 L2534,88 L2535,89 L2536,88 L2537,88 L2538,88 L2539,88 L2540,89 L2541,88 L2542,88 L2543,88 L2544,89 L2545,89 L2546,88 L2547,88 L2548,89 L2549,88 L2550,88 L2551,88 L2552,88 L2553,88 L2554,88 L2555,88 L2556,88 L2557,88 L2558,88 L2559,88 L2560,88 L2561,88 L2562,88 L2563,88 L2564,88 L2565,88 L2566,88 L2567,89 L2568,88 L2569,88 L2570,88 L2571,89 L2572,88 L2573,88 L2574,88 L2575,88 L2576,88 L2577,88 L2578,88 L2579,89 L2580,88 L2581,88 L2582,88 L2583,88 L2584,89 L2585,88 L2586,88 L2587,88 L2588,88 L2589,88 L2590,88 L2591,88 L2592,88 L2593,88 L2594,88 L2595,89 L2596,88 L2597,88 L2598,89 L2599,88 L2600,88 L2601,88 L2602,89 L2603,89 L2604,88 L2605,88 L2606,88 L2607,88 L2608,88 L2609,88 L2610,89 L2611,89 L2612,88 L2613,88 L2614,89 L2615,89 L2616,88 L2617,88 L2618,88 L2619,89 L2620,88 L2621,88 L2622,88 L2623,88 L2624,88 L2625,88 L2626,88 L2627,88 L2628,88 L2629,88 L2630,88 L2631,88 L2632,88 L2633,88 L2634,88 L2635,88 L2636,88 L2637,88 L2638,89 L2639,88 L2640,88 L2641,88 L2642,88 L2643,88 L2644,88 L2645,88 L2646,89 L2647,88 L2648,88 L2649,88 L2650,88 L2651,87 L2652,88 L2653,88 L2654,89 L2655,88 L2656,88 L2657,88 L2658,88 L2659,88 L2660,88 L2661,88 L2662,88 L2663,88 L2664,88 L2665,88 L2666,88 L2667,88 L2668,88 L2669,88 L2670,88 L2671,88 L2672,88 L2673,89 L2674,88 L2675,88 L2676,86 L2677,89 L2678,89 L2679,88 L2680,88 L2681,89 L2682,88 L2683,88 L2684,88 L2685,89 L2686,88 L2687,88 L2688,88 L2689,88 L2690,89 L2691,88 L2692,88 L2693,88 L2694,88 L2695,88 L2696,88 L2697,88 L2698,88 L2699,88 L2700,88 L2701,88 L2702,88 L2703,88 L2704,88 L2705,88 L2706,88 L2707,88 L2708,88 L2709,88 L2710,88 L2711,88 L2712,88 L2713,88 L2714,88 L2715,88 L2716,88 L2717,88 L2718,88 L2719,88 L2720,89 L2721,89 L2722,88 L2723,88 L2724,88 L2725,88 L2726,88 L2727,88 L2728,89 L2729,88 L2730,88 L2731,88 L2732,88 L2733,88 L2734,86 L2735,89 L2736,88 L2737,88 L2738,88 L2739,89 L2740,89 L2741,89 L2742,88 L2743,88 L2744,88 L2745,88 L2746,88 L2747,88 L2748,89 L2749,88 L2750,88 L2751,88 L2752,88 L2753,88 L2754,88 L2755,88 L2756,88 L2757,88 L2758,88 L2759,86 L2760,88 L2761,88 L2762,88 L2763,88 L2764,88 L2765,88 L2766,89 L2767,88 L2768,88 L2769,88 L2770,88 L2771,89 L2772,88 L2773,88 L2774,88 L2775,88 L2776,89 L2777,88 L2778,89 L2779,89 L2780,88 L2781,88 L2782,88 L2783,89 L2784,88 L2785,88 L2786,88 L2787,89 L2788,89 L2789,88 L2790,88 L2791,88 L2792,88 L2793,88 L2794,88 L2795,88 L2796,89 L2797,89 L2798,89 L2799,88 L2800,88 L2801,88 L2802,88 L2803,89 L2804,88 L2805,88 L2806,88 L2807,88 L2808,88 L2809,89 L2810,89 L2811,88 L2812,88 L2813,88 L2814,88 L2815,89 L2816,88 L2817,87 L2818,89 L2819,89 L2820,88 L2821,88 L2822,89 L2823,88 L2824,88 L2825,88 L2826,88 L2827,89 L2828,88 L2829,88 L2830,88 L2831,88 L2832,88 L2833,88 L2834,89 L2835,88 L2836,88 L2837,88 L2838,88 L2839,89 L2840,88 L2841,89 L2842,88 L2843,88 L2844,88 L2845,88 L2846,89 L2847,88 L2848,88 L2849,88 L2850,88 L2851,88 L2852,88 L2853,88 L2854,88 L2855,88 L2856,88 L2857,88 L2858,88 L2859,88 L2860,88 L2861,88 L2862,88 L2863,88 L2864,88 L2865,88 L2866,88 L2867,88 L2868,88 L2869,88 L2870,88 L2871,88 L2872,89 L2873,89 L2874,88 L2875,88 L2876,88 L2877,89 L2878,88 L2879,88 L2880,88 L2881,88 L2882,88 L2883,88 L2884,88 L2885,89 L2886,88 L2887,87 L2888,88 L2889,88 L2890,89 L2891,88 L2892,88 L2893,88 L2894,88 L2895,88 L2896,88 L2897,88 L2898,88 L2899,88 L2900,88 L2901,88 L2902,88 L2903,88 L2904,89 L2905,89 L2906,88 L2907,89 L2908,89 L2909,88 L2910,88 L2911,88 L2912,89 L2913,88 L2914,88 L2915,88 L2916,89 L2917,88 L2918,88 L2919,88 L2920,88 L2921,88 L2922,88 L2923,88 L2924,88 L2925,88 L2926,88 L2927,88 L2928,89 L2929,88 L2930,88 L2931,88 L2932,91 L2933,88 L2934,89 L2935,89 L2936,88 L2937,88 L2938,88 L2939,89 L2940,88 L2941,88 L2942,88 L2943,88 L2944,89 L2945,88 L2946,88 L2947,89 L2948,89 L2949,88 L2950,87 L2951,88 L2952,89 L2953,88 L2954,87 L2955,88 L2956,88 L2957,89 L2958,88 L2959,88 L2960,88 L2961,88 L2962,88 L2963,88 L2964,88 L2965,89 L2966,88 L2967,88 L2968,88 L2969,88 L2970,88 L2971,89 L2972,88 L2973,88 L2974,88 L2975,88 L2976,88 L2977,88 L2978,88 L2979,88 L2980,88 L2981,88 L2982,88 L2983,89 L2984,88 L2985,88 L2986,88 L2987,88 L2988,88 L2989,88 L2990,90 L2991,88 L2992,88 L2993,88 L2994,88 L2995,89 L2996,89 L2997,88 L2998,89 L2999,88 L3000,88 L3001,88 L3002,88 L3003,88 L3004,88 L3005,88 L3006,88 L3007,88 L3008,88 L3009,88 L3010,89 L3011,88 L3012,88 L3013,88 L3014,89 L3015,90 L3016,88 L3017,88 L3018,88 L3019,89 L3020,88 L3021,88 L3022,89 L3023,88 L3024,88 L3025,88 L3026,88 L3027,88 L3028,88 L3029,88 L3030,88 L3031,88 L3032,88 L3033,88 L3034,88 L3035,88 L3036,88 L3037,88 L3038,88 L3039,88 L3040,88 L3041,89 L3042,88 L3043,88 L3044,88 L3045,89 L3046,89 L3047,88 L3048,88 L3049,88 L3050,88 L3051,88 L3052,88 L3053,89 L3054,88 L3055,88 L3056,88 L3057,89 L3058,89 L3059,88 L3060,88 L3061,88 L3062,88 L3063,88 L3064,88 L3065,88 L3066,88 L3067,88 L3068,88 L3069,88 L3070,88 L3071,88 L3072,88 L3073,88 L3074,88 L3075,88 L3076,89 L3077,89 L3078,88 L3079,88 L3080,88 L3081,88 L3082,89 L3083,88 L3084,88 L3085,89 L3086,88 L3087,88 L3088,89 L3089,89 L3090,89 L3091,88 L3092,88 L3093,88 L3094,89 L3095,88 L3096,88 L3097,88 L3098,88 L3099,88 L3100,88 L3101,88 L3102,88 L3103,88 L3104,88 L3105,88 L3106,88 L3107,89 L3108,88 L3109,89 L3110,88 L3111,88 L3112,88 L3113,88 L3114,88 L3115,88 L3116,88 L3117,89 L3118,88 L3119,88 L3120,89 L3121,88 L3122,88 L3123,88 L3124,88 L3125,88 L3126,88 L3127,88 L3128,88 L3129,88 L3130,88 L3131,88 L3132,88 L3133,88 L3134,88 L3135,88 L3136,88 L3137,88 L3138,88 L3139,88 L3140,89 L3141,88 L3142,88 L3143,88 L3144,88 L3145,88 L3146,88 L3147,89 L3148,88 L3149,88 L3150,88 L3151,89 L3152,88 L3153,88 L3154,88 L3155,88 L3156,88 L3157,88 L3158,88 L3159,89 L3160,88 L3161,88 L3162,88 L3163,88 L3164,88 L3165,88 L3166,88 L3167,88 L3168,88 L3169,88 L3170,88 L3171,89 L3172,88 L3173,88 L3174,88 L3175,88 L3176,88 L3177,88 L3178,89 L3179,88 L3180,88 L3181,88 L3182,88 L3183,88 L3184,88 L3185,88 L3186,88 L3187,88 L3188,86 L3189,88 L3190,88 L3191,88 L3192,88 L3193,88 L3194,88 L3195,88 L3196,88 L3197,88 L3198,88 L3199,88 L3200,88 L3201,88 L3202,88 L3203,88 L3204,88 L3205,88 L3206,88 L3207,88 L3208,88 L3209,89 L3210,89 L3211,88 L3212,87 L3213,87 L3214,89 L3215,88 L3216,88 L3217,88 L3218,88 L3219,88 L3220,88 L3221,88 L3222,89 L3223,88 L3224,88 L3225,88 L3226,88 L3227,89 L3228,88 L3229,88 L3230,88 L3231,88 L3232,89 L3233,88 L3234,88 L3235,88 L3236,88 L3237,89 L3238,88 L3239,88 L3240,88 L3241,89 L3242,88 L3243,88 L3244,88 L3245,89 L3246,86 L3247,88 L3248,88 L3249,88 L3250,88 L3251,88 L3252,88 L3253,88 L3254,89 L3255,88 L3256,88 L3257,88 L3258,88 L3259,88 L3260,88 L3261,88 L3262,88 L3263,88 L3264,88 L3265,88 L3266,88 L3267,88 L3268,88 L3269,88 L3270,88 L3271,86 L3272,88 L3273,88 L3274,88 L3275,88 L3276,88 L3277,89 L3278,88 L3279,88 L3280,88 L3281,89 L3282,88 L3283,88 L3284,89 L3285,89 L3286,88 L3287,88 L3288,88 L3289,89 L3290,89 L3291,88 L3292,88 L3293,88 L3294,88 L3295,88 L3296,88 L3297,89 L3298,88 L3299,88 L3300,88 L3301,88 L3302,89 L3303,88 L3304,88 L3305,88 L3306,88 L3307,88 L3308,89 L3309,88 L3310,88 L3311,88 L3312,88 L3313,88 L3314,88 L3315,88 L3316,88 L3317,88 L3318,88 L3319,88 L3320,88 L3321,89 L3322,88 L3323,88 L3324,88 L3325,88 L3326,88 L3327,88 L3328,88 L3329,88 L3330,88 L3331,88 L3332,88 L3333,88 L3334,88 L3335,88 L3336,88 L3337,88 L3338,88 L3339,88 L3340,88 L3341,88 L3342,88 L3343,88 L3344,88 L3345,88 L3346,89 L3347,89 L3348,88 L3349,88 L3350,88 L3351,89 L3352,88 L3353,88 L3354,88 L3355,89 L3356,88 L3357,88 L3358,88 L3359,88 L3360,88 L3361,88 L3362,88 L3363,89 L3364,88 L3365,88 L3366,88 L3367,88 L3368,88 L3369,88 L3370,89 L3371,89 L3372,88 L3373,88 L3374,88 L3375,88 L3376,88 L3377,88 L3378,89 L3379,88 L3380,88 L3381,88 L3382,88 L3383,88 L3384,88 L3385,88 L3386,88 L3387,89 L3388,88 L3389,88 L3390,88 L3391,88 L3392,88 L3393,88 L3394,88 L3395,88 L3396,88 L3397,88 L3398,88 L3399,88 L3400,88 L3401,88 L3402,89 L3403,88 L3404,88 L3405,88 L3406,88 L3407,88 L3408,88 L3409,88 L3410,88 L3411,88 L3412,88 L3413,88 L3414,88 L3415,89 L3416,88 L3417,88 L3418,88 L3419,89 L3420,88 L3421,88 L3422,89 L3423,88 L3424,88 L3425,88 L3426,89 L3427,89 L3428,88 L3429,88 L3430,88 L3431,88 L3432,88 L3433,88 L3434,89 L3435,88 L3436,88 L3437,88 L3438,88 L3439,88 L3440,88 L3441,88 L3442,88 L3443,88 L3444,90 L3445,88 L3446,88 L3447,88 L3448,88 L3449,88 L3450,88 L3451,88 L3452,88 L3453,89 L3454,88 L3455,88 L3456,88 L3457,88 L3458,89 L3459,88 L3460,88 L3461,88 L3462,88 L3463,88 L3464,88 L3465,89 L3466,89 L3467,88 L3468,88 L3469,89 L3470,88 L3471,89 L3472,88 L3473,88 L3474,88 L3475,88 L3476,89 L3477,88 L3478,88 L3479,88 L3480,88 L3481,88 L3482,88 L3483,88 L3484,89 L3485,89 L3486,88 L3487,88 L3488,89 L3489,89 L3490,88 L3491,88 L3492,88 L3493,89 L3494,88 L3495,88 L3496,88 L3497,89 L3498,88 L3499,88 L3500,88 L3501,88 L3502,90 L3503,88 L3504,88 L3505,88 L3506,88 L3507,89 L3508,88 L3509,88 L3510,88 L3511,88 L3512,89 L3513,88 L3514,88 L3515,88 L3516,89 L3517,88 L3518,88 L3519,88 L3520,89 L3521,88 L3522,88 L3523,88 L3524,88 L3525,88 L3526,88 L3527,90 L3528,88 L3529,88 L3530,88 L3531,88 L3532,89 L3533,88 L3534,88 L3535,88 L3536,88 L3537,88 L3538,88 L3539,89 L3540,88 L3541,89 L3542,88 L3543,88 L3544,88 L3545,88 L3546,89 L3547,89 L3548,88 L3549,88 L3550,88 L3551,89 L3552,89 L3553,88 L3554,88 L3555,88 L3556,88 L3557,88 L3558,88 L3559,89 L3560,88 L3561,88 L3562,88 L3563,88 L3564,89 L3565,88 L3566,88 L3567,88 L3568,88 L3569,88 L3570,88 L3571,88 L3572,88 L3573,88 L3574,88 L3575,88 L3576,88 L3577,88 L3578,89 L3579,88 L3580,88 L3581,88 L3582,89 L3583,89 L3584,88 L3585,88 L3586,88 L3587,89 L3588,88 L3589,88 L3590,88 L3591,88 L3592,88 L3593,88 L3594,88 L3595,89 L3596,88 L3597,88 L3598,88 L3599,88 L3600,88 L3601,88 L3602,88 L3603,88 L3604,88 L3605,88 L3606,88 L3607,88 L3608,89 L3609,89 L3610,88 L3611,88 L3612,88 L3613,88 L3614,88 L3615,88 L3616,88 L3617,89 L3618,88 L3619,88 L3620,88 L3621,89 L3622,89 L3623,88 L3624,88 L3625,88 L3626,89 L3627,88 L3628,88 L3629,88 L3630,88 L3631,88 L3632,88 L3633,88 L3634,88 L3635,88 L3636,88 L3637,88 L3638,88 L3639,89 L3640,89 L3641,88 L3642,88 L3643,88 L3644,88 L3645,89 L3646,88 L3647,88 L3648,88 L3649,89 L3650,88 L3651,88 L3652,88 L3653,89 L3654,88 L3655,88 L3656,88 L3657,88 L3658,88 L3659,88 L3660,88 L3661,88 L3662,88 L3663,88 L3664,88 L3665,88 L3666,88 L3667,88 L3668,88 L3669,88 L3670,89 L3671,88 L3672,88 L3673,88 L3674,88 L3675,88 L3676,88 L3677,89 L3678,88 L3679,88 L3680,89 L3681,88 L3682,88 L3683,88 L3684,89 L3685,88 L3686,88 L3687,88 L3688,88 L3689,88 L3690,88 L3691,88 L3692,88 L3693,88 L3694,88 L3695,89 L3696,89 L3697,88 L3698,88 L3699,88 L3700,87 L3701,88 L3702,88 L3703,88 L3704,88 L3705,88 L3706,88 L3707,88 L3708,88 L3709,88 L3710,88 L3711,88 L3712,88 L3713,88 L3714,88 L3715,89 L3716,88 L3717,88 L3718,88 L3719,88 L3720,89 L3721,88 L3722,88 L3723,88 L3724,88 L3725,86 L3726,88 L3727,88 L3728,89 L3729,88 L3730,88 L3731,88 L3732,89 L3733,89 L3734,88 L3735,88 L3736,88 L3737,88 L3738,89 L3739,88 L3740,88 L3741,88 L3742,88 L3743,88 L3744,88 L3745,89 L3746,89 L3747,88 L3748,88 L3749,88 L3750,88 L3751,89 L3752,88 L3753,88 L3754,88 L3755,88 L3756,88 L3757,88 L3758,87 L3759,88 L3760,88 L3761,88 L3762,88 L3763,88 L3764,88 L3765,88 L3766,89 L3767,88 L3768,88 L3769,88 L3770,89 L3771,88 L3772,88 L3773,88 L3774,88 L3775,88 L3776,88 L3777,89 L3778,89 L3779,88 L3780,88 L3781,88 L3782,89 L3783,86 L3784,88 L3785,88 L3786,88 L3787,88 L3788,88 L3789,89 L3790,89 L3791,88 L3792,87 L3793,88 L3794,88 L3795,89 L3796,89 L3797,88 L3798,88 L3799,88 L3800,89 L3801,88 L3802,88 L3803,88 L3804,88 L3805,88 L3806,88 L3807,88 L3808,87 L3809,89 L3810,88 L3811,88 L3812,88 L3813,88 L3814,88 L3815,88 L3816,88 L3817,88 L3818,88 L3819,88 L3820,88 L3821,89 L3822,88 L3823,88 L3824,88 L3825,88 L3826,88 L3827,88 L3828,88 L3829,88 L3830,88 L3831,88 L3832,88 L3833,88 L3834,88 L3835,88 L3836,88 L3837,88 L3838,88 L3839,88 L3840,89 L3841,88 L3842,88 L3843,88 L3844,89 L3845,88 L3846,88 L3847,88 L3848,88 L3849,88 L3850,88 L3851,88 L3852,89 L3853,88 L3854,88 L3855,88 L3856,88 L3857,89 L3858,89 L3859,88 L3860,88 L3861,88 L3862,88 L3863,88 L3864,88 L3865,89 L3866,88 L3867,88 L3868,88 L3869,88 L3870,88 L3871,89 L3872,88 L3873,88 L3874,88 L3875,88 L3876,89 L3877,88 L3878,88 L3879,88 L3880,88 L3881,88 L3882,88 L3883,89 L3884,89 L3885,88 L3886,87 L3887,88 L3888,88 L3889,88 L3890,88 L3891,89 L3892,88 L3893,88 L3894,88 L3895,88 L3896,88 L3897,88 L3898,88 L3899,88 L3900,88 L3901,88 L3902,88 L3903,88 L3904,88 L3905,88 L3906,88 L3907,89 L3908,88 L3909,88 L3910,88 L3911,88 L3912,88 L3913,88 L3914,88 L3915,89 L3916,88 L3917,88 L3918,88 L3919,89 L3920,89 L3921,88 L3922,88 L3923,88 L3924,88 L3925,88 L3926,89 L3927,89 L3928,88 L3929,88 L3930,88 L3931,88 L3932,89 L3933,88 L3934,88 L3935,88 L3936,88 L3937,88 L3938,88 L3939,88 L3940,88 L3941,88 L3942,88 L3943,88 L3944,88 L3945,88 L3946,89 L3947,89 L3948,88 L3949,88 L3950,88 L3951,88 L3952,88 L3953,88 L3954,88 L3955,88 L3956,89 L3957,88 L3958,88 L3959,88 L3960,88 L3961,88 L3962,88 L3963,88 L3964,88 L3965,88 L3966,88 L3967,88 L3968,88 L3969,88 L3970,88 L3971,88 L3972,88 L3973,88 L3974,88 L3975,88 L3976,88 L3977,89 L3978,88 L3979,88 L3980,88 L3981,90 L3982,89 L3983,88 L3984,88 L3985,88 L3986,88 L3987,88 L3988,87 L3989,89 L3990,89 L3991,88 L3992,87 L3993,88 L3994,88 L3995,88 L3996,88 L3997,88 L3998,88 L3999,88 L4000,88 L4001,88 L4002,88 L4003,88 L4004,88 L4005,88 L4006,89 L4007,88 L4008,88 L4009,88 L4010,88 L4011,88 L4012,88 L4013,88 L4014,89 L4015,88 L4016,88 L4017,88 L4018,88 L4019,88 L4020,88 L4021,89 L4022,88 L4023,88 L4024,88 L4025,88 L4026,89 L4027,88 L4028,88 L4029,88 L4030,88 L4031,88 L4032,89 L4033,88 L4034,88 L4035,88 L4036,88 L4037,89 L4038,88 L4039,90 L4040,88 L4041,88 L4042,88 L4043,88 L4044,89 L4045,88 L4046,88 L4047,88 L4048,88 L4049,88 L4050,88 L4051,88 L4052,89 L4053,88 L4054,88 L4055,88 L4056,88 L4057,89 L4058,88 L4059,88 L4060,88 L4061,88 L4062,88 L4063,88 L4064,89 L4065,89 L4066,88 L4067,88 L4068,88 L4069,88 L4070,88 L4071,89 L4072,88 L4073,88 L4074,88 L4075,89 L4076,89 L4077,88 L4078,88 L4079,88 L4080,88 L4081,88 L4082,88 L4083,89 L4084,88 L4085,88 L4086,88 L4087,88 L4088,88 L4089,88 L4090,88 L4091,89 L4092,88 L4093,88 L4094,88 L4095,88 "/>
<path stroke="cyan" fill="none" stroke-width="1" d="M0,220 L1,220 L2,218 L3,221 L4,220 L5,220 L6,220 L7,220 L8,220 L9,223 L10,221 L11,220 L12,220 L13,221 L14,221 L15,221 L16,220 L17,221 L18,220 L19,218 L20,220 L21,220 L22,220 L23,220 L24,220 L25,220 L26,220 L27,218 L28,218 L29,220 L30,220 L31,220 L32,220 L33,221 L34,221 L35,220 L36,221 L37,221 L38,221 L39,220 L40,221 L41,221 L42,221 L43,220 L44,220 L45,221 L46,221 L47,221 L48,221 L49,220 L50,220 L51,218 L52,220 L53,220 L54,220 L55,218 L56,220 L57,220 L58,220 L59,218 L60,220 L61,220 L62,220 L63,220 L64,221 L65,221 L66,220 L67,220 L68,221 L69,221 L70,220 L71,220 L72,221 L73,223 L74,221 L75,220 L76,221 L77,221 L78,221 L79,221 L80,220 L81,220 L82,218 L83,220 L84,220 L85,220 L86,218 L87,220 L88,220 L89,220 L90,220 L91,220 L92,220 L93,220 L94,220 L95,221 L96,223 L97,221 L98,220 L99,221 L100,221 L101,221 L102,220 L103,221 L104,221 L105,221 L106,221 L107,221 L108,221 L109,221 L110,220 L111,220 L112,220 L113,218 L114,218 L115,220 L116,220 L117,220 L118,220 L119,220 L120,220 L121,220 L122,220 L123,221 L124,221 L125,220 L126,223 L127,223 L128,223 L129,220 L130,221 L131,223 L132,223 L133,221 L134,221 L135,223 L136,221 L137,221 L138,223 L139,223 L140,223 L141,220 L142,220 L143,221 L144,220 L145,220 L146,220 L147,220 L148,220 L149,220 L150,218 L151,220 L152,218 L153,218 L154,220 L155,221 L156,220 L157,220 L158,221 L159,223 L160,221 L161,221 L162,221 L163,221 L164,221 L165,221 L166,221 L167,221 L168,220 L169,220 L170,221 L171,221 L172,220 L173,218 L174,218 L175,220 L176,220 L177,220 L178,220 L179,220 L180,220 L181,218 L182,220 L183,220 L184,218 L185,218 L186,220 L187,221 L188,220 L189,220 L190,221 L191,220 L192,221 L193,223 L194,223 L195,221 L196,221 L197,220 L198,221 L199,221 L200,220 L201,220 L202,221 L203,220 L204,220 L205,220 L206,220 L207,218 L208,218 L209,220 L210,220 L211,218 L212,219 L213,220 L214,220 L215,218 L216,218 L217,218 L218,221 L219,221 L220,221 L221,223 L222,221 L223,220 L224,220 L225,221 L226,221 L227,220 L228,221 L229,223 L230,221 L231,221 L232,221 L233,220 L234,220 L235,218 L236,220 L237,220 L238,220 L239,218 L240,220 L241,221 L242,220 L243,218 L244,218 L245,220 L246,220 L247,218 L248,220 L249,220 L250,220 L251,220 L252,221 L253,221 L254,221 L255,220 L256,221 L257,223 L258,221 L259,221 L260,221 L261,223 L262,223 L263,221 L264,221 L265,221 L266,218 L267,218 L268,220 L269,220 L270,220 L271,218 L272,220 L273,220 L274,220 L275,218 L276,218 L277,218 L278,218 L279,218 L280,221 L281,221 L282,220 L283,221 L284,223 L285,220 L286,218 L287,220 L288,220 L289,220 L290,220 L291,221 L292,221 L293,220 L294,220 L295,221 L296,221 L297,220 L298,219 L299,220 L300,220 L301,220 L302,220 L303,220 L304,220 L305,220 L306,220 L307,220 L308,220 L309,218 L310,218 L311,221 L312,223 L313,220 L314,220 L315,221 L316,223 L317,221 L318,221 L319,221 L320,221 L321,220 L322,221 L323,223 L324,221 L325,220 L326,221 L327,221 L328,220 L329,218 L330,218 L331,218 L332,220 L333,220 L334,220 L335,220 L336,220 L337,218 L338,220 L339,220 L340,220 L341,218 L342,220 L343,221 L344,223 L345,221 L346,221 L347,221 L348,221 L349,221 L350,221 L351,221 L352,220 L353,220 L354,221 L355,223 L356,221 L357,220 L358,221 L359,220 L360,220 L361,220 L362,220 L363,220 L364,218 L365,220 L366,220 L367,220 L368,218 L369,218 L370,220 L371,220 L372,220 L373,220 L374,220 L375,221 L376,221 L377,221 L378,221 L379,220 L380,220 L381,220 L382,221 L383,220 L384,220 L385,221 L386,223 L387,221 L388,221 L389,221 L390,220 L391,220 L392,220 L393,220 L394,220 L395,218 L396,218 L397,220 L398,220 L399,220 L400,218 L401,220 L402,220 L403,220 L404,220 L405,220 L406,221 L407,221 L408,220 L409,223 L410,221 L411,220 L412,220 L413,223 L414,221 L415,221 L416,221 L417,221 L418,221 L419,220 L420,223 L421,221 L422,220 L423,218 L424,218 L425,220 L426,220 L427,218 L428,220 L429,220 L430,220 L431,218 L432,218 L433,218 L434,218 L435,218 L436,221 L437,221 L438,221 L439,220 L440,221 L441,221 L442,223 L443,220 L444,220 L445,221 L446,221 L447,221 L448,221 L449,221 L450,220 L451,220 L452,221 L453,220 L454,220 L455,218 L456,220 L457,220 L458,220 L459,218 L460,218 L461,220 L462,220 L463,218 L464,220 L465,220 L466,220 L467,220 L468,221 L469,223 L470,221 L471,220 L472,221 L473,223 L474,221 L475,221 L476,221 L477,221 L478,220 L479,221 L480,221 L481,221 L482,220 L483,218 L484,218 L485,220 L486,219 L487,219 L488,220 L489,220 L490,220 L491,220 L492,220 L493,218 L494,219 L495,218 L496,220 L497,218 L498,218 L499,221 L500,223 L501,223 L502,220 L503,221 L504,220 L505,220 L506,220 L507,221 L508,220 L509,220 L510,220 L511,223 L512,223 L513,223 L514,218 L515,218 L516,218 L517,218 L518,218 L519,220 L520,220 L521,220 L522,220 L523,221 L524,220 L525,219 L526,218 L527,220 L528,220 L529,220 L530,220 L531,221 L532,223 L533,221 L534,221 L535,221 L536,220 L537,220 L538,220 L539,221 L540,223 L541,221 L542,221 L543,223 L544,223 L545,220 L546,218 L547,220 L548,218 L549,218 L550,218 L551,220 L552,220 L553,220 L554,220 L555,220 L556,218 L557,218 L558,218 L559,220 L560,220 L561,221 L562,223 L563,221 L564,221 L565,220 L566,221 L567,221 L568,220 L569,220 L570,220 L571,221 L572,223 L573,221 L574,221 L575,223 L576,221 L577,220 L578,220 L579,220 L580,220 L581,220 L582,220 L583,220 L584,220 L585,218 L586,220 L587,220 L588,218 L589,218 L590,218 L591,220 L592,220 L593,221 L594,223 L595,221 L596,220 L597,221 L598,220 L599,220 L600,220 L601,220 L602,221 L603,221 L604,220 L605,220 L606,221 L607,220 L608,220 L609,221 L610,221 L611,220 L612,218 L613,220 L614,220 L615,220 L616,220 L617,220 L618,220 L619,220 L620,220 L621,220 L622,221 L623,220 L624,220 L625,223 L626,223 L627,221 L628,220 L629,221 L630,221 L631,221 L632,220 L633,221 L634,221 L635,221 L636,220 L637,223 L638,221 L639,219 L640,218 L641,218 L642,218 L643,218 L644,218 L645,220 L646,220 L647,220 L648,220 L649,220 L650,220 L651,218 L652,220 L653,221 L654,221 L655,220 L656,221 L657,221 L658,221 L659,221 L660,221 L661,221 L662,221 L663,220 L664,221 L665,221 L666,221 L667,220 L668,223 L669,221 L670,220 L671,218 L672,220 L673,220 L674,220 L675,220 L676,220 L677,220 L678,220 L679,218 L680,220 L681,220 L682,220 L683,218 L684,220 L685,221 L686,221 L687,221 L688,221 L689,221 L690,221 L691,220 L692,220 L693,220 L694,220 L695,220 L696,221 L697,223 L698,220 L699,221 L700,221 L701,220 L702,220 L703,220 L704,220 L705,218 L706,218 L707,220 L708,220 L709,220 L710,218 L711,220 L712,220 L713,220 L714,218 L715,220 L716,221 L717,221 L718,221 L719,221 L720,221 L721,220 L722,220 L723,221 L724,221 L725,220 L726,220 L727,221 L728,223 L729,221 L730,220 L731,220 L732,220 L733,220 L734,220 L735,220 L736,220 L737,218 L738,220 L739,220 L740,220 L741,218 L742,218 L743,220 L744,218 L745,218 L746,218 L747,220 L748,220 L749,221 L750,221 L751,223 L752,221 L753,220 L754,220 L755,220 L756,220 L757,220 L758,220 L759,221 L760,221 L761,221 L762,221 L763,220 L764,220 L765,218 L766,220 L767,220 L768,220 L769,218 L770,218 L771,220 L772,220 L773,220 L774,220 L775,220 L776,220 L777,220 L778,221 L779,221 L780,220 L781,220 L782,220 L783,221 L784,221 L785,220 L786,221 L787,221 L788,221 L789,221 L790,221 L791,220 L792,220 L793,221 L794,220 L795,220 L796,218 L797,218 L798,218 L799,220 L800,218 L801,218 L802,220 L803,220 L804,220 L805,220 L806,218 L807,218 L808,218 L809,220 L810,220 L811,221 L812,220 L813,220 L814,221 L815,221 L816,220 L817,220 L818,220 L819,220 L820,220 L821,221 L822,221 L823,220 L824,220 L825,220 L826,220 L827,220 L828,218 L829,218 L830,220 L831,218 L832,218 L833,218 L834,218 L835,218 L836,218 L837,220 L838,220 L839,220 L840,220 L841,220 L842,223 L843,221 L844,220 L845,220 L846,221 L847,220 L848,220 L849,221 L850,220 L851,220 L852,220 L853,223 L854,223 L855,221 L856,220 L857,220 L858,221 L859,220 L860,220 L861,220 L862,220 L863,218 L864,220 L865,220 L866,218 L867,219 L868,220 L869,221 L870,221 L871,221 L872,221 L873,223 L874,221 L875,220 L876,220 L877,220 L878,220 L879,221 L880,223 L881,223 L882,221 L883,220 L884,221 L885,223 L886,223 L887,220 L888,220 L889,220 L890,220 L891,220 L892,221 L893,220 L894,220 L895,218 L896,220 L897,220 L898,220 L899,218 L900,218 L901,220 L902,220 L903,220 L904,221 L905,221 L906,220 L907,221 L908,223 L909,221 L910,218 L911,220 L912,220 L913,221 L914,220 L915,220 L916,221 L917,221 L918,218 L919,220 L920,220 L921,220 L922,220 L923,220 L924,221 L925,220 L926,218 L927,220 L928,220 L929,220 L930,220 L931,220 L932,220 L933,221 L934,221 L935,223 L936,221 L937,220 L938,220 L939,221 L940,223 L941,221 L942,220 L943,221 L944,221 L945,221 L946,221 L947,220 L948,221 L949,220 L950,220 L951,221 L952,218 L953,218 L954,219 L955,220 L956,220 L957,220 L958,218 L959,220 L960,220 L961,220 L962,218 L963,220 L964,220 L965,220 L966,220 L967,221 L968,220 L969,220 L970,220 L971,221 L972,220 L973,220 L974,220 L975,220 L976,220 L977,220 L978,221 L979,223 L980,220 L981,220 L982,220 L983,220 L984,220 L985,219 L986,218 L987,218 L988,220 L989,218 L990,218 L991,220 L992,218 L993,218 L994,220 L995,220 L996,220 L997,220 L998,221 L999,221 L1000,220 L1001,220 L1002,220 L1003,221 L1004,221 L1005,220 L1006,221 L1007,220 L1008,220 L1009,221 L1010,222 L1011,221 L1012,220 L1013,220 L1014,220 L1015,220 L1016,220 L1017,220 L1018,220 L1019,220 L1020,220 L1021,220 L1022,221 L1023,220 L1024,218 L1025,220 L1026,221 L1027,221 L1028,221 L1029,221 L1030,221 L1031,221 L1032,221 L1033,221 L1034,221 L1035,220 L1036,220 L1037,220 L1038,221 L1039,220 L1040,221 L1041,223 L1042,223 L1043,220 L1044,220 L1045,220 L1046,220 L1047,220 L1048,220 L1049,220 L1050,220 L1051,220 L1052,218 L1053,220 L1054,220 L1055,220 L1056,218 L1057,220 L1058,220 L1059,220 L1060,220 L1061,221 L1062,221 L1063,221 L1064,221 L1065,223 L1066,220 L1067,220 L1068,220 L1069,221 L1070,221 L1071,220 L1072,220 L1073,220 L1074,220 L1075,218 L1076,218 L1077,220 L1078,220 L1079,220 L1080,220 L1081,221 L1082,220 L1083,220 L1084,220 L1085,220 L1086,220 L1087,220 L1088,221 L1089,221 L1090,221 L1091,221 L1092,221 L1093,221 L1094,220 L1095,220 L1096,221 L1097,223 L1098,221 L1099,220 L1100,221 L1101,223 L1102,221 L1103,221 L1104,220 L1105,220 L1106,218 L1107,220 L1108,220 L1109,218 L1110,218 L1111,218 L1112,218 L1113,220 L1114,218 L1115,218 L1116,220 L1117,220 L1118,218 L1119,220 L1120,221 L1121,220 L1122,220 L1123,220 L1124,221 L1125,220 L1126,220 L1127,220 L1128,221 L1129,221 L1130,220 L1131,220 L1132,220 L1133,220 L1134,220 L1135,220 L1136,220 L1137,220 L1138,218 L1139,220 L1140,220 L1141,220 L1142,218 L1143,218 L1144,220 L1145,218 L1146,218 L1147,220 L1148,220 L1149,218 L1150,220 L1151,221 L1152,221 L1153,220 L1154,220 L1155,221 L1156,221 L1157,221 L1158,220 L1159,221 L1160,221 L1161,220 L1162,221 L1163,221 L1164,221 L1165,221 L1166,220 L1167,220 L1168,220 L1169,218 L1170,218 L1171,220 L1172,220 L1173,220 L1174,220 L1175,220 L1176,220 L1177,218 L1178,220 L1179,220 L1180,218 L1181,220 L1182,221 L1183,221 L1184,223 L1185,220 L1186,220 L1187,221 L1188,221 L1189,221 L1190,221 L1191,221 L1192,220 L1193,221 L1194,221 L1195,221 L1196,221 L1197,220 L1198,220 L1199,220 L1200,220 L1201,220 L1202,220 L1203,220 L1204,220 L1205,218 L1206,220 L1207,220 L1208,218 L1209,218 L1210,220 L1211,220 L1212,220 L1213,220 L1214,221 L1215,221 L1216,221 L1217,220 L1218,221 L1219,221 L1220,220 L1221,221 L1222,223 L1223,221 L1224,220 L1225,221 L1226,221 L1227,223 L1228,220 L1229,218 L1230,220 L1231,220 L1232,218 L1233,220 L1234,220 L1235,218 L1236,218 L1237,220 L1238,221 L1239,220 L1240,218 L1241,220 L1242,220 L1243,221 L1244,220 L1245,221 L1246,221 L1247,220 L1248,221 L1249,223 L1250,223 L1251,220 L1252,220 L1253,221 L1254,223 L1255,221 L1256,220 L1257,221 L1258,221 L1259,221 L1260,218 L1261,220 L1262,218 L1263,218 L1264,218 L1265,220 L1266,220 L1267,218 L1268,218 L1269,220 L1270,220 L1271,220 L1272,220 L1273,220 L1274,221 L1275,220 L1276,221 L1277,223 L1278,220 L1279,220 L1280,221 L1281,223 L1282,221 L1283,220 L1284,220 L1285,221 L1286,221 L1287,221 L1288,220 L1289,220 L1290,221 L1291,220 L1292,220 L1293,220 L1294,220 L1295,218 L1296,220 L1297,221 L1298,220 L1299,218 L1300,218 L1301,220 L1302,220 L1303,220 L1304,220 L1305,220 L1306,220 L1307,220 L1308,223 L1309,221 L1310,220 L1311,220 L1312,221 L1313,221 L1314,220 L1315,220 L1316,220 L1317,221 L1318,221 L1319,221 L1320,221 L1321,221 L1322,220 L1323,218 L1324,221 L1325,220 L1326,218 L1327,218 L1328,220 L1329,221 L1330,220 L1331,220 L1332,220 L1333,220 L1334,220 L1335,220 L1336,221 L1337,220 L1338,220 L1339,221 L1340,221 L1341,221 L1342,220 L1343,220 L1344,221 L1345,221 L1346,220 L1347,221 L1348,221 L1349,221 L1350,220 L1351,221 L1352,223 L1353,220 L1354,218 L1355,220 L1356,220 L1357,220 L1358,218 L1359,218 L1360,220 L1361,220 L1362,218 L1363,220 L1364,220 L1365,220 L1366,218 L1367,220 L1368,221 L1369,220 L1370,220 L1371,221 L1372,221 L1373,221 L1374,220 L1375,221 L1376,221 L1377,220 L1378,221 L1379,223 L1380,221 L1381,220 L1382,220 L1383,223 L1384,221 L1385,218 L1386,218 L1387,220 L1388,220 L1389,218 L1390,220 L1391,220 L1392,220 L1393,218 L1394,220 L1395,220 L1396,220 L1397,218 L1398,220 L1399,221 L1400,221 L1401,221 L1402,221 L1403,220 L1404,220 L1405,221 L1406,221 L1407,221 L1408,220 L1409,220 L1410,221 L1411,221 L1412,221 L1413,220 L1414,221 L1415,220 L1416,220 L1417,220 L1418,220 L1419,220 L1420,220 L1421,220 L1422,221 L1423,220 L1424,218 L1425,218 L1426,220 L1427,220 L1428,220 L1429,220 L1430,220 L1431,220 L1432,220 L1433,221 L1434,221 L1435,220 L1436,220 L1437,221 L1438,223 L1439,221 L1440,220 L1441,220 L1442,221 L1443,221 L1444,221 L1445,221 L1446,220 L1447,220 L1448,220 L1449,220 L1450,220 L1451,218 L1452,218 L1453,220 L1454,220 L1455,220 L1456,218 L1457,218 L1458,220 L1459,220 L1460,220 L1461,221 L1462,221 L1463,221 L1464,220 L1465,221 L1466,221 L1467,221 L1468,220 L1469,221 L1470,223 L1471,221 L1472,220 L1473,221 L1474,221 L1475,220 L1476,221 L1477,221 L1478,220 L1479,218 L1480,220 L1481,220 L1482,220 L1483,218 L1484,220 L1485,220 L1486,220 L1487,220 L1488,220 L1489,220 L1490,220 L1491,220 L1492,221 L1493,221 L1494,220 L1495,220 L1496,220 L1497,221 L1498,221 L1499,220 L1500,221 L1501,221 L1502,221 L1503,221 L1504,221 L1505,221 L1506,221 L1507,221 L1508,221 L1509,220 L1510,218 L1511,220 L1512,220 L1513,220 L1514,220 L1515,218 L1516,220 L1517,220 L1518,220 L1519,220 L1520,220 L1521,220 L1522,218 L1523,220 L1524,221 L1525,221 L1526,220 L1527,220 L1528,221 L1529,221 L1530,221 L1531,221 L1532,221 L1533,221 L1534,220 L1535,221 L1536,223 L1537,221 L1538,221 L1539,220 L1540,220 L1541,220 L1542,220 L1543,218 L1544,220 L1545,220 L1546,218 L1547,220 L1548,220 L1549,220 L1550,218 L1551,220 L1552,221 L1553,220 L1554,218 L1555,220 L1556,221 L1557,223 L1558,220 L1559,221 L1560,221 L1561,221 L1562,221 L1563,221 L1564,223 L1565,220 L1566,220 L1567,223 L1568,221 L1569,221 L1570,220 L1571,220 L1572,220 L1573,220 L1574,220 L1575,220 L1576,220 L1577,218 L1578,220 L1579,220 L1580,220 L1581,218 L1582,220 L1583,221 L1584,220 L1585,220 L1586,220 L1587,221 L1588,221 L1589,220 L1590,221 L1591,221 L1592,221 L1593,220 L1594,221 L1595,223 L1596,221 L1597,220 L1598,220 L1599,223 L1600,221 L1601,220 L1602,220 L1603,220 L1604,220 L1605,218 L1606,220 L1607,220 L1608,218 L1609,218 L1610,220 L1611,220 L1612,220 L1613,218 L1614,220 L1615,220 L1616,220 L1617,221 L1618,221 L1619,221 L1620,220 L1621,220 L1622,223 L1623,223 L1624,220 L1625,220 L1626,221 L1627,221 L1628,221 L1629,220 L1630,221 L1631,221 L1632,221 L1633,220 L1634,220 L1635,220 L1636,218 L1637,220 L1638,220 L1639,220 L1640,220 L1641,218 L1642,220 L1643,220 L1644,218 L1645,220 L1646,220 L1647,220 L1648,220 L1649,221 L1650,223 L1651,220 L1652,220 L1653,221 L1654,221 L1655,221 L1656,220 L1657,220 L1658,221 L1659,221 L1660,221 L1661,221 L1662,221 L1663,220 L1664,218 L1665,220 L1666,221 L1667,220 L1668,218 L1669,220 L1670,220 L1671,220 L1672,220 L1673,220 L1674,220 L1675,220 L1676,220 L1677,221 L1678,220 L1679,220 L1680,220 L1681,223 L1682,221 L1683,220 L1684,220 L1685,221 L1686,221 L1687,221 L1688,221 L1689,221 L1690,220 L1691,220 L1692,221 L1693,223 L1694,221 L1695,218 L1696,220 L1697,220 L1698,220 L1699,218 L1700,218 L1701,220 L1702,218 L1703,220 L1704,220 L1705,220 L1706,218 L1707,218 L1708,220 L1709,221 L1710,220 L1711,220 L1712,221 L1713,223 L1714,220 L1715,221 L1716,221 L1717,221 L1718,220 L1719,221 L1720,223 L1721,221 L1722,220 L1723,220 L1724,221 L1725,223 L1726,220 L1727,218 L1728,220 L1729,218 L1730,218 L1731,220 L1732,220 L1733,218 L1734,218 L1735,220 L1736,220 L1737,220 L1738,218 L1739,220 L1740,221 L1741,221 L1742,220 L1743,221 L1744,221 L1745,221 L1746,221 L1747,221 L1748,221 L1749,220 L1750,220 L1751,221 L1752,223 L1753,221 L1754,220 L1755,221 L1756,223 L1757,220 L1758,220 L1759,220 L1760,220 L1761,218 L1762,218 L1763,220 L1764,220 L1765,218 L1766,218 L1767,220 L1768,220 L1769,220 L1770,218 L1771,220 L1772,221 L1773,220 L1774,221 L1775,221 L1776,220 L1777,220 L1778,221 L1779,223 L1780,221 L1781,220 L1782,220 L1783,221 L1784,223 L1785,221 L1786,220 L1787,223 L1788,220 L1789,218 L1790,220 L1791,220 L1792,220 L1793,218 L1794,220 L1795,220 L1796,220 L1797,218 L1798,218 L1799,220 L1800,220 L1801,220 L1802,220 L1803,221 L1804,220 L1805,221 L1806,221 L1807,221 L1808,221 L1809,221 L1810,221 L1811,221 L1812,223 L1813,220 L1814,221 L1815,221 L1816,221 L1817,220 L1818,221 L1819,220 L1820,220 L1821,220 L1822,220 L1823,220 L1824,218 L1825,218 L1826,220 L1827,220 L1828,220 L1829,220 L1830,220 L1831,220 L1832,220 L1833,220 L1834,221 L1835,220 L1836,221 L1837,220 L1838,221 L1839,223 L1840,221 L1841,220 L1842,221 L1843,221 L1844,220 L1845,221 L1846,220 L1847,221 L1848,220 L1849,223 L1850,220 L1851,220 L1852,218 L1853,218 L1854,220 L1855,220 L1856,218 L1857,220 L1858,220 L1859,220 L1860,220 L1861,220 L1862,220 L1863,220 L1864,218 L1865,221 L1866,221 L1867,221 L1868,220 L1869,220 L1870,221 L1871,221 L1872,221 L1873,220 L1874,221 L1875,221 L1876,220 L1877,223 L1878,223 L1879,220 L1880,220 L1881,220 L1882,220 L1883,218 L1884,218 L1885,220 L1886,220 L1887,220 L1888,220 L1889,220 L1890,220 L1891,218 L1892,218 L1893,220 L1894,220 L1895,220 L1896,220 L1897,223 L1898,223 L1899,221 L1900,220 L1901,221 L1902,221 L1903,221 L1904,221 L1905,221 L1906,220 L1907,220 L1908,221 L1909,221 L1910,221 L1911,220 L1912,220 L1913,220 L1914,220 L1915,220 L1916,220 L1917,220 L1918,220 L1919,220 L1920,220 L1921,220 L1922,218 L1923,218 L1924,220 L1925,221 L1926,220 L1927,220 L1928,220 L1929,221 L1930,221 L1931,221 L1932,221 L1933,221 L1934,220 L1935,220 L1936,221 L1937,223 L1938,220 L1939,220 L1940,221 L1941,221 L1942,221 L1943,220 L1944,220 L1945,220 L1946,220 L1947,220 L1948,220 L1949,218 L1950,218 L1951,220 L1952,220 L1953,220 L1954,218 L1955,220 L1956,220 L1957,220 L1958,220 L1959,221 L1960,221 L1961,220 L1962,220 L1963,221 L1964,221 L1965,221 L1966,220 L1967,221 L1968,221 L1969,221 L1970,220 L1971,220 L1972,221 L1973,221 L1974,220 L1975,220 L1976,220 L1977,218 L1978,218 L1979,220 L1980,220 L1981,218 L1982,218 L1983,220 L1984,220 L1985,220 L1986,218 L1987,220 L1988,220 L1989,220 L1990,221 L1991,221 L1992,221 L1993,220 L1994,220 L1995,223 L1996,223 L1997,220 L1998,220 L1999,221 L2000,221 L2001,220 L2002,220 L2003,221 L2004,221 L2005,220 L2006,220 L2007,220 L2008,220 L2009,218 L2010,218 L2011,220 L2012,220 L2013,218 L2014,218 L2015,220 L2016,220 L2017,218 L2018,220 L2019,220 L2020,220 L2021,220 L2022,221 L2023,223 L2024,220 L2025,220 L2026,223 L2027,221 L2028,221 L2029,221 L2030,221 L2031,221 L2032,220 L2033,220 L2034,223 L2035,221 L2036,220 L2037,218 L2038,220 L2039,220 L2040,220 L2041,218 L2042,218 L2043,220 L2044,220 L2045,220 L2046,220 L2047,220 L2048,218 L2049,220 L2050,220 L2051,221 L2052,220 L2053,220 L2054,221 L2055,220 L2056,221 L2057,221 L2058,221 L2059,221 L2060,220 L2061,221 L2062,221 L2063,221 L2064,220 L2065,221 L2066,223 L2067,220 L2068,218 L2069,220 L2070,220 L2071,220 L2072,220 L2073,220 L2074,220 L2075,218 L2076,220 L2077,220 L2078,220 L2079,218 L2080,218 L2081,220 L2082,220 L2083,221 L2084,220 L2085,221 L2086,220 L2087,220 L2088,221 L2089,223 L2090,221 L2091,220 L2092,220 L2093,223 L2094,221 L2095,220 L2096,220 L2097,221 L2098,221 L2099,218 L2100,220 L2101,220 L2102,220 L2103,220 L2104,220 L2105,220 L2106,220 L2107,218 L2108,220 L2109,221 L2110,220 L2111,218 L2112,220 L2113,221 L2114,221 L2115,220 L2116,221 L2117,220 L2118,220 L2119,220 L2120,221 L2121,223 L2122,220 L2123,220 L2124,221 L2125,221 L2126,221 L2127,220 L2128,221 L2129,221 L2130,220 L2131,218 L2132,220 L2133,220 L2134,218 L2135,218 L2136,220 L2137,221 L2138,218 L2139,218 L2140,220 L2141,220 L2142,220 L2143,220 L2144,221 L2145,221 L2146,220 L2147,221 L2148,223 L2149,221 L2150,220 L2151,220 L2152,223 L2153,221 L2154,220 L2155,220 L2156,221 L2157,221 L2158,221 L2159,221 L2160,221 L2161,220 L2162,218 L2163,220 L2164,220 L2165,220 L2166,218 L2167,218 L2168,220 L2169,220 L2170,218 L2171,220 L2172,220 L2173,220 L2174,220 L2175,221 L2176,221 L2177,220 L2178,220 L2179,221 L2180,221 L2181,221 L2182,220 L2183,221 L2184,221 L2185,221 L2186,221 L2187,221 L2188,221 L2189,221 L2190,221 L2191,221 L2192,220 L2193,218 L2194,218 L2195,220 L2196,220 L2197,220 L2198,218 L2199,220 L2200,220 L2201,220 L2202,220 L2203,220 L2204,220 L2205,218 L2206,220 L2207,221 L2208,221 L2209,220 L2210,220 L2211,221 L2212,221 L2213,221 L2214,221 L2215,221 L2216,221 L2217,220 L2218,221 L2219,221 L2220,221 L2221,220 L2222,221 L2223,221 L2224,220 L2225,218 L2226,220 L2227,220 L2228,220 L2229,220 L2230,220 L2231,220 L2232,218 L2233,220 L2234,221 L2235,220 L2236,220 L2237,220 L2238,221 L2239,221 L2240,223 L2241,220 L2242,220 L2243,221 L2244,221 L2245,220 L2246,221 L2247,221 L2248,220 L2249,220 L2250,223 L2251,221 L2252,220 L2253,221 L2254,220 L2255,220 L2256,220 L2257,220 L2258,220 L2259,220 L2260,218 L2261,220 L2262,220 L2263,220 L2264,218 L2265,220 L2266,220 L2267,220 L2268,220 L2269,220 L2270,221 L2271,221 L2272,221 L2273,221 L2274,221 L2275,221 L2276,220 L2277,221 L2278,223 L2279,220 L2280,220 L2281,221 L2282,221 L2283,223 L2284,221 L2285,220 L2286,220 L2287,220 L2288,220 L2289,220 L2290,220 L2291,218 L2292,218 L2293,220 L2294,220 L2295,220 L2296,218 L2297,220 L2298,220 L2299,220 L2300,220 L2301,221 L2302,221 L2303,220 L2304,221 L2305,223 L2306,221 L2307,220 L2308,221 L2309,223 L2310,223 L2311,221 L2312,220 L2313,221 L2314,221 L2315,221 L2316,220 L2317,220 L2318,220 L2319,220 L2320,220 L2321,220 L2322,220 L2323,218 L2324,218 L2325,220 L2326,220 L2327,218 L2328,220 L2329,220 L2330,220 L2331,221 L2332,221 L2333,223 L2334,220 L2335,220 L2336,221 L2337,221 L2338,221 L2339,220 L2340,221 L2341,221 L2342,221 L2343,221 L2344,221 L2345,221 L2346,221 L2347,220 L2348,220 L2349,220 L2350,218 L2351,220 L2352,220 L2353,220 L2354,220 L2355,218 L2356,218 L2357,220 L2358,220 L2359,220 L2360,220 L2361,220 L2362,220 L2363,220 L2364,223 L2365,221 L2366,220 L2367,220 L2368,223 L2369,223 L2370,221 L2371,220 L2372,221 L2373,221 L2374,220 L2375,221 L2376,223 L2377,221 L2378,220 L2379,220 L2380,220 L2381,220 L2382,218 L2383,218 L2384,220 L2385,220 L2386,220 L2387,220 L2388,220 L2389,220 L2390,220 L2391,220 L2392,220 L2393,220 L2394,220 L2395,221 L2396,223 L2397,221 L2398,220 L2399,221 L2400,221 L2401,221 L2402,220 L2403,221 L2404,221 L2405,220 L2406,220 L2407,221 L2408,223 L2409,220 L2410,218 L2411,220 L2412,220 L2413,220 L2414,218 L2415,220 L2416,220 L2417,220 L2418,220 L2419,220 L2420,220 L2421,218 L2422,220 L2423,221 L2424,221 L2425,220 L2426,220 L2427,221 L2428,221 L2429,220 L2430,221 L2431,221 L2432,220 L2433,220 L2434,221 L2435,221 L2436,221 L2437,220 L2438,221 L2439,223 L2440,221 L2441,218 L2442,218 L2443,220 L2444,220 L2445,220 L2446,220 L2447,220 L2448,220 L2449,218 L2450,220 L2451,220 L2452,220 L2453,218 L2454,220 L2455,221 L2456,221 L2457,220 L2458,221 L2459,220 L2460,220 L2461,220 L2462,223 L2463,221 L2464,220 L2465,220 L2466,221 L2467,223 L2468,220 L2469,220 L2470,221 L2471,221 L2472,220 L2473,220 L2474,220 L2475,220 L2476,218 L2477,220 L2478,221 L2479,220 L2480,218 L2481,220 L2482,221 L2483,220 L2484,218 L2485,218 L2486,220 L2487,221 L2488,220 L2489,221 L2490,221 L2491,220 L2492,220 L2493,221 L2494,223 L2495,221 L2496,220 L2497,220 L2498,221 L2499,221 L2500,220 L2501,221 L2502,221 L2503,220 L2504,220 L2505,221 L2506,220 L2507,218 L2508,218 L2509,220 L2510,220 L2511,220 L2512,218 L2513,218 L2514,220 L2515,220 L2516,220 L2517,221 L2518,220 L2519,220 L2520,220 L2521,223 L2522,221 L2523,220 L2524,221 L2525,221 L2526,223 L2527,221 L2528,220 L2529,221 L2530,221 L2531,221 L2532,221 L2533,221 L2534,218 L2535,218 L2536,220 L2537,221 L2538,220 L2539,218 L2540,220 L2541,220 L2542,220 L2543,220 L2544,220 L2545,220 L2546,220 L2547,220 L2548,221 L2549,221 L2550,220 L2551,220 L2552,221 L2553,221 L2554,221 L2555,220 L2556,221 L2557,221 L2558,221 L2559,220 L2560,221 L2561,221 L2562,220 L2563,220 L2564,221 L2565,220 L2566,218 L2567,218 L2568,220 L2569,220 L2570,220 L2571,218 L2572,220 L2573,220 L2574,220 L2575,220 L2576,220 L2577,220 L2578,218 L2579,220 L2580,221 L2581,221 L2582,221 L2583,220 L2584,221 L2585,221 L2586,221 L2587,221 L2588,221 L2589,221 L2590,220 L2591,221 L2592,221 L2593,221 L2594,220 L2595,221 L2596,220 L2597,220 L2598,218 L2599,218 L2600,220 L2601,220 L2602,220 L2603,220 L2604,220 L2605,218 L2606,218 L2607,220 L2608,220 L2609,220 L2610,220 L2611,220 L2612,221 L2613,223 L2614,220 L2615,221 L2616,221 L2617,221 L2618,220 L2619,223 L2620,221 L2621,220 L2622,220 L2623,223 L2624,223 L2625,220 L2626,220 L2627,220 L2628,220 L2629,220 L2630,220 L2631,220 L2632,220 L2633,218 L2634,220 L2635,220 L2636,220 L2637,218 L2638,220 L2639,220 L2640,220 L2641,220 L2642,220 L2643,221 L2644,221 L2645,220 L2646,221 L2647,223 L2648,221 L2649,220 L2650,221 L2651,223 L2652,221 L2653,220 L2654,221 L2655,221 L2656,221 L2657,221 L2658,220 L2659,220 L2660,220 L2661,220 L2662,220 L2663,220 L2664,218 L2665,218 L2666,220 L2667,220 L2668,220 L2669,218 L2670,220 L2671,220 L2672,220 L2673,220 L2674,221 L2675,221 L2676,220 L2677,220 L2678,221 L2679,221 L2680,220 L2681,220 L2682,221 L2683,223 L2684,221 L2685,220 L2686,221 L2687,221 L2688,221 L2689,220 L2690,220 L2691,220 L2692,218 L2693,220 L2694,220 L2695,220 L2696,218 L2697,220 L2698,220 L2699,220 L2700,220 L2701,218 L2702,220 L2703,220 L2704,220 L2705,221 L2706,221 L2707,221 L2708,220 L2709,221 L2710,221 L2711,221 L2712,220 L2713,221 L2714,221 L2715,221 L2716,220 L2717,221 L2718,221 L2719,221 L2720,220 L2721,220 L2722,220 L2723,218 L2724,218 L2725,220 L2726,220 L2727,220 L2728,218 L2729,220 L2730,220 L2731,220 L2732,220 L2733,220 L2734,220 L2735,220 L2736,221 L2737,223 L2738,221 L2739,220 L2740,220 L2741,221 L2742,221 L2743,221 L2744,221 L2745,223 L2746,220 L2747,220 L2748,221 L2749,221 L2750,221 L2751,218 L2752,220 L2753,220 L2754,220 L2755,218 L2756,218 L2757,220 L2758,220 L2759,218 L2760,220 L2761,220 L2762,220 L2763,218 L2764,220 L2765,221 L2766,220 L2767,220 L2768,221 L2769,221 L2770,221 L2771,220 L2772,220 L2773,221 L2774,221 L2775,221 L2776,223 L2777,221 L2778,220 L2779,221 L2780,221 L2781,223 L2782,220 L2783,218 L2784,220 L2785,220 L2786,218 L2787,220 L2788,220 L2789,220 L2790,218 L2791,220 L2792,220 L2793,220 L2794,218 L2795,220 L2796,220 L2797,221 L2798,220 L2799,221 L2800,221 L2801,221 L2802,220 L2803,221 L2804,221 L2805,221 L2806,220 L2807,221 L2808,223 L2809,221 L2810,220 L2811,221 L2812,221 L2813,220 L2814,218 L2815,220 L2816,220 L2817,218 L2818,220 L2819,220 L2820,220 L2821,218 L2822,220 L2823,220 L2824,221 L2825,220 L2826,218 L2827,221 L2828,221 L2829,220 L2830,221 L2831,221 L2832,221 L2833,220 L2834,221 L2835,223 L2836,221 L2837,220 L2838,221 L2839,221 L2840,223 L2841,220 L2842,220 L2843,221 L2844,220 L2845,220 L2846,220 L2847,220 L2848,220 L2849,218 L2850,220 L2851,220 L2852,220 L2853,218 L2854,220 L2855,220 L2856,220 L2857,220 L2858,220 L2859,220 L2860,220 L2861,220 L2862,221 L2863,221 L2864,220 L2865,220 L2866,221 L2867,221 L2868,223 L2869,220 L2870,220 L2871,221 L2872,221 L2873,221 L2874,223 L2875,220 L2876,218 L2877,220 L2878,220 L2879,220 L2880,218 L2881,218 L2882,220 L2883,220 L2884,218 L2885,220 L2886,220 L2887,220 L2888,218 L2889,221 L2890,221 L2891,220 L2892,220 L2893,221 L2894,221 L2895,221 L2896,220 L2897,221 L2898,221 L2899,221 L2900,221 L2901,221 L2902,221 L2903,220 L2904,220 L2905,223 L2906,221 L2907,220 L2908,220 L2909,220 L2910,220 L2911,220 L2912,218 L2913,220 L2914,220 L2915,220 L2916,220 L2917,220 L2918,220 L2919,218 L2920,220 L2921,221 L2922,221 L2923,221 L2924,221 L2925,221 L2926,221 L2927,220 L2928,221 L2929,221 L2930,221 L2931,220 L2932,221 L2933,223 L2934,220 L2935,220 L2936,221 L2937,221 L2938,220 L2939,220 L2940,220 L2941,220 L2942,220 L2943,220 L2944,220 L2945,220 L2946,220 L2947,220 L2948,220 L2949,221 L2950,220 L2951,220 L2952,221 L2953,221 L2954,221 L2955,220 L2956,221 L2957,221 L2958,221 L2959,220 L2960,221 L2961,221 L2962,220 L2963,220 L2964,221 L2965,223 L2966,220 L2967,220 L2968,221 L2969,220 L2970,220 L2971,220 L2972,220 L2973,218 L2974,218 L2975,220 L2976,221 L2977,220 L2978,218 L2979,218 L2980,220 L2981,220 L2982,220 L2983,220 L2984,221 L2985,221 L2986,221 L2987,221 L2988,221 L2989,221 L2990,220 L2991,221 L2992,221 L2993,221 L2994,220 L2995,221 L2996,221 L2997,221 L2998,221 L2999,220 L3000,220 L3001,220 L3002,220 L3003,220 L3004,220 L3005,220 L3006,218 L3007,220 L3008,220 L3009,220 L3010,218 L3011,220 L3012,220 L3013,220 L3014,220 L3015,221 L3016,221 L3017,221 L3018,220 L3019,223 L3020,223 L3021,220 L3022,220 L3023,221 L3024,221 L3025,221 L3026,220 L3027,221 L3028,221 L3029,221 L3030,221 L3031,220 L3032,220 L3033,218 L3034,218 L3035,220 L3036,220 L3037,218 L3038,218 L3039,220 L3040,220 L3041,220 L3042,220 L3043,220 L3044,220 L3045,220 L3046,223 L3047,221 L3048,220 L3049,220 L3050,221 L3051,223 L3052,221 L3053,220 L3054,220 L3055,221 L3056,221 L3057,221 L3058,221 L3059,221 L3060,221 L3061,220 L3062,220 L3063,220 L3064,218 L3065,218 L3066,220 L3067,220 L3068,220 L3069,218 L3070,220 L3071,220 L3072,218 L3073,220 L3074,220 L3075,218 L3076,220 L3077,221 L3078,221 L3079,223 L3080,220 L3081,221 L3082,221 L3083,221 L3084,220 L3085,221 L3086,221 L3087,221 L3088,220 L3089,221 L3090,223 L3091,221 L3092,220 L3093,220 L3094,220 L3095,220 L3096,220 L3097,218 L3098,220 L3099,220 L3100,220 L3101,220 L3102,220 L3103,220 L3104,218 L3105,220 L3106,220 L3107,220 L3108,220 L3109,221 L3110,223 L3111,220 L3112,220 L3113,221 L3114,221 L3115,220 L3116,221 L3117,221 L3118,221 L3119,220 L3120,220 L3121,223 L3122,221 L3123,220 L3124,220 L3125,220 L3126,220 L3127,220 L3128,220 L3129,220 L3130,218 L3131,218 L3132,220 L3133,220 L3134,220 L3135,218 L3136,220 L3137,220 L3138,221 L3139,220 L3140,221 L3141,221 L3142,221 L3143,220 L3144,223 L3145,221 L3146,220 L3147,220 L3148,221 L3149,221 L3150,220 L3151,220 L3152,221 L3153,221 L3154,220 L3155,218 L3156,220 L3157,220 L3158,218 L3159,220 L3160,220 L3161,220 L3162,218 L3163,218 L3164,220 L3165,220 L3166,220 L3167,220 L3168,220 L3169,220 L3170,220 L3171,221 L3172,223 L3173,221 L3174,220 L3175,221 L3176,223 L3177,221 L3178,220 L3179,220 L3180,221 L3181,221 L3182,220 L3183,221 L3184,221 L3185,221 L3186,220 L3187,220 L3188,220 L3189,218 L3190,218 L3191,220 L3192,220 L3193,220 L3194,218 L3195,220 L3196,220 L3197,220 L3198,220 L3199,220 L3200,220 L3201,220 L3202,221 L3203,221 L3204,221 L3205,220 L3206,220 L3207,221 L3208,221 L3209,221 L3210,220 L3211,221 L3212,221 L3213,220 L3214,221 L3215,221 L3216,221 L3217,220 L3218,220 L3219,221 L3220,220 L3221,218 L3222,220 L3223,220 L3224,220 L3225,220 L3226,220 L3227,220 L3228,220 L3229,220 L3230,220 L3231,221 L3232,220 L3233,220 L3234,223 L3235,221 L3236,221 L3237,220 L3238,221 L3239,221 L3240,221 L3241,221 L3242,221 L3243,221 L3244,220 L3245,220 L3246,221 L3247,221 L3248,218 L3249,218 L3250,220 L3251,220 L3252,220 L3253,220 L3254,220 L3255,220 L3256,220 L3257,220 L3258,220 L3259,220 L3260,218 L3261,220 L3262,221 L3263,221 L3264,220 L3265,221 L3266,221 L3267,221 L3268,221 L3269,221 L3270,221 L3271,220 L3272,220 L3273,221 L3274,221 L3275,221 L3276,220 L3277,220 L3278,221 L3279,220 L3280,218 L3281,220 L3282,220 L3283,220 L3284,218 L3285,220 L3286,220 L3287,218 L3288,218 L3289,220 L3290,221 L3291,218 L3292,218 L3293,220 L3294,221 L3295,221 L3296,221 L3297,221 L3298,221 L3299,220 L3300,221 L3301,221 L3302,221 L3303,220 L3304,220 L3305,221 L3306,221 L3307,221 L3308,220 L3309,221 L3310,220 L3311,220 L3312,220 L3313,220 L3314,220 L3315,218 L3316,220 L3317,220 L3318,218 L3319,218 L3320,220 L3321,220 L3322,220 L3323,220 L3324,220 L3325,220 L3326,220 L3327,221 L3328,221 L3329,221 L3330,220 L3331,220 L3332,221 L3333,223 L3334,221 L3335,220 L3336,221 L3337,221 L3338,221 L3339,220 L3340,221 L3341,220 L3342,220 L3343,220 L3344,220 L3345,220 L3346,218 L3347,218 L3348,220 L3349,220 L3350,220 L3351,218 L3352,220 L3353,220 L3354,220 L3355,220 L3356,221 L3357,220 L3358,220 L3359,221 L3360,221 L3361,221 L3362,220 L3363,220 L3364,223 L3365,221 L3366,220 L3367,220 L3368,221 L3369,221 L3370,221 L3371,221 L3372,221 L3373,220 L3374,218 L3375,220 L3376,220 L3377,220 L3378,218 L3379,220 L3380,220 L3381,220 L3382,220 L3383,220 L3384,220 L3385,220 L3386,220 L3387,221 L3388,221 L3389,221 L3390,220 L3391,220 L3392,221 L3393,221 L3394,220 L3395,221 L3396,221 L3397,221 L3398,221 L3399,221 L3400,220 L3401,220 L3402,221 L3403,220 L3404,220 L3405,218 L3406,218 L3407,220 L3408,220 L3409,220 L3410,220 L3411,220 L3412,220 L3413,220 L3414,220 L3415,220 L3416,220 L3417,218 L3418,220 L3419,221 L3420,221 L3421,220 L3422,221 L3423,221 L3424,221 L3425,221 L3426,221 L3427,221 L3428,221 L3429,220 L3430,221 L3431,223 L3432,220 L3433,220 L3434,220 L3435,220 L3436,220 L3437,218 L3438,218 L3439,220 L3440,220 L3441,218 L3442,220 L3443,220 L3444,218 L3445,218 L3446,220 L3447,220 L3448,220 L3449,220 L3450,221 L3451,223 L3452,221 L3453,220 L3454,221 L3455,221 L3456,220 L3457,221 L3458,223 L3459,221 L3460,220 L3461,220 L3462,221 L3463,221 L3464,221 L3465,220 L3466,220 L3467,220 L3468,218 L3469,220 L3470,220 L3471,220 L3472,218 L3473,220 L3474,221 L3475,218 L3476,218 L3477,220 L3478,220 L3479,220 L3480,220 L3481,220 L3482,221 L3483,221 L3484,220 L3485,221 L3486,221 L3487,220 L3488,220 L3489,221 L3490,223 L3491,221 L3492,220 L3493,221 L3494,223 L3495,221 L3496,220 L3497,220 L3498,220 L3499,218 L3500,218 L3501,220 L3502,220 L3503,218 L3504,218 L3505,220 L3506,220 L3507,220 L3508,218 L3509,218 L3510,220 L3511,220 L3512,221 L3513,221 L3514,221 L3515,220 L3516,221 L3517,223 L3518,221 L3519,220 L3520,221 L3521,223 L3522,221 L3523,220 L3524,221 L3525,221 L3526,221 L3527,220 L3528,220 L3529,220 L3530,220 L3531,218 L3532,220 L3533,221 L3534,220 L3535,218 L3536,220 L3537,220 L3538,220 L3539,220 L3540,220 L3541,220 L3542,220 L3543,220 L3544,221 L3545,221 L3546,220 L3547,220 L3548,221 L3549,221 L3550,221 L3551,221 L3552,223 L3553,221 L3554,220 L3555,221 L3556,223 L3557,223 L3558,220 L3559,220 L3560,220 L3561,220 L3562,218 L3563,218 L3564,220 L3565,220 L3566,218 L3567,220 L3568,220 L3569,220 L3570,218 L3571,220 L3572,220 L3573,220 L3574,220 L3575,221 L3576,221 L3577,221 L3578,220 L3579,221 L3580,221 L3581,220 L3582,220 L3583,221 L3584,221 L3585,220 L3586,220 L3587,223 L3588,223 L3589,220 L3590,218 L3591,220 L3592,220 L3593,220 L3594,220 L3595,220 L3596,218 L3597,218 L3598,220 L3599,220 L3600,220 L3601,218 L3602,220 L3603,220 L3604,220 L3605,220 L3606,220 L3607,221 L3608,221 L3609,220 L3610,221 L3611,221 L3612,220 L3613,220 L3614,221 L3615,221 L3616,220 L3617,220 L3618,221 L3619,223 L3620,221 L3621,218 L3622,220 L3623,220 L3624,220 L3625,218 L3626,221 L3627,220 L3628,220 L3629,218 L3630,220 L3631,221 L3632,220 L3633,218 L3634,220 L3635,221 L3636,220 L3637,220 L3638,221 L3639,221 L3640,220 L3641,221 L3642,223 L3643,221 L3644,220 L3645,221 L3646,221 L3647,221 L3648,221 L3649,220 L3650,223 L3651,221 L3652,220 L3653,220 L3654,220 L3655,220 L3656,218 L3657,220 L3658,221 L3659,220 L3660,218 L3661,220 L3662,220 L3663,220 L3664,220 L3665,220 L3666,220 L3667,221 L3668,220 L3669,223 L3670,221 L3671,220 L3672,220 L3673,221 L3674,223 L3675,220 L3676,220 L3677,220 L3678,221 L3679,221 L3680,221 L3681,221 L3682,221 L3683,218 L3684,220 L3685,221 L3686,220 L3687,218 L3688,220 L3689,220 L3690,220 L3691,218 L3692,218 L3693,220 L3694,220 L3695,218 L3696,220 L3697,221 L3698,220 L3699,220 L3700,221 L3701,223 L3702,221 L3703,220 L3704,221 L3705,221 L3706,221 L3707,220 L3708,220 L3709,220 L3710,221 L3711,220 L3712,221 L3713,221 L3714,218 L3715,218 L3716,220 L3717,220 L3718,220 L3719,218 L3720,220 L3721,220 L3722,218 L3723,220 L3724,220 L3725,220 L3726,218 L3727,220 L3728,221 L3729,220 L3730,220 L3731,221 L3732,221 L3733,221 L3734,221 L3735,221 L3736,221 L3737,221 L3738,220 L3739,223 L3740,221 L3741,221 L3742,220 L3743,221 L3744,221 L3745,220 L3746,218 L3747,220 L3748,220 L3749,220 L3750,220 L3751,220 L3752,220 L3753,218 L3754,218 L3755,220 L3756,220 L3757,218 L3758,218 L3759,221 L3760,221 L3761,220 L3762,221 L3763,221 L3764,221 L3765,220 L3766,220 L3767,221 L3768,221 L3769,220 L3770,221 L3771,221 L3772,221 L3773,220 L3774,220 L3775,221 L3776,220 L3777,220 L3778,220 L3779,220 L3780,218 L3781,218 L3782,220 L3783,220 L3784,220 L3785,218 L3786,220 L3787,220 L3788,220 L3789,220 L3790,220 L3791,220 L3792,220 L3793,221 L3794,223 L3795,221 L3796,221 L3797,220 L3798,221 L3799,223 L3800,221 L3801,220 L3802,221 L3803,221 L3804,220 L3805,221 L3806,221 L3807,220 L3808,218 L3809,220 L3810,220 L3811,218 L3812,218 L3813,218 L3814,220 L3815,220 L3816,218 L3817,218 L3818,220 L3819,220 L3820,220 L3821,220 L3822,221 L3823,220 L3824,220 L3825,221 L3826,223 L3827,220 L3828,220 L3829,221 L3830,221 L3831,221 L3832,221 L3833,221 L3834,221 L3835,220 L3836,221 L3837,223 L3838,220 L3839,220 L3840,218 L3841,220 L3842,220 L3843,220 L3844,218 L3845,220 L3846,220 L3847,220 L3848,218 L3849,220 L3850,220 L3851,218 L3852,220 L3853,221 L3854,221 L3855,220 L3856,220 L3857,221 L3858,223 L3859,221 L3860,220 L3861,221 L3862,221 L3863,221 L3864,221 L3865,221 L3866,221 L3867,220 L3868,221 L3869,221 L3870,220 L3871,218 L3872,220 L3873,220 L3874,220 L3875,218 L3876,220 L3877,220 L3878,220 L3879,218 L3880,220 L3881,220 L3882,220 L3883,220 L3884,221 L3885,221 L3886,221 L3887,220 L3888,221 L3889,221 L3890,221 L3891,220 L3892,221 L3893,220 L3894,220 L3895,220 L3896,223 L3897,221 L3898,220 L3899,220 L3900,220 L3901,220 L3902,220 L3903,218 L3904,220 L3905,220 L3906,220 L3907,220 L3908,220 L3909,218 L3910,218 L3911,220 L3912,220 L3913,220 L3914,218 L3915,220 L3916,221 L3917,221 L3918,220 L3919,220 L3920,221 L3921,221 L3922,220 L3923,221 L3924,223 L3925,221 L3926,220 L3927,221 L3928,221 L3929,221 L3930,221 L3931,220 L3932,220 L3933,220 L3934,220 L3935,220 L3936,220 L3937,220 L3938,218 L3939,220 L3940,221 L3941,220 L3942,218 L3943,220 L3944,220 L3945,220 L3946,220 L3947,221 L3948,221 L3949,220 L3950,220 L3951,223 L3952,221 L3953,220 L3954,220 L3955,221 L3956,223 L3957,220 L3958,220 L3959,221 L3960,221 L3961,223 L3962,220 L3963,220 L3964,220 L3965,218 L3966,220 L3967,220 L3968,220 L3969,218 L3970,218 L3971,220 L3972,220 L3973,218 L3974,220 L3975,220 L3976,220 L3977,220 L3978,221 L3979,221 L3980,220 L3981,220 L3982,221 L3983,221 L3984,220 L3985,220 L3986,221 L3987,221 L3988,221 L3989,220 L3990,221 L3991,221 L3992,220 L3993,220 L3994,220 L3995,220 L3996,218 L3997,218 L3998,220 L3999,220 L4000,220 L4001,218 L4002,220 L4003,220 L4004,218 L4005,220 L4006,220 L4007,220 L4008,220 L4009,221 L4010,223 L4011,223 L4012,220 L4013,220 L4014,221 L4015,221 L4016,220 L4017,221 L4018,221 L4019,221 L4020,220 L4021,221 L4022,221 L4023,221 L4024,220 L4025,220 L4026,220 L4027,220 L4028,218 L4029,218 L4030,220 L4031,220 L4032,220 L4033,220 L4034,220 L4035,220 L4036,218 L4037,220 L4038,220 L4039,220 L4040,220 L4041,221 L4042,223 L4043,220 L4044,220 L4045,221 L4046,221 L4047,220 L4048,221 L4049,221 L4050,221 L4051,220 L4052,221 L4053,221 L4054,221 L4055,220 L4056,218 L4057,220 L4058,220 L4059,218 L4060,220 L4061,218 L4062,220 L4063,218 L4064,220 L4065,220 L4066,220 L4067,218 L4068,220 L4069,220 L4070,221 L4071,220 L4072,220 L4073,223 L4074,221 L4075,221 L4076,221 L4077,221 L4078,220 L4079,220 L4080,221 L4081,221 L4082,220 L4083,220 L4084,221 L4085,221 L4086,220 L4087,218 L4088,220 L4089,220 L4090,218 L4091,220 L4092,220 L4093,218 L4094,218 L4095,218 "/>
<text font-family="Arial" x="638" y="230" fill="yellow" font-size="20" text-anchor="end" id="CH1s">CH1: 1V/div (1 x) 50us/div</text>
<text font-family="Arial" x="2" y="230" fill="yellow" font-size="20" text-anchor="start" id="CH1"> </text>
<text font-family="Arial" x="638" y="250" fill="cyan" font-size="20" text-anchor="end" id="CH2s">CH2: 50mV/div (10 x) 50us/div</text>
<text font-family="Arial" x="2" y="250" fill="cyan" font-size="20" text-anchor="start" id="CH2"> </text>
<script type="text/ecmascript"><![CDATA[
function init(evt) { if ( window.svgDocument == null ) svgDocument = evt.target.ownerDocument; }
function fmtT(val, div) {
 if (div > 100) return Math.floor(val*div/32) + " ms";
if (div > 0.025) return Math.floor(val*div*1000/32)/1000 + " ms";
 return Math.floor(val*div*1000*1000/32)/1000 + " us";
}
function fmtU(val, div, shift) { return Math.floor((shift-val)*div/32) + " mV"; }
function msMove (evt)
{
	var x = evt.clientX;
	var y = evt.clientY;
	if (x < 0 || y < 0 || x >= 4096 || y >= 256)
		return;
	var hscroll = (document.all ? document.scrollLeft : window.pageXOffset);
	var width = window.innerWidth;

	svgDocument.getElementById("CH1").setAttribute("x", hscroll+20);
	svgDocument.getElementById("CH2").setAttribute("x", hscroll+20);
	svgDocument.getElementById("CH1s").setAttribute("x", hscroll+width-20);
	svgDocument.getElementById("CH2s").setAttribute("x", hscroll+width-20);

	svgDocument.getElementById("CH1").firstChild.data = "CH1: "+fmtU(y, 1000.000, 157) + " " + fmtT(x, 0.049);
	svgDocument.getElementById("CH2").firstChild.data = "CH2: "+fmtU(y, 500.000, 223) + " " + fmtT(x, 0.049);
}
]]></script>
</svg>
