<?xml version="1.0" encoding="iso-8859-1"?>
<!DOCTYPE svg PUBLIC "-//W3C//DTD SVG 1.0//EN" "http://www.w3.org/TR/2001/REC-SVG-20010904/DTD/svg10.dtd">
<svg width="4096" height="256" xmlns="http://www.w3.org/2000/svg" xmlns:xlink="http://www.w3.org/1999/xlink" onload="init(evt)" onmousemove="msMove(evt)">
<path stroke="none" fill="black" d="M0,0 H4096 V256 H0 V0"/>
<path stroke="none" fill="#000040" d="M30,0 H330 V256 H30 V0"/>
<path stroke="none" fill="#400000" d="M0,0 H30 V256 H0 V0"/>
<path stroke="#404040" d="M0,0 H4096"/>
<path stroke="#404040" d="M0,32 H4096"/>
<path stroke="#404040" d="M0,64 H4096"/>
<path stroke="#404040" d="M0,96 H4096"/>
<path stroke="#404040" d="M0,128 H4096"/>
<path stroke="#404040" d="M0,160 H4096"/>
<path stroke="#404040" d="M0,192 H4096"/>
<path stroke="#404040" d="M0,224 H4096"/>
<path stroke="#404040" d="M0,256 H4096"/>
<path stroke="#404040" d="M0,0 V256"/>
<path stroke="#404040" d="M32,0 V256"/>
<path stroke="#404040" d="M64,0 V256"/>
<path stroke="#404040" d="M96,0 V256"/>
<path stroke="#404040" d="M128,0 V256"/>
<path stroke="#404040" d="M160,0 V256"/>
<path stroke="#404040" d="M192,0 V256"/>
<path stroke="#404040" d="M224,0 V256"/>
<path stroke="#404040" d="M256,0 V256"/>
<path stroke="#404040" d="M288,0 V256"/>
<path stroke="#404040" d="M320,0 V256"/>
<path stroke="#404040" d="M352,0 V256"/>
<path stroke="#404040" d="M384,0 V256"/>
<path stroke="#404040" d="M416,0 V256"/>
<path stroke="#404040" d="M448,0 V256"/>
<path stroke="#404040" d="M480,0 V256"/>
<path stroke="#404040" d="M512,0 V256"/>
<path stroke="#404040" d="M544,0 V256"/>
<path stroke="#404040" d="M576,0 V256"/>
<path stroke="#404040" d="M608,0 V256"/>
<path stroke="#404040" d="M640,0 V256"/>
<path stroke="#404040" d="M672,0 V256"/>
<path stroke="#404040" d="M704,0 V256"/>
<path stroke="#404040" d="M736,0 V256"/>
<path stroke="#404040" d="M768,0 V256"/>
<path stroke="#404040" d="M800,0 V256"/>
<path stroke="#404040" d="M832,0 V256"/>
<path stroke="#404040" d="M864,0 V256"/>
<path stroke="#404040" d="M896,0 V256"/>
<path stroke="#404040" d="M928,0 V256"/>
<path stroke="#404040" d="M960,0 V256"/>
<path stroke="#404040" d="M992,0 V256"/>
<path stroke="#404040" d="M1024,0 V256"/>
<path stroke="#404040" d="M1056,0 V256"/>
<path stroke="#404040" d="M1088,0 V256"/>
<path stroke="#404040" d="M1120,0 V256"/>
<path stroke="#404040" d="M1152,0 V256"/>
<path stroke="#404040" d="M1184,0 V256"/>
<path stroke="#404040" d="M1216,0 V256"/>
<path stroke="#404040" d="M1248,0 V256"/>
<path stroke="#404040" d="M1280,0 V256"/>
<path stroke="#404040" d="M1312,0 V256"/>
<path stroke="#404040" d="M1344,0 V256"/>
<path stroke="#404040" d="M1376,0 V256"/>
<path stroke="#404040" d="M1408,0 V256"/>
<path stroke="#404040" d="M1440,0 V256"/>
<path stroke="#404040" d="M1472,0 V256"/>
<path stroke="#404040" d="M1504,0 V256"/>
<path stroke="#404040" d="M1536,0 V256"/>
<path stroke="#404040" d="M1568,0 V256"/>
<path stroke="#404040" d="M1600,0 V256"/>
<path stroke="#404040" d="M1632,0 V256"/>
<path stroke="#404040" d="M1664,0 V256"/>
<path stroke="#404040" d="M1696,0 V256"/>
<path stroke="#404040" d="M1728,0 V256"/>
<path stroke="#404040" d="M1760,0 V256"/>
<path stroke="#404040" d="M1792,0 V256"/>
<path stroke="#404040" d="M1824,0 V256"/>
<path stroke="#404040" d="M1856,0 V256"/>
<path stroke="#404040" d="M1888,0 V256"/>
<path stroke="#404040" d="M1920,0 V256"/>
<path stroke="#404040" d="M1952,0 V256"/>
<path stroke="#404040" d="M1984,0 V256"/>
<path stroke="#404040" d="M2016,0 V256"/>
<path stroke="#404040" d="M2048,0 V256"/>
<path stroke="#404040" d="M2080,0 V256"/>
<path stroke="#404040" d="M2112,0 V256"/>
<path stroke="#404040" d="M2144,0 V256"/>
<path stroke="#404040" d="M2176,0 V256"/>
<path stroke="#404040" d="M2208,0 V256"/>
<path stroke="#404040" d="M2240,0 V256"/>
<path stroke="#404040" d="M2272,0 V256"/>
<path stroke="#404040" d="M2304,0 V256"/>
<path stroke="#404040" d="M2336,0 V256"/>
<path stroke="#404040" d="M2368,0 V256"/>
<path stroke="#404040" d="M2400,0 V256"/>
<path stroke="#404040" d="M2432,0 V256"/>
<path stroke="#404040" d="M2464,0 V256"/>
<path stroke="#404040" d="M2496,0 V256"/>
<path stroke="#404040" d="M2528,0 V256"/>
<path stroke="#404040" d="M2560,0 V256"/>
<path stroke="#404040" d="M2592,0 V256"/>
<path stroke="#404040" d="M2624,0 V256"/>
<path stroke="#404040" d="M2656,0 V256"/>
<path stroke="#404040" d="M2688,0 V256"/>
<path stroke="#404040" d="M2720,0 V256"/>
<path stroke="#404040" d="M2752,0 V256"/>
<path stroke="#404040" d="M2784,0 V256"/>
<path stroke="#404040" d="M2816,0 V256"/>
<path stroke="#404040" d="M2848,0 V256"/>
<path stroke="#404040" d="M2880,0 V256"/>
<path stroke="#404040" d="M2912,0 V256"/>
<path stroke="#404040" d="M2944,0 V256"/>
<path stroke="#404040" d="M2976,0 V256"/>
<path stroke="#404040" d="M3008,0 V256"/>
<path stroke="#404040" d="M3040,0 V256"/>
<path stroke="#404040" d="M3072,0 V256"/>
<path stroke="#404040" d="M3104,0 V256"/>
<path stroke="#404040" d="M3136,0 V256"/>
<path stroke="#404040" d="M3168,0 V256"/>
<path stroke="#404040" d="M3200,0 V256"/>
<path stroke="#404040" d="M3232,0 V256"/>
<path stroke="#404040" d="M3264,0 V256"/>
<path stroke="#404040" d="M3296,0 V256"/>
<path stroke="#404040" d="M3328,0 V256"/>
<path stroke="#404040" d="M3360,0 V256"/>
<path stroke="#404040" d="M3392,0 V256"/>
<path stroke="#404040" d="M3424,0 V256"/>
<path stroke="#404040" d="M3456,0 V256"/>
<path stroke="#404040" d="M3488,0 V256"/>
<path stroke="#404040" d="M3520,0 V256"/>
<path stroke="#404040" d="M3552,0 V256"/>
<path stroke="#404040" d="M3584,0 V256"/>
<path stroke="#404040" d="M3616,0 V256"/>
<path stroke="#404040" d="M3648,0 V256"/>
<path stroke="#404040" d="M3680,0 V256"/>
<path stroke="#404040" d="M3712,0 V256"/>
<path stroke="#404040" d="M3744,0 V256"/>
<path stroke="#404040" d="M3776,0 V256"/>
<path stroke="#404040" d="M3808,0 V256"/>
<path stroke="#404040" d="M3840,0 V256"/>
<path stroke="#404040" d="M3872,0 V256"/>
<path stroke="#404040" d="M3904,0 V256"/>
<path stroke="#404040" d="M3936,0 V256"/>
<path stroke="#404040" d="M3968,0 V256"/>
<path stroke="#404040" d="M4000,0 V256"/>
<path stroke="#404040" d="M4032,0 V256"/>
<path stroke="#404040" d="M4064,0 V256"/>
<path stroke="yellow" fill="none" stroke-width="1" d="M0,89 L1,89 L2,89 L3,89 L4,88 L5,88 L6,89 L7,89 L8,88 L9,89 L10,89 L11,89 L12,89 L13,88 L14,88 L15,88 L16,89 L17,88 L18,88 L19,88 L20,89 L21,88 L22,89 L23,89 L24,88 L25,88 L26,88 L27,88 L28,88 L29,88 L30,89 L31,88 L32,89 L33,89 L34,87 L35,88 L36,88 L37,88 L38,88 L39,89 L40,88 L41,88 L42,89 L43,89 L44,88 L45,88 L46,88 L47,88 L48,88 L49,89 L50,89 L51,88 L52,89 L53,89 L54,89 L55,89 L56,89 L57,88 L58,88 L59,88 L60,88 L61,88 L62,88 L63,88 L64,88 L65,88 L66,89 L67,88 L68,88 L69,89 L70,88 L71,88 L72,89 L73,89 L74,89 L75,88 L76,88 L77,88 L78,88 L79,88 L80,88 L81,88 L82,88 L83,89 L84,176 L85,161 L86,161 L87,160 L88,161 L89,160 L90,160 L91,160 L92,161 L93,160 L94,161 L95,160 L96,161 L97,161 L98,161 L99,161 L100,161 L101,161 L102,162 L103,161 L104,161 L105,161 L106,161 L107,161 L108,161 L109,162 L110,161 L111,161 L112,163 L113,161 L114,161 L115,162 L116,161 L117,161 L118,162 L119,162 L120,162 L121,161 L122,162 L123,161 L124,161 L125,162 L126,161 L127,161 L128,162 L129,162 L130,162 L131,162 L132,162 L133,162 L134,161 L135,163 L136,161 L137,161 L138,161 L139,162 L140,162 L141,161 L142,161 L143,162 L144,162 L145,162 L146,162 L147,162 L148,162 L149,134 L150,87 L151,88 L152,88 L153,88 L154,88 L155,89 L156,88 L157,88 L158,88 L159,88 L160,88 L161,88 L162,97 L163,163 L164,163 L165,163 L166,163 L167,162 L168,162 L169,162 L170,161 L171,162 L172,162 L173,162 L174,162 L175,162 L176,162 L177,162 L178,162 L179,161 L180,161 L181,162 L182,162 L183,162 L184,162 L185,162 L186,162 L187,162 L188,162 L189,162 L190,161 L191,162 L192,162 L193,162 L194,162 L195,162 L196,163 L197,162 L198,163 L199,161 L200,161 L201,154 L202,87 L203,88 L204,88 L205,88 L206,88 L207,88 L208,89 L209,89 L210,89 L211,89 L212,89 L213,88 L214,89 L215,163 L216,162 L217,162 L218,162 L219,162 L220,162 L221,162 L222,163 L223,162 L224,162 L225,162 L226,162 L227,162 L228,88 L229,88 L230,88 L231,89 L232,88 L233,88 L234,88 L235,88 L236,88 L237,89 L238,89 L239,88 L240,88 L241,89 L242,89 L243,89 L244,89 L245,89 L246,88 L247,88 L248,88 L249,88 L250,88 L251,89 L252,89 L253,89 L254,164 L255,163 L256,162 L257,164 L258,163 L259,162 L260,162 L261,162 L262,162 L263,162 L264,162 L265,162 L266,162 L267,87 L268,88 L269,88 L270,88 L271,88 L272,89 L273,88 L274,89 L275,89 L276,89 L277,89 L278,89 L279,88 L280,88 L281,88 L282,88 L283,88 L284,89 L285,88 L286,89 L287,89 L288,89 L289,89 L290,88 L291,89 L292,89 L293,88 L294,88 L295,88 L296,88 L297,88 L298,89 L299,88 L300,88 L301,88 L302,88 L303,88 L304,89 L305,89 L306,88 L307,89 L308,89 L309,89 L310,88 L311,88 L312,88 L313,88 L314,88 L315,87 L316,88 L317,89 L318,89 L319,164 L320,163 L321,163 L322,162 L323,162 L324,162 L325,161 L326,161 L327,162 L328,162 L329,162 L330,162 L331,162 L332,87 L333,88 L334,88 L335,88 L336,88 L337,89 L338,89 L339,88 L340,88 L341,88 L342,88 L343,88 L344,88 L345,163 L346,162 L347,162 L348,162 L349,162 L350,162 L351,163 L352,162 L353,162 L354,163 L355,162 L356,161 L357,162 L358,162 L359,161 L360,162 L361,162 L362,161 L363,162 L364,163 L365,162 L366,162 L367,162 L368,162 L369,162 L370,162 L371,162 L372,161 L373,162 L374,161 L375,162 L376,161 L377,162 L378,162 L379,162 L380,162 L381,162 L382,162 L383,162 L384,162 L385,162 L386,162 L387,162 L388,162 L389,161 L390,161 L391,162 L392,161 L393,164 L394,162 L395,162 L396,162 L397,163 L398,162 L399,162 L400,162 L401,161 L402,161 L403,162 L404,162 L405,161 L406,161 L407,162 L408,162 L409,161 L410,87 L411,88 L412,88 L413,88 L414,89 L415,88 L416,88 L417,88 L418,89 L419,88 L420,88 L421,88 L422,88 L423,164 L424,163 L425,162 L426,162 L427,163 L428,162 L429,162 L430,163 L431,162 L432,161 L433,162 L434,162 L435,161 L436,161 L437,162 L438,162 L439,162 L440,162 L441,162 L442,161 L443,162 L444,162 L445,162 L446,162 L447,162 L448,161 L449,162 L450,162 L451,162 L452,161 L453,162 L454,162 L455,161 L456,161 L457,162 L458,162 L459,162 L460,161 L461,162 L462,87 L463,89 L464,88 L465,88 L466,88 L467,88 L468,88 L469,88 L470,88 L471,88 L472,88 L473,89 L474,89 L475,164 L476,163 L477,163 L478,162 L479,162 L480,162 L481,161 L482,162 L483,162 L484,162 L485,161 L486,162 L487,162 L488,162 L489,162 L490,162 L491,162 L492,162 L493,162 L494,162 L495,162 L496,162 L497,161 L498,161 L499,162 L500,162 L501,162 L502,162 L503,163 L504,162 L505,162 L506,163 L507,163 L508,162 L509,162 L510,162 L511,162 L512,161 L513,162 L514,161 L515,162 L516,162 L517,162 L518,162 L519,162 L520,162 L521,162 L522,162 L523,162 L524,162 L525,161 L526,162 L527,162 L528,161 L529,162 L530,162 L531,162 L532,162 L533,162 L534,162 L535,162 L536,162 L537,162 L538,163 L539,163 L540,86 L541,88 L542,89 L543,89 L544,88 L545,88 L546,88 L547,88 L548,88 L549,89 L550,88 L551,88 L552,89 L553,165 L554,163 L555,163 L556,163 L557,162 L558,162 L559,162 L560,162 L561,162 L562,162 L563,162 L564,162 L565,162 L566,162 L567,162 L568,162 L569,162 L570,162 L571,162 L572,163 L573,162 L574,162 L575,162 L576,162 L577,161 L578,162 L579,162 L580,162 L581,162 L582,162 L583,162 L584,162 L585,163 L586,163 L587,162 L588,161 L589,162 L590,162 L591,161 L592,86 L593,88 L594,88 L595,88 L596,88 L597,88 L598,89 L599,89 L600,89 L601,89 L602,89 L603,88 L604,89 L605,165 L606,163 L607,162 L608,162 L609,162 L610,162 L611,162 L612,162 L613,162 L614,161 L615,162 L616,162 L617,162 L618,162 L619,162 L620,162 L621,162 L622,162 L623,161 L624,161 L625,162 L626,161 L627,161 L628,162 L629,162 L630,162 L631,86 L632,88 L633,88 L634,88 L635,88 L636,88 L637,88 L638,88 L639,88 L640,88 L641,88 L642,88 L643,88 L644,164 L645,163 L646,163 L647,162 L648,163 L649,162 L650,162 L651,162 L652,163 L653,162 L654,161 L655,162 L656,162 L657,86 L658,87 L659,88 L660,88 L661,88 L662,89 L663,89 L664,88 L665,89 L666,89 L667,88 L668,88 L669,88 L670,163 L671,163 L672,162 L673,162 L674,164 L675,163 L676,162 L677,162 L678,162 L679,162 L680,162 L681,162 L682,162 L683,162 L684,162 L685,162 L686,162 L687,161 L688,162 L689,162 L690,161 L691,162 L692,162 L693,162 L694,162 L695,162 L696,162 L697,162 L698,162 L699,162 L700,161 L701,162 L702,162 L703,161 L704,162 L705,162 L706,162 L707,162 L708,163 L709,162 L710,162 L711,162 L712,162 L713,161 L714,162 L715,162 L716,161 L717,162 L718,162 L719,162 L720,162 L721,162 L722,85 L723,87 L724,88 L725,88 L726,88 L727,88 L728,89 L729,88 L730,88 L731,88 L732,88 L733,88 L734,88 L735,170 L736,163 L737,162 L738,163 L739,162 L740,162 L741,162 L742,163 L743,162 L744,162 L745,162 L746,161 L747,161 L748,162 L749,162 L750,161 L751,162 L752,162 L753,162 L754,162 L755,162 L756,162 L757,162 L758,162 L759,162 L760,162 L761,163 L762,162 L763,162 L764,162 L765,162 L766,161 L767,162 L768,162 L769,162 L770,161 L771,162 L772,162 L773,163 L774,163 L775,163 L776,162 L777,162 L778,161 L779,161 L780,161 L781,162 L782,162 L783,161 L784,162 L785,162 L786,162 L787,163 L788,162 L789,162 L790,162 L791,162 L792,162 L793,162 L794,162 L795,162 L796,162 L797,162 L798,162 L799,162 L800,162 L801,162 L802,162 L803,161 L804,163 L805,163 L806,162 L807,163 L808,162 L809,162 L810,162 L811,162 L812,161 L813,161 L814,162 L815,162 L816,161 L817,163 L818,163 L819,163 L820,162 L821,162 L822,162 L823,161 L824,162 L825,161 L826,162 L827,162 L828,162 L829,162 L830,162 L831,162 L832,162 L833,162 L834,162 L835,162 L836,162 L837,163 L838,162 L839,162 L840,162 L841,162 L842,162 L843,162 L844,162 L845,162 L846,161 L847,162 L848,162 L849,162 L850,163 L851,163 L852,70 L853,87 L854,88 L855,88 L856,88 L857,89 L858,88 L859,88 L860,89 L861,89 L862,89 L863,89 L864,89 L865,170 L866,163 L867,163 L868,162 L869,162 L870,162 L871,162 L872,162 L873,162 L874,162 L875,162 L876,161 L877,161 L878,162 L879,162 L880,163 L881,162 L882,162 L883,162 L884,163 L885,162 L886,162 L887,162 L888,162 L889,161 L890,162 L891,162 L892,162 L893,162 L894,162 L895,163 L896,162 L897,161 L898,162 L899,162 L900,162 L901,161 L902,161 L903,162 L904,162 L905,162 L906,162 L907,162 L908,162 L909,162 L910,162 L911,162 L912,162 L913,163 L914,162 L915,162 L916,162 L917,162 L918,161 L919,162 L920,162 L921,162 L922,161 L923,162 L924,162 L925,162 L926,162 L927,162 L928,162 L929,162 L930,163 L931,162 L932,162 L933,162 L934,161 L935,162 L936,161 L937,162 L938,162 L939,162 L940,162 L941,162 L942,162 L943,162 L944,162 L945,162 L946,162 L947,162 L948,162 L949,162 L950,162 L951,162 L952,162 L953,162 L954,162 L955,163 L956,162 L957,162 L958,162 L959,163 L960,162 L961,162 L962,162 L963,163 L964,162 L965,162 L966,162 L967,161 L968,161 L969,161 L970,162 L971,162 L972,162 L973,163 L974,163 L975,163 L976,162 L977,162 L978,162 L979,162 L980,162 L981,162 L982,161 L983,87 L984,88 L985,88 L986,88 L987,88 L988,88 L989,88 L990,89 L991,89 L992,88 L993,89 L994,90 L995,88 L996,164 L997,163 L998,162 L999,162 L1000,162 L1001,161 L1002,162 L1003,163 L1004,162 L1005,162 L1006,163 L1007,162 L1008,162 L1009,162 L1010,162 L1011,161 L1012,161 L1013,162 L1014,162 L1015,162 L1016,162 L1017,162 L1018,162 L1019,162 L1020,162 L1021,162 L1022,162 L1023,162 L1024,162 L1025,161 L1026,162 L1027,162 L1028,162 L1029,162 L1030,162 L1031,162 L1032,162 L1033,161 L1034,162 L1035,162 L1036,162 L1037,162 L1038,162 L1039,162 L1040,163 L1041,162 L1042,162 L1043,162 L1044,161 L1045,161 L1046,161 L1047,162 L1048,162 L1049,163 L1050,162 L1051,162 L1052,162 L1053,162 L1054,162 L1055,162 L1056,162 L1057,162 L1058,161 L1059,162 L1060,162 L1061,161 L1062,162 L1063,162 L1064,162 L1065,162 L1066,163 L1067,162 L1068,162 L1069,163 L1070,162 L1071,162 L1072,163 L1073,162 L1074,162 L1075,162 L1076,161 L1077,162 L1078,161 L1079,162 L1080,161 L1081,162 L1082,163 L1083,163 L1084,162 L1085,162 L1086,163 L1087,162 L1088,162 L1089,162 L1090,162 L1091,161 L1092,162 L1093,163 L1094,161 L1095,162 L1096,162 L1097,162 L1098,162 L1099,162 L1100,163 L1101,162 L1102,162 L1103,162 L1104,162 L1105,162 L1106,162 L1107,162 L1108,162 L1109,162 L1110,162 L1111,162 L1112,162 L1113,87 L1114,88 L1115,89 L1116,89 L1117,88 L1118,88 L1119,89 L1120,88 L1121,88 L1122,89 L1123,88 L1124,88 L1125,88 L1126,164 L1127,163 L1128,163 L1129,163 L1130,162 L1131,162 L1132,162 L1133,162 L1134,162 L1135,162 L1136,162 L1137,162 L1138,162 L1139,87 L1140,88 L1141,88 L1142,88 L1143,88 L1144,88 L1145,89 L1146,89 L1147,88 L1148,89 L1149,89 L1150,89 L1151,88 L1152,164 L1153,163 L1154,162 L1155,162 L1156,162 L1157,162 L1158,161 L1159,162 L1160,162 L1161,162 L1162,162 L1163,162 L1164,162 L1165,87 L1166,88 L1167,88 L1168,88 L1169,88 L1170,88 L1171,88 L1172,88 L1173,88 L1174,88 L1175,88 L1176,89 L1177,88 L1178,162 L1179,163 L1180,162 L1181,162 L1182,163 L1183,162 L1184,162 L1185,162 L1186,162 L1187,161 L1188,161 L1189,162 L1190,162 L1191,87 L1192,88 L1193,89 L1194,88 L1195,89 L1196,89 L1197,88 L1198,88 L1199,88 L1200,88 L1201,88 L1202,88 L1203,88 L1204,163 L1205,163 L1206,163 L1207,162 L1208,163 L1209,162 L1210,162 L1211,162 L1212,162 L1213,162 L1214,161 L1215,162 L1216,162 L1217,86 L1218,88 L1219,89 L1220,88 L1221,88 L1222,88 L1223,88 L1224,89 L1225,88 L1226,88 L1227,88 L1228,89 L1229,89 L1230,163 L1231,163 L1232,162 L1233,162 L1234,162 L1235,162 L1236,164 L1237,162 L1238,162 L1239,162 L1240,162 L1241,162 L1242,162 L1243,86 L1244,88 L1245,88 L1246,88 L1247,88 L1248,89 L1249,88 L1250,88 L1251,88 L1252,89 L1253,88 L1254,88 L1255,89 L1256,166 L1257,163 L1258,163 L1259,163 L1260,163 L1261,162 L1262,162 L1263,161 L1264,161 L1265,162 L1266,161 L1267,161 L1268,162 L1269,86 L1270,88 L1271,89 L1272,89 L1273,88 L1274,88 L1275,89 L1276,88 L1277,88 L1278,88 L1279,88 L1280,88 L1281,88 L1282,165 L1283,163 L1284,162 L1285,162 L1286,162 L1287,162 L1288,162 L1289,162 L1290,162 L1291,162 L1292,162 L1293,162 L1294,162 L1295,86 L1296,87 L1297,88 L1298,88 L1299,88 L1300,88 L1301,89 L1302,89 L1303,88 L1304,89 L1305,88 L1306,88 L1307,88 L1308,165 L1309,162 L1310,161 L1311,162 L1312,162 L1313,161 L1314,161 L1315,162 L1316,162 L1317,162 L1318,163 L1319,162 L1320,162 L1321,86 L1322,87 L1323,88 L1324,88 L1325,88 L1326,88 L1327,88 L1328,89 L1329,89 L1330,89 L1331,89 L1332,88 L1333,88 L1334,165 L1335,163 L1336,162 L1337,163 L1338,163 L1339,162 L1340,161 L1341,162 L1342,161 L1343,161 L1344,162 L1345,162 L1346,162 L1347,162 L1348,163 L1349,162 L1350,162 L1351,162 L1352,163 L1353,161 L1354,163 L1355,161 L1356,161 L1357,162 L1358,162 L1359,161 L1360,162 L1361,162 L1362,162 L1363,162 L1364,162 L1365,162 L1366,161 L1367,162 L1368,162 L1369,162 L1370,162 L1371,162 L1372,162 L1373,85 L1374,88 L1375,88 L1376,88 L1377,88 L1378,88 L1379,88 L1380,89 L1381,89 L1382,89 L1383,89 L1384,89 L1385,89 L1386,164 L1387,163 L1388,162 L1389,162 L1390,162 L1391,162 L1392,162 L1393,162 L1394,163 L1395,162 L1396,162 L1397,162 L1398,162 L1399,161 L1400,162 L1401,162 L1402,162 L1403,162 L1404,162 L1405,162 L1406,161 L1407,162 L1408,162 L1409,162 L1410,162 L1411,162 L1412,87 L1413,88 L1414,89 L1415,88 L1416,88 L1417,89 L1418,88 L1419,88 L1420,88 L1421,88 L1422,88 L1423,89 L1424,89 L1425,88 L1426,89 L1427,89 L1428,89 L1429,88 L1430,89 L1431,89 L1432,88 L1433,88 L1434,88 L1435,88 L1436,88 L1437,89 L1438,169 L1439,163 L1440,163 L1441,163 L1442,162 L1443,163 L1444,163 L1445,162 L1446,162 L1447,162 L1448,162 L1449,162 L1450,162 L1451,162 L1452,162 L1453,162 L1454,162 L1455,162 L1456,162 L1457,162 L1458,162 L1459,161 L1460,162 L1461,162 L1462,162 L1463,162 L1464,162 L1465,161 L1466,161 L1467,162 L1468,162 L1469,162 L1470,162 L1471,162 L1472,162 L1473,163 L1474,162 L1475,162 L1476,162 L1477,162 L1478,162 L1479,162 L1480,162 L1481,162 L1482,161 L1483,162 L1484,162 L1485,162 L1486,162 L1487,162 L1488,162 L1489,162 L1490,162 L1491,162 L1492,162 L1493,162 L1494,162 L1495,162 L1496,162 L1497,162 L1498,162 L1499,161 L1500,162 L1501,162 L1502,162 L1503,69 L1504,88 L1505,88 L1506,89 L1507,89 L1508,88 L1509,88 L1510,88 L1511,88 L1512,88 L1513,89 L1514,88 L1515,88 L1516,183 L1517,164 L1518,163 L1519,163 L1520,163 L1521,162 L1522,162 L1523,162 L1524,162 L1525,162 L1526,162 L1527,162 L1528,161 L1529,161 L1530,162 L1531,161 L1532,161 L1533,162 L1534,162 L1535,162 L1536,163 L1537,164 L1538,162 L1539,163 L1540,163 L1541,162 L1542,161 L1543,162 L1544,161 L1545,161 L1546,162 L1547,162 L1548,162 L1549,162 L1550,162 L1551,162 L1552,163 L1553,162 L1554,161 L1555,162 L1556,162 L1557,162 L1558,162 L1559,162 L1560,162 L1561,161 L1562,162 L1563,162 L1564,162 L1565,162 L1566,162 L1567,162 L1568,162 L1569,162 L1570,163 L1571,162 L1572,162 L1573,162 L1574,162 L1575,162 L1576,162 L1577,162 L1578,162 L1579,162 L1580,162 L1581,162 L1582,162 L1583,163 L1584,162 L1585,162 L1586,162 L1587,162 L1588,161 L1589,162 L1590,162 L1591,161 L1592,162 L1593,162 L1594,161 L1595,160 L1596,162 L1597,162 L1598,162 L1599,162 L1600,163 L1601,162 L1602,163 L1603,162 L1604,162 L1605,162 L1606,162 L1607,162 L1608,161 L1609,162 L1610,162 L1611,161 L1612,162 L1613,162 L1614,162 L1615,163 L1616,163 L1617,162 L1618,162 L1619,162 L1620,162 L1621,161 L1622,162 L1623,162 L1624,161 L1625,163 L1626,162 L1627,162 L1628,163 L1629,162 L1630,162 L1631,162 L1632,163 L1633,132 L1634,87 L1635,88 L1636,88 L1637,88 L1638,88 L1639,89 L1640,88 L1641,88 L1642,88 L1643,88 L1644,88 L1645,89 L1646,99 L1647,163 L1648,163 L1649,163 L1650,162 L1651,162 L1652,162 L1653,162 L1654,161 L1655,162 L1656,162 L1657,162 L1658,162 L1659,161 L1660,88 L1661,88 L1662,89 L1663,89 L1664,88 L1665,89 L1666,88 L1667,88 L1668,88 L1669,89 L1670,88 L1671,88 L1672,89 L1673,164 L1674,162 L1675,163 L1676,162 L1677,162 L1678,162 L1679,163 L1680,162 L1681,162 L1682,163 L1683,162 L1684,161 L1685,162 L1686,86 L1687,88 L1688,88 L1689,88 L1690,88 L1691,88 L1692,89 L1693,89 L1694,89 L1695,89 L1696,88 L1697,88 L1698,88 L1699,163 L1700,162 L1701,162 L1702,162 L1703,162 L1704,162 L1705,162 L1706,162 L1707,162 L1708,163 L1709,163 L1710,162 L1711,162 L1712,162 L1713,162 L1714,162 L1715,162 L1716,162 L1717,162 L1718,162 L1719,162 L1720,161 L1721,162 L1722,162 L1723,162 L1724,162 L1725,162 L1726,162 L1727,162 L1728,162 L1729,161 L1730,162 L1731,162 L1732,162 L1733,161 L1734,162 L1735,163 L1736,162 L1737,162 L1738,162 L1739,162 L1740,161 L1741,163 L1742,162 L1743,162 L1744,162 L1745,162 L1746,162 L1747,162 L1748,162 L1749,162 L1750,162 L1751,162 L1752,162 L1753,162 L1754,162 L1755,162 L1756,162 L1757,162 L1758,162 L1759,163 L1760,162 L1761,162 L1762,162 L1763,162 L1764,87 L1765,88 L1766,88 L1767,88 L1768,88 L1769,89 L1770,89 L1771,89 L1772,89 L1773,88 L1774,89 L1775,88 L1776,88 L1777,163 L1778,163 L1779,162 L1780,162 L1781,163 L1782,162 L1783,162 L1784,162 L1785,162 L1786,162 L1787,162 L1788,162 L1789,162 L1790,162 L1791,162 L1792,162 L1793,161 L1794,162 L1795,161 L1796,161 L1797,162 L1798,163 L1799,162 L1800,162 L1801,163 L1802,162 L1803,87 L1804,88 L1805,89 L1806,88 L1807,88 L1808,88 L1809,88 L1810,88 L1811,88 L1812,88 L1813,88 L1814,89 L1815,89 L1816,163 L1817,163 L1818,164 L1819,163 L1820,162 L1821,162 L1822,162 L1823,162 L1824,162 L1825,162 L1826,161 L1827,162 L1828,162 L1829,87 L1830,88 L1831,88 L1832,88 L1833,88 L1834,89 L1835,88 L1836,88 L1837,89 L1838,89 L1839,88 L1840,88 L1841,88 L1842,163 L1843,162 L1844,162 L1845,162 L1846,162 L1847,162 L1848,162 L1849,162 L1850,162 L1851,162 L1852,162 L1853,162 L1854,162 L1855,161 L1856,161 L1857,162 L1858,162 L1859,162 L1860,162 L1861,162 L1862,162 L1863,162 L1864,163 L1865,162 L1866,162 L1867,162 L1868,162 L1869,162 L1870,162 L1871,162 L1872,162 L1873,162 L1874,162 L1875,161 L1876,160 L1877,162 L1878,162 L1879,162 L1880,162 L1881,162 L1882,163 L1883,162 L1884,162 L1885,162 L1886,161 L1887,162 L1888,161 L1889,161 L1890,162 L1891,162 L1892,162 L1893,162 L1894,88 L1895,88 L1896,88 L1897,88 L1898,88 L1899,88 L1900,89 L1901,88 L1902,88 L1903,89 L1904,89 L1905,89 L1906,88 L1907,164 L1908,162 L1909,162 L1910,163 L1911,162 L1912,162 L1913,163 L1914,163 L1915,163 L1916,162 L1917,162 L1918,162 L1919,161 L1920,86 L1921,88 L1922,88 L1923,88 L1924,88 L1925,89 L1926,89 L1927,89 L1928,88 L1929,88 L1930,89 L1931,88 L1932,88 L1933,88 L1934,88 L1935,89 L1936,88 L1937,89 L1938,88 L1939,89 L1940,89 L1941,88 L1942,88 L1943,89 L1944,89 L1945,88 L1946,89 L1947,89 L1948,88 L1949,88 L1950,88 L1951,88 L1952,88 L1953,89 L1954,90 L1955,88 L1956,89 L1957,89 L1958,88 L1959,89 L1960,89 L1961,88 L1962,88 L1963,89 L1964,88 L1965,88 L1966,89 L1967,88 L1968,88 L1969,89 L1970,89 L1971,89 L1972,88 L1973,89 L1974,89 L1975,88 L1976,89 L1977,88 L1978,88 L1979,88 L1980,89 L1981,88 L1982,88 L1983,88 L1984,88 L1985,88 L1986,88 L1987,88 L1988,88 L1989,89 L1990,89 L1991,89 L1992,89 L1993,89 L1994,88 L1995,88 L1996,88 L1997,88 L1998,88 L1999,88 L2000,88 L2001,88 L2002,88 L2003,89 L2004,89 L2005,88 L2006,89 L2007,89 L2008,88 L2009,88 L2010,88 L2011,88 L2012,88 L2013,88 L2014,88 L2015,88 L2016,89 L2017,88 L2018,88 L2019,89 L2020,89 L2021,87 L2022,89 L2023,89 L2024,89 L2025,88 L2026,89 L2027,88 L2028,88 L2029,89 L2030,88 L2031,88 L2032,88 L2033,89 L2034,89 L2035,89 L2036,89 L2037,165 L2038,163 L2039,163 L2040,163 L2041,162 L2042,162 L2043,162 L2044,161 L2045,162 L2046,162 L2047,162 L2048,162 L2049,162 L2050,162 L2051,162 L2052,162 L2053,162 L2054,161 L2055,162 L2056,162 L2057,162 L2058,162 L2059,162 L2060,162 L2061,161 L2062,162 L2063,162 L2064,162 L2065,162 L2066,162 L2067,162 L2068,162 L2069,162 L2070,162 L2071,162 L2072,162 L2073,162 L2074,161 L2075,162 L2076,162 L2077,161 L2078,162 L2079,162 L2080,162 L2081,162 L2082,163 L2083,163 L2084,162 L2085,162 L2086,162 L2087,161 L2088,162 L2089,162 L2090,162 L2091,161 L2092,162 L2093,162 L2094,162 L2095,162 L2096,162 L2097,162 L2098,162 L2099,164 L2100,162 L2101,162 L2102,163 L2103,162 L2104,162 L2105,162 L2106,161 L2107,161 L2108,162 L2109,162 L2110,161 L2111,161 L2112,162 L2113,162 L2114,162 L2115,162 L2116,162 L2117,162 L2118,162 L2119,163 L2120,161 L2121,161 L2122,162 L2123,162 L2124,161 L2125,162 L2126,162 L2127,161 L2128,162 L2129,162 L2130,162 L2131,162 L2132,162 L2133,162 L2134,162 L2135,162 L2136,162 L2137,161 L2138,162 L2139,162 L2140,162 L2141,162 L2142,162 L2143,162 L2144,162 L2145,163 L2146,163 L2147,162 L2148,162 L2149,162 L2150,162 L2151,161 L2152,162 L2153,161 L2154,86 L2155,88 L2156,88 L2157,87 L2158,89 L2159,89 L2160,89 L2161,88 L2162,89 L2163,89 L2164,88 L2165,88 L2166,88 L2167,164 L2168,163 L2169,162 L2170,162 L2171,162 L2172,162 L2173,162 L2174,162 L2175,162 L2176,162 L2177,161 L2178,163 L2179,163 L2180,81 L2181,88 L2182,88 L2183,88 L2184,88 L2185,88 L2186,88 L2187,88 L2188,88 L2189,89 L2190,88 L2191,89 L2192,89 L2193,176 L2194,163 L2195,163 L2196,162 L2197,161 L2198,162 L2199,162 L2200,161 L2201,162 L2202,162 L2203,162 L2204,162 L2205,162 L2206,69 L2207,88 L2208,88 L2209,88 L2210,88 L2211,89 L2212,88 L2213,88 L2214,88 L2215,88 L2216,88 L2217,88 L2218,89 L2219,169 L2220,163 L2221,163 L2222,163 L2223,163 L2224,163 L2225,162 L2226,162 L2227,162 L2228,162 L2229,162 L2230,161 L2231,162 L2232,161 L2233,162 L2234,162 L2235,164 L2236,162 L2237,162 L2238,162 L2239,162 L2240,162 L2241,162 L2242,162 L2243,161 L2244,162 L2245,162 L2246,161 L2247,162 L2248,162 L2249,162 L2250,162 L2251,162 L2252,162 L2253,162 L2254,162 L2255,162 L2256,162 L2257,162 L2258,162 L2259,162 L2260,162 L2261,162 L2262,161 L2263,161 L2264,162 L2265,162 L2266,162 L2267,162 L2268,162 L2269,162 L2270,162 L2271,162 L2272,162 L2273,161 L2274,162 L2275,161 L2276,161 L2277,162 L2278,162 L2279,162 L2280,162 L2281,162 L2282,162 L2283,162 L2284,94 L2285,88 L2286,88 L2287,88 L2288,88 L2289,89 L2290,89 L2291,89 L2292,88 L2293,88 L2294,89 L2295,88 L2296,88 L2297,183 L2298,163 L2299,163 L2300,163 L2301,163 L2302,162 L2303,163 L2304,163 L2305,163 L2306,161 L2307,162 L2308,162 L2309,161 L2310,162 L2311,162 L2312,162 L2313,161 L2314,162 L2315,162 L2316,162 L2317,162 L2318,162 L2319,162 L2320,162 L2321,162 L2322,162 L2323,101 L2324,88 L2325,88 L2326,88 L2327,88 L2328,88 L2329,88 L2330,88 L2331,89 L2332,89 L2333,89 L2334,89 L2335,88 L2336,122 L2337,163 L2338,163 L2339,161 L2340,162 L2341,162 L2342,162 L2343,162 L2344,163 L2345,162 L2346,162 L2347,163 L2348,163 L2349,150 L2350,88 L2351,88 L2352,88 L2353,88 L2354,88 L2355,88 L2356,88 L2357,89 L2358,89 L2359,88 L2360,89 L2361,88 L2362,90 L2363,163 L2364,163 L2365,163 L2366,162 L2367,163 L2368,162 L2369,162 L2370,162 L2371,162 L2372,162 L2373,161 L2374,162 L2375,162 L2376,161 L2377,163 L2378,162 L2379,162 L2380,164 L2381,162 L2382,162 L2383,162 L2384,162 L2385,163 L2386,161 L2387,162 L2388,162 L2389,161 L2390,162 L2391,161 L2392,162 L2393,162 L2394,162 L2395,162 L2396,161 L2397,162 L2398,162 L2399,162 L2400,162 L2401,162 L2402,162 L2403,162 L2404,162 L2405,162 L2406,162 L2407,162 L2408,162 L2409,162 L2410,163 L2411,162 L2412,162 L2413,163 L2414,163 L2415,87 L2416,88 L2417,88 L2418,88 L2419,88 L2420,88 L2421,88 L2422,88 L2423,89 L2424,89 L2425,89 L2426,89 L2427,89 L2428,164 L2429,162 L2430,162 L2431,162 L2432,162 L2433,162 L2434,162 L2435,161 L2436,162 L2437,162 L2438,161 L2439,162 L2440,162 L2441,162 L2442,162 L2443,162 L2444,163 L2445,162 L2446,162 L2447,162 L2448,162 L2449,162 L2450,162 L2451,161 L2452,161 L2453,162 L2454,162 L2455,162 L2456,162 L2457,163 L2458,161 L2459,162 L2460,162 L2461,162 L2462,161 L2463,162 L2464,162 L2465,161 L2466,162 L2467,162 L2468,162 L2469,162 L2470,162 L2471,162 L2472,161 L2473,163 L2474,162 L2475,162 L2476,162 L2477,162 L2478,162 L2479,161 L2480,162 L2481,161 L2482,161 L2483,162 L2484,162 L2485,161 L2486,162 L2487,162 L2488,162 L2489,162 L2490,163 L2491,162 L2492,162 L2493,162 L2494,162 L2495,161 L2496,162 L2497,162 L2498,161 L2499,162 L2500,162 L2501,162 L2502,162 L2503,162 L2504,162 L2505,161 L2506,162 L2507,163 L2508,162 L2509,161 L2510,162 L2511,162 L2512,161 L2513,162 L2514,162 L2515,161 L2516,164 L2517,162 L2518,162 L2519,162 L2520,162 L2521,162 L2522,162 L2523,162 L2524,162 L2525,161 L2526,162 L2527,161 L2528,162 L2529,162 L2530,162 L2531,162 L2532,163 L2533,163 L2534,162 L2535,162 L2536,163 L2537,162 L2538,162 L2539,162 L2540,162 L2541,161 L2542,162 L2543,161 L2544,161 L2545,87 L2546,88 L2547,88 L2548,88 L2549,89 L2550,88 L2551,88 L2552,88 L2553,89 L2554,88 L2555,88 L2556,89 L2557,88 L2558,163 L2559,162 L2560,162 L2561,162 L2562,162 L2563,162 L2564,162 L2565,162 L2566,162 L2567,163 L2568,162 L2569,163 L2570,162 L2571,86 L2572,88 L2573,88 L2574,88 L2575,88 L2576,89 L2577,88 L2578,88 L2579,89 L2580,88 L2581,88 L2582,89 L2583,88 L2584,88 L2585,89 L2586,88 L2587,89 L2588,88 L2589,89 L2590,89 L2591,88 L2592,88 L2593,88 L2594,87 L2595,88 L2596,89 L2597,88 L2598,88 L2599,89 L2600,89 L2601,89 L2602,89 L2603,89 L2604,88 L2605,88 L2606,88 L2607,88 L2608,88 L2609,89 L2610,89 L2611,88 L2612,89 L2613,89 L2614,89 L2615,89 L2616,89 L2617,88 L2618,88 L2619,88 L2620,88 L2621,88 L2622,89 L2623,88 L2624,88 L2625,88 L2626,88 L2627,88 L2628,88 L2629,88 L2630,89 L2631,89 L2632,89 L2633,89 L2634,88 L2635,89 L2636,89 L2637,88 L2638,88 L2639,88 L2640,88 L2641,88 L2642,89 L2643,89 L2644,89 L2645,89 L2646,89 L2647,88 L2648,88 L2649,89 L2650,88 L2651,88 L2652,88 L2653,88 L2654,88 L2655,88 L2656,89 L2657,88 L2658,89 L2659,89 L2660,88 L2661,89 L2662,89 L2663,89 L2664,88 L2665,88 L2666,88 L2667,88 L2668,89 L2669,88 L2670,88 L2671,88 L2672,89 L2673,88 L2674,88 L2675,89 L2676,88 L2677,89 L2678,89 L2679,89 L2680,88 L2681,88 L2682,88 L2683,88 L2684,88 L2685,89 L2686,88 L2687,88 L2688,165 L2689,163 L2690,163 L2691,163 L2692,162 L2693,162 L2694,162 L2695,162 L2696,162 L2697,161 L2698,162 L2699,162 L2700,162 L2701,86 L2702,88 L2703,88 L2704,88 L2705,89 L2706,88 L2707,88 L2708,89 L2709,89 L2710,89 L2711,89 L2712,89 L2713,89 L2714,88 L2715,88 L2716,88 L2717,88 L2718,89 L2719,88 L2720,88 L2721,89 L2722,89 L2723,89 L2724,89 L2725,89 L2726,89 L2727,88 L2728,88 L2729,88 L2730,88 L2731,88 L2732,88 L2733,88 L2734,88 L2735,88 L2736,88 L2737,88 L2738,89 L2739,87 L2740,88 L2741,89 L2742,89 L2743,88 L2744,88 L2745,89 L2746,88 L2747,88 L2748,88 L2749,88 L2750,88 L2751,89 L2752,88 L2753,88 L2754,89 L2755,89 L2756,89 L2757,89 L2758,89 L2759,88 L2760,88 L2761,88 L2762,88 L2763,88 L2764,88 L2765,88 L2766,165 L2767,163 L2768,163 L2769,162 L2770,162 L2771,163 L2772,162 L2773,162 L2774,162 L2775,162 L2776,161 L2777,162 L2778,162 L2779,86 L2780,88 L2781,88 L2782,88 L2783,88 L2784,89 L2785,89 L2786,88 L2787,89 L2788,89 L2789,89 L2790,89 L2791,89 L2792,88 L2793,88 L2794,89 L2795,88 L2796,88 L2797,90 L2798,88 L2799,89 L2800,89 L2801,89 L2802,89 L2803,88 L2804,89 L2805,88 L2806,88 L2807,88 L2808,88 L2809,88 L2810,88 L2811,88 L2812,89 L2813,88 L2814,89 L2815,88 L2816,88 L2817,89 L2818,165 L2819,163 L2820,163 L2821,163 L2822,162 L2823,162 L2824,162 L2825,162 L2826,161 L2827,162 L2828,162 L2829,162 L2830,162 L2831,162 L2832,162 L2833,162 L2834,163 L2835,163 L2836,162 L2837,162 L2838,162 L2839,161 L2840,161 L2841,162 L2842,162 L2843,162 L2844,162 L2845,162 L2846,162 L2847,163 L2848,162 L2849,162 L2850,162 L2851,162 L2852,161 L2853,162 L2854,162 L2855,162 L2856,162 L2857,162 L2858,162 L2859,162 L2860,162 L2861,162 L2862,162 L2863,162 L2864,162 L2865,162 L2866,162 L2867,163 L2868,162 L2869,161 L2870,162 L2871,162 L2872,161 L2873,162 L2874,162 L2875,161 L2876,162 L2877,162 L2878,162 L2879,162 L2880,162 L2881,162 L2882,161 L2883,82 L2884,88 L2885,88 L2886,88 L2887,88 L2888,88 L2889,88 L2890,89 L2891,89 L2892,88 L2893,89 L2894,89 L2895,88 L2896,163 L2897,163 L2898,163 L2899,162 L2900,162 L2901,162 L2902,162 L2903,162 L2904,162 L2905,162 L2906,162 L2907,162 L2908,162 L2909,162 L2910,162 L2911,162 L2912,162 L2913,162 L2914,162 L2915,161 L2916,161 L2917,161 L2918,161 L2919,161 L2920,162 L2921,162 L2922,162 L2923,162 L2924,162 L2925,162 L2926,162 L2927,163 L2928,162 L2929,161 L2930,162 L2931,162 L2932,161 L2933,162 L2934,162 L2935,75 L2936,87 L2937,88 L2938,88 L2939,88 L2940,88 L2941,88 L2942,89 L2943,89 L2944,88 L2945,88 L2946,89 L2947,88 L2948,180 L2949,162 L2950,162 L2951,162 L2952,162 L2953,162 L2954,162 L2955,162 L2956,163 L2957,163 L2958,162 L2959,162 L2960,162 L2961,67 L2962,87 L2963,88 L2964,88 L2965,88 L2966,89 L2967,88 L2968,88 L2969,88 L2970,89 L2971,88 L2972,88 L2973,89 L2974,88 L2975,88 L2976,89 L2977,88 L2978,88 L2979,88 L2980,89 L2981,88 L2982,88 L2983,88 L2984,88 L2985,88 L2986,89 L2987,182 L2988,163 L2989,163 L2990,163 L2991,162 L2992,161 L2993,162 L2994,161 L2995,161 L2996,162 L2997,162 L2998,161 L2999,162 L3000,161 L3001,162 L3002,161 L3003,162 L3004,162 L3005,161 L3006,162 L3007,162 L3008,161 L3009,162 L3010,162 L3011,161 L3012,161 L3013,162 L3014,162 L3015,161 L3016,162 L3017,162 L3018,162 L3019,163 L3020,161 L3021,162 L3022,162 L3023,162 L3024,162 L3025,161 L3026,161 L3027,161 L3028,162 L3029,162 L3030,162 L3031,161 L3032,162 L3033,163 L3034,162 L3035,162 L3036,162 L3037,162 L3038,162 L3039,162 L3040,162 L3041,161 L3042,162 L3043,162 L3044,161 L3045,162 L3046,162 L3047,162 L3048,162 L3049,162 L3050,162 L3051,162 L3052,162 L3053,163 L3054,162 L3055,162 L3056,162 L3057,162 L3058,161 L3059,162 L3060,163 L3061,161 L3062,162 L3063,162 L3064,162 L3065,97 L3066,88 L3067,88 L3068,88 L3069,88 L3070,89 L3071,88 L3072,88 L3073,88 L3074,88 L3075,88 L3076,89 L3077,88 L3078,89 L3079,89 L3080,89 L3081,89 L3082,89 L3083,89 L3084,88 L3085,89 L3086,88 L3087,88 L3088,88 L3089,89 L3090,88 L3091,88 L3092,88 L3093,89 L3094,88 L3095,88 L3096,89 L3097,89 L3098,91 L3099,89 L3100,89 L3101,89 L3102,88 L3103,88 L3104,88 L3105,88 L3106,88 L3107,88 L3108,88 L3109,89 L3110,89 L3111,88 L3112,89 L3113,89 L3114,88 L3115,89 L3116,89 L3117,88 L3118,88 L3119,89 L3120,88 L3121,88 L3122,89 L3123,88 L3124,88 L3125,88 L3126,88 L3127,88 L3128,88 L3129,89 L3130,89 L3131,89 L3132,89 L3133,89 L3134,88 L3135,89 L3136,88 L3137,88 L3138,88 L3139,88 L3140,88 L3141,88 L3142,89 L3143,88 L3144,88 L3145,89 L3146,89 L3147,88 L3148,88 L3149,88 L3150,88 L3151,88 L3152,88 L3153,88 L3154,88 L3155,89 L3156,87 L3157,88 L3158,89 L3159,89 L3160,88 L3161,88 L3162,88 L3163,89 L3164,88 L3165,88 L3166,88 L3167,88 L3168,88 L3169,88 L3170,88 L3171,88 L3172,89 L3173,88 L3174,88 L3175,89 L3176,89 L3177,88 L3178,89 L3179,88 L3180,88 L3181,88 L3182,88 L3183,88 L3184,88 L3185,88 L3186,88 L3187,88 L3188,89 L3189,89 L3190,88 L3191,89 L3192,89 L3193,88 L3194,88 L3195,88 L3196,88 L3197,88 L3198,88 L3199,88 L3200,88 L3201,88 L3202,88 L3203,88 L3204,88 L3205,88 L3206,88 L3207,88 L3208,89 L3209,89 L3210,89 L3211,88 L3212,89 L3213,88 L3214,88 L3215,88 L3216,88 L3217,88 L3218,89 L3219,89 L3220,88 L3221,89 L3222,89 L3223,89 L3224,89 L3225,88 L3226,88 L3227,88 L3228,89 L3229,88 L3230,88 L3231,88 L3232,89 L3233,88 L3234,89 L3235,89 L3236,89 L3237,88 L3238,89 L3239,89 L3240,89 L3241,89 L3242,88 L3243,88 L3244,89 L3245,88 L3246,88 L3247,88 L3248,88 L3249,88 L3250,88 L3251,88 L3252,89 L3253,88 L3254,89 L3255,89 L3256,89 L3257,88 L3258,88 L3259,88 L3260,88 L3261,88 L3262,88 L3263,88 L3264,89 L3265,89 L3266,88 L3267,88 L3268,89 L3269,89 L3270,88 L3271,88 L3272,88 L3273,88 L3274,88 L3275,88 L3276,88 L3277,88 L3278,88 L3279,88 L3280,88 L3281,88 L3282,88 L3283,88 L3284,89 L3285,90 L3286,88 L3287,88 L3288,89 L3289,89 L3290,88 L3291,88 L3292,88 L3293,88 L3294,88 L3295,88 L3296,88 L3297,88 L3298,89 L3299,88 L3300,88 L3301,87 L3302,89 L3303,89 L3304,88 L3305,88 L3306,88 L3307,88 L3308,88 L3309,88 L3310,88 L3311,89 L3312,89 L3313,88 L3314,88 L3315,89 L3316,88 L3317,88 L3318,89 L3319,89 L3320,88 L3321,89 L3322,88 L3323,88 L3324,88 L3325,88 L3326,88 L3327,88 L3328,88 L3329,88 L3330,88 L3331,89 L3332,89 L3333,88 L3334,89 L3335,88 L3336,88 L3337,88 L3338,88 L3339,88 L3340,88 L3341,88 L3342,88 L3343,88 L3344,88 L3345,89 L3346,88 L3347,89 L3348,88 L3349,88 L3350,88 L3351,88 L3352,88 L3353,88 L3354,88 L3355,88 L3356,88 L3357,88 L3358,89 L3359,89 L3360,88 L3361,88 L3362,89 L3363,89 L3364,89 L3365,89 L3366,88 L3367,88 L3368,88 L3369,88 L3370,88 L3371,88 L3372,88 L3373,88 L3374,89 L3375,89 L3376,88 L3377,89 L3378,89 L3379,90 L3380,88 L3381,89 L3382,88 L3383,88 L3384,88 L3385,88 L3386,88 L3387,89 L3388,88 L3389,88 L3390,88 L3391,89 L3392,88 L3393,88 L3394,89 L3395,88 L3396,88 L3397,89 L3398,88 L3399,89 L3400,89 L3401,88 L3402,88 L3403,88 L3404,88 L3405,88 L3406,88 L3407,89 L3408,88 L3409,89 L3410,89 L3411,89 L3412,88 L3413,88 L3414,88 L3415,88 L3416,88 L3417,88 L3418,88 L3419,88 L3420,88 L3421,89 L3422,88 L3423,89 L3424,89 L3425,88 L3426,89 L3427,89 L3428,88 L3429,88 L3430,88 L3431,89 L3432,88 L3433,88 L3434,88 L3435,88 L3436,88 L3437,87 L3438,88 L3439,88 L3440,89 L3441,89 L3442,89 L3443,89 L3444,89 L3445,88 L3446,89 L3447,88 L3448,88 L3449,88 L3450,88 L3451,88 L3452,88 L3453,89 L3454,89 L3455,89 L3456,89 L3457,88 L3458,88 L3459,89 L3460,88 L3461,89 L3462,88 L3463,89 L3464,89 L3465,88 L3466,88 L3467,88 L3468,89 L3469,89 L3470,89 L3471,88 L3472,88 L3473,89 L3474,88 L3475,89 L3476,89 L3477,88 L3478,88 L3479,88 L3480,88 L3481,88 L3482,88 L3483,89 L3484,88 L3485,88 L3486,89 L3487,89 L3488,89 L3489,89 L3490,89 L3491,88 L3492,88 L3493,88 L3494,88 L3495,88 L3496,89 L3497,88 L3498,88 L3499,88 L3500,89 L3501,88 L3502,88 L3503,88 L3504,88 L3505,88 L3506,88 L3507,88 L3508,89 L3509,89 L3510,89 L3511,88 L3512,88 L3513,88 L3514,88 L3515,89 L3516,89 L3517,88 L3518,88 L3519,89 L3520,89 L3521,88 L3522,89 L3523,88 L3524,88 L3525,88 L3526,88 L3527,88 L3528,88 L3529,89 L3530,88 L3531,89 L3532,88 L3533,89 L3534,88 L3535,88 L3536,89 L3537,88 L3538,88 L3539,88 L3540,88 L3541,88 L3542,88 L3543,88 L3544,88 L3545,88 L3546,89 L3547,88 L3548,88 L3549,89 L3550,89 L3551,89 L3552,89 L3553,89 L3554,88 L3555,88 L3556,89 L3557,88 L3558,88 L3559,88 L3560,88 L3561,88 L3562,89 L3563,88 L3564,89 L3565,89 L3566,89 L3567,89 L3568,88 L3569,88 L3570,88 L3571,88 L3572,88 L3573,88 L3574,88 L3575,88 L3576,89 L3577,88 L3578,88 L3579,89 L3580,88 L3581,88 L3582,88 L3583,88 L3584,89 L3585,89 L3586,88 L3587,88 L3588,88 L3589,88 L3590,88 L3591,88 L3592,88 L3593,88 L3594,88 L3595,89 L3596,88 L3597,89 L3598,89 L3599,89 L3600,89 L3601,88 L3602,88 L3603,88 L3604,88 L3605,89 L3606,88 L3607,88 L3608,88 L3609,88 L3610,88 L3611,88 L3612,88 L3613,88 L3614,88 L3615,89 L3616,89 L3617,88 L3618,88 L3619,88 L3620,88 L3621,88 L3622,89 L3623,88 L3624,88 L3625,88 L3626,88 L3627,88 L3628,89 L3629,89 L3630,89 L3631,89 L3632,89 L3633,89 L3634,88 L3635,88 L3636,88 L3637,88 L3638,88 L3639,88 L3640,88 L3641,88 L3642,89 L3643,89 L3644,89 L3645,89 L3646,89 L3647,88 L3648,88 L3649,88 L3650,88 L3651,88 L3652,88 L3653,88 L3654,88 L3655,88 L3656,89 L3657,88 L3658,88 L3659,88 L3660,89 L3661,89 L3662,89 L3663,88 L3664,88 L3665,89 L3666,88 L3667,88 L3668,88 L3669,88 L3670,88 L3671,88 L3672,89 L3673,88 L3674,89 L3675,88 L3676,88 L3677,88 L3678,89 L3679,88 L3680,88 L3681,88 L3682,88 L3683,88 L3684,88 L3685,89 L3686,88 L3687,88 L3688,89 L3689,88 L3690,88 L3691,88 L3692,89 L3693,88 L3694,88 L3695,88 L3696,88 L3697,88 L3698,88 L3699,88 L3700,88 L3701,88 L3702,88 L3703,88 L3704,88 L3705,89 L3706,89 L3707,89 L3708,89 L3709,89 L3710,88 L3711,89 L3712,88 L3713,88 L3714,88 L3715,88 L3716,88 L3717,88 L3718,87 L3719,89 L3720,88 L3721,89 L3722,89 L3723,88 L3724,89 L3725,88 L3726,88 L3727,88 L3728,88 L3729,88 L3730,88 L3731,88 L3732,88 L3733,88 L3734,88 L3735,89 L3736,88 L3737,88 L3738,88 L3739,89 L3740,88 L3741,88 L3742,89 L3743,88 L3744,88 L3745,88 L3746,88 L3747,88 L3748,88 L3749,88 L3750,88 L3751,89 L3752,89 L3753,88 L3754,89 L3755,89 L3756,88 L3757,88 L3758,89 L3759,88 L3760,88 L3761,88 L3762,88 L3763,88 L3764,89 L3765,88 L3766,89 L3767,88 L3768,89 L3769,88 L3770,89 L3771,89 L3772,88 L3773,88 L3774,89 L3775,89 L3776,88 L3777,88 L3778,88 L3779,88 L3780,88 L3781,88 L3782,88 L3783,88 L3784,88 L3785,89 L3786,88 L3787,89 L3788,89 L3789,88 L3790,88 L3791,88 L3792,88 L3793,88 L3794,88 L3795,88 L3796,90 L3797,89 L3798,88 L3799,88 L3800,88 L3801,89 L3802,88 L3803,88 L3804,89 L3805,88 L3806,88 L3807,88 L3808,88 L3809,88 L3810,88 L3811,89 L3812,88 L3813,88 L3814,89 L3815,88 L3816,88 L3817,88 L3818,88 L3819,88 L3820,89 L3821,89 L3822,88 L3823,88 L3824,88 L3825,88 L3826,88 L3827,89 L3828,88 L3829,89 L3830,89 L3831,89 L3832,89 L3833,88 L3834,89 L3835,88 L3836,88 L3837,88 L3838,88 L3839,88 L3840,88 L3841,89 L3842,88 L3843,89 L3844,88 L3845,89 L3846,88 L3847,89 L3848,89 L3849,88 L3850,89 L3851,89 L3852,88 L3853,88 L3854,89 L3855,88 L3856,88 L3857,88 L3858,88 L3859,88 L3860,89 L3861,88 L3862,88 L3863,88 L3864,89 L3865,89 L3866,88 L3867,88 L3868,88 L3869,88 L3870,88 L3871,88 L3872,88 L3873,89 L3874,88 L3875,88 L3876,89 L3877,89 L3878,88 L3879,88 L3880,88 L3881,89 L3882,88 L3883,89 L3884,88 L3885,88 L3886,88 L3887,89 L3888,88 L3889,88 L3890,88 L3891,89 L3892,88 L3893,89 L3894,88 L3895,88 L3896,89 L3897,89 L3898,88 L3899,88 L3900,88 L3901,88 L3902,88 L3903,88 L3904,88 L3905,88 L3906,89 L3907,89 L3908,88 L3909,88 L3910,89 L3911,88 L3912,88 L3913,88 L3914,88 L3915,88 L3916,88 L3917,88 L3918,88 L3919,89 L3920,88 L3921,88 L3922,88 L3923,88 L3924,88 L3925,88 L3926,88 L3927,89 L3928,89 L3929,88 L3930,89 L3931,88 L3932,88 L3933,88 L3934,88 L3935,88 L3936,88 L3937,88 L3938,88 L3939,89 L3940,89 L3941,89 L3942,89 L3943,89 L3944,88 L3945,88 L3946,88 L3947,89 L3948,88 L3949,89 L3950,88 L3951,88 L3952,88 L3953,89 L3954,89 L3955,89 L3956,89 L3957,88 L3958,88 L3959,88 L3960,89 L3961,88 L3962,88 L3963,88 L3964,88 L3965,88 L3966,88 L3967,89 L3968,88 L3969,88 L3970,89 L3971,89 L3972,89 L3973,89 L3974,89 L3975,88 L3976,89 L3977,88 L3978,88 L3979,88 L3980,88 L3981,88 L3982,88 L3983,89 L3984,89 L3985,89 L3986,89 L3987,89 L3988,89 L3989,89 L3990,89 L3991,88 L3992,89 L3993,88 L3994,88 L3995,88 L3996,89 L3997,89 L3998,88 L3999,88 L4000,89 L4001,89 L4002,88 L4003,88 L4004,89 L4005,88 L4006,89 L4007,88 L4008,88 L4009,88 L4010,88 L4011,88 L4012,88 L4013,88 L4014,88 L4015,88 L4016,89 L4017,88 L4018,89 L4019,88 L4020,89 L4021,89 L4022,89 L4023,88 L4024,88 L4025,88 L4026,88 L4027,88 L4028,88 L4029,89 L4030,89 L4031,88 L4032,89 L4033,89 L4034,88 L4035,89 L4036,89 L4037,88 L4038,88 L4039,89 L4040,89 L4041,88 L4042,88 L4043,88 L4044,88 L4045,88 L4046,88 L4047,88 L4048,88 L4049,89 L4050,89 L4051,89 L4052,89 L4053,89 L4054,88 L4055,89 L4056,88 L4057,88 L4058,88 L4059,88 L4060,88 L4061,88 L4062,89 L4063,89 L4064,88 L4065,89 L4066,88 L4067,88 L4068,88 L4069,88 L4070,88 L4071,88 L4072,88 L4073,88 L4074,88 L4075,89 L4076,88 L4077,89 L4078,88 L4079,88 L4080,88 L4081,88 L4082,89 L4083,88 L4084,88 L4085,89 L4086,88 L4087,88 L4088,88 L4089,88 L4090,88 L4091,88 L4092,88 L4093,88 L4094,88 L4095,89 "/>
<path stroke="cyan" fill="none" stroke-width="1" d="M0,220 L1,220 L2,220 L3,220 L4,221 L5,221 L6,220 L7,221 L8,221 L9,220 L10,221 L11,223 L12,221 L13,223 L14,223 L15,220 L16,220 L17,221 L18,220 L19,218 L20,220 L21,220 L22,218 L23,220 L24,220 L25,220 L26,218 L27,220 L28,220 L29,220 L30,220 L31,220 L32,220 L33,220 L34,220 L35,218 L36,220 L37,220 L38,220 L39,218 L40,221 L41,220 L42,220 L43,220 L44,220 L45,220 L46,218 L47,220 L48,220 L49,220 L50,220 L51,220 L52,220 L53,221 L54,221 L55,221 L56,223 L57,223 L58,221 L59,220 L60,221 L61,221 L62,220 L63,221 L64,221 L65,221 L66,221 L67,223 L68,221 L69,223 L70,223 L71,221 L72,221 L73,221 L74,221 L75,220 L76,221 L77,223 L78,221 L79,223 L80,221 L81,221 L82,221 L83,223 L84,223 L85,223 L86,221 L87,223 L88,221 L89,221 L90,223 L91,221 L92,220 L93,221 L94,221 L95,220 L96,221 L97,221 L98,220 L99,220 L100,220 L101,218 L102,218 L103,220 L104,220 L105,218 L106,220 L107,220 L108,220 L109,221 L110,221 L111,220 L112,220 L113,221 L114,220 L115,220 L116,220 L117,220 L118,220 L119,220 L120,220 L121,220 L122,220 L123,221 L124,220 L125,220 L126,220 L127,220 L128,220 L129,220 L130,221 L131,220 L132,221 L133,223 L134,221 L135,221 L136,223 L137,223 L138,221 L139,221 L140,221 L141,221 L142,221 L143,223 L144,221 L145,221 L146,223 L147,221 L148,221 L149,223 L150,223 L151,221 L152,221 L153,221 L154,220 L155,220 L156,221 L157,220 L158,220 L159,221 L160,221 L161,220 L162,221 L163,223 L164,223 L165,221 L166,223 L167,223 L168,221 L169,221 L170,220 L171,220 L172,220 L173,220 L174,220 L175,220 L176,221 L177,220 L178,220 L179,220 L180,220 L181,218 L182,220 L183,220 L184,218 L185,220 L186,220 L187,220 L188,218 L189,220 L190,220 L191,220 L192,221 L193,220 L194,220 L195,220 L196,220 L197,220 L198,220 L199,220 L200,220 L201,220 L202,220 L203,220 L204,218 L205,220 L206,220 L207,220 L208,220 L209,220 L210,220 L211,220 L212,221 L213,221 L214,221 L215,221 L216,223 L217,221 L218,221 L219,223 L220,221 L221,220 L222,223 L223,221 L224,220 L225,221 L226,221 L227,221 L228,220 L229,221 L230,220 L231,221 L232,221 L233,221 L234,220 L235,220 L236,221 L237,220 L238,220 L239,221 L240,220 L241,220 L242,221 L243,221 L244,220 L245,223 L246,223 L247,220 L248,220 L249,220 L250,218 L251,218 L252,220 L253,218 L254,220 L255,220 L256,220 L257,220 L258,220 L259,220 L260,220 L261,220 L262,220 L263,220 L264,218 L265,220 L266,220 L267,218 L268,218 L269,220 L270,218 L271,220 L272,220 L273,220 L274,218 L275,220 L276,220 L277,218 L278,220 L279,220 L280,218 L281,220 L282,221 L283,220 L284,220 L285,221 L286,221 L287,220 L288,221 L289,221 L290,220 L291,220 L292,221 L293,220 L294,221 L295,221 L296,221 L297,220 L298,221 L299,221 L300,220 L301,221 L302,223 L303,221 L304,220 L305,221 L306,221 L307,220 L308,221 L309,221 L310,221 L311,221 L312,223 L313,223 L314,221 L315,223 L316,221 L317,220 L318,220 L319,221 L320,220 L321,221 L322,223 L323,223 L324,221 L325,221 L326,221 L327,220 L328,221 L329,220 L330,218 L331,220 L332,218 L333,218 L334,218 L335,220 L336,218 L337,218 L338,220 L339,220 L340,220 L341,220 L342,220 L343,218 L344,220 L345,220 L346,220 L347,220 L348,220 L349,220 L350,220 L351,220 L352,221 L353,220 L354,221 L355,221 L356,220 L357,220 L358,220 L359,220 L360,220 L361,220 L362,221 L363,220 L364,221 L365,223 L366,221 L367,221 L368,223 L369,221 L370,221 L371,221 L372,221 L373,221 L374,221 L375,223 L376,221 L377,221 L378,223 L379,223 L380,221 L381,223 L382,223 L383,220 L384,221 L385,221 L386,221 L387,221 L388,221 L389,223 L390,221 L391,221 L392,221 L393,221 L394,221 L395,221 L396,221 L397,221 L398,221 L399,221 L400,221 L401,223 L402,221 L403,220 L404,220 L405,221 L406,220 L407,220 L408,220 L409,220 L410,218 L411,218 L412,218 L413,218 L414,218 L415,218 L416,218 L417,218 L418,220 L419,220 L420,218 L421,220 L422,220 L423,220 L424,220 L425,221 L426,220 L427,220 L428,220 L429,220 L430,218 L431,220 L432,220 L433,220 L434,220 L435,221 L436,220 L437,220 L438,220 L439,220 L440,220 L441,220 L442,220 L443,220 L444,221 L445,220 L446,221 L447,221 L448,223 L449,221 L450,221 L451,221 L452,221 L453,221 L454,221 L455,221 L456,220 L457,221 L458,223 L459,221 L460,221 L461,223 L462,221 L463,220 L464,221 L465,221 L466,220 L467,220 L468,221 L469,220 L470,220 L471,221 L472,220 L473,220 L474,221 L475,223 L476,221 L477,221 L478,223 L479,221 L480,220 L481,220 L482,220 L483,220 L484,220 L485,220 L486,220 L487,220 L488,220 L489,218 L490,220 L491,220 L492,220 L493,218 L494,220 L495,220 L496,218 L497,220 L498,220 L499,220 L500,220 L501,221 L502,220 L503,220 L504,220 L505,220 L506,218 L507,220 L508,220 L509,218 L510,220 L511,220 L512,220 L513,220 L514,221 L515,220 L516,220 L517,221 L518,221 L519,220 L520,221 L521,221 L522,220 L523,221 L524,221 L525,221 L526,221 L527,223 L528,221 L529,221 L530,223 L531,221 L532,221 L533,221 L534,221 L535,221 L536,221 L537,223 L538,221 L539,220 L540,221 L541,221 L542,220 L543,221 L544,221 L545,220 L546,220 L547,221 L548,220 L549,220 L550,221 L551,220 L552,220 L553,223 L554,223 L555,221 L556,223 L557,223 L558,221 L559,218 L560,220 L561,220 L562,220 L563,220 L564,220 L565,218 L566,220 L567,220 L568,220 L569,220 L570,220 L571,220 L572,220 L573,220 L574,220 L575,218 L576,218 L577,220 L578,218 L579,218 L580,221 L581,220 L582,220 L583,220 L584,220 L585,220 L586,220 L587,220 L588,218 L589,220 L590,220 L591,220 L592,218 L593,220 L594,220 L595,218 L596,220 L597,221 L598,220 L599,220 L600,220 L601,220 L602,220 L603,221 L604,220 L605,221 L606,223 L607,221 L608,221 L609,223 L610,223 L611,221 L612,221 L613,223 L614,221 L615,220 L616,221 L617,221 L618,220 L619,221 L620,221 L621,221 L622,221 L623,221 L624,221 L625,220 L626,221 L627,221 L628,220 L629,221 L630,221 L631,220 L632,220 L633,220 L634,220 L635,220 L636,220 L637,220 L638,218 L639,220 L640,220 L641,218 L642,218 L643,220 L644,220 L645,220 L646,220 L647,220 L648,220 L649,220 L650,220 L651,220 L652,220 L653,220 L654,220 L655,218 L656,220 L657,218 L658,218 L659,220 L660,220 L661,218 L662,220 L663,220 L664,220 L665,220 L666,220 L667,220 L668,218 L669,220 L670,220 L671,220 L672,221 L673,221 L674,221 L675,221 L676,221 L677,221 L678,220 L679,221 L680,221 L681,220 L682,221 L683,221 L684,220 L685,221 L686,223 L687,221 L688,221 L689,223 L690,223 L691,221 L692,223 L693,223 L694,221 L695,221 L696,221 L697,220 L698,220 L699,223 L700,223 L701,220 L702,221 L703,223 L704,221 L705,223 L706,223 L707,221 L708,220 L709,221 L710,221 L711,220 L712,221 L713,221 L714,220 L715,220 L716,220 L717,220 L718,220 L719,221 L720,220 L721,218 L722,220 L723,218 L724,218 L725,218 L726,218 L727,218 L728,218 L729,220 L730,220 L731,218 L732,220 L733,220 L734,218 L735,220 L736,220 L737,220 L738,220 L739,220 L740,220 L741,218 L742,220 L743,220 L744,220 L745,220 L746,220 L747,220 L748,220 L749,220 L750,220 L751,220 L752,220 L753,220 L754,220 L755,221 L756,221 L757,221 L758,221 L759,223 L760,223 L761,221 L762,221 L763,221 L764,220 L765,221 L766,221 L767,220 L768,221 L769,223 L770,221 L771,223 L772,223 L773,223 L774,221 L775,223 L776,221 L777,220 L778,220 L779,221 L780,221 L781,221 L782,223 L783,221 L784,221 L785,223 L786,223 L787,221 L788,221 L789,223 L790,221 L791,220 L792,220 L793,220 L794,218 L795,220 L796,220 L797,218 L798,220 L799,220 L800,220 L801,220 L802,220 L803,218 L804,218 L805,220 L806,220 L807,218 L808,220 L809,220 L810,220 L811,220 L812,220 L813,220 L814,220 L815,220 L816,220 L817,218 L818,220 L819,220 L820,218 L821,218 L822,220 L823,220 L824,220 L825,220 L826,220 L827,220 L828,221 L829,221 L830,220 L831,221 L832,221 L833,220 L834,220 L835,221 L836,221 L837,220 L838,221 L839,221 L840,221 L841,223 L842,223 L843,221 L844,221 L845,223 L846,221 L847,220 L848,221 L849,221 L850,221 L851,223 L852,221 L853,220 L854,220 L855,221 L856,220 L857,220 L858,220 L859,221 L860,220 L861,220 L862,221 L863,220 L864,221 L865,223 L866,223 L867,223 L868,223 L869,221 L870,220 L871,220 L872,220 L873,218 L874,220 L875,220 L876,218 L877,218 L878,220 L879,220 L880,218 L881,220 L882,220 L883,220 L884,220 L885,220 L886,218 L887,218 L888,220 L889,220 L890,218 L891,220 L892,221 L893,220 L894,221 L895,220 L896,220 L897,220 L898,220 L899,218 L900,218 L901,220 L902,220 L903,218 L904,220 L905,221 L906,220 L907,221 L908,223 L909,221 L910,220 L911,221 L912,221 L913,220 L914,221 L915,221 L916,220 L917,221 L918,221 L919,221 L920,221 L921,223 L922,221 L923,221 L924,223 L925,223 L926,220 L927,221 L928,221 L929,220 L930,221 L931,223 L932,221 L933,221 L934,221 L935,223 L936,220 L937,223 L938,221 L939,221 L940,220 L941,221 L942,221 L943,220 L944,223 L945,223 L946,220 L947,220 L948,221 L949,220 L950,220 L951,221 L952,220 L953,218 L954,220 L955,220 L956,218 L957,220 L958,220 L959,220 L960,220 L961,220 L962,220 L963,220 L964,220 L965,220 L966,218 L967,220 L968,220 L969,218 L970,220 L971,220 L972,220 L973,220 L974,220 L975,220 L976,220 L977,220 L978,220 L979,218 L980,220 L981,220 L982,220 L983,220 L984,220 L985,220 L986,218 L987,220 L988,220 L989,220 L990,221 L991,220 L992,220 L993,220 L994,221 L995,221 L996,221 L997,221 L998,223 L999,221 L1000,223 L1001,223 L1002,221 L1003,221 L1004,223 L1005,221 L1006,220 L1007,221 L1008,221 L1009,220 L1010,221 L1011,221 L1012,220 L1013,221 L1014,221 L1015,221 L1016,221 L1017,221 L1018,221 L1019,220 L1020,221 L1021,221 L1022,220 L1023,220 L1024,220 L1025,220 L1026,220 L1027,221 L1028,220 L1029,220 L1030,221 L1031,220 L1032,218 L1033,220 L1034,220 L1035,218 L1036,218 L1037,220 L1038,220 L1039,218 L1040,220 L1041,220 L1042,218 L1043,220 L1044,220 L1045,218 L1046,220 L1047,220 L1048,220 L1049,218 L1050,220 L1051,218 L1052,218 L1053,220 L1054,220 L1055,218 L1056,220 L1057,220 L1058,220 L1059,220 L1060,220 L1061,220 L1062,220 L1063,221 L1064,220 L1065,220 L1066,221 L1067,221 L1068,221 L1069,220 L1070,221 L1071,221 L1072,220 L1073,221 L1074,221 L1075,220 L1076,221 L1077,221 L1078,220 L1079,221 L1080,223 L1081,221 L1082,220 L1083,223 L1084,221 L1085,221 L1086,221 L1087,223 L1088,221 L1089,220 L1090,221 L1091,221 L1092,220 L1093,221 L1094,221 L1095,220 L1096,223 L1097,221 L1098,221 L1099,221 L1100,221 L1101,220 L1102,220 L1103,220 L1104,220 L1105,218 L1106,220 L1107,220 L1108,218 L1109,220 L1110,220 L1111,220 L1112,218 L1113,220 L1114,220 L1115,218 L1116,218 L1117,218 L1118,218 L1119,218 L1120,220 L1121,220 L1122,218 L1123,220 L1124,220 L1125,218 L1126,220 L1127,221 L1128,218 L1129,220 L1130,220 L1131,218 L1132,220 L1133,220 L1134,220 L1135,220 L1136,221 L1137,220 L1138,220 L1139,220 L1140,220 L1141,220 L1142,220 L1143,220 L1144,220 L1145,220 L1146,221 L1147,220 L1148,220 L1149,221 L1150,221 L1151,221 L1152,221 L1153,223 L1154,223 L1155,221 L1156,223 L1157,221 L1158,220 L1159,221 L1160,221 L1161,221 L1162,221 L1163,223 L1164,221 L1165,221 L1166,221 L1167,221 L1168,220 L1169,220 L1170,220 L1171,220 L1172,220 L1173,221 L1174,220 L1175,220 L1176,220 L1177,221 L1178,221 L1179,221 L1180,221 L1181,220 L1182,220 L1183,220 L1184,220 L1185,218 L1186,220 L1187,220 L1188,218 L1189,220 L1190,220 L1191,218 L1192,220 L1193,220 L1194,218 L1195,218 L1196,220 L1197,218 L1198,218 L1199,218 L1200,220 L1201,218 L1202,220 L1203,220 L1204,220 L1205,220 L1206,221 L1207,220 L1208,220 L1209,220 L1210,220 L1211,218 L1212,220 L1213,220 L1214,220 L1215,220 L1216,221 L1217,220 L1218,220 L1219,221 L1220,221 L1221,220 L1222,220 L1223,220 L1224,220 L1225,220 L1226,221 L1227,220 L1228,220 L1229,221 L1230,221 L1231,221 L1232,223 L1233,223 L1234,223 L1235,223 L1236,221 L1237,221 L1238,220 L1239,221 L1240,221 L1241,220 L1242,221 L1243,221 L1244,220 L1245,221 L1246,221 L1247,221 L1248,220 L1249,221 L1250,220 L1251,220 L1252,220 L1253,220 L1254,220 L1255,221 L1256,223 L1257,221 L1258,220 L1259,221 L1260,221 L1261,220 L1262,220 L1263,220 L1264,220 L1265,220 L1266,220 L1267,220 L1268,218 L1269,220 L1270,218 L1271,218 L1272,220 L1273,220 L1274,220 L1275,220 L1276,220 L1277,218 L1278,218 L1279,220 L1280,220 L1281,218 L1282,220 L1283,220 L1284,220 L1285,220 L1286,221 L1287,220 L1288,220 L1289,220 L1290,220 L1291,218 L1292,220 L1293,220 L1294,220 L1295,220 L1296,220 L1297,220 L1298,220 L1299,221 L1300,221 L1301,221 L1302,221 L1303,221 L1304,220 L1305,221 L1306,221 L1307,220 L1308,221 L1309,223 L1310,221 L1311,221 L1312,223 L1313,223 L1314,221 L1315,223 L1316,223 L1317,221 L1318,221 L1319,221 L1320,220 L1321,220 L1322,220 L1323,220 L1324,220 L1325,221 L1326,223 L1327,221 L1328,221 L1329,221 L1330,221 L1331,220 L1332,221 L1333,221 L1334,220 L1335,221 L1336,221 L1337,220 L1338,221 L1339,220 L1340,220 L1341,220 L1342,221 L1343,220 L1344,218 L1345,220 L1346,220 L1347,218 L1348,220 L1349,220 L1350,218 L1351,220 L1352,220 L1353,220 L1354,220 L1355,220 L1356,220 L1357,220 L1358,220 L1359,220 L1360,218 L1361,220 L1362,220 L1363,220 L1364,220 L1365,220 L1366,220 L1367,220 L1368,220 L1369,220 L1370,220 L1371,221 L1372,221 L1373,220 L1374,220 L1375,220 L1376,220 L1377,220 L1378,221 L1379,220 L1380,220 L1381,221 L1382,221 L1383,220 L1384,221 L1385,221 L1386,221 L1387,221 L1388,223 L1389,221 L1390,221 L1391,221 L1392,223 L1393,221 L1394,221 L1395,221 L1396,221 L1397,221 L1398,223 L1399,221 L1400,220 L1401,221 L1402,221 L1403,221 L1404,221 L1405,221 L1406,221 L1407,221 L1408,223 L1409,221 L1410,221 L1411,221 L1412,221 L1413,218 L1414,218 L1415,218 L1416,218 L1417,218 L1418,220 L1419,220 L1420,218 L1421,220 L1422,220 L1423,220 L1424,220 L1425,220 L1426,218 L1427,218 L1428,220 L1429,220 L1430,218 L1431,220 L1432,220 L1433,218 L1434,220 L1435,220 L1436,220 L1437,220 L1438,221 L1439,220 L1440,218 L1441,220 L1442,220 L1443,218 L1444,220 L1445,220 L1446,220 L1447,220 L1448,221 L1449,220 L1450,221 L1451,221 L1452,221 L1453,220 L1454,220 L1455,221 L1456,220 L1457,221 L1458,221 L1459,221 L1460,221 L1461,221 L1462,223 L1463,221 L1464,223 L1465,223 L1466,221 L1467,221 L1468,221 L1469,221 L1470,221 L1471,223 L1472,221 L1473,221 L1474,221 L1475,221 L1476,221 L1477,223 L1478,223 L1479,221 L1480,221 L1481,221 L1482,220 L1483,220 L1484,221 L1485,221 L1486,220 L1487,221 L1488,223 L1489,221 L1490,221 L1491,221 L1492,220 L1493,220 L1494,220 L1495,220 L1496,218 L1497,220 L1498,220 L1499,218 L1500,220 L1501,220 L1502,220 L1503,218 L1504,220 L1505,220 L1506,218 L1507,220 L1508,218 L1509,218 L1510,218 L1511,220 L1512,218 L1513,218 L1514,220 L1515,218 L1516,220 L1517,221 L1518,221 L1519,220 L1520,220 L1521,220 L1522,220 L1523,220 L1524,220 L1525,220 L1526,220 L1527,221 L1528,221 L1529,220 L1530,223 L1531,223 L1532,221 L1533,221 L1534,221 L1535,220 L1536,220 L1537,221 L1538,221 L1539,220 L1540,223 L1541,221 L1542,221 L1543,223 L1544,223 L1545,221 L1546,221 L1547,223 L1548,221 L1549,220 L1550,221 L1551,221 L1552,220 L1553,221 L1554,221 L1555,221 L1556,221 L1557,223 L1558,221 L1559,221 L1560,221 L1561,221 L1562,221 L1563,221 L1564,221 L1565,221 L1566,221 L1567,221 L1568,220 L1569,220 L1570,220 L1571,220 L1572,220 L1573,220 L1574,220 L1575,218 L1576,220 L1577,220 L1578,218 L1579,218 L1580,220 L1581,220 L1582,220 L1583,220 L1584,220 L1585,220 L1586,220 L1587,220 L1588,220 L1589,218 L1590,220 L1591,220 L1592,218 L1593,220 L1594,220 L1595,218 L1596,220 L1597,220 L1598,220 L1599,220 L1600,221 L1601,220 L1602,218 L1603,220 L1604,220 L1605,220 L1606,220 L1607,221 L1608,220 L1609,221 L1610,221 L1611,221 L1612,220 L1613,221 L1614,221 L1615,220 L1616,221 L1617,221 L1618,220 L1619,220 L1620,221 L1621,221 L1622,220 L1623,223 L1624,221 L1625,221 L1626,223 L1627,223 L1628,220 L1629,221 L1630,221 L1631,220 L1632,220 L1633,220 L1634,220 L1635,218 L1636,220 L1637,221 L1638,220 L1639,221 L1640,221 L1641,220 L1642,220 L1643,221 L1644,220 L1645,220 L1646,220 L1647,220 L1648,220 L1649,220 L1650,221 L1651,220 L1652,220 L1653,220 L1654,220 L1655,220 L1656,220 L1657,220 L1658,218 L1659,220 L1660,218 L1661,218 L1662,218 L1663,220 L1664,220 L1665,218 L1666,220 L1667,220 L1668,218 L1669,218 L1670,220 L1671,218 L1672,218 L1673,220 L1674,220 L1675,220 L1676,220 L1677,220 L1678,220 L1679,220 L1680,221 L1681,220 L1682,221 L1683,221 L1684,220 L1685,220 L1686,220 L1687,220 L1688,220 L1689,220 L1690,221 L1691,220 L1692,221 L1693,221 L1694,220 L1695,220 L1696,221 L1697,221 L1698,220 L1699,223 L1700,223 L1701,221 L1702,223 L1703,223 L1704,220 L1705,221 L1706,223 L1707,221 L1708,221 L1709,223 L1710,221 L1711,220 L1712,221 L1713,221 L1714,220 L1715,221 L1716,223 L1717,221 L1718,221 L1719,223 L1720,223 L1721,221 L1722,223 L1723,221 L1724,220 L1725,220 L1726,220 L1727,220 L1728,220 L1729,220 L1730,220 L1731,220 L1732,220 L1733,221 L1734,220 L1735,220 L1736,220 L1737,218 L1738,220 L1739,220 L1740,220 L1741,218 L1742,220 L1743,220 L1744,220 L1745,220 L1746,220 L1747,220 L1748,220 L1749,220 L1750,220 L1751,220 L1752,220 L1753,220 L1754,218 L1755,220 L1756,220 L1757,220 L1758,220 L1759,221 L1760,221 L1761,221 L1762,221 L1763,221 L1764,218 L1765,220 L1766,220 L1767,218 L1768,220 L1769,221 L1770,220 L1771,221 L1772,223 L1773,221 L1774,221 L1775,221 L1776,223 L1777,221 L1778,221 L1779,223 L1780,221 L1781,221 L1782,221 L1783,221 L1784,221 L1785,221 L1786,221 L1787,221 L1788,223 L1789,223 L1790,221 L1791,221 L1792,221 L1793,221 L1794,220 L1795,221 L1796,221 L1797,220 L1798,223 L1799,223 L1800,221 L1801,221 L1802,221 L1803,218 L1804,218 L1805,218 L1806,218 L1807,219 L1808,220 L1809,220 L1810,218 L1811,220 L1812,220 L1813,220 L1814,220 L1815,220 L1816,220 L1817,220 L1818,220 L1819,220 L1820,218 L1821,220 L1822,220 L1823,220 L1824,220 L1825,220 L1826,220 L1827,220 L1828,220 L1829,220 L1830,218 L1831,220 L1832,218 L1833,218 L1834,218 L1835,218 L1836,220 L1837,220 L1838,220 L1839,221 L1840,220 L1841,221 L1842,223 L1843,221 L1844,221 L1845,221 L1846,221 L1847,220 L1848,221 L1849,221 L1850,220 L1851,221 L1852,221 L1853,221 L1854,221 L1855,223 L1856,221 L1857,221 L1858,223 L1859,221 L1860,221 L1861,221 L1862,221 L1863,220 L1864,221 L1865,221 L1866,221 L1867,221 L1868,223 L1869,223 L1870,221 L1871,223 L1872,221 L1873,220 L1874,221 L1875,221 L1876,221 L1877,220 L1878,221 L1879,221 L1880,220 L1881,220 L1882,220 L1883,220 L1884,220 L1885,220 L1886,218 L1887,218 L1888,220 L1889,218 L1890,218 L1891,220 L1892,220 L1893,220 L1894,220 L1895,220 L1896,218 L1897,220 L1898,220 L1899,220 L1900,218 L1901,218 L1902,220 L1903,218 L1904,218 L1905,220 L1906,218 L1907,220 L1908,221 L1909,220 L1910,220 L1911,221 L1912,220 L1913,220 L1914,220 L1915,220 L1916,218 L1917,220 L1918,220 L1919,220 L1920,220 L1921,220 L1922,220 L1923,218 L1924,220 L1925,220 L1926,220 L1927,220 L1928,220 L1929,218 L1930,218 L1931,220 L1932,220 L1933,218 L1934,220 L1935,220 L1936,220 L1937,220 L1938,220 L1939,218 L1940,220 L1941,220 L1942,220 L1943,218 L1944,220 L1945,220 L1946,218 L1947,220 L1948,220 L1949,220 L1950,220 L1951,221 L1952,220 L1953,220 L1954,220 L1955,220 L1956,220 L1957,220 L1958,221 L1959,220 L1960,221 L1961,223 L1962,221 L1963,221 L1964,223 L1965,221 L1966,220 L1967,221 L1968,221 L1969,220 L1970,221 L1971,221 L1972,221 L1973,221 L1974,223 L1975,223 L1976,221 L1977,221 L1978,223 L1979,221 L1980,221 L1981,223 L1982,220 L1983,220 L1984,221 L1985,220 L1986,220 L1987,221 L1988,221 L1989,220 L1990,221 L1991,221 L1992,221 L1993,221 L1994,221 L1995,220 L1996,218 L1997,220 L1998,220 L1999,220 L2000,220 L2001,220 L2002,218 L2003,220 L2004,220 L2005,220 L2006,218 L2007,220 L2008,220 L2009,218 L2010,220 L2011,220 L2012,220 L2013,220 L2014,220 L2015,220 L2016,220 L2017,221 L2018,220 L2019,220 L2020,220 L2021,220 L2022,218 L2023,220 L2024,220 L2025,220 L2026,220 L2027,220 L2028,220 L2029,220 L2030,220 L2031,221 L2032,220 L2033,220 L2034,221 L2035,220 L2036,220 L2037,221 L2038,223 L2039,223 L2040,223 L2041,223 L2042,221 L2043,221 L2044,223 L2045,221 L2046,221 L2047,223 L2048,221 L2049,221 L2050,223 L2051,223 L2052,221 L2053,221 L2054,223 L2055,221 L2056,221 L2057,223 L2058,223 L2059,221 L2060,223 L2061,223 L2062,220 L2063,221 L2064,221 L2065,220 L2066,221 L2067,223 L2068,221 L2069,221 L2070,223 L2071,223 L2072,221 L2073,221 L2074,220 L2075,218 L2076,220 L2077,220 L2078,218 L2079,220 L2080,220 L2081,220 L2082,220 L2083,220 L2084,221 L2085,220 L2086,220 L2087,220 L2088,220 L2089,220 L2090,220 L2091,220 L2092,220 L2093,220 L2094,220 L2095,218 L2096,220 L2097,221 L2098,220 L2099,220 L2100,221 L2101,220 L2102,220 L2103,220 L2104,220 L2105,218 L2106,220 L2107,220 L2108,220 L2109,221 L2110,221 L2111,221 L2112,221 L2113,221 L2114,221 L2115,220 L2116,223 L2117,223 L2118,220 L2119,221 L2120,221 L2121,220 L2122,221 L2123,221 L2124,221 L2125,221 L2126,223 L2127,223 L2128,220 L2129,221 L2130,221 L2131,220 L2132,220 L2133,221 L2134,221 L2135,220 L2136,223 L2137,221 L2138,220 L2139,221 L2140,223 L2141,221 L2142,221 L2143,221 L2144,221 L2145,220 L2146,221 L2147,221 L2148,220 L2149,221 L2150,221 L2151,220 L2152,220 L2153,221 L2154,218 L2155,218 L2156,218 L2157,218 L2158,218 L2159,220 L2160,220 L2161,218 L2162,220 L2163,220 L2164,220 L2165,220 L2166,220 L2167,220 L2168,220 L2169,220 L2170,220 L2171,218 L2172,220 L2173,220 L2174,220 L2175,220 L2176,220 L2177,220 L2178,220 L2179,220 L2180,220 L2181,218 L2182,220 L2183,220 L2184,218 L2185,218 L2186,220 L2187,220 L2188,220 L2189,221 L2190,220 L2191,220 L2192,221 L2193,223 L2194,223 L2195,223 L2196,223 L2197,221 L2198,220 L2199,221 L2200,221 L2201,220 L2202,221 L2203,221 L2204,221 L2205,221 L2206,221 L2207,220 L2208,221 L2209,221 L2210,221 L2211,220 L2212,221 L2213,220 L2214,220 L2215,221 L2216,221 L2217,220 L2218,220 L2219,223 L2220,221 L2221,221 L2222,223 L2223,223 L2224,220 L2225,221 L2226,221 L2227,220 L2228,220 L2229,220 L2230,220 L2231,220 L2232,220 L2233,220 L2234,220 L2235,221 L2236,220 L2237,220 L2238,220 L2239,220 L2240,218 L2241,218 L2242,220 L2243,220 L2244,218 L2245,220 L2246,220 L2247,220 L2248,220 L2249,221 L2250,220 L2251,220 L2252,220 L2253,220 L2254,218 L2255,220 L2256,220 L2257,218 L2258,220 L2259,220 L2260,220 L2261,220 L2262,221 L2263,220 L2264,220 L2265,221 L2266,221 L2267,220 L2268,220 L2269,221 L2270,220 L2271,223 L2272,223 L2273,221 L2274,221 L2275,221 L2276,221 L2277,221 L2278,221 L2279,221 L2280,220 L2281,221 L2282,221 L2283,221 L2284,220 L2285,221 L2286,221 L2287,220 L2288,221 L2289,221 L2290,220 L2291,220 L2292,221 L2293,220 L2294,220 L2295,221 L2296,221 L2297,221 L2298,223 L2299,223 L2300,220 L2301,221 L2302,223 L2303,221 L2304,221 L2305,221 L2306,220 L2307,218 L2308,220 L2309,220 L2310,218 L2311,220 L2312,221 L2313,220 L2314,220 L2315,221 L2316,220 L2317,218 L2318,220 L2319,220 L2320,220 L2321,220 L2322,220 L2323,218 L2324,218 L2325,218 L2326,218 L2327,218 L2328,220 L2329,220 L2330,218 L2331,220 L2332,220 L2333,218 L2334,218 L2335,220 L2336,220 L2337,220 L2338,221 L2339,220 L2340,220 L2341,221 L2342,221 L2343,220 L2344,221 L2345,221 L2346,221 L2347,220 L2348,221 L2349,221 L2350,220 L2351,221 L2352,221 L2353,220 L2354,221 L2355,221 L2356,221 L2357,221 L2358,223 L2359,221 L2360,220 L2361,220 L2362,221 L2363,220 L2364,221 L2365,221 L2366,221 L2367,221 L2368,223 L2369,221 L2370,221 L2371,223 L2372,223 L2373,221 L2374,221 L2375,221 L2376,220 L2377,220 L2378,223 L2379,221 L2380,221 L2381,223 L2382,221 L2383,220 L2384,220 L2385,220 L2386,218 L2387,220 L2388,220 L2389,218 L2390,218 L2391,220 L2392,220 L2393,218 L2394,220 L2395,221 L2396,220 L2397,220 L2398,221 L2399,220 L2400,218 L2401,220 L2402,218 L2403,218 L2404,220 L2405,220 L2406,220 L2407,220 L2408,220 L2409,220 L2410,220 L2411,220 L2412,220 L2413,220 L2414,220 L2415,218 L2416,218 L2417,218 L2418,220 L2419,220 L2420,220 L2421,221 L2422,221 L2423,220 L2424,221 L2425,221 L2426,221 L2427,221 L2428,223 L2429,223 L2430,221 L2431,223 L2432,221 L2433,220 L2434,221 L2435,223 L2436,221 L2437,221 L2438,223 L2439,221 L2440,221 L2441,221 L2442,221 L2443,220 L2444,221 L2445,221 L2446,220 L2447,223 L2448,221 L2449,221 L2450,221 L2451,223 L2452,221 L2453,220 L2454,221 L2455,221 L2456,220 L2457,221 L2458,223 L2459,221 L2460,221 L2461,221 L2462,220 L2463,220 L2464,221 L2465,220 L2466,220 L2467,220 L2468,220 L2469,218 L2470,220 L2471,220 L2472,220 L2473,218 L2474,220 L2475,220 L2476,220 L2477,220 L2478,221 L2479,220 L2480,220 L2481,220 L2482,220 L2483,218 L2484,220 L2485,220 L2486,220 L2487,220 L2488,220 L2489,220 L2490,220 L2491,220 L2492,220 L2493,220 L2494,220 L2495,220 L2496,218 L2497,220 L2498,220 L2499,220 L2500,221 L2501,221 L2502,220 L2503,221 L2504,223 L2505,223 L2506,221 L2507,221 L2508,221 L2509,220 L2510,221 L2511,221 L2512,220 L2513,221 L2514,223 L2515,221 L2516,221 L2517,223 L2518,221 L2519,221 L2520,221 L2521,221 L2522,220 L2523,220 L2524,221 L2525,221 L2526,220 L2527,221 L2528,221 L2529,221 L2530,223 L2531,223 L2532,221 L2533,221 L2534,221 L2535,221 L2536,221 L2537,221 L2538,220 L2539,218 L2540,220 L2541,220 L2542,218 L2543,220 L2544,220 L2545,218 L2546,218 L2547,220 L2548,218 L2549,219 L2550,218 L2551,218 L2552,219 L2553,218 L2554,220 L2555,218 L2556,218 L2557,220 L2558,220 L2559,220 L2560,220 L2561,220 L2562,220 L2563,220 L2564,220 L2565,218 L2566,220 L2567,220 L2568,220 L2569,220 L2570,220 L2571,220 L2572,218 L2573,220 L2574,220 L2575,220 L2576,220 L2577,220 L2578,220 L2579,220 L2580,220 L2581,220 L2582,220 L2583,221 L2584,221 L2585,221 L2586,221 L2587,221 L2588,220 L2589,220 L2590,221 L2591,221 L2592,220 L2593,221 L2594,221 L2595,221 L2596,221 L2597,223 L2598,221 L2599,221 L2600,221 L2601,221 L2602,220 L2603,221 L2604,221 L2605,220 L2606,221 L2607,221 L2608,220 L2609,220 L2610,221 L2611,221 L2612,220 L2613,221 L2614,223 L2615,220 L2616,220 L2617,220 L2618,218 L2619,220 L2620,220 L2621,220 L2622,220 L2623,220 L2624,220 L2625,218 L2626,220 L2627,220 L2628,218 L2629,220 L2630,220 L2631,220 L2632,218 L2633,220 L2634,220 L2635,218 L2636,220 L2637,220 L2638,218 L2639,220 L2640,220 L2641,220 L2642,220 L2643,220 L2644,220 L2645,218 L2646,220 L2647,218 L2648,218 L2649,220 L2650,220 L2651,220 L2652,220 L2653,221 L2654,221 L2655,221 L2656,221 L2657,221 L2658,220 L2659,221 L2660,221 L2661,220 L2662,221 L2663,221 L2664,221 L2665,220 L2666,221 L2667,221 L2668,221 L2669,221 L2670,221 L2671,220 L2672,221 L2673,221 L2674,221 L2675,221 L2676,221 L2677,221 L2678,220 L2679,221 L2680,221 L2681,221 L2682,223 L2683,221 L2684,220 L2685,220 L2686,221 L2687,220 L2688,221 L2689,223 L2690,221 L2691,221 L2692,223 L2693,223 L2694,220 L2695,220 L2696,221 L2697,220 L2698,220 L2699,220 L2700,220 L2701,218 L2702,218 L2703,220 L2704,218 L2705,220 L2706,220 L2707,220 L2708,218 L2709,220 L2710,220 L2711,218 L2712,220 L2713,220 L2714,218 L2715,220 L2716,220 L2717,218 L2718,218 L2719,220 L2720,220 L2721,218 L2722,220 L2723,220 L2724,218 L2725,218 L2726,220 L2727,218 L2728,220 L2729,221 L2730,221 L2731,220 L2732,220 L2733,221 L2734,220 L2735,221 L2736,221 L2737,221 L2738,221 L2739,221 L2740,220 L2741,220 L2742,221 L2743,221 L2744,220 L2745,221 L2746,223 L2747,221 L2748,221 L2749,223 L2750,221 L2751,220 L2752,221 L2753,220 L2754,220 L2755,221 L2756,221 L2757,220 L2758,220 L2759,221 L2760,221 L2761,220 L2762,223 L2763,223 L2764,220 L2765,221 L2766,223 L2767,221 L2768,223 L2769,223 L2770,221 L2771,221 L2772,221 L2773,221 L2774,220 L2775,221 L2776,221 L2777,220 L2778,220 L2779,220 L2780,218 L2781,218 L2782,220 L2783,218 L2784,218 L2785,220 L2786,220 L2787,218 L2788,220 L2789,221 L2790,220 L2791,220 L2792,220 L2793,220 L2794,218 L2795,220 L2796,220 L2797,218 L2798,220 L2799,220 L2800,220 L2801,220 L2802,221 L2803,220 L2804,220 L2805,220 L2806,220 L2807,218 L2808,220 L2809,220 L2810,220 L2811,220 L2812,221 L2813,221 L2814,221 L2815,223 L2816,223 L2817,221 L2818,223 L2819,221 L2820,220 L2821,221 L2822,223 L2823,221 L2824,221 L2825,223 L2826,221 L2827,221 L2828,223 L2829,223 L2830,221 L2831,223 L2832,223 L2833,221 L2834,221 L2835,221 L2836,221 L2837,220 L2838,221 L2839,221 L2840,220 L2841,223 L2842,223 L2843,221 L2844,221 L2845,223 L2846,223 L2847,221 L2848,223 L2849,220 L2850,220 L2851,220 L2852,221 L2853,220 L2854,221 L2855,221 L2856,220 L2857,220 L2858,220 L2859,220 L2860,220 L2861,220 L2862,220 L2863,218 L2864,220 L2865,220 L2866,220 L2867,218 L2868,220 L2869,220 L2870,220 L2871,220 L2872,220 L2873,220 L2874,220 L2875,220 L2876,220 L2877,218 L2878,220 L2879,220 L2880,220 L2881,220 L2882,220 L2883,218 L2884,220 L2885,220 L2886,220 L2887,220 L2888,221 L2889,220 L2890,220 L2891,221 L2892,221 L2893,221 L2894,221 L2895,223 L2896,223 L2897,221 L2898,223 L2899,223 L2900,221 L2901,221 L2902,221 L2903,220 L2904,221 L2905,221 L2906,221 L2907,221 L2908,223 L2909,221 L2910,221 L2911,223 L2912,221 L2913,220 L2914,221 L2915,221 L2916,220 L2917,220 L2918,221 L2919,221 L2920,220 L2921,223 L2922,221 L2923,221 L2924,223 L2925,223 L2926,221 L2927,220 L2928,220 L2929,220 L2930,220 L2931,220 L2932,220 L2933,220 L2934,220 L2935,220 L2936,218 L2937,220 L2938,220 L2939,220 L2940,220 L2941,220 L2942,218 L2943,218 L2944,218 L2945,218 L2946,218 L2947,220 L2948,221 L2949,220 L2950,220 L2951,221 L2952,221 L2953,220 L2954,220 L2955,220 L2956,218 L2957,220 L2958,220 L2959,220 L2960,220 L2961,220 L2962,220 L2963,220 L2964,220 L2965,221 L2966,220 L2967,221 L2968,220 L2969,220 L2970,221 L2971,221 L2972,220 L2973,220 L2974,221 L2975,221 L2976,220 L2977,221 L2978,223 L2979,220 L2980,221 L2981,223 L2982,221 L2983,220 L2984,221 L2985,221 L2986,220 L2987,221 L2988,223 L2989,221 L2990,223 L2991,223 L2992,221 L2993,221 L2994,223 L2995,221 L2996,220 L2997,221 L2998,221 L2999,220 L3000,221 L3001,221 L3002,221 L3003,221 L3004,221 L3005,220 L3006,220 L3007,220 L3008,221 L3009,220 L3010,220 L3011,220 L3012,218 L3013,220 L3014,220 L3015,220 L3016,220 L3017,220 L3018,220 L3019,220 L3020,221 L3021,220 L3022,220 L3023,220 L3024,220 L3025,220 L3026,220 L3027,220 L3028,220 L3029,220 L3030,220 L3031,220 L3032,220 L3033,220 L3034,220 L3035,220 L3036,220 L3037,220 L3038,220 L3039,218 L3040,221 L3041,220 L3042,220 L3043,221 L3044,221 L3045,221 L3046,221 L3047,223 L3048,223 L3049,221 L3050,223 L3051,221 L3052,220 L3053,221 L3054,221 L3055,220 L3056,221 L3057,223 L3058,221 L3059,221 L3060,223 L3061,223 L3062,221 L3063,221 L3064,221 L3065,220 L3066,220 L3067,221 L3068,220 L3069,220 L3070,221 L3071,221 L3072,220 L3073,221 L3074,221 L3075,220 L3076,221 L3077,221 L3078,220 L3079,220 L3080,221 L3081,220 L3082,218 L3083,220 L3084,220 L3085,220 L3086,220 L3087,220 L3088,220 L3089,218 L3090,220 L3091,218 L3092,218 L3093,220 L3094,220 L3095,218 L3096,220 L3097,220 L3098,218 L3099,220 L3100,220 L3101,220 L3102,218 L3103,220 L3104,218 L3105,218 L3106,220 L3107,220 L3108,218 L3109,220 L3110,220 L3111,220 L3112,220 L3113,220 L3114,220 L3115,220 L3116,220 L3117,220 L3118,220 L3119,220 L3120,221 L3121,220 L3122,220 L3123,221 L3124,221 L3125,221 L3126,223 L3127,223 L3128,221 L3129,221 L3130,220 L3131,220 L3132,220 L3133,220 L3134,220 L3135,220 L3136,221 L3137,221 L3138,220 L3139,221 L3140,221 L3141,221 L3142,221 L3143,221 L3144,221 L3145,220 L3146,221 L3147,221 L3148,220 L3149,220 L3150,221 L3151,220 L3152,221 L3153,221 L3154,221 L3155,220 L3156,221 L3157,221 L3158,220 L3159,220 L3160,220 L3161,218 L3162,218 L3163,220 L3164,220 L3165,218 L3166,220 L3167,220 L3168,220 L3169,220 L3170,220 L3171,218 L3172,218 L3173,220 L3174,218 L3175,218 L3176,220 L3177,220 L3178,218 L3179,220 L3180,220 L3181,220 L3182,220 L3183,221 L3184,220 L3185,218 L3186,220 L3187,218 L3188,218 L3189,220 L3190,220 L3191,218 L3192,220 L3193,220 L3194,220 L3195,220 L3196,221 L3197,221 L3198,220 L3199,221 L3200,221 L3201,220 L3202,221 L3203,223 L3204,221 L3205,221 L3206,223 L3207,220 L3208,220 L3209,221 L3210,221 L3211,220 L3212,221 L3213,221 L3214,220 L3215,221 L3216,221 L3217,221 L3218,221 L3219,223 L3220,221 L3221,220 L3222,223 L3223,223 L3224,221 L3225,221 L3226,221 L3227,221 L3228,220 L3229,221 L3230,221 L3231,220 L3232,221 L3233,223 L3234,220 L3235,221 L3236,223 L3237,221 L3238,220 L3239,220 L3240,220 L3241,218 L3242,220 L3243,220 L3244,218 L3245,220 L3246,220 L3247,218 L3248,218 L3249,220 L3250,220 L3251,218 L3252,220 L3253,220 L3254,218 L3255,220 L3256,220 L3257,220 L3258,220 L3259,220 L3260,220 L3261,220 L3262,220 L3263,221 L3264,220 L3265,220 L3266,220 L3267,218 L3268,218 L3269,220 L3270,220 L3271,220 L3272,220 L3273,220 L3274,220 L3275,221 L3276,221 L3277,221 L3278,221 L3279,221 L3280,221 L3281,221 L3282,221 L3283,221 L3284,220 L3285,221 L3286,221 L3287,220 L3288,221 L3289,223 L3290,221 L3291,221 L3292,221 L3293,221 L3294,220 L3295,221 L3296,221 L3297,220 L3298,221 L3299,221 L3300,221 L3301,221 L3302,221 L3303,223 L3304,221 L3305,221 L3306,221 L3307,220 L3308,221 L3309,221 L3310,220 L3311,220 L3312,223 L3313,221 L3314,220 L3315,221 L3316,221 L3317,220 L3318,220 L3319,220 L3320,218 L3321,220 L3322,220 L3323,218 L3324,218 L3325,220 L3326,220 L3327,218 L3328,220 L3329,220 L3330,220 L3331,220 L3332,220 L3333,218 L3334,218 L3335,220 L3336,220 L3337,218 L3338,218 L3339,220 L3340,218 L3341,220 L3342,220 L3343,220 L3344,220 L3345,220 L3346,220 L3347,218 L3348,220 L3349,220 L3350,218 L3351,220 L3352,221 L3353,220 L3354,220 L3355,223 L3356,221 L3357,221 L3358,223 L3359,223 L3360,221 L3361,221 L3362,221 L3363,220 L3364,221 L3365,221 L3366,221 L3367,221 L3368,223 L3369,223 L3370,221 L3371,221 L3372,223 L3373,221 L3374,221 L3375,223 L3376,221 L3377,220 L3378,221 L3379,221 L3380,221 L3381,221 L3382,223 L3383,221 L3384,223 L3385,223 L3386,223 L3387,221 L3388,221 L3389,221 L3390,220 L3391,221 L3392,221 L3393,220 L3394,220 L3395,220 L3396,220 L3397,220 L3398,221 L3399,221 L3400,220 L3401,220 L3402,220 L3403,218 L3404,220 L3405,220 L3406,218 L3407,220 L3408,220 L3409,220 L3410,220 L3411,220 L3412,220 L3413,220 L3414,220 L3415,220 L3416,220 L3417,218 L3418,220 L3419,218 L3420,218 L3421,220 L3422,220 L3423,220 L3424,221 L3425,221 L3426,220 L3427,220 L3428,221 L3429,221 L3430,220 L3431,221 L3432,221 L3433,220 L3434,221 L3435,223 L3436,221 L3437,221 L3438,223 L3439,221 L3440,221 L3441,221 L3442,221 L3443,220 L3444,221 L3445,221 L3446,220 L3447,221 L3448,223 L3449,221 L3450,221 L3451,223 L3452,221 L3453,221 L3454,221 L3455,221 L3456,220 L3457,221 L3458,221 L3459,220 L3460,221 L3461,223 L3462,220 L3463,221 L3464,223 L3465,221 L3466,221 L3467,223 L3468,223 L3469,221 L3470,221 L3471,220 L3472,220 L3473,218 L3474,220 L3475,220 L3476,218 L3477,220 L3478,220 L3479,220 L3480,220 L3481,220 L3482,220 L3483,220 L3484,220 L3485,220 L3486,218 L3487,220 L3488,220 L3489,218 L3490,220 L3491,220 L3492,220 L3493,220 L3494,220 L3495,220 L3496,218 L3497,220 L3498,220 L3499,218 L3500,220 L3501,220 L3502,220 L3503,220 L3504,220 L3505,221 L3506,220 L3507,221 L3508,221 L3509,220 L3510,221 L3511,221 L3512,220 L3513,221 L3514,223 L3515,221 L3516,221 L3517,221 L3518,221 L3519,220 L3520,221 L3521,223 L3522,220 L3523,221 L3524,221 L3525,220 L3526,220 L3527,223 L3528,221 L3529,221 L3530,223 L3531,223 L3532,221 L3533,221 L3534,223 L3535,221 L3536,221 L3537,221 L3538,221 L3539,220 L3540,221 L3541,221 L3542,220 L3543,221 L3544,221 L3545,221 L3546,221 L3547,223 L3548,221 L3549,220 L3550,220 L3551,220 L3552,218 L3553,220 L3554,220 L3555,220 L3556,220 L3557,220 L3558,220 L3559,220 L3560,220 L3561,220 L3562,220 L3563,220 L3564,220 L3565,218 L3566,218 L3567,220 L3568,220 L3569,220 L3570,220 L3571,220 L3572,220 L3573,220 L3574,220 L3575,220 L3576,220 L3577,220 L3578,220 L3579,220 L3580,220 L3581,220 L3582,218 L3583,220 L3584,221 L3585,220 L3586,221 L3587,221 L3588,221 L3589,221 L3590,221 L3591,221 L3592,220 L3593,221 L3594,220 L3595,220 L3596,221 L3597,223 L3598,220 L3599,221 L3600,223 L3601,221 L3602,223 L3603,223 L3604,223 L3605,221 L3606,221 L3607,221 L3608,220 L3609,220 L3610,221 L3611,221 L3612,221 L3613,223 L3614,221 L3615,221 L3616,223 L3617,221 L3618,221 L3619,221 L3620,223 L3621,221 L3622,221 L3623,223 L3624,221 L3625,220 L3626,221 L3627,221 L3628,220 L3629,220 L3630,220 L3631,220 L3632,220 L3633,220 L3634,220 L3635,218 L3636,220 L3637,220 L3638,218 L3639,220 L3640,220 L3641,218 L3642,220 L3643,220 L3644,218 L3645,218 L3646,220 L3647,220 L3648,218 L3649,220 L3650,220 L3651,220 L3652,220 L3653,220 L3654,220 L3655,220 L3656,221 L3657,220 L3658,220 L3659,220 L3660,220 L3661,220 L3662,220 L3663,220 L3664,220 L3665,220 L3666,221 L3667,221 L3668,221 L3669,223 L3670,223 L3671,221 L3672,220 L3673,221 L3674,220 L3675,220 L3676,221 L3677,221 L3678,221 L3679,221 L3680,221 L3681,221 L3682,221 L3683,223 L3684,221 L3685,220 L3686,221 L3687,221 L3688,220 L3689,221 L3690,221 L3691,220 L3692,221 L3693,221 L3694,221 L3695,221 L3696,223 L3697,221 L3698,221 L3699,221 L3700,221 L3701,220 L3702,221 L3703,220 L3704,220 L3705,220 L3706,220 L3707,220 L3708,220 L3709,221 L3710,221 L3711,218 L3712,220 L3713,220 L3714,218 L3715,220 L3716,220 L3717,218 L3718,218 L3719,220 L3720,220 L3721,220 L3722,220 L3723,220 L3724,220 L3725,220 L3726,220 L3727,218 L3728,220 L3729,220 L3730,220 L3731,218 L3732,220 L3733,220 L3734,218 L3735,220 L3736,221 L3737,220 L3738,220 L3739,221 L3740,221 L3741,220 L3742,220 L3743,221 L3744,220 L3745,221 L3746,223 L3747,221 L3748,223 L3749,223 L3750,221 L3751,221 L3752,223 L3753,221 L3754,220 L3755,221 L3756,221 L3757,220 L3758,221 L3759,221 L3760,221 L3761,221 L3762,223 L3763,223 L3764,221 L3765,223 L3766,221 L3767,221 L3768,221 L3769,221 L3770,220 L3771,221 L3772,221 L3773,221 L3774,221 L3775,223 L3776,223 L3777,221 L3778,223 L3779,223 L3780,220 L3781,220 L3782,220 L3783,220 L3784,218 L3785,220 L3786,220 L3787,220 L3788,220 L3789,220 L3790,220 L3791,220 L3792,220 L3793,220 L3794,220 L3795,220 L3796,218 L3797,218 L3798,220 L3799,220 L3800,218 L3801,220 L3802,220 L3803,220 L3804,220 L3805,220 L3806,220 L3807,218 L3808,220 L3809,220 L3810,218 L3811,220 L3812,220 L3813,220 L3814,220 L3815,221 L3816,221 L3817,220 L3818,223 L3819,223 L3820,220 L3821,220 L3822,221 L3823,220 L3824,221 L3825,223 L3826,221 L3827,220 L3828,221 L3829,220 L3830,220 L3831,221 L3832,223 L3833,221 L3834,223 L3835,223 L3836,221 L3837,220 L3838,221 L3839,221 L3840,220 L3841,221 L3842,221 L3843,220 L3844,223 L3845,223 L3846,221 L3847,220 L3848,221 L3849,220 L3850,220 L3851,221 L3852,221 L3853,220 L3854,221 L3855,223 L3856,223 L3857,223 L3858,223 L3859,221 L3860,220 L3861,221 L3862,220 L3863,218 L3864,220 L3865,220 L3866,218 L3867,220 L3868,220 L3869,220 L3870,220 L3871,220 L3872,220 L3873,220 L3874,220 L3875,220 L3876,218 L3877,220 L3878,220 L3879,220 L3880,218 L3881,220 L3882,220 L3883,218 L3884,220 L3885,220 L3886,220 L3887,220 L3888,220 L3889,220 L3890,218 L3891,220 L3892,220 L3893,218 L3894,220 L3895,221 L3896,220 L3897,221 L3898,223 L3899,221 L3900,221 L3901,223 L3902,223 L3903,220 L3904,221 L3905,221 L3906,220 L3907,221 L3908,221 L3909,220 L3910,221 L3911,223 L3912,223 L3913,221 L3914,223 L3915,221 L3916,220 L3917,221 L3918,221 L3919,220 L3920,221 L3921,221 L3922,221 L3923,221 L3924,223 L3925,221 L3926,221 L3927,223 L3928,223 L3929,221 L3930,221 L3931,221 L3932,221 L3933,221 L3934,223 L3935,223 L3936,220 L3937,220 L3938,221 L3939,220 L3940,221 L3941,220 L3942,220 L3943,220 L3944,220 L3945,220 L3946,218 L3947,220 L3948,220 L3949,218 L3950,220 L3951,220 L3952,220 L3953,220 L3954,221 L3955,220 L3956,218 L3957,220 L3958,220 L3959,218 L3960,220 L3961,220 L3962,218 L3963,220 L3964,220 L3965,220 L3966,220 L3967,220 L3968,220 L3969,220 L3970,220 L3971,220 L3972,220 L3973,220 L3974,221 L3975,220 L3976,220 L3977,221 L3978,221 L3979,221 L3980,223 L3981,223 L3982,220 L3983,221 L3984,221 L3985,220 L3986,220 L3987,221 L3988,221 L3989,221 L3990,223 L3991,223 L3992,221 L3993,223 L3994,223 L3995,221 L3996,221 L3997,221 L3998,220 L3999,220 L4000,221 L4001,221 L4002,220 L4003,221 L4004,221 L4005,221 L4006,221 L4007,223 L4008,221 L4009,221 L4010,221 L4011,221 L4012,220 L4013,221 L4014,220 L4015,218 L4016,220 L4017,220 L4018,220 L4019,218 L4020,221 L4021,220 L4022,220 L4023,220 L4024,220 L4025,218 L4026,220 L4027,220 L4028,220 L4029,218 L4030,220 L4031,220 L4032,220 L4033,220 L4034,221 L4035,220 L4036,220 L4037,220 L4038,220 L4039,218 L4040,220 L4041,220 L4042,218 L4043,220 L4044,220 L4045,220 L4046,220 L4047,221 L4048,220 L4049,221 L4050,221 L4051,220 L4052,220 L4053,220 L4054,221 L4055,220 L4056,221 L4057,223 L4058,221 L4059,221 L4060,223 L4061,221 L4062,221 L4063,223 L4064,221 L4065,221 L4066,221 L4067,221 L4068,220 L4069,221 L4070,223 L4071,221 L4072,221 L4073,221 L4074,223 L4075,221 L4076,221 L4077,221 L4078,220 L4079,221 L4080,221 L4081,220 L4082,221 L4083,223 L4084,221 L4085,220 L4086,221 L4087,223 L4088,221 L4089,223 L4090,223 L4091,221 L4092,220 L4093,220 L4094,220 L4095,218 "/>
<text font-family="Arial" x="638" y="230" fill="yellow" font-size="20" text-anchor="end" id="CH1s">CH1: 1V/div (1 x) 20us/div</text>
<text font-family="Arial" x="2" y="230" fill="yellow" font-size="20" text-anchor="start" id="CH1"> </text>
<text font-family="Arial" x="638" y="250" fill="cyan" font-size="20" text-anchor="end" id="CH2s">CH2: 50mV/div (10 x) 20us/div</text>
<text font-family="Arial" x="2" y="250" fill="cyan" font-size="20" text-anchor="start" id="CH2"> </text>
<script type="text/ecmascript"><![CDATA[
function init(evt) { if ( window.svgDocument == null ) svgDocument = evt.target.ownerDocument; }
function fmtT(val, div) {
 if (div > 100) return Math.floor(val*div/32) + " ms";
if (div > 0.025) return Math.floor(val*div*1000/32)/1000 + " ms";
 return Math.floor(val*div*1000*1000/32)/1000 + " us";
}
function fmtU(val, div, shift) { return Math.floor((shift-val)*div/32) + " mV"; }
function msMove (evt)
{
	var x = evt.clientX;
	var y = evt.clientY;
	if (x < 0 || y < 0 || x >= 4096 || y >= 256)
		return;
	var hscroll = (document.all ? document.scrollLeft : window.pageXOffset);
	var width = window.innerWidth;

	svgDocument.getElementById("CH1").setAttribute("x", hscroll+20);
	svgDocument.getElementById("CH2").setAttribute("x", hscroll+20);
	svgDocument.getElementById("CH1s").setAttribute("x", hscroll+width-20);
	svgDocument.getElementById("CH2s").setAttribute("x", hscroll+width-20);

	svgDocument.getElementById("CH1").firstChild.data = "CH1: "+fmtU(y, 1000.000, 157) + " " + fmtT(x, 0.019);
	svgDocument.getElementById("CH2").firstChild.data = "CH2: "+fmtU(y, 500.000, 223) + " " + fmtT(x, 0.019);
}
]]></script>
</svg>
